<?xml version="1.0" encoding="utf-8"?>
<!-- Generator: Adobe Illustrator 20.1.0, SVG Export Plug-In . SVG Version: 6.00 Build 0)  -->
<svg version="1.1" id="Layer_1" xmlns="http://www.w3.org/2000/svg" xmlns:xlink="http://www.w3.org/1999/xlink" x="0px" y="0px"
	 viewBox="0 0 23.7 43" style="enable-background:new 0 0 23.7 43;" xml:space="preserve">
<style type="text/css">
	.st0{fill:#7EA2C2;}
	.st1{fill:#FFFFFF;}
</style>
<title>icon-logo-milewise</title>
<path class="st0" d="M-27.4,321.3c-14.9-19-29.5-40.4-46.5-57c-15.3-15-33-34.4-51.7-45.2"/>
<path class="st1" d="M23.7,41.6L16.6,16c2.4-1.6,4-4.2,4-7.3c0-4.8-3.9-8.7-8.7-8.7C7,0,3.1,3.9,3.1,8.7c0,3.1,1.6,5.7,4,7.3L0,41.6
	c-0.1,0.3,0,0.7,0.2,0.9C0.4,42.8,0.7,43,1.1,43h21.6c0.3,0,0.6-0.2,0.9-0.4C23.7,42.3,23.7,41.9,23.7,41.6z"/>
</svg>
