<svg width="64" height="64" viewBox="0 0 64 64" xmlns="http://www.w3.org/2000/svg"><title>06016aboutinfoL</title><path d="M32.007 61.482c-16.261 0-29.489-13.225-29.489-29.482 0-16.257 13.228-29.482 29.489-29.482 16.261 0 29.489 13.225 29.489 29.482 0 16.257-13.228 29.482-29.489 29.482zm-.27-50.744c-2.909 0-4.678 2.055-4.678 4.393 0 2.34 1.769 4.393 4.678 4.393 2.969 0 4.794-2.053 4.794-4.393 0-2.337-1.826-4.393-4.794-4.393zm-4.164 42.215h8.446v-30.234h-8.446v30.234zm4.434-52.953c-17.648 0-32.007 14.356-32.007 32s14.359 32 32.007 32c17.548 0 31.829-14.195 31.993-31.701v-.597c-.164-17.506-14.445-31.701-31.993-31.701z"/></svg>