<svg width="64" height="64" viewBox="0 0 64 64" xmlns="http://www.w3.org/2000/svg"><title>03021abruptturnC</title><path d="M32 0c-17.673 0-32 14.327-32 32 0 15.164 10.558 27.834 24.715 31.134v-38.052h-6.543v4.267c0 1.173-.785 1.583-1.747.911l-8.695-6.089c-.96-.672-.96-1.773 0-2.445l8.695-6.089c.962-.672 1.747-.262 1.747.911v4.267h8.676c1.178 0 2.133.954 2.133 2.133v40.9c.994.092 1.999.151 3.019.151s2.022-.06 3.019-.151v-25.967c0-1.18.954-2.133 2.133-2.133h8.674v-4.267c0-1.173.787-1.583 1.749-.911l8.693 6.089c.962.672.962 1.773 0 2.445l-8.693 6.089c-.962.672-1.749.262-1.749-.911v-4.267h-6.541v23.121c14.157-3.302 24.715-15.972 24.715-31.136 0-17.673-14.327-32-32-32"/></svg>