<svg width="64" height="64" viewBox="0 0 64 64" xmlns="http://www.w3.org/2000/svg"><title>03021abruptturnF</title><path d="M59.541 26.001l-10.033-7.023c-1.108-.778-2.016-.305-2.016 1.049v4.923h-10.011c-1.359 0-2.462 1.103-2.462 2.462v32.753c0 1.361 1.103 2.462 2.462 2.462 1.359 0 2.462-1.1 2.462-2.462v-30.292h7.55v4.923c0 1.354.908 1.826 2.016 1.051l10.033-7.023c1.11-.778 1.11-2.048 0-2.823zm-33.947-18.282h-10.011v-4.923c0-1.354-.906-1.826-2.016-1.049l-10.033 7.023c-1.108.775-1.108 2.046 0 2.823l10.033 7.023c1.11.775 2.016.303 2.016-1.051v-4.923h7.55v47.522c0 1.359 1.103 2.462 2.462 2.462 1.359 0 2.462-1.103 2.462-2.462v-49.984c0-1.361-1.103-2.462-2.462-2.462z"/></svg>