<svg width="64" height="64" viewBox="0 0 64 64" xmlns="http://www.w3.org/2000/svg"><title>05014accidphotoL</title><path d="M61.437 51.543c0 1.063-.868 1.928-1.935 1.928h-55.003c-1.068 0-1.935-.865-1.935-1.928v-34.711c0-1.065.868-1.931 1.935-1.931h4.872v-4.35c0-.543.444-.988.992-.988h12.905c.55 0 .999.444.999.988v4.35h35.233c1.068 0 1.935.865 1.935 1.931v34.711zm-38.986-35.064v-4.908c0-.165-.134-.299-.296-.299h-10.765c-.162 0-.296.134-.296.299v4.908c0 .165.134.296.296.296h10.765c.162 0 .296-.132.296-.296zm9.543 9.075c-5.028 0-9.11 4.08-9.11 9.11 0 5.03 4.082 9.117 9.11 9.117 5.035 0 9.117-4.087 9.117-9.117 0-5.03-4.082-9.11-9.117-9.11zm24.146-8.36c-1.808 0-3.273 1.47-3.273 3.29 0 1.811 1.465 3.283 3.273 3.283 1.818 0 3.283-1.472 3.283-3.283 0-1.82-1.465-3.29-3.283-3.29zm-24.146 30.295c-7.069 0-12.821-5.754-12.821-12.825s5.752-12.823 12.821-12.823c7.071 0 12.825 5.752 12.825 12.823 0 7.071-5.754 12.825-12.825 12.825zm0-28.212c-8.482 0-15.384 6.902-15.384 15.386 0 8.487 6.902 15.389 15.384 15.389 8.484 0 15.389-6.902 15.389-15.389 0-8.484-6.904-15.386-15.389-15.386zm27.509-6.939h-32.67v-1.787c0-1.959-1.597-3.551-3.563-3.551h-12.905c-1.961 0-3.556 1.592-3.556 3.551v1.787h-2.309c-2.479 0-4.499 2.015-4.499 4.494v34.711c0 2.476 2.02 4.491 4.499 4.491h55.003c2.481 0 4.499-2.015 4.499-4.491v-34.711c0-2.479-2.018-4.494-4.499-4.494z"/></svg>