<svg width="64" height="64" viewBox="0 0 64 64" xmlns="http://www.w3.org/2000/svg"><title>05014accidphotoC</title><path d="M48.553 20.104c-1.239 0-2.24 1.005-2.24 2.251 0 1.237 1.001 2.244 2.24 2.244 1.241 0 2.244-1.007 2.244-2.244 0-1.245-1.003-2.251-2.244-2.251zm4.499 23.496c0 1.216-.982 2.198-2.202 2.198h-37.624c-1.218 0-2.202-.982-2.202-2.198v-23.745c0-1.211.984-2.198 2.202-2.198h2.455v-2.098c0-.861.695-1.554 1.556-1.554h8.829c.857 0 1.56.693 1.56 1.554v2.098h23.224c1.22 0 2.202.986 2.202 2.198v23.745zm-21.018-2.678c-4.886 0-8.863-3.979-8.863-8.867 0-4.888 3.977-8.865 8.863-8.865 4.888 0 8.865 3.977 8.865 8.865s-3.977 8.867-8.865 8.867zm0-19.301c-5.751 0-10.431 4.68-10.431 10.434 0 5.753 4.68 10.434 10.431 10.434 5.753 0 10.434-4.68 10.434-10.434 0-5.753-4.68-10.434-10.434-10.434zm-6.527-2.004v-3.362c0-.111-.091-.202-.202-.202h-7.369c-.111 0-.2.091-.2.202v3.362c0 .111.089.2.2.2h7.369c.111 0 .202-.089.202-.2zm6.527 6.206c-3.439 0-6.232 2.791-6.232 6.232 0 3.441 2.793 6.236 6.232 6.236 3.443 0 6.236-2.795 6.236-6.236s-2.793-6.232-6.236-6.232zm-.034-25.824c-17.673 0-32 14.327-32 32 0 17.673 14.327 32 32 32 17.673 0 32-14.327 32-32 0-17.673-14.327-32-32-32z"/></svg>