<svg width="64" height="64" viewBox="0 0 64 64" xmlns="http://www.w3.org/2000/svg"><title>04001accidentfrgvL</title><path d="M40.41 26.834c-1.02-.759-4.797-3.6-6.44-4.512-1.759-.977-4.172-2.307-11.051-2.322-4.918-.006-9.375 1.396-13.628 4.284-1.595 1.081-2.824 1.274-4.379 1.517l-.487.075c-2.679.436-3.264 1.747-3.285 2.773-.013.744-.173 3.255-.225 4.076l-.735 1.005-.042.181c-.036.157-.337 1.568.079 2.904.726 2.328 2.476 3.297 6.283 3.476.476 2.071 2.295 3.636 4.515 3.678 2.152.043 3.975-1.363 4.594-3.316v-.003l17.11.346c1.296 0 1.928-.291 2.388-.505.175-.079.297-.137.427-.164.718-.155.872.042 1.289.554l.242.29c.44.499.968.75 1.58.75.548 0 1.163-.202 1.844-.603l.154.366c-.493.524-.375 1.036-.297 1.242.345.905 1.578 1.053 4.391 1.053 2.815 0 4.046-.148 4.391-1.053.076-.203.19-.697-.288-1.232l.021-.048.161-.378c.337-.027.629.1 1.077.326.433.217.956.481 1.596.481l.346-.027c1.38-.205 2.338-3.522 2.347-3.557.273-1.178.328-2.402.169-3.745-.163-1.366-.642-2.211-1.651-2.915-.131-.09-.288-.224-.466-.373-.903-.757-2.264-1.899-3.752-1.415-.367.121-.594.081-.715-.049l-.054-.206c-.206-.805-.514-2.022-1.763-2.526-1.396-.566-2.526.09-3.07.437-.337.016-1.686-.257-2.649-.847l-.027-.016zm-29.373 15.081c-1.475-.03-2.653-1.254-2.625-2.732.028-1.477 1.253-2.653 2.729-2.625 1.477.028 2.655 1.251 2.626 2.729-.03 1.477-1.253 2.656-2.731 2.628zm36.48-1.832c-.093.364-.211.623-.302.826-.133.296-.326.721-.219 1.19-.443.042-1.145.075-2.259.075-1.099 0-1.798-.031-2.241-.073.108-.443-.067-.841-.199-1.138-.087-.191-.2-.448-.318-.847-.028-.09-.137-.494-.137-.835 0-1.598 1.299-2.895 2.895-2.895 1.598 0 2.897 1.298 2.897 2.895 0 .348-.073.626-.116.802zm16.483-3.062c0 .494-.451.9-1 .9h-3.793c-.551 0-1.002-.406-1.002-.9 0-.497.451-.902 1.002-.902h3.793c.549 0 1 .405 1 .902zm-5.298-3.949c-.512.202-1.08-.013-1.26-.475-.181-.461.091-1.002.603-1.203l3.518-1.38c.512-.202 1.078.01 1.26.473.181.463-.093 1.003-.605 1.205l-3.516 1.38zm-2.268-4.136c-.373.405-.979.461-1.344.122-.361-.336-.357-.942.019-1.347l2.562-2.771c.375-.405.979-.46 1.344-.122.363.336.355.942-.018 1.347l-2.564 2.771zm-4.22-2.85c-.157.529-.673.847-1.15.706-.475-.142-.736-.688-.581-1.215l1.065-3.607c.157-.529.673-.845 1.15-.705.473.14.736.687.581 1.215l-1.065 3.606zm-23.335-1.88c-.977-.234-3.201-.388-3.201-.388-.4-.027-.803.228-.745.682l.549 3.604c.078.412.315.748.718.767l9.387.485c.402.019.526-.222.272-.538 0 0-2.91-3.642-6.98-4.614zm-6.422-.509s-3.028.087-5.753 1.086c-3.104 1.136-3.916 2.722-3.916 2.722-.185.358-.006.67.396.691l9.795.514c.403.022.797-.282.748-.691l-.549-3.609c-.066-.424-.317-.723-.72-.712zm30.173 14.383c-.145.629-.717 1.787-1.023 2.184-.182-.027-.394-.13-.7-.282-.391-.199-.888-.418-1.481-.487l.009-.214c0-2.592-2.108-4.699-4.699-4.699-2.591 0-4.697 2.107-4.697 4.699l.009.161c-.839.614-1.395.802-1.63.536l-.194-.233c-.47-.582-1.266-1.56-3.056-1.184-.333.069-.59.188-.815.293-.378.175-.733.339-1.614.339l-16.925-.343c-.193-2.404-2.153-4.318-4.614-4.369-2.401-.046-4.397 1.707-4.759 4.015-3.876-.209-4.22-1.317-4.5-2.219-.214-.679-.127-1.463-.075-1.801l.812-1.114.018-.261.109-1.728c.305.042.642.021 1.041-.106.945-.297 1.311-1.012.817-1.595-.348-.408-1.03-.629-1.731-.629l.012-.36c.01-.493.603-.839 1.769-1.027l.478-.076c1.636-.255 3.185-.496 5.111-1.807 3.945-2.679 8.07-3.978 12.615-3.972 6.452.016 8.59 1.215 10.179 2.096 1.742.965 6.426 4.469 6.474 4.503l.043.027c.782.555 3.315 1.523 4.37.835.47-.305.936-.558 1.496-.333.373.152.515.612.69 1.299l.058.225c.142.538.464.957.932 1.212.569.309 1.308.339 2.089.088.532-.175 1.471.614 2.032 1.083.227.191.623.499.641.511-.711.036-1.144.454-.994 1.074.166.685.987 1.339 1.883 1.565.013.729-.024 1.43-.179 2.092z"/></svg>