<svg width="64" height="64" viewBox="0 0 64 64" xmlns="http://www.w3.org/2000/svg"><title>05014accidphotoS</title><path d="M57.001 13h-29v-1.5c0-2.481-2.019-4.5-4.5-4.5h-11c-2.482 0-4.5 2.019-4.5 4.5v1.5h-1c-3.851 0-7 3.15-7 7v30c0 3.85 3.149 7 7 7h50c3.85 0 7-3.15 7-7v-30c0-3.85-3.15-7-7-7zm-45 3.5v-5c0-.275.225-.5.5-.5h11c.275 0 .5.225.5.5v5c0 .275-.226.5-.5.5h-11c-.275 0-.5-.225-.5-.5zm20.333 33.5c-8.271 0-15-6.729-15-15s6.729-15 15-15 15 6.729 15 15-6.729 15-15 15zm0-24c-4.971 0-9 4.029-9 9 0 4.97 4.029 9 9 9 4.97 0 9-4.03 9-9 0-4.971-4.03-9-9-9z"/></svg>