<svg width="64" height="64" viewBox="0 0 64 64" xmlns="http://www.w3.org/2000/svg"><title>05014accidphotoF</title><path d="M57.148 24.13c-1.887 0-3.413-1.536-3.413-3.42 0-1.896 1.526-3.425 3.413-3.425 1.891 0 3.418 1.528 3.418 3.425 0 1.884-1.526 3.42-3.418 3.42zm-25.155 27.243c-8.758 0-15.884-7.129-15.884-15.891 0-8.76 7.127-15.887 15.884-15.887 8.762 0 15.891 7.127 15.891 15.887 0 8.762-7.129 15.891-15.891 15.891zm-21.774-34.83v-5.12c0-.17.139-.306.306-.306h11.222c.167 0 .306.136.306.306v5.12c0 .167-.139.306-.306.306h-11.222c-.167 0-.306-.139-.306-.306zm21.774 28.437c-5.237 0-9.491-4.258-9.491-9.498 0-5.24 4.253-9.488 9.491-9.488 5.245 0 9.498 4.249 9.498 9.488 0 5.24-4.253 9.498-9.498 9.498zm0-22.996c-7.442 0-13.496 6.054-13.496 13.498 0 7.447 6.054 13.503 13.496 13.503 7.444 0 13.503-6.057 13.503-13.503 0-7.444-6.059-13.498-13.503-13.498zm28.656-8.423h-35.367v-3.195c0-1.311-1.072-2.364-2.376-2.364h-13.446c-1.311 0-2.369 1.053-2.369 2.364v3.195h-3.74c-1.853 0-3.351 1.502-3.351 3.346v36.158c0 1.853 1.497 3.346 3.351 3.346h57.299c1.853 0 3.351-1.493 3.351-3.346v-36.158c0-1.844-1.497-3.346-3.351-3.346z"/></svg>