<svg width="64" height="64" viewBox="0 0 64 64" xmlns="http://www.w3.org/2000/svg"><title>05011addacctprofC</title><path d="M39.567 23.835c0-.788-.111-1.55-.295-2.282-1.318-.053-4.083-.321-6.882-1.526-.732.418-1.554.847-2.508 1.281-3.521 1.609-7.072 2.009-8.903 2.106l-.022.42c0 5.13 4.174 9.303 9.305 9.303 5.13 0 9.305-4.174 9.305-9.303zm8.214 32.962h2.492c.469 0 .851-.382.851-.851v-4.808h4.62c.469 0 .851-.382.851-.851v-2.49c0-.471-.382-.853-.851-.853h-4.62v-4.715c0-.469-.382-.851-.851-.851h-2.492c-.469 0-.851.382-.851.851v4.715h-4.901c-.469 0-.853.382-.853.853v2.49c0 .469.384.851.853.851h4.901v4.808c0 .469.382.851.851.851zm-11.73-7.753c0-7.092 5.768-12.862 12.86-12.862s12.862 5.77 12.862 12.862c0 7.092-5.77 12.86-12.862 12.86-7.092 0-12.86-5.768-12.86-12.86zm23.267-10.722c.72-2.581 1.136-5.289 1.136-8.097 0-16.666-13.56-30.225-30.227-30.225-16.666 0-30.225 13.56-30.225 30.225 0 10.33 5.216 19.457 13.145 24.912v-7.054c0-5.776 2.161-12.474 11.417-14.392-3.402-1.975-5.702-5.647-5.702-9.857 0-6.284 5.115-11.397 11.401-11.397s11.399 5.113 11.399 11.397c0 4.21-2.298 7.884-5.702 9.857 2.332.483 4.228 1.259 5.736 2.26-.669.37-1.302.798-1.904 1.265-2.387-1.32-5.55-1.983-9.529-1.983-10.107 0-15.021 4.204-15.021 12.85v8.355c4.422 2.538 9.529 4.012 14.984 4.012 2.735 0 5.372-.398 7.892-1.081 2.724 2.848 6.552 4.63 10.793 4.63 8.248 0 14.958-6.71 14.958-14.956 0-4.204-1.75-8.002-4.552-10.722z"/></svg>