<svg width="64" height="64" viewBox="0 0 64 64" xmlns="http://www.w3.org/2000/svg"><title>05011addacctprofL</title><path d="M21.844 24.623l.045-.443c1.928-.118 5.446-.554 8.936-2.148.982-.449 1.829-.891 2.58-1.321 2.744 1.179 5.43 1.488 6.841 1.559.199.755.337 1.537.337 2.353 0 5.166-4.202 9.37-9.37 9.37-5.166 0-9.368-4.204-9.368-9.37zm36.979 27.278c0 .459-.374.832-.834.832h-4.778v4.973c0 .459-.374.832-.834.832h-2.554c-.459 0-.832-.374-.832-.832v-4.973h-5.071c-.459 0-.832-.374-.832-.832v-2.554c0-.461.374-.834.832-.834h5.071v-4.876c0-.461.374-.834.832-.834h2.554c.461 0 .834.374.834.834v4.876h4.778c.461 0 .834.374.834.834v2.554zm-7.842-14.295c-7.178 0-13.018 5.842-13.018 13.02s5.84 13.018 13.018 13.018c7.178 0 13.018-5.84 13.018-13.018 0-7.178-5.84-13.02-13.018-13.02zm-19.804 22.252c-5.584 0-10.785-1.63-15.198-4.401v-5.96c0-8.753 4.984-13.008 15.233-13.008 4.184 0 7.476.721 9.922 2.156.696-.574 1.449-1.08 2.237-1.527-1.524-1.078-3.459-1.924-5.848-2.466 3.331-2.103 5.556-5.808 5.556-10.03 0-6.543-5.323-11.865-11.867-11.865-6.543 0-11.865 5.323-11.865 11.865 0 4.222 2.223 7.927 5.554 10.03-9.244 2.099-11.418 8.936-11.418 14.845v4.206c-6.676-5.256-10.986-13.389-10.986-22.526 0-15.813 12.866-28.681 28.681-28.681 15.813 0 28.679 12.868 28.679 28.681 0 2.16-.26 4.255-.713 6.279.767.477 1.488 1.017 2.158 1.618.664-2.527 1.052-5.164 1.052-7.896 0-17.192-13.984-31.178-31.176-31.178s-31.178 13.986-31.178 31.178 13.986 31.178 31.178 31.178c2.929 0 5.755-.434 8.447-1.194-.617-.666-1.179-1.38-1.675-2.146-2.176.53-4.435.842-6.772.842z"/></svg>