<svg width="64" height="64" viewBox="0 0 64 64" xmlns="http://www.w3.org/2000/svg"><title>06039addgroupmfC</title><path d="M50.181 61.158c-6.508 0-11.783-5.275-11.783-11.783 0-6.506 5.275-11.781 11.783-11.781 6.506 0 11.781 5.275 11.781 11.781 0 6.508-5.275 11.783-11.781 11.783zm-25.336-40.471c-1.104-.099-3.41-.3-5.719-1.304-.702.402-1.404.702-2.207 1.104-2.909 1.304-5.919 1.706-7.524 1.805v.402c0 4.315 3.511 7.926 7.824 7.926 4.416 0 7.928-3.611 7.928-7.926 0-.702-.101-1.404-.302-2.006zm10.079-4.414c-2.006 1.404-3.412 3.812-3.412 6.522 0 4.313 3.511 7.926 7.928 7.926 4.013 0 7.323-3.01 7.824-6.822-4.915-1.004-9.23-3.613-12.34-7.625zm-4.862 27.39c0-7.425-4.213-10.936-12.843-10.936-8.228 0-12.443 3.195-12.815 9.932-.008.173-.014 1.308-.018 2.394 5.096 8.13 14.135 13.553 24.421 13.553.42 0 .837-.014 1.255-.032v-14.911zm26.37 3.861h-4.4v-4.4c0-.509-.416-.925-.927-.925h-1.851c-.509 0-.927.416-.927.925v4.4h-4.398c-.511 0-.927.418-.927.927v1.851c0 .509.416.927.927.927h4.398v4.398c0 .511.418.927.927.927h1.851c.511 0 .927-.416.927-.927v-4.398h4.4c.509 0 .927-.418.927-.927v-1.851c0-.509-.418-.927-.927-.927zm.205-10.357c.626-2.352.968-4.818.968-7.365 0-15.879-12.919-28.802-28.8-28.802s-28.806 12.922-28.806 28.802c0 4.068.853 7.94 2.38 11.453.159-.847.348-1.646.41-1.871.964-3.633 3.48-6.961 9.113-8.262-2.81-1.706-4.714-4.917-4.714-8.429 0-5.518 4.514-10.031 10.031-10.031 5.52 0 10.033 4.514 10.033 10.031 0 3.511-1.905 6.623-4.714 8.429 2.474.571 4.343 1.533 5.746 2.736 1.402-1.203 3.267-2.167 5.736-2.736-2.81-1.706-4.716-4.917-4.716-8.429 0-5.518 4.516-10.031 10.033-10.031 5.518 0 10.033 4.514 10.033 10.031v.702l.402.101c2.909.903 4.514 4.114 3.611 7.023-.201.501-.402.903-.6 1.304-.704.099-1.505 0-2.209-.201-1.404-.501-2.507-1.505-3.209-2.81-.702 1.004-1.605 1.805-2.609 2.408 3.575.825 5.892 2.468 7.357 4.486-.634-.089-1.277-.151-1.933-.151-.346 0-.686.026-1.024.052-2.132-1.855-5.361-2.78-9.717-2.78-4.299 0-7.498.871-9.632 2.664 1.805 2.408 2.362 5.359 2.362 8.071v14.839c2.227-.26 4.374-.783 6.418-1.525 2.468 3.798 6.737 6.319 11.592 6.319 7.619 0 13.819-6.2 13.819-13.821 0-5.287-2.989-9.886-7.363-12.209z"/></svg>