<svg width="64" height="64" viewBox="0 0 64 64" xmlns="http://www.w3.org/2000/svg"><title>06039addgroupmfL</title><path d="M31.585 59.502c-.424.02-.851.032-1.281.032-10.689 0-20.007-5.971-24.8-14.75l.008-.418c.378-6.846 4.659-10.093 13.022-10.093 8.769 0 13.051 3.568 13.051 11.113v14.115zm-21.003-35.424v-.406c1.633-.103 4.692-.511 7.648-1.837.814-.406 1.53-.713 2.243-1.121 2.344 1.02 4.69 1.224 5.811 1.325.204.612.305 1.325.305 2.039 0 4.385-3.568 8.056-8.054 8.056-4.383 0-7.953-3.671-7.953-8.056zm22.476.103c0-2.752 1.429-5.199 3.467-6.627 3.16 4.077 7.545 6.728 12.539 7.749-.509 3.873-3.873 6.932-7.953 6.932-4.486 0-8.054-3.669-8.054-8.054zm26.263 27.952c0 .517-.422.942-.94.942h-4.471v4.471c0 .517-.424.942-.942.942h-1.881c-.517 0-.942-.424-.942-.942v-4.471h-4.471c-.517 0-.942-.424-.942-.942v-1.881c0-.517.424-.942.942-.942h4.471v-4.471c0-.517.424-.94.942-.94h1.881c.517 0 .942.422.942.94v4.471h4.471c.517 0 .94.424.94.942v1.881zm-7.294-12.913c-6.611 0-11.972 5.36-11.972 11.972 0 6.613 5.36 11.974 11.972 11.974 6.613 0 11.974-5.36 11.974-11.974 0-6.611-5.36-11.972-11.974-11.972zm-12.327 18.694c-1.905.675-3.906 1.156-5.975 1.406v-14.035c0-2.756-.564-5.754-2.398-8.201 2.166-1.823 5.419-2.707 9.785-2.707 4.429 0 7.708.94 9.876 2.825.343-.026.689-.053 1.039-.053.669 0 1.321.063 1.964.154-1.487-2.051-3.843-3.72-7.474-4.558 1.018-.61 1.936-1.426 2.651-2.447.713 1.325 1.835 2.346 3.261 2.855.713.204 1.53.307 2.243.204.204-.408.408-.816.612-1.325.917-2.956-.713-6.219-3.669-7.136l-.408-.101v-.715c0-5.607-4.589-10.194-10.196-10.194-5.607 0-10.196 4.587-10.196 10.194 0 3.568 1.938 6.831 4.793 8.565-2.509.58-4.405 1.558-5.831 2.782-1.426-1.224-3.326-2.202-5.839-2.782 2.855-1.835 4.793-4.997 4.793-8.565 0-5.607-4.589-10.194-10.196-10.194-5.607 0-10.196 4.587-10.196 10.194 0 3.568 1.938 6.831 4.793 8.565-5.726 1.321-8.28 4.704-9.262 8.395l-.026.105c-1.144-3.067-1.772-6.381-1.772-9.84 0-15.568 12.665-28.233 28.233-28.233 15.568 0 28.233 12.665 28.233 28.233 0 2.425-.317 4.777-.897 7.023.657.287 1.283.63 1.883 1.01.703-2.56 1.085-5.251 1.085-8.034 0-16.738-13.568-30.304-30.304-30.304-16.736 0-30.304 13.566-30.304 30.304 0 16.736 13.568 30.304 30.304 30.304 3.722 0 7.286-.675 10.579-1.903-.434-.568-.839-1.16-1.184-1.79z"/></svg>