<svg width="64" height="64" viewBox="0 0 64 64" xmlns="http://www.w3.org/2000/svg"><title>05012addgroupL</title><path d="M31.681 58.293c-.641.044-1.278.098-1.928.098-10.843 0-20.221-6.288-24.747-15.396.694-6.342 4.955-9.326 13.28-9.326 9.138 0 13.395 3.581 13.395 11.27v13.355zm-21.642-35.161c0-4.582 3.728-8.308 8.312-8.308 4.582 0 8.308 3.727 8.308 8.308 0 4.584-3.727 8.31-8.308 8.31-4.584 0-8.312-3.727-8.312-8.31zm22.874 0c0-4.582 3.73-8.308 8.312-8.308 4.582 0 8.31 3.727 8.31 8.308 0 4.584-3.728 8.31-8.31 8.31-4.582 0-8.312-3.727-8.312-8.31zm26.331 28.791c0 .526-.43.957-.957.957h-4.545v4.545c0 .526-.43.957-.957.957h-1.913c-.526 0-.957-.43-.957-.957v-4.545h-4.543c-.526 0-.957-.43-.957-.957v-1.913c0-.526.43-.957.957-.957h4.543v-4.543c0-.526.43-.957.957-.957h1.913c.526 0 .957.43.957.957v4.543h4.545c.526 0 .957.43.957.957v1.913zm-7.415-13.125c-6.72 0-12.169 5.448-12.169 12.169 0 6.722 5.448 12.171 12.169 12.171 6.722 0 12.171-5.448 12.171-12.171 0-6.72-5.448-12.169-12.171-12.169zm-13.028 17.982c-1.616.562-3.277 1.027-5.012 1.282v-13.123c0-3.581-.865-6.437-2.554-8.588 2.206-1.8 5.508-2.682 10.007-2.682 4.76 0 8.148 1.012 10.344 3.032l.243-.011c.945 0 1.867.098 2.76.274-1.726-2.575-4.503-4.247-8.362-4.97 3.099-1.758 5.221-5.05 5.221-8.861 0-5.636-4.586-10.221-10.223-10.221-5.638 0-10.225 4.586-10.225 10.221 0 3.822 2.133 7.12 5.249 8.874-2.657.505-4.813 1.45-6.462 2.833-1.647-1.385-3.799-2.33-6.453-2.837 3.109-1.754 5.24-5.052 5.24-8.871 0-5.636-4.586-10.221-10.223-10.221-5.638 0-10.225 4.586-10.225 10.221 0 3.807 2.116 7.095 5.211 8.855-5.098.947-8.331 3.533-9.726 7.681-.958-2.803-1.504-5.795-1.504-8.918 0-15.241 12.4-27.641 27.645-27.641 15.239 0 27.637 12.4 27.637 27.641 0 2.332-.304 4.591-.857 6.753.671.235 1.324.511 1.946.84.643-2.43 1.02-4.964 1.02-7.593 0-16.404-13.345-29.749-29.746-29.749-16.406 0-29.753 13.345-29.753 29.749 0 16.404 13.347 29.749 29.753 29.749 3.547 0 6.935-.656 10.091-1.8-.394-.61-.744-1.251-1.043-1.919z"/></svg>