<svg width="64" height="64" viewBox="0 0 64 64" xmlns="http://www.w3.org/2000/svg"><title>05012addgroupC</title><path d="M49.543 61.156c-3.966 0-7.462-1.988-9.562-5.016-.307-.443-.578-.911-.823-1.393l-.101-.208c-.227-.475-.432-.964-.594-1.472l-.007-.022c-.161-.499-.276-1.019-.366-1.545l-.055-.357c-.075-.528-.126-1.066-.126-1.615v-.004c0-2.258.655-4.359 1.766-6.142.272-.437.563-.863.891-1.258.474-.574 1.002-1.103 1.576-1.576.397-.327.821-.618 1.258-.891 1.785-1.114 3.884-1.766 6.142-1.766.307 0 .609.022.911.046 5.998.466 10.721 5.469 10.721 11.586 0 6.426-5.208 11.633-11.632 11.633zm-2.776-38.109c0-4.328-3.522-7.848-7.85-7.848-4.328 0-7.852 3.52-7.852 7.848 0 4.328 3.524 7.85 7.852 7.85s7.85-3.522 7.85-7.85zm-42.657 20.635l-.002 1.161c4.983 8.247 14.011 13.789 24.331 13.789.432 0 .85-.046 1.278-.064v-14.886c0-7.349-4.07-10.77-12.805-10.77-8.733 0-12.802 3.421-12.802 10.77zm20.807-20.635c0-4.379-3.562-7.941-7.943-7.941-4.379 0-7.945 3.562-7.945 7.941s3.566 7.943 7.945 7.943c4.381 0 7.943-3.564 7.943-7.943zm30.797 24.647h-4.343v-4.343c0-.503-.411-.914-.914-.914h-1.829c-.503 0-.914.411-.914.914v4.343h-4.345c-.503 0-.914.413-.914.914v1.829c0 .503.411.914.914.914h4.345v4.345c0 .503.411.914.914.914h1.829c.503 0 .914-.411.914-.914v-4.345h4.343c.503 0 .914-.411.914-.914v-1.829c0-.501-.411-.914-.914-.914zm.192-10.235c.62-2.319.965-4.749.965-7.261 0-15.68-12.754-28.436-28.432-28.436-15.682 0-28.44 12.756-28.44 28.436 0 3.928.803 7.673 2.249 11.079.715-5.451 3.986-8.746 9.706-9.891-2.834-1.712-4.754-4.793-4.754-8.34 0-5.387 4.385-9.77 9.774-9.77 5.387 0 9.772 4.383 9.772 9.77 0 3.555-1.927 6.64-4.771 8.349 2.412.496 4.411 1.357 5.928 2.631 1.503-1.258 3.467-2.119 5.84-2.619-2.805-1.741-4.692-4.826-4.692-8.362 0-5.44 4.425-9.863 9.865-9.863s9.865 4.423 9.865 9.863c0 3.557-1.911 6.652-4.741 8.389 3.451.733 5.979 2.275 7.578 4.615-.678-.104-1.368-.176-2.075-.176l-.631.031c-2.096-2.013-5.407-2.995-10.057-2.995-4.301 0-7.459.839-9.567 2.56 1.616 2.053 2.445 4.784 2.445 8.21v14.744c2.207-.256 4.33-.779 6.349-1.518 2.434 3.761 6.658 6.263 11.461 6.263 7.525 0 13.647-6.122 13.647-13.648 0-5.226-2.957-9.772-7.283-12.063z"/></svg>