<svg width="64" height="64" viewBox="0 0 64 64" xmlns="http://www.w3.org/2000/svg"><title>02034addlivingexpF</title><path d="M62.898 41.486c-2.331-.389-4.662-.537-6.993-.537-.867 0-1.735.026-2.602.061-6.512.27-13.022 1.417-19.534 1.417-2.331 0-4.662-.149-6.993-.535l-.188-.017c-.516 0-.914.374-.914.918v16.066c0 .608.497 1.206 1.103 1.307 2.331.387 4.662.535 6.993.535l22.135-1.479c2.331 0 4.662.149 6.993.537v.001l.186.014c.519 0 .916-.374.916-.916v-16.066c0-.608-.497-1.206-1.102-1.307zm-28.407 16.022c0 .558-.453 1.011-1.013 1.011-.558 0-1.011-.453-1.011-1.011 0-1.512-1.232-2.742-2.742-2.742h-1.013v-6.342h1.013c1.51 0 2.742-1.229 2.742-2.742 0-.56.453-1.011 1.011-1.011.56 0 1.013.451 1.013 1.011 0 2.281-1.612 4.193-3.755 4.658v2.511c2.143.465 3.755 2.375 3.755 4.656zm11.142-1.048v.805h-.99v-.789c-1.965-.139-3.501-1.149-4.26-2.293l1.602-1.24c.58.93 1.534 1.582 2.659 1.705v-2.898c-1.443-.306-3.71-1.049-3.742-3.273l-.006-.044c0-1.874 1.568-3.16 3.748-3.241v-.773h.99v.835c1.25.143 2.528.725 3.366 1.685l.184.191-1.502 1.191c-.351-.413-.747-.692-1.172-.908-.275-.137-.552-.271-.876-.33v2.617c1.8.467 3.766 1.272 3.766 3.38 0 1.783-1.371 3.177-3.766 3.378zm15.521-3.111h-1.011c-1.512 0-2.742 1.229-2.742 2.742 0 .56-.453 1.011-1.013 1.011-.558 0-1.011-.451-1.011-1.011 0-2.283 1.61-4.191 3.752-4.656v-2.511c-2.143-.463-3.752-2.378-3.752-4.656 0-.56.453-1.011 1.011-1.011.56 0 1.013.451 1.013 1.011 0 1.512 1.229 2.742 2.742 2.742h1.011v6.339zm-1.155-25.643l.001-.001c.051-.068.127-.209.068-.395l-7.829-17.583c-.143-.237-.527-.442-.781-.442h-11.582l1.733 1.671c.552.535.867 1.28.867 2.045v9.91c0 .648-.523 1.172-1.17 1.172-.648 0-1.172-.525-1.172-1.172v-9.91c0-.135-.055-.266-.153-.36l-9.54-9.204c-.195-.189-.497-.187-.694 0l-9.538 9.206c-.097.093-.155.224-.155.358v9.91c0 .648-.525 1.172-1.17 1.172-.648 0-1.172-.525-1.172-1.172v-9.91c0-.765.318-1.512.87-2.045l1.733-1.671h-11.675c-.254 0-.634.205-.835.552l-7.706 17.404c-.199.398-.099.648.36.648h59.184c.197 0 .308-.114.358-.182zm-25.574-6.562h-8.461v-8.464h8.461v8.464zm12.726 32.2c0 .698-.461 1.224-1.519 1.318v-2.665c.892.218 1.519.558 1.519 1.347zm-2.508-6.291v2.432c-.924-.247-1.47-.541-1.47-1.256l.042-.191c.107-.632.679-.958 1.428-.986zm-37.756-16.824v20.54h16.538v-7.977c0-1.562 1.075-2.822 2.538-3.106l.001.001v-5.174h8.461v5.65c1.496-.02 3.006-.089 4.519-.199v-5.451h8.461v4.664c1.946-.184 3.92-.336 5.898-.417v-8.531h-46.416zm14.556 12.748h-8.461v-8.461h8.461v8.461z"/></svg>