<svg width="64" height="64" viewBox="0 0 64 64" xmlns="http://www.w3.org/2000/svg"><title>02034addlivingexpC</title><path d="M51.788 50.484c-3.867-.623-8.65-.279-13.05.163-4.352.436-9.038.776-12.771.151-.045-.008-.122-.099-.122-.149v-11.384l.409.052c1.767.252 3.706.318 5.708.268 2.294-.056 4.664-.254 6.933-.481 1.906-.19 3.873-.357 5.797-.438 2.473-.103 4.876-.064 6.974.287.045.006.122.101.122.147v11.384zm-27.545-11.384v5.031h-10.853v-13.853h31.302v6.761l-.718.029c-1.059.062-2.118.142-3.165.239l-.093.01v-4.152h-5.708v4.666c-.849.06-1.697.107-2.535.136l-.51.01v-4.812h-5.708v4.534l-.266-.033-.019-.002-.268-.023c-.818 0-1.458.64-1.458 1.458zm-15.191-10.401c-.285 0-.382-.19-.254-.481l5.211-11.693c.134-.233.392-.372.564-.372h7.874l-1.171 1.127c-.372.359-.586.861-.586 1.379v6.683c0 .438.353.791.791.791.436 0 .791-.353.791-.789v-6.685c0-.091.037-.178.103-.242l6.433-6.208c.132-.126.337-.126.467 0l6.435 6.208c.064.062.101.151.101.242l.002 6.685c0 .436.353.789.789.789.438 0 .791-.353.791-.791v-6.683c0-.516-.215-1.02-.586-1.379l-1.169-1.127h7.812c.171 0 .427.138.526.297l5.279 11.859c.039.126-.01.221-.045.266-.033.045-.109.124-.242.124h-39.915zm22.489 12.567c0-.392-.318-.708-.708-.708-.39 0-.708.316-.708.708 0 1.057-.861 1.918-1.918 1.918h-.708v4.437h.708c1.057 0 1.918.861 1.918 1.918 0 .392.318.708.708.708.39 0 .708-.316.708-.708 0-1.594-1.127-2.932-2.626-3.258v-1.757c1.499-.324 2.626-1.662 2.626-3.258zm-14.041-2.391h5.706v-5.706h-5.706v5.706zm8.754-14.724h5.706v-5.708h-5.706v5.708zm13.091 23.443v-1.897c.636.155 1.082.398 1.082.96 0 .498-.33.871-1.082.937zm-.704-3.683c-.659-.178-1.047-.386-1.047-.894 0-.551.458-.815 1.047-.838v1.732zm.941.221l-.237-.068v-1.862c.586.109 1.047.396 1.458.882l1.069-.849c-.588-.774-1.575-1.226-2.527-1.336v-.595h-.704v.551c-1.553.056-2.669.97-2.669 2.306 0 .382.097.7.252.97.495.869 1.629 1.222 2.418 1.389v2.062c-.801-.087-1.48-.551-1.893-1.214l-1.14.884c.541.813 1.633 1.532 3.033 1.633v.562h.704v-.574c1.703-.142 2.68-1.135 2.68-2.403 0-1.41-1.233-1.996-2.442-2.339zm7.988-3.857c0-.39-.318-.706-.708-.706-.39 0-.708.316-.708.706 0 1.596 1.127 2.934 2.626 3.26v1.755c-1.499.326-2.626 1.662-2.626 3.258 0 .39.318.708.708.708.39 0 .708-.318.708-.708 0-1.059.861-1.918 1.918-1.918h.708v-4.435h-.708c-1.057 0-1.918-.861-1.918-1.92zm-16.487-38.441c-17.166 0-31.083 13.915-31.083 31.083 0 17.166 13.917 31.083 31.083 31.083 17.169 0 31.083-13.917 31.083-31.083 0-17.169-13.915-31.083-31.083-31.083z"/></svg>