<svg width="64" height="64" viewBox="0 0 64 64" xmlns="http://www.w3.org/2000/svg"><title>02034addlivingexpL</title><path d="M9.751 48.911v-18.506h41.163v9.537c-1.473.084-2.942.197-4.398.333v-5.882h-7.916v6.602c-1.23.088-2.457.155-3.672.197v-7.347h-9.008v6.928l-.027-.004-.372-.031c-1.136 0-2.025.891-2.025 2.028v6.146h-13.743zm34.731 5.658v-2.639c.883.216 1.502.555 1.502 1.335 0 .691-.458 1.212-1.502 1.304zm-2.436-6.363c0-.766.638-1.132 1.456-1.163v2.406c-.914-.245-1.456-.538-1.456-1.243zm2.436 1.456v-2.588c.816.153 1.452.55 2.025 1.224l1.486-1.178c-.816-1.076-2.189-1.703-3.511-1.856v-.829h-.979v.766c-2.157.08-3.71 1.35-3.71 3.206 0 2.237 2.272 2.973 3.71 3.279v2.869c-1.113-.123-2.059-.766-2.63-1.687l-1.586 1.226c.753 1.132 2.272 2.13 4.216 2.268v.78h.979v-.797c2.369-.199 3.725-1.578 3.725-3.34 0-2.086-1.944-2.881-3.725-3.344zm-14.735 3.116v-2.486c2.12-.458 3.714-2.35 3.714-4.605 0-.555-.45-1.002-1.002-1.002s-1 .448-1 1.002c0 1.494-1.218 2.712-2.712 2.712h-1.002v6.273h1.002c1.494 0 2.712 1.216 2.712 2.712 0 .552.448 1 1 1s1.002-.448 1.002-1c0-2.256-1.594-4.147-3.714-4.605zm-15.413-10.475h7.914v-7.909h-7.914v7.909zm41.788 1.984c0-.555-.45-1.002-1.002-1.002s-1 .448-1 1.002c0 2.256 1.592 4.145 3.712 4.605v2.484c-2.12.458-3.712 2.35-3.712 4.603 0 .555.448 1.002 1 1.002s1.002-.448 1.002-1.002c0-1.494 1.216-2.71 2.712-2.71h1.002v-6.271h-1.002c-1.496 0-2.712-1.218-2.712-2.712zm-53.854-16.712l7.242-16.24c.184-.318.534-.508.766-.508h10.87l-1.588 1.534c-.519.5-.818 1.201-.818 1.925v9.263c0 .615.498 1.113 1.113 1.113.613 0 1.113-.498 1.113-1.113v-9.263c0-.123.048-.241.136-.324l8.918-8.606c.176-.167.448-.169.624.002l8.918 8.602c.086.086.136.205.136.326v9.263c0 .615.5 1.113 1.113 1.113.615 0 1.113-.498 1.113-1.113v-9.263c0-.722-.299-1.423-.818-1.925l-1.588-1.534h10.785c.232 0 .582.19.714.406l7.317 16.43c.052.167-.015.297-.059.356-.046.061-.146.163-.324.163h-55.325c-.326 0-.49-.247-.358-.607zm30.435 13.66c-1.574.004-3.103-.048-4.559-.184v-4.98h4.559v5.164zm29.07 17.353c-5.373-.87-12.023-.389-18.135.224-6.049.607-12.561 1.078-17.75.211-.063-.01-.169-.14-.169-.207v-15.821c5.369.864 12.023.387 18.137-.224 6.049-.603 12.565-1.076 17.748-.211.063.01.169.142.169.207v15.821zm-35.339-36.656h7.914v-7.912h-7.914v7.912zm28.361 17.882c-.55 0-1.105.023-1.657.038v-9.445h4.813c.843 0 1.613-.389 2.113-1.067.5-.676.644-1.53.349-2.457l-7.418-16.658c-.569-.986-1.626-1.62-2.693-1.62h-13.088l-5.026-4.85c-1.042-1.004-2.672-1.004-3.714 0l-5.024 4.85h-13.174c-1.067 0-2.124.634-2.745 1.724l-7.411 16.677c-.249.806-.105 1.657.395 2.335.498.676 1.27 1.065 2.111 1.065h4.898v20.73h15.97v7.679c0 1.157.891 2.212 2.03 2.4 2.226.37 4.572.552 7.173.552 3.739-.002 7.514-.379 11.163-.743 6.047-.607 12.565-1.076 17.74-.213l.375.031c1.134 0 2.025-.891 2.025-2.028v-16.049c0-1.159-.893-2.214-2.032-2.402-2.224-.368-4.57-.55-7.173-.55z"/></svg>