<svg width="64" height="64" viewBox="0 0 64 64" xmlns="http://www.w3.org/2000/svg"><title>05043addnoteC</title><path d="M49.389 61.864c-6.817 0-12.344-5.525-12.344-12.344 0-6.817 5.527-12.342 12.344-12.342 6.819 0 12.344 5.525 12.344 12.342 0 6.819-5.525 12.344-12.344 12.344zm-28.462-12.02c-2.671 0-4.848-2.174-4.848-4.85v-26.708c0-2.673 2.176-4.848 4.848-4.848h1.842v3.011c0 1.376 1.12 2.496 2.496 2.496l.358-.026c1.219-.175 2.136-1.269 2.136-2.546v-2.935h4.821v3.011c0 1.376 1.118 2.496 2.494 2.496l.358-.026c1.219-.175 2.138-1.269 2.138-2.546v-2.935h1.838c2.673 0 4.85 2.174 4.85 4.848v17.711c-2.353.897-4.387 2.412-5.972 4.313h-16.971c-.422 0-.768.344-.768.768 0 .422.346.766.768.766h15.848c-1.408 2.229-2.255 4.848-2.255 7.676l.016.324h-14zm3.347-37.29c0-.547.443-.992.992-.992l.145.01c.503.072.847.551.847 1.058v3.743c0 .507-.344.988-.847 1.058l-.145.012c-.549 0-.992-.445-.992-.994v-3.896zm9.81 0c0-.547.445-.992.992-.992l.147.01c.501.072.845.551.845 1.058v3.743c0 .507-.344.988-.845 1.058l-.147.012c-.547 0-.992-.445-.992-.994v-3.896zm4.938 9.603h-17.705c-.422 0-.768.344-.768.766 0 .424.346.768.768.768h17.705c.422 0 .766-.344.766-.768 0-.422-.344-.766-.766-.766zm0 13.619h-17.705c-.422 0-.768.344-.768.766 0 .424.346.768.768.768h17.705c.422 0 .766-.344.766-.768 0-.422-.344-.766-.766-.766zm0-9.082h-17.705c-.422 0-.768.344-.768.768 0 .422.346.766.768.766h17.705c.422 0 .766-.344.766-.766 0-.424-.344-.768-.766-.768zm0 4.54h-17.705c-.422 0-.768.342-.768.766s.346.766.768.766h17.705c.422 0 .766-.342.766-.766s-.344-.766-.766-.766zm16.916 16.347h-4.608v-4.61c0-.533-.436-.97-.97-.97h-1.941c-.533 0-.97.436-.97.97v4.61h-4.61c-.533 0-.97.436-.97.97v1.941c0 .533.436.97.97.97h4.61v4.61c0 .533.436.97.97.97h1.941c.533 0 .97-.436.97-.97v-4.61h4.608c.535 0 .972-.436.972-.97v-1.941c0-.533-.436-.97-.972-.97zm3.134-8.794c.815-2.732 1.267-5.622 1.267-8.617 0-16.663-13.509-30.17-30.17-30.17-16.663 0-30.17 13.507-30.17 30.17 0 16.663 13.507 30.168 30.17 30.168 2.923 0 5.741-.436 8.414-1.213 2.653 2.983 6.509 4.876 10.805 4.876 7.985 0 14.48-6.495 14.48-14.48 0-4.258-1.861-8.082-4.797-10.733z"/></svg>