<svg width="64" height="64" viewBox="0 0 64 64" xmlns="http://www.w3.org/2000/svg"><title>05043addnoteF</title><path d="M44.522 61.694c-7.36 0-13.328-5.968-13.328-13.328 0-7.36 5.968-13.328 13.328-13.328 7.362 0 13.328 5.968 13.328 13.328 0 7.36-5.966 13.328-13.328 13.328zm-15.126-17.212h-17.941c-.638 0-1.159-.519-1.159-1.159s.521-1.162 1.159-1.162h18.725c-.323.745-.577 1.522-.784 2.321zm-17.941-9.173h24.494c-1.01.664-1.93 1.446-2.757 2.319h-21.736c-.638 0-1.159-.519-1.159-1.159s.521-1.159 1.159-1.159zm0-6.867h26.76c.64 0 1.159.519 1.159 1.159s-.519 1.162-1.159 1.162h-26.76c-.638 0-1.159-.521-1.159-1.162 0-.64.521-1.159 1.159-1.159zm0-6.858h26.76c.64 0 1.159.519 1.159 1.159s-.519 1.159-1.159 1.159h-26.76c-.638 0-1.159-.519-1.159-1.159s.521-1.159 1.159-1.159zm0-6.86h26.76c.64 0 1.159.519 1.159 1.159s-.519 1.159-1.159 1.159h-26.76c-.638 0-1.159-.519-1.159-1.159s.521-1.159 1.159-1.159zm21.018-5.851c.758-.109 1.279-.834 1.279-1.6v-5.658c0-.769-.521-1.492-1.279-1.6l-.221-.015c-.827 0-1.498.671-1.498 1.5v5.888c0 .827.671 1.5 1.498 1.5l.221-.015zm-14.828 0c.758-.109 1.279-.834 1.279-1.6v-5.658c0-.769-.521-1.492-1.279-1.6l-.221-.015c-.827 0-1.498.671-1.498 1.5v5.888c0 .827.671 1.5 1.498 1.5l.221-.015zm33.951 37.398h-4.978v-4.976c0-.575-.471-1.049-1.046-1.049h-2.095c-.577 0-1.049.473-1.049 1.049v4.976h-4.976c-.575 0-1.049.471-1.049 1.049v2.095c0 .575.473 1.046 1.049 1.046h4.976v4.976c0 .577.471 1.049 1.049 1.049h2.095c.575 0 1.046-.471 1.046-1.049v-4.976h4.978c.575 0 1.046-.471 1.046-1.046v-2.095c0-.577-.471-1.049-1.046-1.049zm-5.923-13.48v-24.261c0-2.89-2.349-5.237-5.237-5.237h-4.522v3.98c0 1.876-1.348 3.485-3.137 3.741-.178.026-.352.037-.525.037-2.019 0-3.663-1.643-3.663-3.663v-4.095h-7.503v3.98c0 1.876-1.348 3.485-3.137 3.741-.178.026-.352.037-.525.037-2.019 0-3.663-1.643-3.663-3.663v-4.095h-4.527c-2.885 0-5.234 2.347-5.234 5.237v43.634c0 2.885 2.349 5.234 5.234 5.234h22.551c2.835 3.988 7.481 6.602 12.737 6.602 8.621 0 15.634-7.012 15.634-15.634 0-8.233-6.4-14.982-14.483-15.575z"/></svg>