<svg width="64" height="64" viewBox="0 0 64 64" xmlns="http://www.w3.org/2000/svg"><title>05043addnoteL</title><path d="M54.459 51.262c0 .597-.489 1.086-1.088 1.086h-5.162v5.164c0 .597-.489 1.086-1.086 1.086h-2.173c-.599 0-1.088-.489-1.088-1.086v-5.164h-5.162c-.597 0-1.088-.489-1.088-1.086v-2.173c0-.599.491-1.088 1.088-1.088h5.162v-5.162c0-.597.489-1.086 1.088-1.086h2.173c.597 0 1.086.489 1.086 1.086v5.162h5.162c.599 0 1.088.489 1.088 1.088v2.173zm-23.301-7.524h-19.22c-.662 0-1.203.541-1.203 1.205s.541 1.203 1.203 1.203h18.407c.214-.829.477-1.635.813-2.408zm5.984-7.108h-25.204c-.662 0-1.203.538-1.203 1.203 0 .664.541 1.203 1.203 1.203h22.344c.858-.905 1.815-1.716 2.86-2.405zm3.759-20.152c0 .664-.538 1.203-1.203 1.203h-27.76c-.662 0-1.203-.538-1.203-1.203 0-.664.541-1.203 1.203-1.203h27.76c.664 0 1.203.538 1.203 1.203zm0 7.117c0 .664-.538 1.203-1.203 1.203h-27.76c-.662 0-1.203-.538-1.203-1.203 0-.664.541-1.203 1.203-1.203h27.76c.664 0 1.203.538 1.203 1.203zm0 7.115c0 .664-.538 1.205-1.203 1.205h-27.76c-.662 0-1.203-.541-1.203-1.205s.541-1.203 1.203-1.203h27.76c.664 0 1.203.538 1.203 1.203zm-9.479 26.449h-21.992c-1.678 0-3.043-1.365-3.043-3.045v-45.264c0-1.68 1.365-3.047 3.043-3.047h6.941v1.863c0 .935.822 1.676 1.784 1.54.786-.115 1.327-.865 1.327-1.66v-1.743h12.272v1.863c0 .935.822 1.676 1.784 1.54.786-.115 1.327-.865 1.327-1.66v-1.743h6.934c1.68 0 3.045 1.367 3.045 3.047v25.168c.396-.029.791-.061 1.194-.061.403 0 .797.032 1.194.061v-25.168c0-2.998-2.437-5.432-5.432-5.432h-6.934v-1.741c0-.797-.541-1.547-1.327-1.66-.962-.137-1.784.606-1.784 1.54v1.86h-12.272v-1.741c0-.797-.541-1.547-1.327-1.66-.962-.137-1.784.606-1.784 1.54v1.86h-6.941c-2.993 0-5.43 2.435-5.43 5.432v45.264c0 2.993 2.437 5.428 5.43 5.428h23.393c-.534-.748-1-1.547-1.401-2.383zm14.614-20.81c-7.635 0-13.826 6.191-13.826 13.826 0 7.637 6.191 13.826 13.826 13.826 7.637 0 13.826-6.189 13.826-13.826 0-7.635-6.189-13.826-13.826-13.826z"/></svg>