<svg width="64" height="64" viewBox="0 0 64 64" xmlns="http://www.w3.org/2000/svg"><title>05032addwomanL</title><path d="M21.934 24.754c0-3.227 1.633-6.077 4.111-7.781 3.65 4.717 8.808 7.928 14.642 9.102-.649 4.579-4.554 8.122-9.31 8.122-5.205 0-9.443-4.236-9.443-9.443zm37.219 27.437c0 .461-.376.837-.837.837h-4.807v5.001c0 .461-.376.837-.837.837h-2.57c-.461 0-.837-.376-.837-.837v-5.001h-5.097c-.463 0-.839-.376-.839-.837v-2.568c0-.463.376-.839.839-.839h5.097v-4.903c0-.461.376-.839.837-.839h2.57c.461 0 .837.378.837.839v4.903h4.807c.461 0 .837.376.837.839v2.568zm-7.885-14.375c-7.218 0-13.091 5.875-13.091 13.093s5.873 13.091 13.091 13.091c7.218 0 13.091-5.873 13.091-13.091 0-7.218-5.873-13.093-13.091-13.093zm9.527-16.822c-4.397-11.75-15.181-20.268-27.708-20.948-18.892-1.021-34.442 14.785-32.991 33.759.959 12.531 9.684 23.266 21.591 27.288 6.446 2.178 12.589 1.98 18.161.408-.621-.667-1.186-1.386-1.682-2.156-2.188.533-4.462.847-6.812.847-5.616 0-10.845-1.639-15.283-4.428v-5.993c0-8.802 5.011-13.08 15.318-13.08 4.207 0 7.518.725 9.98 2.168.698-.576 1.455-1.084 2.249-1.533-1.535-1.084-3.48-1.935-5.883-2.48h-.092c1.227-.765 2.303-1.745 3.178-2.888.782 1.523 2.109 2.766 3.87 3.327.874.28 1.76.367 2.621.288.288-.472.537-.978.708-1.517 1.121-3.513-.823-7.273-4.332-8.39-.153-.047-.304-.067-.459-.096.018-.271.043-.541.043-.817 0-6.559-5.336-11.895-11.895-11.895-6.557 0-11.892 5.336-11.892 11.895 0 4.258 2.258 7.99 5.63 10.09l-.071.002c-9.298 2.111-11.484 8.986-11.484 14.926v4.232c-7.757-6.105-12.335-16.075-10.727-27 1.88-12.75 12.411-22.877 25.222-24.308 17.371-1.939 32.14 11.666 32.14 28.655 0 2.17-.261 4.279-.719 6.314.772.48 1.496 1.023 2.17 1.627 1.474-5.611 1.594-11.764-.851-18.298z"/></svg>