<svg width="64" height="64" viewBox="0 0 64 64" xmlns="http://www.w3.org/2000/svg"><title>05032addwomanF</title><path d="M47.783 56.799h2.49c.469 0 .853-.382.853-.851v-4.808h4.62c.469 0 .851-.384.851-.851v-2.492c0-.469-.382-.851-.851-.851h-4.62v-4.715c0-.469-.384-.851-.853-.851h-2.49c-.469 0-.851.382-.851.851v4.715h-4.903c-.469 0-.851.382-.851.851v2.492c0 .467.382.851.851.851h4.903v4.808c0 .469.382.851.851.851zm-22.636-40.422c-2.373 1.633-3.937 4.362-3.937 7.454 0 4.988 4.058 9.046 9.046 9.046 4.554 0 8.295-3.395 8.917-7.781-5.588-1.124-10.53-4.2-14.026-8.719zm23.766 45.529c-7.092 0-12.862-5.77-12.862-12.862 0-7.092 5.77-12.862 12.862-12.862 7.092 0 12.86 5.77 12.86 12.862 0 7.092-5.768 12.862-12.86 12.862zm10.407-23.582c.72-2.583 1.134-5.291 1.134-8.099 0-16.666-13.56-30.225-30.225-30.225-16.668 0-30.227 13.56-30.227 30.225 0 10.33 5.216 19.459 13.145 24.912v-7.052c0-5.778 2.161-12.476 11.417-14.392h.018c-3.412-1.971-5.718-5.649-5.718-9.863 0-6.282 5.111-11.393 11.393-11.393 6.28 0 11.391 5.111 11.391 11.393 0 .265-.022.523-.038.782.146.028.293.046.439.093 3.361 1.069 5.223 4.671 4.147 8.036-.164.515-.4 1-.675 1.453-.827.075-1.675-.008-2.512-.277-1.688-.538-2.959-1.728-3.709-3.187-.92 1.203-2.08 2.203-3.397 2.963h.061c2.33.481 4.228 1.257 5.734 2.258-.669.37-1.302.8-1.904 1.265-2.387-1.32-5.548-1.983-9.529-1.983-10.107 0-15.021 4.204-15.021 12.852v8.353c4.422 2.538 9.531 4.012 14.986 4.012 2.733 0 5.37-.396 7.892-1.081 2.724 2.848 6.55 4.63 10.793 4.63 8.246 0 14.956-6.71 14.956-14.956 0-4.204-1.748-8.002-4.549-10.72z"/></svg>