<svg width="64" height="64" viewBox="0 0 64 64" xmlns="http://www.w3.org/2000/svg"><title>06012agencyassocC</title><path d="M53.254 40.618c0 2.351-1.911 4.261-4.259 4.261h-17.248v-7.352c0-2.417-.844-5.199-4.363-6.221 1.182-.939 1.955-2.374 1.955-3.998 0-2.831-2.302-5.131-5.133-5.131s-5.131 2.3-5.131 5.131c0 1.624.774 3.058 1.955 3.998-3.522 1.022-4.366 3.804-4.366 6.221v7.352h-1.66c-2.349 0-4.259-1.911-4.259-4.261v-18.587c0-2.349 1.911-4.259 4.259-4.259h33.989c2.349 0 4.259 1.911 4.259 4.259v18.587zm-32.627-13.154c.767-.066 1.996-.27 3.218-.882.48-.24.863-.474 1.203-.697 1.139.493 2.221.576 2.642.584.066.27.111.55.111.84 0 1.981-1.613 3.592-3.594 3.592-1.928 0-3.494-1.528-3.579-3.437zm9.581 17.416h-12.004v-7.352c0-3.422 1.964-5.088 6.002-5.088s6.002 1.666 6.002 5.088v7.352zm16.431-19.307h-8.555c-.584 0-1.061.476-1.061 1.058 0 .587.476 1.061 1.061 1.061h8.555c.584 0 1.058-.474 1.058-1.061 0-.582-.474-1.058-1.058-1.058zm0 4.451h-8.555c-.584 0-1.061.474-1.061 1.058 0 .584.476 1.061 1.061 1.061h8.555c.584 0 1.058-.476 1.058-1.061 0-.584-.474-1.058-1.058-1.058zm0 4.451h-8.555c-.584 0-1.061.474-1.061 1.058 0 .584.476 1.061 1.061 1.061h8.555c.584 0 1.058-.476 1.058-1.061 0-.584-.474-1.058-1.058-1.058zm-14.64-34.474c-17.673 0-32 14.327-32 32.002 0 17.673 14.327 32 32 32 17.675 0 32-14.327 32-32 0-17.675-14.325-32.002-32-32.002z"/></svg>