<svg width="64" height="64" viewBox="0 0 64 64" xmlns="http://www.w3.org/2000/svg"><title>06012agencyassocL</title><path d="M61.965 45.701c0 2.798-2.328 5.075-5.193 5.075h-25.153v-9.029c0-3.64-1.27-7.83-6.571-9.368 1.778-1.414 2.944-3.573 2.944-6.017 0-4.263-3.465-7.726-7.728-7.726-4.261 0-7.724 3.463-7.724 7.726 0 2.444 1.164 4.603 2.942 6.017-5.301 1.54-6.571 5.728-6.571 9.368v9.029h-1.685c-2.863 0-5.193-2.277-5.193-5.075v-26.589c0-2.8 2.33-5.077 5.193-5.077h49.544c2.865 0 5.193 2.277 5.193 5.077v26.589zm-47.086-19.107c1.154-.102 3.003-.407 4.845-1.329.72-.362 1.298-.712 1.809-1.05 1.715.743 3.345.867 3.98.881.098.407.163.828.163 1.264 0 2.983-2.428 5.409-5.409 5.409-2.904 0-5.262-2.301-5.388-5.175zm-3.648 24.182v-9.029c0-5.154 2.957-7.663 9.035-7.663 6.082 0 9.039 2.509 9.039 7.663v9.029h-18.074zm43.403-13.609h-13.926c-.629 0-1.14.511-1.14 1.14 0 .627.511 1.14 1.14 1.14h13.926c.629 0 1.14-.513 1.14-1.14 0-.629-.511-1.14-1.14-1.14zm0-6.711h-13.926c-.629 0-1.14.511-1.14 1.14 0 .629.511 1.14 1.14 1.14h13.926c.629 0 1.14-.511 1.14-1.14 0-.629-.511-1.14-1.14-1.14zm0-6.711h-13.926c-.629 0-1.14.511-1.14 1.14 0 .629.511 1.14 1.14 1.14h13.926c.629 0 1.14-.511 1.14-1.14 0-.629-.511-1.14-1.14-1.14zm2.139-11.745h-49.544c-3.986 0-7.228 3.191-7.228 7.112v26.589c0 3.921 3.242 7.11 7.228 7.11h49.544c3.986 0 7.228-3.189 7.228-7.11v-26.589c0-3.921-3.242-7.112-7.228-7.112z"/></svg>