<svg width="64" height="64" viewBox="0 0 64 64" xmlns="http://www.w3.org/2000/svg"><title>06012agencyassocF</title><path d="M54.632 26.024h-13.926c-.629 0-1.14-.511-1.14-1.14 0-.629.511-1.14 1.14-1.14h13.926c.629 0 1.14.511 1.14 1.14 0 .629-.511 1.14-1.14 1.14zm0 6.711h-13.926c-.629 0-1.14-.511-1.14-1.14 0-.629.511-1.14 1.14-1.14h13.926c.629 0 1.14.511 1.14 1.14 0 .629-.511 1.14-1.14 1.14zm0 6.711h-13.926c-.629 0-1.14-.513-1.14-1.14 0-.629.511-1.14 1.14-1.14h13.926c.629 0 1.14.511 1.14 1.14 0 .627-.511 1.14-1.14 1.14zm-29.121-14.35c-.633-.014-2.263-.138-3.978-.881-.511.338-1.089.688-1.809 1.05-1.842.922-3.693 1.227-4.845 1.329.126 2.873 2.485 5.175 5.386 5.175 2.983 0 5.411-2.426 5.411-5.409 0-.435-.065-.857-.165-1.264zm-5.246 8.988c-6.08 0-9.037 2.509-9.037 7.663v11.065h18.076v-11.065c0-5.154-2.957-7.663-9.039-7.663zm37.321-22.084h-51.172c-3.537 0-6.414 2.877-6.414 6.414v27.985c0 3.539 2.877 6.414 6.414 6.414h2.497v-11.065c0-3.64 1.272-7.828 6.573-9.368-1.778-1.414-2.944-3.573-2.944-6.017 0-4.263 3.465-7.726 7.726-7.726 4.263 0 7.728 3.463 7.728 7.726 0 2.444-1.166 4.603-2.944 6.017 5.301 1.538 6.568 5.728 6.568 9.368v11.065h25.969c3.537 0 6.414-2.875 6.414-6.414v-27.985c0-3.537-2.877-6.414-6.414-6.414z"/></svg>