<svg width="64" height="64" viewBox="0 0 64 64" xmlns="http://www.w3.org/2000/svg"><title>06006alertL</title><path d="M31.679 43.571c-2.421 0-4.327 1.908-4.327 4.327 0 2.421 1.906 4.329 4.327 4.329 2.373 0 4.327-1.908 4.327-4.329 0-2.418-1.954-4.327-4.327-4.327zm-.024-3.489c1.319 0 2.536-1.858 2.703-4.128l1.063-14.362c.168-2.268-1.528-4.126-3.766-4.126-2.239 0-3.934 1.858-3.766 4.126l1.066 14.362c.168 2.27 1.384 4.128 2.701 4.128zm29.217 15.64c-1.08 1.865-3.441 2.892-6.647 2.892h-44.448c-3.209 0-5.569-1.027-6.647-2.892-1.08-1.865-.795-4.423.805-7.202l22.266-38.73c1.599-2.778 3.659-4.308 5.799-4.308 2.141 0 4.202 1.53 5.799 4.308l22.266 38.73c1.599 2.78 1.887 5.337.807 7.202zm1.346-8.44l-22.266-38.728c-2.062-3.582-4.885-5.555-7.952-5.555s-5.89 1.973-7.95 5.555l-22.268 38.728c-2.059 3.58-2.344 7.02-.802 9.683 1.542 2.665 4.667 4.133 8.797 4.133h44.448c4.13 0 7.255-1.468 8.795-4.13 1.542-2.665 1.257-6.106-.802-9.685z"/></svg>