<svg width="64" height="64" viewBox="0 0 64 64" xmlns="http://www.w3.org/2000/svg"><title>06006alertF</title><path d="M31.914 53.913c-2.679 0-4.789-2.112-4.789-4.792 0-2.677 2.11-4.789 4.789-4.789 2.626 0 4.789 2.112 4.789 4.789 0 2.679-2.163 4.792-4.789 4.792zm-.027-38.473c2.478 0 4.354 2.057 4.169 4.566l-1.177 15.896c-.186 2.512-1.532 4.569-2.992 4.569-1.458 0-2.804-2.057-2.989-4.569l-1.179-15.896c-.186-2.51 1.691-4.566 4.169-4.566zm30.369 32.804l-22.977-39.96c-1.959-3.408-4.542-5.285-7.277-5.285-2.735 0-5.319 1.876-7.28 5.285l-22.977 39.96c-1.959 3.408-2.279 6.594-.901 8.974 1.375 2.38 4.299 3.692 8.229 3.692h45.857c3.933 0 6.853-1.312 8.232-3.692 1.375-2.38 1.055-5.565-.904-8.974z"/></svg>