<svg width="64" height="64" viewBox="0 0 64 64" xmlns="http://www.w3.org/2000/svg"><title>06006alertC</title><path d="M31.787 36.629c-1.643 0-2.939 1.296-2.939 2.942 0 1.645 1.296 2.942 2.939 2.942 1.615 0 2.944-1.296 2.944-2.942 0-1.645-1.328-2.942-2.944-2.942zm-.015-2.372c.897 0 1.739-1.484 1.875-3.299l.648-8.774c.134-1.815-1.001-3.301-2.523-3.301-1.522 0-2.659 1.486-2.523 3.301l.648 8.774c.136 1.815.98 3.299 1.875 3.299zm21.245 11.522c-.942 1.626-2.937 2.521-5.622 2.521h-31.318c-2.684 0-4.68-.895-5.62-2.521-.942-1.624-.721-3.802.616-6.128l15.692-27.292c1.339-2.327 3.103-3.609 4.971-3.609 1.868 0 3.632 1.282 4.971 3.609l15.69 27.292c1.339 2.325 1.558 4.504.618 6.128zm-21.018-45.779c-17.673 0-32 14.327-32 32 0 17.673 14.327 32 32 32 17.673 0 32-14.327 32-32 0-17.673-14.327-32-32-32z"/></svg>