<svg width="64" height="64" viewBox="0 0 64 64" xmlns="http://www.w3.org/2000/svg"><title>07005allstatemobileC</title><path d="M32 0c-17.673 0-32 14.327-32 32 0 17.673 14.327 32 32 32 17.673 0 32-14.327 32-32 0-17.673-14.327-32-32-32zm19.77 48.395c0 1.994-1.645 3.614-3.669 3.614h-32.6c-2.021 0-3.667-1.62-3.667-3.614v-32.509c0-1.992 1.645-3.614 3.667-3.614h32.6c2.023 0 3.669 1.622 3.669 3.614v32.509zm-3.669-34.632h-32.6c-1.2 0-2.176.953-2.176 2.123v32.509c0 1.17.976 2.123 2.176 2.123h32.6c1.202 0 2.178-.953 2.178-2.123v-32.509c0-1.17-.976-2.123-2.178-2.123zm-16.302 31.009c-9.025 0-16.37-6.009-16.37-12.859 0-6.854 7.344-12.428 16.37-12.428 9.025 0 16.365 5.574 16.365 12.428 0 6.85-7.34 12.859-16.365 12.859zm-2.402-4.626c-.56-.103-1.147-.289-1.527-.545-.283.625.359 1.138 1.527.545zm-2.002-.885c-.188-.116-.748-.621-.9-.794-.188.452.106 1.012.9.794zm9.285-16.917l-.228.228-.395.378c-.063.099-.099.173-.099.22l.011.049c.025.049.334.139.6.19l.061.011-.021.061c-.034.11-.091.22-.277.237-.482.093-1.386.302-1.998.682-.011.004-.834.56-1.234 1.396-.332.701-.551 1.352-.655 1.943l-.055.308.239 1.571.055.38c.074.526.127.908.209 1.147l.321.777.226.61.249.237.553.545.068.078.205.289v.002l.585.11c1.814.408 1.054 1.574 1.054 1.574s.055-.708-1.223-.921c0 0-.733-.095-.754-.11l-.247-.247-.156-.167-.52-.53-.374-.3c-.013-.015-.171-.232-.272-.477l-.12-.245-.053-.116-.27-.577-.72-3.751c-.156-1.329-.851-2.754-1.774-3.633-.53-.503-1.352-1.092-2.224-1.071l-.156.006.032-.251.129-.046.114-.106c.006-.051-.057-.188-.338-.456l-.378-.357-.661-.606-.084-.087c-1.973.712-3.709 1.778-5.088 3.105l.693.414c.285.112.667-.008.997-.163l.08-.038c.45-.222.9-.27.9-.27l.23.095-.177.133c-.397.304-.724.634-.967.982l-.038.072-.207.498-.251.651c-.416 1.039-.769 1.937-.839 3.08l.017.154.125.583c.228 1.075.463 2.19.648 3.696l.025.091c.963 1.151 1.377 2.015 1.871 3.048l.177.365c.021.072.095.291.19.31.036.006.103-.011.23-.144.629-.701.676-1.89.103-2.659l-.272-.22-.034-.017-.03-.055.006-.04c.129-.67.123-1.863-.448-2.218l-.137-.089.211-.144c.724-.507 1.821-1.269 1.705-2.446l-.019-.19.287.135s.182.501.188.83c.011.695-.372 1.299-1.124 1.888.156.251.239.705.239 1.155 0 .33-.044.644-.12.866.065.053.291.243.46.545.18.323.283.703.289 1.075l.283.372c1.012 1.337 1.392 1.838 2.63 2.368 1.115.473 3.221.824 4.284.556l.118-.027-.057.106-.175.247c-.494.262-1.683.412-2.93.272l-.127.135c-.042.057-.065.12-.065.18 0 .021-.053.456.433.511 1.318.129 3.348-.245 4.396-.79.963-.494 1.364-1.048 1.941-1.84l.057-.082s.289-.384.294-.372l-.019-.507c.034-.473.201-1.136.807-1.658-.021-.123-.03-.272-.03-.448 0-.568.106-1.305.346-1.607l-.023-.03c-.553-.636-.931-1.343-1.113-2.108-.055-.222-.192-.843-.192-1.555 0-.264.023-.541.074-.809l.099-.137.201-.084.006.18c.055 1.388.689 3.244 1.983 4.246l.114.089-.118.084c-.452.319-.659 1.441-.53 2.173.017.061.046.167-.03.224-.463.363-.739.934-.765 1.578-.021.528.137 1.024.403 1.263.065.059.19.173.239.165l.099-.118c.317-.777 1.067-2.076 2.125-3.179l.023-.068c.11-.57.606-1.958.999-3.073l.382-1.079.013-.093c-.006-.82-.146-1.781-.422-2.944-.142-.642-.368-1.303-.617-1.918l-.12-.279-.125-.232c-.207-.399-.357-.693-.644-1.035l-.139-.161.089-.021.154-.03.137.019.095.051.454.247c.308.125.805-.013 1.295-.346l.387-.266c-1.362-1.354-3.099-2.442-5.071-3.181l-.991.957zm-7.498.705c.712.287 1.284.708 1.753 1.269.429.522.741 1.122.993 1.842l.226-.591c.334-.775 1.183-1.584 2.011-1.922.338-.139 1.075-.931 1.728-1.631l.893-.927c-1.555-.482-3.23-.756-4.987-.756-1.707 0-3.335.262-4.852.716.703.585 1.867 1.65 2.235 2zm12.806 3.407l.175.319c.152.283.313.575.469 1.058.323.95.494 2.076.494 3.251 0 .26-.008.524-.025.784l-.049.158-.243.659c-.344.915-.989 2.606-1.168 3.291l-.08.154c-.828.961-1.884 2.397-2.368 3.563-.099.218-.249.334-.437.37-.266.049-.594-.103-.942-.441-.137-.148-.258-.34-.372-.545l-.112.146c-.349.494-.944 1.204-2.034 1.757-.515.268-1.8.699-3.213.815-.938.084-1.514.038-1.937-.046-.427-.082-.87-.245-1.005-.809-1.043.465-2.152-.232-1.852-1.1-.517.205-1.979-.327-1.153-1.757l-.313-.395c-.211.545-.56.997-1.052 1.318-.218.116-.549.11-.727 0-.137-.089-.253-.268-.344-.539l-.059-.106c-.959-1.96-1.753-2.991-2.241-3.496-.078-.049-.127-.171-.146-.372-.087-.72-.287-1.715-.469-2.592l-.025-.125-.323-1.686-.006-.12c.021-.743.395-1.686.767-2.621l.429-1.189-1.151-.953-.123-.087c-1.707 1.912-2.725 4.26-2.725 6.806 0 6.389 6.358 11.995 14.171 11.995 7.815 0 14.171-5.606 14.171-11.995 0-2.463-.95-4.744-2.556-6.624-.541.368-1.198.811-1.426 1.153zm-8.096 13.064s.144-.393-.277-.61c-.387-.173-.959-.184-1.451-.173l-.855.053-.12-.013-.665-.363-.395-.22-.068-.038-.537-.294-.568-.317-.281-.285-1.861-2.442.158-.042c.351-.093.877-.327 1.054-.471l.232-.215c.025.384-.209.743-.23.739l.26.395.19.283.45.646.154.218.42.602.473.186.773.408.234.133.56.368h.055s.589-.055.982-.032c1.248.074 1.624.488 1.669.801.082.374-.357.684-.357.684zm1.265-.64s.338-.42.061-.813c-.205-.296-.6-.488-1.109-.528-.403-.032-1.02.015-1.067-.006l-.6-.353c-.224-.137-.71-.359-1.062-.503 0 0-.528-.211-.564-.241l-.084-.108-.171-.241-1.624-2.216.12-.078c.228-.123.551-.38.674-.537.12-.154.196-.298.196-.298s.116.433-.023.731l.492.684.078.093c.251.332.541.705.75 1.084l.152.285.648.22.794.408.144.082.492.291c1.791-.021 2.273.501 2.311 1.06.04.581-.532.946-.608.982zm.915-1.512s.272-.553-.239-.921c-.148-.103-.431-.285-.917-.325l-.809-.051-.04-.013-.543-.361-.591-.353-.194-.11s-.515-.291-.549-.325l-.249-.336-.078-.125-1.314-1.876.099-.055c.334-.215.549-.439.629-.636l.095-.228s.19.351.091.708l1.257 2.023.484.209.15.089.589.365.448.308.834.116c.682.078.912.31 1.081.551.448.699-.234 1.343-.234 1.343z"/></svg>