<svg width="64" height="64" viewBox="0 0 64 64" xmlns="http://www.w3.org/2000/svg"><title>07005allstatemobileL</title><path d="M58.122 64h-52.245c-3.241 0-5.878-2.611-5.878-5.821v-52.356c0-3.21 2.636-5.823 5.878-5.823h52.245c3.241 0 5.878 2.613 5.878 5.823v52.356c0 3.21-2.636 5.821-5.878 5.821zm-52.245-61.597c-1.923 0-3.489 1.535-3.489 3.42v52.356c0 1.885 1.566 3.418 3.489 3.418h52.245c1.923 0 3.489-1.533 3.489-3.418v-52.356c0-1.885-1.566-3.42-3.489-3.42h-52.245zm26.118 9.216c-14.464 0-26.233 8.977-26.233 20.013 0 11.034 11.769 20.712 26.233 20.712s26.228-9.678 26.228-20.712c0-11.036-11.764-20.013-26.228-20.013zm17.536 8.186l-.616.43c-.787.538-1.584.757-2.076.561-.074-.029-.727-.4-.727-.4l-.153-.081-.223-.032-.245.047-.142.036.223.258c.461.552.7 1.024 1.032 1.666l.2.375.191.448c.403.992.763 2.055.99 3.09.441 1.876.668 3.423.679 4.743l-.022.149-.612 1.738c-.632 1.795-1.426 4.031-1.602 4.951l-.038.109c-1.696 1.775-2.897 3.868-3.406 5.118-.081.165-.137.188-.157.19-.079.016-.279-.167-.385-.264-.425-.384-.679-1.185-.648-2.032.043-1.038.486-1.96 1.226-2.543.124-.093.076-.262.049-.362-.207-1.18.126-2.989.85-3.499l.189-.138-.184-.14c-2.076-1.614-3.091-4.605-3.176-6.836l-.011-.292-.322.138-.157.219c-.083.434-.119.877-.119 1.302 0 1.146.22 2.148.308 2.505.29 1.23.898 2.371 1.784 3.395l.038.047c-.387.486-.558 1.673-.558 2.588 0 .28.013.522.047.721-.969.841-1.239 1.908-1.293 2.668l.031.818c-.009-.02-.472.599-.472.599l-.088.133c-.925 1.277-1.568 2.166-3.113 2.961-1.678.877-4.931 1.481-7.043 1.273-.778-.088-.693-.787-.693-.823 0-.095.036-.197.103-.287l.202-.222c2 .228 3.903-.016 4.697-.436l.279-.396.094-.172-.193.045c-1.701.43-5.075-.136-6.861-.897-1.986-.855-2.594-1.659-4.215-3.811l-.452-.599c-.013-.601-.178-1.214-.468-1.734-.27-.484-.63-.791-.736-.875.121-.359.193-.866.193-1.395 0-.726-.133-1.456-.385-1.86 1.208-.949 1.82-1.922 1.802-3.043-.009-.529-.299-1.336-.299-1.336l-.463-.217.031.305c.187 1.894-1.568 3.122-2.731 3.938l-.34.233.223.142c.911.57.922 2.493.718 3.572l-.011.063.047.088.052.027.439.355c.918 1.239.844 3.154-.166 4.282-.202.215-.313.242-.369.233-.151-.029-.272-.382-.304-.5l-.283-.592c-.794-1.657-1.458-3.052-3.003-4.903l-.038-.149c-.299-2.423-.675-4.221-1.041-5.952l-.198-.94-.025-.244c.108-1.842.677-3.289 1.341-4.964l.403-1.047.333-.8.061-.118c.389-.561.913-1.092 1.55-1.582l.286-.215-.371-.154s-.72.079-1.44.436l-.13.061c-.529.251-1.138.443-1.595.262l-1.12-.669c2.213-2.136 4.996-3.857 8.156-5.003l.142.145 1.059.977.607.574c.448.432.551.653.54.737-.02.084-.103.124-.184.17l-.202.075-.052.405.25-.011c1.397-.034 2.713.918 3.565 1.725 1.478 1.415 2.591 3.71 2.843 5.853l1.154 6.04.434.929.083.19.191.393c.164.396.416.744.439.764l.598.484.835.857.247.267.398.4c.034.025 1.206.176 1.206.176 2.049.344 1.961 1.485 1.961 1.485s1.217-1.879-1.689-2.539l-.936-.176v-.002l-.328-.468-.108-.122-.889-.882-.398-.38-.364-.981-.513-1.252c-.13-.384-.216-.999-.335-1.849l-.088-.613-.382-2.532.085-.495c.166-.949.522-1.998 1.053-3.126.639-1.352 1.957-2.245 1.975-2.249.983-.615 2.429-.952 3.203-1.099.295-.029.389-.206.441-.382l.036-.099-.099-.018c-.427-.081-.92-.224-.96-.305l-.016-.077c0-.077.056-.194.157-.355l.632-.608.367-.366 1.599-1.551c3.158 1.187 5.932 2.95 8.114 5.129zm-21.385 25.09c-1.869.956-2.902.127-2.447-.879.607.411 1.55.712 2.447.879zm-3.208-1.426c-1.273.35-1.743-.549-1.442-1.28.241.28 1.14 1.092 1.442 1.28zm7.056-30.482c2.819 0 5.516.427 8.008 1.2l-1.449 1.508c-1.046 1.128-2.227 2.401-2.767 2.629-1.327.543-2.688 1.845-3.223 3.095l-.362.954c-.403-1.164-.904-2.127-1.593-2.966-.751-.907-1.667-1.582-2.807-2.046-.592-.567-2.474-2.299-3.601-3.242 2.432-.732 5.057-1.133 7.794-1.133zm0 37.989c-12.52 0-22.71-9.029-22.71-19.319 0-4.098 1.62-7.89 4.353-10.973l.209.154c.036.023 1.615 1.338 1.849 1.535-.04.099-.688 1.912-.688 1.912-.598 1.508-1.194 3.027-1.23 4.223l.011.192.517 2.715.04.201c.29 1.411.614 3.016.751 4.173.031.326.108.522.236.599.778.816 2.054 2.473 3.59 5.631l.092.17c.146.434.333.726.556.868.281.174.814.185 1.163 0 .79-.518 1.345-1.246 1.687-2.123l.499.635c-1.323 2.306 1.017 3.16 1.849 2.833-.481 1.395 1.293 2.521 2.967 1.772.216.904.929 1.171 1.613 1.302.677.138 1.599.21 3.104.075 2.263-.188 4.321-.882 5.147-1.311 1.748-.895 2.702-2.037 3.259-2.833l.18-.233c.182.33.376.637.596.875.56.545 1.082.791 1.509.712.301-.057.54-.246.7-.595.774-1.876 2.47-4.191 3.797-5.742l.126-.246c.29-1.101 1.323-3.827 1.872-5.301l.391-1.058.079-.255c.025-.423.04-.845.04-1.261 0-1.894-.274-3.705-.792-5.238-.252-.778-.511-1.246-.751-1.704l-.281-.513c.367-.549 1.419-1.27 2.29-1.863 2.573 3.027 4.089 6.705 4.089 10.672 0 10.29-10.185 19.319-22.71 19.319zm1.865-11.877l-.229-.136-1.273-.656-1.039-.355c0-.038-.243-.459-.243-.459-.335-.608-.801-1.209-1.203-1.743l-.124-.149-.787-1.101c.223-.484.034-1.18.034-1.18s-.119.233-.313.482c-.196.251-.715.665-1.08.864l-.193.127 2.603 3.567.274.387.135.174c.056.047.907.389.907.389.565.233 1.343.59 1.701.812l.96.565c.074.034 1.064-.041 1.712.011.814.063 1.446.373 1.775.852.445.631-.097 1.307-.097 1.307.119-.059 1.037-.647.974-1.582-.063-.9-.835-1.741-3.703-1.707l-.79-.468zm-2.186 2.45h-.088c0-.016-.895-.595-.895-.595l-.378-.215c-.052-.023-1.239-.656-1.239-.656l-.756-.298c0-.023-.675-.97-.675-.97l-.25-.35-.718-1.042-.306-.454-.414-.637c.031.007.409-.572.367-1.189-.052.084-.092.106-.371.346-.286.231-1.127.61-1.689.76l-.252.068 2.98 3.931.45.461.911.509.857.472.11.061.632.355 1.068.585.191.018 1.372-.086c.79-.014 1.705 0 2.324.283.675.35.445.983.445.983s.702-.502.569-1.103c-.07-.504-.673-1.171-2.672-1.289-.63-.038-1.575.052-1.575.052zm4.474-4.365l-.718-.5-.942-.585-.241-.145-.776-.339-2.013-3.258c.157-.574-.146-1.139-.146-1.139l-.153.366c-.128.319-.472.68-1.008 1.026l-.157.088 2.103 3.02.124.199.4.545c.056.052.882.522.882.522l.313.176.947.57.868.581.065.018 1.296.084c.778.066 1.235.357 1.471.524.819.592.38 1.481.38 1.481s1.095-1.038.376-2.161c-.27-.389-.641-.764-1.73-.891l-1.341-.183z"/></svg>