<svg width="64" height="64" viewBox="0 0 64 64" xmlns="http://www.w3.org/2000/svg"><title>04010appointprodF</title><path d="M48.392 22.548h-22.117c-.667 0-1.208-.541-1.208-1.208 0-.665.541-1.208 1.208-1.208h22.117c.667 0 1.208.543 1.208 1.208 0 .667-.541 1.208-1.208 1.208zm0 7.155h-22.117c-.667 0-1.208-.543-1.208-1.208 0-.667.541-1.208 1.208-1.208h22.117c.667 0 1.208.541 1.208 1.208 0 .665-.541 1.208-1.208 1.208zm0 7.148h-22.117c-.667 0-1.208-.543-1.208-1.208 0-.667.541-1.211 1.208-1.211h22.117c.667 0 1.208.543 1.208 1.211 0 .665-.541 1.208-1.208 1.208zm0 7.146h-22.117c-.667 0-1.208-.541-1.208-1.208 0-.665.541-1.208 1.208-1.208h22.117c.667 0 1.208.543 1.208 1.208 0 .667-.541 1.208-1.208 1.208zm-22.117-31.015h12.757c.667 0 1.208.543 1.208 1.211 0 .665-.541 1.208-1.208 1.208h-12.757c-.667 0-1.208-.543-1.208-1.208 0-.667.541-1.211 1.208-1.211zm31.312-.041l-11.398-11.937v7.834c0 2.248 1.858 4.103 4.105 4.103h7.293zm-43.251 37.676l-.016-45.373c-1.553.05-2.8 1.319-2.8 2.886l.018 47.733c0 1.598 1.296 2.895 2.895 2.895l35.276-.023c1.531-.005 2.802-1.107 3.077-2.559l-32.868.02c-3.077 0-5.582-2.502-5.582-5.579zm-5.487 5.248l-.016-45.382c-1.569.032-2.834 1.31-2.834 2.888l.016 47.735c.002 1.598 1.296 2.892 2.895 2.892l35.276-.023c1.531-.005 2.8-1.102 3.077-2.552l-32.83.02c-3.077 0-5.582-2.505-5.584-5.579zm49.448-40.264h-8.003c-3.729 0-6.763-3.034-6.763-6.763v-8.839h-23.63c-1.601 0-2.895 1.285-2.895 2.883l.016 47.735c0 1.598 1.296 2.892 2.895 2.892l35.276-.023c1.734-.005 3.136-1.411 3.136-3.147l-.032-34.739z"/></svg>