<svg width="64" height="64" viewBox="0 0 64 64" xmlns="http://www.w3.org/2000/svg"><title>04010appointprodL</title><path d="M56.3 49.583c0 1.012-.823 1.835-1.835 1.84l-33.905.02c-.882 0-1.597-.715-1.597-1.595l-.017-45.88c0-.886.717-1.606 1.599-1.606h22.82v7.332c0 3.523 2.869 6.392 6.392 6.392h6.543v33.497zm-5.276 5.042c0 1.014-.821 1.84-1.831 1.84l-33.905.022c-.882 0-1.599-.717-1.599-1.597l-.015-45.878c0-.882.717-1.599 1.597-1.599h1.309v.108l.015 42.326c0 2.186 1.779 3.963 3.965 3.963l30.464-.017v.832zm-5.306 5.038c0 1.012-.821 1.837-1.833 1.842l-33.905.02c-.88 0-1.597-.715-1.597-1.595l-.015-45.882c0-.425.165-.828.468-1.127.299-.303.7-.47 1.129-.47h1.343v.108l.015 42.331c0 2.186 1.779 3.965 3.965 3.965l30.429-.02v.828zm-18.746-43.709h12.264c.639 0 1.161-.52 1.161-1.161 0-.639-.522-1.161-1.161-1.161h-12.264c-.639 0-1.161.522-1.161 1.161 0 .641.522 1.161 1.161 1.161zm22.421 5.709c0-.641-.52-1.161-1.161-1.161h-21.26c-.639 0-1.161.52-1.161 1.161s.522 1.161 1.161 1.161h21.26c.641 0 1.161-.52 1.161-1.161zm0 20.616c0-.641-.52-1.161-1.161-1.161h-21.26c-.639 0-1.161.52-1.161 1.161s.522 1.161 1.161 1.161h21.26c.641 0 1.161-.52 1.161-1.161zm0-6.871c0-.639-.52-1.161-1.161-1.161h-21.26c-.639 0-1.161.522-1.161 1.161 0 .641.522 1.161 1.161 1.161h21.26c.641 0 1.161-.52 1.161-1.161zm0-6.871c0-.639-.52-1.161-1.161-1.161h-21.26c-.639 0-1.161.522-1.161 1.161 0 .641.522 1.164 1.161 1.164h21.26c.641 0 1.161-.522 1.161-1.164zm-1.918-26.154c-1.452-1.515-3.484-2.383-5.577-2.383h-21.353c-2.186 0-3.965 1.779-3.965 3.967v1.077h-1.309c-2.184 0-3.965 1.779-3.965 3.967v1.073h-1.341c-1.06 0-2.054.414-2.804 1.159-.75.75-1.161 1.746-1.161 2.806l.015 45.88c.002 2.186 1.781 3.963 3.965 3.963l.002.108v-.108l33.909-.022c2.312-.007 4.193-1.894 4.193-4.208v-.83h1.114c2.312-.009 4.195-1.896 4.195-4.208v-.834h1.079c2.31-.009 4.193-1.896 4.193-4.208v-32.405c0-1.998-.761-3.894-2.143-5.339l-9.046-9.455z"/></svg>