<?xml version="1.0" encoding="UTF-8" standalone="no"?>
<svg width="64px" height="64px" viewBox="0 0 64 64" version="1.1" xmlns="http://www.w3.org/2000/svg" xmlns:xlink="http://www.w3.org/1999/xlink">
    <!-- Generator: Sketch 41 (35326) - http://www.bohemiancoding.com/sketch -->
    <title>ArrowS</title>
    
    <defs></defs>
    <g id="Actions" stroke="none" stroke-width="1" fill="none" fill-rule="evenodd">
        <g id="ArrowS" fill="#000000">
            <path d="M5.33052804,33.892786 C6.78933119,35.3515892 7.90671233,35.3515892 9.36551548,33.892786 L27.8289086,15.4293929 L27.8289086,53.9080973 L27.8200405,53.9080973 L27.8244745,61.1444704 C27.8200405,63.2107387 28.6093017,64 30.67557,64 L33.8414833,64 C35.9033175,64 36.6925788,63.2107387 36.6925788,61.1444704 L36.6925788,60.2842643 L36.7014469,60.2354897 L36.6970128,15.4249589 L54.8367201,33.5646661 C56.2955233,35.0234693 57.4129044,35.0234693 58.8717076,33.5691002 L61.1109039,31.3299039 C62.569707,29.8666667 62.569707,28.7537196 61.1064698,27.2949164 L34.9100898,1.09410236 C33.4468526,-0.364700788 31.0835028,-0.364700788 29.6202656,1.09410236 L3.09576576,27.6230363 C1.63696261,29.0818394 1.63252856,30.1947865 3.09576576,31.6535897 L5.33052804,33.892786" fill="#444"></path>
        </g>
    </g>
</svg>