<svg width="64" height="64" viewBox="0 0 64 64" xmlns="http://www.w3.org/2000/svg"><title>06001attachmentL</title><path d="M35.418 25.695c.618-.618.618-1.625 0-2.243-.621-.618-1.622-.618-2.241 0l-16.007 16.007c-2.58 2.58-2.58 6.783 0 9.371 2.583 2.578 6.788 2.578 9.371 0l31.783-31.783c3.893-3.898 3.893-10.233 0-14.129-3.896-3.891-10.23-3.891-14.121 0l-38.295 38.297c-2.522 2.52-3.909 5.87-3.909 9.434 0 3.569 1.386 6.92 3.909 9.437 2.52 2.522 5.87 3.914 9.437 3.914 3.564 0 6.917-1.392 9.437-3.911l29.499-29.499c.618-.618.618-1.622 0-2.241-.618-.621-1.622-.621-2.241 0l-29.499 29.499c-3.845 3.85-10.55 3.848-14.392-.003-1.924-1.921-2.981-4.474-2.981-7.196 0-2.717 1.057-5.272 2.981-7.191l38.295-38.297c2.659-2.659 6.983-2.656 9.64 0 2.659 2.659 2.659 6.983 0 9.642l-31.783 31.783c-1.346 1.346-3.541 1.348-4.889.003-1.346-1.348-1.346-3.544 0-4.889l16.007-16.004"/></svg>