<svg width="64" height="64" viewBox="0 0 64 64" xmlns="http://www.w3.org/2000/svg"><title>06001attachmentC</title><path d="M49.102 22.503l-20.135 20.13c-1.703 1.705-4.687 1.709-6.394 0-.856-.853-1.326-1.988-1.326-3.199 0-1.207.47-2.341 1.326-3.199l10.138-10.135c.519-.519 1.36-.519 1.881 0 .519.519.519 1.362 0 1.881l-10.14 10.138c-.351.351-.545.819-.545 1.315 0 .5.194.964.545 1.315.707.709 1.935.709 2.633.002l20.132-20.13c1.556-1.556 1.556-4.089 0-5.647-1.556-1.554-4.089-1.554-5.644.002l-24.255 24.257c-1.156 1.154-1.79 2.69-1.79 4.325 0 1.632.634 3.171 1.79 4.325 2.314 2.316 6.343 2.316 8.656 0l18.683-18.683c.519-.519 1.364-.519 1.884 0 .517.519.517 1.36 0 1.881l-18.685 18.685c-1.66 1.658-3.865 2.571-6.209 2.571-2.345 0-4.55-.913-6.209-2.571-1.66-1.658-2.571-3.865-2.571-6.209 0-2.345.911-4.55 2.571-6.209l24.253-24.255c2.592-2.59 6.817-2.595 9.407 0 2.592 2.595 2.592 6.815.002 9.407zm-10.857-21.882c-17.329-3.448-34.173 7.805-37.623 25.134-3.448 17.329 7.805 34.173 25.134 37.623 17.329 3.448 34.173-7.805 37.623-25.134 3.448-17.329-7.805-34.173-25.134-37.623z"/></svg>