<svg width="64" height="64" viewBox="0 0 64 64" xmlns="http://www.w3.org/2000/svg"><title>06001attachmentS</title><path d="M17.425 64l-.268-.002c-3.896-.074-7.511-1.747-10.183-4.707-4.295-4.761-5.204-11.88-2.261-17.713.291-.465 1.317-1.944 2.357-3.009l34.491-35.443c.797-.816 2.016-1.706 2.016-1.706 4.802-2.552 10.123-1.579 13.558 2.228 4.225 4.68 4.077 12.174-.33 16.704l-27.198 27.958c-1.565 1.61-3.654 2.566-5.837 2.435-2.194-.039-4.229-.977-5.729-2.636-2.996-3.326-2.893-8.643.228-11.854l12.706-13.06c1.001-1.025 2.64-1.047 3.666-.05 1.028.998 1.049 2.64.051 3.666l-12.704 13.059c-1.233 1.27-1.278 3.451-.096 4.764.526.583 1.227.913 1.972.927.871.015 1.469-.295 2.024-.866l27.2-27.958c2.537-2.611 2.627-6.922.198-9.614-1.804-2.001-4.579-2.527-6.922-1.339.01.018-.643.506-1.09.963l-34.489 35.441c-.77.789-1.593 1.989-1.62 2.028-1.775 3.572-1.167 8.468 1.659 11.6 1.702 1.886 3.984 2.949 6.431 2.996 2.451.017 4.807-.942 6.597-2.783l27.929-28.71c.998-1.03 2.64-1.05 3.666-.051 1.028.998 1.049 2.64.051 3.666l-27.929 28.712c-2.738 2.814-6.33 4.354-10.144 4.354" fill="#000"/></svg>