<svg width="64" height="64" viewBox="0 0 64 64" xmlns="http://www.w3.org/2000/svg"><title>06005attentionS</title><path d="M4.691 4.171c-.543 0-1.092.146-1.584.454l-1.698 1.061c-1.401.875-1.831 2.738-.955 4.139l30.771 49.243c.568.909 1.551 1.41 2.555 1.41.543 0 1.092-.147 1.583-.454l1.698-1.061c1.401-.876 1.831-2.738.956-4.139l-30.771-49.244c-.568-.909-1.551-1.409-2.555-1.409zm41.976 3.618c-3.083 1.24-8.81 1.967-16.461-2.584-6.124-3.642-13.14-2.364-17.928.873l17.166 27.471c4.788-3.327 11.894-4.687 18.095-.999 7.651 4.55 13.377 3.824 16.461 2.583l-17.333-27.344z" fill="#000"/></svg>