<svg width="64" height="64" viewBox="0 0 64 64" xmlns="http://www.w3.org/2000/svg"><title>06005attentionC</title><path d="M40.846 34.442c-7.43-2.582-11.579-2.043-15.326 2.017-3.158-4.973-8.485-13.358-10.676-16.784 2.897-3.375 6.089-4.638 13.883-1.919 6.385 2.217 12.652.13 14.714-.699l10.64 16.833c-2.121.801-7.707 2.48-13.235.553zm-8.247 19.241c-.729.431-1.662.189-2.081-.487l-19.83-31.953c-.251-.404-.336-.874-.238-1.286.055-.232.198-.553.567-.78.204-.125.504-.176.789-.17.412.013.699.23 1.103.81.706 1.069 13.484 21.192 13.617 21.399l6.553 10.397c.429.712.208 1.645-.48 2.07zm-.599-53.683c-17.673 0-32 14.327-32 32 0 17.673 14.327 32 32 32 17.673 0 32-14.327 32-32 0-17.673-14.327-32-32-32z"/></svg>