<svg width="64" height="64" viewBox="0 0 64 64" xmlns="http://www.w3.org/2000/svg"><title>06005attentionF</title><path d="M26.842 6.165c-11.423-3.984-16.102-2.133-20.346 2.813 3.209 5.021 11.016 17.308 15.646 24.597 5.492-5.948 11.57-6.738 22.461-2.955 8.101 2.826 16.287.364 19.396-.81l-15.594-24.669c-3.023 1.214-12.207 4.273-21.564 1.024zm-23.189 2.998c-.461-.72-.897-1.079-1.483-1.171-.411-.065-.979.072-1.283.259-.538.331-.748.802-.827 1.141-.147.606-.02 1.293.346 1.884l29.062 46.829c.613.989 1.981 1.343 3.047.713 1.009-.623 1.336-1.991.705-3.035 0 0-28.534-45.052-29.568-46.62z"/></svg>