<svg width="64" height="64" viewBox="0 0 64 64" xmlns="http://www.w3.org/2000/svg"><title>01009atvC</title><path d="M28.619.091c-15.602 1.187-27.596 13.704-28.618 28.87.908-1.66 2.783-2.671 4.75-2.358l13.242 2.104c1.462.231 3.518-.605 4.406-1.792l3.33-4.461c1.129-1.515 3.307-2.874 5.291-3.38l-.572-1.173-5.459-1.317c-.601-.145-.97-.749-.826-1.35.147-.601.751-.97 1.352-.826l6.483 1.567 1.371 2.81c2.114-.006 4.746.931 6.229 2.306l6.784 6.295c2.546.021 4.195.673 4.323.727l1.924.65c.584.196.9.832.702 1.416-.2.588-.838.898-1.42.704l-1.994-.675c-.25-.101-4.435-1.718-9.893.896l1.643 3.171c.634-.318 1.33-.526 2.05-.675l-.002-.017c-.054-.615.401-1.158 1.018-1.214.553-.029 1.158.401 1.214 1.016l.006.064c.69.052 1.365.157 2.001.374.266-.541.917-.778 1.468-.524.562.26.805.925.547 1.486l-.031.066c.559.384 1.071.826 1.522 1.334l.004-.004c.51-.357 1.206-.233 1.561.27.355.506.235 1.204-.27 1.561l-.047.031c.289.603.487 1.251.623 1.928l.017-.002c.646-.01 1.162.396 1.216 1.012.058.615-.396 1.16-1.012 1.218l-.074.006c-.052.687-.161 1.363-.378 1.996.549.264.789.919.535 1.474-.18.382-.543.617-.935.648-.182.012-.372-.019-.551-.101l-.081-.037c-.382.557-.822 1.065-1.327 1.513l.01.017c.357.506.235 1.204-.27 1.559-.169.122-.365.188-.557.202-.38.029-.766-.138-1.003-.471l-.041-.06c-.599.287-1.243.485-1.916.619l.002.037c.056.615-.398 1.158-1.018 1.214h-.01c-.609.047-1.146-.405-1.199-1.014l-.008-.089c-.685-.054-1.356-.159-1.986-.372-.175.38-.541.613-.931.644-.184.014-.374-.017-.555-.101-.559-.26-.803-.925-.543-1.486l.041-.089c-.557-.38-1.063-.82-1.511-1.323l-.025.019c-.171.12-.363.184-.557.2-.382.029-.766-.138-1.001-.473-.357-.506-.235-1.204.27-1.559l.062-.043c-.289-.597-.487-1.243-.623-1.916l-.037.004h-.014c-.609.047-1.144-.407-1.199-1.016-.054-.617.401-1.16 1.018-1.214l.083-.008c.05-.687.155-1.358.365-1.99-.551-.264-.793-.925-.535-1.482.26-.559.925-.807 1.489-.543l.072.035c.353-.516.758-.987 1.218-1.41l-1.745-3.367c-2.482 1.742-4.11 4.819-4.381 8.396-.037.489-.388.898-.865 1.007l-13.851 3.169-.167.025c-.52.041-1.012-.291-1.158-.809-1.678-5.886-7.335-9.821-13.448-9.356-1.381.105-2.709.431-3.954.943.14.96.326 1.901.549 2.828.384-.01.766.159.983.51.613-.301 1.276-.502 1.967-.644v-.014c-.056-.617.398-1.16 1.016-1.214.549-.089 1.158.398 1.214 1.016l.006.062c.69.052 1.365.159 2.003.374.27-.543.919-.776 1.468-.522.562.258.805.925.545 1.484l-.031.066c.562.382 1.071.826 1.522 1.336l.004-.006c.506-.353 1.206-.233 1.561.27.355.506.235 1.204-.27 1.561l-.045.031c.289.603.485 1.253.623 1.928l.017-.002c.549-.085 1.16.396 1.216 1.014.058.615-.396 1.158-1.012 1.216l-.076.008c-.052.687-.161 1.358-.376 1.994.549.264.789.919.533 1.474-.175.382-.539.617-.933.648-.184.012-.372-.019-.551-.101l-.081-.035c-.384.555-.824 1.065-1.332 1.511l.014.019c.355.504.235 1.202-.27 1.557-.118.085-.254.107-.386.14 6.101 5.521 14.348 8.646 23.201 7.971 17.117-1.301 29.938-16.233 28.637-33.35-1.303-17.117-16.235-29.94-33.352-28.637m15.178 41.581c.062.822.78 1.441 1.606 1.377.826-.062 1.441-.782 1.379-1.604-.062-.824-.78-1.443-1.606-1.379-.826.062-1.441.782-1.379 1.606m-3.169.268c-.198-2.601 1.759-4.878 4.36-5.077 2.599-.198 4.874 1.757 5.073 4.358.198 2.601-1.757 4.878-4.356 5.077-2.601.198-4.878-1.757-5.077-4.358m-33.716 8.793c-.83-1.014-1.596-2.081-2.296-3.2.248.138.522.231.826.209.826-.062 1.443-.782 1.381-1.604-.064-.824-.78-1.443-1.606-1.379-.776.058-1.344.702-1.361 1.462-.615-1.098-1.181-2.228-1.662-3.406.756-.7 1.728-1.173 2.833-1.257 2.599-.198 4.876 1.757 5.075 4.36.165 2.19-1.204 4.135-3.19 4.817" fill="#221F20"/></svg>