<svg width="64" height="64" viewBox="0 0 64 64" xmlns="http://www.w3.org/2000/svg"><title>01009atvF</title><path d="M14.054 43.225c.065.861-.58 1.614-1.444 1.679-.864.067-1.614-.58-1.679-1.441-.065-.861.58-1.614 1.441-1.679.866-.067 1.617.58 1.682 1.441zm-1.128 5.079c-2.72.208-5.103-1.84-5.311-4.56-.206-2.72 1.84-5.103 4.56-5.311 2.72-.206 5.101 1.84 5.309 4.562.206 2.72-1.837 5.101-4.558 5.309zm7.994-6.62h-.019c-.143-.706-.348-1.385-.651-2.015l.05-.035c.528-.372.654-1.104.281-1.632-.372-.528-1.104-.654-1.632-.284l-.004.004c-.472-.532-1.006-.996-1.591-1.396l.03-.067c.273-.586.017-1.283-.569-1.556-.576-.264-1.253-.019-1.537.548-.667-.225-1.374-.335-2.095-.39l-.006-.067c-.058-.643-.695-1.154-1.27-1.063-.645.058-1.121.625-1.063 1.27l.002.015c-.725.149-1.42.359-2.06.675-.342-.55-1.067-.719-1.612-.374-.55.344-.716 1.065-.372 1.614l.054.089c-.515.463-.965.983-1.353 1.556l-.078-.037c-.586-.273-1.283-.019-1.556.567-.271.584-.019 1.273.558 1.55-.221.66-.331 1.363-.383 2.082l-.087.009c-.645.056-1.121.625-1.063 1.27.056.638.617 1.112 1.255 1.063h.015l.037-.004c.143.703.351 1.379.651 2.004l-.063.043c-.53.372-.658 1.104-.286 1.632.247.353.651.526 1.047.496.203-.015.405-.084.584-.21l.028-.019c.465.528.998.989 1.578 1.385l-.041.093c-.273.589-.017 1.283.569 1.556.188.087.385.119.58.104.409-.03.788-.275.974-.673.66.223 1.361.333 2.078.387l.009.093c.056.641.615 1.112 1.253 1.063h.017c.643-.058 1.119-.628 1.06-1.27l-.004-.037c.706-.143 1.381-.348 2.008-.651l.043.063c.245.351.647.524 1.045.493.206-.015.407-.084.586-.21.528-.374.654-1.104.281-1.632l-.013-.017c.53-.467.991-1 1.392-1.582l.084.037c.186.087.385.119.578.106.411-.032.792-.279.976-.677.266-.582.015-1.266-.558-1.543.225-.664.34-1.368.394-2.088l.08-.006c.643-.058 1.117-.63 1.058-1.273-.061-.645-.699-1.149-1.273-1.058zm34.936-3.367c.065.861-.58 1.614-1.444 1.679-.864.065-1.614-.582-1.679-1.441-.065-.864.578-1.614 1.444-1.682.861-.065 1.614.582 1.679 1.444zm-1.128 5.077c-2.72.208-5.103-1.837-5.311-4.558-.206-2.723 1.84-5.103 4.56-5.311 2.72-.208 5.101 1.837 5.309 4.56.206 2.72-1.837 5.103-4.558 5.309zm7.994-6.62l-.017.002c-.143-.708-.351-1.387-.651-2.017l.048-.032c.528-.374.656-1.104.284-1.634-.372-.526-1.099-.656-1.634-.281l-.004.004c-.47-.532-1.004-.996-1.591-1.396l.032-.069c.271-.589.013-1.283-.574-1.554-.576-.266-1.255-.017-1.534.548-.667-.225-1.372-.335-2.095-.392l-.006-.067c-.056-.643-.69-1.093-1.268-1.06-.645.056-1.121.625-1.065 1.27l.002.015c-.755.154-1.48.372-2.145.708l-1.721-3.32c5.711-2.733 10.089-1.041 10.351-.937l2.086.706c.61.206 1.277-.119 1.487-.734.206-.612-.123-1.277-.736-1.485l-2.013-.677c-.134-.056-1.859-.738-4.523-.762l-7.094-6.583c-1.552-1.439-4.309-2.42-6.518-2.413l-1.435-2.941-6.783-1.638c-.625-.151-1.26.236-1.411.864-.151.628.234 1.262.861 1.413l5.711 1.379.597 1.225c-2.075.53-4.354 1.952-5.534 3.536l-3.484 4.668c-.928 1.24-3.08 2.117-4.61 1.874l-13.853-2.201c-2.599-.413-5.071 1.363-5.508 3.958l-.593 3.512c-2.084.944-3.965 2.324-5.503 4.112-.42.489-.364 1.229.126 1.651.491.42 1.231.366 1.653-.126 2.359-2.746 5.648-4.411 9.261-4.685 6.395-.485 12.312 3.631 14.067 9.789.154.541.669.889 1.214.848l.173-.026 14.489-3.318c.502-.115.868-.541.907-1.054.284-3.742 1.987-6.962 4.582-8.784l1.827 3.523c-.48.441-.905.935-1.275 1.476l-.076-.037c-.589-.277-1.283-.019-1.556.567-.271.584-.019 1.275.558 1.55-.221.662-.329 1.366-.383 2.084l-.087.006c-.645.056-1.121.625-1.065 1.27.058.638.617 1.112 1.255 1.065l.015-.002.039-.004c.143.703.351 1.381.651 2.006l-.063.043c-.528.372-.656 1.104-.284 1.632.247.351.647.524 1.047.493.201-.015.405-.084.582-.21l.026-.017c.47.526.998.987 1.582 1.383l-.043.093c-.273.589-.017 1.283.569 1.556.188.087.387.119.58.106.409-.032.79-.277.974-.675.66.223 1.361.335 2.078.39l.009.093c.056.638.617 1.11 1.253 1.06h.011c.649-.058 1.125-.625 1.067-1.27l-.002-.037c.703-.143 1.379-.348 2.004-.649l.043.063c.249.348.651.522 1.05.491.201-.015.405-.082.582-.21.53-.372.656-1.102.284-1.632l-.011-.017c.53-.467.991-1 1.389-1.582l.082.037c.188.087.387.121.58.106.409-.03.79-.277.976-.677.266-.58.017-1.266-.558-1.541.225-.664.34-1.37.394-2.088l.078-.006c.645-.061 1.119-.63 1.058-1.275-.056-.643-.595-1.069-1.27-1.058z"/></svg>