<svg width="64" height="64" viewBox="0 0 64 64" xmlns="http://www.w3.org/2000/svg"><title>01009atvL</title><path d="M14.053 43.224c.065.863-.578 1.615-1.443 1.68-.863.065-1.613-.58-1.678-1.443-.065-.861.578-1.615 1.441-1.68.865-.065 1.615.583 1.68 1.443zm-1.127 5.08c-2.719.206-5.102-1.838-5.31-4.56-.206-2.722 1.838-5.102 4.56-5.31 2.719-.206 5.1 1.838 5.308 4.56.208 2.722-1.838 5.102-4.558 5.31zm8.011-6.622h-.016l-.018.002c-.142-.707-.35-1.387-.653-2.015l.047-.034c.529-.373.655-1.104.282-1.633-.373-.526-1.104-.653-1.631-.282l-.005.002c-.472-.531-1.005-.994-1.592-1.394l.032-.07c.273-.585.016-1.283-.569-1.554-.578-.264-1.256-.018-1.538.547-.664-.224-1.373-.337-2.094-.388l-.007-.068c-.056-.644-.617-1.156-1.269-1.062-.646.056-1.12.626-1.064 1.269l.002.016c-.723.147-1.418.359-2.06.673-.343-.547-1.062-.716-1.613-.373-.547.341-.716 1.064-.373 1.613l.056.09c-.515.461-.964.982-1.355 1.554l-.077-.036c-.583-.271-1.281-.02-1.556.567-.271.583-.02 1.274.56 1.549-.221.662-.332 1.364-.384 2.082l-.088.009c-.644.056-1.12.626-1.062 1.269.056.639.614 1.111 1.254 1.064l.016-.002.038-.002c.142.702.35 1.378.65 2.003l-.063.045c-.529.37-.657 1.102-.285 1.631.246.35.648.524 1.048.495.203-.016.404-.084.583-.21l.027-.018c.468.526.998.987 1.581 1.385l-.043.093c-.273.587-.018 1.283.569 1.554.187.088.386.122.58.106.409-.032.786-.276.971-.673.662.224 1.362.334 2.078.388l.009.093c.056.639.617 1.111 1.254 1.062h.016c.646-.059 1.12-.628 1.064-1.272l-.005-.036c.705-.142 1.38-.348 2.008-.648l.043.061c.246.35.648.524 1.046.492.203-.014.407-.084.585-.21.529-.373.655-1.102.282-1.631l-.011-.018c.529-.468.989-.998 1.389-1.581l.084.038c.19.086.386.117.578.104.411-.032.793-.278.978-.678.267-.58.016-1.265-.558-1.543.224-.662.339-1.366.393-2.087l.079-.007c.644-.059 1.118-.628 1.059-1.272-.059-.639-.619-1.111-1.256-1.062zm34.918-3.365c.065.861-.578 1.615-1.441 1.68-.865.065-1.615-.58-1.68-1.443-.065-.861.578-1.613 1.443-1.678.863-.065 1.613.58 1.678 1.441zm-1.127 5.08c-2.719.206-5.102-1.838-5.31-4.56-.206-2.722 1.838-5.102 4.56-5.31 2.719-.208 5.1 1.838 5.308 4.56.208 2.722-1.836 5.102-4.558 5.31zm-7.982-17.495l-.664.386c-3.352 1.972-5.599 5.739-6.159 10.123l-12.626 2.891c-2.41-6.629-9.028-10.963-16.156-10.421-.962.072-1.904.242-2.819.479l.382-2.29c.215-1.296 1.475-2.184 2.814-1.965l13.852 2.2c2.401.384 5.405-.84 6.853-2.785l3.485-4.669c.987-1.324 3.295-2.636 4.937-2.805l.777-.079c1.592-.176 4.12.66 5.326 1.778l5.547 5.147c-1.656.309-3.6.951-5.549 2.01zm16.19 13.206c.644-.061 1.118-.63 1.059-1.274-.061-.644-.635-1.174-1.274-1.059l-.016.002c-.142-.707-.35-1.387-.653-2.017l.047-.034c.529-.373.655-1.102.282-1.631-.37-.529-1.102-.655-1.631-.282l-.005.005c-.47-.533-1.005-.996-1.592-1.396l.032-.07c.273-.585.016-1.283-.569-1.554-.576-.264-1.254-.02-1.536.547-.666-.226-1.373-.337-2.096-.388l-.005-.068c-.059-.644-.644-1.15-1.272-1.062-.644.056-1.12.626-1.062 1.269v.016c-.754.154-1.45.436-2.112.768l-1.753-3.379c5.714-2.737 10.089-1.041 10.351-.94l2.087.707c.614.206 1.278-.122 1.484-.734.208-.612-.12-1.278-.734-1.484l-2.012-.678c-.133-.056-1.857-.739-4.522-.761l-7.096-6.584c-1.549-1.439-4.3-2.428-6.516-2.414l-1.434-2.941-6.783-1.637c-.626-.154-1.26.235-1.414.863-.151.628.235 1.26.865 1.414l5.71 1.378.599 1.224c-2.076.531-4.355 1.951-5.536 3.537l-3.485 4.669c-.926 1.242-3.081 2.116-4.608 1.872l-13.852-2.2c-2.595-.42-5.066 1.333-5.493 3.892l-.592 3.575c-2.091.942-3.98 2.322-5.52 4.113-.42.492-.366 1.231.124 1.653.492.42 1.231.366 1.653-.126 2.36-2.746 5.649-4.409 9.26-4.682 6.394-.488 12.312 3.63 14.067 9.789.156.54.669.888 1.215.845l.172-.025 14.491-3.318c.501-.115.867-.542.906-1.053.282-3.742 1.988-6.963 4.583-8.786l1.836 3.546c-.477.44-.917.915-1.285 1.455l-.075-.036c-.585-.273-1.283-.018-1.556.567-.271.583-.02 1.274.558 1.549-.221.662-.332 1.364-.384 2.082l-.088.009c-.641.056-1.118.626-1.062 1.269.056.639.617 1.111 1.256 1.064h.014l.038-.005c.142.702.35 1.378.65 2.003l-.061.045c-.531.37-.657 1.1-.287 1.631.246.35.65.524 1.048.495.203-.016.404-.084.583-.21l.027-.018c.468.529.998.987 1.581 1.385l-.043.093c-.271.587-.018 1.283.569 1.554.187.088.388.122.58.106.409-.032.788-.276.973-.673.66.224 1.36.334 2.076.388l.009.093c.056.639.617 1.111 1.256 1.064l.016-.002c.644-.056 1.118-.626 1.062-1.272l-.005-.036c.705-.142 1.38-.348 2.008-.648l.043.061c.246.35.648.524 1.046.495.206-.016.407-.086.585-.212.529-.37.655-1.102.282-1.631l-.011-.016c.529-.47.989-1.001 1.389-1.583l.084.038c.19.086.386.117.58.104.409-.032.791-.278.976-.678.267-.58.016-1.265-.558-1.543.224-.664.339-1.366.393-2.087l.079-.007z"/></svg>