<svg width="64" height="64" viewBox="0 0 64 64" xmlns="http://www.w3.org/2000/svg"><title>01001autoC</title><path d="M17.929 23.056c-1.428-.312-4.669-.474-4.669-.474-.584-.028-1.065.429-1.065 1.014l.901 5.23c0 .587.48 1.08 1.067 1.099l13.676.44c.587.017.759-.338.383-.788 0 0-4.342-5.218-10.293-6.521zm23.151 25.168c2.363 0 4.285-1.921 4.285-4.285 0-2.363-1.921-4.287-4.285-4.287-2.365 0-4.287 1.923-4.287 4.287 0 2.363 1.921 4.285 4.287 4.285zm-31.612-18.446c.587.021 1.067-.44 1.067-1.029l-.901-5.237c0-.587-.48-1.044-1.067-1.016 0 0-3.898.189-7.641 1.486-.459 1.777-.778 3.605-.927 5.485l9.468.31zm54.402 2.221c0 17.674-14.325 32.001-31.999 32.001-12.62 0-23.502-7.326-28.711-17.942h31.376c.901 2.769 3.479 4.79 6.544 4.79 3.05 0 5.615-2 6.529-4.746 1.951-.096 5.845-.453 6.752-1.777 1.889-2.757 1.656-8.214-.355-11.568-.714-1.19-4.372-2.527-9.254-3.551l-10.395-1.339s-7.009-5.12-9.687-6.538c-2.678-1.418-6.049-3.086-15.513-2.914-2.385.045-4.569.342-6.61.795 4.937-11.302 16.201-19.211 29.323-19.211 17.674 0 31.999 14.327 31.999 31.999z" fill="#221F20"/></svg>