<svg width="64" height="64" viewBox="0 0 64 64" xmlns="http://www.w3.org/2000/svg"><title>04024autopayF</title><path d="M33.449 41.698v-6.437c1.657.571 2.763 1.461 2.763 3.193 0 1.563-.85 2.795-2.763 3.243zm-6.843-16.4c0-1.769 1.23-2.72 2.901-2.967v5.975c-1.81-.603-2.901-1.371-2.901-3.008zm31.111 32.016l-2.907-3.008c5.653-5.767 9.191-13.609 9.191-22.306 0-17.643-14.354-31.998-32-32-.489.002-.965.053-1.449.075v5.255c.482-.025.96-.073 1.449-.073 14.77 0 26.743 11.975 26.743 26.743 0 7.227-2.91 13.739-7.57 18.546l-2.891-2.992c-1.006-1.038-2.027-.722-2.274.702l-1.975 11.406c-.245 1.424.715 2.368 2.135 2.096l10.795-2.062c1.419-.272 1.76-1.344.754-2.382zm-25.717 1.429c-14.77 0-26.743-11.973-26.743-26.743 0-7.225 2.907-13.737 7.57-18.544l2.891 2.99c1.006 1.04 2.03.725 2.274-.699l1.973-11.406c.247-1.424-.713-2.368-2.133-2.098l-10.795 2.062c-1.419.272-1.76 1.344-.754 2.384l2.907 3.008c-5.653 5.767-9.191 13.609-9.191 22.304 0 17.646 14.354 32 32 32 .489 0 .965-.053 1.449-.073v-5.257c-.482.025-.96.073-1.449.073zm9.634-20.965c0-5.049-4.112-7.182-8.185-8.418v-6.743c1.563.507 2.866 1.447 4.041 2.919l3.625-3.065c-1.808-2.533-4.731-4.059-7.666-4.629v-2.91h-3.943v2.626c-4.914.441-8.402 3.639-8.402 8.258 0 5.474 4.901 7.493 8.402 8.375v7.451c-2.421-.494-4.494-2.032-5.771-4.224l-3.867 3.189c1.749 2.811 5.211 5.273 9.639 5.81v2.683h3.943v-2.782c5.202-.802 8.185-4.21 8.185-8.542z"/></svg>