<svg width="64" height="64" viewBox="0 0 64 64" xmlns="http://www.w3.org/2000/svg"><title>04024autopayC</title><path d="M48.021 49.59c.663.683.438 1.389-.498 1.569l-7.108 1.358c-.935.178-1.567-.444-1.406-1.381l1.301-7.513c.161-.937.836-1.146 1.497-.46l1.906 1.97c3.07-3.165 4.986-7.455 4.986-12.214 0-9.726-7.886-17.61-17.612-17.61-.322 0-.636.031-.956.047v-3.462c.32-.014.634-.047.956-.047 11.619 0 21.073 9.453 21.073 21.073.002 5.727-2.329 10.892-6.051 14.689l1.914 1.982zm-15.981-7.24v1.831h-2.597v-1.765c-2.915-.355-5.196-1.976-6.346-3.828l2.546-2.1c.842 1.443 2.207 2.455 3.801 2.781v-4.914c-2.306-.58-5.533-1.897-5.533-5.51 0-3.041 2.298-5.147 5.533-5.436v-1.732h2.597v1.918c1.934.376 3.859 1.379 5.05 3.047l-2.389 2.019c-.772-.97-1.631-1.588-2.661-1.922v4.441c2.684.813 5.39 2.219 5.39 5.543 0 2.853-1.965 5.097-5.39 5.626zm0 11.594c-.318.014-.632.05-.954.05-11.621 0-21.075-9.453-21.075-21.075 0-5.727 2.331-10.89 6.053-14.689l-1.914-1.98c-.663-.685-.44-1.391.495-1.569l7.11-1.358c.935-.18 1.567.442 1.404 1.381l-1.299 7.511c-.163.937-.836 1.146-1.499.462l-1.903-1.97c-3.07 3.165-4.986 7.453-4.986 12.212 0 9.726 7.884 17.612 17.612 17.612.322 0 .636-.031.954-.047v3.46zm-4.507-25.439c0 1.078.718 1.586 1.91 1.982v-3.908c-1.092.167-1.91.768-1.91 1.926zm4.507 6.578v4.183c1.23-.303 1.821-1.076 1.821-2.095 0-1.135-.739-1.709-1.821-2.087zm-.956-33.249c-17.166 0-31.083 13.917-31.083 31.083 0 17.169 13.917 31.083 31.083 31.083 17.166 0 31.083-13.915 31.083-31.083 0-17.166-13.917-31.083-31.083-31.083z"/></svg>