<svg width="64" height="64" viewBox="0 0 64 64" xmlns="http://www.w3.org/2000/svg"><title>01001autoF</title><path d="M62.65 30.758c-.584-.976-3.582-2.071-7.58-2.91-4-.839-8.514-1.096-8.514-1.096s-5.741-4.193-7.936-5.354c-2.193-1.161-4.954-2.529-12.705-2.388-6.8.122-11.822 2.589-15.547 5.225-2.278 1.613-4.064 1.805-6.193 2.193-2.127.388-2.966 1.225-2.966 2.323 0 1.096-.193 5.223-.193 5.223l-.904 1.291s-.323 1.548.129 2.904c.636 1.905 1.867 3.148 6.597 3.277.672 2.373 2.835 4.129 5.422 4.129 2.51 0 4.62-1.656 5.358-3.923h29.083c.74 2.267 2.85 3.923 5.36 3.923 2.498 0 4.599-1.637 5.349-3.888 1.596-.079 4.786-.369 5.53-1.455 1.548-2.257 1.358-6.728-.29-9.474zm-50.39 12.668c-1.936 0-3.511-1.575-3.511-3.511 0-1.936 1.575-3.511 3.511-3.511 1.936 0 3.511 1.575 3.511 3.511 0 1.936-1.575 3.511-3.511 3.511zm36.29-3.511c0-1.936 1.575-3.511 3.511-3.511 1.936 0 3.511 1.575 3.511 3.511 0 1.936-1.575 3.511-3.511 3.511-1.936 0-3.511-1.575-3.511-3.511zm-34.559-12.799s.933-1.909 4.605-3.337c3.227-1.254 6.833-1.426 6.833-1.426.481-.025.875.35.875.831l.738 4.29c0 .481-.394.86-.875.841l-11.688-.383c-.481-.017-.701-.386-.489-.817zm16.024 1.32c-.481-.015-.875-.421-.875-.902l-.738-4.282c0-.481.394-.854.873-.831 0 0 2.655.133 3.824.388 4.875 1.067 8.431 5.341 8.431 5.341.307.369.166.659-.313.647l-11.203-.361z"/></svg>