<svg width="64" height="64" viewBox="0 0 64 64" xmlns="http://www.w3.org/2000/svg"><title>01001autoL</title><path d="M61.633 33.248c-1.065-.028-2.151-.561-2.512-1.293-.335-.682.08-1.293.934-1.49-.876-.465-2.659-1.159-5.953-1.851-3.751-.786-8.04-1.039-8.084-1.041l-.305-.018-.247-.18c-.056-.04-5.52-4.024-7.551-5.101-1.943-1.027-4.399-2.318-11.786-2.188-5.239.096-9.967 1.686-14.458 4.862-2.194 1.556-3.974 1.869-5.857 2.2l-.547.098c-1.339.243-2.017.656-2.017 1.223l-.006.415c.808-.014 1.6.225 2.009.688.583.66.178 1.492-.906 1.859-.457.154-.844.184-1.197.144l-.088 1.997-.014.301-.91 1.301c-.054.389-.136 1.297.122 2.077.345 1.033.77 2.302 5.247 2.456.391-2.639 2.649-4.678 5.394-4.678 2.815 0 5.115 2.145 5.416 4.88h27.672c.303-2.735 2.603-4.88 5.416-4.88 2.823 0 5.129 2.155 5.42 4.902 2.061-.12 3.944-.517 4.247-.942.884-1.289 1.045-3.647.563-5.742zm-6.887 6.719c-.261-1.616-1.652-2.857-3.342-2.857-1.672 0-3.058 1.217-3.336 2.811-.034.19-.058.385-.058.585 0 .555.146 1.071.383 1.534.563 1.099 1.694 1.861 3.012 1.861 1.315 0 2.444-.756 3.008-1.851.241-.465.389-.984.389-1.544 0-.184-.026-.363-.054-.539zm-38.511-.086c-.295-1.574-1.674-2.771-3.334-2.771-1.61 0-2.955 1.131-3.302 2.637-.056.245-.092.497-.092.76 0 .469.096.916.269 1.323.517 1.217 1.724 2.071 3.126 2.071 1.353 0 2.514-.8 3.06-1.947.211-.441.337-.928.337-1.448 0-.215-.024-.421-.062-.626zm46.549.285c-.978 1.43-4.142 1.784-6.145 1.863-.666 2.276-2.747 3.952-5.235 3.952-2.482 0-4.563-1.696-5.231-3.966h-28.027c-.652 2.294-2.743 3.966-5.245 3.966-2.578 0-4.732-1.799-5.309-4.203-4.375-.12-6.412-1.201-7.302-3.868-.511-1.532-.194-3.168-.156-3.348l.042-.211.824-1.175c.044-.946.172-3.848.172-4.706 0-1.183.646-2.709 3.723-3.268l.559-.1c1.791-.315 3.204-.563 5.017-1.849 4.842-3.427 9.951-5.141 15.621-5.245 7.962-.13 10.757 1.351 12.796 2.43 1.931 1.021 6.442 4.271 7.559 5.081 1.075.072 4.728.357 8.08 1.061 3.15.66 7.094 1.766 8.012 3.296 1.847 3.08 1.959 7.792.245 10.29zm-21.871-11.651c.463.014.602-.267.303-.626 0 0-3.441-4.132-8.157-5.165-1.131-.249-3.697-.375-3.697-.375-.465-.024-.846.339-.846.804l.714 4.142c0 .465.381.856.846.87l10.837.349zm-21.881-4.852c3.122-1.213 6.611-1.381 6.611-1.381.465-.022.844.339.844.806l.714 4.148c0 .465-.379.832-.844.816l-11.308-.373c-.465-.016-.678-.371-.473-.79 0 0 .902-1.847 4.457-3.226z"/></svg>