<svg width="64" height="64" viewBox="0 0 64 64" xmlns="http://www.w3.org/2000/svg"><title>08001basketballL</title><path d="M32.001 0c-17.646 0-32.001 14.355-32.001 32.001 0 17.646 14.355 31.999 32.001 31.999 17.643 0 31.999-14.353 31.999-31.999s-14.355-32.001-31.999-32.001zm22.302 50.958c-4.139-5.041-6.496-11.245-6.752-17.786h13.691c-.269 6.768-2.823 12.949-6.938 17.786zm-6.752-20.115c.256-6.535 2.614-12.745 6.752-17.786 4.116 4.837 6.67 11.018 6.938 17.786h-13.691zm5.178-19.515c-4.617 5.499-7.246 12.323-7.502 19.515h-12.06v-28.069c7.621.302 14.513 3.495 19.562 8.554zm-21.886-8.554v28.069h-12.153c-.259-7.166-2.869-13.973-7.456-19.463 5.054-5.088 11.961-8.301 19.608-8.606zm-28.072 30.399h13.59c-.248 6.515-2.593 12.701-6.706 17.729-4.085-4.824-6.618-10.989-6.884-17.729zm0-2.329c.266-6.739 2.8-12.902 6.887-17.729 4.113 5.028 6.455 11.217 6.703 17.729h-13.59zm8.464 21.793c4.586-5.488 7.197-12.292 7.456-19.463h12.153v28.069c-7.647-.3-14.554-3.518-19.608-8.606zm21.932 8.606v-28.069h12.06c.256 7.192 2.885 14.019 7.502 19.518-5.049 5.059-11.941 8.252-19.562 8.552z"/></svg>