<svg width="64" height="64" viewBox="0 0 64 64" xmlns="http://www.w3.org/2000/svg"><title>03019batteryF</title><path d="M4.354 53.479c0 1.455 1.191 2.646 2.646 2.646h50.078c1.455 0 2.644-1.191 2.644-2.646v-31.239h-55.367v31.239zm36.849-21.536h4.214v-4.217c0-.706.574-1.278 1.28-1.278.709 0 1.285.571 1.285 1.278v4.217h4.214c.709 0 1.285.571 1.285 1.282 0 .706-.576 1.282-1.285 1.282h-4.214v4.214c0 .709-.576 1.282-1.285 1.282-.706 0-1.28-.574-1.28-1.282v-4.214h-4.214c-.709 0-1.285-.576-1.285-1.282 0-.711.576-1.282 1.285-1.282zm-28.588 0h10.996c.706 0 1.282.571 1.282 1.282 0 .706-.576 1.282-1.282 1.282h-10.996c-.709 0-1.282-.576-1.282-1.282 0-.711.574-1.282 1.282-1.282zm49.056-18.843h-9.826v-4.502c0-.822-.672-1.492-1.487-1.492h-4.049c-.817 0-1.487.67-1.487 1.492v4.502h-25.228v-4.502c0-.822-.67-1.492-1.492-1.492h-4.044c-.82 0-1.489.67-1.489 1.492v4.502h-10.238c-.82 0-1.492.67-1.492 1.489v3.769c0 .795.64 1.442 1.43 1.479h59.466c.785-.037 1.425-.684 1.425-1.479v-3.769c0-.82-.672-1.489-1.489-1.489z"/></svg>