<svg width="64" height="64" viewBox="0 0 64 64" xmlns="http://www.w3.org/2000/svg"><title>03019batteryC</title><path d="M32 1.888c-16.63 0-30.112 13.482-30.112 30.112s13.482 30.112 30.112 30.112 30.112-13.482 30.112-30.112-13.482-30.112-30.112-30.112zm19.202 44.634c0 1.018-.832 1.85-1.85 1.85h-34.998c-1.018 0-1.85-.832-1.85-1.85v-21.834h38.698v21.834zm1.3-23.514h-41.562c-.552-.024-.998-.476-.998-1.034v-2.634c0-.572.468-1.04 1.042-1.04h7.154v-3.148c0-.572.468-1.04 1.042-1.04h2.826c.574 0 1.042.468 1.042 1.04v3.148h17.632v-3.148c0-.572.47-1.04 1.04-1.04h2.83c.57 0 1.04.468 1.04 1.04v3.148h6.868c.572 0 1.04.468 1.04 1.04v2.634c0 .558-.446 1.01-.996 1.034zm-14.422 9.874h2.826v2.826c0 .56.456 1.016 1.016 1.016s1.018-.456 1.018-1.016v-2.826h2.824c.562 0 1.018-.456 1.018-1.014 0-.56-.456-1.016-1.018-1.016h-2.824v-2.828c0-.558-.458-1.014-1.018-1.014s-1.016.456-1.016 1.014v2.828h-2.826c-.56 0-1.018.456-1.018 1.016 0 .558.458 1.014 1.018 1.014zm-19.982 0h7.686c.562 0 1.018-.456 1.018-1.014 0-.56-.456-1.016-1.018-1.016h-7.686c-.56 0-1.016.456-1.016 1.016 0 .558.456 1.014 1.016 1.014z"/></svg>