<svg width="64" height="64" viewBox="0 0 64 64" xmlns="http://www.w3.org/2000/svg"><title>03019batteryL</title><path d="M59.458 12.701h-9.093v-2.983c0-.756-.62-1.376-1.378-1.376h-3.744c-.758 0-1.378.62-1.378 1.376v2.983h-23.348v-2.983c0-.756-.62-1.376-1.378-1.376h-3.744c-.758 0-1.378.62-1.378 1.376v2.983h-9.474c-1.413 0-2.565 1.15-2.565 2.562v3.49c0 1.413 1.152 2.562 2.565 2.562h.714v29.94c0 2.004 1.632 3.636 3.636 3.636h46.343c2.004 0 3.636-1.632 3.636-3.636v-29.94h.588c1.413 0 2.565-1.15 2.565-2.562v-3.49c0-1.413-1.152-2.562-2.565-2.562zm.192 6.053c0 .101-.089.19-.192.19h-54.917c-.101 0-.192-.089-.192-.19v-3.49c0-.101.091-.19.192-.19h54.917c.103 0 .192.089.192.19v3.49zm-3.156 32.502c0 .694-.566 1.26-1.26 1.26h-46.343c-.697 0-1.263-.566-1.263-1.26v-29.94h48.866v29.94zm-15.953-17.558h3.902v3.902c0 .655.532 1.186 1.186 1.186.655 0 1.186-.532 1.186-1.186v-3.902h3.902c.655 0 1.186-.532 1.186-1.186 0-.655-.532-1.186-1.186-1.186h-3.902v-3.902c0-.655-.532-1.186-1.186-1.186-.655 0-1.186.532-1.186 1.186v3.902h-3.902c-.655 0-1.186.532-1.186 1.186 0 .655.532 1.186 1.186 1.186zm-26.454 0h10.176c.655 0 1.186-.532 1.186-1.186 0-.655-.532-1.186-1.186-1.186h-10.176c-.657 0-1.186.532-1.186 1.186 0 .655.529 1.186 1.186 1.186z"/></svg>