<svg width="64" height="64" viewBox="0 0 64 64" xmlns="http://www.w3.org/2000/svg"><title>06025billingC</title><path d="M51.087 47.571l-13.261-8.118c3.499-2.225 9.524-6.067 13.255-8.445l.006.066v16.497zm-2.165 2.613h-33.843c-.785 0-1.47-.431-1.849-1.06l14.198-8.704.098-.093.547.348c1.485.937 2.719 1.376 3.885 1.387l.019.004.011-.002.011.002.019-.004c1.164-.011 2.401-.45 3.885-1.387l.469-.297.047.042 14.319 8.767c-.386.596-1.056.997-1.815.997zm-36.008-19.11l.006-.07c2.846 1.82 9.336 5.97 13.168 8.407l-13.174 8.076v-16.412zm5.363-4.547v6.051l-4.734-3.024 4.734-3.026zm1.468-9.893c0-1.552 1.264-2.816 2.816-2.816h18.845c1.555 0 2.818 1.264 2.818 2.816v16.894c-3.726 2.375-7.522 4.793-9.157 5.828-1.234.783-2.214 1.147-3.079 1.149-.865-.002-1.845-.367-3.081-1.149-1.762-1.116-5.616-3.573-9.162-5.841v-16.881zm25.947 9.878l4.767 3.041c-1.345.855-3.016 1.921-4.767 3.039v-6.08zm-19.502-6.659c0-.471.39-.602.655-.64v1.3c-.486-.161-.655-.339-.655-.66zm1.542 2.693c.488.155.689.371.689.725 0 .397-.238.647-.689.727v-1.453zm-2.305.388l-.078-.134-1.215.999.062.1c.424.683 1.338 1.444 2.651 1.582v.541h.886v-.549c1.44-.176 2.363-1.099 2.363-2.379 0-1.472-1.241-2.038-2.363-2.358v-1.478c.401.115.738.352 1.05.74l.085.106 1.139-.961-.07-.1c-.479-.672-1.296-1.149-2.203-1.292v-.577h-.886v.526c-1.389.104-2.35 1.031-2.35 2.288 0 1.158.791 1.94 2.35 2.32v1.675c-.581-.112-1.092-.49-1.419-1.05zm7.889-3.576h6.634c.581 0 1.056-.475 1.056-1.058 0-.583-.475-1.056-1.056-1.056h-6.634c-.583 0-1.058.473-1.058 1.056 0 .583.475 1.058 1.058 1.058zm-9.295 9.94h15.929c.581 0 1.056-.475 1.056-1.058 0-.583-.475-1.056-1.056-1.056h-15.929c-.581 0-1.056.473-1.056 1.056 0 .583.475 1.058 1.056 1.058zm16.985 2.254c0-.581-.475-1.056-1.056-1.056h-15.929c-.581 0-1.056.475-1.056 1.056 0 .585.475 1.058 1.056 1.058h15.929c.581 0 1.056-.473 1.056-1.058zm-7.69-5.569h6.634c.581 0 1.056-.473 1.056-1.058 0-.581-.475-1.056-1.056-1.056h-6.634c-.583 0-1.058.475-1.058 1.056 0 .585.475 1.058 1.058 1.058zm0-3.313h6.634c.581 0 1.056-.475 1.056-1.058 0-.581-.475-1.056-1.056-1.056h-6.634c-.583 0-1.058.475-1.058 1.056 0 .583.475 1.058 1.058 1.058zm-1.315-22.671c-17.672 0-32 14.326-32 32 0 17.672 14.328 32 32 32s32-14.328 32-32c0-17.674-14.328-32-32-32z"/></svg>