<svg width="64" height="64" viewBox="0 0 64 64" xmlns="http://www.w3.org/2000/svg"><title>06025billingF</title><path d="M16.849 31.651c0-.677.551-1.23 1.23-1.23h27.786c.679 0 1.23.554 1.23 1.23 0 .682-.551 1.23-1.23 1.23h-27.786c-.679 0-1.23-.549-1.23-1.23zm1.23-6.766h27.786c.679 0 1.23.554 1.23 1.23 0 .682-.551 1.23-1.23 1.23h-27.786c-.679 0-1.23-.549-1.23-1.23 0-.677.551-1.23 1.23-1.23zm1.56-12.541c0-2.099 1.649-3.541 3.942-3.627v-.869h1.041v.937c1.405.175 2.864.886 3.733 2.101l-1.58 1.336c-.608-.763-1.284-1.215-2.153-1.388v2.933c1.892.522 3.959 1.422 3.959 3.784 0 1.995-1.442 3.558-3.959 3.784v.903h-1.041v-.886c-2.067-.155-3.681-1.284-4.481-2.569l1.685-1.388c.608 1.041 1.614 1.769 2.795 1.909v-3.248c-1.528-.347-3.942-1.179-3.942-3.715zm13.924 7.005h12.302c.679 0 1.23.554 1.23 1.23 0 .682-.551 1.23-1.23 1.23h-12.302c-.679 0-1.23-.549-1.23-1.23 0-.677.551-1.23 1.23-1.23zm0-5.536h12.302c.679 0 1.23.554 1.23 1.23 0 .682-.551 1.23-1.23 1.23h-12.302c-.679 0-1.23-.549-1.23-1.23 0-.677.551-1.23 1.23-1.23zm0-5.536h12.302c.679 0 1.23.554 1.23 1.23 0 .682-.551 1.23-1.23 1.23h-12.302c-.679 0-1.23-.549-1.23-1.23 0-.677.551-1.23 1.23-1.23zm-24.573 15.029c-3.228 2.062-6.119 3.91-7.935 5.071 1.816 1.161 4.707 3.009 7.935 5.074v-10.145zm45.962-.025v10.194l7.994-5.096c-2.254-1.437-5.056-3.223-7.994-5.098zm-54.94 7.532l-.012.116v27.518l22.085-13.54c-6.422-4.087-17.305-11.045-22.073-14.094zm39.316 15.713l-.787.499c-2.488 1.572-4.559 2.308-6.513 2.325l-.032.007-.017-.002-.02.002-.032-.007c-1.954-.017-4.023-.753-6.513-2.325l-.915-.583-.165.155-23.803 14.593c.635 1.058 1.784 1.776 3.1 1.776h56.737c1.275 0 2.397-.669 3.046-1.671l-24.01-14.699-.076-.071zm-13.11-28.677c0-.886-.659-1.267-1.597-1.511v2.987c1.112-.106 1.597-.696 1.597-1.476zm-2.638-7.049c-.869.037-1.545.453-1.545 1.321 0 .797.573 1.127 1.545 1.405v-2.726zm40.406 20.019c-6.252 3.988-16.355 10.43-22.221 14.16l22.233 13.611v-27.661l-.012-.111zm-32.009 15.924c1.452-.005 3.095-.615 5.165-1.927 2.741-1.735 9.104-5.79 15.351-9.771v-28.323c0-2.606-2.118-4.722-4.724-4.722h-31.595c-2.603 0-4.724 2.116-4.724 4.722v28.301c5.947 3.799 12.406 7.92 15.363 9.793 2.072 1.311 3.713 1.922 5.165 1.927z"/></svg>