<svg width="64" height="64" viewBox="0 0 64 64" xmlns="http://www.w3.org/2000/svg"><title>06025billingL</title><path d="M59.071 60.442h-54.145c-.808 0-1.488-.442-1.902-1.073l21.817-13.39.812.515c2.403 1.522 4.409 2.236 6.306 2.244h.037c1.9-.007 3.903-.722 6.306-2.244l.707-.449 21.891 13.434c-.422.569-1.068.962-1.829.962zm-36.68-16.017l-19.782 12.138v-24.728c3.297 2.101 13.501 8.601 19.782 12.59zm23.469-22.433h-12.273c-.677 0-1.227-.55-1.227-1.227s.55-1.227 1.227-1.227h12.273c.677 0 1.227.55 1.227 1.227s-.55 1.227-1.227 1.227zm0-5.523h-12.273c-.677 0-1.227-.55-1.227-1.227s.55-1.227 1.227-1.227h12.273c.677 0 1.227.55 1.227 1.227s-.55 1.227-1.227 1.227zm0-5.523h-12.273c-.677 0-1.227-.55-1.227-1.227s.55-1.227 1.227-1.227h12.273c.677 0 1.227.55 1.227 1.227s-.55 1.227-1.227 1.227zm-21.193 5.584v2.98c1.11-.106 1.593-.695 1.593-1.473 0-.884-.658-1.264-1.593-1.507zm-1.038-2.806v-2.72c-.866.037-1.542.452-1.542 1.318 0 .795.572 1.124 1.542 1.402zm0 8.694v-.884c-2.062-.155-3.672-1.281-4.47-2.563l1.681-1.384c.606 1.038 1.61 1.765 2.788 1.905v-3.24c-1.524-.346-3.932-1.176-3.932-3.707 0-2.094 1.645-3.532 3.932-3.618v-.866h1.038v.935c1.402.174 2.857.884 3.724 2.096l-1.576 1.333c-.606-.761-1.281-1.213-2.148-1.384v2.926c1.888.52 3.95 1.419 3.95 3.775 0 1.991-1.438 3.549-3.95 3.775v.901h-1.038zm22.232 10.619h-27.72c-.677 0-1.227-.55-1.227-1.227s.55-1.227 1.227-1.227h27.72c.677 0 1.227.55 1.227 1.227s-.55 1.227-1.227 1.227zm0-5.523h-27.72c-.677 0-1.227-.55-1.227-1.227s.55-1.227 1.227-1.227h27.72c.677 0 1.227.55 1.227 1.227s-.55 1.227-1.227 1.227zm-32.951 4.875v-25.452c0-1.836 1.492-3.331 3.329-3.331h31.52c1.836 0 3.331 1.495 3.331 3.331v25.425l2.609-1.662v-23.763c0-3.274-2.666-5.938-5.94-5.938h-31.52c-3.274 0-5.938 2.663-5.938 5.938v23.79l2.609 1.662zm48.479-.582v24.91l-19.924-12.229c6.299-4.001 16.66-10.599 19.924-12.681zm1.119-4.151c-.123-.091-1.51-.979-3.618-2.325l-.341-.206-2.393-1.522v3.093l1.016.648.341.206 2.85 1.816c-3.27 2.084-18.179 11.579-23.457 14.922-1.971 1.252-3.54 1.836-4.929 1.841-1.387-.005-2.953-.589-4.926-1.841-5.263-3.333-20.106-12.789-23.432-14.907.599-.385 1.573-1.009 2.867-1.831l1.36-.869v-3.093l-2.764 1.76c-2.082 1.328-3.466 2.217-3.586 2.302-.923.65-1.495 2.325-1.495 3.498v26.974c0 2.715 2.209 4.924 4.926 4.924h54.145c2.717 0 4.929-2.209 4.929-4.924v-26.974c0-1.173-.574-2.847-1.492-3.493z"/></svg>