<svg width="64" height="64" viewBox="0 0 64 64" xmlns="http://www.w3.org/2000/svg"><title>02037boatdamageC</title><path d="M45.918 18.21v16.034c0 7.364-5.163 12.32-14.084 18.34-8.924-6.02-14.084-10.976-14.084-18.34v-16.034c5.459-.254 9.278-1.867 14.084-5.922 4.806 4.058 8.625 5.668 14.084 5.922zm-21.011 12.205c-.567-.557-1.487-.548-2.044.017l-1.794 1.83c-.557.565-.548 1.485.017 2.042l7.386 7.249.239.188c.561.38 1.335.322 1.83-.173l12.9-12.898c.561-.561.561-1.483 0-2.044l-1.811-1.811c-.563-.561-1.483-.561-2.044 0l-10.097 10.097-4.582-4.497zm6.923-30.074c-17.579 0-31.829 14.249-31.829 31.831 0 17.577 14.251 31.827 31.829 31.827 17.581 0 31.831-14.251 31.831-31.827 0-17.583-14.251-31.831-31.831-31.831z"/></svg>