<svg width="64" height="64" viewBox="0 0 64 64" xmlns="http://www.w3.org/2000/svg"><title>02040boatemergC</title><path d="M31.337 52.961c-11.171 0-20.261-9.086-20.261-20.259s9.09-20.259 20.261-20.259 20.261 9.086 20.261 20.259-9.09 20.259-20.261 20.259zm11.347-20.302c-.006 2.201-.529 3.588-.529 3.588l6.761 2.122s.966-1.943.985-5.657h.004l-.002-.054.002-.054h-.004c-.019-3.712-.985-5.657-.985-5.657l-6.761 2.122s.522 1.387.529 3.588zm-11.311 11.293c-2.201-.004-3.588-.526-3.588-.526l-2.122 6.761s1.943.964 5.657.985v.002l.054-.002.054.002v-.002c3.714-.021 5.657-.985 5.657-.985l-2.122-6.761s-1.387.522-3.588.526zm-17.526-17.022s-.966 1.945-.985 5.657h-.004l.002.054-.002.056h.004c.019 3.712.985 5.655.985 5.655l6.761-2.12s-.522-1.387-.529-3.59c.006-2.201.529-3.588.529-3.588l-6.761-2.122zm17.544-5.582c2.201.006 3.588.529 3.588.529l2.122-6.761s-1.945-.966-5.657-.985v-.004l-.054.002-.054-.002v.004c-3.714.019-5.657.985-5.657.985l2.122 6.761s1.387-.522 3.588-.529zm-.058 1.722c-5.312 0-9.635 4.321-9.635 9.633 0 5.312 4.323 9.633 9.635 9.633 5.31 0 9.633-4.321 9.633-9.633 0-5.312-4.323-9.633-9.633-9.633zm-.035-21.667c-17.286 0-31.298 14.014-31.298 31.3 0 17.284 14.012 31.298 31.298 31.298 17.286 0 31.3-14.014 31.3-31.298 0-17.286-14.014-31.3-31.3-31.3z"/></svg>