<svg width="64" height="64" viewBox="0 0 64 64" xmlns="http://www.w3.org/2000/svg"><title>02039boatvalueC</title><path d="M58.405 55.251l.518 1.908c.083.308.025.63-.163.888s-.477.415-.795.429l-1.974.097c-.954.047-1.79.657-2.129 1.546l-.702 1.848c-.114.297-.351.524-.652.621-.303.099-.632.058-.898-.118l-1.652-1.082c-.401-.262-.859-.392-1.317-.392-.458 0-.917.13-1.317.392l-1.654 1.082c-.266.175-.595.215-.896.118-.301-.097-.539-.324-.652-.621l-.702-1.846c-.339-.892-1.175-1.501-2.131-1.55l-1.972-.093c-.318-.017-.609-.173-.795-.431-.188-.258-.248-.58-.165-.888l.518-1.906c.254-.925-.066-1.906-.813-2.506l-1.538-1.239c-.248-.198-.39-.495-.39-.811 0-.32.142-.617.39-.815l1.538-1.239c.747-.601 1.067-1.581.813-2.502l-.518-1.908c-.083-.31-.023-.632.165-.89.186-.258.475-.413.795-.429l1.974-.097c.954-.045 1.79-.654 2.129-1.546l.702-1.846c.114-.299.351-.524.652-.623.303-.097.632-.056.896.12l1.654 1.082c.801.524 1.833.524 2.634 0l1.652-1.082c.264-.175.59-.219.898-.12.301.099.539.324.652.623l.702 1.844c.339.894 1.175 1.503 2.131 1.548l1.972.099c.318.014.607.169.795.427.188.258.246.58.163.89l-.518 1.906c-.252.923.068 1.908.813 2.504l1.54 1.239c.248.198.39.495.39.815 0 .316-.142.613-.39.811l-1.54 1.239c-.745.599-1.065 1.581-.813 2.504zm-36.881-27.929c-.782-.454-1.627-.925-2.411-1.327l12.187-3.439 4.16 2.257-13.935 2.51zm34.007 23.426c0 3.846-3.13 6.978-6.978 6.978-3.846 0-6.976-3.132-6.976-6.978 0-3.846 3.13-6.976 6.976-6.976 3.848 0 6.978 3.13 6.978 6.976zm-6.978-8.202c-4.523 0-8.202 3.681-8.202 8.202 0 4.523 3.679 8.204 8.202 8.204s8.204-3.681 8.204-8.204c0-4.521-3.681-8.202-8.204-8.202zm-1.734 5.95c0-.69.574-1.018 1.309-1.047v2.164c-.824-.221-1.309-.483-1.309-1.117zm2.188 3.349c.795.194 1.352.498 1.352 1.199 0 .621-.411 1.088-1.352 1.171v-2.37zm-.879 4.684h.879v-.716c2.131-.178 3.349-1.418 3.349-3.002 0-1.875-1.747-2.591-3.349-3.006v-2.327c.735.136 1.307.495 1.823 1.1l1.334-1.059c-.733-.966-1.965-1.532-3.157-1.67v-.743h-.879v.69c-1.941.07-3.334 1.214-3.334 2.88 0 2.011 2.042 2.674 3.334 2.948v2.579c-.999-.109-1.85-.69-2.364-1.515l-1.425 1.1c.675 1.018 2.042 1.916 3.788 2.04v.702zm13.481-3.96c.57-.46.898-1.142.898-1.873 0-.735-.328-1.416-.898-1.875l-1.538-1.239c-.326-.26-.465-.687-.355-1.09l.518-1.903c.165-.611.072-1.243-.229-1.786 1.379-3.516 2.162-7.329 2.162-11.33 0-17.166-13.915-31.085-31.083-31.085-17.166 0-31.083 13.919-31.083 31.085l.027.539 5.758-2.259c.066-.027.118-.083.14-.153.021-.068.012-.142-.025-.204l-3.819-6.272 2.515-.165 6.251 5.256c.062.052.149.068.225.047l5.471-1.544c.506.091 2.661 1.226 4.389 2.24.132.078.283.118.434.118l.151-.014 18.296-3.295.033-.012c9.583.448 14.532 1.451 16.987 2.201-6.978.268-29.508 1.204-40.149 2.426-4.036.465-10.069 1.55-16.58 3.14.033.512.062 1.028.12 1.534l.175-.035.023-.023c4.726-1.061 11.883-2.391 16.456-2.915 11.262-1.294 35.974-2.265 41.146-2.459-1.928 2.067-6.361 6.514-10.702 8.751l-.904-.593c-.615-.403-1.365-.504-2.06-.275-.696.225-1.243.747-1.503 1.431l-.322.849c-5.653.617-17.745 1.422-26.114 1.422-.855 0-1.662-.01-2.409-.029-4.525-.111-9.272-.289-12.596-.423 3.949 12.631 15.738 21.799 29.671 21.799 3.879 0 7.577-.743 11.002-2.042l.066.089.702 1.846c.26.683.807 1.206 1.503 1.431.246.081.498.12.747.12.46 0 .915-.132 1.313-.392l1.654-1.082c.345-.229.795-.229 1.144 0l1.654 1.082c.613.398 1.363.498 2.06.273.696-.225 1.243-.747 1.503-1.431l.702-1.85c.147-.386.51-.65.925-.671l1.974-.097c.733-.033 1.4-.394 1.827-.987.431-.593.568-1.336.376-2.042l-.518-1.91c-.109-.401.029-.828.355-1.086l1.538-1.239z"/></svg>