<svg width="64" height="64" viewBox="0 0 64 64" xmlns="http://www.w3.org/2000/svg"><title>01005boatL</title><path d="M47.726 39.084c-4.929.603-17.565 1.48-26.149 1.48h-.002c-.822 0-1.599-.007-2.317-.026-6.158-.154-12.743-.431-15.321-.544l.196-1.075c.091-.503-.216-.99-.709-1.125l-1.325-.361.154-.925c.649-.215 1.845-.581 3.34-.929 4.435-1.025 13.01-2.396 17.711-2.936 10.136-1.164 30.656-2.074 37.345-2.35-2.744 2.853-8.45 8.243-12.924 8.791zm-24.966-11.353c.353.061 1.743.901 2.948 1.704.163.109.355.165.546.165l.172-.013 15.374-2.603c7.781.263 12.713.873 15.789 1.471-8.532.374-25.536 1.205-34.506 2.235-4.202.483-11.329 1.595-16.131 2.585l.463-1.197 4.036-1.14c.296-.083.537-.302.649-.587.113-.285.083-.609-.076-.871l-3.06-5.027.912-.061 5.825 4.901c.252.207.588.283.901.192l6.16-1.754zm13.139-3.693l2.796 1.515-12.114 2.139c-.366-.239-.753-.476-1.14-.701l10.458-2.953zm27.76 4.394c-.333-.287-3.769-2.812-21.832-3.418l-5.342-2.896c-.226-.124-.487-.15-.736-.083l-19.182 5.416-5.729-4.82c-.194-.163-.448-.246-.698-.228l-2.927.192c-.344.02-.649.222-.809.527-.159.305-.146.67.031.964l3.232 5.309-3.262.92c-.298.085-.538.305-.649.594l-1.114 2.875c-2.126.52-3.538 1.036-3.603 1.06-.331.122-.572.413-.629.762l-.398 2.381c-.083.498.226.977.712 1.11l1.312.357-.235 1.295c-.052.278.02.566.196.788.178.222.442.355.725.37.085.004 8.632.398 16.484.594.735.019 1.528.028 2.367.028h.002c7.986 0 20.744-.805 26.387-1.497 6.831-.834 15.437-10.795 15.8-11.218.352-.413.305-1.032-.105-1.384z"/></svg>