<svg width="64" height="64" viewBox="0 0 64 64" xmlns="http://www.w3.org/2000/svg"><title>01005boatF</title><path d="M40.87 24.367l-4.224-2.367-12.494 3.545c.847.333 1.691.845 2.536 1.358l14.182-2.536zm-18.919 7.437c-4.722.513-11.994 1.857-16.883 2.867-2.368.513-4.224 1.012-4.722 1.178l-.346 1.689 2.023.513c.166 0 .166.166.166.331l-.333 2.023c1.691 0 9.627.513 17.051.679h2.534c9.113 0 22.463-.845 27.699-1.524 5.401-.677 12.327-7.602 14.861-10.304-5.236.18-30.566 1.191-42.048 2.547zm-.166-1.855c-4.557.499-11.316 1.855-16.039 2.867l.333-1.524 4.377-2.035c.167 0 .167-.166.167-.166v-.166l-3.88-6.414 2.534-.166 6.592 5.567h.18l5.401-1.689c.499.166 2.867 1.356 4.557 2.368.178.166.346.166.512.166h.167l18.739-3.379c9.793.346 14.861 1.356 17.395 2.201-7.269.167-30.233 1.178-41.036 2.368z"/></svg>