<svg width="64" height="64" viewBox="0 0 64 64" xmlns="http://www.w3.org/2000/svg"><title>03001brakingF</title><path d="M61.068 18.81c-1.797-2.904-4.518-4.11-8.083-3.48-2.043.36-21.319 2.975-21.319 2.975-1.202.164-3.131.014-4.293-.332 0 0-4.435-1.32-6.291-2.008-1.856-.685-4.828.628-5.182 3.243-.175 1.289.792 2.067.792 2.067.943.761 1.266 2.266.718 3.345 0 0-.887 1.749-4.594 3.762-3.397 1.842-6.789 2.325-12.817 1.7 0 0 .147 6.895 2.932 12.188 1.071 2.036 2.062 3.679 3.321 5.305.692.834 1.975 2.503 1.975 2.503.856.858 2.434 1.107 3.513.555l9.095-4.667c1.076-.552 1.527-1.896.998-2.987l-.768-1.007c6.654-2.861 13.815-5.902 17.114-7.187l20.43-10.494c1.076-.552 2.735-1.617 3.688-2.366 0 0 .472-.37-1.23-3.115zm2.257 9.742l-1.353-2.603-24.408 12.769 1.351 2.598c.308.59 1.038.82 1.631.512l10.318-5.397 5.371 10.261 3.669-1.911-5.376-10.268 8.287-4.335c.59-.308.818-1.036.51-1.626z"/></svg>