<svg width="64" height="64" viewBox="0 0 64 64" xmlns="http://www.w3.org/2000/svg"><title>03001brakingC</title><path d="M54.495 29.884l-6.111 3.197 3.965 7.578-2.708 1.41-3.963-7.572-7.614 3.982c-.436.229-.976.059-1.202-.377l-.997-1.916 18.011-9.422.999 1.92c.227.434.057.972-.379 1.2zm-30.236 9.443c.387.804.057 1.795-.739 2.204l-6.711 3.444c-.796.409-1.96.224-2.591-.409 0 0-.946-1.232-1.459-1.846-.929-1.2-1.658-2.413-2.449-3.916-2.056-3.904-2.163-8.993-2.163-8.993 4.448.461 6.95.104 9.456-1.255 2.737-1.484 3.391-2.775 3.391-2.775.404-.796.165-1.907-.531-2.466 0 0-.713-.576-.584-1.526.26-1.928 2.453-2.898 3.823-2.392 1.37.506 4.642 1.48 4.642 1.48.857.256 2.282.366 3.167.246 0 0 14.223-1.928 15.731-2.195 2.631-.464 4.638.425 5.965 2.568 1.255 2.026.908 2.299.908 2.299-.703.553-1.928 1.338-2.722 1.744l-15.074 7.744c-2.434.946-7.72 3.192-12.629 5.303l.569.743zm7.739-39.328c-17.672 0-31.999 14.327-31.999 32.001 0 17.672 14.327 31.999 31.999 31.999 17.674 0 32.001-14.327 32.001-31.999 0-17.674-14.327-32.001-32.001-32.001z"/></svg>