<svg width="64" height="64" viewBox="0 0 64 64" xmlns="http://www.w3.org/2000/svg"><title>03001brakingL</title><path d="M9.718 46.567l-.955-1.28c-1.172-1.512-2.148-3.044-3.162-4.968-1.762-3.348-2.383-7.478-2.598-9.706 5.185.383 8.344-.161 11.7-1.982 3.915-2.122 4.988-4.079 5.098-4.296.84-1.658.363-3.872-1.083-5.037-.003-.003-.314-.299-.258-.72.238-1.762 2.296-2.355 3.165-2.028 1.842.679 6.076 1.941 6.255 1.995 1.287.383 3.428.559 4.804.373.774-.105 18.944-2.569 20.951-2.924 2.868-.508 4.986.381 6.457 2.753.493.797.756 1.323.894 1.653-.861.608-1.979 1.303-2.743 1.696l-19.884 10.222c-2.738 1.065-8.398 3.44-16.819 7.062l-1.683.723 1.755 2.301c.11.35-.049.759-.386.93l-8.911 4.574c-.48.243-1.346.184-1.675-.166-.235-.276-.922-1.175-.922-1.175zm52.474-21.575l-23.919 12.513 1.326 2.546c.301.58 1.017.805 1.596.501l10.112-5.29 5.264 10.058 3.599-1.872-5.269-10.063 8.119-4.247c.577-.304.802-1.017.501-1.596l-1.328-2.549zm-55.662 22.185c.715.945 1.525 1.969 1.982 2.47.782.784 1.969 1.252 3.177 1.252.695 0 1.361-.153 1.931-.444l8.911-4.574c1.66-.851 2.396-2.845 1.732-4.557 7.422-3.185 12.645-5.374 15.266-6.401l20.022-10.283c1.142-.587 2.83-1.67 3.844-2.465 1.471-1.154-.11-3.706-.871-4.932-2.071-3.346-5.361-4.774-9.386-4.066-1.951.345-20.647 2.881-20.836 2.907-1.029.138-2.707-.01-3.604-.278-.043-.013-4.324-1.29-6.079-1.939-2.539-.932-6.516.789-6.993 4.329-.268 2.002 1.137 3.2 1.297 3.331.401.322.559 1.06.342 1.486-.008.015-.838 1.43-3.926 3.106-3.185 1.729-6.063 2.092-11.728 1.499l-1.612-.166.033 1.619c.008.291.181 7.159 3.039 12.579.784 1.494 1.553 2.771 2.396 3.984l1.063 1.543z"/></svg>