<svg width="64" height="64" viewBox="0 0 64 64" xmlns="http://www.w3.org/2000/svg"><title>02045brokenpipeL</title><path d="M14.812 37.334l.047.007-.015-.002-.022-.002-.01-.002zm2.351-2.351c-7.51 0-13.622-6.11-13.622-13.617v-18.378h6.415v18.405c0 3.872 3.148 7.025 7.02 7.025 2.198 0 4.271-1.046 5.588-2.772l.369.037v3.249l4.556 1.314c-2.572 2.993-6.319 4.736-10.326 4.736zm15.35-11.744l-.578-.448-.276-3.87-3.678-1.13c.263-.566.455-1.167.561-1.79l1.063-6.159c.805-4.684 3.426-7.057 7.788-7.057.682 0 1.386.062 2.097.185l19.424 3.348-.921 5.893-17.76-3.062c-.273-.047-.534-.071-.785-.071-2.828 0-3.362 3.087-3.535 4.098-.623 3.591-.677 3.914-.684 3.953-.384 2.245-1.319 4.335-2.718 6.11zm-1.836 16.805c-.047.67.172 1.322.606 1.785.406.438.965.682 1.566.682l.032-.002c.608-.007 1.167-.258 1.568-.709.426-.478.633-1.137.566-1.812-.081-.834-.409-1.442-.756-2.087-.32-.598-.67-1.26-.926-2.233-.108-.409-.202-.864-.266-1.403-.017-.153-.17-.268-.3-.263-.153.002-.278.121-.293.271-.111 1.196-.362 2.026-.64 2.7-.15.354-.305.667-.455.965-.33.655-.64 1.273-.702 2.107zm-7.692 11.813c-.096 1.339.345 2.641 1.209 3.569.817.876 1.93 1.361 3.134 1.361l.062-.002c1.218-.015 2.331-.519 3.138-1.42.852-.955 1.265-2.274 1.132-3.621-.165-1.669-.82-2.887-1.511-4.175-.642-1.199-1.344-2.523-1.854-4.468-.214-.815-.401-1.728-.529-2.804-.037-.305-.342-.537-.601-.527-.305.005-.559.239-.588.542-.222 2.393-.721 4.052-1.282 5.398-.295.709-.606 1.337-.906 1.932-.66 1.307-1.282 2.543-1.403 4.214zm11.082 6.105c-.118 1.642.421 3.234 1.479 4.372.999 1.073 2.363 1.666 3.838 1.666h.074c1.494-.022 2.858-.64 3.845-1.743 1.044-1.167 1.551-2.784 1.388-4.436-.204-2.041-1.004-3.532-1.851-5.113-.788-1.467-1.647-3.087-2.272-5.47-.263-.999-.49-2.117-.647-3.436-.044-.372-.418-.655-.736-.642-.374.005-.684.29-.719.662-.271 2.932-.884 4.962-1.57 6.612-.362.869-.743 1.639-1.11 2.366-.81 1.602-1.57 3.114-1.718 5.162zm3.328-57.718c-3.254 0-8.921 1.191-10.297 9.167l-1.063 6.159c-.133.79-.478 1.526-.987 2.127l-1.25 1.47 5.447 1.676.234 3.264 3.345 2.592.793-.847c2.159-2.306 3.584-5.172 4.118-8.29l-.012-.002c.084-.409.254-1.381.694-3.948.345-1.989.825-1.989 1.029-1.989l.352.037 20.308 3.5 1.708-10.919-21.888-3.774c-.852-.148-1.703-.222-2.53-.222zm-24.894.258h-11.5v20.864c.699 14.905 13.393 15.938 13.812 15.968l-.027-.002.037.005.022.002c.108.02.66.103 1.538.103 2.762 0 8.753-.837 14.294-7.207l.948-1.442-6.146-1.772v-3.628l-4.222-.438-.414.706c-.802 1.366-2.282 2.215-3.867 2.215-2.466 0-4.475-2.011-4.475-4.482v-20.891z"/></svg>