<svg width="64" height="64" viewBox="0 0 64 64" xmlns="http://www.w3.org/2000/svg"><title>02045brokenpipeC</title><path d="M40.162 25.425l-.258-.026c-.151 0-.506 0-.755 1.459-.326 1.888-.45 2.601-.512 2.899l.009.002c-.393 2.289-1.436 4.395-3.023 6.089l-.58.621-2.458-1.903-.171-2.398-4-1.231.917-1.077c.375-.442.627-.983.725-1.562l.781-4.521c1.009-5.858 5.171-6.733 7.561-6.733.606 0 1.231.053 1.858.162l16.07 2.771-1.254 8.017-14.91-2.571zm1.325 33.423c-.595.666-1.417 1.037-2.315 1.05h-.043c-.892 0-1.713-.356-2.315-1.003-.638-.687-.962-1.645-.89-2.633.087-1.233.546-2.144 1.033-3.108.222-.439.452-.902.67-1.427.414-.992.783-2.214.945-3.981.021-.224.209-.397.435-.399.19-.006.414.164.442.388.094.794.233 1.468.39 2.069.378 1.434.892 2.411 1.367 3.294.51.951.992 1.85 1.114 3.078.098.994-.205 1.969-.834 2.671zm-6.295-11.891c-.363 0-.698-.147-.943-.41-.262-.282-.395-.672-.365-1.075.036-.503.224-.877.422-1.269.09-.179.183-.369.273-.582.169-.405.32-.905.386-1.626.009-.092.085-.162.177-.162.077-.004.171.066.181.158.038.324.094.599.158.845.154.585.365.983.559 1.344.209.388.405.755.454 1.259.041.405-.083.802-.341 1.09-.241.271-.578.422-.945.427l-.017.002zm-1.399 7.74c-.484.544-1.156.847-1.89.858h-.036c-.725 0-1.395-.292-1.886-.819-.521-.559-.787-1.342-.727-2.15.07-1.007.446-1.749.843-2.537.181-.358.369-.738.546-1.165.339-.811.64-1.809.774-3.251.015-.181.169-.322.352-.326.156-.004.339.134.363.318.077.649.188 1.199.318 1.69.307 1.171.73 1.967 1.118 2.688.416.779.809 1.51.909 2.515.079.811-.169 1.606-.683 2.18zm-11.968-10.417s-9.626-.597-10.148-11.725v-15.319h8.444v15.341c0 1.813 1.474 3.29 3.287 3.29 1.161 0 2.249-.623 2.837-1.628l.303-.518 3.1.322v2.665l4.514 1.301-.695 1.058c-5.517 6.342-11.642 5.214-11.642 5.214zm10.176-44.279c-17.673 0-32 14.327-32 32 0 17.673 14.327 32 32 32 17.673 0 32-14.327 32-32 0-17.673-14.327-32-32-32z"/></svg>