<svg width="64" height="64" viewBox="0 0 64 64" xmlns="http://www.w3.org/2000/svg"><title>02045brokenpipeF</title><path d="M23.068 51.811c-.096 1.344.346 2.651 1.213 3.583.82.88 1.937 1.366 3.146 1.366l.062-.002c1.223-.015 2.34-.521 3.15-1.426.855-.959 1.27-2.283 1.137-3.635-.166-1.675-.823-2.898-1.517-4.191-.645-1.203-1.349-2.533-1.861-4.485-.215-.818-.403-1.735-.531-2.814-.037-.306-.343-.539-.603-.529-.306.005-.561.24-.591.544-.222 2.402-.724 4.067-1.287 5.419-.297.712-.608 1.342-.909 1.94-.662 1.312-1.287 2.552-1.408 4.23zm11.124 6.128c-.119 1.648.423 3.247 1.485 4.388 1.003 1.077 2.372 1.673 3.852 1.673h.074c1.5-.022 2.869-.642 3.86-1.749 1.048-1.171 1.557-2.795 1.391-4.453-.203-2.048-1.006-3.546-1.856-5.132-.791-1.473-1.653-3.099-2.281-5.49-.264-1.003-.492-2.125-.65-3.449-.044-.373-.42-.657-.739-.645-.376.005-.687.292-.722.665-.274 2.943-.887 4.979-1.576 6.637-.363.872-.746 1.643-1.114 2.375-.813 1.609-1.576 3.126-1.725 5.182zm-3.402-17.986c-.047.672.173 1.327.608 1.791.408.44.969.684 1.572.684l.032-.002c.61-.007 1.171-.262 1.574-.712.427-.479.635-1.142.568-1.819-.082-.838-.41-1.448-.759-2.095-.321-.6-.675-1.265-.929-2.241-.109-.41-.203-.867-.267-1.408-.017-.153-.17-.269-.301-.264-.153.002-.279.119-.294.272-.111 1.201-.363 2.034-.645 2.711-.148.356-.304.67-.455.969-.331.657-.642 1.277-.704 2.115zm9.283-39.73c-.855-.148-1.71-.222-2.54-.222-3.267 0-8.955 1.196-10.336 9.202l-1.067 6.182c-.133.793-.479 1.53-.991 2.135l-1.255 1.475 5.468 1.683.235 3.276 3.358 2.599.796-.848c2.167-2.315 3.598-5.191 4.134-8.322l-.012-.002c.084-.41.255-1.386.697-3.966.346-1.994.828-1.994 1.033-1.994l.353.035 20.385 3.516 1.715-10.961-21.972-3.788zm-14.502 23.014l-4.238-.44-.415.709c-.806 1.371-2.291 2.224-3.882 2.224-2.476 0-4.492-2.019-4.492-4.5v-20.971h-11.544v20.944c.714 15.214 13.874 16.032 13.874 16.032s8.374 1.542 15.915-7.129l.951-1.448-6.17-1.779v-3.642z"/></svg>