<svg width="64" height="64" viewBox="0 0 64 64" xmlns="http://www.w3.org/2000/svg"><title>02026buildpropL</title><path d="M58.733 14.693c-5.772-9.2-15.694-14.693-26.542-14.693h-.36c-10.848 0-20.769 5.493-26.54 14.693-.558.891-.29 2.064.6 2.623.314.199.664.292 1.009.292.635 0 1.253-.316 1.613-.891 5.071-8.085 13.789-12.91 23.317-12.91h.36c9.531 0 18.246 4.825 23.317 12.91.558.887 1.731 1.162 2.625.6.889-.558 1.158-1.731.6-2.623zm-30.093 49.307h7.09v-2.48h-7.09v2.48zm-1.088-3.545h.054v-.017h-.054v.017zm9.22 0h.043v-.017h-.043v.017zm-4.72-43.117c-6.42 0-7.996 3.464-7.996 3.464h-9.315v38.548h11.725v-9.876l.213-.29c.066-.089 1.642-2.157 5.475-2.157 3.816 0 5.45 2.05 5.518 2.137l.23.296v9.89h11.723v-38.548h-9.313s-1.373-3.464-8.259-3.464zm9.812 33.315h3.748v-4.687h-3.748v4.687zm0-9.328h3.748v-4.687h-3.748v4.687zm0-9.93h3.748v-4.687h-3.748v4.687zm-11.58 0h3.75v-4.687h-3.75v4.687zm0 9.93h3.75v-4.687h-3.75v4.687zm-11.578-9.93h3.748v-4.687h-3.748v4.687zm0 9.93h3.748v-4.687h-3.748v4.687zm0 9.328h3.748v-4.687h-3.748v4.687zm22.759-32.023h10.331v42.893h-16.066v-11.245c-.443-.368-1.555-1.078-3.576-1.078-2.008 0-3.086.699-3.516 1.069v11.253h-16.068v-42.893h10.333s2.494-3.458 9.264-3.458c6.852 0 9.299 3.458 9.299 3.458z"/></svg>