<svg width="64" height="64" viewBox="0 0 64 64" xmlns="http://www.w3.org/2000/svg"><title>02026buildpropF</title><path d="M27.486 61.467h9.377v2.533h-9.377v-2.533zm31.688-46.526h.001c-5.87-9.356-15.961-14.942-26.992-14.942h-.366c-11.032 0-21.122 5.586-26.99 14.942-.567.905-.294 2.099.61 2.665.32.204.675.296 1.026.296.646 0 1.274-.32 1.64-.907 5.157-8.22 14.023-13.127 23.713-13.127h.366c9.692 0 18.555 4.908 23.713 13.127.567.905 1.761 1.184 2.669.61.905-.565 1.178-1.761.61-2.665zm-18.125 5.109h9.968v41.416h-14.153v-10.79s-1.334-1.748-4.718-1.748c-3.387 0-4.659 1.748-4.659 1.748v10.79h-14.153v-41.416h9.97s2.082-3.521 8.87-3.521c6.785 0 8.876 3.521 8.876 3.521zm-18.768 26.694h-3.811v4.766h3.811v-4.766zm0-9.484h-3.811v4.766h3.811v-4.766zm0-10.098h-3.811v4.766h3.811v-4.766zm11.776 10.098h-3.813v4.766h3.813v-4.766zm0-10.098h-3.813v4.766h3.813v-4.766zm7.963 4.766h3.811v-4.766h-3.811v4.766zm0 10.098h3.811v-4.766h-3.811v4.766zm0 9.484h3.811v-4.766h-3.811v4.766z"/></svg>