<svg width="64" height="64" viewBox="0 0 64 64" xmlns="http://www.w3.org/2000/svg"><title>02026buildpropC</title><path d="M48.714 21.541c-.609.386-1.41.198-1.79-.409-3.464-5.518-9.416-8.813-15.922-8.813h-.246c-6.505 0-12.457 3.295-15.919 8.813-.248.392-.669.609-1.102.609-.235 0-.475-.064-.69-.2-.607-.38-.791-1.181-.411-1.79 3.941-6.28 10.717-10.031 18.122-10.031h.246c7.405 0 14.181 3.751 18.122 10.031.38.609.198 1.41-.411 1.79zm-11.759 1.641h6.691v27.807h-9.501v1.699h-6.293v-1.699h-9.505v-27.807h6.693s1.557-2.409 5.944-2.409c4.387 0 5.971 2.409 5.971 2.409zm.652 14.753h2.56v-3.2h-2.56v3.2zm0-6.78h2.56v-3.2h-2.56v3.2zm-7.907 0h2.56v-3.2h-2.56v3.2zm7.907 13.149h2.56v-3.2h-2.56v3.2zm-6.629-1.734c-2.275 0-3.126 1.173-3.126 1.173v7.246h6.293v-7.246s-.896-1.173-3.167-1.173zm-9.183-4.635h2.56v-3.2h-2.56v3.2zm7.905 0h2.56v-3.2h-2.56v3.2zm-7.905-6.78h2.56v-3.2h-2.56v3.2zm0 13.149h2.56v-3.2h-2.56v3.2zm9.503-42.903c-17.286 0-31.298 14.014-31.298 31.3 0 17.284 14.012 31.298 31.298 31.298 17.286 0 31.3-14.014 31.3-31.298 0-17.286-14.014-31.3-31.3-31.3z"/></svg>