<svg width="64" height="64" viewBox="0 0 64 64" xmlns="http://www.w3.org/2000/svg"><title>04018bundleF</title><path d="M51.56 8.723c-.396-.663-2.432-1.408-5.149-1.978-2.717-.57-5.785-.743-5.785-.743s-3.9-2.849-5.39-3.638c-1.489-.789-3.365-1.718-8.632-1.621-4.62.083-8.031 1.757-10.562 3.549-1.546 1.096-2.76 1.226-4.205 1.489-1.445.264-2.015.834-2.015 1.579 0 .743-.132 3.549-.132 3.549l-.613.877s-.221 1.051.087 1.972c.431 1.294 1.268 2.139 4.482 2.226.456 1.612 1.926 2.806 3.683 2.806 1.705 0 3.138-1.125 3.64-2.665h19.757c.502 1.54 1.937 2.665 3.642 2.665 1.697 0 3.124-1.113 3.634-2.643 1.086-.052 3.252-.25 3.757-.987 1.051-1.534.921-4.571-.198-6.437zm-34.232 8.605c-1.315 0-2.385-1.069-2.385-2.385 0-1.315 1.069-2.385 2.385-2.385 1.315 0 2.385 1.069 2.385 2.385 0 1.315-1.069 2.385-2.385 2.385zm24.654-2.385c0-1.315 1.069-2.385 2.385-2.385 1.315 0 2.385 1.069 2.385 2.385 0 1.315-1.069 2.385-2.385 2.385-1.315 0-2.385-1.069-2.385-2.385zm-23.48-8.694s.634-1.297 3.13-2.267c2.193-.853 4.643-.97 4.643-.97.326-.017.593.239.593.566l.502 2.915c0 .326-.266.582-.593.572l-7.94-.262c-.326-.01-.477-.26-.334-.553zm10.886.896c-.326-.01-.595-.285-.595-.611l-.5-2.909c0-.328.266-.582.593-.566 0 0 1.802.091 2.597.264 3.311.725 5.729 3.627 5.729 3.627.209.25.111.448-.215.44l-7.61-.246zm-14.437 52.024h12.034v-10.283h5.333v10.283h11.906v-12.986h-29.273v12.986zm20.218-4.947h5.337v-5.337h-5.337v5.337zm-16.374 0h5.337v-5.337h-5.337v5.337zm-7.899-9.515h37.326c.124 0 .196-.072.227-.116.031-.041.078-.132.041-.25l-4.936-11.089c-.093-.149-.332-.279-.493-.279h-7.304l1.092 1.055c.349.337.547.805.547 1.29v6.249c0 .409-.33.739-.737.739-.409 0-.739-.33-.739-.739v-6.249c0-.087-.035-.169-.097-.227l-6.016-5.805c-.122-.118-.314-.118-.438 0l-6.016 5.805c-.062.06-.097.142-.097.227v6.249c0 .409-.33.739-.739.739-.407 0-.737-.33-.737-.739v-6.249c0-.485.198-.956.547-1.29l1.094-1.055h-7.364c-.159 0-.401.13-.526.349l-4.883 11c-.066.198.023.384.248.384zm16.087-4.251h5.337v-5.339h-5.337v5.339zm.002 20.523h5.333v-1.811h-5.333v1.811zm-.844 2.897h7.026v-1.784h-7.026v1.784zm3.468-44.973c-.654 0-1.187.533-1.187 1.187v1.635h-1.61c-.654 0-1.187.533-1.187 1.187s.533 1.187 1.187 1.187h1.61v1.629c0 .652.533 1.185 1.187 1.185.652 0 1.185-.533 1.185-1.185v-1.629h1.654c.654 0 1.187-.533 1.187-1.187s-.533-1.187-1.187-1.187h-1.654v-1.635c0-.654-.533-1.187-1.185-1.187z"/></svg>