<svg width="64" height="64" viewBox="0 0 64 64" xmlns="http://www.w3.org/2000/svg"><title>04019bundlemnhoC</title><path d="M51.51 38.237h-.683v.004l-14.875.002c-.607-.626-1.856-1.934-3.084-3.163l16.797-.01c.192 0 .415.074.621.194.206.12.396.283.518.462l.962 1.854c.062.091.099.175.118.254.052.235-.087.403-.374.403zm-1.645 11.646h-17.121v1.218h-5.353v-1.218h-12.563v-10.374h9.67l.186-.192c1.763-1.817 4.527-4.633 4.916-4.949.306-.246.498-.252.789-.027.353.27 3.338 3.202 5.139 4.984l.186.184h14.152v10.374zm-23.265 3.503h7.147v-1.251h-7.147v1.251zm-13.537-15.149c-.287 0-.425-.167-.374-.403.017-.078.056-.163.116-.254l.964-1.854c.122-.18.312-.343.518-.462.206-.12.431-.194.621-.194l12.139.01c-1.228 1.228-2.477 2.537-3.084 3.163l-10.219-.002.002-.004h-.683zm15.891-9.945c-.522 0-.948-.425-.948-.95 0-.522.425-.95.948-.95h1.29v-1.307c0-.524.425-.95.948-.95.524 0 .95.425.95.95v1.307h1.323c.522 0 .95.427.95.95 0 .524-.427.95-.95.95h-1.323v1.303c0 .522-.425.95-.95.95-.522 0-.948-.427-.948-.95v-1.303h-1.29zm-14.187-10.948l.489-.7s.105-2.244.105-2.841c0-.595.456-1.051 1.612-1.261 1.158-.211 2.129-.316 3.365-1.191 2.025-1.435 4.755-2.773 8.45-2.841 4.214-.076 5.715.667 6.906 1.299 1.191.63 4.313 2.909 4.313 2.909s2.453.14 4.627.597c2.174.454 3.801 1.051 4.119 1.581.896 1.491.999 3.923.159 5.149-.405.588-2.139.747-3.006.791-.407 1.222-1.548 2.112-2.907 2.112-1.365 0-2.51-.9-2.913-2.133h-15.806c-.401 1.233-1.546 2.133-2.911 2.133-1.406 0-2.583-.954-2.948-2.244-2.57-.068-3.239-.745-3.584-1.78-.246-.737-.07-1.579-.07-1.579zm21.826 28.449h3.636v-3.636h-3.636v3.636zm-17.742 0h3.636v-3.636h-3.636v3.636zm23.379 0h3.636v-3.636h-3.636v3.636zm-14.838 4.09h5.353v-8.155h-5.353v8.155zm3.625-36.251l6.088.196c.26.008.339-.151.171-.351 0 0-1.934-2.323-4.583-2.903-.636-.138-2.077-.211-2.077-.211-.262-.012-.475.192-.475.452l.401 2.329c0 .26.215.481.475.487zm11.982 8.147c1.053 0 1.908-.855 1.908-1.908 0-1.051-.855-1.908-1.908-1.908s-1.908.857-1.908 1.908c0 1.053.855 1.908 1.908 1.908zm-14.072-8.211c.26.01.475-.196.475-.458l-.401-2.331c0-.26-.215-.465-.475-.452 0 0-1.961.095-3.714.776-1.998.776-2.504 1.813-2.504 1.813-.116.235.006.434.266.444l6.353.209zm-7.558 8.211c1.051 0 1.908-.855 1.908-1.908 0-1.051-.857-1.908-1.908-1.908-1.053 0-1.91.857-1.91 1.908 0 1.053.857 1.908 1.91 1.908zm9.813-20.137c-17.22 0-31.18 13.958-31.18 31.178s13.96 31.18 31.18 31.18 31.178-13.96 31.178-31.18-13.958-31.178-31.178-31.178z"/></svg>