<svg width="64" height="64" viewBox="0 0 64 64" xmlns="http://www.w3.org/2000/svg"><title>04018bundleL</title><path d="M27.034 40.811h4.893v-4.893h-4.893v4.893zm7.69 12.934h4.893v-4.893h-4.893v4.893zm-15.381 0h4.893v-4.893h-4.893v4.893zm10.11-34.593c-.654 0-1.187.533-1.187 1.189v1.635h-1.61c-.654 0-1.187.531-1.187 1.185s.533 1.187 1.187 1.187h1.61v1.629c0 .652.533 1.185 1.187 1.185.652 0 1.185-.533 1.185-1.185v-1.629h1.654c.654 0 1.187-.533 1.187-1.187s-.533-1.185-1.187-1.185h-1.654v-1.635c0-.657-.533-1.189-1.185-1.189zm-4.106 44.847h8.347v-2.151h-8.347v2.151zm-9.063-48.531c.202-.884 1.005-1.524 1.908-1.524.943 0 1.755.673 1.928 1.602.021.118.037.239.037.361 0 .283-.068.566-.198.836-.324.683-1.018 1.127-1.767 1.127-.789 0-1.499-.469-1.809-1.197-.101-.244-.155-.502-.155-.766 0-.138.019-.283.056-.44zm24.248-.328h-18.323c-.365-1.926-2.038-3.34-4.018-3.34-1.901 0-3.563 1.348-3.989 3.188-2.523-.136-2.75-.818-2.952-1.422-.138-.411-.109-.908-.078-1.173l.63-.904.062-1.325c.192-.014.386-.054.588-.124.537-.182.908-.52 1.016-.929.087-.322.002-.65-.239-.925-.268-.303-.714-.504-1.266-.57.066-.116.341-.295 1.065-.429l.382-.066c1.33-.235 2.583-.454 4.15-1.567 3.014-2.131 6.185-3.198 9.695-3.262 4.986-.095 6.6.772 7.893 1.455 1.371.727 5.085 3.439 5.124 3.466l.256.186.32.019c.306.019 3.064.198 5.473.704 1.654.349 2.705.687 3.349.946-.076.081-.138.169-.186.268-.128.268-.12.584.025.879.266.541.972.962 1.747 1.063.248 1.319.099 2.684-.372 3.371-.149.14-1.043.382-2.316.485-.365-1.924-2.036-3.334-4.018-3.334-1.98 0-3.652 1.414-4.018 3.34zm2.089.429c.165-.941.977-1.625 1.928-1.625.966 0 1.778.696 1.932 1.652l.033.312c0 .301-.076.601-.227.892-.341.661-1.005 1.071-1.738 1.071-.733 0-1.4-.413-1.74-1.078-.147-.287-.223-.584-.223-.886l.035-.339zm9.86-7.123c-.557-.929-2.482-1.747-5.719-2.424-2.213-.467-4.637-.667-5.477-.729-.985-.71-3.861-2.769-5.139-3.446-1.365-.721-3.233-1.709-8.268-1.709l-.663.006c-3.956.072-7.519 1.27-10.897 3.658-1.177.832-2.062.989-3.289 1.206l-.384.068c-2.475.45-2.845 1.817-2.845 2.593 0 .384-.039 1.455-.114 3.099l-.504.718-.087.275c-.027.136-.262 1.344.118 2.484.638 1.912 2.114 2.758 5.064 2.884.533 1.714 2.106 2.886 3.912 2.886 1.726 0 3.274-1.109 3.854-2.731l18.661.033c.59 1.602 2.133 2.698 3.842 2.698 1.718 0 3.264-1.105 3.848-2.717 1.604-.085 3.547-.407 4.243-1.42 1.243-1.813 1.171-5.217-.159-7.432zm-30.144 26.114c-.401.388-.63.927-.63 1.484v5.874c0 .59.481 1.071 1.074 1.071.59 0 1.071-.481 1.071-1.071l-.025-5.814 5.595-5.397 5.568 5.337v5.874c0 .59.481 1.071 1.074 1.071.59 0 1.071-.481 1.071-1.071v-5.874c0-.557-.229-1.096-.63-1.484l-.351-.339h5.917l.122.039 4.556 10.226h-34.705l4.497-10.124c.05-.085.142-.134.173-.14h5.973l-.351.339zm6.066 23.063h2.153v-7.403h-2.153v7.403zm-2.145-9.548v9.548h-9.513v-10.991h25.352v10.991h-9.396v-9.548h-6.443zm5.735-44.34c-.774-.169-2.533-.256-2.533-.256-.318-.017-.657.204-.578.549l.489 2.837c.056.345.26.586.578.595l7.42.239c.318.01.411-.184.206-.427 0 0-2.356-2.83-5.582-3.537zm-5.079-.303s-2.389.116-4.525.946c-2.434.946-3.051 2.209-3.051 2.209-.138.287.006.529.324.541l7.742.254c.318.012.605-.256.578-.557l-.489-2.841c-.064-.386-.26-.566-.578-.551zm17.189 29.853c-.425-.733-1.22-1.208-2.025-1.208h-8.147l-3.078-2.969c-.776-.751-2.087-.751-2.863 0l-3.078 2.969h-8.2c-.82 0-1.61.489-2.079 1.311l-4.709 10.61c-.194.621-.083 1.282.303 1.806.388.526.983.828 1.635.828h2.738v13.137h11.631v1.559h6.503v-1.559h11.51v-13.137h2.682c.652 0 1.249-.301 1.635-.828.396-.533.493-1.204.26-1.924l-4.717-10.595z"/></svg>