<svg width="64" height="64" viewBox="0 0 64 64" xmlns="http://www.w3.org/2000/svg"><title>04018bundleC</title><path d="M48.91 20.044c-.405.588-2.139.747-3.006.791-.407 1.222-1.548 2.112-2.907 2.112-1.365 0-2.51-.9-2.913-2.133h-15.806c-.401 1.233-1.546 2.133-2.911 2.133-1.406 0-2.583-.954-2.948-2.244-2.57-.068-3.239-.745-3.584-1.78-.246-.737-.07-1.579-.07-1.579l.489-.7s.105-2.244.105-2.841c0-.595.456-1.051 1.612-1.261 1.158-.211 2.129-.316 3.365-1.191 2.025-1.435 4.755-2.773 8.45-2.841 4.214-.076 5.715.667 6.906 1.299 1.191.63 4.313 2.909 4.313 2.909s2.453.14 4.627.597c2.174.454 3.801 1.051 4.119 1.581.896 1.491.999 3.923.159 5.149zm-15.447 5.252c.522 0 .95.427.95.95 0 .524-.427.95-.95.95h-1.323v1.303c0 .522-.425.95-.95.95-.522 0-.948-.427-.948-.95v-1.303h-1.29c-.522 0-.948-.425-.948-.95 0-.522.425-.95.948-.95h1.29v-1.307c0-.524.425-.95.948-.95.524 0 .95.425.95.95v1.307h1.323zm12.8 18.294c-.025.033-.083.091-.18.091h-29.861c-.182 0-.252-.147-.198-.306l3.904-8.801c.101-.173.295-.279.423-.279h5.89l-.875.844c-.279.268-.438.644-.438 1.032v5c0 .326.264.59.59.59.326 0 .59-.264.59-.59v-5c0-.068.029-.134.078-.182l4.812-4.645c.099-.093.252-.095.349 0l4.814 4.645c.05.047.076.114.076.182v5c0 .326.264.59.59.59.328 0 .593-.264.593-.59v-5c0-.388-.161-.764-.438-1.032l-.875-.844h5.845c.128 0 .32.105.392.223l3.951 8.871c.029.095-.01.165-.035.2zm-3.38 11.662h-9.524v1.447h-4.267v-1.447h-9.627v-10.389h23.418v10.389zm-14.468 3.865h5.62v-1.526h-5.62v1.526zm4.276-48.543c-.636-.138-2.077-.211-2.077-.211-.262-.012-.475.192-.475.452l.401 2.329c0 .26.215.481.475.487l6.088.196c.26.008.339-.151.171-.351 0 0-1.934-2.323-4.583-2.903zm10.306 7.389c-1.053 0-1.908.857-1.908 1.908 0 1.053.855 1.908 1.908 1.908s1.908-.855 1.908-1.908c0-1.051-.855-1.908-1.908-1.908zm-14.472-7.637s-1.961.095-3.714.776c-1.998.776-2.504 1.813-2.504 1.813-.116.235.006.434.266.444l6.353.209c.26.01.475-.196.475-.458l-.401-2.331c0-.26-.215-.465-.475-.452zm-7.158 7.637c-1.053 0-1.91.857-1.91 1.908 0 1.053.857 1.908 1.91 1.908 1.051 0 1.908-.855 1.908-1.908 0-1.051-.857-1.908-1.908-1.908zm7.723 22.317h4.269v-4.269h-4.269v4.269zm6.549 11.014h4.269v-4.269h-4.269v4.269zm-13.099 0h4.269v-4.269h-4.269v4.269zm6.553 3.958h4.265v-8.227h-4.265v8.227zm2.087-53.611c-17.22 0-31.18 13.958-31.18 31.178s13.96 31.18 31.18 31.18 31.178-13.96 31.178-31.18-13.958-31.178-31.178-31.178z"/></svg>