<svg width="64" height="64" viewBox="0 0 64 64" xmlns="http://www.w3.org/2000/svg"><title>01016businessC</title><path d="M48.716 33.577c-1.745 0-3.279-.854-4.179-2.145-.897 1.29-2.431 2.145-4.179 2.145-1.747 0-3.282-.854-4.181-2.145-.897 1.29-2.431 2.145-4.179 2.145-1.747 0-3.282-.854-4.179-2.145-.899 1.29-2.434 2.145-4.179 2.145-1.747 0-3.282-.854-4.181-2.145-.897 1.29-2.431 2.145-4.179 2.145-2.772 0-5.154-2.138-4.597-4.782.408-1.894.99-4.665 1.456-6.106.451-1.39 1.107-1.875 2.504-1.875h34.708c1.399 0 2.055.485 2.504 1.875.465 1.441 1.05 4.213 1.456 6.106.557 2.644-1.826 4.782-4.597 4.782zm1.828 14.986h-13.313v1.972h-10.48v-1.972h-13.313v-13.79c.567.153 1.15.255 1.751.264v6.801h11.52v-7.426c.391-.193.767-.499 1.114-.761.2.151.421.366.638.495v12.625h7.063v-12.625c.217-.13.438-.344.638-.495.346.261.723.567 1.114.761v7.426h11.522v-6.801c.601-.009 1.182-.111 1.749-.264v13.79zm-37.069-29.586h37.033v-4.929h-37.033v4.929zm18.525-18.978c-17.673 0-32 14.327-32 32 0 17.675 14.327 32 32 32 17.675 0 32-14.325 32-32 0-17.673-14.325-32-32-32z"/></svg>