<svg width="64" height="64" viewBox="0 0 64 64" xmlns="http://www.w3.org/2000/svg"><title>01016businessF</title><path d="M4.291 12.372h55.388v-7.372h-55.388v7.372zm35.53 47.203v-2.951h19.913v-20.623c-.845.229-1.717.381-2.617.394v10.171h-17.231v-11.105c-.583-.289-1.146-.748-1.665-1.139-.299.227-.628.548-.952.74v18.884h-10.567v-18.884c-.324-.192-.653-.513-.952-.74-.518.391-1.082.85-1.665 1.139v11.105h-17.231v-10.171c-.9-.012-1.772-.164-2.617-.394v20.623h19.913v2.951h15.671zm24.058-32.516c.832 3.953-2.734 7.15-6.876 7.15-2.612 0-4.907-1.276-6.251-3.208-1.343 1.931-3.639 3.208-6.251 3.208-2.612 0-4.907-1.276-6.251-3.208-1.343 1.931-3.639 3.208-6.251 3.208-2.612 0-4.907-1.276-6.251-3.208-1.343 1.931-3.639 3.208-6.251 3.208-2.612 0-4.907-1.276-6.251-3.208-1.343 1.931-3.639 3.208-6.251 3.208-4.145 0-7.709-3.198-6.876-7.15.611-2.834 1.48-6.981 2.178-9.134.673-2.081 1.655-2.804 3.743-2.804h51.911c2.091 0 3.073.723 3.746 2.804.698 2.153 1.568 6.3 2.178 9.134z"/></svg>