<svg width="64" height="64" viewBox="0 0 64 64" xmlns="http://www.w3.org/2000/svg"><title>01033busshieldL</title><path d="M49.137 34.395c0 6.61-2.757 12.356-16.717 21.977-10.636-7.267-16.775-13.266-16.775-21.977v-19.39c6.282-.544 11.126-2.613 16.746-7.138 5.621 4.525 10.466 6.594 16.746 7.138v19.39zm4.076-24.604l.006 1.178c.212.177.357.434.357.733v22.938c0 8.361-3.372 15.479-20.614 27.116-.164.11-.351.166-.54.166-.187 0-.374-.056-.538-.164-13.102-8.806-20.687-16.066-20.687-27.118v-22.938c0-.239.093-.451.237-.621v-.133l.164-.01c.15-.112.326-.195.528-.201 7.699-.282 12.836-2.437 19.635-8.243.359-.309.891-.309 1.251 0 6.799 5.806 11.937 7.961 19.635 8.243.208.008.388.093.542.21l.025-1.157zm.027-1.155c-7.647-.177-12.5-2.2-19.234-8.019-.951-.821-2.439-.823-3.392-.002-6.735 5.821-11.588 7.844-19.234 8.021-1.313.029-2.381 1.116-2.381 2.42v23.584c0 11.997 7.929 19.673 21.626 28.878.48.322 1.082.482 1.683.482.602 0 1.205-.16 1.685-.482 13.696-9.205 21.626-16.881 21.626-28.878v-23.584c0-1.303-1.068-2.391-2.381-2.42zm-1.789 5.293c0-.613-.478-1.12-1.089-1.155-6.554-.38-11.386-2.424-17.23-7.29-.428-.359-1.053-.359-1.481 0-5.844 4.867-10.674 6.911-17.228 7.29-.613.035-1.091.542-1.091 1.155v20.466c0 9.915 6.762 16.43 18.443 24.337.197.131.422.199.65.199.228 0 .453-.067.65-.201 15.371-10.468 18.377-16.85 18.377-24.336v-20.466z" fill="#221F20"/></svg>