<svg width="64" height="64" viewBox="0 0 64 64" xmlns="http://www.w3.org/2000/svg"><title>05029calendarC</title><path d="M20.887 35.013c1.144 0 2.07.925 2.07 2.07 0 1.144-.927 2.07-2.07 2.07-1.144 0-2.07-.927-2.07-2.07 0-1.146.925-2.07 2.07-2.07zm.002-6.901c1.144 0 2.07.925 2.07 2.07 0 1.144-.927 2.07-2.07 2.07-1.144 0-2.07-.927-2.07-2.07 0-1.146.925-2.07 2.07-2.07zm7.407 6.901c1.146 0 2.07.925 2.07 2.07 0 1.144-.927 2.07-2.07 2.07-1.144 0-2.07-.927-2.07-2.07 0-1.146.925-2.07 2.07-2.07zm.002-6.901c1.141 0 2.07.925 2.07 2.07 0 1.144-.929 2.07-2.07 2.07-1.146 0-2.07-.927-2.07-2.07 0-1.146.925-2.07 2.07-2.07zm7.407 0c1.146 0 2.07.925 2.07 2.07 0 1.144-.927 2.07-2.07 2.07-1.146 0-2.07-.927-2.07-2.07 0-1.146.925-2.07 2.07-2.07zm0 11.042c-1.139 0-2.07-.927-2.07-2.07 0-1.146.925-2.072 2.07-2.072 1.146 0 2.072.927 2.072 2.072 0 1.144-.929 2.07-2.072 2.07zm7.409-4.14c1.146 0 2.07.925 2.07 2.07 0 1.144-.927 2.07-2.07 2.07-1.144 0-2.07-.927-2.07-2.07 0-1.146.925-2.07 2.07-2.07zm0-6.901c1.146 0 2.07.925 2.07 2.07 0 1.144-.927 2.07-2.07 2.07-1.144 0-2.07-.927-2.07-2.07 0-1.146.925-2.07 2.07-2.07zm-14.819 17.943c-1.144 0-2.07-.927-2.07-2.07 0-1.144.927-2.07 2.07-2.07 1.144 0 2.07.927 2.07 2.07 0 1.144-.927 2.07-2.07 2.07zm-7.407 0c-1.144 0-2.07-.927-2.07-2.07 0-1.144.925-2.07 2.07-2.07 1.144 0 2.07.927 2.07 2.07 0 1.144-.927 2.07-2.07 2.07zm30.666-.346c0 2.831-2.304 5.135-5.133 5.135h-28.838c-2.833 0-5.139-2.304-5.139-5.135v-24.171c0-2.833 2.306-5.137 5.139-5.137h2.457v-1.722c0-.442.193-.861.527-1.15.329-.289.772-.419 1.212-.357.742.108 1.301.793 1.301 1.59v1.639h17.799v-1.722c0-.442.191-.861.525-1.15.332-.289.776-.419 1.212-.357.744.111 1.301.793 1.301 1.59v1.639h2.506c2.829 0 5.133 2.304 5.133 5.137v24.171zm-19.554-45.708c-17.675 0-32.001 14.326-32.001 32.001 0 17.673 14.326 31.999 32.001 31.999 17.673 0 32.001-14.326 32.001-31.999 0-17.675-14.328-32.001-32.001-32.001zm-14.417 48.395h28.838c1.481 0 2.687-1.205 2.687-2.687v-19.962h-34.216v19.962c0 1.481 1.205 2.687 2.691 2.687z"/></svg>