<svg width="64" height="64" viewBox="0 0 64 64" xmlns="http://www.w3.org/2000/svg"><title>05029calendarS</title><path d="M57 8h-3v-2c0-3.314-2.687-6-6-6-3.312 0-6 2.686-6 6v2h-20v-2c0-3.314-2.688-6-6-6s-6 2.686-6 6v2h-3c-3.85 0-7 3.15-7 7v42c0 3.85 3.15 7 7 7h50c3.85 0 7-3.15 7-7v-42c0-3.85-3.15-7-7-7zm-49 48h48v-32h-48v32zm10-17c3.312 0 6-2.688 6-6 0-3.315-2.688-6-6-6-3.315 0-6 2.685-6 6 0 3.312 2.688 6 6 6zm14 0c3.312 0 6-2.688 6-6 0-3.315-2.688-6-6-6-3.315 0-6 2.685-6 6 0 3.312 2.688 6 6 6zm14 0c3.312 0 6-2.688 6-6 0-3.315-2.688-6-6-6-3.315 0-6 2.685-6 6 0 3.312 2.688 6 6 6zm-28 14c3.312 0 6-2.688 6-6 0-3.315-2.688-6-6-6-3.315 0-6 2.685-6 6 0 3.312 2.688 6 6 6zm14 0c3.312 0 6-2.688 6-6 0-3.315-2.688-6-6-6-3.315 0-6 2.685-6 6 0 3.312 2.688 6 6 6z"/></svg>