<svg width="64" height="64" viewBox="0 0 64 64" xmlns="http://www.w3.org/2000/svg"><title>05029calendarL</title><path d="M50.595 43.776c1.913 0 3.464-1.551 3.464-3.464 0-1.915-1.549-3.464-3.464-3.464s-3.464 1.549-3.464 3.464c0 1.913 1.551 3.464 3.464 3.464zm-12.394-6.927c-1.915 0-3.464 1.549-3.464 3.464 0 1.913 1.554 3.464 3.464 3.464s3.464-1.551 3.464-3.464c0-1.915-1.549-3.464-3.464-3.464zm0-4.618c1.913 0 3.464-1.551 3.464-3.464 0-1.915-1.549-3.464-3.464-3.464s-3.464 1.549-3.464 3.464c0 1.913 1.549 3.464 3.464 3.464zm-12.396 0c1.913 0 3.464-1.551 3.464-3.464 0-1.915-1.551-3.464-3.464-3.464s-3.464 1.549-3.464 3.464c0 1.913 1.551 3.464 3.464 3.464zm0 11.546c1.913 0 3.464-1.551 3.464-3.464 0-1.915-1.549-3.464-3.464-3.464s-3.464 1.549-3.464 3.464c0 1.913 1.551 3.464 3.464 3.464zm0 4.618c-1.913 0-3.464 1.549-3.464 3.464 0 1.913 1.551 3.464 3.464 3.464s3.464-1.551 3.464-3.464c0-1.915-1.551-3.464-3.464-3.464zm-12.394 0c-1.915 0-3.464 1.549-3.464 3.464 0 1.913 1.551 3.464 3.464 3.464s3.464-1.551 3.464-3.464c0-1.915-1.551-3.464-3.464-3.464zm0-4.618c1.913 0 3.464-1.551 3.464-3.464 0-1.915-1.551-3.464-3.464-3.464-1.915 0-3.464 1.549-3.464 3.464 0 1.913 1.551 3.464 3.464 3.464zm0-11.546c1.913 0 3.464-1.551 3.464-3.464 0-1.915-1.551-3.464-3.464-3.464-1.915 0-3.464 1.549-3.464 3.464 0 1.913 1.551 3.464 3.464 3.464zm37.184 0c1.913 0 3.464-1.551 3.464-3.464 0-1.915-1.549-3.464-3.464-3.464s-3.464 1.549-3.464 3.464c0 1.913 1.551 3.464 3.464 3.464zm10.74 22.511c0 2.874-2.337 5.211-5.211 5.211h-48.243c-2.874 0-5.213-2.337-5.213-5.211v-34.105h58.667v34.105zm-5.211-48.318h-4.902v-3.451c0-.936-.635-1.82-1.561-1.953-1.129-.161-2.098.713-2.098 1.812v3.592h-31.198v-3.451c0-.936-.635-1.82-1.561-1.953-1.129-.161-2.098.713-2.098 1.812v3.592h-4.824c-4.345 0-7.881 3.536-7.881 7.884v40.435c0 4.342 3.536 7.879 7.881 7.879h48.243c4.345 0 7.879-3.536 7.879-7.879v-40.435c0-4.347-3.534-7.884-7.879-7.884z"/></svg>