<svg width="64" height="64" viewBox="0 0 64 64" xmlns="http://www.w3.org/2000/svg"><title>05004callconnectF</title><path d="M54.556 61.436c-.011-.06-1.359-5.803-4.247-9.855-2.95-4.13-8.25-8.288-8.305-8.328l-.723-.565c-.5.257-1 .514-1.539.714-1.785.411-4.004.92-7.211-2.108-2.022-1.908-2.893-2.822-3.73-3.701-.328-.343-.671-.697-1.054-1.085l.003-.003-.154-.154-.14-.14h-.003c-.388-.386-.743-.723-1.085-1.054-.874-.84-1.788-1.713-3.695-3.735-3.027-3.216-2.507-5.432-2.145-7.037.243-.66.537-1.271.851-1.859l-.46-.594c-.043-.054-4.201-5.38-8.328-8.339-4.058-2.913-9.815-4.275-9.875-4.289l-.645-.149c-2.19 4.329-2.11 7.828-2.05 9.433.117 3.107 1.531 8.456 5.143 14.139 4.272 6.714 7.508 10.198 11.523 14.228l-.003.006.154.154.143.14c4.032 4.027 7.508 7.268 14.213 11.546 5.672 3.624 11.018 5.049 14.131 5.172 1.082.046 3.01.117 5.503-.525 1.168-.3 2.467-.774 3.853-1.471l-.126-.54zm6.426-17.612c-1.859-2.396-5.789-6.583-8.716-7.057-1.719-.274-3.827.525-5.917 2.319-.671.574-1.468 1.234-2.339 1.882.734.58 5.743 4.606 8.773 8.85 2.819 3.952 4.261 9.076 4.635 10.532 1.094-.751 2.225-1.639 3.387-2.73 1.485-1.388 2.553-2.387 2.896-4.095.694-3.45-.117-6.351-2.719-9.701zm-46.721-32.551c4.098 2.939 7.991 7.736 8.75 8.699.683-.92 1.382-1.759 2.016-2.496 1.682-1.956 2.487-4.064 2.213-5.78-.468-2.922-4.646-6.863-7.04-8.725-3.341-2.607-6.243-3.424-9.696-2.742-1.696.357-2.702 1.399-4.278 3.076-1.057 1.125-1.882 2.21-2.616 3.278 1.111.274 6.508 1.719 10.649 4.689z"/></svg>