<svg width="64" height="64" viewBox="0 0 64 64" xmlns="http://www.w3.org/2000/svg"><title>05004callconnectC</title><path d="M51.539 45.256c-.212 1.052-.869 1.668-1.782 2.522-.684.641-1.348 1.164-1.993 1.612-.431-1.475-1.392-4.29-3.022-6.575-1.585-2.222-3.945-4.346-5.192-5.399.477-.363.931-.73 1.305-1.052 1.286-1.103 2.584-1.595 3.644-1.427 1.803.292 4.221 2.871 5.366 4.346 1.601 2.062 2.101 3.85 1.674 5.974zm-7.926 6.111c-1.533.394-2.721.351-3.387.324-1.917-.077-5.208-.954-8.701-3.186-4.13-2.634-6.268-4.63-8.751-7.11l-.089-.085-.093-.095v-.002c-2.472-2.483-4.464-4.628-7.096-8.762-2.224-3.501-3.095-6.793-3.167-8.708-.037-.987-.085-3.138 1.261-5.802.94.245 4.051 1.143 6.463 2.873 2.414 1.732 4.748 4.528 5.422 5.366-.191.361-.369.732-.516 1.133-.224.987-.543 2.352 1.319 4.333 1.176 1.247 1.736 1.784 2.275 2.3l.668.649h.002l.087.085.093.095v.002l.647.67c.516.539 1.054 1.101 2.298 2.278 1.975 1.865 3.342 1.549 4.439 1.298.328-.122.631-.276.931-.431.892.724 3.626 3.033 5.335 5.428 1.68 2.354 2.582 5.403 2.865 6.472-.826.409-1.603.695-2.304.875zm-27.465-37.035c.971-1.033 1.589-1.676 2.634-1.894 2.126-.421 3.912.083 5.97 1.688 1.475 1.147 4.047 3.572 4.335 5.372.168 1.058-.326 2.354-1.363 3.559-.332.386-.697.838-1.058 1.309-1.074-1.288-3.165-3.632-5.408-5.24-2.292-1.645-5.105-2.603-6.54-3.024.409-.577.859-1.164 1.429-1.771zm38.479-4.959c-12.497-12.495-32.758-12.495-45.256 0-12.495 12.497-12.495 32.758 0 45.256 12.497 12.497 32.758 12.497 45.256 0 12.497-12.497 12.497-32.758 0-45.256z"/></svg>