<svg width="64" height="64" viewBox="0 0 64 64" xmlns="http://www.w3.org/2000/svg"><title>05004callconnectL</title><path d="M60.728 52.926c-.143.725-.683 1.251-2.182 2.656-.748.7-1.482 1.308-2.196 1.842-.568-1.833-1.793-5.243-3.818-7.993-1.879-2.556-4.604-4.995-6.263-6.374.808-.625 1.559-1.242 2.188-1.779 1.594-1.365 2.841-1.585 3.33-1.514 1.219.197 4.241 2.624 6.8 5.92 2.059 2.65 2.659 4.681 2.142 7.242m-15.278 8.016c-2.587-.106-7.448-1.396-12.617-4.698-6.525-4.169-9.884-7.322-13.839-11.28-3.952-3.961-7.099-7.325-11.26-13.865-3.296-5.18-4.578-10.038-4.675-12.625-.051-1.374-.123-4.384 1.902-8.216 1.188.334 4.998 1.511 7.819 3.593 2.676 1.973 5.329 5.138 6.397 6.471-.568.968-1.108 2.005-1.545 3.196-.454 1.95-1.305 5.583 2.839 9.984 1.962 2.082 2.901 2.984 3.801 3.847.377.36.754.72 1.185 1.151.434.44.797.814 1.154 1.188.865.905 1.762 1.848 3.844 3.815 4.049 3.827 7.274 3.481 10.158 2.802 1.111-.406 2.099-.925 3.03-1.476 1.339 1.077 4.481 3.73 6.448 6.4 2.09 2.844 3.261 6.697 3.584 7.853-3.804 1.993-6.842 1.916-8.225 1.862m-36.817-55.756c1.222-1.302 1.739-1.776 2.467-1.979 2.564-.508 4.592.094 7.239 2.156 3.293 2.564 5.712 5.597 5.906 6.811.08.488-.154 1.736-1.628 3.455-.491.571-1.074 1.282-1.673 2.059-1.376-1.662-3.81-4.395-6.363-6.28-2.733-2.016-6.12-3.247-7.959-3.821.58-.78 1.234-1.579 2.01-2.402m52.352 38.639c-1.859-2.396-5.789-6.583-8.716-7.059-1.719-.271-3.827.528-5.917 2.319-1.625 1.391-3.852 3.296-6.605 4.318-1.782.408-4.001.92-7.211-2.108-2.019-1.908-2.893-2.822-3.73-3.701-.326-.343-.668-.697-1.051-1.085v-.003l-.154-.154-.14-.143-.003.003c-.388-.386-.74-.725-1.085-1.054-.874-.84-1.785-1.713-3.695-3.738-3.024-3.216-2.505-5.432-2.142-7.034 1.077-2.933 2.987-5.158 4.492-6.911 1.685-1.956 2.49-4.061 2.213-5.777-.465-2.924-4.643-6.862-7.039-8.727-3.341-2.604-6.24-3.424-9.695-2.739-1.696.354-2.699 1.396-4.275 3.076-6.52 6.925-6.291 12.997-6.206 15.281.117 3.107 1.531 8.456 5.146 14.139 4.272 6.714 7.505 10.198 11.52 14.227v.003l.154.157.143.14c4.032 4.027 7.508 7.268 14.21 11.546 5.674 3.624 11.02 5.049 14.13 5.172 1.082.046 3.013.117 5.503-.525 2.767-.714 6.226-2.31 9.975-5.826 1.485-1.388 2.553-2.39 2.896-4.098.694-3.45-.117-6.351-2.719-9.698"/></svg>