<svg width="64" height="64" viewBox="0 0 64 64" xmlns="http://www.w3.org/2000/svg"><title>05004callconnectS</title><path d="M61.213 44.8c-2.361-3.093-6.02-6.616-8.475-7.054-1.607-.277-3.609.445-5.664 2.098-1.734 1.398-4.11 3.311-7.129 4.335-1.869.391-4.432.93-7.895-2.399-2.059-1.976-8.031-8.057-9.971-10.146-3.236-3.496-2.6-5.968-2.172-7.652 1.199-3.011 3.242-5.249 4.862-7.026 1.668-1.829 2.49-3.785 2.258-5.363-.348-2.43-3.807-6.151-6.874-8.584-3.289-2.602-6.023-3.425-9.457-2.819-1.584.273-2.535 1.23-3.975 2.679l-.179.18c-6.69 6.691-6.577 12.647-6.534 14.888.059 3.062 1.387 8.366 4.938 14.068 4.291 6.886 7.609 10.471 11.502 14.446l.301.305c3.904 3.96 7.436 7.347 14.299 11.815 5.67 3.686 11.028 5.194 14.151 5.378.394.019.9.051 1.504.051 2.9 0 8.063-.661 13.932-5.839l.199-.176c1.533-1.352 2.545-2.242 2.891-3.788.746-3.3-.004-6.113-2.512-9.397"/></svg>