<svg width="64" height="64" viewBox="0 0 64 64" xmlns="http://www.w3.org/2000/svg"><title>05033calulatorL</title><path d="M12.943 2.61c-1.837 0-3.332 1.493-3.332 3.33v52.117c0 1.837 1.495 3.332 3.332 3.332h37.384c1.837 0 3.33-1.495 3.33-3.332v-52.117c0-1.837-1.493-3.33-3.33-3.33h-37.384zm7.396 43.574c-1.871 0-3.389 1.52-3.389 3.389 0 1.869 1.518 3.389 3.389 3.389 1.874 0 3.389-1.515 3.389-3.389 0-1.874-1.515-3.389-3.389-3.389zm11.296 0c-1.871 0-3.389 1.52-3.389 3.389 0 1.869 1.518 3.389 3.389 3.389 1.874 0 3.389-1.515 3.389-3.389 0-1.874-1.515-3.389-3.389-3.389zm11.296 0c-1.871 0-3.389 1.515-3.389 3.389 0 1.871 1.518 3.389 3.389 3.389 1.874 0 3.389-1.515 3.389-3.389 0-1.874-1.515-3.389-3.389-3.389zm0-12.126c-1.871 0-3.389 1.518-3.389 3.389 0 1.871 1.518 3.389 3.389 3.389 1.874 0 3.389-1.518 3.389-3.389 0-1.871-1.515-3.389-3.389-3.389zm-11.298 6.775c1.874 0 3.391-1.515 3.391-3.389 0-1.874-1.518-3.389-3.391-3.389-1.871 0-3.389 1.518-3.389 3.389 0 1.871 1.518 3.389 3.389 3.389zm-11.293-6.775c-1.871 0-3.389 1.518-3.389 3.389 0 1.871 1.518 3.389 3.389 3.389 1.874 0 3.389-1.518 3.389-3.389 0-1.871-1.515-3.389-3.389-3.389zm0-12.126c-1.871 0-3.389 1.518-3.389 3.389 0 1.871 1.518 3.389 3.389 3.389 1.874 0 3.389-1.518 3.389-3.389 0-1.874-1.515-3.389-3.389-3.389zm11.293 6.775c1.874 0 3.391-1.518 3.391-3.389 0-1.874-1.518-3.389-3.391-3.389-1.871 0-3.389 1.518-3.389 3.389 0 1.871 1.518 3.389 3.389 3.389zm11.298-6.775c-1.871 0-3.389 1.518-3.389 3.389 0 1.871 1.518 3.389 3.389 3.389 1.874 0 3.389-1.518 3.389-3.389 0-1.874-1.515-3.389-3.389-3.389zm0-12.126h-22.591c-1.871 0-3.389 1.518-3.389 3.389 0 1.871 1.518 3.389 3.389 3.389h22.591c1.874 0 3.389-1.518 3.389-3.389 0-1.874-1.515-3.389-3.389-3.389zm7.396 54.192h-37.384c-3.276 0-5.943-2.667-5.943-5.943v-52.117c0-3.276 2.667-5.94 5.943-5.94h37.384c3.276 0 5.94 2.664 5.94 5.94v52.117c0 3.276-2.664 5.943-5.94 5.943z"/></svg>