<svg width="64" height="64" viewBox="0 0 64 64" xmlns="http://www.w3.org/2000/svg"><title>05033calulatorF</title><path d="M42.93 16.585h-22.591c-1.871 0-3.389-1.518-3.389-3.389 0-1.871 1.518-3.389 3.389-3.389h22.591c1.874 0 3.389 1.515 3.389 3.389 0 1.871-1.515 3.389-3.389 3.389zm0 12.126c-1.871 0-3.389-1.518-3.389-3.389 0-1.871 1.518-3.389 3.389-3.389 1.874 0 3.389 1.515 3.389 3.389 0 1.871-1.515 3.389-3.389 3.389zm0 12.126c-1.871 0-3.389-1.518-3.389-3.389 0-1.871 1.518-3.389 3.389-3.389 1.874 0 3.389 1.518 3.389 3.389 0 1.871-1.515 3.389-3.389 3.389zm0 12.126c-1.871 0-3.389-1.518-3.389-3.389 0-1.874 1.518-3.389 3.389-3.389 1.874 0 3.389 1.515 3.389 3.389 0 1.874-1.515 3.389-3.389 3.389zm-11.296 0c-1.871 0-3.389-1.52-3.389-3.389 0-1.869 1.518-3.389 3.389-3.389 1.874 0 3.389 1.515 3.389 3.389 0 1.874-1.515 3.389-3.389 3.389zm-3.391-27.643c0-1.871 1.518-3.389 3.389-3.389 1.874 0 3.391 1.515 3.391 3.389 0 1.871-1.518 3.389-3.391 3.389-1.871 0-3.389-1.518-3.389-3.389zm3.389 8.737c1.874 0 3.391 1.515 3.391 3.389 0 1.874-1.518 3.389-3.391 3.389-1.871 0-3.389-1.518-3.389-3.389 0-1.871 1.518-3.389 3.389-3.389zm-11.293-5.346c-1.871 0-3.389-1.518-3.389-3.389 0-1.871 1.518-3.389 3.389-3.389 1.874 0 3.389 1.515 3.389 3.389 0 1.871-1.515 3.389-3.389 3.389zm0 12.126c-1.871 0-3.389-1.518-3.389-3.389 0-1.871 1.518-3.389 3.389-3.389 1.874 0 3.389 1.518 3.389 3.389 0 1.871-1.515 3.389-3.389 3.389zm0 12.126c-1.871 0-3.389-1.52-3.389-3.389 0-1.869 1.518-3.389 3.389-3.389 1.874 0 3.389 1.515 3.389 3.389 0 1.874-1.515 3.389-3.389 3.389zm29.988-52.962h-37.384c-3.276 0-5.943 2.664-5.943 5.94v52.117c0 3.276 2.667 5.943 5.943 5.943h37.384c3.276 0 5.94-2.667 5.94-5.943v-52.117c0-3.276-2.664-5.94-5.94-5.94z"/></svg>