<svg width="64" height="64" viewBox="0 0 64 64" xmlns="http://www.w3.org/2000/svg"><title>05033calulatorC</title><path d="M39.15 25.626c-1.184 0-2.145.961-2.145 2.147 0 1.184.961 2.145 2.145 2.145 1.188 0 2.147-.961 2.147-2.145 0-1.186-.959-2.147-2.147-2.147zm0 7.677c-1.184 0-2.145.961-2.145 2.147 0 1.184.961 2.145 2.145 2.145 1.188 0 2.147-.961 2.147-2.145 0-1.186-.959-2.147-2.147-2.147zm0 7.677c-1.184 0-2.145.959-2.145 2.145s.961 2.147 2.145 2.147c1.188 0 2.147-.961 2.147-2.147s-.959-2.145-2.147-2.145zm-14.302 0c-1.184 0-2.145.963-2.145 2.147 0 1.182.961 2.145 2.145 2.145 1.188 0 2.147-.959 2.147-2.145s-.959-2.147-2.147-2.147zm0-7.677c-1.184 0-2.145.961-2.145 2.145 0 1.186.961 2.147 2.145 2.147 1.188 0 2.147-.961 2.147-2.147 0-1.184-.959-2.145-2.147-2.145zm0-7.677c-1.184 0-2.145.961-2.145 2.147 0 1.184.961 2.145 2.145 2.145 1.188 0 2.147-.961 2.147-2.145 0-1.186-.959-2.147-2.147-2.147zm7.152 15.354c-1.184 0-2.145.963-2.145 2.147 0 1.182.961 2.145 2.145 2.145 1.186 0 2.145-.959 2.145-2.145s-.959-2.147-2.145-2.147zm0-11.063c1.186 0 2.145-.961 2.145-2.145 0-1.188-.959-2.147-2.145-2.147s-2.147.961-2.147 2.147c0 1.184.961 2.145 2.147 2.145zm0 7.677c1.186 0 2.145-.961 2.145-2.147s-.959-2.145-2.145-2.145-2.147.961-2.147 2.145c0 1.186.961 2.147 2.147 2.147zm15.594 10.903c0 2.072-1.688 3.762-3.762 3.762h-23.664c-2.074 0-3.762-1.69-3.762-3.762v-32.995c0-2.072 1.688-3.76 3.762-3.76h23.664c2.074 0 3.762 1.688 3.762 3.76v32.995zm-8.444-30.546h-14.302c-1.184 0-2.145.961-2.145 2.145 0 1.186.961 2.147 2.145 2.147h14.302c1.188 0 2.147-.961 2.147-2.147s-.959-2.145-2.147-2.145zm-7.15-17.951c-17.673 0-32 14.327-32 32 0 17.675 14.327 32 32 32 17.673 0 32-14.325 32-32 0-17.673-14.327-32-32-32z"/></svg>