<svg width="64" height="64" viewBox="0 0 64 64" xmlns="http://www.w3.org/2000/svg"><title>05028carouselC</title><path d="M41.743 32.636l-13.948 13.948c-.493.493-.868.495-1.359.002l-.755-.755c-.491-.491-.491-.866.002-1.359l11.836-11.836c.491-.491.491-1.286 0-1.779l-11.947-11.947c-.491-.491-.491-.866 0-1.357l.753-.755c.493-.491.866-.491 1.359 0l14.059 14.059c.491.493.491 1.289 0 1.779zm-9.741-32.636c-17.647 0-32.002 14.355-32.002 32s14.355 32 32.002 32c17.647 0 32-14.355 32-32s-14.353-32-32-32z"/></svg>