<svg width="64" height="64" viewBox="0 0 64 64" xmlns="http://www.w3.org/2000/svg"><title>06031cartC</title><path d="M51.765 22.682l-4.663 13.963c-.171.514-.629.896-1.167.973l-20.497 2.793c-.215.03-.401.087-.565.177-.201.115-.341.258-.452.463-.105.196-.166.446-.166.695 0 .188.034.375.094.544.049.128.109.243.181.343.113.156.243.267.403.348.196.098.422.147.691.149h20.115c.794 0 1.44.644 1.44 1.44 0 .794-.646 1.438-1.44 1.438h-.591c-.021 1.545-1.286 2.793-2.837 2.793-1.549 0-2.812-1.248-2.835-2.793h-8.915c-.021 1.545-1.284 2.793-2.835 2.793-1.564 0-2.835-1.271-2.835-2.835l-.019-.017c-.329-.047-.702-.154-1.043-.305-.395-.175-.757-.412-1.082-.704-.448-.41-.796-.909-1.033-1.487-.224-.538-.335-1.114-.335-1.709 0-.48.073-.947.218-1.387.239-.721.663-1.355 1.227-1.833.175-.151.38-.297.61-.427l-5.681-17.03c-.292-.87-.845-1.619-1.596-2.161-.749-.542-1.632-.828-2.556-.828-.794 0-1.44-.646-1.44-1.44 0-.794.646-1.44 1.44-1.44 1.527 0 2.995.474 4.241 1.37 1.244.896 2.155 2.138 2.639 3.59l.209.627h29.711c.461 0 .898.224 1.167.597.271.375.343.86.198 1.299zm-19.765-22.682c-17.673 0-32 14.327-32 32 0 17.673 14.327 32 32 32 17.673 0 32-14.327 32-32 0-17.673-14.327-32-32-32z"/></svg>