<svg width="64" height="64" viewBox="0 0 64 64" xmlns="http://www.w3.org/2000/svg"><title>06031cartL</title><path d="M12.564 16.043h48.469l-7.078 21.211-32.821 4.474-8.569-25.685zm42.322 35.244h-33.967c-.644-.002-1.2-.125-1.697-.376-.45-.231-.808-.54-1.107-.951-.19-.255-.346-.551-.463-.875-.149-.408-.229-.867-.229-1.325-.002-.605.147-1.225.421-1.738.298-.545.7-.953 1.23-1.254.406-.227.854-.37 1.372-.441l34.604-4.716c.465-.063.862-.391 1.011-.839l7.874-23.58c.125-.376.061-.795-.173-1.12-.231-.322-.609-.514-1.007-.514h-51.024c-.737-2.211-2.131-4.102-4.029-5.468-1.898-1.368-4.135-2.092-6.462-2.092-.685 0-1.243.558-1.243 1.243s.558 1.243 1.243 1.243c1.807 0 3.54.56 5.012 1.621 1.47 1.061 2.55 2.527 3.121 4.24l9.283 27.814-.804.452c-.339.19-.64.398-.893.614-.789.67-1.379 1.556-1.707 2.563-.21.631-.316 1.292-.316 1.969 0 .841.16 1.66.478 2.436.337.81.826 1.511 1.45 2.081.441.404.944.733 1.502.979.478.212.996.363 1.498.434l1.005.084c0 1.984 1.614 3.601 3.601 3.601 1.986 0 3.601-1.617 3.601-3.603l17.429.002c0 1.984 1.614 3.599 3.599 3.599 1.986 0 3.601-1.614 3.601-3.601h2.185c.685 0 1.243-.555 1.243-1.241 0-.685-.558-1.243-1.243-1.243z"/></svg>