<svg width="64" height="64" viewBox="0 0 64 64" xmlns="http://www.w3.org/2000/svg"><title>05006chatL</title><path d="M2.707 45.108c0 2.294 1.867 4.161 4.164 4.161h26.483c.282 0 .553.086.785.249l13.506 9.604-1.057-8.327c-.049-.388.069-.775.328-1.067.257-.291.627-.459 1.015-.459h9.199c2.297 0 4.164-1.867 4.164-4.161v-37.235c0-2.297-1.867-4.164-4.164-4.164h-50.26c-2.297 0-4.164 1.867-4.164 4.164v37.235zm4.164-44.108h50.26c3.788 0 6.87 3.084 6.87 6.873v37.235c0 3.788-3.082 6.87-6.87 6.87h-7.663l1.252 9.863c.069.533-.185 1.057-.647 1.331-.457.277-1.045.254-1.479-.057l-15.672-11.138h-26.051c-3.788 0-6.87-3.082-6.87-6.87v-37.235c0-3.788 3.082-6.873 6.87-6.873z"/></svg>