<svg width="64" height="64" viewBox="0 0 64 64" xmlns="http://www.w3.org/2000/svg"><title>06003checklistC</title><path d="M47.722 47.435c0 2.402-1.947 4.355-4.34 4.355h-22.842c-2.393 0-4.34-1.953-4.34-4.355v-32.525c0-2.4 1.947-4.353 4.34-4.353h22.842c2.393 0 4.34 1.953 4.34 4.353v32.525zm-17.9-10.684h-7.692c-.493 0-.891.4-.891.891 0 .493.397.891.891.891h7.692c.491 0 .891-.397.891-.891 0-.491-.4-.891-.891-.891zm12.704 1.005c-.259-.259-.682-.261-.946-.006l-5.579 5.409-2.021-2.009c-.125-.123-.295-.193-.474-.196-.162.009-.346.068-.474.191l-1.826 1.773c-.261.255-.266.672-.004.929l4.289 4.259c.132.13.304.193.476.193.17 0 .34-.062.47-.187l7.889-7.634c.125-.125.198-.291.2-.465 0-.174-.068-.342-.193-.468l-1.807-1.79zm-20.395-4.368h19.662c.491 0 .888-.397.888-.888 0-.493-.397-.891-.888-.891h-19.662c-.491 0-.891.397-.891.891 0 .491.4.888.891.888zm0-5.141h19.662c.491 0 .888-.4.888-.891 0-.493-.397-.891-.888-.891h-19.662c-.491 0-.891.397-.891.891 0 .491.4.891.891.891zm0-10.289h19.662c.491 0 .888-.397.888-.888 0-.493-.397-.891-.888-.891h-19.662c-.491 0-.891.397-.891.891 0 .491.4.888.891.888zm0 5.146h19.662c.491 0 .888-.4.888-.891 0-.493-.397-.891-.888-.891h-19.662c-.491 0-.891.397-.891.891 0 .491.4.891.891.891zm9.87-23.103c-17.673 0-32 14.327-32 32 0 17.673 14.327 32 32 32 17.673 0 32-14.327 32-32 0-17.673-14.327-32-32-32z"/></svg>