<svg width="64" height="64" viewBox="0 0 64 64" xmlns="http://www.w3.org/2000/svg"><title>06003checklistS</title><path d="M48 16h-32c-1.105 0-2-.895-2-2s.895-2 2-2h32c1.105 0 2 .895 2 2s-.895 2-2 2m0 12h-32c-1.105 0-2-.895-2-2s.895-2 2-2h32c1.105 0 2 .895 2 2s-.895 2-2 2m1.137 16.28l-11.992 11.825c-.211.211-.486.313-.76.313-.279 0-.559-.108-.77-.32l-6.521-6.595c-.421-.426-.417-1.111.008-1.532l2.773-2.745c.203-.2.477-.313.763-.313h.004c.288.003.562.118.764.32l3.031 3.067 8.434-8.332c.424-.418 1.109-.415 1.531.008l2.744 2.772c.202.205.314.481.312.767-.001.289-.118.565-.321.765m-22.137-4.28h-11c-1.105 0-2-.895-2-2s.895-2 2-2h11c1.105 0 2 .895 2 2s-.895 2-2 2m22-40h-34c-3.85 0-7 3.15-7 7v50c0 3.85 3.15 7 7 7h34c3.85 0 7-3.15 7-7v-50c0-3.85-3.15-7-7-7" fill="#000"/></svg>