<svg width="64" height="64" viewBox="0 0 64 64" xmlns="http://www.w3.org/2000/svg"><title>06003checklistF</title><path d="M51.656 46.441l-12.244 11.849c-.201.196-.465.293-.728.293-.269 0-.537-.099-.741-.301l-6.658-6.609c-.403-.403-.4-1.047.008-1.445l2.833-2.75c.196-.191.486-.282.736-.295.277.003.54.11.733.303l3.14 3.118 8.659-8.395c.408-.397 1.066-.395 1.469.008l2.804 2.78c.193.193.301.451.301.722-.003.271-.115.532-.312.722zm-22.511-3.021h-11.941c-.763 0-1.38-.618-1.38-1.38 0-.763.618-1.383 1.38-1.383h11.941c.763 0 1.383.62 1.383 1.383s-.62 1.38-1.383 1.38zm-11.941-10.745h30.52c.763 0 1.38.618 1.38 1.383 0 .763-.618 1.38-1.38 1.38h-30.52c-.763 0-1.38-.618-1.38-1.38 0-.765.618-1.383 1.38-1.383zm0-7.982h30.52c.763 0 1.38.618 1.38 1.383 0 .763-.618 1.38-1.38 1.38h-30.52c-.763 0-1.38-.618-1.38-1.38 0-.765.618-1.383 1.38-1.383zm0-7.985h30.52c.763 0 1.38.62 1.38 1.383s-.618 1.38-1.38 1.38h-30.52c-.763 0-1.38-.618-1.38-1.38 0-.763.618-1.383 1.38-1.383zm0-7.985h30.52c.763 0 1.38.62 1.38 1.383s-.618 1.38-1.38 1.38h-30.52c-.763 0-1.38-.618-1.38-1.38 0-.763.618-1.383 1.38-1.383zm32.988-8.723h-35.456c-3.714 0-6.736 3.029-6.736 6.755v50.486c0 3.728 3.021 6.76 6.736 6.76h35.456c3.714 0 6.736-3.032 6.736-6.76v-50.486c0-3.725-3.021-6.755-6.736-6.755z"/></svg>