<svg width="64" height="64" viewBox="0 0 64 64" xmlns="http://www.w3.org/2000/svg"><title>06003checklistL</title><path d="M53.912 57.474c0 2.11-1.706 3.827-3.806 3.827h-36.549c-2.1 0-3.806-1.717-3.806-3.827v-50.952c0-2.11 1.706-3.824 3.806-3.824h36.549c2.1 0 3.806 1.714 3.806 3.824v50.952zm-37.969-15.804h13.971c.759 0 1.379.62 1.379 1.379 0 .762-.62 1.382-1.379 1.382h-13.971c-.759 0-1.379-.62-1.379-1.382 0-.759.62-1.379 1.379-1.379zm33.211-6.779c0 .759-.618 1.379-1.379 1.379h-31.831c-.759 0-1.379-.62-1.379-1.379 0-.762.62-1.379 1.379-1.379h31.831c.762 0 1.379.618 1.379 1.379zm0-24.487c0 .759-.618 1.379-1.379 1.379h-31.831c-.759 0-1.379-.62-1.379-1.379 0-.762.62-1.379 1.379-1.379h31.831c.762 0 1.379.618 1.379 1.379zm0 8.158c0 .762-.618 1.382-1.379 1.382h-31.831c-.759 0-1.379-.62-1.379-1.382 0-.759.62-1.379 1.379-1.379h31.831c.762 0 1.379.62 1.379 1.379zm-.52 23.334c-.389-.386-1.019-.389-1.41-.008l-8.294 8.045-3.008-2.988c-.185-.185-.437-.288-.703-.291-.242.013-.517.1-.708.283l-2.712 2.635c-.391.381-.396.999-.008 1.385l6.38 6.333c.193.193.45.291.708.291.252 0 .507-.095.697-.281l11.733-11.357c.19-.183.296-.432.299-.692.003-.257-.1-.507-.288-.692l-2.684-2.664zm.52-15.173c0 .762-.618 1.379-1.379 1.379h-31.831c-.759 0-1.379-.618-1.379-1.379 0-.762.62-1.379 1.379-1.379h31.831c.762 0 1.379.618 1.379 1.379zm1.029-26.723h-36.7c-3.575 0-6.483 2.905-6.483 6.483v51.03c0 3.577 2.908 6.488 6.483 6.488h36.7c3.572 0 6.48-2.911 6.48-6.488v-51.03c0-3.577-2.908-6.483-6.48-6.483z"/></svg>