<svg width="64" height="64" viewBox="0 0 64 64" xmlns="http://www.w3.org/2000/svg"><title>check-outline</title><path d="M32 0c-17.6 0-32 14.4-32 32s14.4 32 32 32 32-14.4 32-32-14.4-32-32-32zm0 60.16c-15.36 0-28.16-12.48-28.16-28.16s12.8-27.84 28.16-27.84 28.16 12.48 28.16 28.16-12.8 27.84-28.16 27.84zm17.28-38.72l-1.92-1.92c-.64-.64-1.6-.64-2.24 0l-20.16 20.8-7.68-8c-.64-.64-1.6-.64-2.24 0l-1.92 1.92c-.32 0-.32.32-.32.96 0 .32 0 .64.32.96l10.56 11.2c.64.32.96.32 1.28.32.32 0 .64 0 .96-.32l23.04-24c.96-.32.96-1.6.32-1.92z" fill="#000"/></svg>