<svg width="64" height="64" viewBox="0 0 64 64" xmlns="http://www.w3.org/2000/svg"><title>04009claimfreeC</title><path d="M51.073 45.107l-2.407 5.159-2.928-8.049-2.928 8.049-2.405-5.159-5.157 2.411 3.06-8.414-.375-.466c-.684-.845-1.203-1.778-1.572-2.765-.288-.773-.456-1.587-.54-2.422-.034-.337-.085-.67-.085-1.013 0-.583.074-1.148.172-1.706.091-.513.237-1.002.403-1.487.93-2.704 2.964-4.888 5.596-5.964 1.153-.47 2.409-.739 3.727-.739 5.46 0 9.899 4.439 9.899 9.897 0 2.195-.716 4.278-2.068 6.03l-.358.462 3.125 8.587-5.157-2.411zm-22.951-1.341v1.964h-5.367v-1.964h5.367v-10.314h-5.367v10.314h-12.109v-13.033h23.105c-.081.559-.136 1.125-.136 1.706 0 .341.051.676.081 1.013h-2.706v5.371h4.513c.14.22.254.456.409.667l-1.555 4.276h-6.236zm-21.557-14.52c-.225 0-.364-.114-.252-.367l.006-.038 4.909-11.049c.127-.22.369-.352.53-.352h7.409l-1.1 1.062c-.352.337-.551.809-.551 1.297v6.291c0 .411.333.744.742.744.411 0 .744-.333.744-.744v-6.291c0-.083.036-.167.1-.227l6.053-5.841c.125-.119.316-.119.439 0l6.055 5.841c.061.059.095.142.095.227v6.291c.002.411.335.744.744.744.411 0 .744-.333.744-.744v-6.291c0-.485-.199-.958-.549-1.297l-1.1-1.062h7.35c.161 0 .403.131.494.282l1.612 3.617c-3.39 1.407-5.99 4.324-6.981 7.907h-27.493zm16.188-4.278h5.371v-5.371h-5.371v5.371zm-8.238 13.855h5.371v-5.371h-5.371v5.371zm31.852-2.932v-2.377c.797.193 1.356.498 1.356 1.201 0 .625-.411 1.093-1.356 1.176zm-.881-4.617c-.826-.22-1.314-.483-1.314-1.121 0-.691.576-1.021 1.314-1.049v2.17zm.617.261v-2.396c.756.14 1.348.511 1.877 1.134l1.375-1.091c-.754-.996-2.026-1.578-3.252-1.72v-.767h-.907v.71c-.485.019-.939.104-1.345.246-.869.299-1.523.858-1.852 1.598-.153.341-.239.716-.239 1.125 0 2.074 2.104 2.757 3.437 3.04v2.657c-1.032-.114-1.907-.712-2.437-1.564l-1.468 1.136c.697 1.049 2.104 1.973 3.905 2.102v.723h.907v-.737c2.195-.184 3.449-1.462 3.449-3.093 0-1.934-1.799-2.672-3.449-3.1zm-14.103-31.534c-17.673 0-32 14.327-32 32 0 17.673 14.327 32 32 32 17.673 0 32-14.327 32-32 0-17.673-14.327-32-32-32z"/></svg>