<svg width="64" height="64" viewBox="0 0 64 64" xmlns="http://www.w3.org/2000/svg"><title>02028claimrategrdF</title><path d="M27.054 41.205c0-2.413 1.953-4.369 4.369-4.369 2.41 0 4.366 1.956 4.366 4.369 0 1.258-.54 2.382-1.389 3.181l1.558 11.194h-9.074l1.555-11.194c-.849-.801-1.386-1.923-1.386-3.181zm-4.402-24.345c0-4.886 3.974-8.86 8.86-8.86 4.886 0 8.86 3.974 8.86 8.86v5.866l7.608 5.938v-11.05c0-9.213-7.494-16.707-16.707-16.707-9.213 0-16.707 7.494-16.707 16.707v11.044l8.086-5.935v-5.863zm32.59 20.402l-23.143-17.308c-.387-.287-.96-.287-1.344 0l-23.307 17.433c-.384.287-.543.787-.392 1.244.153.454.579.76 1.057.76h5.546v21.145c0 1.909 1.555 3.464 3.467 3.464h28.602c1.912 0 3.467-1.555 3.467-3.464v-21.145h5.568c.682-.014 1.135-.49 1.135-1.113 0-.451-.27-.84-.657-1.016z"/></svg>