<svg width="64" height="64" viewBox="0 0 64 64" xmlns="http://www.w3.org/2000/svg"><title>04009claimfreeL</title><path d="M56.538 46.506c-.212-.099-.455-.111-.676-.029-.219.079-.4.243-.499.455l-2.328 4.995-2.682-7.366c3.196-.263 6.078-1.639 8.261-3.743l2.917 8.016-4.992-2.33zm-6.494-11.172v-2.942c.985.239 1.677.617 1.677 1.487 0 .772-.511 1.352-1.677 1.455zm-1.092-5.712c-1.02-.273-1.622-.598-1.622-1.386 0-.855.71-1.263 1.622-1.298v2.684zm1.092.239v-2.888c.91.169 1.622.614 2.261 1.366l1.657-1.315c-.91-1.2-2.441-1.9-3.918-2.072v-.922h-1.092v.855c-2.407.088-4.137 1.506-4.137 3.576 0 2.495 2.534 3.318 4.137 3.658v3.2c-1.241-.137-2.295-.855-2.933-1.881l-1.769 1.367c.84 1.263 2.534 2.375 4.702 2.531v.872h1.092v-.888c2.643-.223 4.156-1.76 4.156-3.728 0-2.327-2.168-3.215-4.156-3.729zm-29.367-7.219h6.009v-6.01h-6.009v6.01zm-9.419 15.886h6.009v-6.01h-6.009v6.01zm37.968 4.324c-6.499 0-11.788-5.289-11.788-11.79 0-6.499 5.289-11.788 11.788-11.788 6.501 0 11.79 5.289 11.79 11.788 0 6.501-5.289 11.79-11.79 11.79zm-3.544 9.075l-2.33-4.995c-.099-.212-.278-.376-.497-.455-.099-.037-.201-.056-.303-.056-.128 0-.255.029-.374.084l-4.99 2.33 2.849-7.839c2.217 2.055 5.117 3.373 8.32 3.579l-2.674 7.352zm-18.459-8.332v-11.586h-7.03v11.586h-12.57v-14.248h28.17c-.072.563-.121 1.133-.121 1.715 0 .492.035.978.088 1.457h-5.609v6.009h6.007v-3.884c.501 1.817 1.369 3.485 2.522 4.913l-1.468 4.039h-9.987zm-5.282 0h3.532v-9.839h-3.532v9.839zm-19.873-15.994c-.347 0-.4-.253-.293-.491l5.661-12.612c.14-.244.41-.393.587-.393h8.443l-1.222 1.182c-.406.391-.639.939-.639 1.502v7.214c0 .48.391.872.875.872.48 0 .873-.391.873-.872v-7.214c0-.091.039-.182.105-.244l6.941-6.7c.133-.128.342-.13.474 0l6.943 6.698c.067.064.105.155.105.246v7.214c0 .48.393.872.873.872.484 0 .877-.391.877-.872v-7.214c0-.563-.234-1.111-.639-1.502l-1.224-1.182h8.376c.179 0 .448.148.55.31l2.305 5.179c-2.869 1.806-5.011 4.65-5.899 8.006h-34.069zm61.783 22.444l-3.903-10.722c1.77-2.289 2.834-5.149 2.834-8.261 0-7.474-6.081-13.555-13.556-13.555-2.02 0-3.93.457-5.655 1.253l-2.284-5.137c-.445-.769-1.273-1.264-2.106-1.264h-10.186l-3.908-3.77c-.816-.789-2.089-.784-2.905-.002l-3.905 3.771h-10.255c-.833 0-1.659.496-2.143 1.347l-5.771 12.985c-.231.578-.081 1.295.309 1.826.391.528.991.831 1.65.831h3.805v14.248h-3.92c-.482 0-.875.391-.875.873 0 .484.393.873.875.873h18.206v2.058h7.103v-2.058h9.313l-1.78 4.894c-.121.337-.029.711.234.953.263.239.644.297.971.15l6.125-2.861 2.859 6.13c.143.312.459.509.801.509h.037c.357-.017.669-.246.792-.582l2.743-7.543 2.745 7.543c.121.335.435.565.792.582h.037c.342 0 .656-.197.801-.509l2.858-6.13 6.125 2.861c.123.056.201.074.389.083.477.01.895-.393.895-.883 0-.182-.054-.351-.148-.492z"/></svg>