<svg width="64" height="64" viewBox="0 0 64 64" xmlns="http://www.w3.org/2000/svg"><title>02028claimrategrdC</title><path d="M46.755 35.565h-3.722v14.138c0 1.278-1.041 2.318-2.318 2.318h-19.126c-1.278 0-2.318-1.041-2.318-2.318v-14.138h-3.708c-.322 0-.605-.204-.708-.508-.101-.306.004-.64.262-.832l15.585-11.656c.258-.192.64-.192.898 0l15.476 11.574c.26.116.44.376.44.677 0 .417-.303.735-.76.745zm-26.88-14.561c0-6.163 5.013-11.173 11.173-11.173 6.161 0 11.169 5.011 11.169 11.173v7.389l-5.087-3.972v-3.923c0-3.266-2.657-5.923-5.923-5.923s-5.925 2.657-5.925 5.923v3.921l-5.407 3.97v-7.385zm14.191 15.775c0-1.614-1.307-2.923-2.919-2.923-1.614 0-2.921 1.309-2.921 2.923 0 .84.361 1.59.927 2.124l-1.041 7.486h6.068l-1.041-7.486c.568-.533.927-1.284.927-2.124zm-2.769-35.378c-17.284 0-31.298 14.014-31.298 31.3 0 17.284 14.014 31.298 31.298 31.298 17.286 0 31.3-14.014 31.3-31.298 0-17.286-14.014-31.3-31.3-31.3z"/></svg>