<svg width="64" height="64" viewBox="0 0 64 64" xmlns="http://www.w3.org/2000/svg"><title>06040claimsC</title><path d="M47.721 48.261c0 2.401-1.946 4.356-4.339 4.356h-22.845c-2.393 0-4.341-1.954-4.341-4.356v-32.527c0-2.399 1.948-4.351 4.341-4.351h22.843c2.393 0 4.341 1.952 4.341 4.351v32.527zm-5.929-26.115h-19.664c-.492 0-.89.4-.89.892s.398.89.89.89h19.664c.492 0 .89-.398.89-.89 0-.494-.398-.892-.89-.892zm0-5.143h-19.664c-.492 0-.89.398-.89.89s.398.89.89.89h19.664c.492 0 .89-.398.89-.89s-.398-.89-.89-.89zm-11.973 20.573h-7.692c-.494 0-.892.398-.892.89 0 .494.398.892.892.892h7.692c.492 0 .892-.398.89-.892 0-.492-.398-.89-.89-.89zm9.778 8.237v-1.675c.517.185.728.432.728.828 0 .449-.245.732-.728.847zm-1.328-4.569c-.513-.185-.688-.387-.688-.743 0-.494.36-.677.688-.741v1.484zm1.328.347v-1.756c.46.155.854.451 1.216.907l.168.209 1.614-1.367-.136-.192c-.628-.879-1.686-1.509-2.861-1.712v-.766h-1.328v.692c-1.822.168-3.074 1.403-3.074 3.07 0 1.546 1.035 2.589 3.074 3.1v2.02c-.694-.166-1.301-.632-1.699-1.309l-.153-.264-1.722 1.42.121.192c.556.894 1.748 1.893 3.453 2.099v.713h1.328v-.73c1.882-.253 3.085-1.482 3.085-3.181 0-1.969-1.707-2.744-3.085-3.144zm2.195-14.3h-19.664c-.492 0-.89.398-.89.89s.398.89.89.89h19.664c.492 0 .89-.398.89-.89s-.398-.89-.89-.89zm0 5.141h-19.664c-.492 0-.89.398-.89.892 0 .492.398.89.89.89h19.664c.492 0 .89-.398.89-.89 0-.494-.398-.892-.89-.892zm-9.793-32.433c-17.672 0-31.999 14.327-31.999 31.999 0 17.674 14.327 32.001 31.999 32.001 17.674 0 32.001-14.327 32.001-32.001 0-17.672-14.327-31.999-32.001-31.999z"/></svg>