<svg width="64" height="64" viewBox="0 0 64 64" xmlns="http://www.w3.org/2000/svg"><title>04014claimsatguarL</title><path d="M50.694 29.355l-5.583-5.579 2.07-2.072 2.525 2.525c.253.253.612.399.986.399.37 0 .731-.146.984-.399l8.191-8.176 2.07 2.07-11.244 11.232zm1.383 3.792c-1.172-.384-2.463-.704-3.635-.951-.949-.199-1.918-.357-2.838-.486-2.163-1.536-3.589-4.042-3.589-6.89 0-4.679 3.807-8.485 8.485-8.485 1.74 0 3.455.55 4.882 1.556l-4.687 4.682-2.525-2.525c-.253-.253-.612-.397-.986-.397-.372 0-.731.144-.982.397l-2.744 2.743c-.538.543-.538 1.425 0 1.968l6.25 6.25c.265.263.614.407.986.407.37 0 .719-.142.984-.406l7.237-7.231c.045.35.067.697.067 1.039 0 4.136-2.979 7.584-6.904 8.327zm2.178 10.076c-.268.376-1.931.728-3.757.837-.233-2.469-2.287-4.407-4.815-4.407-2.523 0-4.573 1.928-4.815 4.389h-24.594c-.241-2.461-2.292-4.389-4.815-4.389-2.461 0-4.471 1.836-4.795 4.21-3.977-.139-4.35-1.266-4.657-2.184-.23-.691-.158-1.499-.111-1.844l.81-1.155.013-.268.077-1.774c.313.035.659.008 1.065-.127.962-.327 1.323-1.066.805-1.651-.364-.412-1.066-.625-1.785-.61l.005-.37c0-.505.604-.87 1.792-1.086l.488-.087c1.673-.295 3.254-.573 5.202-1.953 3.988-2.823 8.189-4.236 12.843-4.32 6.612-.112 8.828 1.073 10.473 1.943 1.804.956 6.656 4.496 6.706 4.531l.22.161.272.015c.037.002 3.854.226 7.182.924 2.927.614 4.511 1.232 5.289 1.646-.761.173-1.128.716-.83 1.323.319.649 1.284 1.123 2.231 1.148.429 1.859.285 3.955-.5 5.101zm-8.55 4.186c-1.583 0-2.868-1.288-2.868-2.868 0-1.583 1.286-2.87 2.868-2.87 1.583 0 2.868 1.288 2.868 2.87 0 1.581-1.286 2.868-2.868 2.868zm-34.262-.137c-1.514 0-2.746-1.231-2.746-2.746 0-1.514 1.232-2.744 2.746-2.744s2.744 1.231 2.744 2.744c0 1.516-1.231 2.746-2.744 2.746zm24.904-13.356c.411.013.533-.238.27-.555 0 0-3.058-3.671-7.246-4.588-1.006-.221-3.288-.334-3.288-.334-.412-.02-.84.258-.751.714l.635 3.681c.035.394.339.759.751.773l9.628.308zm-22.979-.741l10.047.33c.412.013.781-.329.751-.724l-.635-3.687c-.096-.449-.337-.736-.749-.716 0 0-3.101.149-5.874 1.227-3.157 1.227-3.958 2.867-3.958 2.867-.183.37.007.687.419.702zm50.632-15.05c0-.37-.144-.721-.407-.986l-2.741-2.741c-.253-.253-.612-.397-.984-.397s-.731.144-.986.397l-2.166 2.161c-1.789-1.35-3.982-2.089-6.216-2.089-5.708 0-10.35 4.644-10.35 10.35 0 2.478.883 4.749 2.344 6.531-.541-.049-.974-.08-1.232-.097-.991-.721-4.999-3.606-6.713-4.513-1.821-.966-4.32-2.282-11.37-2.159-5.038.092-9.578 1.616-13.876 4.661-1.611 1.14-2.867 1.361-4.458 1.641l-.496.089c-2.734.498-3.309 1.854-3.309 2.904 0 .763-.114 3.34-.153 4.179l-.731 1.046-.039.186c-.034.161-.315 1.614.139 2.974.79 2.371 2.6 3.328 6.505 3.437.53 2.111 2.426 3.678 4.699 3.678 2.206 0 4.047-1.479 4.642-3.49h24.937c.597 2.012 2.438 3.49 4.644 3.49 2.191 0 4.023-1.462 4.629-3.455 1.782-.07 4.593-.386 5.465-1.656 1.522-2.218 1.422-6.406-.22-9.14-.184-.305-.521-.592-.939-.858 3.653-1.599 6.228-5.212 6.228-9.447 0-.883-.116-1.767-.342-2.627l3.088-3.085c.26-.262.404-.61.407-.984z"/></svg>