<svg width="64" height="64" viewBox="0 0 64 64" xmlns="http://www.w3.org/2000/svg"><title>04014claimsatguarC</title><path d="M51.417 33.187c-.157-.519-.358-1.015-.617-1.447-.426-.712-2.612-1.513-5.532-2.125-1.78-.373-3.695-.587-4.922-.699-.309-.843-.485-1.75-.485-2.699 0-4.352 3.528-7.882 7.882-7.882 4.352 0 7.882 3.53 7.882 7.882 0 3.026-1.706 5.649-4.208 6.971zm-1.134 6.204c-.545.792-2.873 1.004-4.038 1.062-.547 1.642-2.081 2.839-3.903 2.839-1.835 0-3.373-1.208-3.913-2.865h-21.232c-.538 1.657-2.079 2.865-3.911 2.865-1.888 0-3.466-1.282-3.958-3.015-3.454-.093-4.352-1-4.816-2.392-.331-.989-.093-2.119-.093-2.119l.659-.943s.14-3.013.14-3.814c0-.801.612-1.413 2.168-1.695 1.553-.282 2.856-.424 4.519-1.602 2.721-1.924 6.386-3.723 11.35-3.814 5.659-.102 7.674.896 9.276 1.744 1.6.848 5.793 3.907 5.793 3.907s3.295.189 6.214.801c2.92.612 5.106 1.413 5.534 2.125 1.201 2.004 1.341 5.269.212 6.916zm-7.941-2.795c-1.413 0-2.564 1.151-2.564 2.564s1.15 2.562 2.564 2.562c1.413 0 2.562-1.148 2.562-2.562 0-1.413-1.148-2.564-2.562-2.564zm-19.442-10.257s-2.634.127-4.988 1.042c-2.682 1.04-3.365 2.434-3.365 2.434-.155.316.008.583.358.595l8.532.282c.352.013.68-.28.638-.617l-.538-3.129c-.061-.381-.286-.625-.638-.608zm5.598.333c-.854-.186-2.79-.282-2.79-.282-.352-.017-.682.229-.638.606l.538 3.127c.047.343.288.646.638.657l8.179.263c.35.011.453-.201.229-.472 0 0-2.598-3.119-6.155-3.899zm23.203-5.56c-.18-.178-.47-.18-.65-.002l-4.505 4.547-1.689-1.706c-.087-.085-.203-.136-.326-.136s-.239.047-.324.131l-1.178 1.167c-.18.178-.182.468-.004.648l3.172 3.204c.091.091.21.138.328.138.117 0 .231-.044.322-.133l6.015-6.032c.085-.085.136-.201.136-.324.002-.121-.047-.239-.131-.324l-1.165-1.178zm-38.416 15.484c-1.413 0-2.562 1.151-2.562 2.564s1.148 2.562 2.562 2.562c1.413 0 2.564-1.148 2.564-2.562 0-1.413-1.15-2.564-2.564-2.564zm18.715-36.596c-17.673 0-32 14.327-32 32 0 17.673 14.327 32 32 32 17.673 0 32-14.327 32-32 0-17.673-14.327-32-32-32z"/></svg>