<svg width="64" height="64" viewBox="0 0 64 64" xmlns="http://www.w3.org/2000/svg"><title>06040claimsF</title><path d="M47.726 11.484h-30.52c-.764 0-1.383-.616-1.383-1.38 0-.764.619-1.383 1.383-1.383h30.52c.761 0 1.38.619 1.38 1.383s-.619 1.38-1.38 1.38zm0 7.985h-30.52c-.764 0-1.383-.616-1.383-1.38 0-.764.619-1.383 1.383-1.383h30.52c.761 0 1.38.619 1.38 1.383s-.619 1.38-1.38 1.38zm0 7.985h-30.52c-.764 0-1.383-.619-1.383-1.38 0-.764.619-1.383 1.383-1.383h30.52c.761 0 1.38.619 1.38 1.383 0 .761-.619 1.38-1.38 1.38zm0 7.985h-30.52c-.764 0-1.383-.619-1.383-1.383s.619-1.383 1.383-1.383h30.52c.761 0 1.38.619 1.38 1.383s-.619 1.383-1.38 1.383zm-3.408 21.266v1.135h-2.061v-1.108c-2.647-.32-4.495-1.87-5.359-3.261l-.188-.296 2.674-2.203.239.409c.613 1.052 1.558 1.773 2.634 2.034v-3.137c-3.164-.794-4.77-2.41-4.77-4.81 0-2.591 1.942-4.503 4.77-4.767v-1.073h2.063v1.189c1.824.315 3.465 1.291 4.439 2.658l.215.299-2.507 2.123-.258-.326c-.565-.71-1.173-1.165-1.891-1.407v2.722c2.139.624 4.789 1.829 4.789 4.885 0 2.634-1.867 4.541-4.789 4.934zm-15.173-13.284h-11.942c-.764 0-1.383-.619-1.383-1.383s.619-1.38 1.383-1.38h11.942c.761 0 1.38.616 1.38 1.38.003.764-.619 1.383-1.38 1.383zm15.173 7.42v2.601c.751-.178 1.13-.619 1.13-1.316 0-.616-.323-.998-1.13-1.286zm-3.129-5.644c0 .551.272.866 1.068 1.154v-2.303c-.508.1-1.068.382-1.068 1.149zm9.004-45.195h-35.457c-3.712 0-6.736 3.029-6.736 6.752v50.49c0 3.726 3.024 6.758 6.736 6.758h35.457c3.715 0 6.736-3.035 6.736-6.758v-50.49c0-3.723-3.024-6.752-6.736-6.752z"/></svg>