<svg width="64" height="64" viewBox="0 0 64 64" xmlns="http://www.w3.org/2000/svg"><title>04009claimfreeF</title><path d="M21.113 23.512h6.88v-6.882h-6.88v6.882zm30.253 10.946v3.047c1.208-.108 1.734-.708 1.734-1.507 0-.9-.714-1.292-1.734-1.54zm-2.814-4.304c0 .816.624 1.152 1.682 1.436v-2.78c-.945.036-1.682.459-1.682 1.344zm2.475 9.704v.945h-1.161v-.925c-2.308-.165-4.11-1.35-5.003-2.693l1.881-1.455c.678 1.092 1.799 1.856 3.121 2.004v-3.404c-1.709-.365-4.404-1.238-4.404-3.895 0-.524.111-1.006.305-1.442.42-.948 1.261-1.664 2.373-2.048.522-.18 1.102-.29 1.726-.313v-.91h1.161v.983c1.57.182 3.2.929 4.166 2.204l-1.76 1.398c-.68-.797-1.438-1.273-2.405-1.451v3.07c2.114.549 4.419 1.494 4.419 3.972 0 2.089-1.607 3.726-4.419 3.962zm8.971 1.542l.457-.591c1.734-2.246 2.651-4.915 2.651-7.725 0-6.994-5.69-12.682-12.682-12.682-1.691 0-3.298.347-4.774.95-3.373 1.376-5.978 4.177-7.17 7.641-.211.62-.399 1.248-.514 1.906-.125.712-.221 1.436-.221 2.185 0 .44.065.866.109 1.298.108 1.067.323 2.11.693 3.102.47 1.263 1.135 2.459 2.01 3.542l.482.597-3.918 10.777 6.606-3.089 3.081 6.612 3.751-10.315 3.753 10.315 3.083-6.612 6.606 3.089-4.003-11zm-49.439-.138h6.88v-6.88h-6.88v6.88zm26.89-.002h-5.782v-6.878h3.467c-.038-.432-.104-.862-.104-1.298 0-.743.071-1.469.173-2.185h-29.6v16.694h15.513v-13.212h6.875v13.212h-6.873v2.519h6.875v-2.519h7.986l1.993-5.479c-.196-.271-.344-.57-.522-.854zm7.092-22.398l-2.064-4.634c-.117-.194-.428-.361-.635-.361h-9.416l1.409 1.359c.449.434.706 1.04.706 1.662v8.059c0 .526-.426.952-.954.952-.524 0-.95-.426-.952-.952v-8.059c0-.109-.044-.215-.125-.292l-7.756-7.483c-.157-.154-.403-.152-.564 0l-7.754 7.483c-.081.077-.127.184-.127.292v8.059c0 .526-.426.952-.952.952s-.95-.426-.95-.952v-8.059c0-.624.255-1.231.705-1.662l1.411-1.359h-9.495c-.205 0-.516.167-.678.449l-6.291 14.158-.006.048c-.146.323.035.47.321.47h35.225c1.269-4.59 4.6-8.328 8.942-10.13z"/></svg>