<svg width="64" height="64" viewBox="0 0 64 64" xmlns="http://www.w3.org/2000/svg"><title>06040claimsL</title><path d="M45.177 53.586v-2.619c.813.29 1.14.677 1.14 1.295 0 .701-.382 1.146-1.14 1.324zm-2.075-7.139c-.802-.29-1.075-.607-1.075-1.162 0-.772.563-1.056 1.075-1.156v2.318zm2.075.542v-2.744c.723.244 1.335.704 1.904 1.419l.26.325 2.524-2.137-.217-.301c-.98-1.373-2.633-2.359-4.469-2.673v-1.197h-2.077v1.081c-2.847.263-4.799 2.191-4.799 4.797 0 2.416 1.614 4.044 4.799 4.845v3.155c-1.083-.26-2.034-.989-2.652-2.048l-.241-.412-2.689 2.218.187.301c.869 1.398 2.73 2.958 5.395 3.28v1.116h2.075v-1.14c2.944-.398 4.824-2.318 4.824-4.97 0-3.077-2.668-4.29-4.824-4.916zm-15.338-7.789h-14.56c-.799 0-1.438.642-1.438 1.441 0 .802.639 1.441 1.438 1.441h14.56c.799 0 1.441-.639 1.441-1.441 0-.959-.642-1.441-1.441-1.441zm-14.56-4.48h33.281c.799 0 1.441-.639 1.441-1.438 0-.802-.642-1.441-1.441-1.441h-33.281c-.799 0-1.438.639-1.438 1.441 0 .799.639 1.438 1.438 1.438zm0-7.199h33.281c.799 0 1.441-.639 1.441-1.441 0-.799-.642-1.438-1.441-1.438h-33.281c-.799 0-1.438.639-1.438 1.438 0 .802.639 1.441 1.438 1.441zm0-7.359h33.281c.799 0 1.441-.642 1.441-1.441s-.642-1.441-1.441-1.441h-33.281c-.799 0-1.438.642-1.438 1.441 0 .959.639 1.441 1.438 1.441zm0-7.202h33.281c.799 0 1.441-.639 1.441-1.438 0-.802-.642-1.441-1.441-1.441h-33.281c-.799 0-1.438.639-1.438 1.441 0 .959.639 1.438 1.438 1.438zm35.681-12.96h-38.24c-3.681 0-6.72 3.042-6.72 6.72v50.561c0 3.681 3.039 6.72 6.72 6.72h38.08c3.681 0 6.72-3.039 6.72-6.72v-50.561c.16-3.678-2.879-6.72-6.56-6.72zm3.841 57.28c0 2.24-1.76 4-4 4h-38.08c-2.24 0-4-1.76-4-4v-50.561c0-2.24 1.76-4 4-4h38.08c2.24 0 4 1.76 4 4v50.561z"/></svg>