<svg width="64" height="64" viewBox="0 0 64 64" xmlns="http://www.w3.org/2000/svg"><title>02028claimrategrdL</title><path d="M27.141 55.336h8.975l-1.538-11.072c.839-.79 1.371-1.902 1.371-3.146 0-2.386-1.932-4.321-4.318-4.321-2.389 0-4.321 1.935-4.321 4.321 0 1.244.534 2.353 1.371 3.146l-1.538 11.072zm27.927-19.004l-5.557-4.233v-14.212c0-9.864-8.02-17.887-17.881-17.887s-17.887 8.023-17.887 17.887v14.207l-5.551 4.236c-1.357 1.032-1.269 2.05-1.095 2.565.173.517.721 1.384 2.427 1.384h4.15v20.039c0 2.028 1.651 3.682 3.68 3.682h28.551c2.028 0 3.682-1.654 3.682-3.682v-20.039h4.15c1.704 0 2.249-.867 2.422-1.382.173-.515.264-1.533-1.093-2.565zm-38.44-18.445c0-8.273 6.732-15.002 15.002-15.002s15 6.729 15 15.002v12.013l-4.679-3.567v-8.447c0-5.692-4.629-10.324-10.321-10.324-5.689 0-10.324 4.632-10.324 10.324v8.436l-4.679 3.57v-12.005zm22.439 6.25l-4.792-3.649c-1.445-1.106-3.867-1.106-5.315-.003l-4.77 3.638v-6.237c0-4.104 3.338-7.439 7.439-7.439s7.436 3.336 7.436 7.439v6.25zm7.635 13.255v22.926c0 .432-.363.798-.795.798h-28.551c-.432 0-.798-.366-.798-.798v-22.926h-5.004l19.158-14.614c.435-.33 1.379-.33 1.816 0l19.175 14.614h-5.001z"/></svg>