<svg width="64" height="64" viewBox="0 0 64 64" xmlns="http://www.w3.org/2000/svg"><title>05003clickC</title><path d="M11.136 26.341c-1.315-7.775 3.943-15.172 11.72-16.489 7.779-1.301 15.176 3.949 16.491 11.724.264 1.571.268 3.159.01 4.717-.091.549-.617.935-1.164.832-.551-.091-.925-.613-.832-1.164.221-1.336.217-2.698-.012-4.049-1.127-6.675-7.476-11.188-14.154-10.062-6.677 1.129-11.19 7.478-10.062 14.156.937 5.543 5.498 9.734 11.093 10.193.555.045.972.535.927 1.092-.045.529-.487.929-1.01.929l-.085-.004c-6.516-.533-11.83-5.417-12.922-11.875zm27.619 26.513c-2.254-.504-3.797-1.606-3.815-1.619l-10.669-7.73c-.124-.093-1.173-.958-.244-2.277.262-.37.557-.621.875-.754.171-.07.355-.105.543-.105.485 0 .859.233.863.235l5.027 3.491.661-.921-6.21-15.331c-.004-.008-.324-.712-.076-1.354.153-.392.506-.706 1.051-.927.246-.099.481-.151.7-.151.96 0 1.42.974 1.464 1.074l4.459 11.043 1.311-.524-1.647-4.038c-.047-.149-.419-1.474.97-2.042.531-.215.995-.239 1.377-.066.601.266.892.941.95 1.084l1.534 3.766 1.412-.586-1.528-3.747c-.074-.211-.372-1.286 1.028-1.858.446-.182.834-.209 1.164-.066.504.213.754.751.776.807l1.493 3.665 1.418-.555-.665-1.627c-.089-.225-.469-1.379.921-1.947.289-.116.559-.175.807-.175.962 0 1.346.906 1.361.946l3.285 8.081c.081.188.805 1.897.894 4.073.149 3.442-1.038 6.427-3.256 8.188-2.465 1.959-5.252 2.605-8.233 1.949zm-20.222-27.704c.434 2.566 2.252 4.633 4.746 5.393.535.165.836.731.675 1.266-.134.436-.535.716-.968.716-.099 0-.198-.012-.295-.043-3.235-.985-5.593-3.665-6.156-6.995-.811-4.81 2.442-9.385 7.253-10.201 2.333-.392 4.674.145 6.6 1.513 1.926 1.369 3.204 3.409 3.598 5.737.043.256.074.51.095.76.045.557-.372 1.047-.929 1.09-.578.029-1.047-.37-1.09-.927-.014-.194-.041-.39-.072-.588-.306-1.794-1.29-3.365-2.775-4.42-1.486-1.057-3.295-1.472-5.091-1.166-3.708.626-6.218 4.156-5.591 7.866zm34.806-14.489c-12.201-12.201-31.986-12.201-44.187 0-12.203 12.201-12.203 31.986 0 44.187 12.201 12.203 31.986 12.203 44.187 0 12.203-12.201 12.203-31.986 0-44.187z"/></svg>