<svg width="64" height="64" viewBox="0 0 64 64" xmlns="http://www.w3.org/2000/svg"><title>05003clickF</title><path d="M59.53 48.96c-.142-3.294-1.289-5.865-1.301-5.888l-4.736-11.664c-.023-.053-.59-1.39-2.005-1.39-.363 0-.759.087-1.179.256-.896.366-1.397.942-1.49 1.71-.073.615.139 1.141.142 1.147l.944 2.318-1.973.77-2.139-5.253c-.002-.007-.37-.862-1.143-1.191-.473-.194-1.054-.169-1.712.101-2.059.841-1.616 2.418-1.506 2.729l2.19 5.374-1.963.814-2.197-5.394c-.117-.29-.542-1.209-1.39-1.586-.565-.254-1.246-.219-2.018.096-1.989.814-1.536 2.64-1.424 2.999l2.359 5.787-1.813.729-6.421-15.897c-.005-.009-.693-1.577-2.151-1.577-.32 0-.667.075-1.026.219-.798.327-1.317.784-1.538 1.362-.363.942.105 1.973.11 1.982l8.953 22.105-.914 1.28-7.225-5.017s-.544-.345-1.266-.345c-.277 0-.546.05-.8.153-.469.192-.898.56-1.28 1.102-1.397 1.977.281 3.285.352 3.342l15.406 11.157c.025.018 2.249 1.614 5.52 2.343 1.093.245 2.181.368 3.232.368 3.099 0 6.021-1.072 8.683-3.186 3.209-2.549 4.928-6.869 4.72-11.854zm-37.714-6.729c.624 0 1.157-.48 1.209-1.115.055-.67-.443-1.257-1.111-1.31-8.187-.677-14.862-6.809-16.233-14.919-.8-4.734.293-9.495 3.074-13.406 2.779-3.911 6.919-6.505 11.65-7.305 4.738-.805 9.495.29 13.406 3.07 3.911 2.782 6.507 6.919 7.307 11.655.334 1.97.338 3.963.016 5.922-.11.663.338 1.289 1.001 1.399.658.105 1.287-.341 1.397-1.001.366-2.226.361-4.491-.018-6.727-.91-5.374-3.854-10.069-8.295-13.225-4.441-3.159-9.847-4.402-15.218-3.49-11.09 1.877-18.587 12.423-16.713 23.513 1.554 9.205 9.131 16.169 18.427 16.935l.101.005zm-.069-30.215c5.49-.937 10.706 2.782 11.634 8.272.05.29.087.581.11.866.057.667.654 1.202 1.312 1.109.667-.055 1.163-.642 1.109-1.31-.03-.357-.073-.713-.135-1.074-1.15-6.809-7.63-11.419-14.434-10.258-6.809 1.152-11.413 7.627-10.261 14.434.795 4.715 4.135 8.507 8.711 9.902.119.034.238.05.354.05.521 0 1.001-.338 1.161-.862.194-.64-.167-1.319-.809-1.515-3.689-1.12-6.382-4.178-7.022-7.979-.928-5.488 2.782-10.706 8.27-11.634z"/></svg>