<svg width="64" height="64" viewBox="0 0 64 64" xmlns="http://www.w3.org/2000/svg"><title>05003clickL</title><path d="M21.604 40.278l-.099-.005c-9.19-.755-16.682-7.639-18.221-16.741-1.853-10.968 5.56-21.399 16.526-23.252 10.961-1.842 21.394 5.56 23.25 16.526.375 2.219.382 4.457.018 6.651-.111.655-.732 1.096-1.383.99-.653-.108-1.096-.728-.988-1.381.321-1.935.314-3.905-.016-5.858-1.634-9.662-10.819-16.214-20.481-14.56-9.66 1.632-16.191 10.821-14.56 20.481 1.358 8.021 7.958 14.085 16.051 14.749.66.054 1.153.635 1.098 1.297-.052.626-.576 1.101-1.196 1.101zm2.556 5.234c-.17 0-.325.032-.479.093-.31.127-.608.391-.886.784-.825 1.171-.14 1.903.192 2.163l14.65 10.607c.075.054 2.079 1.458 4.979 2.106 3.894.868 7.506.02 10.722-2.54 3.2-2.543 4.733-5.969 4.554-10.182-.136-3.184-1.243-5.677-1.254-5.7l-4.667-11.45c-.038-.088-.441-.958-1.361-.958-.273 0-.583.07-.92.208-1.297.531-1.164 1.453-.97 1.955l.773 1.896c.251.615-.043 1.313-.658 1.566l-.723.296c-.294.12-.624.115-.92-.005-.294-.124-.527-.359-.646-.655l-1.993-4.891c-.068-.154-.353-.633-.768-.809-.314-.133-.703-.093-1.18.104-1.342.547-1.275 1.392-1.116 1.849l2.03 4.981c.122.296.12.628-.005.922-.124.294-.359.524-.655.644l-.723.294c-.612.244-1.315-.047-1.564-.66l-2.05-5.024c-.043-.113-.384-.933-1.031-1.22-.386-.176-.884-.136-1.476.108-1.361.554-1.171 1.684-1.028 2.145l2.197 5.375c.251.612-.045 1.313-.66 1.564l-.725.296c-.294.122-.624.12-.918-.005-.294-.122-.527-.359-.649-.655l-6.493-15.936s-.732-1.413-2.043-.875c-.561.226-.913.52-1.046.87-.19.484 0 1.105.088 1.302l8.993 22.063c.156.38.104.816-.138 1.15l-.472.66c-.382.536-1.116.664-1.661.287l-6.518-4.527v.002c-.005 0-.353-.199-.78-.199zm-4.206-13.364c-.118 0-.233-.016-.35-.05-4.527-1.381-7.827-5.13-8.613-9.788-.551-3.264.199-6.545 2.115-9.239 1.917-2.699 4.769-4.486 8.03-5.038 6.712-1.13 13.136 3.413 14.272 10.148.061.357.104.71.133 1.06.054.66-.436 1.241-1.096 1.297-.646.097-1.241-.436-1.297-1.098-.023-.285-.059-.572-.106-.861-.918-5.424-6.08-9.083-11.506-8.175-2.628.443-4.927 1.885-6.473 4.057-1.544 2.174-2.149 4.819-1.704 7.447.633 3.756 3.295 6.78 6.943 7.89.635.194.992.866.8 1.501-.158.518-.633.85-1.148.85zm25.58 31.852c-1.123 0-2.28-.131-3.44-.391-3.311-.741-5.603-2.317-5.854-2.493l-14.697-10.645c-1.042-.818-2.475-2.968-.71-5.465.545-.775 1.2-1.322 1.944-1.625.438-.179.904-.269 1.383-.269 1.175 0 2.034.549 2.129.61l4.249 2.952-7.996-19.62c-.002-.002-.755-1.541-.133-3.148.382-.992 1.184-1.74 2.38-2.228.54-.219 1.08-.332 1.6-.332 1.813 0 3.051 1.345 3.56 2.495l3.108 7.623c.396-.671 1.042-1.281 2.052-1.695 1.214-.493 2.371-.518 3.361-.077.301.136.565.303.802.488.33-.881 1.051-1.743 2.43-2.303 1.08-.443 2.122-.47 3.019-.09 1.388.583 1.989 1.953 2.054 2.106l.027.07c.359-.54.963-1.13 1.98-1.544.628-.255 1.243-.386 1.828-.386 2.027 0 3.205 1.541 3.582 2.45l4.651 11.411c.034.068 1.291 2.854 1.446 6.547.215 5.024-1.623 9.117-5.458 12.164-2.834 2.253-5.962 3.395-9.298 3.395z"/></svg>