<svg width="64" height="64" viewBox="0 0 64 64" xmlns="http://www.w3.org/2000/svg"><title>05031clocktimeL</title><path d="M48.618 47.014c-.447-.447-1.176-.447-1.623 0-.447.447-.447 1.173 0 1.62l2.514 2.514c.225.222.518.335.811.335.293 0 .589-.112.811-.335.447-.449.447-1.173 0-1.62l-2.514-2.514zm-33.239-29.998c.225.225.518.335.811.335.291 0 .584-.11.809-.335.447-.447.447-1.173 0-1.62l-2.514-2.516c-.447-.447-1.171-.447-1.62 0-.447.449-.447 1.173 0 1.62l2.514 2.516zm0 29.998l-2.514 2.514c-.447.447-.447 1.171 0 1.62.225.222.518.335.811.335.293 0 .587-.112.809-.335l2.514-2.514c.447-.447.447-1.173 0-1.62-.447-.447-1.173-.447-1.62 0zm34.132-34.135l-2.514 2.516c-.447.447-.447 1.171 0 1.62.222.222.516.335.809.335.293 0 .587-.112.811-.335l2.514-2.516c.447-.447.447-1.173 0-1.62-.447-.447-1.173-.447-1.62 0zm8.399 17.99h-3.554c-.633 0-1.146.513-1.146 1.146 0 .633.513 1.146 1.146 1.146h3.554c.633 0 1.146-.513 1.146-1.146 0-.633-.513-1.146-1.146-1.146zm-48.27 0h-3.554c-.633 0-1.146.513-1.146 1.146 0 .633.513 1.146 1.146 1.146h3.554c.633 0 1.146-.513 1.146-1.146 0-.633-.513-1.146-1.146-1.146zm28.889-9.048l-5.97 5.97c-.38-.048-.763-.064-1.141-.021l-9.932-9.93c-1.006-1.011-2.638-1.011-3.646 0-1.006 1.004-1.006 2.638 0 3.646l9.912 9.912-.055.335c-.069 1.15.312 2.26 1.073 3.119.816.926 1.994 1.455 3.231 1.455 1.052 0 2.065-.38 2.851-1.077.864-.763 1.377-1.813 1.448-2.963.018-.298.005-.594-.037-.885l5.913-5.913c1.006-1.008 1.006-2.64 0-3.648-1.008-1.006-2.64-1.001-3.646 0zm-6.531 31.405c-.633 0-1.146.513-1.146 1.146v3.554c0 .633.513 1.146 1.146 1.146.633 0 1.146-.513 1.146-1.146v-3.554c0-.633-.513-1.146-1.146-1.146zm0-42.426c.633 0 1.146-.513 1.146-1.146v-3.554c0-.633-.513-1.146-1.146-1.146-.633 0-1.146.513-1.146 1.146v3.554c0 .633.513 1.146 1.146 1.146zm0 50.218c-16.001 0-29.02-13.017-29.02-29.017 0-16.003 13.019-29.02 29.02-29.02 16.001 0 29.02 13.017 29.02 29.02 0 16.001-13.019 29.017-29.02 29.017zm0-61.019c-17.644 0-31.999 14.357-31.999 32.001s14.355 31.999 31.999 31.999 31.999-14.355 31.999-31.999-14.355-32.001-31.999-32.001z"/></svg>