<svg width="64" height="64" viewBox="0 0 64 64" xmlns="http://www.w3.org/2000/svg"><title>05031clocktimeC</title><path d="M32.001 53.426c-11.813 0-21.425-9.611-21.425-21.425 0-11.815 9.611-21.427 21.425-21.427 11.813 0 21.425 9.611 21.425 21.427 0 11.813-9.611 21.425-21.425 21.425zm0-53.426c-17.675 0-32.001 14.326-32.001 32.001 0 17.673 14.326 31.999 32.001 31.999 17.673 0 32.001-14.326 32.001-31.999 0-17.675-14.328-32.001-32.001-32.001zm14.851 30.983h2.361c.565 0 1.024.461 1.024 1.027 0 .565-.459 1.027-1.024 1.027h-2.361c-.565 0-1.027-.461-1.027-1.027 0-.565.461-1.027 1.027-1.027zm-1.955-10.419l-1.666 1.671c-.198.193-.455.3-.729.3-.274 0-.531-.106-.723-.298-.4-.402-.4-1.054-.002-1.454l1.671-1.673c.389-.385 1.067-.387 1.452.002.193.193.3.453.3.727 0 .274-.106.531-.302.725zm.002 24.341c-.193.193-.459.304-.727.304-.272 0-.531-.108-.725-.302l-1.671-1.673c-.193-.191-.302-.448-.302-.723 0-.274.106-.533.302-.729.193-.193.451-.298.725-.298.274 0 .531.104.727.298l1.671 1.671c.193.193.3.451.3.727 0 .274-.106.531-.3.725zm-6.138-17.242l-3.926 3.928c.028.193.036.389.023.587-.047.763-.387 1.462-.961 1.968-.523.461-1.197.716-1.894.716-.823 0-1.605-.351-2.147-.967-.506-.572-.759-1.309-.712-2.072l.036-.221-6.217-6.217c-.667-.67-.667-1.754 0-2.423.67-.67 1.754-.67 2.423 0l6.23 6.23c.251-.03.504-.017.757.015l3.966-3.966c.667-.665 1.751-.667 2.421 0 .67.667.67 1.754 0 2.423zm-5.732 21.557c0 .568-.461 1.029-1.027 1.029-.565 0-1.027-.461-1.027-1.029v-2.359c0-.568.461-1.027 1.027-1.027.565 0 1.027.459 1.027 1.027v2.359zm-10.804-5.983l-1.666 1.668c-.198.196-.455.304-.727.304-.27 0-.527-.106-.725-.302-.196-.196-.302-.453-.302-.727 0-.276.106-.533.3-.727l1.671-1.671c.193-.193.453-.298.727-.298.274 0 .531.104.725.3.196.193.302.453.3.727 0 .274-.106.531-.302.725zm-3.122-24.126c.404-.395 1.054-.397 1.454-.002l1.668 1.675c.196.193.302.451.302.725 0 .274-.106.531-.302.727-.189.191-.455.302-.725.302-.27 0-.536-.111-.727-.304l-1.668-1.666c-.395-.402-.395-1.052-.002-1.456zm11.873-4.315c0-.565.461-1.024 1.027-1.024.565 0 1.027.459 1.027 1.024v2.361c0 .568-.461 1.029-1.027 1.029-.565 0-1.027-.461-1.027-1.029v-2.361zm-13.824 18.241h-2.361c-.565 0-1.027-.461-1.027-1.027 0-.565.461-1.027 1.027-1.027h2.361c.565 0 1.027.461 1.027 1.027 0 .565-.461 1.027-1.027 1.027zm14.851-20.139c-10.536 0-19.106 8.57-19.106 19.104 0 10.534 8.57 19.104 19.106 19.104 10.536 0 19.106-8.57 19.106-19.104 0-10.534-8.57-19.104-19.106-19.104z"/></svg>