<svg width="64" height="64" viewBox="0 0 64 64" xmlns="http://www.w3.org/2000/svg"><title>01017commautoL</title><path d="M33.223 17.983h-25.311c-.62 0-1.122.502-1.122 1.122 0 .62.502 1.12 1.122 1.12h25.311c.618 0 1.122-.5 1.122-1.12 0-.62-.504-1.122-1.122-1.122zm0 4.371h-25.311c-.62 0-1.122.5-1.122 1.12 0 .62.502 1.12 1.122 1.12h25.311c.618 0 1.122-.5 1.122-1.12 0-.62-.504-1.12-1.122-1.12zm0 4.369h-25.311c-.62 0-1.122.5-1.122 1.12 0 .62.502 1.122 1.122 1.122h25.311c.618 0 1.122-.502 1.122-1.122 0-.62-.504-1.12-1.122-1.12zm28.533 6.868c0-.742-.603-1.719-1.265-2.05l-5.015-2.505c-1.227-.614-2.724-2.024-3.412-3.214l-5.386-9.318c-.382-.66-1.43-1.263-2.193-1.263h-38.609c-.622 0-1.297.555-1.417 1.162l-1.832 9.287c-.209 1.063-.386 2.874-.386 3.96v13.112c0 .546.443.989.989.989h4.993c.485-2.891 2.99-5.107 6.018-5.107 3.03 0 5.533 2.216 6.02 5.107h26.072c.485-2.891 2.988-5.107 6.016-5.107 3.018 0 5.519 2.199 6.016 5.076.698-.051 1.385-.12 1.902-.196.542-.084 1.183-.27 1.487-.424v-9.508zm-5.525 11.172c0-2.138-1.742-3.878-3.88-3.878s-3.876 1.74-3.876 3.878 1.738 3.878 3.876 3.878 3.88-1.74 3.88-3.878zm-41.989-3.878c-2.138 0-3.878 1.74-3.878 3.878s1.74 3.878 3.878 3.878 3.88-1.74 3.88-3.878-1.742-3.878-3.88-3.878zm49.758-7.294v9.818c0 1.584-2.13 2.14-3.399 2.33-.62.091-1.436.171-2.25.228-.561 2.798-3.037 4.915-5.999 4.915-2.952 0-5.424-2.102-5.995-4.89h-26.117c-.571 2.788-3.043 4.89-5.997 4.89-2.954 0-5.426-2.102-5.997-4.89h-5.015c-1.782 0-3.231-1.449-3.231-3.231v-13.112c0-1.225.192-3.197.43-4.392l1.83-9.287c.329-1.666 1.917-2.971 3.616-2.971h38.609c1.569 0 3.347 1.025 4.133 2.383l5.386 9.321c.474.818 1.63 1.904 2.474 2.326l5.017 2.507c1.428.715 2.505 2.459 2.505 4.055zm-15.354-8.066c.538 1.339-.318 2.606-1.913 2.606h-4.842c-2.073 0-3.188-.959-3.188-2.33 0-1.373-.044-4.648-.044-5.881 0-1.236.479-1.847 1.594-1.847h2.52c1.752 0 2.199.337 2.838 1.71 0 0 2.516 4.454 3.034 5.742z"/></svg>