<svg width="64" height="64" viewBox="0 0 64 64" xmlns="http://www.w3.org/2000/svg"><title>01017commautoC</title><path d="M35.833 23.547c-.593-1.474-3.473-6.575-3.473-6.575-.731-1.569-1.243-1.957-3.25-1.957h-2.884c-1.276 0-1.825.704-1.825 2.116 0 1.41.052 5.161.052 6.73 0 1.569 1.278 2.667 3.65 2.667h5.541c1.825 0 2.804-1.451 2.188-2.981zm6.115 25.189c2.376 0 4.309-1.934 4.309-4.311 0-2.378-1.932-4.313-4.309-4.313-2.378 0-4.311 1.934-4.311 4.313 0 2.376 1.932 4.311 4.311 4.311zm-22.46-22.538c0-.723-.584-1.309-1.307-1.309h-17.782c-.173.859-.299 1.734-.401 2.616h18.182c.723 0 1.307-.586 1.307-1.307zm-15.754 20.04c5.318 9.499 15.465 15.928 27.128 15.928 17.166 0 31.083-13.915 31.083-31.083 0-17.166-13.917-31.083-31.083-31.083-8.993 0-17.069 3.842-22.747 9.947h23.191c1.4 0 3.041.95 3.741 2.159l6.4 11.072c.547.946 1.835 2.157 2.812 2.645l6.161 3.08c1.261.632 2.248 2.23 2.248 3.64v11.473c0 1.307-2.442 1.815-3.493 1.972l-.289.037c-.731 3.163-3.555 5.535-6.937 5.535-3.303 0-6.063-2.269-6.871-5.32h-31.343zm15.754-25.041c0-.723-.584-1.307-1.307-1.307h-16.291c-.332.855-.63 1.724-.886 2.614h17.177c.723 0 1.307-.584 1.307-1.307zm-1.307-3.695h-15.246c.436-.896.913-1.767 1.433-2.614h13.814c.723 0 1.307.584 1.307 1.307s-.584 1.307-1.307 1.307z" fill="#221F20"/></svg>