<svg width="64" height="64" viewBox="0 0 64 64" xmlns="http://www.w3.org/2000/svg"><title>01011condoL</title><path d="M35.679 58.815v-10.445c-.448-.268-1.188-.582-2.225-.748v11.193h2.225zm-5.054 0v-11.209c-1.051.158-1.786.472-2.239.751v10.458h2.239zm7.883-11.739v11.739h16.597v-51.008h-12.435l-.83-1.322c-1.065-1.688-4.647-3.438-9.445-3.522h-.745c-4.762.079-8.356 1.83-9.418 3.52l-.833 1.324h-12.435v51.008h16.597v-11.739s1.778-2.403 6.431-2.403c4.656 0 6.518 2.403 6.518 2.403zm19.562-42.234v56.939h-19.486v2.22h-13.085v-2.22h-19.499v-56.939h13.762c1.849-2.859 6.499-4.757 11.884-4.841h.773c5.385.085 10.038 1.982 11.886 4.841h13.765zm-12.503 43.378h5.24v-6.551h-5.24v6.551zm-32.374 0h5.243v-6.551h-5.243v6.551zm32.374-13.036h5.24v-6.551h-5.24v6.551zm-16.187 0h5.24v-6.551h-5.24v6.551zm-16.187 0h5.243v-6.551h-5.243v6.551zm32.374-13.882h5.24v-6.551h-5.24v6.551zm-16.187 0h5.24v-6.551h-5.24v6.551zm-16.187 0h5.243v-6.551h-5.243v6.551z"/></svg>