<svg xmlns="http://www.w3.org/2000/svg" viewBox="0 0 64 64" enable-background="new 0 0 64 64"><style type="text/css">.st0{fill:#1A1918;}</style><path class="st0" d="M25.853 60.585h12.642v3.415h-12.642v-3.415zm18.285-55.838h13.439v55.838h-19.082v-14.547s-1.798-2.357-6.361-2.357c-4.566 0-6.281 2.357-6.281 2.357v14.547h-19.082v-55.838h13.442s2.808-4.747 11.958-4.747c9.148 0 11.967 4.747 11.967 4.747zm-25.304 35.989h-5.138v6.426h5.138v-6.426zm0-12.787h-5.138v6.426h5.138v-6.426zm0-13.615h-5.138v6.426h5.138v-6.426zm15.877 13.615h-5.141v6.426h5.141v-6.426zm0-13.615h-5.141v6.426h5.141v-6.426zm10.736 6.426h5.139v-6.426h-5.139v6.426zm0 13.615h5.139v-6.426h-5.139v6.426zm0 12.786h5.139v-6.426h-5.139v6.426z"/></svg>