<svg width="64" height="64" viewBox="0 0 64 64" xmlns="http://www.w3.org/2000/svg"><title>01011condoC</title><path d="M40.68 23.348h3.284v-4.104h-3.284v4.104zm0 8.697h3.284v-4.104h-3.284v4.104zm7.747-18.927h-8.584s-1.998-3.022-7.622-3.022c-5.626 0-7.662 3.022-7.662 3.022h-8.584v35.671h12.185v2.179h8.085v-2.179h12.183v-35.671zm15.573 18.882c0 17.673-14.325 32-32 32-17.673 0-32-14.327-32-32 0-17.673 14.327-32 32-32 17.675 0 32 14.327 32 32zm-33.462-8.652h3.284v-4.104h-3.284v4.104zm10.142 16.865h3.284v-4.104h-3.284v4.104zm-8.506-2.223c-2.916 0-4.015 1.505-4.015 1.505v9.294h8.085v-9.294s-1.154-1.505-4.07-1.505zm-11.777 2.223h3.284v-4.104h-3.284v4.104zm10.14-8.168h3.284v-4.104h-3.284v4.104zm-10.14 0h3.284v-4.104h-3.284v4.104zm0-8.697h3.284v-4.104h-3.284v4.104z"/></svg>