<svg width="64" height="64" viewBox="0 0 64 64" xmlns="http://www.w3.org/2000/svg"><title>05001connectF</title><path d="M49.08 45.348l5.167-2.748c1.32-.7 1.488-2.524.322-3.454l-23.628-18.834c-1.424-1.135-3.514-.02-3.361 1.795l2.501 29.879c.124 1.486 1.731 2.361 3.046 1.657l5.385-2.877c1.029-.551 2.306-.147 2.83.895l5.656 11.199c.52 1.029 1.779 1.437 2.804.909l3.406-1.757c1.029-.529 1.424-1.797.882-2.819l-5.869-11.039c-.538-1.011-.153-2.268.86-2.806zm-29.741-27.524l-8.668-3.936c-.593-.269-1.295-.007-1.564.586-.271.595-.007 1.295.586 1.564l8.668 3.936c.16.071.324.107.489.107.449 0 .877-.258 1.075-.693.271-.595.007-1.295-.586-1.564zm1.935-14.824c-.284-.589-.986-.831-1.577-.555-.586.282-.835.986-.553 1.575l4.112 8.588c.202.424.624.671 1.064.671.173 0 .347-.038.511-.116.589-.282.838-.989.555-1.575l-4.112-8.588zm11.314 8.548l.293.036c.526 0 1.009-.353 1.146-.886l2.368-9.221c.162-.631-.218-1.275-.851-1.437-.631-.167-1.275.222-1.437.851l-2.37 9.219c-.162.631.218 1.277.851 1.44z"/></svg>