<svg width="64" height="64" viewBox="0 0 64 64" xmlns="http://www.w3.org/2000/svg"><title>05002connectaltL</title><path d="M54.833 22.026c-.815-.657-2.207-.657-3.025 0l-9.167 7.391v10.279c0 .894.728 1.622 1.62 1.622h18.119c.893 0 1.62-.728 1.62-1.622v-10.279l-9.167-7.391zm-18.058.225h-9.392c-.381 0-.69.31-.69.69v16.483c0 .381.309.69.69.69h9.392c.38 0 .689-.309.689-.69v-16.483c0-.38-.309-.69-.689-.69zm-9.141 16.922h8.891v-15.982h-8.891v15.982zm24.764-16.415c.476-.383 1.37-.382 1.844 0l8.546 6.891-6.861 5.22-1.137-.726c-.824-.525-2.116-.525-2.941 0l-1.137.726-6.86-5.221 8.545-6.889zm-8.817 7.864l6.288 4.785-6.288 4.016v-8.802zm18.798 9.753h-18.119c-.11 0-.213-.028-.305-.075l8.4-5.365c.513-.328 1.415-.328 1.929 0l8.4 5.365c-.091.047-.194.075-.305.075zm.68-.951l-6.288-4.016 6.288-4.784v8.8zm-7.664-6.866l-.308-.561c-.518.321-1.124.463-1.75.463-2.069 0-3.489-1.585-3.489-3.511 0-1.905 1.408-3.523 3.5-3.523 2.091 0 3.489 1.542 3.489 3.511 0 .915-.329 1.564-1.023 1.564-.485 0-.628-.308-.628-.694v-2.895h-.825v.517c-.364-.429-.804-.605-1.289-.605-1.178 0-1.893.935-1.893 2.146 0 1.21.728 2.146 1.872 2.146.594 0 1.122-.253 1.474-.771.254.561.771.737 1.244.737 1.057 0 1.75-.868 1.75-2.234 0-2.19-1.695-4.061-4.183-4.061-2.487 0-4.216 1.859-4.216 4.161 0 2.322 1.728 4.15 4.183 4.15.792 0 1.486-.209 2.091-.54zm-2.213-2.179c-.77 0-1.145-.627-1.145-1.408 0-.782.375-1.41 1.134-1.41.782 0 1.189.628 1.189 1.41 0 .77-.397 1.408-1.179 1.408zm-16.604-11.379h-9c-1.595 0-2.891 1.297-2.891 2.891v19.987c0 1.593 1.296 2.891 2.891 2.891h9c1.593 0 2.891-1.297 2.891-2.891v-19.987c0-1.593-1.297-2.891-2.891-2.891zm-21.454 3.152h-8.732c-3.524 0-6.391 2.867-6.391 6.393v2.82c0 3.524 2.867 6.393 6.391 6.393h5.413v1.859c0 1.474.702 2 1.359 2 .49 0 1.006-.269 1.526-.789.155-.144 3.806-3.558 5.233-5.261 1.028-1.17 1.593-2.663 1.593-4.203v-2.82c0-3.526-2.867-6.393-6.391-6.393zm-.102 7.112c-.457 0-.827.37-.827.827 0 .457.37.827.827.827.458 0 .828-.37.828-.827 0-.457-.37-.827-.828-.827zm-4.265 0c-.457 0-.827.37-.827.827 0 .457.37.827.827.827.458 0 .828-.37.828-.827 0-.457-.37-.827-.828-.827zm-4.265 0c-.457 0-.827.37-.827.827 0 .457.37.827.827.827.458 0 .827-.37.827-.827 0-.457-.369-.827-.827-.827zm14.083 2.101c0 1.311-.484 2.584-1.367 3.591-1.398 1.666-5.124 5.151-5.173 5.196-.328.328-.654.524-.872.524-.309 0-.419-.571-.419-1.059v-2.8h-6.353c-3.005 0-5.451-2.445-5.451-5.452v-2.82c0-3.006 2.445-5.452 5.451-5.452h8.732c3.005 0 5.452 2.445 5.452 5.452v2.82zm10.526-9.842h1.953c.166 0 .301-.135.301-.3 0-.166-.135-.301-.301-.301h-1.953c-.165 0-.3.135-.3.301 0 .165.135.3.3.3zm1.642 19.529h-1.329c-.218 0-.396.178-.396.396v.507c0 .218.178.396.396.396h1.329c.218 0 .396-.178.396-.396v-.507c0-.218-.178-.396-.396-.396zm5.786.826c0 1.074-.875 1.95-1.951 1.95h-9c-1.076 0-1.951-.875-1.951-1.95v-19.987c0-1.076.875-1.95 1.951-1.95h9c1.076 0 1.951.874 1.951 1.95v19.987z"/></svg>