<svg width="64" height="64" viewBox="0 0 64 64" xmlns="http://www.w3.org/2000/svg"><title>05001connectC</title><path d="M36.133 10.049l-2.099 8.254c-.132.526-.601.891-1.138.891l-.292-.036c-.627-.162-1.006-.81-.844-1.443l2.097-8.254c.136-.524.601-.891 1.136-.891.1 0 .198.013.296.04.627.16 1.006.808.844 1.439zm-10.31 10.548c-.16.079-.33.115-.507.115-.45 0-.865-.264-1.059-.673l-3.642-7.688c-.279-.588-.034-1.298.55-1.581.162-.077.33-.113.505-.113.458 0 .865.258 1.063.671l3.64 7.688c.281.588.034 1.298-.55 1.581zm-4.283 5.509c-.19.422-.609.695-1.07.695-.166 0-.33-.036-.484-.107l-7.678-3.521c-.588-.271-.85-.974-.584-1.571.19-.422.609-.695 1.07-.695.168 0 .332.036.486.107l7.676 3.521c.59.271.852.974.584 1.571zm33.088-16.733c-12.496-12.498-32.758-12.498-45.256 0-12.496 12.498-12.496 32.762 0 45.262 9.306 9.307 22.915 11.671 34.42 7.116l-3.401-6.805c-.465-.931-1.596-1.294-2.506-.801l-4.769 2.577c-1.166.629-2.587-.153-2.698-1.483l-2.216-26.75c-.134-1.624 1.718-2.624 2.977-1.609l20.924 16.861c1.036.835.886 2.468-.283 3.095l-4.577 2.46c-.897.482-1.236 1.607-.761 2.513l3.499 6.654c1.634-1.113 3.199-2.376 4.648-3.826 12.496-12.5 12.496-32.764 0-45.262z"/></svg>