<svg width="64" height="64" viewBox="0 0 64 64" xmlns="http://www.w3.org/2000/svg"><title>05001connectL</title><path d="M32.158 11.338l.291.036c.516 0 .987-.347 1.122-.869l2.327-9.054c.161-.621-.214-1.252-.833-1.413-.625-.163-1.255.214-1.413.835l-2.327 9.052c-.161.621.214 1.255.833 1.413zm-11.107-8.39c-.274-.578-.97-.822-1.546-.546-.578.276-.822.97-.546 1.548l4.036 8.431c.199.415.614.657 1.047.657.169 0 .338-.036.501-.113.578-.276.822-.968.546-1.546l-4.038-8.431zm-1.899 14.554l-8.512-3.864c-.587-.268-1.272-.006-1.535.576-.265.584-.009 1.272.576 1.535l8.51 3.864c.156.071.321.105.48.105.441 0 .863-.253 1.058-.681.265-.584.006-1.272-.576-1.535zm33.159 41.838c-.071.225-.225.409-.437.518l-3.342 1.723c-.43.223-.972.039-1.186-.383l-5.551-10.996c-.548-1.083-1.642-1.758-2.858-1.758-.52 0-1.043.133-1.505.379l-5.288 2.826c-.495.263-1.227.013-1.289-.702l-2.456-29.337c-.021-.257.051-.48.216-.657.304-.334.831-.402 1.205-.101l23.199 18.491c.334.268.34.625.328.769-.013.141-.086.492-.462.694l-5.076 2.695c-.754.4-1.306 1.073-1.556 1.888-.25.818-.167 1.685.233 2.439l5.761 10.837c.111.21.135.45.064.674zm-3.777-12.601c-.109-.208-.133-.443-.064-.668.069-.225.221-.409.428-.518l5.076-2.698c.953-.507 1.584-1.454 1.683-2.531.101-1.075-.347-2.122-1.192-2.796l-23.197-18.491c-1.293-1.03-3.258-.854-4.361.345-.604.657-.895 1.518-.82 2.424l2.458 29.337c.139 1.672 1.509 2.933 3.188 2.933.52 0 1.04-.131 1.505-.381l5.288-2.824c.428-.229.983-.049 1.197.379l5.551 10.994c.548 1.085 1.642 1.758 2.858 1.758.505 0 1.011-.124 1.464-.358l3.342-1.723c.766-.394 1.33-1.064 1.586-1.886.257-.824.176-1.696-.229-2.458l-5.761-10.837z"/></svg>