<svg width="64" height="64" viewBox="0 0 64 64" xmlns="http://www.w3.org/2000/svg"><title>01026convertibleF</title><path d="M51.79 43.266c-1.907 0-3.458-1.554-3.458-3.46 0-1.907 1.552-3.458 3.458-3.458 1.909 0 3.458 1.552 3.458 3.458 0 1.907-1.55 3.46-3.458 3.46zm-39.212 0c-1.909 0-3.46-1.554-3.46-3.46 0-1.907 1.552-3.458 3.46-3.458 1.907 0 3.458 1.552 3.458 3.458 0 1.907-1.552 3.46-3.458 3.46zm50.067-11.7c-.367-.687-1.59-1.691-7.857-3.349-2.413-.636-5.514-1.177-7.528-1.498l-.008-.002c-.715-.116-1.144-.412-1.853-.942v.004c-1.068-.823-4.235-3.193-7.22-4.713-1.259-.641-3.279-1.51-5.168-2.028-.564-.151-1.144.179-1.301.741-.153.566.179 1.149.743 1.303 1.735.474 3.652 1.305 4.765 1.871 2.054 1.046 4.253 2.562 5.684 3.606-3.739.41-12.176 1.249-17.4 1.094-4.859-.143-8.692-1.149-10.981-1.747-1.016-.267-1.63-.428-2-.428-3.494.004-5.477.363-7.616.753-2.209.402-3.331 1.337-3.331 2.777 0 .93-.458 4.114-.552 4.763l-.799 1.138c-.229.257-.379.823.038 2.078.709 2.124 2.128 3.395 6.813 3.55.361 2.727 2.675 4.847 5.502 4.847 2.747 0 5.024-2.004 5.478-4.624h28.255c.454 2.62 2.729 4.624 5.478 4.624 2.739 0 5.01-1.99 5.477-4.596 1.757-.088 4.809-.416 5.652-1.644 1.755-2.56 1.161-4.879-.273-7.576z"/></svg>