<svg width="64" height="64" viewBox="0 0 64 64" xmlns="http://www.w3.org/2000/svg"><title>01026convertibleL</title><path d="M61.13 37.932c-.304.427-2.193.824-4.253.946-.292-2.749-2.596-4.909-5.422-4.909-2.82 0-5.12 2.148-5.422 4.885h-27.701c-.302-2.737-2.602-4.885-5.42-4.885-2.749 0-5.009 2.042-5.4 4.684-4.482-.155-4.907-1.426-5.25-2.459-.139-.411-.172-.65-.178-.762l.932-1.333.037-.243c.023-.159.117-.807.223-1.596.323.018.67-.016 1.073-.153 1.087-.366 1.492-1.198.909-1.858-.352-.397-.989-.619-1.672-.67.025-.294.043-.558.043-.744 0-.57.679-.981 2.058-1.232 1.993-.362 3.877-.705 7.169-.709.196.008.93.202 1.58.372 2.162.566 6.186 1.621 11.136 1.766 6.362.186 17.106-1.048 18.945-1.269l.239.033c.053.008 5.534.762 9.256 1.743 3.828 1.012 5.494 1.721 6.219 2.13-1.095.037-1.713.678-1.373 1.469.347.811 1.557 1.463 2.702 1.455l.223-.035c.304 1.286.082 2.303-.652 3.374zm-9.675 4.917c-1.876 0-3.401-1.525-3.401-3.399s1.525-3.399 3.401-3.399c1.874 0 3.399 1.525 3.399 3.399s-1.525 3.399-3.399 3.399zm-41.943-3.399c0-1.874 1.523-3.399 3.399-3.399 1.876 0 3.399 1.525 3.399 3.399s-1.523 3.399-3.399 3.399c-1.876 0-3.399-1.525-3.399-3.399zm53.098-8.355c-.46-.867-1.756-1.897-8.069-3.568-3.395-.897-8.032-1.582-9.225-1.753-.885-.689-4.165-3.178-7.241-4.744-1.238-.631-3.223-1.484-5.077-1.993-.552-.149-1.126.176-1.279.728-.151.556.174 1.13.73 1.281 1.706.466 3.587 1.283 4.682 1.839 1.717.873 3.546 2.089 4.919 3.062-3.912.419-11.574 1.157-16.419 1.005-4.711-.137-8.439-1.116-10.67-1.7-1.075-.282-1.668-.437-2.105-.437-3.483.004-5.455.36-7.582.748-3.082.562-3.728 2.089-3.728 3.272 0 .752-.345 3.288-.517 4.474l-.689.981c-.435.501-.454 1.363-.055 2.561.891 2.671 2.931 3.75 7.31 3.873.578 2.407 2.735 4.206 5.316 4.206 2.504 0 4.598-1.698 5.25-3.995h28.044c.652 2.297 2.745 3.995 5.25 3.995 2.489 0 4.572-1.68 5.236-3.957 2.007-.078 5.175-.433 6.154-1.864 1.993-2.906 1.065-5.569-.235-8.015z"/></svg>