<svg width="64" height="64" viewBox="0 0 64 64" xmlns="http://www.w3.org/2000/svg"><title>01023coupeF</title><path d="M14.2 26.975c-.481-.014-.701-.323-.491-.685 0 0 3.051-1.606 6.722-2.802 3.225-1.051 6.138-1.19 6.138-1.19.481-.018.873.295.873.697l.737 3.596c0 .402-.392.719-.873.705l-13.107-.321zm19.443-4.435c4.869.895 8.423 4.475 8.423 4.475.307.309.166.554-.313.541l-11.194-.303c-.481-.01-.873-.35-.873-.754l-.737-3.588c0-.404.392-.717.871-.697 0 0 2.653.111 3.823.325zm-21.09 19.554c-1.936 0-3.508-1.576-3.508-3.51 0-1.934 1.572-3.508 3.508-3.508s3.508 1.574 3.508 3.508-1.572 3.51-3.508 3.51zm39.772 0c-1.936 0-3.51-1.576-3.51-3.51 0-1.934 1.574-3.508 3.51-3.508 1.934 0 3.508 1.574 3.508 3.508s-1.574 3.51-3.508 3.51zm-52.206-9.492c-.014.065-.333 1.643.137 3.059.689 2.065 2.081 3.304 6.696 3.463.277 2.861 2.667 5.116 5.601 5.116 2.857 0 5.201-2.138 5.579-4.892h28.614c.378 2.754 2.722 4.892 5.579 4.892 2.835 0 5.168-2.105 5.571-4.831 2.117-.04 5.148-.335 5.587-1.691.667-2.055.689-3.966.073-6.011-.37-1.22-1.847-2.457-3.764-3.152-4.488-1.627-11.299-2.273-12.095-2.344-.713-.459-6.571-4.219-8.66-5.324-1.649-.869-5.11-1.887-9.44-1.887-2.01 0-4.045.216-6.047.643-7.559 1.61-12.236 3.584-15.332 4.888-1.663.703-2.865 1.208-3.788 1.354-2.663.424-3.221 1.659-3.221 2.621 0 .94-.079 1.93-.115 2.279-.095.788-.82.978-.974 1.818z"/></svg>