<svg width="64" height="64" viewBox="0 0 64 64" xmlns="http://www.w3.org/2000/svg"><title>01023coupeL</title><path d="M61.834 34.079c-.846-.148-1.799-.308-2.208-.341-.809-.067-2.561-1.537-2.561-2.346 0-.456 1.687-.391 3.163-.247-.426-.29-.921-.572-1.551-.799-4.469-1.62-11.466-2.214-11.535-2.219l-.262-.022-.219-.14c-.063-.043-6.343-4.084-8.42-5.181-1.472-.779-4.605-1.689-8.588-1.689-1.87 0-3.762.201-5.625.598-7.256 1.547-11.752 3.443-14.73 4.697-1.71.722-2.946 1.243-4.011 1.413-.915.144-2.01.475-2.01 1.229l-.008.42c.817-.016 1.616.225 2.03.692.588.667.18 1.505-.915 1.874-.509.172-.941.205-1.324.138l-.006.057-.9 1.284c-.055.395-.136 1.31.126 2.095.347 1.042.773 2.322 5.289 2.478.395-2.661 2.671-4.719 5.441-4.719 2.841 0 5.157 2.164 5.461 4.922h27.912c.302-2.758 2.62-4.922 5.461-4.922 2.859 0 5.189 2.194 5.467 4.98 2.723-.061 3.989-.527 4.171-.764.383-1.198.491-2.324.351-3.49zm-6.564 4.796c0-1.888-1.537-3.425-3.425-3.425-1.89 0-3.427 1.537-3.427 3.425s1.537 3.427 3.427 3.427c1.888 0 3.425-1.539 3.425-3.427zm-38.834 0c0-1.888-1.535-3.425-3.425-3.425-1.888 0-3.425 1.537-3.425 3.425s1.537 3.427 3.425 3.427c1.89 0 3.425-1.539 3.425-3.427zm47.02-.612c-.172.525-.696 2.101-6.341 2.172-.679 2.281-2.77 3.962-5.27 3.962-2.523 0-4.632-1.71-5.289-4.025h-28.256c-.657 2.314-2.766 4.025-5.289 4.025-2.6 0-4.772-1.813-5.356-4.238-4.411-.124-6.467-1.211-7.365-3.902-.515-1.545-.195-3.194-.158-3.378l.168-.387.724-1.038c.051-.513.158-1.661.158-2.423 0-1.008.489-2.778 3.778-3.301.813-.128 1.949-.61 3.526-1.274 3.048-1.284 7.655-3.226 15.104-4.814 2.008-.428 4.046-.643 6.063-.643 4.362 0 7.803.996 9.568 1.929 1.955 1.036 7.203 4.39 8.357 5.131 1.363.124 7.538.764 11.814 2.312 2.121.767 3.705 2.137 4.139 3.569.649 2.148.625 4.159-.075 6.321zm-29.852-15.055c-1.142-.209-3.731-.318-3.731-.318-.47-.02-.852.286-.852.681l.72 3.504c0 .395.383.726.852.736l10.93.296c.468.012.606-.227.306-.529 0 0-3.47-3.496-8.225-4.37zm-6.055.444l.72 3.512c0 .393-.383.702-.852.689l-12.798-.314c-.47-.016-.685-.316-.477-.669 0 0 2.977-1.568 6.562-2.736 3.149-1.026 5.996-1.162 5.996-1.162.468-.018.85.288.85.681z"/></svg>