<svg width="64" height="64" viewBox="0 0 64 64" xmlns="http://www.w3.org/2000/svg"><title>05016creditcardL</title><path d="M4.521 27.411h54.955v-7.822h-54.955v7.822zm50.521 4.438h-10.991c-.931 0-1.691.76-1.691 1.691v2.165c0 .931.76 1.691 1.691 1.691h10.991c.931 0 1.691-.76 1.691-1.691v-2.165c0-.931-.76-1.691-1.691-1.691zm6.509 13.458c0 2.727-2.218 4.947-4.945 4.947h-49.215c-2.725 0-4.945-2.22-4.945-4.947v-26.918c0-2.725 2.22-4.943 4.945-4.943h49.215c2.727 0 4.945 2.218 4.945 4.943v26.918zm-4.945-34.307h-49.215c-4.074 0-7.391 3.314-7.391 7.389v26.918c0 4.079 3.317 7.393 7.391 7.393h49.215c4.077 0 7.393-3.314 7.393-7.393v-26.918c0-4.074-3.317-7.389-7.393-7.389z"/></svg>