<svg width="64" height="64" viewBox="0 0 64 64" xmlns="http://www.w3.org/2000/svg"><title>05016creditcardC</title><path d="M53.758 41.488c0 2.402-1.953 4.353-4.353 4.353h-34.723c-2.4 0-4.351-1.951-4.351-4.353v-18.988c0-2.402 1.951-4.353 4.351-4.353h34.723c2.4 0 4.353 1.951 4.353 4.353v18.988zm-5.456-9.494h-7.756c-.655 0-1.192.538-1.192 1.192v1.528c0 .655.538 1.192 1.192 1.192h7.756c.657 0 1.192-.538 1.192-1.192v-1.528c0-.655-.536-1.192-1.192-1.192zm-35.645-3.133h38.774v-5.518h-38.774v5.518zm19.343-28.861c-17.673 0-32 14.327-32 32 0 17.673 14.327 32 32 32 17.673 0 32-14.327 32-32 0-17.673-14.327-32-32-32z"/></svg>