<svg width="64" height="64" viewBox="0 0 64 64" xmlns="http://www.w3.org/2000/svg"><title>cross</title><path d="M.814 57.6l25.675-25.6-25.675-25.6c-1.093-1.113-1.093-2.226 0-3.339l2.185-2.226c1.093-1.113 2.185-1.113 3.824 0l25.129 25.6 25.675-25.6c1.093-1.113 2.185-1.113 3.278 0l2.185 2.226c1.093 1.113 1.093 2.226 0 3.339l-25.675 25.6 25.675 25.6c1.093 1.113 1.093 2.226 0 3.339l-2.185 2.226c-1.093 1.113-2.185 1.113-3.278 0l-25.675-25.6-25.675 25.6c-1.093 1.113-2.185 1.113-3.824 0l-2.185-2.226c-.546-1.67-.546-2.226.546-3.339z" fill="#000"/></svg>