<svg width="64" height="64" viewBox="0 0 64 64" xmlns="http://www.w3.org/2000/svg"><title>cross-outline</title><path d="M32 0c-17.6 0-32 14.4-32 32s14.4 32 32 32 32-14.4 32-32-14.4-32-32-32zm0 60.16c-15.36 0-28.16-12.48-28.16-28.16 0-15.36 12.48-28.16 28.16-28.16 15.36 0 28.16 12.48 28.16 28.16 0 15.36-12.8 28.16-28.16 28.16zm13.76-18.88c1.28 1.28 1.28 3.2 0 4.48-.64.64-1.6.96-2.24.96-.64 0-1.6-.32-2.24-.96l-9.28-9.28-8.96 8.96c-.64.64-1.6.96-2.24.96-.64 0-1.6 0-2.24-.64-1.28-1.28-1.28-3.2 0-4.48l8.96-9.28-8.96-8.96c-1.28-1.28-1.28-3.2 0-4.48 1.28-1.28 3.2-1.28 4.48 0l8.96 8.96 8.96-8.96c1.28-1.28 3.2-1.28 4.48 0 1.28 1.28 1.28 3.2 0 4.48l-8.96 8.96 9.28 9.28z" fill="#000"/></svg>