<svg width="64" height="64" viewBox="0 0 64 64" xmlns="http://www.w3.org/2000/svg"><title>04011custompartsF</title><path d="M23.148 9.54c0-4.288-3.347-7.776-7.558-8.079l1.973 7.273c.092.341-.109.691-.448.785l-4.192 1.137c-.339.092-.691-.109-.783-.45l-1.95-7.187c-2.003 1.485-3.319 3.844-3.319 6.522 0 2.645 1.291 4.979 3.251 6.466v32.879c-2.449 1.404-4.122 4.015-4.122 7.036 0 4.288 3.345 7.776 7.558 8.079l-1.973-7.275c-.094-.339.109-.691.448-.783l4.19-1.137c.341-.094.691.109.785.448l1.95 7.187c2.001-1.483 3.317-3.842 3.317-6.519 0-2.767-1.393-5.207-3.507-6.679v-32.527c2.59-1.363 4.38-4.051 4.38-7.174zm18.048 5.993c0-3.356-2.637-6.08-5.941-6.278l1.498 5.519c.094.341-.109.691-.448.785l-2.835.768c-.339.094-.691-.109-.783-.448l-1.483-5.461c-1.594 1.148-2.641 3.006-2.641 5.116 0 2.014.964 3.791 2.438 4.949v24.433c-1.843 1.105-3.091 3.102-3.091 5.402 0 3.356 2.635 6.08 5.941 6.278l-1.498-5.519c-.094-.341.109-.691.448-.785l2.835-.768c.339-.094.691.109.783.448l1.483 5.461c1.591-1.148 2.641-3.006 2.641-5.116 0-2.103-1.045-3.959-2.633-5.107v-24.171c1.948-1.077 3.285-3.127 3.285-5.506zm14.327 30.583c0-1.609-.783-3.027-1.973-3.932v-17.903c1.466-.86 2.462-2.436 2.462-4.254 0-2.654-2.103-4.811-4.73-4.93l1.143 4.207c.092.339-.109.691-.45.783l-1.818.493c-.341.092-.691-.109-.783-.448l-1.131-4.169c-1.286.896-2.133 2.381-2.133 4.064 0 1.54.721 2.901 1.828 3.81v18.099c-1.389.879-2.319 2.417-2.319 4.179 0 2.654 2.103 4.809 4.73 4.928l-1.141-4.207c-.092-.339.109-.691.448-.783l1.818-.493c.341-.094.691.109.785.448l1.131 4.169c1.286-.896 2.133-2.381 2.133-4.062z"/></svg>