<svg width="64" height="64" viewBox="0 0 64 64" xmlns="http://www.w3.org/2000/svg"><title>06004dashboardC</title><path d="M51.152 39.717c-1.592-2.07-4.068-3.43-6.878-3.43-4.801 0-8.708 3.906-8.708 8.708 0 2.646 1.211 4.99 3.08 6.589-2.079.706-4.295 1.105-6.612 1.105s-4.536-.4-6.614-1.105c1.87-1.598 3.08-3.943 3.08-6.589 0-4.801-3.904-8.708-8.706-8.708-2.81 0-5.286 1.36-6.878 3.43-.944-2.359-1.475-4.927-1.475-7.622 0-11.373 9.22-20.593 20.593-20.593s20.593 9.22 20.593 20.593c0 2.695-.533 5.262-1.475 7.622zm-10.208 10.922c-1.936-1.148-3.252-3.235-3.252-5.645 0-3.63 2.952-6.582 6.582-6.582 2.54 0 4.723 1.462 5.819 3.575-2.062 3.76-5.273 6.786-9.15 8.652zm-17.819 0c-3.877-1.866-7.088-4.893-9.152-8.652 1.097-2.113 3.279-3.575 5.821-3.575 3.628 0 6.58 2.952 6.58 6.582 0 2.41-1.313 4.497-3.25 5.645zm.287-27.741s4.253 9.87 5.711 11.379c.727.755 1.692 1.141 2.665 1.158.727.013 1.46-.183 2.1-.589.213-.136.414-.293.604-.476 1.509-1.456 1.552-3.86.094-5.369-1.456-1.509-11.173-6.104-11.173-6.104zm21.012-3.175c-.886-.905-2.338-.922-3.243-.036-.908.886-.922 2.338-.036 3.243.884.905 2.338.922 3.243.036.905-.886.92-2.338.036-3.243zm.436 12.459c-.028 1.267.976 2.317 2.242 2.344 1.267.028 2.317-.976 2.344-2.242.028-1.267-.976-2.317-2.242-2.344-1.267-.028-2.317.976-2.344 2.242zm-28.053-2.242c-1.267.028-2.27 1.078-2.242 2.344.028 1.267 1.078 2.27 2.344 2.242 1.265-.028 2.27-1.078 2.242-2.344-.028-1.267-1.078-2.27-2.344-2.242zm6.023-10.253c-.905-.886-2.357-.869-3.243.036-.886.905-.869 2.357.036 3.243.905.886 2.357.869 3.243-.036.886-.905.869-2.357-.036-3.243zm9.25-.57c1.267 0 2.293-1.029 2.293-2.293 0-1.267-1.027-2.295-2.293-2.295-1.267 0-2.295 1.029-2.295 2.295 0 1.265 1.029 2.293 2.295 2.293zm-.079-19.118c-17.673 0-32 14.327-32 32 0 17.673 14.327 32 32 32 17.673 0 32-14.327 32-32 0-17.673-14.327-32-32-32z"/></svg>