<svg width="64" height="64" viewBox="0 0 64 64" xmlns="http://www.w3.org/2000/svg"><title>06004dashboardF</title><path d="M34.88 36.278c-.993.631-2.132.935-3.263.914-1.511-.026-3.009-.629-4.143-1.799-2.262-2.346-8.87-17.684-8.87-17.684v.003-.003s15.098 7.142 17.359 9.486c2.264 2.344 2.198 6.08-.145 8.344-.293.283-.608.528-.938.74zm-22.168-18.464c-1.406-1.377-1.432-3.636-.055-5.041 1.377-1.406 3.633-1.432 5.041-.055 1.408 1.377 1.432 3.633.055 5.041-1.377 1.406-3.633 1.432-5.041.055zm-4.22 17.964c-1.966.042-3.599-1.519-3.641-3.488-.042-1.966 1.517-3.596 3.485-3.641 1.968-.042 3.599 1.517 3.641 3.485.045 1.968-1.517 3.599-3.485 3.644zm23.577-31.075c1.968 0 3.564 1.596 3.564 3.564s-1.596 3.564-3.564 3.564-3.564-1.596-3.564-3.564 1.596-3.564 3.564-3.564zm14.141 8.014c1.408-1.377 3.665-1.35 5.041.055 1.377 1.406 1.353 3.665-.055 5.041-1.406 1.377-3.665 1.35-5.041-.055-1.377-1.408-1.35-3.665.055-5.041zm9.361 15.933c1.968.045 3.53 1.675 3.485 3.641-.042 1.968-1.673 3.53-3.641 3.488-1.968-.045-3.527-1.675-3.485-3.644.042-1.968 1.675-3.527 3.641-3.485zm-32.365 23.394c0-5.641-4.587-10.228-10.228-10.228-3.947 0-7.34 2.272-9.044 5.557 3.208 5.839 8.196 10.542 14.22 13.444 3.009-1.784 5.052-5.028 5.052-8.772zm36.859-4.674c-1.704-3.282-5.097-5.554-9.044-5.554-5.641 0-10.228 4.587-10.228 10.228 0 3.744 2.042 6.989 5.052 8.772 6.024-2.901 11.015-7.604 14.22-13.446zm-22.575 4.674c0-7.462 6.069-13.531 13.531-13.531 4.365 0 8.212 2.111 10.688 5.332 1.464-3.667 2.291-7.657 2.291-11.845 0-17.674-14.326-32-32-32s-32 14.326-32 32c0 4.188.827 8.178 2.291 11.845 2.476-3.221 6.323-5.332 10.688-5.332 7.462 0 13.531 6.069 13.531 13.531 0 4.111-1.881 7.755-4.785 10.239 3.229 1.097 6.677 1.717 10.276 1.717s7.047-.621 10.276-1.717c-2.904-2.484-4.785-6.127-4.785-10.239z"/></svg>