<svg width="64" height="64" viewBox="0 0 64 64" xmlns="http://www.w3.org/2000/svg"><title>06004dashboardS</title><path d="M51.914 26.668c-3.246 0-5.789-2.473-5.789-5.631 0-3.158 2.543-5.633 5.789-5.633 3.191 0 5.789 2.528 5.789 5.633 0 3.106-2.598 5.631-5.789 5.631m-14.797 8.36c-.211.355-.452.682-.714.978-.796.891-1.807 1.51-2.888 1.813-1.44.404-3.01.253-4.367-.555-2.713-1.617-9.181-12.534-9.181-12.534s12.588.598 15.301 2.212c2.71 1.615 3.542 5.237 1.849 8.086m-25.203-8.36c-3.246 0-5.789-2.473-5.789-5.631 0-3.158 2.543-5.633 5.789-5.633 3.191 0 5.789 2.528 5.789 5.633 0 3.106-2.598 5.631-5.789 5.631m20-23.264c3.191 0 5.789 2.528 5.789 5.633 0 3.106-2.598 5.631-5.789 5.631-3.246 0-5.789-2.473-5.789-5.631 0-3.158 2.543-5.633 5.789-5.633m.086-3.404c-17.645 0-32 14.355-32 32 0 3.318.509 6.518 1.45 9.53 2.602-2.171 5.904-3.53 9.55-3.53 8.271 0 15 6.729 15 15 0 3.646-1.359 6.948-3.53 9.55 3.012.941 6.212 1.45 9.53 1.45 3.318 0 6.518-.509 9.53-1.45-2.171-2.602-3.53-5.904-3.53-9.55 0-8.271 6.728-15 15-15 3.646 0 6.947 1.359 9.55 3.53.941-3.012 1.45-6.212 1.45-9.53 0-17.645-14.356-32-32-32zm21 44c-4.963 0-9 4.037-9 9 0 2.851 1.358 5.365 3.432 7.016 5.287-2.924 9.66-7.297 12.584-12.584-1.651-2.074-4.165-3.432-7.016-3.432zm-42 0c-2.851 0-5.365 1.358-7.016 3.432 2.924 5.287 7.297 9.66 12.584 12.584 2.074-1.651 3.432-4.165 3.432-7.016 0-4.963-4.037-9-9-9z" fill="#000"/></svg>