<svg width="64" height="64" viewBox="0 0 64 64" xmlns="http://www.w3.org/2000/svg"><title>06004dashboardL</title><path d="M20.41 58.172c-5.954-2.647-10.841-7.265-13.831-13.025 1.75-2.192 4.439-3.602 7.456-3.602 5.263 0 9.546 4.28 9.546 9.543 0 2.812-1.23 5.337-3.171 7.084zm29.555-19.997c-7.121 0-12.912 5.792-12.912 12.912 0 3.186 1.167 6.103 3.089 8.358-2.582.766-5.313 1.188-8.141 1.188-2.828 0-5.559-.421-8.141-1.188 1.92-2.255 3.087-5.172 3.087-8.358 0-7.121-5.792-12.912-12.912-12.912-3.469 0-6.618 1.384-8.941 3.618-1.114-3.058-1.724-6.354-1.724-9.794 0-15.787 12.842-28.632 28.632-28.632 15.787 0 28.632 12.844 28.632 28.632 0 3.44-.612 6.736-1.727 9.794-2.323-2.234-5.47-3.618-8.941-3.618zm-9.543 12.912c0-5.263 4.28-9.543 9.543-9.543 3.016 0 5.705 1.41 7.458 3.602-2.993 5.76-7.877 10.378-13.831 13.025-1.941-1.747-3.171-4.272-3.171-7.084zm14.071-22.212c-1.873-.042-3.424 1.444-3.466 3.317-.042 1.87 1.444 3.422 3.317 3.464 1.873.042 3.424-1.444 3.464-3.314.042-1.873-1.441-3.424-3.314-3.466zm-8.907-15.16c-1.339 1.311-1.363 3.456-.052 4.795s3.458 1.363 4.795.052c1.339-1.308 1.363-3.456.055-4.795-1.311-1.339-3.458-1.363-4.798-.052zm-36.035 15.16c1.873-.042 3.424 1.444 3.466 3.317.039 1.87-1.444 3.422-3.317 3.464-1.873.042-3.424-1.444-3.464-3.314-.042-1.873 1.441-3.424 3.314-3.466zm8.907-15.16c1.339 1.311 1.363 3.456.052 4.795s-3.456 1.363-4.795.052c-1.339-1.308-1.363-3.456-.052-4.795 1.308-1.339 3.456-1.363 4.795-.052zm17.064-4.233c0 1.873-1.517 3.39-3.39 3.39-1.873 0-3.393-1.517-3.393-3.39 0-1.873 1.52-3.393 3.393-3.393 1.873 0 3.39 1.52 3.39 3.393zm-16.203 8.983s6.289 14.592 8.442 16.823c1.078 1.114 2.503 1.687 3.94 1.713 1.078.018 2.161-.272 3.105-.871.314-.201.615-.434.892-.704 2.231-2.153 2.294-5.708.139-7.94-2.153-2.231-16.517-9.023-16.517-9.023zm12.682-18.466c-17.645 0-32.001 14.354-32.001 31.999 0 4.583.976 8.939 2.718 12.884.599 1.358 1.287 2.666 2.061 3.916 2.961 4.779 7.142 8.724 12.107 11.398 1.284.693 2.624 1.3 4.005 1.813 3.464 1.284 7.204 1.991 11.11 1.991 3.903 0 7.644-.706 11.107-1.991 1.384-.513 2.721-1.12 4.008-1.813 4.965-2.674 9.145-6.618 12.104-11.398.774-1.25 1.462-2.558 2.064-3.916 1.742-3.945 2.715-8.301 2.715-12.884 0-17.645-14.354-31.999-31.999-31.999z"/></svg>