<svg width="64" height="64" viewBox="0 0 64 64" xmlns="http://www.w3.org/2000/svg"><title>06021declinedcardF</title><path d="M57.718 34.412c0 .968-.79 1.758-1.758 1.758h-11.428c-.968 0-1.758-.79-1.758-1.758v-2.251c0-.968.79-1.758 1.758-1.758h11.428c.968 0 1.758.79 1.758 1.758v2.251zm-3.051-30.158l-2.756-2.254-47.243 57.843 2.756 2.254 47.243-57.843zm-51.238 21.535v-8.133h32.319l6.255-7.661h-35.59c-3.537 0-6.413 2.879-6.413 6.416v27.986c0 3.537 2.876 6.413 6.413 6.413h2.256l20.438-25.021h-25.678zm54.157-15.794h-4.217l-6.255 7.661h13.457v8.133h-20.098l-20.438 25.021h37.551c3.537 0 6.413-2.876 6.413-6.413v-27.986c0-3.537-2.876-6.416-6.413-6.416z"/></svg>