<svg width="64" height="64" viewBox="0 0 64 64" xmlns="http://www.w3.org/2000/svg"><title>06021declinedcardL</title><path d="M53.512 6.087l-2.556-2.087-43.76 53.58 2.553 2.087 43.762-53.58zm-47.977 20.502h23.785l6.152-7.534h-29.937v7.534zm50.166-16.986h-1.981l-1.926 2.358h3.907c3.277 0 5.941 2.664 5.941 5.941v25.924c0 3.277-2.664 5.941-5.941 5.941h-34.784l-1.926 2.358h36.71c4.576 0 8.299-3.722 8.299-8.299v-25.924c0-4.576-3.722-8.299-8.299-8.299zm-45.312 40.164h-2.09c-3.277 0-5.941-2.664-5.941-5.941v-25.924c0-3.277 2.664-5.941 5.941-5.941h32.967l1.926-2.358h-34.893c-4.576 0-8.299 3.722-8.299 8.299v25.924c0 4.576 3.722 8.299 8.299 8.299h.164l1.926-2.358zm48.077-30.711h-12.465l-6.152 7.534h18.617v-7.534zm-4.27 11.808h-10.586c-.896 0-1.628.732-1.628 1.628v2.085c0 .896.732 1.628 1.628 1.628h10.586c.896 0 1.628-.732 1.628-1.628v-2.085c0-.896-.732-1.628-1.628-1.628z"/></svg>