<svg width="64" height="64" viewBox="0 0 64 64" xmlns="http://www.w3.org/2000/svg"><title>06021declinedcardC</title><path d="M52.653 40.089c0 2.28-1.852 4.132-4.13 4.132h-24.19l13.165-16.12h12.948v-5.237h-8.669l4.03-4.935h2.716c2.278 0 4.13 1.852 4.13 4.13v18.029zm-41.228-18.029c0-2.278 1.854-4.13 4.132-4.13h22.926l-4.03 4.935h-20.818v5.237h16.541l-13.167 16.12h-1.452c-2.278 0-4.132-1.852-4.132-4.132v-18.029zm2.576 28.471l32.574-39.882 1.901 1.552-32.574 39.882-1.901-1.552zm33.474-19.456h-7.364c-.622 0-1.133.509-1.133 1.133v1.45c0 .622.511 1.133 1.133 1.133h7.364c.622 0 1.133-.511 1.133-1.133v-1.45c0-.624-.511-1.133-1.133-1.133zm-15.475-31.075c-17.674 0-32.001 14.327-32.001 32.001s14.327 32.001 32.001 32.001 31.999-14.327 31.999-32.001-14.325-32.001-31.999-32.001z"/></svg>