<svg width="64" height="64" viewBox="0 0 64 64" xmlns="http://www.w3.org/2000/svg"><title>04003deductrwrdsC</title><path d="M49.011 28l-.122.235-2.103 2.857-.021.026v.002l.666 3.518.009.262c-.036.258-.192.491-.433.619l-3.049 1.609-.09.047-.028.015-.926 3.458c-.094.35-.401.597-.766.61l-3.543.137-.034.002-2.334 2.714c-.16.181-.395.284-.634.284-.109 0-.22-.021-.322-.066l-3.281-1.436-3.281 1.434c-.102.045-.211.066-.322.066-.237 0-.474-.1-.631-.284l-2.315-2.686-.023-.026-3.578-.139c-.363-.015-.672-.26-.764-.612l-.917-3.424-.009-.034-3.166-1.668-.213-.16c-.179-.188-.262-.454-.211-.721l.659-3.486.006-.032v-.002l-2.125-2.88c-.215-.294-.215-.689 0-.981l2.106-2.854.019-.028v-.004l-.006-.032-.659-3.482c-.068-.358.102-.715.425-.883l3.138-1.653.028-.015.928-3.458c.092-.35.399-.597.764-.61l3.546-.137h.032l2.336-2.716.019-.017c.064-.07.145-.126.23-.169l.105-.041.203-.043.111-.009.25.051.038.009 3.279 1.436 3.281-1.434.115-.03.16-.032.134.011.179.036.122.049.19.137.055.047 2.313 2.688.023.026 3.578.137c.363.015.67.258.764.608l.926 3.456v.002l.002.004 3.164 1.666c.241.128.397.361.433.617.011.085.009.175-.009.265l-.666 3.516v.004l2.125 2.882.122.235.038.254-.038.256zm-1.664 23.516c-.141.162-.333.25-.538.25l-.083-.004c-.188-.002-.25-.023-.367-.077l-6.253-2.921-.068-.032-2.95 6.327c-.139.288-.431.476-.749.476h-.036c-.335-.015-.627-.228-.74-.546l-3.563-7.977-3.561 7.977c-.115.316-.405.529-.736.546h-.041c-.32 0-.614-.19-.749-.478l-2.948-6.325-6.323 2.95c-.299.141-.666.083-.909-.137-.245-.228-.331-.576-.218-.892l3.253-8.943c.422.7 1.167 1.161 2.018 1.193l2.861.109 1.867 2.17c.471.546 1.156.858 1.882.858.343 0 .676-.07.99-.209l2.613-1.141 2.62 1.146c.314.137.642.205.983.205.721 0 1.404-.307 1.873-.847l1.875-2.18 2.859-.109c.853-.032 1.6-.493 2.02-1.197l3.191 8.77c.092.134.141.294.141.459 0 .213-.079.425-.215.58zm-17.297-26.259c0-.783.651-1.158 1.487-1.19v2.46c-.937-.25-1.487-.548-1.487-1.269zm2.49 3.81c.902.22 1.536.565 1.536 1.363.002.708-.467 1.242-1.536 1.333v-2.697zm-3.693.958l-1.621 1.254c.77 1.158 2.323 2.178 4.311 2.321v.798h1.003v-.815c2.423-.203 3.81-1.613 3.81-3.415-.002-2.135-1.99-2.948-3.81-3.422v-2.647c.834.156 1.487.565 2.071 1.252l1.519-1.205c-.834-1.101-2.238-1.743-3.59-1.899v-.847h-1.003v.783c-2.208.081-3.793 1.38-3.793 3.279 0 2.289 2.323 3.042 3.793 3.356v2.933c-1.137-.126-2.106-.783-2.69-1.726zm13.084-2.278c0 5.472-4.454 9.926-9.926 9.926-5.474 0-9.929-4.454-9.929-9.926 0-5.476 4.454-9.929 9.929-9.929 5.472 0 9.926 4.452 9.926 9.929zm-9.929-11.569c-6.377 0-11.567 5.19-11.567 11.569 0 6.377 5.19 11.567 11.567 11.567 6.381 0 11.569-5.19 11.569-11.567 0-6.379-5.188-11.569-11.569-11.569zm-.002-16.177c-17.673 0-32 14.327-32 32 0 17.675 14.327 32 32 32 17.673 0 32-14.325 32-32 0-17.673-14.327-32-32-32z"/></svg>