<svg width="64" height="64" viewBox="0 0 64 64" xmlns="http://www.w3.org/2000/svg"><title>04003deductrwrdsL</title><path d="M32.337 29.764v-3.887c1.298.317 2.212.815 2.212 1.966 0 1.018-.674 1.785-2.212 1.922zm-1.446-7.543c-1.346-.364-2.142-.793-2.142-1.831 0-1.128.939-1.668 2.142-1.714v3.546zm1.446.313v-3.812c1.201.223 2.14.811 2.984 1.803l2.188-1.737c-1.201-1.584-3.224-2.51-5.172-2.735v-1.219h-1.446v1.128c-3.178.115-5.463 1.99-5.463 4.722 0 3.297 3.347 4.381 5.463 4.833v4.224c-1.637-.181-3.03-1.128-3.874-2.486l-2.336 1.807c1.108 1.668 3.347 3.138 6.21 3.343v1.15h1.446v-1.175c3.488-.291 5.485-2.325 5.485-4.921 0-3.074-2.863-4.246-5.485-4.927zm21.067 1.505l-2.799 3.797c-.194.267-.273.604-.209.928l.89 4.714-.071.037-4.169 2.197c-.293.154-.509.428-.595.745l-1.245 4.639-.079.002-4.711.176c-.331.013-.643.163-.855.412l-3.127 3.634-4.399-1.924c-.302-.13-.654-.128-.952 0l-4.399 1.924-3.127-3.636c-.214-.247-.527-.397-.857-.41l-4.791-.183-1.243-4.637c-.084-.315-.302-.591-.593-.745l-4.244-2.235.015-.082.879-4.632c.062-.324-.015-.659-.212-.926l-2.845-3.861.048-.064 2.796-3.799c.196-.264.273-.602.212-.926l-.892-4.716.071-.035 4.174-2.199c.293-.156.507-.428.593-.745l1.243-4.634.082-.002 4.709-.178c.331-.015.643-.165.857-.412l3.127-3.638 4.396 1.924c.304.134.648.137.952 0l4.396-1.922 3.131 3.636c.212.247.524.397.853.412l4.793.181 1.243 4.637c.084.317.3.588.595.745l4.24 2.232-.013.084-.877 4.632c-.064.324.015.661.209.928l2.847 3.861-.048.064zm-2.759 31.048l-.24-.115-7.34-3.427c-.289-.134-.615-.15-.908-.037-.297.104-.542.326-.672.61l-3.541 7.592-.09-.249-4.727-12.991 3.158 1.38c.485.209 1.047.071 1.377-.313l3.363-3.907.048-.002 5.102-.192.051-.011.084-.018.084-.007.029.079 4.224 11.607zm-25.47 4.623l-.112-.242-3.427-7.345c-.132-.289-.37-.507-.668-.615-.297-.108-.637-.09-.91.037l-7.585 3.541 4.253-11.688.084.007.086.018.048.011 5.148.196.033.037 3.332 3.872c.331.383.906.513 1.377.311l3.158-1.38-4.817 13.24zm30.71-36.44l-3.059-4.152.009-.048.95-5.018c.099-.511-.148-1.025-.613-1.274l-4.557-2.4-.013-.046-1.322-4.936c-.134-.505-.577-.859-1.102-.879l-5.152-.198-.031-.037-3.334-3.87c-.335-.388-.912-.518-1.377-.313l-4.725 2.065-4.725-2.067c-.469-.205-1.042-.071-1.377.313l-3.363 3.909-.048.002-5.102.196c-.527.02-.97.375-1.104.879l-1.333 4.98-.042.022-4.52 2.38c-.465.245-.71.758-.613 1.274l.959 5.066-.029.037-3.03 4.114c-.311.421-.311.987 0 1.41l3.059 4.15-.009.046-.952 5.02c-.097.516.148 1.029.613 1.274l4.562 2.404.767 2.865-.013.033-6.003 16.501c-.163.452-.04.954.315 1.283.348.317.877.399 1.307.196l9.108-4.249 4.249 9.11c.194.416.617.688 1.075.688h.059c.476-.022.895-.328 1.06-.785l5.13-14.099 5.132 14.099c.163.456.582.762 1.067.785h.051c.456 0 .879-.269 1.078-.685l4.249-9.112.099.046 9.006 4.205c.17.079.258.108.527.112l.121.007c.295 0 .571-.128.773-.359.196-.223.311-.529.311-.837 0-.236-.068-.467-.201-.661l-5.923-16.276.767-2.863.042-.022 4.515-2.382c.465-.247.712-.76.613-1.274l-.959-5.066.029-.04 3.03-4.112c.313-.423.313-.989 0-1.41zm-24.322 15.88c-8.367 0-15.175-6.809-15.175-15.175 0-8.37 6.807-15.177 15.175-15.177 8.37 0 15.177 6.807 15.177 15.177 0 8.365-6.807 15.175-15.177 15.175zm0-31.839c-9.187 0-16.662 7.475-16.662 16.664 0 9.187 7.475 16.662 16.662 16.662 9.189 0 16.664-7.475 16.664-16.662 0-9.189-7.475-16.664-16.664-16.664z"/></svg>