<svg width="64" height="64" viewBox="0 0 64 64" xmlns="http://www.w3.org/2000/svg"><title>04003deductrwrdsF</title><path d="M31.566 40.634c-9.188 0-16.664-7.477-16.664-16.664 0-9.188 7.477-16.664 16.664-16.664 9.19 0 16.664 7.477 16.664 16.664 0 9.188-7.474 16.664-16.664 16.664zm.774-8.253v1.172h-1.444v-1.149c-2.867-.206-5.103-1.677-6.213-3.344l2.337-1.807c.843 1.357 2.234 2.305 3.874 2.488v-4.228c-2.118-.45-5.464-1.535-5.464-4.831 0-2.734 2.284-4.607 5.464-4.724v-1.128h1.444v1.22c1.951.226 3.97 1.151 5.174 2.737l-2.188 1.736c-.843-.991-1.784-1.581-2.986-1.805v3.815c2.625.681 5.487 1.853 5.489 4.927 0 2.597-1.999 4.63-5.487 4.923zm-.774-23.588c-8.367 0-15.175 6.805-15.175 15.177 0 8.367 6.807 15.175 15.175 15.175 8.372 0 15.179-6.807 15.179-15.175 0-8.372-6.807-15.177-15.179-15.177zm-2.814 11.591c0 1.039.795 1.469 2.145 1.832v-3.548c-1.206.048-2.145.587-2.145 1.716zm3.586 5.489v3.886c1.542-.135 2.216-.902 2.214-1.921 0-1.149-.914-1.647-2.214-1.965zm16.842 18.208c-.605 1.014-1.681 1.679-2.91 1.725l-4.119.158-2.7 3.141c-.676.774-1.661 1.22-2.7 1.22-.491 0-.964-.101-1.416-.295l-3.774-1.654-3.765 1.647c-.45.199-.93.299-1.425.299-1.044 0-2.031-.448-2.709-1.234l-2.691-3.125-4.119-.16c-1.229-.046-2.303-.708-2.908-1.716l-4.687 12.884c-.162.452-.041.955.315 1.284.347.318.877.4 1.307.196l9.11-4.251 4.247 9.11c.194.418.619.69 1.078.69h.057c.477-.023.895-.329 1.062-.786l5.128-11.49 5.133 11.49c.164.457.583.765 1.067.786h.053c.457 0 .879-.27 1.076-.685l4.251-9.114.101.048 9.007 4.205c.169.078.258.107.525.112l.121.007c.297 0 .571-.13.774-.361.196-.224.311-.528.311-.836 0-.238-.071-.468-.203-.662l-4.596-12.632zm6.885-20.479c-.039-.119-.096-.233-.174-.338l-3.061-4.153v-.005l.959-5.067c.025-.128.027-.256.011-.379-.053-.37-.276-.704-.624-.889l-4.559-2.401v-.007h-.002l-1.334-4.98c-.135-.503-.576-.854-1.099-.875l-5.153-.199-.032-.037-3.333-3.872-.08-.066c-.082-.078-.174-.146-.274-.199l-.174-.069-.258-.055-.194-.014-.231.048-.167.043-4.726 2.065-4.724-2.07-.055-.014c-.114-.043-.235-.069-.359-.073l-.16.011-.292.062-.151.059c-.123.064-.238.142-.331.244l-.03.023-3.363 3.911-.048.002-5.105.196c-.525.018-.969.375-1.103.879l-1.334 4.98-.041.023-4.518 2.38c-.464.244-.71.758-.612 1.275l.948 5.014.009.046v.005l-.027.041-3.031 4.112c-.311.423-.311.989 0 1.412l3.059 4.151v.005l-.009.046-.95 5.021c-.073.384.046.765.306 1.039.087.091.19.169.306.231l4.559 2.403.014.046 1.32 4.936c.135.505.578.859 1.103.879l5.153.199.032.037 3.333 3.872c.228.265.571.409.911.409.158 0 .318-.032.464-.096l4.726-2.067 4.726 2.07c.148.064.306.096.464.096.343 0 .683-.146.914-.409l3.363-3.911.048-.002 5.103-.196c.528-.018.971-.372 1.103-.879l1.334-4.98.043-.023.128-.066 4.39-2.316c.347-.187.573-.521.624-.893.016-.123.014-.251-.011-.377l-.959-5.067.002-.002.027-.041 3.031-4.112c.078-.105.135-.222.174-.34.039-.119.059-.242.057-.368.002-.123-.018-.247-.057-.365z"/></svg>