<svg width="64" height="64" viewBox="0 0 64 64" xmlns="http://www.w3.org/2000/svg"><title>05013deletephotoL</title><path d="M41.353 53.923c.728 0 1.32-.589 1.32-1.32v-36.24c0-.728-.592-1.317-1.32-1.317-.728 0-1.32.589-1.32 1.317v36.24c0 .73.592 1.32 1.32 1.32zm-9.744 0c.73 0 1.32-.589 1.32-1.32v-36.24c0-.728-.589-1.317-1.32-1.317-.728 0-1.317.589-1.317 1.317v36.24c0 .73.589 1.32 1.317 1.32zm-9.742 0c.728 0 1.32-.589 1.32-1.32v-36.24c0-.728-.592-1.317-1.32-1.317-.728 0-1.32.589-1.32 1.317v36.24c0 .73.592 1.32 1.32 1.32zm28.347 3.858c0 1.973-1.607 3.58-3.583 3.58h-30.037c-1.973 0-3.58-1.607-3.58-3.58v-47.261h37.2v47.261zm-24.762-52.397h12.091v-2.811h-12.091v2.811zm28.019 0h-13.289v-2.876c0-1.382-1.126-2.507-2.507-2.507h-12.266c-1.382 0-2.507 1.126-2.507 2.507v2.876h-13.334c-1.415 0-2.567 1.152-2.567 2.57 0 1.415 1.152 2.567 2.567 2.567h.807v47.261c0 3.429 2.79 6.219 6.219 6.219h30.037c3.432 0 6.219-2.79 6.219-6.219v-47.261h.62c1.418 0 2.57-1.152 2.57-2.567 0-1.418-1.152-2.57-2.57-2.57z"/></svg>