<svg width="64" height="64" viewBox="0 0 64 64" xmlns="http://www.w3.org/2000/svg"><title>05013deletephotoF</title><path d="M20.2 19.888c0-.841.682-1.523 1.523-1.523.841 0 1.523.682 1.523 1.523v36.9c0 .841-.682 1.52-1.523 1.52-.841 0-1.523-.679-1.523-1.52v-36.9zm9.921 0c0-.841.682-1.523 1.523-1.523.841 0 1.52.682 1.52 1.523v36.9c0 .841-.679 1.52-1.52 1.52s-1.523-.679-1.523-1.52v-36.9zm9.921 0c0-.841.682-1.523 1.523-1.523.841 0 1.52.682 1.52 1.523v36.9c0 .841-.679 1.52-1.52 1.52s-1.523-.679-1.523-1.52v-36.9zm-14.425-14.786h11.865v-2.06h-11.865v2.06zm28.259 0h-13.351v-2.371c0-1.506-1.224-2.732-2.729-2.732h-12.493c-1.506 0-2.729 1.226-2.729 2.732v2.371h-13.4c-1.751 0-3.173 1.422-3.173 3.173 0 1.648 1.275 2.96 2.881 3.117h45.289c1.606-.157 2.881-1.469 2.881-3.117 0-1.751-1.425-3.173-3.175-3.173zm-42.538 53.908c0 2.744 2.246 4.99 4.99 4.99h30.584c2.744 0 4.99-2.246 4.99-4.99v-44.575h-40.564v44.575z"/></svg>