<svg width="64" height="64" viewBox="0 0 64 64" xmlns="http://www.w3.org/2000/svg"><title>05013deletephotoC</title><path d="M45.654 18.803h-26.572c-.942-.091-1.69-.861-1.69-1.826 0-1.029.835-1.864 1.862-1.864h7.739v-1.39c0-.884.718-1.603 1.603-1.603h7.328c.884 0 1.603.718 1.603 1.603v1.39h7.955c1.027 0 1.864.835 1.864 1.864 0 .965-.748 1.734-1.692 1.826zm-1.33 27.94c0 1.609-1.316 2.927-2.927 2.927h-17.945c-1.611 0-2.929-1.318-2.929-2.927v-26.155h23.8v26.155zm-17.836-.412c.493 0 .893-.4.893-.895v-21.649c0-.493-.4-.893-.893-.893-.495 0-.895.4-.895.893v21.649c0 .495.4.895.895.895zm2.291-31.218h6.963v-1.209h-6.963v1.209zm9.35 31.218c.493 0 .893-.4.893-.895v-21.649c0-.493-.4-.893-.893-.893s-.893.4-.893.893v21.649c0 .495.4.895.893.895zm-5.821 0c.493 0 .893-.4.893-.895v-21.649c0-.493-.4-.893-.893-.893s-.893.4-.893.893v21.649c0 .495.4.895.893.895zm-.306-46.332c-17.673 0-32 14.327-32 32 0 17.673 14.327 32 32 32 17.673 0 32-14.327 32-32 0-17.673-14.327-32-32-32z"/></svg>