<svg width="64" height="64" viewBox="0 0 64 64" xmlns="http://www.w3.org/2000/svg"><title>05013deletephotoS</title><path d="M12 18v40c0 3.3 2.7 6 6 6h28c3.3 0 6-2.7 6-6v-40h-40zm10 39c0 1.105-.895 2-2 2s-2-.895-2-2v-32c0-1.105.895-2 2-2s2 .895 2 2v32zm24 0c0 1.105-.895 2-2 2s-2-.895-2-2v-32c0-1.105.895-2 2-2s2 .895 2 2v32zm-12 0c0 1.105-.895 2-2 2s-2-.895-2-2v-32c0-1.105.895-2 2-2s2 .895 2 2v32zm-24-43h44c2.209 0 4-1.791 4-4s-1.791-4-4-4h-12v-4c0-1.105-.895-2-2-2h-16c-1.105 0-2 .895-2 2v4h-12c-2.209 0-4 1.791-4 4s1.791 4 4 4zm18-10h8c1.105 0 2 .895 2 2s-.895 2-2 2h-8c-1.105 0-2-.895-2-2s.895-2 2-2z"/></svg>