<svg width="64" height="64" viewBox="0 0 64 64" xmlns="http://www.w3.org/2000/svg"><title>03024devdeliveredF</title><path d="M50.79 30.201h-2.7v-9.452h-32.406v9.452h-2.7c-1.484 0-2.7 1.214-2.7 2.7v24.303c0 2.971 2.432 5.401 5.401 5.401h32.406c2.971 0 5.401-2.43 5.401-5.401v-24.303c0-1.487-1.214-2.7-2.7-2.7zm-9.452 0h2.7v-6.752h-2.7v6.752zm-5.401 0h2.7v-6.752h-2.7v6.752zm-5.401 0h2.7v-6.752h-2.7v6.752zm-5.401 0h2.7v-6.752h-2.7v6.752zm-5.401 0h2.7v-6.752h-2.7v6.752zm21.765 27.19h-4.532l-.002-5.819h-8.062c-.118.197-3.582 5.817-3.582 5.817h-4.773l14.043-22.585h6.907v22.587zm-9.612-42.494c.746 0 1.349-.606 1.349-1.351v-10.801c0-.746-.603-1.349-1.349-1.349s-1.351.603-1.351 1.349v10.801c0 .746.606 1.351 1.351 1.351zm10.405 1.12c.118.032.234.047.35.047.598 0 1.142-.399 1.305-1.002l2.794-10.434c.192-.719-.234-1.46-.955-1.652-.716-.192-1.46.234-1.652.955l-2.796 10.432c-.192.721.234 1.462.955 1.654zm16.889-7.641c-.574-.48-1.425-.404-1.903.165l-6.942 8.273c-.48.574-.406 1.425.165 1.903.254.214.561.318.866.318.386 0 .768-.165 1.034-.482l6.944-8.276c.48-.571.406-1.423-.165-1.9zm-40.052 6.686c.162.603.709 1.002 1.305 1.002.116 0 .234-.015.35-.047.721-.192 1.147-.933.955-1.654l-2.796-10.432c-.192-.721-.933-1.152-1.654-.955-.719.192-1.147.933-.953 1.652l2.794 10.434zm-7.422 3.973c.305 0 .613-.103.866-.318.571-.478.645-1.329.167-1.9l-6.944-8.276c-.478-.571-1.332-.645-1.903-.165-.571.478-.645 1.329-.165 1.9l6.942 8.276c.268.318.65.482 1.036.482zm25.694 28.537v-8.994s-5.194 8.448-5.538 8.994h5.538z"/></svg>