<svg width="64" height="64" viewBox="0 0 64 64" xmlns="http://www.w3.org/2000/svg"><title>03022devprocessF</title><path d="M17.508 24.926v16.337c0 1.997 1.634 3.631 3.631 3.631h21.781c1.997 0 3.631-1.634 3.631-3.631v-16.337c0-.998-.817-1.815-1.815-1.815h-1.815v-6.353h-21.781v6.353h-1.815c-.998 0-1.815.817-1.815 1.815zm20.983 16.461h-3.046l-.002-3.91h-5.419c-.079.132-2.409 3.91-2.409 3.91h-3.206l9.438-15.181h4.644v15.181zm-.109-18.276h1.815v-4.538h-1.815v4.538zm-3.631 0h1.815v-4.538h-1.815v4.538zm-3.629 0h1.815v-4.538h-1.815v4.538zm-3.631 0h1.815v-4.538h-1.815v4.538zm-3.631 0h1.815v-4.538h-1.815v4.538zm11.876 11.678v-6.046s-3.492 5.679-3.723 6.046h3.723zm-3.738-29.495c-10.722 0-19.968 6.417-24.113 15.612l4.45 1.193c3.571-7.26 11.042-12.267 19.663-12.267 10.522 0 19.332 7.458 21.427 17.365h-4.183l6.353 9.075 6.353-9.075h-3.906c-2.159-12.425-13.011-21.903-26.044-21.903zm19.473 36.446c-3.639 7.059-10.999 11.898-19.473 11.898-10.522 0-19.332-7.458-21.427-17.365h4.183l-6.353-9.075-6.353 9.075h3.906c2.159 12.425 13.011 21.903 26.044 21.903 10.577 0 19.718-6.244 23.942-15.236l-4.469-1.199z"/></svg>