<svg width="64" height="64" viewBox="0 0 64 64" xmlns="http://www.w3.org/2000/svg"><title>03025devpluginF</title><path d="M46.396 37.421h-2.065v-7.228h-24.779v7.228h-2.065c-1.137 0-2.067.93-2.067 2.065v18.584c0 2.272 1.86 4.132 4.132 4.132h24.779c2.272 0 4.13-1.86 4.13-4.132v-18.584c0-1.135-.928-2.065-2.065-2.065zm-7.226 0h2.065v-5.163h-2.065v5.163zm-4.13 0h2.065v-5.163h-2.065v5.163zm-4.132 0h2.065v-5.163h-2.065v5.163zm-4.13 0h2.065v-5.163h-2.065v5.163zm-4.13 0h2.065v-5.163h-2.065v5.163zm16.644 20.792h-3.465l-.002-4.45h-6.165c-.09.151-2.739 4.448-2.739 4.448h-3.65l10.739-17.271h5.282v17.272zm5.039-56.416h-24.779c-2.278 0-4.13 1.854-4.13 4.132v6.195c0 2.278 1.852 4.13 4.13 4.13h24.779c2.278 0 4.132-1.852 4.132-4.13v-6.195c0-2.278-1.854-4.132-4.132-4.132zm-24.779 10.327v-6.195h24.779l.004 6.195h-24.783zm7.226-1.033h2.065v-4.13h-2.065v4.13zm4.13 0h2.065v-4.13h-2.065v4.13zm4.132 0h2.065v-4.13h-2.065v4.13zm4.13 0h2.065v-4.13h-2.065v4.13zm-16.521 0h2.065v-4.13h-2.065v4.13zm2.065 16.006h14.456l-7.228-9.293-7.228 9.293zm11.445 23.608v-6.878s-3.972 6.46-4.235 6.878h4.235z"/></svg>