<svg width="64" height="64" viewBox="0 0 64 64" xmlns="http://www.w3.org/2000/svg"><title>03023devshippingF</title><path d="M62.266 23.083h-2.34l2.98-7.398h-28.083l-2.982 7.398h-2.34c-1.286 0-2.724.951-3.191 2.114l-7.667 19.025c-.937 2.325.403 4.226 2.976 4.226h28.085c2.575 0 5.449-1.901 6.385-4.226l7.667-19.025c.467-1.163-.203-2.114-1.489-2.114zm-6.063-5.284h2.342l-2.131 5.284h-2.34l2.129-5.284zm-4.681 0h2.34l-2.129 5.284h-2.34l2.129-5.284zm-4.681 0h2.34l-2.129 5.284h-2.34l2.129-5.284zm-4.681 0h2.34l-2.129 5.284h-2.34l2.129-5.284zm-4.681 0h2.34l-2.129 5.284h-2.34l2.129-5.284zm8.156 26.569h-3.927l1.833-4.555h-6.985c-.166.154-4.941 4.553-4.941 4.553h-4.137l19.296-17.679h5.986l-7.125 17.681zm-.454-7.686l2.837-7.04s-7.166 6.613-7.637 7.04h4.8zm-36.894-9.879h14.042c.646 0 1.171-.525 1.171-1.171s-.525-1.169-1.171-1.169h-14.042c-.646 0-1.171.523-1.171 1.169s.525 1.171 1.171 1.171zm-2.34 5.85h14.042c.646 0 1.171-.523 1.171-1.169s-.525-1.171-1.171-1.171h-14.042c-.646 0-1.171.525-1.171 1.171s.525 1.169 1.171 1.169zm12.873 4.681c0-.646-.525-1.169-1.171-1.169h-14.042c-.646 0-1.171.523-1.171 1.169s.525 1.171 1.171 1.171h14.042c.646 0 1.171-.525 1.171-1.171zm-3.511 4.681h-14.042c-.646 0-1.171.525-1.171 1.171s.525 1.169 1.171 1.169h14.042c.646 0 1.171-.523 1.171-1.169s-.525-1.171-1.171-1.171z"/></svg>