<svg width="64" height="64" viewBox="0 0 64 64" xmlns="http://www.w3.org/2000/svg"><title>07003digitallockerL</title><path d="M0 31.999c0 17.674 14.327 32.001 32.001 32.001 17.672 0 31.999-14.327 31.999-32.001 0-17.672-14.327-31.999-31.999-31.999-17.674 0-32.001 14.327-32.001 31.999zm6.217 11.715l2.983-1.285c.444-.185.657-.699.472-1.142-.185-.446-.699-.659-1.142-.474l-2.987 1.287c-1.103-2.88-1.749-5.984-1.847-9.224h5.169c.481 0 .874-.395.874-.876 0-.479-.393-.874-.874-.874h-5.169c.097-3.22.736-6.307 1.828-9.173l2.733 1.199c.444.185.958-.029 1.142-.474.185-.444-.029-.958-.474-1.142l-2.728-1.199c1.298-2.858 3.058-5.463 5.182-7.721l3.644 3.644c.34.34.898.34 1.237 0 .34-.338.34-.896 0-1.237l-3.644-3.644c2.287-2.151 4.927-3.928 7.827-5.228l1.153 2.774c.185.446.699.659 1.142.474.446-.185.659-.699.474-1.142l-1.151-2.772c2.836-1.068 5.885-1.691 9.066-1.788v5.169c0 .481.395.874.876.874.479 0 .874-.393.874-.874v-5.169c3.201.097 6.269.729 9.121 1.808l-1.114 2.752c-.182.444.031.958.474 1.142.444.185.958-.029 1.142-.474l1.114-2.752c2.878 1.3 5.503 3.069 7.774 5.206l-3.646 3.644c-.338.34-.338.898 0 1.237.34.34.898.34 1.239 0l3.644-3.644c2.135 2.267 3.899 4.885 5.2 7.759l-2.471 1.046c-.444.182-.657.696-.474 1.142.185.444.699.657 1.144.472l2.469-1.043c1.083 2.856 1.718 5.929 1.814 9.136h-5.169c-.481 0-.874.395-.874.874 0 .481.393.876.874.876h5.169c-.099 3.26-.753 6.384-1.869 9.279l-2.691-1.138c-.444-.185-.958.029-1.142.474-.185.444.029.958.474 1.142l2.68 1.133c-1.292 2.818-3.034 5.388-5.134 7.62l-3.644-3.646c-.34-.338-.898-.338-1.239 0-.338.34-.338.898 0 1.239l3.646 3.644c-2.276 2.142-4.903 3.91-7.787 5.211l-1.101-2.757c-.185-.446-.699-.659-1.142-.474-.444.185-.657.699-.474 1.142l1.101 2.757c-2.847 1.076-5.911 1.707-9.107 1.803v-5.169c0-.481-.395-.874-.874-.874-.481 0-.876.393-.876.874v5.169c-3.203-.097-6.271-.729-9.123-1.81l1.208-3.025c.185-.444-.029-.958-.474-1.142-.444-.185-.958.029-1.142.472l-1.208 3.027c-2.878-1.298-5.5-3.067-7.772-5.204l3.644-3.644c.34-.34.34-.898 0-1.239-.338-.338-.896-.338-1.237 0l-3.644 3.646c-2.113-2.245-3.864-4.835-5.16-7.673zm7.48-11.715c0 10.111 8.194 18.305 18.305 18.305 10.109 0 18.303-8.194 18.303-18.305 0-10.109-8.194-18.303-18.303-18.303-10.111 0-18.305 8.194-18.305 18.303zm8.899-3.262l9.406-8.253 9.272 8.297v13.553h-18.678v-13.597zm-2.996-1.03l12.402-11.078 12.4 11.078h-2.476l-9.947-8.993-9.949 8.993h-2.432zm13.272 11.289h2.913v-3.684h-2.913v3.684zm0-5.402h2.913v-3.684h-2.913v3.684zm-4.729 5.402h2.913v-3.684h-2.913v3.684zm0-5.402h2.913v-3.684h-2.913v3.684z"/></svg>