<svg width="64" height="64" viewBox="0 0 64 64" xmlns="http://www.w3.org/2000/svg"><title>07003digitallockerC</title><path d="M32 0c-17.673 0-32 14.327-32 32 0 17.673 14.327 32 32 32 17.673 0 32-14.327 32-32 0-17.673-14.327-32-32-32zm-.091 56.195c-13.404 0-24.271-10.869-24.271-24.274 0-13.406 10.867-24.274 24.271-24.274 13.406 0 24.274 10.867 24.274 24.274 0 13.404-10.867 24.274-24.274 24.274zm16.887-24.274c0-.365.298-.663.663-.663h3.92c-.074-2.433-.556-4.765-1.375-6.93l-1.876.792c-.336.139-.727-.023-.866-.361-.139-.336.021-.727.359-.866l1.874-.792c-.984-2.18-2.323-4.165-3.941-5.887l-2.765 2.767c-.26.258-.682.258-.94 0-.258-.258-.258-.68 0-.94l2.765-2.765c-1.724-1.62-3.713-2.961-5.897-3.948l-.843 2.089c-.139.338-.53.498-.868.359-.336-.142-.498-.53-.359-.868l.845-2.087c-2.163-.817-4.491-1.297-6.92-1.371v3.92c0 .365-.298.663-.663.663-.365 0-.663-.298-.663-.663v-3.92c-2.412.074-4.727.547-6.877 1.356l.872 2.102c.142.338-.021.727-.359.868-.336.139-.727-.021-.866-.359l-.874-2.106c-2.199.986-4.203 2.334-5.937 3.965l2.765 2.765c.258.26.258.682 0 .94-.258.258-.68.258-.938 0l-2.765-2.767c-1.612 1.715-2.947 3.692-3.931 5.859l2.07.908c.338.139.498.53.359.868-.139.336-.53.498-.866.359l-2.072-.91c-.828 2.173-1.314 4.516-1.388 6.96h3.922c.363 0 .663.298.663.663 0 .365-.3.663-.663.663h-3.922c.076 2.457.566 4.812 1.403 6.998l2.264-.978c.338-.139.729.023.868.361.139.336-.021.727-.359.866l-2.262.974c.982 2.154 2.311 4.117 3.914 5.821l2.765-2.765c.258-.26.68-.26.938 0 .258.258.258.68 0 .938l-2.765 2.765c1.724 1.622 3.713 2.961 5.895 3.948l.917-2.296c.139-.336.53-.498.866-.359.338.139.501.53.359.866l-.915 2.296c2.163.82 4.491 1.299 6.92 1.373v-3.92c0-.365.298-.665.663-.665.365 0 .663.3.663.665v3.92c2.425-.074 4.75-.551 6.909-1.369l-.834-2.091c-.139-.336.023-.727.359-.866.338-.139.729.021.868.359l.834 2.091c2.188-.986 4.18-2.328 5.906-3.952l-2.765-2.765c-.258-.258-.258-.68 0-.938.258-.26.68-.26.94 0l2.765 2.765c1.59-1.692 2.913-3.644 3.893-5.779l-2.034-.862c-.336-.139-.498-.53-.359-.866.139-.338.53-.498.868-.359l2.04.864c.847-2.199 1.341-4.567 1.417-7.04h-3.92c-.365 0-.663-.298-.663-.663zm-16.887 13.884c-7.667 0-13.884-6.216-13.884-13.884 0-7.669 6.216-13.886 13.884-13.886 7.669 0 13.886 6.216 13.886 13.886 0 7.667-6.216 13.884-13.886 13.884zm-9.406-17.141h1.844l7.545-6.82 7.547 6.82h1.878l-9.408-8.402-9.406 8.402zm2.273.782v10.314h14.169v-10.28l-7.036-6.294-7.133 6.261zm4.208 7.781h2.209v-2.794h-2.209v2.794zm0-4.096h2.209v-2.797h-2.209v2.797zm3.587 0h2.209v-2.797h-2.209v2.797zm0 4.096h2.209v-2.794h-2.209v2.794z"/></svg>