<svg width="64" height="64" viewBox="0 0 64 64" xmlns="http://www.w3.org/2000/svg"><title>03014directiondetL</title><path d="M62.032 29.036l-27.088-27.088c-1.6-1.602-4.408-1.602-6.006 0l-26.97 26.968c-1.656 1.658-1.656 4.35 0 6.006l27.088 27.088c.8.802 1.866 1.242 3.004 1.242s2.204-.44 3.004-1.242l26.968-26.966c.802-.8 1.242-1.868 1.242-3.004s-.44-2.202-1.242-3.004zm-1.832 4.174l-26.968 26.968c-.622.62-1.72.624-2.344 0l-27.088-27.088c-.644-.646-.644-1.694 0-2.34l26.97-26.97c.31-.31.726-.48 1.17-.48.446 0 .86.17 1.172.48l27.088 27.088c.31.31.482.726.482 1.172 0 .444-.172.86-.482 1.17zm-12.638-6.862l-9.786-9.966c-.312-.318-.732-.496-1.18-.5-.446-.002-.868.168-1.186.482l-2.128 2.1c-.654.646-.662 1.71-.018 2.366l3.27 3.33h-10.13v-.014l-1.306.006c-2.526.012-4.566 2.062-4.566 4.588v15.46c0 .572.464 1.038 1.036 1.038l4.5.006c.574.002 1.04-.464 1.04-1.038v-12.194c0-.708.574-1.282 1.282-1.282h8.318l-3.442 3.504c-.644.656-.636 1.722.018 2.37l2.124 2.1c.32.314.742.484 1.188.482.448-.004.868-.182 1.18-.5l9.786-9.968c.308-.314.48-.73.48-1.174l-.002-.01.002-.01c0-.444-.172-.862-.48-1.176z"/></svg>