<svg width="64" height="64" viewBox="0 0 64 64" xmlns="http://www.w3.org/2000/svg"><title>03014directiondetC</title><path d="M32 1.732c-16.716 0-30.268 13.552-30.268 30.268 0 16.718 13.552 30.268 30.268 30.268s30.268-13.55 30.268-30.268c0-16.716-13.552-30.268-30.268-30.268zm20.082 31.738l-18.512 18.514c-.788.788-2.078.788-2.866 0l-18.596-18.596c-.788-.788-.788-2.076 0-2.866l18.514-18.512c.788-.788 2.076-.788 2.866 0l18.594 18.594c.788.788.788 2.078 0 2.866zm-9.304-5.34l-6.718-6.84c-.214-.22-.502-.342-.81-.344-.306-.002-.596.116-.814.33l-1.462 1.442c-.448.444-.454 1.174-.012 1.624l2.246 2.288h-6.954v-.012l-.898.006c-1.732.008-3.134 1.416-3.134 3.148v10.614c0 .394.318.712.712.712l3.09.004c.392.002.712-.318.712-.712v-8.37c0-.486.394-.882.882-.882h5.708l-2.362 2.406c-.442.45-.436 1.182.012 1.626l1.458 1.442c.22.216.51.334.816.332.308-.004.596-.126.81-.344l6.718-6.842c.212-.214.328-.502.328-.806v-.014c0-.304-.116-.592-.328-.808z"/></svg>