<svg width="64" height="64" viewBox="0 0 64 64" xmlns="http://www.w3.org/2000/svg"><title>03014directiondetF</title><path d="M49.122 27.265c0 .474-.181.92-.512 1.253l-10.444 10.641c-.333.339-.781.529-1.26.534-.478.002-.927-.179-1.268-.515l-2.267-2.242c-.698-.69-.707-1.83-.019-2.53l3.674-3.74h-8.879c-.756 0-1.369.613-1.369 1.369v13.019c0 .611-.497 1.108-1.11 1.108l-4.804-.009c-.611 0-1.106-.495-1.106-1.108v-16.503c0-2.694 2.178-4.885 4.874-4.898l1.394-.006v.015h10.814l-3.491-3.555c-.687-.7-.679-1.836.019-2.526l2.272-2.242c.339-.335.788-.517 1.266-.515.478.004.927.194 1.26.534l10.444 10.639c.331.335.512.781.512 1.255l-.002.011.002.011zm13.958 2.571l-28.916-28.916c-1.225-1.225-3.232-1.225-4.456 0l-28.79 28.79c-1.225 1.225-1.225 3.23 0 4.456l28.916 28.916c1.225 1.225 3.232 1.225 4.458 0l28.788-28.788c1.225-1.225 1.225-3.232 0-4.458z"/></svg>