<svg width="64" height="64" viewBox="0 0 64 64" xmlns="http://www.w3.org/2000/svg"><title>06035dislikeF</title><path d="M62.644 16.632c0 1.985-1.618 3.601-3.603 3.601h-4.743c-.61 0-1.106.496-1.106 1.106 0 .607.496 1.103 1.106 1.103h5.774c1.985.002 3.601 1.618 3.601 3.601v.959c0 1.985-1.615 3.601-3.601 3.601l-5.774.002c-.61 0-1.106.493-1.106 1.103s.496 1.106 1.106 1.106h4.743c1.985 0 3.603 1.615 3.603 3.601v.978c0 1.985-1.618 3.603-3.603 3.603h-15.436c-.414 0-1.45.072-2.055.754-.463.524-.628 1.369-.491 2.509.233 1.934.596 4.832.943 7.585.414 3.275.882 6.987.943 7.671.233 2.579-1.215 3.605-2.472 4.015l-.931.3c-1.869.61-3.94-.465-4.536-2.311-2.339-7.671-6.256-19.192-7.636-20.761-1.327-1.287-4.627-3.496-6.57-4.727v-32.252c2.516-1.378 5.409-2.076 8.607-2.076h27.543c1.985 0 3.603 1.615 3.603 3.601v.957c0 1.985-1.618 3.603-3.603 3.603h-4.399c-.61 0-1.103.493-1.103 1.103s.493 1.106 1.103 1.106h6.501c1.981 0 3.594 1.618 3.594 3.603v.959zm-47.539 21.943h-12.55c-1.408 0-2.556-1.145-2.556-2.556v-33.464c0-1.408 1.147-2.556 2.556-2.556h12.55c1.408 0 2.556 1.147 2.556 2.556v33.464c0 1.41-1.147 2.556-2.556 2.556z"/></svg>