<svg width="64" height="64" viewBox="0 0 64 64" xmlns="http://www.w3.org/2000/svg"><title>06035dislikeL</title><path d="M51.115 18.639h4.012c1.375 0 2.495-1.122 2.495-2.495v-.896c0-1.375-1.119-2.497-2.495-2.497l-5.583.002c-.735 0-1.334-.598-1.334-1.331v-.943c0-.735.598-1.331 1.334-1.331h3.733c1.347-.035 2.432-1.143 2.432-2.497v-.894c0-1.375-1.119-2.497-2.495-2.497h-25.207c-2.923 0-5.527.647-7.741 1.92l-.291.168v27.48l.272.175c.489.305 4.836 3.058 6.442 4.613 1.359 1.313 5.497 13.866 7.945 21.983.419 1.285 1.79 2.041 3.144 1.617l.854-.279c1.341-.435 1.843-1.371 1.627-3.039-.191-1.482-2.388-16.931-2.581-18.29-.193-1.359.917-1.99 2.206-1.99h15.241c1.375 0 2.495-1.119 2.495-2.495v-.896c0-1.375-1.119-2.495-2.495-2.495h-4.012c-.735 0-1.334-.598-1.334-1.334v-.94c0-.735.598-1.331 1.334-1.331h4.955c1.375 0 2.497-1.122 2.497-2.495v-.894c0-1.378-1.122-2.497-2.497-2.497h-4.955c-.735 0-1.334-.598-1.334-1.331v-.94c0-.735.598-1.331 1.334-1.331zm-46.45 15.811h12.649v-31.786h-12.649v31.786zm55.622-18.306c0 1.294-.484 2.534-1.364 3.489l-.451.489.545.384c1.387.97 2.213 2.551 2.213 4.233v.894c0 1.68-.826 3.263-2.213 4.231l-.545.382.451.489c.88.957 1.364 2.197 1.364 3.493v.896c0 2.844-2.313 5.16-5.16 5.16h-14.659l.449 3.158c.719 5.087 1.853 13.082 1.985 14.115.519 4.001-1.936 5.425-3.442 5.916l-.854.275c-.514.17-1.052.254-1.59.254-2.246 0-4.219-1.434-4.913-3.565-2.618-8.678-6.081-18.888-7.336-20.938l-.107-.13c-1.215-1.094-3.966-2.907-4.778-3.437l-.419-.27-.333.37c-.619.689-1.496 1.085-2.402 1.085h-11.483c-1.79 0-3.247-1.457-3.247-3.244v-30.622c0-1.79 1.457-3.247 3.247-3.247h11.483c1.25 0 2.367.71 2.914 1.848l.247.507.512-.228c2.306-1.012 4.866-1.529 7.606-1.529h25.207c2.846 0 5.16 2.313 5.16 5.16v.894c0 1.15-.368 2.234-1.068 3.142l-.424.549.617.321c1.72.896 2.788 2.653 2.788 4.585v.896z"/></svg>