<svg width="64" height="64" viewBox="0 0 64 64" xmlns="http://www.w3.org/2000/svg"><title>06027documentC</title><path d="M49.852 49.741c0 1.858-1.509 3.372-3.364 3.376l-27.349.019c-1.754 0-3.181-1.426-3.181-3.181l-.013-37.004c0-.849.33-1.648.93-2.248.6-.6 1.399-.93 2.248-.93h17.222c1.686 0 3.321.698 4.488 1.914l7.296 7.628c1.111 1.16 1.722 2.682 1.722 4.29v26.136zm-12.358-29.589c0 1.262.926 2.231 2.188 2.231h7.96l-10.148-10.708v8.477zm-5.492-20.152c-17.674 0-32.001 14.327-32.001 31.999 0 17.674 14.327 32.001 32.001 32.001 17.672 0 31.999-14.327 31.999-32.001 0-17.672-14.327-31.999-31.999-31.999z"/></svg>