<svg width="64" height="64" viewBox="0 0 64 64" xmlns="http://www.w3.org/2000/svg"><title>06027documentL</title><path d="M54.133 58.844c0 1.214-.971 2.2-2.167 2.203h-40.235c-1.041-.003-1.886-.85-1.886-1.889l-.021-54.446c0-.505.196-.982.554-1.335.353-.356.827-.549 1.335-.549h26.517v11.58c0 2.675 1.992 4.692 4.63 4.692h11.273v39.743zm.278-44.793l-10.735-11.219c-1.721-1.801-4.136-2.832-6.622-2.832h-25.342c-1.26 0-2.443.492-3.332 1.381-.892.892-1.381 2.077-1.381 3.334l.021 54.446c0 2.597 2.113 4.71 4.71 4.71l.003.129v-.129l40.238-.026c2.749-.01 4.986-2.255 4.986-5.001v-38.455c0-2.376-.904-4.625-2.546-6.339z"/></svg>