<svg width="64" height="64" viewBox="0 0 64 64" xmlns="http://www.w3.org/2000/svg"><title>07002drivewiseF</title><path d="M32 0c-17.672 0-32 14.328-32 32s14.328 32 32 32 32-14.328 32-32-14.328-32-32-32zm0 53.19c-11.703 0-21.19-9.487-21.19-21.19 0-11.703 9.487-21.188 21.19-21.188 11.703 0 21.188 9.485 21.188 21.188s-9.485 21.19-21.188 21.19zm-9.259-21.195c0-.35-.441-.749-.753-.937-.315-.188-3.954-2.636-4.676-3.106-.722-.472-1.46-.66-1.836.204-.377.862-.534 2.747-.534 3.839s.157 2.977.534 3.839c.377.864 1.114.676 1.836.204.722-.47 4.362-2.917 4.676-3.106.312-.188.753-.587.753-.937zm8.333-10.024c.188.315.585.753.937.753.35 0 .747-.439.935-.753.188-.315 2.636-3.954 3.108-4.676.47-.722.658-1.46-.204-1.836-.864-.377-2.747-.534-3.839-.534-1.094 0-2.977.157-3.841.534-.862.377-.673 1.114-.204 1.836.472.722 2.92 4.362 3.108 4.676zm-6.814 16.45c-.354.089-4.661.933-5.502 1.11-.844.177-1.5.565-1.154 1.442.343.875 1.564 2.319 2.337 3.09.773.775 2.215 1.996 3.092 2.339.877.343 1.265-.31 1.442-1.154.177-.844 1.021-5.148 1.11-5.505.089-.354.12-.946-.128-1.194s-.842-.217-1.196-.128zm21.004 1.11c-.844-.177-5.15-1.021-5.505-1.11-.354-.089-.948-.12-1.194.128-.248.248-.219.84-.131 1.194.089.357.933 4.661 1.11 5.505.177.844.567 1.497 1.442 1.154.877-.343 2.319-1.564 3.092-2.339.773-.771 1.994-2.215 2.339-3.09.343-.877-.312-1.265-1.154-1.442zm-3.232-8.473c-.312.188-.753.587-.753.937 0 .35.441.749.753.937.315.188 3.956 2.636 4.678 3.106.72.472 1.458.66 1.834-.204.377-.862.534-2.747.534-3.839s-.157-2.977-.534-3.839c-.377-.864-1.114-.676-1.834-.204-.722.47-4.364 2.917-4.678 3.106zm-10.032-4.032c-2.747 0-4.973 2.226-4.973 4.973s2.226 4.973 4.973 4.973 4.973-2.226 4.973-4.973-2.226-4.973-4.973-4.973zm.946 14.992c-.188-.315-.585-.753-.935-.753-.352 0-.749.439-.937.753-.188.312-2.636 3.954-3.108 4.676-.47.722-.658 1.46.204 1.836.864.377 2.747.532 3.841.532 1.092 0 2.975-.155 3.839-.532.862-.377.673-1.114.204-1.836-.472-.722-2.92-4.364-3.108-4.676zm-8.471-23.277c-.177-.844-.565-1.497-1.442-1.154-.877.343-2.319 1.564-3.092 2.337-.773.773-1.994 2.217-2.337 3.092-.346.877.31 1.265 1.154 1.442.842.177 5.148 1.021 5.502 1.11.354.089.948.12 1.196-.128s.217-.84.128-1.194c-.089-.357-.933-4.661-1.11-5.505zm15.285 6.827c.354-.089 4.661-.933 5.505-1.11.842-.177 1.497-.565 1.154-1.442-.346-.875-1.566-2.319-2.339-3.092-.773-.773-2.215-1.994-3.092-2.337-.875-.343-1.265.31-1.442 1.154-.177.844-1.021 5.148-1.11 5.505-.089.354-.117.946.131 1.194.246.248.84.217 1.194.128z"/></svg>