<svg width="64" height="64" viewBox="0 0 64 64" xmlns="http://www.w3.org/2000/svg"><title>07002drivewiseC</title><path d="M32 0c-17.673 0-32 14.327-32 32 0 17.673 14.327 32 32 32 17.673 0 32-14.327 32-32 0-17.673-14.327-32-32-32zm-.034 53.897c-12.044 0-21.809-9.765-21.809-21.811s9.765-21.811 21.809-21.811c12.046 0 21.811 9.765 21.811 21.811s-9.765 21.811-21.811 21.811zm0-36.252c-7.976 0-14.441 6.465-14.441 14.441 0 7.976 6.465 14.441 14.441 14.441 7.978 0 14.443-6.465 14.443-14.441 0-7.976-6.465-14.441-14.443-14.441zm11.279 11.822c.256.587.363 1.871.363 2.617s-.108 2.028-.363 2.615c-.258.589-.76.46-1.253.139-.492-.319-2.974-1.99-3.187-2.116-.213-.129-.513-.399-.513-.638s.3-.511.513-.638c.213-.129 2.695-1.8 3.187-2.119.492-.321.995-.45 1.253.139zm-1.451 8.734c-.234.598-1.067 1.582-1.593 2.11-.528.526-1.51 1.358-2.108 1.593-.598.232-.862-.211-.984-.786-.12-.577-.695-3.51-.756-3.753-.059-.241-.08-.644.089-.815.169-.167.572-.148.815-.087.241.059 3.175.636 3.749.756.577.12 1.022.387.788.982zm-9.828-2.725c-1.871 0-3.388-1.517-3.388-3.39 0-1.871 1.517-3.39 3.388-3.39 1.874 0 3.39 1.519 3.39 3.39 0 1.874-1.517 3.39-3.39 3.39zm2.625 7.876c-.589.258-1.871.365-2.617.365s-2.03-.108-2.617-.365c-.589-.256-.46-.758-.139-1.25s1.99-2.974 2.119-3.187c.127-.215.399-.513.638-.513s.509.298.638.513c.129.213 1.797 2.695 2.119 3.187.321.492.448.995-.139 1.25zm-7.084-15.736c-.169.167-.572.148-.815.087-.241-.059-3.177-.636-3.751-.756-.575-.12-1.02-.387-.786-.982.234-.598 1.067-1.582 1.593-2.108.528-.528 1.51-1.358 2.108-1.595.598-.232.862.213.982.788.123.575.697 3.508.756 3.751.061.241.082.644-.087.815zm.087 9.748c-.059.243-.634 3.177-.756 3.753-.12.575-.384 1.018-.982.786-.598-.234-1.58-1.067-2.108-1.593-.526-.528-1.358-1.512-1.593-2.11-.234-.596.211-.862.786-.982.575-.12 3.51-.697 3.751-.756.243-.061.646-.08.815.087.169.171.148.575.087.815zm-6.89-2.666c-.258-.587-.363-1.869-.363-2.615 0-.746.106-2.03.363-2.617.258-.589.76-.46 1.25-.139.492.319 2.974 1.99 3.189 2.119.213.127.513.399.513.638s-.3.509-.513.638c-.215.127-2.697 1.797-3.189 2.116-.49.321-.993.45-1.25-.139zm8.654-13.886c.587-.258 1.871-.363 2.617-.363s2.028.106 2.617.363c.587.256.46.758.139 1.25s-1.99 2.974-2.119 3.187c-.129.215-.399.515-.638.515s-.511-.3-.638-.515c-.129-.213-1.797-2.695-2.119-3.187-.321-.492-.45-.995.139-1.25zm6.996 5.988c.061-.243.636-3.177.756-3.751.123-.575.387-1.02.984-.788.598.237 1.58 1.067 2.108 1.595.526.526 1.358 1.51 1.593 2.108.234.596-.211.862-.788.982-.575.12-3.508.697-3.749.756-.243.061-.646.08-.815-.087-.169-.171-.148-.575-.089-.815z"/></svg>