<svg width="64" height="64" viewBox="0 0 64 64" xmlns="http://www.w3.org/2000/svg"><title>02047dunebuggyF</title><path d="M42.665 31.368l-4.077-4.346 2.139-2.075c.417-.403.427-1.067.023-1.482-.403-.415-1.067-.425-1.482-.023l-5.758 5.585c-.415.403-.425 1.067-.023 1.482.206.213.479.32.754.32.262 0 .526-.099.731-.297l2.112-2.048 3.181 3.392c-2.568.493-5.492.9-8.489 1.003-2.649.091-4.992-.012-7.059-.219l-3.989-15.261h.01c1.338.188 15.374 1.825 17.914 2.12l10.1 10.149c-.846.287-3.086 1.01-6.086 1.699zm-28.148-1.117c-.221-.118-.45-.221-.681-.324l-.052-.027-.206-.091c-.886-.378-1.821-.657-2.795-.824 2.296-3.084 7.354-9.877 7.973-10.696l3.683 14.097c-4.088-.615-6.73-1.608-7.922-2.135zm44.315-.275c-1.695-.789-3.506-1.189-5.386-1.189-.801 0-1.581.078-2.343.221l-11.01-11.062c.101-.832-.045-1.945-.136-2.335-.06-.256-.248-1.024-.789-.993-1.284.087-3.101 1.617-3.912 2.358-5.068-.593-13.248-1.553-14.222-1.689-1.1-.151-2.68.01-3.939 1.664-.543.712-7.267 9.745-8.832 11.846-2.009.054-3.991.576-5.748 1.532-.518.281-.71.929-.429 1.447.281.516.929.706 1.447.427 1.544-.84 3.297-1.282 5.068-1.282 1.474 0 2.88.301 4.158.846.091.054.407.221.939.458 3.295 1.809 5.535 5.31 5.535 9.327 0 .588.477 1.065 1.065 1.065h21.448c.588 0 1.067-.477 1.067-1.065 0-5.863 4.769-10.632 10.632-10.632 1.567 0 3.076.332 4.484.989.535.248 1.169.017 1.418-.516.248-.535.017-1.169-.516-1.418zm-3.716 11.586c0 .925-.749 1.674-1.674 1.674-.923 0-1.672-.749-1.672-1.674 0-.925.749-1.672 1.672-1.672.925 0 1.674.747 1.674 1.672zm-1.336 4.385c-2.424.184-4.544-1.637-4.728-4.061-.186-2.422 1.637-4.544 4.061-4.728 2.422-.184 4.542 1.637 4.726 4.061.184 2.422-1.637 4.544-4.059 4.728zm7.31-3.817c.574-.054.997-.559.943-1.133-.054-.57-.553-.991-1.119-.946h-.017l-.017.002c-.126-.63-.31-1.235-.58-1.794l.043-.031c.471-.332.582-.983.252-1.453-.332-.469-.983-.58-1.453-.252l-.004.004c-.419-.475-.896-.886-1.416-1.243l.029-.06c.242-.522.012-1.144-.51-1.385-.512-.233-1.115-.017-1.367.487-.593-.2-1.224-.299-1.866-.347l-.006-.06c-.052-.572-.549-1.03-1.129-.946-.574.052-.997.557-.948 1.131l.002.014c-.644.13-1.263.32-1.833.599-.306-.487-.946-.638-1.437-.332-.487.306-.638.948-.332 1.437l.05.081c-.458.411-.857.875-1.204 1.383l-.068-.031c-.52-.242-1.142-.019-1.385.504-.242.52-.019 1.133.498 1.381-.198.588-.295 1.214-.341 1.854l-.078.006c-.574.052-.999.557-.948 1.131.052.57.549.991 1.117.948l.014-.002.033-.002c.128.626.312 1.226.58 1.784l-.056.039c-.471.33-.584.983-.254 1.453.219.312.578.469.933.44.18-.012.359-.074.518-.186l.025-.017c.417.469.89.879 1.408 1.233l-.039.083c-.242.522-.014 1.144.508 1.385.167.076.345.107.518.093.361-.027.7-.244.865-.599.588.198 1.214.297 1.85.345l.006.083c.052.57.551.989 1.119.946h.014c.572-.052.997-.557.943-1.131l-.002-.033c.626-.126 1.228-.31 1.786-.578l.039.056c.219.31.578.465.931.438.184-.012.363-.074.52-.188.471-.33.584-.981.252-1.451l-.01-.017c.471-.415.882-.89 1.239-1.408l.074.035c.167.076.345.105.516.093.365-.029.704-.248.867-.603.239-.518.017-1.127-.495-1.375.2-.59.303-1.218.351-1.858l.07-.006zm-50.82-.568c0 .925-.749 1.674-1.674 1.674-.925 0-1.672-.749-1.672-1.674 0-.925.747-1.672 1.672-1.672.925 0 1.674.747 1.674 1.672zm-1.336 4.385c-2.424.184-4.544-1.637-4.73-4.061-.184-2.422 1.639-4.544 4.061-4.728 2.422-.184 4.544 1.637 4.726 4.061.186 2.422-1.635 4.544-4.057 4.728zm7.31-3.817c.574-.054.995-.559.943-1.133-.056-.57-.553-.991-1.119-.946h-.017l-.017.002c-.126-.63-.31-1.235-.58-1.794l.041-.031c.473-.332.584-.983.254-1.453-.334-.469-.983-.58-1.453-.252l-.006.004c-.417-.475-.894-.886-1.414-1.243l.027-.06c.242-.522.014-1.144-.508-1.385-.512-.233-1.117-.017-1.367.487-.593-.2-1.224-.299-1.866-.347l-.006-.06c-.052-.572-.549-1.03-1.131-.946-.572.052-.997.557-.946 1.131l.002.014c-.644.13-1.263.32-1.833.599-.306-.487-.946-.638-1.437-.332-.487.306-.638.948-.332 1.437l.05.081c-.458.411-.859.875-1.204 1.383l-.07-.031c-.52-.242-1.142-.019-1.385.504-.242.52-.017 1.133.5 1.381-.198.588-.295 1.214-.343 1.854l-.078.006c-.572.052-.997.557-.946 1.131.05.57.549.991 1.117.948l.014-.002.033-.002c.126.626.312 1.226.58 1.784l-.056.039c-.471.33-.584.983-.254 1.453.219.312.578.469.933.44.18-.012.359-.074.518-.186l.025-.017c.417.469.89.879 1.406 1.233l-.037.083c-.244.522-.017 1.144.508 1.385.167.076.345.107.516.093.363-.027.702-.244.867-.599.588.198 1.212.297 1.85.345l.006.083c.052.57.551.989 1.117.946h.014c.574-.052.997-.557.946-1.131l-.004-.033c.628-.126 1.23-.31 1.788-.578l.039.056c.219.31.576.465.931.438.182-.012.361-.074.52-.188.471-.33.582-.981.252-1.451l-.012-.017c.473-.415.884-.89 1.239-1.408l.076.035c.167.076.343.105.514.093.365-.029.706-.248.869-.603.237-.518.017-1.127-.495-1.375.2-.59.301-1.218.351-1.858l.07-.006z"/></svg>