<svg width="64" height="64" viewBox="0 0 64 64" xmlns="http://www.w3.org/2000/svg"><title>02047dunebuggyL</title><path d="M42.012 40.687h-20.016c-.213-2.547-1.154-4.892-2.615-6.824 1.444.339 3.133.647 5.082.869l.17.028.03-.002c1.793.196 3.793.317 6.012.317.705 0 1.431-.011 2.179-.038 4.564-.158 8.9-.943 12.238-1.738-1.721 2.032-2.847 4.583-3.08 7.388zm-27.029-10.557c-.232-.121-.471-.228-.709-.337l-.053-.028-.213-.094c-.914-.39-1.878-.677-2.884-.85 2.368-3.182 7.586-10.189 8.225-11.032l3.802 14.542c-4.213-.633-6.939-1.657-8.168-2.202zm6.411-13.258c1.38.192 15.86 1.881 18.48 2.185l10.419 10.47c-.873.296-3.182 1.041-6.279 1.753l-4.206-4.483 2.206-2.14c.43-.415.441-1.101.023-1.529-.415-.428-1.101-.439-1.529-.023l-5.94 5.761c-.428.415-.439 1.101-.023 1.529.213.219.494.33.777.33.27 0 .543-.102.754-.307l2.179-2.113 3.282 3.497c-2.649.511-5.665.929-8.758 1.037-2.732.094-5.148-.011-7.28-.221l-4.117-15.747.011.002zm34.087 29.448c-2.5.19-4.688-1.689-4.877-4.189-.192-2.5 1.689-4.688 4.187-4.877 2.5-.19 4.688 1.689 4.877 4.189.19 2.498-1.689 4.688-4.187 4.877zm7.541-3.938c.592-.055 1.029-.577.973-1.169-.055-.588-.571-1.022-1.154-.975h-.017l-.017.002c-.13-.65-.319-1.274-.598-1.851l.045-.032c.486-.343.601-1.014.26-1.499-.345-.483-1.014-.598-1.499-.26l-.004.004c-.432-.49-.924-.914-1.461-1.282l.028-.062c.251-.539.015-1.18-.524-1.429-.528-.241-1.15-.017-1.41.503-.611-.207-1.263-.309-1.925-.358l-.006-.062c-.053-.592-.567-1.063-1.165-.975-.592.053-1.029.575-.978 1.167l.002.015c-.664.134-1.303.33-1.891.618-.315-.503-.975-.658-1.482-.343-.503.315-.658.978-.343 1.482l.051.083c-.473.424-.884.903-1.242 1.427l-.072-.032c-.535-.249-1.176-.019-1.429.52-.249.537-.017 1.169.515 1.425-.204.607-.305 1.252-.351 1.913l-.081.006c-.592.053-1.031.575-.978 1.167.051.586.567 1.022 1.152.978l.015-.002.034-.002c.132.645.322 1.265.598 1.84l-.058.04c-.486.343-.603 1.014-.262 1.499.226.322.596.483.963.454.185-.013.371-.077.535-.192l.026-.017c.43.483.918.907 1.452 1.271l-.04.085c-.249.539-.015 1.18.524 1.429.173.079.356.111.535.096.373-.028.722-.251.892-.618.607.204 1.252.307 1.908.356l.006.085c.053.588.569 1.02 1.154.978l.015-.002c.59-.053 1.029-.575.973-1.167l-.002-.034c.645-.13 1.267-.319 1.842-.596l.04.058c.226.319.594.479.961.452.187-.013.375-.077.537-.194.486-.341.603-1.012.26-1.497l-.011-.017c.486-.428.909-.918 1.278-1.452l.077.036c.173.077.356.109.532.096.377-.03.726-.256.895-.622.247-.535.017-1.163-.511-1.418.207-.609.311-1.257.362-1.917l.072-.006zm-7.891-2.311c-.952 0-1.725.771-1.725 1.725 0 .954.773 1.727 1.725 1.727.954 0 1.727-.773 1.727-1.727 0-.954-.773-1.725-1.727-1.725zm-46.263 0c-.954 0-1.727.771-1.727 1.725 0 .954.773 1.727 1.727 1.727.954 0 1.727-.773 1.727-1.727 0-.954-.773-1.725-1.727-1.725zm.349 6.249c-2.5.19-4.688-1.689-4.879-4.189-.19-2.5 1.691-4.688 4.189-4.877 2.498-.19 4.688 1.689 4.875 4.189.192 2.498-1.687 4.688-4.185 4.877zm7.36-6.083h-.017l-.017.002c-.13-.65-.319-1.274-.598-1.851l.043-.032c.488-.343.603-1.014.262-1.499-.345-.483-1.014-.598-1.499-.26l-.006.004c-.43-.49-.922-.914-1.459-1.282l.028-.062c.249-.539.015-1.18-.524-1.429-.528-.241-1.152-.017-1.41.503-.611-.207-1.263-.309-1.925-.358l-.006-.062c-.053-.592-.567-1.063-1.167-.975-.59.053-1.029.575-.975 1.167l.002.015c-.664.134-1.303.33-1.891.618-.315-.503-.975-.658-1.482-.343-.503.315-.658.978-.343 1.482l.051.083c-.473.424-.886.903-1.242 1.427l-.072-.032c-.537-.249-1.178-.019-1.429.52-.249.537-.017 1.169.515 1.425-.204.607-.305 1.252-.354 1.913l-.081.006c-.59.053-1.029.575-.975 1.167.051.586.567 1.022 1.152.978l.015-.002.034-.002c.13.645.322 1.265.598 1.84l-.058.04c-.486.343-.603 1.014-.262 1.499.226.322.596.483.963.454.185-.013.371-.077.535-.192l.026-.017c.43.483.918.907 1.45 1.271l-.038.085c-.251.539-.017 1.18.524 1.429.173.079.356.111.532.096.375-.028.724-.251.895-.618.607.204 1.25.307 1.908.356l.006.085c.053.588.569 1.02 1.152.978l.015-.002c.592-.053 1.029-.575.975-1.167l-.004-.034c.647-.13 1.269-.319 1.844-.596l.04.058c.226.319.594.479.961.452.187-.013.373-.077.537-.194.486-.341.601-1.012.26-1.497l-.013-.017c.488-.428.912-.918 1.278-1.452l.079.036c.173.077.354.109.53.096.377-.03.728-.256.897-.622.245-.535.017-1.163-.511-1.418.207-.609.311-1.257.362-1.917l.072-.006c.592-.055 1.027-.577.973-1.169-.058-.588-.571-1.022-1.154-.975zm38.557-9.42c1.616 0 3.173.345 4.626 1.022.552.256 1.205.017 1.461-.532.258-.552.019-1.205-.53-1.463-1.746-.814-3.616-1.227-5.557-1.227-.826 0-1.634.081-2.417.228l-11.358-11.411c.104-.858-.047-2.004-.141-2.409-.062-.264-.245-1.052-.816-1.024-1.323.089-3.197 1.668-4.034 2.432-5.229-.611-13.667-1.602-14.672-1.742-1.137-.158-2.764.011-4.064 1.717-.56.733-7.495 10.052-9.111 12.221-2.072.055-4.117.594-5.929 1.58-.535.29-.733.958-.443 1.493.292.532.958.733 1.493.441 1.593-.867 3.401-1.325 5.226-1.325 1.525 0 2.977.315 4.296.88.102.055.422.226.963.469 3.399 1.864 5.712 5.478 5.712 9.622 0 .607.492 1.099 1.099 1.099h22.126c.607 0 1.101-.492 1.101-1.099 0-6.049 4.92-10.97 10.968-10.97z"/></svg>