<svg width="64" height="64" viewBox="0 0 64 64" xmlns="http://www.w3.org/2000/svg"><title>02047dunebuggyC</title><path d="M34.487 25.79c.437-.425.448-1.122.026-1.557-.425-.437-1.122-.448-1.559-.023l-6.048 5.867c-.437.422-.448 1.122-.023 1.557.215.224.501.335.789.335.277 0 .555-.102.768-.309l2.221-2.155 3.341 3.565c-2.699.518-5.769.945-8.919 1.054-2.782.096-3.821-.013-5.993-.228l-4.192-16.036.011.002c1.406.196 14.733 1.916 17.399 2.227l10.611 10.662c-.89.301-3.243 1.06-6.394 1.786l-4.284-4.565 2.246-2.18zm-21.662-6.995l3.87 14.81c-4.294-.644-7.072-1.69-8.322-2.242-.233-.124-.476-.23-.717-.341l-.053-.028-.218-.096c-.93-.395-1.914-.689-2.938-.866 2.413-3.238 7.727-10.377 8.378-11.236zm43.138 28.452c-.173.371-.529.604-.913.631-.179.015-.365-.017-.542-.096l-.079-.036c-.375.544-.806 1.043-1.301 1.481l.011.015c.35.495.233 1.18-.262 1.525-.166.119-.356.186-.546.198-.373.028-.749-.134-.979-.461l-.041-.058c-.587.282-1.22.474-1.877.608l.002.032c.055.604-.39 1.137-.992 1.19l-.015.002c-.597.045-1.12-.397-1.173-.994l-.009-.087c-.67-.049-1.325-.156-1.943-.363-.173.371-.529.599-.911.629-.181.013-.367-.017-.544-.098-.548-.254-.787-.907-.531-1.455l.041-.087c-.546-.371-1.041-.802-1.478-1.295l-.028.017c-.166.117-.354.181-.544.196-.373.028-.751-.134-.981-.463-.346-.495-.226-1.18.269-1.527l.058-.041c-.282-.585-.476-1.216-.61-1.875l-.034.004h-.015c-.597.045-1.12-.397-1.173-.994-.053-.604.393-1.135.994-1.188l.083-.009c.049-.672.151-1.329.358-1.948-.542-.258-.779-.905-.525-1.451.256-.548.909-.783 1.457-.529l.07.032c.365-.533.785-1.02 1.267-1.453l-.053-.085c-.32-.514-.162-1.188.35-1.508.516-.322 1.188-.164 1.51.348.597-.292 1.248-.491 1.924-.629v-.015c-.053-.602.39-1.135.994-1.188.61-.087 1.133.393 1.188.994l.004.064c.676.049 1.34.154 1.963.363.262-.529.896-.757 1.436-.512.548.254.787.907.533 1.455l-.03.064c.548.375 1.047.809 1.489 1.306l.004-.004c.495-.346 1.178-.228 1.527.265.348.495.23 1.178-.265 1.527l-.047.032c.286.589.478 1.222.612 1.884h.017l.015-.002c.595-.045 1.12.397 1.178.994.055.604-.39 1.137-.992 1.19l-.073.006c-.053.674-.16 1.333-.369 1.954.538.26.77.9.521 1.444zm-23.972-47.247c-17.001 0-30.897 13.259-31.93 29.999.574-.092 1.154-.147 1.739-.162 1.643-2.21 8.708-11.701 9.278-12.448 1.323-1.739 2.985-1.907 4.139-1.749 1.024.143 8.198 1.152 13.523 1.775.851-.779 2.761-2.385 4.109-2.479.576-.026.768.777.83 1.045.096.41.25 1.579.143 2.451l11.569 11.622c.798-.147 1.619-.23 2.46-.23 1.978 0 3.881.42 5.66 1.25.561.262.804.928.544 1.489-.262.561-.928.802-1.489.542-1.483-.689-3.068-1.039-4.715-1.039-6.159 0-11.17 5.011-11.17 11.172 0 .619-.501 1.12-1.12 1.12h-21.114c-.619 0-1.12-.501-1.12-1.12 0-4.222-2.353-7.9-5.815-9.801-.561-.25-.892-.427-.988-.48-1.344-.574-2.82-.892-4.369-.892-.725 0-1.449.073-2.155.211.009 1.097.073 2.178.19 3.245l.371-.096-.002-.015c-.053-.602.393-1.135.994-1.188.61-.087 1.135.393 1.188.994l.006.064c.674.049 1.338.154 1.961.363.265-.529.898-.757 1.436-.512.55.254.789.907.535 1.455l-.03.064c.546.375 1.047.809 1.487 1.306l.006-.004c.493-.346 1.175-.228 1.525.265.348.495.23 1.178-.265 1.527l-.045.032c.284.589.478 1.222.61 1.884h.017l.017-.002c.595-.045 1.118.397 1.175.994.055.604-.388 1.137-.99 1.19l-.075.006c-.051.674-.158 1.333-.369 1.954.538.26.772.9.521 1.444-.173.371-.529.604-.911.631-.181.015-.367-.017-.542-.096l-.079-.036c-.375.544-.806 1.043-1.301 1.481l.011.015c.348.495.23 1.18-.265 1.525-.166.119-.354.186-.546.198-.158.011-.316-.017-.463-.073 5.822 7.945 15.217 13.107 25.822 13.107 17.675 0 32-14.327 32-32 0-17.673-14.325-32-32-32zm-28.004 47.484c-.463-.836-.887-1.696-1.278-2.577.695-.235 1.201-.885 1.201-1.66 0-.971-.787-1.758-1.76-1.758-.241 0-.471.049-.683.137-.286-.911-.531-1.843-.736-2.79.341-.109.7-.188 1.073-.215 2.545-.194 4.772 1.722 4.966 4.267.154 2.02-1.022 3.836-2.784 4.597zm43.861-2.479c-.971 0-1.758-.787-1.758-1.758s.787-1.758 1.758-1.758 1.758.787 1.758 1.758-.787 1.758-1.758 1.758zm-.346-6.385c-2.547.194-4.461 2.421-4.267 4.969.194 2.545 2.421 4.461 4.966 4.267 2.545-.194 4.459-2.423 4.265-4.969-.192-2.545-2.421-4.461-4.964-4.267z"/></svg>