<?xml version="1.0" encoding="UTF-8" standalone="no"?>
<svg width="64px" height="64px" viewBox="0 0 64 64" version="1.1" xmlns="http://www.w3.org/2000/svg" xmlns:xlink="http://www.w3.org/1999/xlink">
    <!-- Generator: Sketch 41 (35326) - http://www.bohemiancoding.com/sketch -->
    <title>duplicate</title>
    
    <defs></defs>
    <g id="Actions" stroke="none" stroke-width="1" fill="none" fill-rule="evenodd">
        <g id="duplicate" fill="#000000">
            <path d="M43.008 35.478H31.69V24.409h-3.112v11.069H17.543V38.6h11.035v11.353h3.112V38.6h11.318zm2.829-24.976h-3.112V5.677C42.725 2.555 40.178 0 37.066 0H5.659C2.547 0 0 2.554 0 5.677v41.439c0 3.122 2.547 5.677 5.659 5.677h3.112v4.825c0 3.122 2.547 5.677 5.659 5.677h31.69c3.112 0 5.659-2.554 5.659-5.677V16.179c-.283-3.122-2.547-5.677-5.942-5.677zM8.771 16.179v33.775H5.659c-1.698 0-2.829-1.419-2.829-2.838V5.677c0-1.703 1.132-2.838 2.829-2.838h31.69c1.698 0 2.829 1.135 2.829 2.838v4.825H14.43c-3.112 0-5.659 2.554-5.659 5.677zm37.066 43.993H14.43c-1.698 0-2.829-1.419-2.829-2.838V16.179c0-1.703 1.132-2.838 2.829-2.838h31.69c1.698 0 2.829 1.135 2.829 2.838v41.155s.439 2.862-3.112 2.838z" fill="#444"></path>
        </g>
    </g>
</svg>