<svg width="64" height="64" viewBox="0 0 64 64" xmlns="http://www.w3.org/2000/svg"><title>05023dwnloadsaveS</title><path d="M61 44h-2c-1.65 0-3 1.35-3 3v9h-48v-9c0-1.65-1.35-3-3-3h-2c-1.65 0-3 1.35-3 3v14c0 1.65 1.35 3 3 3h58c1.65 0 3-1.35 3-3v-14c0-1.65-1.35-3-3-3zm-31.121 1.879c1.167 1.167 3.076 1.167 4.243 0l15.556-15.556c1.167-1.167 1.167-3.076 0-4.243l-1.414-1.414c-1.167-1.167-3.076-1.167-4.243 0l-8.021 8.02v-29.686c0-1.65-1.35-3-3-3h-2c-1.65 0-3 1.35-3 3v29.686l-8.02-8.02c-1.167-1.167-3.076-1.167-4.243 0l-1.414 1.414c-1.167 1.167-1.167 3.076 0 4.243l15.556 15.556z"/></svg>