<svg width="64" height="64" viewBox="0 0 64 64" xmlns="http://www.w3.org/2000/svg"><title>05023dwnloadsaveF</title><path d="M30.353 46.775c.948.948 2.48.948 3.429 0l16.98-16.983c.948-.946.948-1.667.003-2.615l-1.451-1.449c-.946-.946-1.67-.946-2.615 0l-11.758 11.758.003-29.046-.006-.032v-.558c0-1.339-.512-1.851-1.848-1.851h-2.052c-1.339 0-1.851.512-1.848 1.851l-.003 7.568h.006v22.067l-11.968-11.971c-.946-.946-1.67-.946-2.615 0l-1.449 1.451c-.948.946-.946 1.667 0 2.613l17.193 17.196zm32.414-3.015h-3.291c-.678 0-1.227.549-1.227 1.227v5.142c0 1.339-1.086 2.423-2.423 2.423h-47.655c-1.339 0-2.423-1.084-2.423-2.423v-5.142c0-.678-.549-1.227-1.23-1.227h-3.291c-.678 0-1.227.549-1.227 1.227v7.157c0 3.4 2.756 6.156 6.156 6.156h51.685c3.397 0 6.156-2.756 6.156-6.156v-7.157c0-.678-.552-1.227-1.23-1.227z"/></svg>