<svg width="64" height="64" viewBox="0 0 64 64" xmlns="http://www.w3.org/2000/svg"><title>05024dwnloadcldF</title><path d="M52.124 10.406c-1.456-2.713-6.333-10.111-16.341-10.402-9.037-.174-14.905 5.351-16.984 7.749-1.692-.085-4.608.128-7.345 2.194-2.692 2.033-3.667 5.151-4.017 6.971-4.684 2.122-7.436 6.535-7.436 12.051 0 7.269 6.698 11.768 12.902 11.768h3.63c.617 0 1.119-.5 1.119-1.119v-2.107c0-.617-.502-1.119-1.119-1.119h-3.63c-4.115 0-8.557-2.837-8.557-7.423 0-5.842 4.036-7.851 5.77-8.442l1.386-.484.083-1.46c.002-.035.224-3.459 2.49-5.168 2.42-1.829 5.057-1.267 5.149-1.251l1.427.339.852-1.188c.211-.289 5.112-6.974 13.671-6.974l.484.009c9.174.265 12.796 8.388 12.943 8.725l.426.991 1.041.267c.391.1 9.585 2.561 9.585 11.199 0 10.738-9.231 10.862-9.322 10.862h-4.314c-.617 0-1.117.502-1.117 1.119v2.107c0 .619.5 1.119 1.117 1.119h4.314c5.494 0 13.667-4.049 13.667-15.207 0-8.966-7.271-13.619-11.872-15.125zm-7.673 36.297c-.715-.713-1.26-.713-1.977.002l-8.885 8.887v-30.653l-.004-.022v-.424c0-1.01-.387-1.399-1.397-1.399h-1.551c-1.01 0-1.397.387-1.397 1.399v7.895h.004v23.202l-9.048-9.046c-.715-.715-1.26-.715-1.975 0l-1.097 1.097c-.717.715-.715 1.26 0 1.975l12.998 12.998c.715.715 1.873.715 2.59 0l12.835-12.837c.717-.717.719-1.26.002-1.977l-1.097-1.097z"/></svg>