<svg width="64" height="64" viewBox="0 0 64 64" xmlns="http://www.w3.org/2000/svg"><title>05024dwnloadcldS</title><path d="M45.846 44.811c-1.167-1.165-3.076-1.165-4.243 0l-5.603 5.595v-18.052c0-1.648-1.35-2.996-3-2.996h-2c-1.65 0-3 1.348-3 2.996v17.917l-5.468-5.46c-1.166-1.165-3.076-1.165-4.242 0l-1.415 1.412c-1.166 1.165-1.166 3.072 0 4.237l12.728 12.71c.672.671 1.584.909 2.465.807.881.102 1.792-.136 2.464-.807l12.728-12.71c1.167-1.165 1.167-3.072 0-4.237l-1.414-1.412zm3.736-33.609c-3.156-6.721-10.004-11.203-17.582-11.203-9.816 0-17.949 7.318-19.227 16.777h-.375c-6.836 0-12.398 5.555-12.398 12.381 0 6.216 4.625 11.326 10.608 12.202.286.091.576.181.892.181h2c1.65 0 3-1.348 3-2.996v-1.997c0-1.647-1.35-2.996-3-2.996h-1.102c-2.425 0-4.398-1.972-4.398-4.394s1.973-4.392 4.398-4.392h4.204c2.21 0 4-1.789 4-3.995v-1.398c0-6.278 5.113-11.384 11.398-11.384 5.062 0 9.57 3.407 10.965 8.287.492 1.714 2.062 2.896 3.847 2.896h1.989c3.969 0 7.199 3.226 7.199 7.191 0 3.963-3.23 7.189-7.199 7.189h-.801c-1.65 0-3 1.349-3 2.996v1.997c0 1.648 1.35 2.996 3 2.996h2c.414 0 .809-.086 1.169-.239 7.251-1.146 12.831-7.38 12.831-14.939 0-8.109-6.398-14.752-14.418-15.16z"/></svg>