<svg width="64" height="64" viewBox="0 0 64 64" xmlns="http://www.w3.org/2000/svg"><title>05024dwnloadcldL</title><path d="M45.199 38.273c-.467 0-.851.385-.851.851v1.18c0 .467.385.851.851.851h6.557l.765-.067c2.523-.347 11.484-2.465 11.484-14.989 0-9.666-9.606-13.709-12.151-14.611-1.256-2.272-6.499-10.489-16.518-10.489-9.182 0-14.929 5.979-16.639 8.039-1.545-.104-4.832-.002-7.37 2.034-2.938 2.354-3.698 5.534-3.896 7.141-2.507 1.151-7.43 4.332-7.43 11.5 0 6.548 6.046 11.442 11.446 11.442h5.801c.469 0 .851-.385.851-.851v-1.18c0-.467-.382-.851-.851-.851h-5.801c-3.881 0-8.564-3.818-8.564-8.559 0-6.288 4.916-8.602 6.423-9.162l.956-.358-.02-1.02c0-.033-.024-3.521 2.885-5.852 2.356-1.889 5.957-1.358 5.988-1.354l.885.144.518-.731c.056-.076 5.434-7.499 14.818-7.499 9.542 0 14.029 9.03 14.216 9.415l.28.576.607.18c.109.031 10.684 3.267 10.684 12.047 0 10.917-7.795 12.058-9.259 12.171l-6.663.002zm.64 9.8l-.785-.785c-.353-.347-.918-.347-1.269 0l-10.978 10.984v-33.375c0-.493-.405-.896-.898-.896h-1.109c-.491 0-.893.402-.893.896v33.437l-10.886-10.891c-.171-.167-.393-.26-.636-.26-.238 0-.462.093-.631.26l-.785.787c-.167.167-.26.391-.262.631 0 .24.093.465.26.633l13.727 13.725c.176.173.402.26.631.26.229 0 .458-.087.633-.26l13.88-13.88c.167-.167.26-.391.26-.631s-.091-.465-.26-.636z"/></svg>