<svg width="64" height="64" viewBox="0 0 64 64" xmlns="http://www.w3.org/2000/svg"><title>05024dwnloadcldC</title><path d="M44.967 38.253h-2.954c-.423 0-.765-.342-.765-.765v-1.443c0-.423.342-.765.765-.765h2.954c.064 0 6.385-.087 6.385-7.439 0-5.917-6.298-7.603-6.565-7.671l-.712-.183-.291-.68c-.102-.23-2.582-5.792-8.865-5.974l-.332-.004c-5.862 0-9.218 4.576-9.362 4.776l-.584.814-.976-.234c-.064-.011-1.868-.395-3.528.859-1.552 1.171-1.702 3.515-1.705 3.539l-.055.999-.95.332c-1.186.406-3.951 1.781-3.951 5.781 0 3.141 3.044 5.086 5.862 5.086h2.485c.423 0 .767.342.767.765v1.443c0 .423-.344.765-.767.765h-2.485c-4.251 0-8.837-3.082-8.837-8.06 0-3.777 1.885-6.799 5.092-8.251.24-1.248.908-3.384 2.752-4.774 1.872-1.416 3.868-1.562 5.029-1.505 1.424-1.641 5.443-5.426 11.632-5.307 6.854.2 10.193 5.267 11.19 7.124 3.152 1.031 8.132 4.219 8.132 10.359 0 7.639-5.598 10.412-9.36 10.412zm-3.275 6.191l-8.791 8.791c-.491.491-1.284.491-1.775 0l-8.901-8.901c-.489-.489-.489-.863 0-1.352l.752-.752c.489-.489.863-.489 1.352 0l6.198 6.196v-15.889h-.004l.002-5.405c-.002-.695.264-.959.954-.959h1.063c.693 0 .956.266.956.959v.287l.004.017-.002 20.993 6.087-6.087c.491-.491.865-.491 1.354 0l.752.75c.489.491.489.863-.002 1.354zm-9.692-44.444c-17.673 0-32 14.327-32 32 0 17.673 14.327 32 32 32 17.673 0 32-14.327 32-32 0-17.673-14.327-32-32-32z"/></svg>