<svg width="64" height="64" viewBox="0 0 64 64" xmlns="http://www.w3.org/2000/svg"><title>04004earlysgndiscL</title><path d="M49.394 5.173h-2.388v-3.507c0-.918-.652-1.666-1.461-1.666h-.435c-.804 0-1.463.747-1.463 1.666v3.505l-22.778-.002v-3.502c0-.918-.656-1.666-1.461-1.666h-.435c-.807 0-1.461.747-1.461 1.666v3.502h-2.402c-5.576 0-10.111 4.526-10.111 10.09v38.652c0 5.565 4.535 10.09 10.111 10.09h33.953c5.574 0 10.111-4.526 10.111-10.09v-38.652c0-5.453-4.275-9.881-9.78-10.086zm-8.208 18.854c-1.424 0-2.406-.674-2.949-1.481l1.208-.911c.403.618 1 .934 1.698.934.905 0 1.47-.51 1.47-1.283 0-.775-.577-1.265-1.372-1.265-.631 0-1.098.305-1.392.674l-1.035-.401.271-4.179h4.801v1.479h-3.496l-.141 1.556c.381-.294.948-.415 1.449-.415 1.424 0 2.623.971 2.623 2.504 0 1.545-1.199 2.787-3.136 2.787zm-4.243-.141h-1.663v-5.922c-.406.196-1.103.403-1.7.479l-.216-1.251c1.11-.228 1.837-.554 2.32-1.078h1.26v7.773zm-7.431.141c-2.288 0-3.015-1.992-3.015-4.029 0-2.012.727-4.026 3.015-4.026 2.286 0 3.047 2.014 3.047 4.026 0 2.037-.761 4.029-3.047 4.029zm0-6.683c-1.044 0-1.326 1.262-1.326 2.655 0 1.392.283 2.659 1.326 2.659 1.046 0 1.34-1.267 1.34-2.659s-.294-2.655-1.34-2.655zm-9.52 6.542v-1.219c2.666-2.003 3.712-3.101 3.712-4.136 0-.72-.524-1.121-1.144-1.121-.556 0-1.076.303-1.392.946l-1.317-.752c.64-1.009 1.568-1.632 2.862-1.632 1.6 0 2.764.937 2.764 2.438 0 1.363-.957 2.536-3.081 3.995h3.179v1.481h-5.583zm-8.231 31.638h4.418v-4.004h-4.418v4.004zm0-5.448h4.418v-4.004h-4.418v4.004zm0-5.448h4.418v-4.006h-4.418v4.006zm0-5.453h4.418v-4.001h-4.418v4.001zm6.039 16.35h4.418v-4.004h-4.418v4.004zm0-5.448h4.418v-4.004h-4.418v4.004zm0-5.448h4.418v-4.006h-4.418v4.006zm0-5.453h4.418v-4.001h-4.418v4.001zm0-5.448h4.418v-3.999h-4.418v3.999zm6.039 21.798h4.418v-4.004h-4.418v4.004zm0-5.448h4.418v-4.004h-4.418v4.004zm0-5.448h4.418v-4.006h-4.418v4.006zm0-10.901h4.418v-3.999h-4.418v3.999zm6.02 0h4.418v-3.999h-4.418v3.999zm6.055 16.35h4.416v-4.004h-4.416v4.004zm0-5.448h4.416v-4.006h-4.416v4.006zm.002-5.453h4.414v-4.001h-4.414v4.001zm-.002-5.448h4.416v-3.999h-4.416v3.999zm6.039 16.35h4.418v-4.004h-4.418v4.004zm0-5.448h4.418v-4.006h-4.418v4.006zm0-5.453h4.418v-4.001h-4.418v4.001zm0-5.448h4.418v-3.999h-4.418v3.999zm6.039 16.35h4.418v-4.004h-4.418v4.004zm0-5.448h4.418v-4.006h-4.418v4.006zm0-5.453h4.418v-4.001h-4.418v4.001zm0-5.448h4.418v-3.999h-4.418v3.999zm-18.132 5.451h4.418v-4.001h-4.418v4.001zm0 5.451h4.418v-4.006h-4.418v4.006zm0 5.448h4.418v-4.004h-4.418v4.004zm-6.02-10.899h4.418v-4.001h-4.418v4.001zm32.677 14.734c-.002 4.097-3.345 7.433-7.451 7.433h-33.953c-4.109 0-7.451-3.336-7.451-7.433v-38.652c0-4.099 3.343-7.431 7.451-7.431h2.402v2.725c0 .918.654 1.666 1.461 1.666h.435c.804 0 1.461-.747 1.461-1.666v-2.725l22.778.005v2.721c0 .918.659 1.666 1.463 1.666h.435c.809 0 1.461-.747 1.461-1.666v-2.721h2.34c4.02.15 7.167 3.411 7.169 7.426v38.652z"/></svg>