<svg width="64" height="64" viewBox="0 0 64 64" xmlns="http://www.w3.org/2000/svg"><title>02003earthquakeF</title><path d="M39.044 13.15l-9.3-9c-.2-.2-.4-.2-.6 0l-9.3 9c-.1.1-.1.2-.1.3v9.7c0 .7-.5 1.2-1.2 1.2s-1.2-.5-1.2-1.2v-9.7c0-.8.3-1.5.9-2l1.6-1.6h-11.4c-.2 0-.6.2-.8.5l-7.6 17.1c-.1.1 0 .3 0 .3.1.1.2.1.3.1h38.3l.4-4.8v-9.7c.1 0 .1-.1 0-.2zm-5.3 8.2h-8.6v-8.6h8.6v8.6zm25.9-5.5c-.1-.2-.4-.5-.6-.5l-12.1-2.2 2.6 14-2.7 4.3 16.9 3.2c.1 0 .2 0 .3-.1.1-.1.1-.2.1-.3l-4.5-18.4zm-15 17.6l-3.2 5.4.5 14.9-3.6-2.9-1-10.7 1.1-9.8h-31.7v20.5h18.6v3h8.3v-3h4.7l-4.8 4.6-4.3-.2-7 3.3-5.9-1 6.6 2.9 6.7-2.5 4 1.3 8.4-5.5 11.4 2.2 3.6-20.2-12.4-2.3zm-23.7 9.3h-8.3v-8.3h8.3v8.3zm12.7 8.1h-8.3v-16.4h8.3v16.4zm16.7-3.7l-8.2-1.5 1.5-8.2 8.2 1.5-1.5 8.2z"/></svg>