<svg width="64" height="64" viewBox="0 0 64 64" xmlns="http://www.w3.org/2000/svg"><title>02003earthquakeL</title><path d="M61.709 34.589c-.053.048-.164.126-.323.097l-16.447-3.116 2.38-4.029-1.168-5.091-1.128-7.916 12.073 2.211c.219.04.519.282.605.504l4.123 17.019c.021.164-.065.272-.116.32zm-10.711 18.699l-9.782-1.868-.432-12.811 2.975-5.038 10.488 1.988-3.249 17.729zm-16.941-4.6v-14.666h-8.789v14.666h-15.718v-17.991h30.121l-2.639 9.101.801 8.89h-3.776zm-6.603 0h4.419v-12.48h-4.419v12.48zm-1.549-26.379h7.515v-7.515h-7.515v7.515zm15.674 22.559l7.389 1.356 1.356-7.391-7.393-1.356-1.351 7.391zm-27.483-2.694h7.513v-7.513h-7.513v7.513zm49.878-8.293l-4.18-17.255c-.375-1.046-1.278-1.842-2.302-2.03l-12.794-2.342-1.699 1.164-2.319 13.808-.373 1.286h-37.701c-.164 0-.268-.061-.335-.164-.065-.099-.074-.19-.008-.346l7.054-15.874c.177-.306.514-.491.738-.491h10.555l-1.528 1.476c-.508.491-.799 1.176-.799 1.88v9.018c0 .603.489 1.092 1.092 1.092.605 0 1.094-.489 1.094-1.092v-9.018c0-.114.046-.228.129-.308l8.681-8.376c.167-.16.43-.16.594 0l8.681 8.376c.082.08.131.194.131.308v9.018c0 .603.489 1.092 1.094 1.092.603 0 1.092-.489 1.092-1.092v-9.018c0-.704-.291-1.389-.799-1.88l-8.681-8.376c-1.018-.98-2.612-.982-3.628 0l-4.887 4.716h-12.822c-1.044 0-2.074.62-2.684 1.684l-7.214 16.237c-.308.784-.137 1.636.352 2.3.489.662 1.275 1.025 2.098 1.025h4.76v20.177h17.862v2.393h8.884v-2.393h3.921l.089.999-3.87 3.377-5.633-.485-6.976 3.986-6.584.152 7.406 1.729 6.35-3.175 5.839.744 6.097-4.644 12.001 2.289 3.645-19.882 4.591.871c.158.027.314.042.47.042.647 0 1.267-.242 1.752-.698.599-.565.885-1.358.765-2.3z"/></svg>