<svg width="64" height="64" viewBox="0 0 64 64" xmlns="http://www.w3.org/2000/svg"><title>02003earthquakeC</title><path d="M37.5 31.3h-22.7v14.1h12.4v-11.9h7.5v11.9h2.7l-.6-7 .7-7.1zm-12.9 9.2h-6.4v-6.4h6.4v6.4zm4.7-4.9h3.2v9.7h-3.2v-9.7zm8.7-17.4l-7-6.8c-.1-.1-.2-.1-.2 0l-7 6.8-.1.1v7.3c0 .6-.5 1.1-1.1 1.1-.6 0-1.1-.5-1.1-1.1v-7.3c0-.6.3-1.2.7-1.6l.9-.9h-8.1c-.1 0-.3.1-.4.3l-5.6 12.7c0 .1 0 .2.1.2h28.7l.3-3.5v-7.2l-.1-.1zm-3.8 6.2h-6.4v-6.4h6.4v6.4zm9.2 9.3l7.2 1.5-2.5 13.9-7.6-1.5-.1-3 .2-2.2 5.5 1h.2l1.2-6.3-6.1-1.1v-.1l2-2.2zm10.1-13.5l3.3 13.8v.1h-.1l-12.5-2.4 1.9-3v-.1l-1.9-10.4 8.9 1.6c.2.1.4.3.4.4zm-21.5-20.2c-17.7 0-32 14.4-32 32s14.3 32 32 32c17.6 0 32-14.3 32-32-.1-17.6-14.4-32-32-32zm24.7 36.2h-.4l-3.5-.7-3 16.1-11-2.1-4.7 3.5-3-1-5.1 1.9h-.1l-5-2.2.1-.3 4.4.8 5.3-2.5 3.3.2 2.6-2.3h-2.4v.9h-6.5v-.9h-15v-16.4h-3.6c-.7 0-1.4-.3-1.8-.9-.4-.6-.6-1.5-.3-2.2l5.8-13c.5-.9 1.4-1.5 2.3-1.5h10.3l3.9-3.8c.4-.4 1-.6 1.6-.6.6 0 1.1.2 1.6.6l6.8 6.6c.1.1 1.1 1 1.1 1.9v5.7l2.2-8.2 10.9 2c.9.2 1.7.9 2 1.8l3.4 14c.1.7-.1 1.4-.5 1.9-.5.4-1.1.7-1.7.7z"/></svg>