<svg width="64" height="64" viewBox="0 0 64 64" xmlns="http://www.w3.org/2000/svg"><title>01032ebikeF</title><path d="M31.093 40.483c0 1.911-1.548 3.456-3.456 3.456-1.911 0-3.459-1.546-3.459-3.456 0-1.909 1.548-3.456 3.459-3.456 1.909 0 3.456 1.548 3.456 3.456zm-13.929-20.376c-.39-.419-.558-.986-.504-1.68.063-.784.757-1.47 1.487-1.47l.264.029.524.137c.737.195 1.971.524 2.827.571.562.031 1.046.043 1.467.043.907 0 1.505-.054 1.985-.099.296-.027.535-.049.753-.049.296 0 .571.123.777.345.224.242.336.569.309.898-.047.605-.623 1.06-1.104 1.062-.952.004-2.215.096-2.881.401-1.577.719-3.237.636-3.324.636-1.207 0-2.077-.278-2.581-.824zm35.703 28.743c-4.749 0-8.611-3.835-8.611-8.551 0-3.443 2.063-6.411 5.022-7.766l2.377 7.831c.164.535.656.88 1.187.88.119 0 .242-.018.361-.054.656-.199 1.028-.892.829-1.548l-2.37-7.805c.394-.054.795-.094 1.205-.094 4.749 0 8.613 3.837 8.613 8.555 0 4.715-3.864 8.551-8.613 8.551zm-24.484-15.139c-.112.031-.224.047-.336.047-.542 0-1.039-.358-1.194-.907l-1.978-7.074c-.186-.661.202-1.346.86-1.53.659-.186 1.346.199 1.53.86l1.978 7.074c.186.661-.199 1.346-.86 1.53zm24.484-4.485c-.665 0-1.313.067-1.944.179l-1.313-4.319-.674-2.283-.054-.114-.952-3.138 1.396-1.037c1.741-1.293 1.911-2.834 1.487-3.844-.515-1.237-1.913-1.864-3.555-1.617-.616.094-6.042.768-6.042.768-.681.085-1.163.708-1.077 1.387.085.681.701 1.158 1.387 1.077 0 0 5.844-.737 6.111-.78.587-.092.86.069.887.121.027.067-.069.444-.677.894l-2.099 1.559c-.421.314-.6.856-.448 1.358l.753 2.475h-22.085l-.188.036-.502.235c-.565.287-1.494.621-1.767.717l-.121.094-3.179 4.702c-.385.569-.235 1.34.332 1.723.569.385 1.34.235 1.723-.332l2.05-3.031 2.872 10.213c.724-.423 1.552-.683 2.451-.683 2.083 0 3.853 1.315 4.559 3.152l15.555-11.232.786 2.59c-3.999 1.68-6.803 5.618-6.803 10.206 0 6.113 4.984 11.071 11.133 11.071 6.149 0 11.133-4.955 11.133-11.071 0-6.118-4.984-11.075-11.133-11.075zm-41.733 19.623c-4.749 0-8.611-3.835-8.611-8.551 0-4.718 3.862-8.553 8.611-8.553 4.749 0 8.613 3.835 8.613 8.553 0 4.715-3.864 8.551-8.613 8.551zm0-19.623c-6.151 0-11.133 4.96-11.133 11.075 0 6.113 4.984 11.071 11.133 11.071 6.149 0 11.133-4.955 11.133-11.071s-4.984-11.075-11.133-11.075z"/></svg>