<svg width="64" height="64" viewBox="0 0 64 64" xmlns="http://www.w3.org/2000/svg"><title>01032ebikeC</title><path d="M50.355 40.098c0-6.057-4.934-10.967-11.023-10.967-.659 0-1.295.083-1.922.194l-1.303-4.29-.668-2.263-.053-.111-.943-3.108 1.382-1.028c1.724-1.278 1.89-2.805 1.472-3.806-.51-1.222-1.894-1.845-3.52-1.6-.61.094-5.984.759-5.984.759-.674.085-1.15.7-1.065 1.374.083.672.693 1.146 1.372 1.067 0 0 5.788-.73 6.05-.772.582-.09.853.068.879.119.028.066-.068.439-.67.885l-2.078 1.545c-.418.309-.595.847-.444 1.344l.745 2.451h-19.735l-.186.034c-.23.098-.38.175-.497.235-.559.284-1.481.614-1.749.708l-.122.094-3.147 4.657c-.382.561-.233 1.325.329 1.705.563.382 1.327.233 1.707-.329l2.029-3.002 2.844 10.114c.717-.418 1.538-.676 2.426-.676 2.063 0 3.817 1.301 4.516 3.121l13.269-11.123.779 2.564c-3.959 1.664-6.737 5.564-6.737 10.106 0 6.054 4.934 10.963 11.025 10.963 6.089 0 11.023-4.907 11.023-10.963zm-30.985.181c0-1.594-1.297-2.891-2.891-2.891s-2.889 1.297-2.889 2.891 1.295 2.891 2.889 2.891c1.594 0 2.891-1.297 2.891-2.891zm-12.597-20.177c.499.542 1.359.815 2.556.815.087 0 1.728.083 3.292-.629.659-.301 1.909-.393 2.852-.397.478-.002 1.047-.452 1.094-1.052.026-.326-.085-.649-.307-.887-.203-.222-.478-.343-.768-.343-.215 0-.452.021-.747.049-.476.043-1.067.098-1.965.098-.418 0-.896-.013-1.453-.043-.849-.047-2.069-.371-2.799-.565l-.521-.134-.26-.03h-.002c-.721 0-1.41.678-1.472 1.455-.053.687.113 1.248.499 1.664zm57.227 11.898c0 17.673-14.327 32-32 32-11.125 0-20.915-5.681-26.65-14.295 3.445-1.854 5.813-5.436 5.813-9.606 0-6.054-4.932-10.963-11.019-10.965 1.453-16.329 15.151-29.133 31.855-29.133 17.673 0 32 14.327 32 32zm-24.668-.373c-.407 0-.796.064-1.188.119l2.34 7.701c.196.649-.169 1.335-.819 1.532-.119.036-.239.053-.358.053-.527 0-1.013-.341-1.175-.873l-2.351-7.74c-2.927 1.342-4.977 4.267-4.977 7.676 0 4.668 3.827 8.467 8.529 8.467s8.527-3.799 8.527-8.467c0-4.67-3.825-8.469-8.527-8.469zm-23.219-6.575c-.181-.653-.862-1.037-1.515-.851-.653.183-1.035.86-.853 1.515l1.961 7.006c.151.542.646.898 1.182.898.111 0 .222-.015.333-.045.653-.183 1.035-.862.853-1.515l-1.961-7.008zm-16.113 6.948l.019-.361.122-.013c4.702 0 8.527 3.799 8.527 8.471 0 3.258-1.886 6.061-4.61 7.475-2.577-4.61-4.058-9.916-4.058-15.573z"/></svg>