<svg width="64" height="64" viewBox="0 0 64 64" xmlns="http://www.w3.org/2000/svg"><title>01032ebikeL</title><path d="M30.331 34.842c-.112.031-.224.047-.334.047-.542 0-1.042-.358-1.194-.907l-1.98-7.074c-.184-.661.202-1.346.86-1.53.659-.186 1.346.199 1.53.86l1.98 7.074c.184.661-.202 1.346-.862 1.53zm22.536 14.007c-4.749 0-8.611-3.835-8.611-8.551 0-3.443 2.063-6.411 5.022-7.766l2.377 7.831c.164.535.656.88 1.187.88.119 0 .242-.018.361-.054.656-.199 1.028-.892.829-1.548l-2.37-7.805c.394-.054.795-.094 1.205-.094 4.749 0 8.613 3.837 8.613 8.555 0 4.715-3.864 8.551-8.613 8.551zm-23.333-11.252c-.45-.298-.981-.477-1.548-.535l-3.56-12.668h22.379l.181.6-17.453 12.603zm23.333-8.371c-.665 0-1.313.067-1.944.179l-1.313-4.319-.674-2.283-.054-.114-.952-3.138 1.396-1.037c1.741-1.293 1.911-2.834 1.487-3.844-.515-1.237-1.913-1.864-3.555-1.617-.616.094-6.042.768-6.042.768-.681.085-1.163.708-1.077 1.387.085.681.701 1.158 1.387 1.077 0 0 5.844-.737 6.111-.78.587-.092.86.069.887.121.027.067-.069.444-.677.894l-2.099 1.559c-.421.314-.6.856-.448 1.358l.753 2.475h-22.325l-.47-1.676c.699-.24 1.814-.338 2.693-.343.482-.002 1.057-.457 1.104-1.062.027-.329-.085-.656-.309-.898-.206-.222-.482-.345-.777-.345-.217 0-.457.022-.753.049-.479.045-1.077.099-1.985.099-.421 0-.905-.011-1.467-.043-.856-.047-2.09-.376-2.827-.571l-.524-.137-.264-.029c-.73 0-1.425.685-1.487 1.47-.054.694.114 1.261.504 1.68.504.547 1.373.824 2.581.824l.264-.004.856-.029.569 2.03-3.224 4.769c-.385.569-.235 1.34.332 1.723.569.385 1.34.235 1.723-.332l2.05-3.031 3.277 11.653c-.853.629-1.414 1.633-1.414 2.773 0 1.911 1.548 3.456 3.459 3.456 1.909 0 3.456-1.546 3.456-3.456 0-.298-.049-.585-.121-.86l16.778-12.117.786 2.59c-3.999 1.68-6.803 5.618-6.803 10.206 0 6.113 4.984 11.071 11.133 11.071 6.149 0 11.133-4.955 11.133-11.071 0-6.118-4.984-11.075-11.133-11.075zm-41.733 19.623c-4.749 0-8.611-3.835-8.611-8.551 0-4.718 3.862-8.553 8.611-8.553 4.749 0 8.613 3.835 8.613 8.553 0 4.715-3.864 8.551-8.613 8.551zm0-19.623c-6.151 0-11.133 4.96-11.133 11.075 0 6.113 4.984 11.071 11.133 11.071 6.149 0 11.133-4.955 11.133-11.071s-4.984-11.075-11.133-11.075z"/></svg>