<svg width="64" height="64" viewBox="0 0 64 64" xmlns="http://www.w3.org/2000/svg"><title>05007editS</title><path d="M39.166 9.994l-32.572 32.571c-.219.219-.385.487-.483.781l-6.007 18.02c-.241.719-.053 1.511.482 2.047.381.38.892.586 1.414.586.211 0 .426-.034.633-.104l18.019-6.008c.295-.097.563-.263.781-.482l32.572-32.572-14.839-14.839zm-26.069 46.448l-3.994 1.997c-.192.095-.425.058-.577-.094l-2.754-2.754c-.152-.152-.189-.385-.094-.577l1.997-3.994c.072-.144.209-.245.367-.271.158-.025.321.028.434.141l4.751 4.751c.113.113.166.276.141.434-.026.158-.127.295-.271.367zm49.148-48.343l-6.346-6.346c-2.339-2.339-6.148-2.336-8.492 0l-5.413 5.413 14.839 14.839 5.414-5.414c2.338-2.344 2.338-6.152-.002-8.492z"/></svg>