<svg width="64" height="64" viewBox="0 0 64 64" xmlns="http://www.w3.org/2000/svg"><title>05007editF</title><path d="M7.092 52.81l2.619-7.04 8.54 8.494-7.021 2.666-4.138-4.119zm51.084-33.055l3.103-3.106c2.69-2.69 3.519-6.861 1.886-9.502-1.356-2.19-4.13-4.962-6.312-6.309-2.638-1.636-6.812-.804-9.5 1.878l-3.109 3.111 13.931 13.929zm-16.336-11.527l-33.708 33.708c-.187.187-.31.413-.391.647l-.035.052-7.6 19.002c-.231.62-.076 1.394.391 1.864.326.323.796.5 1.264.5.207 0 .413-.035.603-.106l.041-.016 18.969-7.587.046-.033c.234-.082.456-.201.644-.389l30.208-30.213.008-.003 3.492-3.494-13.931-13.931z"/></svg>