<svg width="64" height="64" viewBox="0 0 64 64" xmlns="http://www.w3.org/2000/svg"><title>05044editnoteL</title><path d="M54.205 46.014l-1.462 1.462-4.007-4.007 1.462-1.464c.633-.631 1.66-.631 2.293 0l1.714 1.714c.631.633.631 1.662 0 2.295zm-11.022 11.022c-.059.059-.131.101-.212.128l-4.865 1.624-.171.027c-.142 0-.279-.054-.383-.158-.144-.144-.194-.358-.131-.552l1.624-4.867c.025-.079.07-.151.131-.212l8.795-8.795 4.009 4.007-8.797 8.797zm-12.024-13.299h-19.22c-.662 0-1.203.541-1.203 1.205s.541 1.203 1.203 1.203h18.407c.214-.829.477-1.635.813-2.408zm5.984-7.108h-25.204c-.662 0-1.203.538-1.203 1.203 0 .664.541 1.203 1.203 1.203h22.344c.858-.905 1.815-1.716 2.86-2.405zm3.759-20.152c0 .664-.538 1.203-1.203 1.203h-27.76c-.662 0-1.203-.538-1.203-1.203 0-.664.541-1.203 1.203-1.203h27.76c.664 0 1.203.538 1.203 1.203zm0 7.117c0 .664-.538 1.203-1.203 1.203h-27.76c-.662 0-1.203-.538-1.203-1.203 0-.664.541-1.203 1.203-1.203h27.76c.664 0 1.203.538 1.203 1.203zm0 7.115c0 .664-.538 1.205-1.203 1.205h-27.76c-.662 0-1.203-.541-1.203-1.205s.541-1.203 1.203-1.203h27.76c.664 0 1.203.538 1.203 1.203zm-9.479 26.449h-21.992c-1.678 0-3.043-1.365-3.043-3.045v-45.264c0-1.68 1.365-3.047 3.043-3.047h6.941v1.863c0 .935.822 1.676 1.784 1.54.786-.115 1.327-.865 1.327-1.66v-1.743h12.272v1.863c0 .935.822 1.676 1.784 1.54.786-.115 1.327-.865 1.327-1.66v-1.743h6.934c1.68 0 3.045 1.367 3.045 3.047v25.168c.396-.029.791-.061 1.194-.061.403 0 .797.032 1.194.061v-25.168c0-2.998-2.437-5.432-5.432-5.432h-6.934v-1.741c0-.797-.541-1.547-1.327-1.66-.962-.137-1.784.606-1.784 1.54v1.86h-12.272v-1.741c0-.797-.541-1.547-1.327-1.66-.962-.137-1.784.606-1.784 1.54v1.86h-6.941c-2.993 0-5.43 2.435-5.43 5.432v45.264c0 2.993 2.437 5.428 5.43 5.428h23.393c-.534-.748-1-1.547-1.401-2.383zm8.261-1.881l-.117-.041-.099.074-.541 1.079c-.025.052-.014.115.027.155l.743.743c.041.041.104.052.155.027l1.079-.541.074-.099-.041-.117-1.281-1.281zm6.353-18.929c-7.635 0-13.826 6.191-13.826 13.826 0 7.637 6.191 13.826 13.826 13.826 7.637 0 13.826-6.189 13.826-13.826 0-7.635-6.189-13.826-13.826-13.826z"/></svg>