<svg width="64" height="64" viewBox="0 0 64 64" xmlns="http://www.w3.org/2000/svg"><title>05044editnoteC</title><path d="M49.389 61.864c-6.817 0-12.344-5.525-12.344-12.344 0-6.817 5.527-12.342 12.344-12.342 6.819 0 12.344 5.525 12.344 12.342 0 6.819-5.525 12.344-12.344 12.344zm-10.367-40.561h-17.705c-.422 0-.768.344-.768.768 0 .422.346.766.768.766h17.705c.422 0 .766-.344.766-.766 0-.424-.344-.768-.766-.768zm0 4.54h-17.705c-.422 0-.768.344-.768.766 0 .424.346.768.768.768h17.705c.422 0 .766-.344.766-.768 0-.422-.344-.766-.766-.766zm0 4.538h-17.705c-.422 0-.768.344-.768.766 0 .424.346.768.768.768h17.705c.422 0 .766-.344.766-.768 0-.422-.344-.766-.766-.766zm0 4.542h-17.705c-.422 0-.768.344-.768.768 0 .422.346.766.768.766h17.705c.422 0 .766-.344.766-.766 0-.424-.344-.768-.766-.768zm-18.095 14.921c-2.671 0-4.848-2.174-4.848-4.85v-26.708c0-2.673 2.176-4.848 4.848-4.848h1.842v3.011c0 1.376 1.12 2.496 2.496 2.496l.358-.026c1.219-.175 2.136-1.269 2.136-2.546v-2.935h4.821v3.011c0 1.376 1.118 2.496 2.494 2.496l.358-.026c1.219-.175 2.138-1.269 2.138-2.546v-2.935h1.838c2.673 0 4.85 2.174 4.85 4.848v17.711c-1.997.76-3.779 1.957-5.244 3.462h-17.699c-.422 0-.768.342-.768.766s.346.766.768.766h16.409c-1.76 2.394-2.816 5.334-2.816 8.529l.016.324h-14zm3.347-37.29c0-.547.443-.992.992-.992l.145.01c.503.072.847.551.847 1.058v3.743c0 .507-.344.988-.847 1.058l-.145.012c-.549 0-.992-.445-.992-.994v-3.896zm9.81 0c0-.547.445-.992.992-.992l.147.01c.501.072.845.551.845 1.058v3.743c0 .507-.344.988-.845 1.058l-.147.012c-.547 0-.992-.445-.992-.994v-3.896zm22.599 31.205l-1.531-1.531c-.563-.565-1.482-.565-2.048 0l-1.305 1.305 3.578 3.576 1.305-1.305c.563-.563.563-1.482 0-2.046zm-11.851 11.656l-.963.481c-.046.022-.103.014-.139-.024l-.664-.662c-.036-.038-.046-.095-.024-.141l.483-.961.086-.066.105.034 1.147 1.147.034.105-.064.089zm6.286-11.2l-7.853 7.853c-.054.054-.095.119-.117.189l-1.45 4.345c-.056.173-.012.364.117.493.093.093.215.143.342.143l.153-.026 4.345-1.448c.07-.024.135-.064.187-.117l7.855-7.853-3.578-3.578zm7.955-5.429c.815-2.732 1.267-5.622 1.267-8.617 0-16.663-13.509-30.17-30.17-30.17-16.663 0-30.17 13.507-30.17 30.17 0 16.663 13.507 30.168 30.17 30.168 2.923 0 5.741-.436 8.414-1.213 2.653 2.983 6.509 4.876 10.805 4.876 7.985 0 14.48-6.495 14.48-14.48 0-4.258-1.861-8.082-4.797-10.733z"/></svg>