<svg xmlns="http://www.w3.org/2000/svg" viewBox="0 0 64 64" enable-background="new 0 0 64 64"><title>05007editO</title><path d="M32 0c-17.6 0-32 14.4-32 32s14.4 32 32 32 32-14.4 32-32-14.4-32-32-32zm0 60.2c-15.4 0-28.2-12.5-28.2-28.2s12.8-27.8 28.2-27.8 28.2 12.5 28.2 28.2-12.8 27.8-28.2 27.8zm-13.1-17.3l1.4-3.8 4.7 4.6-3.8 1.5-2.3-2.3zm27.9-18.1l1.7-1.7c1.5-1.5 1.9-3.8 1-5.2-.7-1.2-2.3-2.7-3.5-3.4-1.4-.9-3.7-.4-5.2 1l-1.7 1.7c.1 0 7.7 7.6 7.7 7.6zm-8.9-6.3l-18.5 18.4c-.1.1-.2.2-.2.4l-4.2 10.4c-.1.3 0 .8.2 1 .2.2.4.3.7.3.1 0 .2 0 .3-.1l10.4-4.1c.1 0 .2-.1.4-.2l16.6-16.6 1.9-1.9-7.6-7.6z"/></svg>