<svg width="64" height="64" viewBox="0 0 64 64" xmlns="http://www.w3.org/2000/svg"><title>05044editnoteF</title><path d="M52.397 42.144l-1.652-1.652c-.61-.608-1.6-.608-2.21 0l-1.411 1.409 3.864 3.864 1.409-1.409c.608-.61.608-1.602 0-2.212zm-12.796 12.586l-1.04.521c-.05.024-.111.013-.15-.026l-.716-.716c-.039-.039-.05-.1-.026-.15l.521-1.04.096-.072.113.039 1.235 1.235.039.113-.072.096zm6.787-12.091l-8.478 8.478c-.059.059-.102.128-.126.204l-1.565 4.692c-.061.187-.013.393.126.532.1.1.232.154.369.154l.165-.028 4.689-1.565c.078-.026.148-.067.204-.124l8.48-8.48-3.864-3.862zm-1.865 19.055c-7.36 0-13.328-5.968-13.328-13.328 0-7.36 5.968-13.328 13.328-13.328 7.362 0 13.328 5.968 13.328 13.328 0 7.36-5.966 13.328-13.328 13.328zm-15.126-17.212h-17.941c-.638 0-1.159-.519-1.159-1.159s.521-1.162 1.159-1.162h18.725c-.323.745-.577 1.522-.784 2.321zm-17.941-9.173h24.494c-1.01.664-1.93 1.446-2.757 2.319h-21.736c-.638 0-1.159-.519-1.159-1.159s.521-1.159 1.159-1.159zm0-6.867h26.76c.64 0 1.159.519 1.159 1.159s-.519 1.162-1.159 1.162h-26.76c-.638 0-1.159-.521-1.159-1.162 0-.64.521-1.159 1.159-1.159zm0-6.858h26.76c.64 0 1.159.519 1.159 1.159s-.519 1.159-1.159 1.159h-26.76c-.638 0-1.159-.519-1.159-1.159s.521-1.159 1.159-1.159zm0-6.86h26.76c.64 0 1.159.519 1.159 1.159s-.519 1.159-1.159 1.159h-26.76c-.638 0-1.159-.519-1.159-1.159s.521-1.159 1.159-1.159zm21.018-5.851c.758-.109 1.279-.834 1.279-1.6v-5.658c0-.769-.521-1.492-1.279-1.6l-.221-.015c-.827 0-1.498.671-1.498 1.5v5.888c0 .827.671 1.5 1.498 1.5l.221-.015zm-14.828 0c.758-.109 1.279-.834 1.279-1.6v-5.658c0-.769-.521-1.492-1.279-1.6l-.221-.015c-.827 0-1.498.671-1.498 1.5v5.888c0 .827.671 1.5 1.498 1.5l.221-.015zm28.028 23.918v-24.261c0-2.89-2.349-5.237-5.237-5.237h-4.522v3.98c0 1.876-1.348 3.485-3.137 3.741-.178.026-.352.037-.525.037-2.019 0-3.663-1.643-3.663-3.663v-4.095h-7.503v3.98c0 1.876-1.348 3.485-3.137 3.741-.178.026-.352.037-.525.037-2.019 0-3.663-1.643-3.663-3.663v-4.095h-4.527c-2.885 0-5.234 2.347-5.234 5.237v43.634c0 2.885 2.349 5.234 5.234 5.234h22.551c2.835 3.988 7.481 6.602 12.737 6.602 8.621 0 15.634-7.012 15.634-15.634 0-8.233-6.4-14.982-14.483-15.575z"/></svg>