<svg width="64" height="64" viewBox="0 0 64 64" xmlns="http://www.w3.org/2000/svg"><title>05007editC</title><path d="M48.147 24.097l-1.792 1.792-8.045-8.043 1.796-1.794c1.553-1.55 3.962-2.029 5.485-1.086 1.259.778 2.861 2.38 3.644 3.644.943 1.524.467 3.933-1.088 5.487zm-5.196 5.198l-.004.002-17.443 17.445c-.109.109-.237.178-.374.225l-.025.019-10.954 4.381-.023.01c-.111.041-.229.06-.349.06-.268 0-.541-.101-.729-.287-.27-.273-.359-.718-.227-1.078l4.389-10.973.021-.029c.047-.136.118-.264.225-.374l19.464-19.464 8.045 8.045-2.017 2.017zm-26.093 15.682l2.391 2.378 4.055-1.54-4.932-4.903-1.513 4.065zm36.381-34.213c-12.179-12.179-31.926-12.179-44.104 0-12.179 12.179-12.179 31.924 0 44.102 12.179 12.179 31.926 12.179 44.104 0 12.179-12.179 12.179-31.924 0-44.102z"/></svg>