<svg width="64" height="64" viewBox="0 0 64 64" xmlns="http://www.w3.org/2000/svg"><title>05007editL</title><path d="M58.884 14.208l-3.097 3.1-9.103-9.103 3.1-3.097c1.702-1.702 4.157-2.103 5.295-1.396 1.737 1.076 4.119 3.455 5.2 5.2.702 1.138.257 3.645-1.396 5.295zm-51.646 38.46l2.612-7.021 8.517 8.471-7.003 2.658-4.127-4.108zm13.731-.542l-9.103-9.103 32.422-32.422 9.103 9.1-32.422 32.425zm1.867 2.927l29.46-29.465.005-.005 8.978-8.978c2.683-2.68 3.509-6.84 1.881-9.474-1.355-2.184-4.119-4.948-6.298-6.295-2.631-1.629-6.794-.805-9.474 1.875l-8.981 8.978-.003.008-29.576 29.574c-.203.206-.409.547-.537.848l-8.211 20.227c-.176.488-.049.981.247 1.29.309.328.908.474 1.374.274l20.314-8.292c.293-.122.626-.374.821-.564z"/></svg>