<svg width="64" height="64" viewBox="0 0 64 64" xmlns="http://www.w3.org/2000/svg"><title>05041ejectL</title><path d="M8.186 53.865c0-1.479 1.201-2.677 2.68-2.677h42.712c1.479 0 2.68 1.199 2.68 2.677v4.272c0 1.479-1.201 2.677-2.68 2.677h-42.712c-1.479 0-2.68-1.199-2.68-2.677v-4.272zm45.392-5.863h-42.712c-3.233 0-5.863 2.633-5.863 5.863v4.272c0 3.233 2.631 5.863 5.863 5.863h42.712c3.235 0 5.866-2.631 5.866-5.863v-4.272c0-3.23-2.631-5.863-5.866-5.863zm-44.561-13.967l20.238-29.174c.676-1.014 1.545-1.594 2.508-1.668h.005l.189-.005h.032c1.113 0 2.331.619 3.309 1.656l20.233 29.172c.658.985.889 1.923.607 2.449-.287.538-1.196.86-2.437.86h-42.839c-1.304 0-2.289-.359-2.577-.933-.263-.523.002-1.378.732-2.356zm1.845 6.473h42.839c3.378 0 4.736-1.592 5.244-2.542.874-1.633.597-3.67-.786-5.741l-20.383-29.361c-1.832-1.995-4.065-3.026-6.256-2.842-1.936.147-3.672 1.226-4.888 3.036l-20.194 29.118c-1.995 2.66-1.481 4.672-.997 5.637.852 1.712 2.83 2.695 5.421 2.695z"/></svg>