<svg width="64" height="64" viewBox="0 0 64 64" xmlns="http://www.w3.org/2000/svg"><title>05041ejectF</title><path d="M32.094 4.396l-.164.005c-.761.06-1.425.513-1.984 1.353l-19.843 28.604c-.717.958-.754 1.502-.674 1.659.108.217.737.561 1.955.561h41.99c1.141 0 1.719-.303 1.827-.508.104-.19.043-.833-.563-1.741l-19.829-28.583c-.778-.816-1.803-1.351-2.716-1.351zm21.28 36.58h-41.99c-2.788 0-4.933-1.093-5.884-2.997-.539-1.074-1.122-3.31 1.04-6.192l19.778-28.52c1.293-1.928 3.166-3.089 5.265-3.248 2.35-.178 4.719.891 6.65 2.99l20.036 28.847c1.498 2.241 1.782 4.471.807 6.291-.566 1.055-2.058 2.829-5.701 2.829zm-41.983 10.466c-1.095 0-1.989.891-1.989 1.986v4.189c0 1.095.893 1.986 1.989 1.986h41.865c1.095 0 1.989-.891 1.989-1.986v-4.189c0-1.095-.893-1.986-1.989-1.986h-41.865zm41.865 12.558h-41.865c-3.52 0-6.385-2.865-6.385-6.382v-4.189c0-3.517 2.865-6.382 6.385-6.382h41.865c3.517 0 6.382 2.865 6.382 6.382v4.189c0 3.517-2.865 6.382-6.382 6.382z"/></svg>