<svg width="64" height="64" viewBox="0 0 64 64" xmlns="http://www.w3.org/2000/svg"><title>05041ejectC</title><path d="M46.502 44.644c0 1.675-1.363 3.038-3.038 3.038h-22.927c-1.677 0-3.04-1.363-3.04-3.038v-2.293c0-1.675 1.363-3.038 3.04-3.038h22.927c1.675 0 3.038 1.363 3.038 3.038v2.293zm-28.337-13.845l10.927-15.738c.969-1.056 2.133-1.589 3.277-1.502 1.009.077 1.911.64 2.543 1.585l10.844 15.633c1.033 1.378.772 2.415.525 2.91-.442.881-1.466 1.387-2.814 1.387h-22.995c-1.758 0-2.458-.819-2.72-1.308-.171-.32-.256-.67-.256-1.041 0-.602.226-1.259.67-1.926zm13.835-30.799c-17.764 0-32 14.236-32 32s14.236 32 32 32 32-14.362 32-32c0-17.638-14.236-32-32-32z"/></svg>