<svg width="64" height="64" viewBox="0 0 64 64" xmlns="http://www.w3.org/2000/svg"><title>02020elecdatarecovL</title><path d="M41.343 59.936l-2.902-8.995c5.988-2.041 10.711-6.832 12.635-12.869l8.993 2.899c-2.857 8.92-9.858 15.989-18.726 18.965zm-28.324-21.602c2.032 6.077 6.891 10.87 13.019 12.785l-2.899 8.993c-9.012-2.845-16.148-9.919-19.115-18.876l8.995-2.902zm9.958-34.387l2.902 8.993c-6.108 1.966-10.938 6.787-12.921 12.888l-8.993-2.899c2.916-8.983 10.024-16.083 19.012-18.982zm28.04 21.825c-1.976-6.016-6.724-10.779-12.736-12.771l2.899-8.993c8.892 2.925 15.923 9.963 18.832 18.865l-8.995 2.899zm-1.484 6.23c0 9.668-7.868 17.533-17.536 17.533-9.668 0-17.533-7.866-17.533-17.533 0-9.668 7.866-17.536 17.533-17.536 9.668 0 17.536 7.868 17.536 17.536zm-17.536-32.001c-17.644 0-31.999 14.358-31.999 32.001 0 17.644 14.355 31.999 31.999 31.999 17.646 0 32.001-14.355 32.001-31.999s-14.355-32.001-32.001-32.001z"/></svg>