<svg width="64" height="64" viewBox="0 0 64 64" xmlns="http://www.w3.org/2000/svg"><title>05005emailcontctC</title><path d="M49.728 44.379h-37.203c-.882 0-1.627-.487-2.077-1.179l15.641-9.592.091-.083.576.365c1.65 1.045 3.022 1.532 4.323 1.542l.021.004h.024l.021-.004c1.301-.01 2.676-.498 4.325-1.542l.491-.31.031.027 15.771 9.656c-.458.657-1.179 1.115-2.036 1.115zm-39.699-21.161c3.155 2.017 10.24 6.547 14.468 9.239l-14.495 8.886v-17.988l.027-.136zm39.699-2.389c.679 0 1.29.277 1.745.716-5.019 3.2-14.07 8.972-16.974 10.81-1.358.861-2.434 1.263-3.386 1.268-.95-.004-2.025-.407-3.384-1.268-3.309-2.095-13.269-8.462-16.943-10.812.454-.438 1.065-.714 1.74-.714h37.203zm2.525 2.525v18.081l-14.592-8.933c3.869-2.461 10.453-6.658 14.565-9.282l.027.134zm-21.209-21.44c-17.146 0-31.044 13.898-31.044 31.042 0 17.146 13.898 31.044 31.044 31.044 17.144 0 31.044-13.898 31.044-31.044 0-17.144-13.9-31.042-31.044-31.042z"/></svg>