<svg width="64" height="64" viewBox="0 0 64 64" xmlns="http://www.w3.org/2000/svg"><title>05005emailcontctL</title><path d="M59.076 48.223h-54.149c-.808 0-1.488-.442-1.903-1.073l21.649-13.286.137-.128.847.538c2.393 1.515 4.389 2.222 6.275 2.239l.032.005.017-.002.017.002.032-.005c1.885-.017 3.879-.724 6.275-2.239l.722-.459.052.049 21.828 13.394c-.422.57-1.068.965-1.831.965zm-36.683-16.02l-19.786 12.142v-24.733c3.289 2.094 13.497 8.594 19.786 12.591zm36.683-15.593c.52 0 .975.204 1.362.491-3.096 1.974-18.205 11.599-23.53 14.967-1.976 1.252-3.542 1.836-4.927 1.841-1.385-.005-2.951-.589-4.927-1.841-5.31-3.361-20.36-12.947-23.508-14.952.388-.297.852-.506 1.38-.506h54.149zm-17.609 15.659c6.304-4.006 16.668-10.607 19.928-12.684v24.912l-19.928-12.228zm17.609-18.269h-54.149c-2.718 0-4.927 2.209-4.927 4.929v26.974c0 2.718 2.209 4.927 4.927 4.927h54.149c2.718 0 4.929-2.209 4.929-4.927v-26.974c0-2.72-2.212-4.929-4.929-4.929z"/></svg>