<svg width="64" height="64" viewBox="0 0 64 64" xmlns="http://www.w3.org/2000/svg"><title>05005emailcontctS</title><path d="M28 31.145c1.722 1.388 3.104 2.094 4.111 2.102 1.007-.008 2.389-.714 4.116-2.102 5.326-4.293 19.85-16.068 24.334-19.702-1.296-.904-2.864-1.443-4.561-1.443h-48c-1.644 0-3.173.501-4.445 1.355 4.352 3.527 19.072 15.462 24.445 19.79zm11.605 4.95c-2.71 2.101-5.087 3.123-7.427 3.146l-.047.01-.02-.002-.019.002-.048-.01c-2.374-.024-4.785-1.066-7.542-3.23l-21.123 16.497c1.307.932 2.896 1.493 4.621 1.493h48c1.725 0 3.313-.561 4.621-1.493l-21.016-16.413zm24.395-19.713l-19.582 15.858 19.582 15.294v-31.152zm-64 0l19.582 15.858-19.582 15.294v-31.152z"/></svg>