<svg width="64" height="64" viewBox="0 0 64 64" xmlns="http://www.w3.org/2000/svg"><title>05005emailcontctF</title><path d="M30.805 32.923c1.401-.005 2.982-.593 4.978-1.856 4.248-2.69 17.545-11.169 24.856-15.832-.635-.642-1.515-1.045-2.484-1.045h-54.656c-.969 0-1.849.401-2.484 1.043 5.288 3.383 19.959 12.76 24.815 15.834 1.996 1.263 3.577 1.851 4.975 1.856zm7.083-.206l-.759.479c-2.396 1.517-4.392 2.226-6.274 2.242l-.031.007-.019-.002-.017.002-.031-.007c-1.884-.017-3.878-.725-6.274-2.242l-.882-.559-.161.149-22.931 14.059c.614 1.019 1.719 1.711 2.989 1.711h54.656c1.23 0 2.311-.645 2.935-1.609l-23.13-14.161-.071-.069zm23.765 11.622v-26.65l-.009-.104c-6.025 3.842-15.756 10.048-21.407 13.639l21.416 13.115zm-61.641-26.759l-.012.109v26.513l21.274-13.044c-6.184-3.937-16.671-10.641-21.262-13.577z"/></svg>