<svg width="64" height="64" viewBox="0 0 64 64" xmlns="http://www.w3.org/2000/svg"><title>07006emergroadsideC</title><path d="M15.839 10.922c-.519-.451-.625-1.199-.245-1.768.382-.563 1.119-.786 1.771-.519l37.14 15.36c.523.219.863.716.863 1.265v7.87c.907-.189 1.773-.648 2.002-1.728l.751-8.308c.163-1.802 1.762-3.207 3.636-3.207h2.243c-4.963-11.664-16.857-19.887-30.759-19.887-18.358 0-33.241 14.327-33.241 32.002 0 17.671 14.883 31.998 33.241 31.998 11.434 0 21.513-5.56 27.496-14.019h-14.843c-.276 3.579-3.356 6.417-7.144 6.417-3.691 0-6.707-2.699-7.116-6.149h-4.199c-4.579 0-5.539-2.627-5.539-4.829v-2.831c0-1.25.735-2.055 1.223-2.589.137-.153.349-.385.384-.474l-.02-2.937c0-1.626 1.283-3.367 4.104-3.367h10.511v-2.723l-18.508-16.312v13.384c.872.468 1.481 1.328 1.481 2.357 0 1.027-.609 1.885-1.481 2.355v1.505c0 2.82-2.382 5.116-5.308 5.116-2.053 0-3.941-1.154-4.817-2.946-.336-.689-.031-1.507.687-1.83.715-.327 1.565-.03 1.901.659.404.829 1.278 1.365 2.23 1.365 1.351 0 2.446-1.058 2.446-2.363v-1.598c-.786-.487-1.336-1.294-1.336-2.261 0-.967.55-1.775 1.336-2.261v-15.938l-.89-.806zm24.648 17.943c.3.264.472.635.472 1.024v3.333h11.547v-7.054l-28.889-11.968 16.87 14.665zm-1.738 16.227c-2.508 0-4.548 1.962-4.548 4.376 0 .266.035.523.082.776.382 2.045 2.234 3.603 4.466 3.603 2.334 0 4.239-1.705 4.497-3.883.02-.164.051-.325.051-.495 0-2.414-2.04-4.376-4.548-4.376z"/></svg>