<svg width="64" height="64" viewBox="0 0 64 64" xmlns="http://www.w3.org/2000/svg"><title>04005esmartL</title><path d="M9.412 42.595h45.039v-25.858h-45.039v25.858zm-.539.54h46.117v-26.935h-46.117v26.935zm-2.216-28.133c0-.649.528-1.175 1.177-1.175h48.301c.651 0 1.177.526 1.177 1.175v30.182h-50.656v-30.182zm52.172 34.551h-53.657c-1.851 0-3.355-1.142-3.355-2.55 0-.147.119-.264.264-.264h59.839c.145 0 .264.117.264.264 0 1.408-1.506 2.55-3.355 2.55zm-20.255-25.477l-.171.019c-.15.016-.269.059-.346.126-.077.068-.108.156-.098.262.017.177.119.283.296.32l.261.059.08.066c.059.061.098.166.115.318l.719 6.454c.017.15.003.262-.042.338l-.065.082-.24.115c-.164.073-.236.198-.219.376.014.107.066.185.152.234.093.047.213.065.367.045l.171-.017 2.869-.32-.983-8.8-2.867.32zm6.988 1.499c-.315-.6-.749-1.069-1.301-1.403-.554-.348-1.111-.52-1.663-.52-.161 0-.353.014-.584.038l.082.717c.182.017.313.051.404.098.086.044.164.128.236.241.11.173.18.42.215.733l.57 5.085c.024.229.031.402.021.523-.012.122-.042.234-.094.336-.045.086-.098.156-.164.201-.066.045-.189.103-.364.17l.077.696c.409-.044.735-.115.98-.212.245-.098.502-.257.771-.479.56-.458.962-1.046 1.205-1.765.25-.715.322-1.513.226-2.388-.087-.775-.29-1.466-.616-2.073zm-8.05 6.836l-.261-.058-.08-.066c-.059-.061-.098-.17-.114-.32l-.721-6.453c-.017-.152-.005-.262.04-.339l.068-.08.238-.115c.164-.073.238-.201.22-.376-.016-.108-.068-.185-.159-.234-.086-.049-.212-.065-.362-.047l-.171.017-2.874.322-.168.019c-.154.016-.269.058-.35.124-.077.07-.108.157-.098.264.021.175.119.283.297.32l.259.058.084.068c.059.061.093.168.112.318l.721 6.454c.017.149.003.262-.04.336l-.066.082-.24.115c-.164.075-.238.203-.217.378.01.107.063.184.154.234.091.047.208.065.367.045l.166-.017 2.876-.32.171-.021c.154-.014.268-.058.345-.124.077-.07.108-.156.098-.262-.017-.177-.119-.283-.296-.322zm-10.212 1.179l-.238-.077c-.266-.087-.411-.268-.443-.537-.012-.105-.007-.217.012-.341l.679-4.294-.478-1.296-.866 5.475c-.044.301-.117.547-.219.735-.063.115-.136.21-.213.282-.077.072-.198.156-.366.254-.178.105-.264.217-.248.341.012.115.07.201.168.257.101.058.229.079.388.058l1.637-.18c.315-.037.46-.161.436-.376-.017-.15-.1-.248-.25-.299zm5.466-.637c-.14-.035-.231-.091-.28-.17l-.152-.343-2.641-7.374-2.599.29-.089.649 1.774 5.109-1.447.161-.091.787 1.8-.199.313.911.038.191c.012.077 0 .143-.028.199-.031.054-.084.11-.164.163-.114.077-.184.138-.217.185-.028.047-.037.114-.028.199.012.103.061.182.145.234.082.058.187.075.317.061l3.22-.36c.332-.037.488-.168.465-.392-.01-.079-.038-.142-.087-.185-.049-.042-.129-.082-.248-.117zm-7.254-4.737c-.068-.595-.268-1.079-.6-1.455-.331-.369-.747-.623-1.256-.761-.437-.121-1.102-.133-1.987-.031l.077.694c.215.007.392.063.528.17.101.072.171.156.212.25.04.096.072.245.096.448l.229 2.062c.031.282.012.514-.058.693-.045.105-.103.184-.173.241-.07.052-.198.114-.376.177l.077.691c.817-.091 1.434-.241 1.849-.448.504-.257.876-.61 1.125-1.06.243-.453.331-1.011.257-1.67zm-2.991 5.854l-.306-.047-.105-.072c-.072-.065-.119-.182-.136-.352l-.847-7.574-2.869.32-.166.019c-.156.017-.273.061-.35.128-.077.066-.11.154-.098.262.019.177.119.283.297.318l.257.059.082.066c.061.063.098.168.115.32l.719 6.451c.017.152.003.268-.04.339l-.065.084-.24.114c-.164.075-.238.201-.219.378.012.105.063.184.152.234.091.047.213.065.369.047l.166-.021 2.877-.318.219-.026c.191-.021.32-.063.399-.122.101-.08.15-.177.135-.289-.021-.191-.135-.296-.348-.32zm39.396 10.848h-2.778v-29.918c0-1.655-1.349-3.002-3.005-3.002h-48.301c-1.655 0-3.002 1.347-3.002 3.002v29.918h-2.751c-1.147 0-2.081.936-2.081 2.083 0 2.409 2.321 4.369 5.172 4.369h53.657c2.851 0 5.171-1.961 5.171-4.369 0-1.147-.934-2.083-2.081-2.083z"/></svg>