<svg width="64" height="64" viewBox="0 0 64 64" xmlns="http://www.w3.org/2000/svg"><title>05025expandC</title><path d="M49.165 32.614c0 .735-.283 1.018-1.02 1.016h-14.536v14.555c0 .735-.281 1.018-1.016 1.018h-1.131c-.735 0-1.018-.283-1.016-1.018v-14.555h-14.555c-.738.002-1.018-.281-1.018-1.016v-1.131c0-.735.283-1.016 1.018-1.016h14.555v-14.536c-.002-.738.281-1.018 1.016-1.018h1.131c.735 0 1.016.283 1.016 1.018v14.536h14.536c.735 0 1.02.281 1.02 1.016v1.131zm-17.165-32.614c-17.673 0-32 14.327-32 32 0 17.673 14.327 32 32 32 17.673 0 32-14.327 32-32 0-17.673-14.327-32-32-32z"/></svg>