<svg width="64" height="64" viewBox="0 0 64 64" xmlns="http://www.w3.org/2000/svg"><title>02007explosionC</title><path d="M13.6 47.7v10.5c4.1 2.9 8.9 4.8 14.1 5.5v-13.1h8.1v13.2c5.1-.6 9.9-2.4 14-5.2v-10.9h-36.2zm11 10.4h-6.9v-6.9h6.9v6.9zm21.4 0h-6.9v-6.9h6.9v6.9zm-24.6-24.7v8.2c0 .6.5 1.1 1.1 1.1.6 0 1.1-.5 1.1-1.1v-8.2c0-.1 0-.2.1-.2l7.9-7.6c.1-.1.3-.1.4 0l2.2 2.1-3.5 3.8 3.5 2.3-1 4.3 5.2 3.7c.5.3 1.1.2 1.5-.2.3-.5.2-1.1-.2-1.5l-.7-.5 6-.9.3-3.2 5 .2 1.2-1.8 5 11.3v.2c0 .1-.1.1-.2.1h-49c-.2 0-.3-.1-.3-.3l6.4-14.4c.1-.3.4-.4.6-.4h9.4l-1.3 1.2c-.4.5-.7 1.1-.7 1.8zm19.5-6.7l-1.4 7.3 4.6-5-3.3 6.6 5.9-4.3-5.5 6.3-3.9.7-1.8-1.2 1-3.8-1.6-1.4-.2-2.6 2 3.3.4-5.8 1.6 4.6 2.2-4.7zm-11 26h3.9v11.2l-1.8.1-2.1-.1v-11.2zm2.1-52.7c-17.7 0-32 14.3-32 32 0 9.9 4.5 18.7 11.5 24.6v-8.9h-4.2c-.8 0-1.5-.4-1.9-1-.5-.6-.6-1.6-.3-2.3l6.5-14.6c.6-1 1.5-1.6 2.5-1.6h11.6l.3-.2-4.2-1.4c-.4-.2-.7-.6-.5-1.1.2-.4.6-.7 1.1-.5l5 1.7.2-.2-3.4-4.1s1.8.8 3.3 1.3l-4-4.5c-.3-.4-.3-.9.1-1.2.4-.3.9-.3 1.2.1l4.4 5c0-1.6-.1-4.3-.1-4.3l3.2 3.9v-1.4l-.9-5.8c-.1-.5.2-.9.7-1 .5-.1.9.2 1 .7l.6 3.5 1.8 3.4.2-1.5-.4-5.6c0-.5.3-.9.8-.9.5-.1.9.3.9.8l.3 4.4 1.6 3.8 4.6-6.7.1 4.4 2.4-6.1c.2-.4.7-.7 1.1-.5.4.2.7.7.5 1.1l-3.2 8.2 3.1-1.3 3.3-5.4c.2-.4.8-.5 1.2-.3.4.2.5.8.3 1.2l-6 9.8 4.2-1.1 2.1-1.7c.4-.3.9-.3 1.2.1.3.4.3.9-.1 1.2l-1.3 1.1-3.5 4.5 1.6.1 1.3-2 6.6 14.9c.3.9.1 1.6-.3 2.2-.5.6-1.2 1-1.9 1h-4.2v9.2c7.3-5.9 12-14.9 12-25 0-17.7-14.3-32-32-32zm-3.4 16.2c-.1.1-.3.1-.4.1-.3 0-.6-.2-.8-.5l-1.5-3.1c-.2-.4 0-.9.4-1.1.4-.2.9 0 1.1.4l1.5 3.1c.3.4.1.9-.3 1.1zm3.5-5.7c-.5 0-.9-.3-.9-.8l-.3-1.7c-.1-.5.3-.9.8-.9.5-.1.9.3.9.8l.2 1.7c.1.4-.3.9-.7.9zm8.7 8.9c0 .4-.4.8-.8.8h-.1c-.5 0-.8-.5-.8-.9l.1-1.2c0-.5.4-.8.9-.8s.8.5.8.9l-.1 1.2zm.3-3.7c0 .4-.4.8-.8.8h-.1c-.5 0-.8-.5-.8-.9l.4-4.6c0-.5.4-.8.9-.8s.8.5.8.9l-.4 4.6zm14.3-3.4l-1.4 2.3c-.2.3-.4.4-.7.4-.1 0-.3 0-.4-.1-.4-.2-.5-.8-.3-1.2l1.3-2.3c.2-.4.8-.5 1.2-.3.4.3.5.8.3 1.2zm4.3 9.1l-1.3 1.1c-.2.1-.4.2-.6.2-.2 0-.5-.1-.6-.3-.3-.4-.3-.9.1-1.2l1.3-1.1c.4-.3.9-.3 1.2.1.3.4.3.9-.1 1.2z"/></svg>