<svg width="64" height="64" viewBox="0 0 64 64" xmlns="http://www.w3.org/2000/svg"><title>02007explosionL</title><path d="M55.269 38.403c-.038.053-.126.141-.276.141h-48.672c-.151 0-.231-.036-.303-.118-.063-.074-.088-.231-.013-.351l6.379-14.339c.16-.278.465-.444.667-.444h9.54l-1.381 1.334c-.459.444-.722 1.063-.722 1.7v8.151c0 .545.442.987.989.987.545 0 .987-.442.987-.987v-8.151c0-.105.044-.206.118-.278l7.846-7.57c.151-.145.387-.145.535 0l2.252 2.172-3.492 3.763 3.443 2.296-1.01 4.293 5.106 3.687c.442.32 1.057.219 1.379-.223.32-.442.219-1.059-.223-1.379l-.831-.598 6.125-.937.345-3.235 4.961.234 1.233-1.829 5.07 11.378c.044.145-.013.253-.051.305zm-6.476 18.376h-14.046v-13.255h-7.945v13.255h-14.206v-16.262h36.197v16.262zm-20.015 0h3.993v-11.279h-3.993v11.279zm6.705-31.197l.356-5.826 1.572 4.597 2.382-4.74-1.324 7.303 4.611-5.017-3.327 6.592 5.851-4.258-5.497 6.255-3.803.703-.111.021-.093-.061-1.715-1.097.96-3.78-1.635-1.387-.244-2.61 2.016 3.306zm2.572 25.31h6.792v-6.79h-6.792v6.79zm-21.351 0h6.79v-6.79h-6.79v6.79zm8.835 13.108h10.584v-1.985h-10.584v1.985zm26.472-56.633c.158.091.33.135.497.135.341 0 .671-.175.855-.49l1.332-2.286c.276-.471.118-1.076-.354-1.351-.473-.278-1.076-.118-1.351.354l-1.334 2.286c-.274.471-.116 1.076.354 1.351zm6.775 5.744c-.358-.415-.979-.463-1.395-.107l-1.334 1.143c-.413.354-.461.977-.107 1.393.196.227.473.345.751.345.227 0 .455-.078.642-.238l1.334-1.143c.415-.354.463-.977.109-1.393zm-27.872-9.427l.111-.006c.543-.061.934-.549.873-1.092l-.189-1.707c-.059-.541-.553-.939-1.09-.873-.543.061-.934.549-.873 1.09l.189 1.709c.055.505.484.878.979.878zm-4.628 5.241c.173.345.522.545.884.545.149 0 .299-.034.442-.105.488-.244.686-.836.442-1.324l-1.526-3.048c-.244-.49-.835-.686-1.324-.442-.488.244-.686.836-.442 1.326l1.524 3.048zm12.809.663l.093.004c.503 0 .934-.383.981-.895l.427-4.601c.051-.545-.349-1.025-.892-1.076-.541-.048-1.025.349-1.075.892l-.427 4.603c-.051.543.349 1.025.892 1.075zm-.347 3.719l.093.006c.503 0 .934-.385.981-.895l.111-1.195c.051-.543-.347-1.025-.892-1.076-.528-.053-1.023.349-1.075.892l-.111 1.195c-.051.543.349 1.025.892 1.075zm11.858 9.353l-1.227 1.818-1.633-.151 3.043-3.931 1.785-1.505c.417-.352.471-.976.118-1.393-.349-.415-.974-.469-1.393-.118l-2.477 2.092-3.662 1.076 1.05-1.669 5.045-8.231c.286-.465.139-1.073-.326-1.357-.467-.286-1.075-.141-1.358.326l-3.395 5.539-2.728 1.132 3.123-8.086c.198-.509-.055-1.08-.564-1.277-.509-.198-1.082.055-1.278.566l-2.239 5.798-.078-4.014-4.605 6.701-1.463-3.426-.377-4.782c-.044-.543-.505-.96-1.063-.905-.543.042-.951.518-.907 1.061l.49 6.188-.139.911-1.604-3.001-.621-3.856c-.088-.537-.587-.905-1.132-.817-.537.086-.905.593-.817 1.132l1.044 6.491-.013.591-3.208-3.841s.09 2.42.126 4.02l-4.274-4.864c-.358-.408-.983-.45-1.393-.09-.41.36-.45.985-.09 1.395l3.78 4.304c-1.391-.528-3.001-1.185-3.001-1.185l3.395 4.18-.05.048-5.095-1.757c-.518-.173-1.078.097-1.256.612-.179.516.095 1.078.612 1.257l4.142 1.427-.255.248h-11.588c-.943 0-1.875.56-2.424 1.522l-6.522 14.674c-.219.711-.091 1.461.351 2.06.44.6 1.12.943 1.865.943h4.3v18.237h16.143v2.162h8.029v-2.162h15.974v-18.237h4.226c.745 0 1.425-.343 1.865-.943.442-.598.57-1.349.309-2.17l-6.56-14.743z"/></svg>