<svg width="64" height="64" viewBox="0 0 64 64" xmlns="http://www.w3.org/2000/svg"><title>02007explosionF</title><path d="M15.785 51.138h6.934v-6.934h-6.934v6.934zm21.197 0h6.934v-6.934h-6.934v6.934zm-4.14-24.002l.528-.413 1.163-4.348-3.332 2.984 1.64 1.777zm4.904-12.427l.091.004c.49 0 .907-.373.955-.87l.112-1.192c.049-.528-.338-.995-.867-1.046-.545-.06-.995.34-1.046.867l-.112 1.194c-.049.527.34.995.867 1.044zm.347-3.712l.09.004c.49 0 .909-.373.956-.872l.426-4.595c.048-.527-.34-.995-.869-1.044-.528-.048-.997.34-1.044.869l-.426 4.593c-.049.528.338.997.867 1.046zm-18.306 10.035l1.516.523h2.425l.912-.88-4.228-1.457c-.501-.174-1.048.093-1.22.594-.174.501.093 1.048.594 1.22zm5.539-10.684c.17.336.508.53.861.53.143 0 .289-.033.428-.101.474-.238.666-.816.43-1.289l-1.521-3.045c-.236-.472-.81-.664-1.289-.43-.474.238-.666.816-.43 1.289l1.521 3.045zm-.113 7.579c-1.397-.53-3.045-1.203-3.045-1.203l2.884 3.555 3.121-3.013c.488-.47 1.121-.667 1.744-.633l-2.907-3.482s.09 2.456.126 4.054l-4.286-4.879c-.353-.399-.956-.437-1.355-.088-.399.351-.437.956-.088 1.357l3.805 4.332zm4.791-9.117c-.523.086-.88.578-.795 1.101l1.02 6.343-.009.437c.43.082.848.245 1.189.574l4.347 4.014-.947.848 1.225 3.573 2.754-4.672-1.32 7.289 4.601-5.007-3.319 6.579 4.058-2.951.044-.057h.033l.355.007.272-.022 2.445-.055 1.863-2.523h.029l1.993-2.575 1.691-1.426c.404-.342.457-.947.115-1.353-.342-.402-.949-.457-1.353-.115l-2.428 2.05-3.888 1.273 1.234-1.92 4.997-8.154c.276-.452.135-1.044-.318-1.322-.453-.276-1.042-.135-1.32.318l-3.37 5.5-2.798 1.159 3.127-8.095c.192-.494-.055-1.05-.549-1.242-.492-.187-1.05.057-1.242.55l-2.258 5.848-.08-4.076-4.414 6.426-.24.128-1.435-3.361-.371-4.694c-.042-.528-.492-.92-1.033-.881-.528.042-.923.505-.881 1.033l.481 6.067-.155 1.02-1.64-3.065-.607-3.778c-.084-.521-.569-.881-1.101-.795zm27.723 5.744c-.344-.4-.949-.446-1.355-.102l-1.331 1.141c-.402.344-.448.951-.102 1.353.188.221.457.335.73.335.219 0 .443-.075.624-.23l1.331-1.141c.402-.346.45-.951.104-1.355zm-6.727-5.771c.152.088.318.13.483.13.329 0 .651-.17.83-.475l1.331-2.284c.267-.457.112-1.046-.346-1.313-.461-.269-1.046-.113-1.315.346l-1.331 2.282c-.267.459-.112 1.048.347 1.315zm-1.761 18.085l-1.251 1.854-.514-.024-.15.002-1.095.026-.452.011-1.984.044-2.108 2.666-7.885 1.598-.3.06.923.581c.45.282.585.874.304 1.324-.283.45-.876.583-1.324.302l-4.974-3.127 2.946-3.807-2.906-3.149 4.431-3.972-2.809-2.595c-.176-.168-.424-.168-.583-.015l-7.817 7.543c-.08.077-.126.183-.126.293v8.121c0 .53-.43.96-.96.96s-.96-.43-.96-.96v-8.121c0-.627.261-1.24.713-1.675l1.382-1.333h-9.644c-.208 0-.523.17-.686.453l-6.367 14.343c-.064.135-.055.252.007.335.053.071.166.144.329.144h48.587c.161 0 .254-.093.296-.15.042-.057.102-.174.055-.327l-5.08-11.407zm-19.313-21.765l.106-.005c.527-.06.907-.534.848-1.061l-.188-1.704c-.059-.527-.525-.907-1.059-.848-.527.059-.907.532-.848 1.059l.188 1.704c.053.492.47.856.953.856zm-3.5 39.102v13.321h-15.634v-16.83h38.118v16.83h-15.634v-13.321h-6.85zm0 15.872h6.85v-2.551h-6.85v2.551zm-1.088 3.924h9.026v-2.478h-9.026v2.478z"/></svg>