<svg width="64" height="64" viewBox="0 0 64 64" xmlns="http://www.w3.org/2000/svg"><title>02022extcoverageL</title><path d="M60.253 32.614c-.649 0-1.174.525-1.174 1.172 0 15.367-12.5 27.869-27.866 27.869-15.367 0-27.869-12.502-27.869-27.869 0-11.688 7.144-21.93 17.938-26.028l-2.214 3.648c-.335.554-.159 1.273.393 1.609.192.117.402.172.609.172.395 0 .783-.201 1.002-.565l3.957-6.519c.185-.307.221-.682.097-1.017-.126-.338-.397-.596-.739-.708l-7.345-2.379c-.618-.203-1.278.139-1.476.755-.201.616.137 1.278.753 1.479l4.125 1.335c-11.701 4.445-19.443 15.548-19.443 28.22 0 16.66 13.553 30.215 30.212 30.215 16.66 0 30.212-13.555 30.212-30.215 0-.647-.525-1.172-1.172-1.172zm-31.759-1.604c-1.353 1.419-1.461 3.626-.227 5.166l-5.535 12.515c-.404.916.009 1.984.925 2.388.236.106.486.157.73.157.695 0 1.355-.404 1.655-1.079l5.537-12.518c.872-.055 1.706-.384 2.364-.964.79-.697 1.26-1.66 1.326-2.71.066-1.053-.282-2.066-.98-2.854-.611-.691-1.461-1.092-2.355-1.225l-3.043-8.903c-.324-.945-1.357-1.446-2.297-1.128-.947.324-1.452 1.353-1.128 2.3l3.028 8.854zm16.693-10.648c.302 0 .602-.115.832-.346l1.882-1.894c.457-.459.455-1.203-.004-1.66-.457-.452-1.201-.455-1.657.004l-1.885 1.894c-.457.459-.452 1.203.004 1.66.23.227.53.342.828.342zm-14.334-5.542h.002c.649-.002 1.172-.527 1.17-1.176l-.007-2.67c-.002-.647-.527-1.17-1.174-1.17h-.002c-.649.002-1.172.53-1.17 1.178l.009 2.668c0 .647.525 1.17 1.172 1.17zm-14.054 6.219c.3 0 .602-.115.832-.344.457-.459.455-1.203-.004-1.66l-1.896-1.885c-.455-.452-1.198-.455-1.657.004-.457.459-.455 1.203.004 1.66l1.896 1.885c.227.225.525.34.825.34zm-5.542 11.99l-2.673.007c-.647.002-1.17.527-1.167 1.174 0 .647.525 1.17 1.172 1.17h.002l2.673-.007c.647-.002 1.172-.527 1.17-1.174-.002-.647-.527-1.17-1.174-1.17h-.002zm4.339 18.291c.3 0 .602-.115.832-.344l1.882-1.896c.457-.459.455-1.203-.004-1.66-.459-.455-1.203-.455-1.66.004l-1.882 1.896c-.457.459-.455 1.201.004 1.66.23.225.527.34.828.34zm16.216 1.3h-.002c-.649.002-1.172.527-1.17 1.176l.009 2.673c0 .647.525 1.167 1.172 1.167h.002c.649-.002 1.172-.527 1.17-1.176l-.007-2.673c-.002-.647-.527-1.167-1.174-1.167zm13.222-5.873c-.457.459-.455 1.201.004 1.657l1.894 1.885c.23.227.527.34.828.34.3 0 .602-.113.832-.344.455-.459.455-1.203-.007-1.66l-1.894-1.882c-.457-.452-1.198-.455-1.657.004zm6.371-12.334h.004l2.67-.009c.649-.002 1.172-.527 1.17-1.176-.002-.647-.527-1.17-1.174-1.17h-.004l-2.67.009c-.649.002-1.17.527-1.167 1.176.002.647.525 1.17 1.172 1.17z"/></svg>