<svg width="64" height="64" viewBox="0 0 64 64" xmlns="http://www.w3.org/2000/svg"><title>02022extcoverageC</title><path d="M18.541 32.974c.002.578-.465 1.045-1.041 1.047l-1.827.006h-.002c-.574 0-1.041-.465-1.043-1.038-.002-.576.462-1.045 1.038-1.047l1.829-.004h.002c.574 0 1.041.462 1.043 1.036zm.718-10.354c-.409-.407-.411-1.067-.004-1.474.405-.409 1.065-.407 1.474-.004l1.294 1.288c.409.407.409 1.067.004 1.476-.204.204-.473.306-.739.306s-.531-.101-.735-.301l-1.294-1.29zm.467 20.536l1.288-1.297c.405-.407 1.065-.407 1.474-.004.407.407.409 1.065.004 1.476l-1.288 1.297c-.204.204-.471.306-.739.306-.266 0-.533-.101-.735-.301-.409-.407-.411-1.065-.004-1.476zm12.827 10.415c-.475.029-.946.047-1.414.047-10.899 0-20.113-8.485-20.852-19.52-.572-8.524 4.001-16.365 11.518-20.104l-2.228-.559c-.559-.142-.898-.708-.758-1.266.14-.557.712-.892 1.266-.758l5.124 1.288c.31.081.566.293.696.584s.122.626-.025.908l-2.403 4.631c-.186.357-.549.562-.927.562-.161 0-.324-.035-.479-.116-.51-.264-.71-.896-.444-1.406l1.014-1.953c-6.71 3.384-10.787 10.409-10.275 18.05.696 10.36 9.699 18.232 20.046 17.53 10.36-.694 18.223-9.687 17.53-20.049-.039-.572.396-1.069.97-1.109.582-.047 1.071.394 1.109.972.772 11.503-7.963 21.494-19.468 22.266zm.056-5.362c.002.578-.551 1.061-1.041 1.045-.574 0-1.041-.462-1.043-1.038l-.006-1.827c-.002-.576.465-1.043 1.041-1.045h.002c.574 0 1.041.462 1.043 1.038l.004 1.827zm-5.388-25.15c.822-.343 1.761.045 2.104.863l2.479 5.923c.551.103 1.084.308 1.497.716.557.553.867 1.288.871 2.073.004.787-.297 1.526-.851 2.083-.394.396-.884.663-1.416.787l-3.183 8.737c-.239.652-.855 1.059-1.511 1.059-.184 0-.37-.031-.551-.099-.836-.303-1.263-1.226-.96-2.062l3.204-8.793c-.71-.985-.735-2.267-.074-3.281l-2.471-5.902c-.343-.82.043-1.761.863-2.104zm3.677-7.015h.002c.576 0 1.043.467 1.043 1.041l.004 1.827c.002.574-.462 1.043-1.038 1.045h-.002c-.576 0-1.043-.467-1.043-1.041l-.004-1.827c-.002-.574.462-1.043 1.038-1.045zm9.08 5.925l1.288-1.294c.405-.409 1.065-.407 1.474-.004.407.405.409 1.067.002 1.474l-1.288 1.294c-.204.206-.471.308-.739.308-.266 0-.531-.101-.735-.303-.409-.405-.409-1.067-.002-1.474zm3.235 22.185c-.202.204-.471.306-.737.306s-.533-.101-.735-.301l-1.297-1.29c-.409-.405-.409-1.065-.004-1.474.407-.409 1.067-.407 1.474-.004l1.297 1.288c.409.407.409 1.067.002 1.476zm1.755-12.876l1.829-.002h.002c.574 0 1.041.465 1.041 1.038.002.576-.465 1.043-1.038 1.045l-1.829.004h-.002c-.574 0-1.041-.467-1.043-1.041 0-.574.465-1.043 1.041-1.045zm-13.669-29.878c-17.286 0-31.298 14.014-31.298 31.3 0 17.284 14.012 31.298 31.298 31.298 17.286 0 31.3-14.014 31.3-31.298 0-17.286-14.014-31.3-31.3-31.3z"/></svg>