<svg width="64" height="64" viewBox="0 0 64 64" xmlns="http://www.w3.org/2000/svg"><title>05019externallinkS</title><path d="M53 36h-2c-1.65 0-3 1.35-3 3v17h-40v-40h17c1.65 0 3-1.35 3-3v-2c0-1.65-1.35-3-3-3h-22c-1.65 0-3 1.35-3 3v50c0 1.65 1.35 3 3 3h50c1.65 0 3-1.35 3-3v-22c0-1.65-1.35-3-3-3zm8-36h-22c-1.65 0-3 1.35-3 3v2c0 1.65 1.35 3 3 3h11.343l-21.677 21.677c-1.167 1.167-1.167 3.076 0 4.243l1.414 1.414c1.166 1.167 3.076 1.167 4.242 0l21.678-21.677v11.343c0 1.65 1.35 3 3 3h2c1.65 0 3-1.35 3-3v-22c0-1.65-1.35-3-3-3z"/></svg>