<svg width="64" height="64" viewBox="0 0 64 64" xmlns="http://www.w3.org/2000/svg"><title>05019externallinkF</title><path d="M61.413 0h-22.492c-1.254 0-1.733.476-1.733 1.731v1.922c0 1.252.479 1.731 1.733 1.731h15.571l-24.952 24.949-.016.024-.369.369c-.886.886-.888 1.564-.003 2.449l1.359 1.359c.886.886 1.564.886 2.449-.003l8.823-8.821-.005-.003 16.519-16.519v15.854c0 1.252.479 1.731 1.731 1.731h1.922c1.254 0 1.731-.479 1.731-1.731v-22.774c0-1.254-1.015-2.269-2.269-2.269zm-1.451 36.039c0-1.252-.476-1.733-1.731-1.733h-1.922c-1.252 0-1.731.482-1.731 1.733v20.309c0 1.252-1.015 2.269-2.269 2.269h-44.658c-1.254 0-2.269-1.017-2.269-2.269v-44.445c0-1.254 1.015-2.269 2.269-2.269h20.594c1.254 0 1.736-.476 1.736-1.731v-1.922c0-1.252-.482-1.731-1.736-1.731h-22.481c-3.184 0-5.766 2.581-5.766 5.766v48.219c0 3.184 2.581 5.766 5.766 5.766h48.431c3.184 0 5.766-2.581 5.766-5.766v-22.196z"/></svg>