<svg width="64" height="64" viewBox="0 0 64 64" xmlns="http://www.w3.org/2000/svg"><title>05019externallinkC</title><path d="M50.291 27.607c0 .691-.264.956-.956.956h-1.063c-.691 0-.956-.266-.956-.956v-8.763l-9.129 9.131.002.002-4.878 4.876c-.489.491-.863.491-1.354 0l-.75-.75c-.489-.491-.489-.865 0-1.354l.206-.206.009-.013 13.792-13.79h-8.608c-.693 0-.959-.266-.959-.956v-1.063c0-.693.266-.956.959-.956h12.431c.693 0 1.254.561 1.254 1.254v12.589zm-2.055 18.346c0 1.76-1.426 3.186-3.186 3.186h-26.769c-1.762 0-3.188-1.426-3.188-3.186v-26.652c0-1.76 1.426-3.188 3.188-3.188h12.425c.693 0 .959.266.959.959v1.061c0 .695-.266.959-.959.959l-11.384-.002c-.693 0-1.254.561-1.254 1.254v24.567c0 .691.561 1.254 1.254 1.254h24.684c.693 0 1.254-.563 1.254-1.254v-11.224c0-.693.266-.959.956-.959h1.063c.693 0 .956.266.956.959v12.268zm-16.236-45.953c-17.673 0-32 14.325-32 32 0 17.673 14.327 32 32 32 17.673 0 32-14.327 32-32 0-17.675-14.327-32-32-32z"/></svg>