<svg width="64" height="64" viewBox="0 0 64 64" xmlns="http://www.w3.org/2000/svg"><title>05019externallinkL</title><path d="M38.037 3.62l19.2-.003-27.673 27.673c-.435.435-.435 1.148 0 1.583l.976.978c.435.432 1.145.432 1.58-.003l27.623-27.623-.006 19.372c.006.615.496 1.114 1.117 1.114l1.386.003c.615-.003 1.117-.504 1.117-1.117v-24.48c-.003-.297-.116-.574-.33-.787-.211-.211-.491-.327-.787-.327l-24.206-.003c-.613 0-1.114.502-1.114 1.117v1.386c.006.621.504 1.114 1.117 1.117zm18.252 53.761c0 1.669-1.355 3.024-3.024 3.024h-46.646c-1.669 0-3.024-1.355-3.024-3.024v-46.347c0-1.666 1.355-3.021 3.024-3.021l21.412-.017c.607-.003 1.1-.491 1.103-1.103l.003-1.372c-.003-.607-.499-1.103-1.103-1.103h-21.415c-3.65 0-6.619 2.969-6.619 6.616v46.347c0 3.65 2.969 6.619 6.619 6.619h46.646c3.648 0 6.616-2.969 6.616-6.619l.006-21.076c0-.61-.499-1.109-1.109-1.111l-1.38.003c-.618.006-1.106.502-1.109 1.109v21.076z"/></svg>