<svg width="64" height="64" viewBox="0 0 64 64" xmlns="http://www.w3.org/2000/svg"><title>02008fallingobjF</title><path d="M40.093 26.974c.136 1.053-.145 2.095-.793 2.936-.186.239-.463.363-.744.363-.199 0-.4-.062-.57-.195-.41-.314-.485-.903-.17-1.313.343-.444.491-.993.418-1.549-.073-.556-.356-1.049-.8-1.392-.41-.314-.487-.903-.172-1.313.314-.41.903-.487 1.313-.172v-.001c.842.648 1.381 1.583 1.518 2.636zm-19.426 31.055h9.353v-2.539h-9.353v2.539zm43.331-10c-.802.227-1.997.69-3.003 1.606-.757.694-1.34 1.589-1.718 2.288-2.061-3.802-6.485-12.268-8.879-15.558l-.054.052c-1.225.802-2.372 1.104-3.389 1.104-.842 0-1.58-.215-2.213-.517v14.383h-15.848v2.621h-7.099v-2.621h7.097v-13.654h-7.097v13.654h-16.021v-17.25h31.266l-.103-.142c-.232-.394-.41-.817-.528-1.265-.876.025-1.719-.187-2.482-.56h-33.549c-.165 0-.253-.045-.326-.133-.065-.078-.065-.234-.022-.35l6.516-14.67c.169-.293.489-.465.701-.465h9.802l-1.454 1.403c-.465.448-.731 1.074-.731 1.718v8.32c0 .544.441.984.984.984.544 0 .984-.441.984-.984v-8.32c0-.113.047-.223.129-.302l8.007-7.728c.165-.156.42-.157.583 0l6.117 5.902c.545-.313 1.133-.523 1.763-.62l.099-.317-.06-.056h.079c.208-.73.569-1.396 1.06-1.967.358-.418.763-.798 1.248-1.092-.348-.98-.397-2.043-.129-3.073.352-1.364 1.216-2.507 2.43-3.221 2.072-1.221 4.697-.841 6.364.806l.172-.107c1.752-1.033 3.895-.95 5.542.129.405-.518.905-.959 1.48-1.296 1.212-.714 2.632-.914 3.996-.56 1.364.352 2.507 1.216 3.221 2.43.463.787.705 1.668.716 2.582.916.453 1.683 1.158 2.196 2.029 1.205 2.048.888 4.59-.714 6.28.53 2.061-.225 4.223-1.922 5.501.009.66-.109 1.716-.791 2.715-.776 1.139-2.063 1.879-3.798 2.231.123 1.908.498 3.796 1.255 5.355l-.001-.001c2.011 4.135 6.026 9.551 8.124 12.736zm-46.003-10.296h-7.104v7.104h7.104v-7.104zm10.898-18.327h-7.104v7.106h7.104v-7.106zm10.896 18.327h-7.104v7.104h7.104v-7.104zm15.078-17.848l1.214.847c-.747 1.154-1.442 4.096-1.506 7.294 1.053-.266 1.832-.714 2.28-1.358.638-.916.455-1.964.453-1.973-.071-.387.105-.787.444-.987 1.44-.845 2.042-2.593 1.431-4.156-.148-.376-.036-.805.275-1.064 1.293-1.07 1.615-2.891.768-4.328-.519-.884-1.293-1.295-1.851-1.482-.421-.14-.683-.56-.631-1 .092-.76-.056-1.497-.429-2.13-.461-.783-1.197-1.337-2.076-1.566-.879-.232-1.795-.099-2.576.36-.59.349-1.057.86-1.349 1.482-.131.278-.391.474-.693.525-.3.05-.612-.051-.826-.27-1.096-1.128-2.805-1.363-4.154-.57-.204.12-.403.273-.609.47-.201.187-.474.279-.744.251-.271-.028-.518-.176-.674-.401-1.005-1.467-2.987-1.915-4.51-1.019-.783.461-1.337 1.199-1.566 2.078-.228.879-.099 1.793.36 2.576.142.24.169.529.075.791-.091.26-.296.468-.556.564-.189.07-.376.148-.556.255-.988.579-1.612 1.615-1.666 2.767-.026.497-.435.888-.933.892-.626.002-1.197.154-1.701.45-1.617.952-2.157 3.041-1.207 4.656.309.525.753.947 1.319 1.252.416.224.599.723.429 1.163-.38.985-.3 2.059.221 2.947.742 1.259 2.207 1.895 3.65 1.578.262-.056.538.002.755.161.217.159.354.406.378.674.045.527.195 1.007.442 1.43.95 1.615 3.037 2.155 4.654 1.207.401-.24.915-.143 1.207.219.19.228 1.958 2.179 4.763.453-2.469-2.587-5.124-4.003-6.973-4.736l.423-.824 5.15 2.093-1.527-2.668c-2.096-4.285-2.557-5.604-2.557-5.604l1.484.116s1.709 2.396 5.72 6.49l.68.611.285-.873c.514-5.011 1.804-7.951 3.011-9.639l-.001-.004zm-1.332-7.48v.001c-1.617-.468-3.189.596-3.363.719-.42.298-.521.877-.225 1.3.298.425.882.526 1.302.232.274-.189 1.119-.641 1.772-.45.135.039.551.161.897.993.152.36.498.575.866.575.12 0 .244-.022.36-.071.478-.2.703-.749.504-1.227-.577-1.377-1.469-1.887-2.113-2.072z"/></svg>