<svg width="64" height="64" viewBox="0 0 64 64" xmlns="http://www.w3.org/2000/svg"><title>02008fallingobjC</title><path d="M9.133 24.407l.001-.001h.003l-.004.001zm4.382 33.686c1.428 1.014 2.945 1.9 4.534 2.671v-9.462h-4.534v6.79zm32.768-35.25h-.001c-1.711-.491-3.378.639-3.562.769-.383.272-.474.799-.204 1.18.268.387.799.481 1.182.21.323-.223 1.326-.75 2.119-.523.467.136.831.531 1.114 1.205.138.327.453.523.784.523.11 0 .221-.022.329-.066.433-.18.635-.678.455-1.112-.489-1.168-1.234-1.904-2.216-2.187zm17.716 9.157c0 9.681-4.316 18.34-11.111 24.208-1.763-2.627-3.544-5.417-4.724-7.844-2.438-5.018-1.562-12.973-.106-16.214l-.012-.008c-1.044 1.737-2.219 4.69-2.719 9.557l-.451 2.863-2.03-2.025c-3.069-3.131-4.955-5.247-5.858-6.295.431.876 1.08 2.204 2.047 4.181l2.887 5.041-2.837-1.154c1.262.924 2.563 2.076 3.798 3.502 1.539 1.787 4.21 6.467 6.654 10.939-3.381 2.222-7.2 3.823-11.309 4.634v-13.205c-.818-.126-1.537-.411-2.126-.776v14.305c-1.346.172-2.709.291-4.102.291-4.181 0-8.162-.825-11.823-2.282v-12.54h-8.784v7.285c-3.467-2.924-6.281-6.577-8.255-10.716h24.703c-.107-.261-.249-.506-.315-.782-1.45.082-2.851-.423-3.945-1.343h-21.37c-1.409-3.607-2.21-7.517-2.21-11.621 0-1.868.194-3.69.501-5.469h6.429l-1.613 1.556c-.503.489-.791 1.169-.791 1.866v9.09c0 .589.476 1.062 1.062 1.062.587 0 1.062-.474 1.062-1.062v-9.09c0-.128.052-.25.142-.34l8.754-8.444c.181-.174.469-.174.653 0l7.124 6.876c.298-.094.601-.175.918-.215.089-.491.264-.952.474-1.394l-7.041-6.796c-1.011-.972-2.592-.974-3.604.002l-4.936 4.764h-8.188c3.416-14.002 16.006-24.405 31.055-24.405 17.672 0 31.998 14.324 31.998 31.998zm-43.903 6.421l-.002-2.292c-.699-1.269-.897-2.727-.531-4.136.104-.404.258-.784.444-1.148l-7.493.006.008 7.575v.001l7.575-.006zm11.381 11.361h-7.575v7.575h7.575v-7.575zm22.425-25.272c-.48-.811-1.222-1.409-2.151-1.719-.38-.13-.62-.509-.571-.91.106-.88-.066-1.735-.499-2.472-1.103-1.875-3.528-2.511-5.405-1.403-.685.401-1.229.999-1.569 1.719-.119.255-.355.434-.629.479-.275.047-.555-.046-.75-.246-1.272-1.31-3.255-1.577-4.822-.659-.235.137-.466.315-.71.547-.18.17-.433.253-.673.228-.247-.026-.47-.162-.613-.363-1.168-1.709-3.474-2.226-5.239-1.184-.909.533-1.556 1.39-1.821 2.412-.264 1.02-.114 2.083.421 2.993.128.219.151.483.066.719-.084.239-.27.425-.508.513-.216.078-.433.172-.641.295-1.148.674-1.873 1.877-1.936 3.216-.024.449-.393.804-.846.808-.727.002-1.392.181-1.979.525-.907.533-1.553 1.392-1.819 2.412-.264 1.022-.114 2.085.419 2.993.361.614.878 1.105 1.533 1.456.379.204.545.657.391 1.056-.444 1.144-.348 2.393.257 3.426.861 1.461 2.57 2.2 4.238 1.834.243-.058.489 0 .687.144.198.145.32.371.342.613.054.607.225 1.166.517 1.657 1.103 1.879 3.53 2.513 5.405 1.405.363-.215.829-.132 1.094.198.204.248 1.96 2.182 4.767.933-2.612-2.723-5.413-4.221-7.379-4.999l-.874-.344 1.254-2.436 4.138 1.681-.465-.818c-1.992-4.063-2.642-5.388-2.797-5.7l-.149-.032c-.448-.138-.701-.612-.565-1.062.138-.448.609-.701 1.062-.565.863.264 1.762.225 2.599-.104.739-.293 1.368-.795 1.815-1.454.263-.389.793-.493 1.18-.228.389.264.491.791.227 1.182-.619.911-1.488 1.602-2.502 2.025.893 1.028 2.614 2.956 5.305 5.71.478-4.452 1.636-8.05 3.409-10.539l.489-.684 2.708 1.89-.447.689c-.723 1.112-1.436 4.177-1.519 7.53.808-.319 1.435-.759 1.832-1.341.738-1.08.521-2.283.517-2.294-.072-.356.09-.718.401-.903 1.672-.984 2.372-3.016 1.662-4.831-.134-.342-.032-.731.251-.965 1.5-1.242 1.877-3.358.892-5.031zm-24.236 11.508c-.372-.289-.905-.217-1.192.155-.287.372-.219.905.155 1.19 1.094.848 1.3 2.425.457 3.522-.287.37-.217.903.155 1.19h-.001c.155.122.338.178.519.178.255 0 .505-.114.673-.331 1.415-1.837 1.072-4.484-.767-5.904zm17.937-6.254l.002.001-.002-.001z"/></svg>