<svg width="64" height="64" viewBox="0 0 64 64" xmlns="http://www.w3.org/2000/svg"><title>02008fallingobjL</title><path d="M54.991 20.786c-1.19 1.668-2.466 4.567-2.972 9.514l-.28.86-.671-.603c-2.515-2.566-4.107-4.45-4.937-5.486.159-.045.32-.076.476-.138.993-.39 1.834-1.063 2.433-1.948.313-.461.193-1.088-.267-1.4-.461-.313-1.09-.193-1.4.267-.371.548-.893.965-1.505 1.205-.696.275-1.442.305-2.153.087-.534-.159-1.097.138-1.26.669-.161.534.138 1.097.671 1.26.44.135.895.199 1.351.214.375.858.995 2.217 2.005 4.283l1.507 2.632-5.081-2.066-.419.815c1.812.716 4.408 2.098 6.828 4.617-2.702 1.658-4.4-.227-4.582-.445-.313-.389-.864-.489-1.296-.237-1.554.915-3.563.394-4.478-1.158-.239-.407-.383-.872-.426-1.378-.025-.288-.172-.551-.406-.724-.233-.172-.531-.237-.813-.174-1.387.301-2.799-.307-3.512-1.518-.502-.853-.58-1.888-.212-2.835.184-.474-.013-1.012-.462-1.253-.544-.292-.97-.697-1.268-1.203-.915-1.554-.394-3.563 1.16-4.478.483-.284 1.035-.43 1.637-.434.536-.002.978-.425 1.003-.959.053-1.109.654-2.105 1.603-2.663.172-.102.352-.178.534-.244.28-.104.5-.326.601-.608.1-.28.072-.593-.08-.851-.443-.752-.567-1.632-.349-2.477.22-.847.756-1.556 1.509-1.999 1.465-.862 3.371-.432 4.34.98.167.244.432.402.726.434.29.027.584-.068.8-.273.199-.19.392-.337.586-.451 1.298-.766 2.939-.538 3.995.546.231.239.565.347.891.294.326-.055.605-.267.747-.567.28-.599.73-1.09 1.296-1.425 1.556-.912 3.563-.394 4.478 1.162.358.608.5 1.317.411 2.047-.059.476.226.927.68 1.078.536.182 1.279.574 1.78 1.425.815 1.383.504 3.135-.739 4.165-.335.277-.455.737-.296 1.143.586 1.503.008 3.186-1.378 4.001-.37.22-.561.648-.476 1.071.002.009.167.991-.423 1.855-.425.623-1.173 1.057-2.191 1.319.074-3.119.752-5.981 1.484-7.109l-1.2-.838zm-10.478 29.409h-14.13v-13.184h-7.901v13.184h-13.971v-16.175h28.4c.097.246.176.5.311.73 1.342 2.278 4.139 3.184 6.519 2.229.222.19.485.371.771.542v12.675zm-20.068 0h3.972v-11.219h-3.972v11.219zm-22.103-18.138c-.121 0-.233-.03-.299-.119-.07-.091-.081-.207-.015-.332l6.347-14.278c.159-.277.462-.442.661-.442h9.415l-1.374 1.327c-.457.442-.718 1.057-.718 1.69v8.107c0 .542.44.982.984.982.542 0 .982-.44.982-.982v-8.107c0-.104.044-.205.117-.277l7.804-7.529c.148-.144.385-.144.534 0l6.129 5.913c-.315.11-.622.246-.912.417-.931.548-1.628 1.34-2.068 2.246l-6.44-.008-.008 6.754 6.766.009v-1.687c.322.479.752 1.075 1.22 1.429-.284 1.294-.08 2.638.597 3.786.243.411.529.777.855 1.099h-30.578zm51.354-18.733c-1.635-.472-3.214.597-3.388.72-.455.322-.563.951-.243 1.406.322.455.951.561 1.406.243.193-.138 1.042-.614 1.668-.432.127.036.508.146.838.934.161.387.536.62.931.62.131 0 .262-.027.389-.08.514-.214.756-.805.542-1.319-.582-1.389-1.486-1.905-2.141-2.092zm-14.733 11.79c-.44-.337-1.073-.258-1.416.184-.339.442-.256 1.075.186 1.414.421.324.69.792.758 1.319.068.525-.072 1.046-.396 1.467-.339.442-.258 1.075.184 1.414.182.142.4.21.614.21.303 0 .601-.135.8-.394.654-.845.936-1.897.798-2.956-.136-1.061-.68-2.005-1.527-2.657zm-17.852 32.265h10.527v-1.973h-10.527v1.973zm-8.676-13.038h6.756v-6.754h-6.756v6.754zm21.237 0h6.754v-6.754h-6.754v6.754zm22.311-8.352c-.735-1.514-1.107-3.345-1.234-5.196 1.742-.351 3.032-1.095 3.813-2.242.678-.993.805-2.024.798-2.687 1.664-1.275 2.407-3.406 1.903-5.443 1.577-1.692 1.884-4.222.684-6.263-.508-.86-1.258-1.558-2.157-2.013-.019-.898-.262-1.764-.716-2.538-1.478-2.513-4.725-3.352-7.239-1.876-.555.326-1.039.747-1.435 1.241-1.645-1.044-3.758-1.111-5.492-.091l-.117.072c-1.673-1.609-4.272-1.973-6.335-.76-1.217.714-2.083 1.863-2.437 3.229-.262 1.012-.222 2.052.108 3.019-.834.519-1.474 1.258-1.903 2.111l-6.081-5.867c-.915-.881-2.348-.883-3.262 0l-4.393 4.239h-11.452c-.936 0-1.863.557-2.411 1.514l-6.485 14.596c-.28.66-.121 1.486.318 2.081.44.597 1.145.906 1.884.906h4.203v18.14h15.889v2.151h7.986v-2.151h16.057v-13.961c.231.032.457.074.703.074 1.018 0 2.166-.303 3.392-1.105l.055-.055c2.373 3.294 6.694 11.558 8.714 15.286.373-.688.948-1.573 1.696-2.257.993-.904 2.172-1.361 2.962-1.584-2.069-3.142-6.034-8.488-8.016-12.57z"/></svg>