<svg width="64" height="64" viewBox="0 0 64 64" xmlns="http://www.w3.org/2000/svg"><title>06015faqstooltipC</title><path d="M35.539 37.611v4.023h-8.011v-4.295c0-7.955 10.244-8.446 10.244-14.168 0-2.616-2.07-4.689-5.83-4.689-2.616 0-5.613.929-8.011 3.271l-3.815-5.666c3.379-2.944 7.575-4.742 12.642-4.742 8.066 0 13.626 4.631 13.626 11.39 0 9.481-10.846 10.463-10.846 14.876zm-8.937 11.926c0-2.833 2.236-5.067 5.067-5.067 2.78 0 5.069 2.234 5.069 5.067s-2.289 5.067-5.069 5.067c-2.831 0-5.067-2.234-5.067-5.067zm5.399-49.537c-17.673 0-32 14.327-32 32 0 17.673 14.327 32 32 32 17.673 0 32-14.327 32-32 0-17.673-14.327-32-32-32z"/></svg>