<svg width="64" height="64" viewBox="0 0 64 64" xmlns="http://www.w3.org/2000/svg"><title>06015faqstooltipS</title><path d="M29.802 51.773c3.333 0 6.116 2.698 6.116 6.116 0 3.414-2.782 6.112-6.116 6.112-3.333 0-6.116-2.698-6.116-6.112 0-3.418 2.782-6.116 6.116-6.116m4.367-13.192v7.161h-9.051v-7.398c0-11.91 15.323-12.147 15.323-21.833 0-4.443-3.18-8.098-9.529-8.098-4.527 0-8.572 1.669-12.067 4.922l-4.845-6.586c4.926-4.21 10.643-6.747 17.627-6.747 10.876 0 18.737 6.429 18.737 16.116 0 14.129-16.196 15.243-16.196 22.465" fill="#000"/></svg>