<svg width="64" height="64" viewBox="0 0 64 64" xmlns="http://www.w3.org/2000/svg"><title>06015faqstooltipL</title><path d="M2.468 32.001c0-16.286 13.247-29.534 29.531-29.534 16.286 0 29.534 13.247 29.534 29.534 0 16.284-13.247 29.531-29.534 29.531-16.284 0-29.531-13.247-29.531-29.531zm28.763 11.965c-2.737 0-4.895 2.158-4.895 4.895 0 2.737 2.158 4.895 4.895 4.895 2.684 0 4.895-2.158 4.895-4.895 0-2.737-2.211-4.895-4.895-4.895zm1.052-31.987c-4.893 0-8.945 1.737-12.207 4.578l3.681 5.473c2.318-2.263 5.211-3.158 7.739-3.158 3.631 0 5.63 1.999 5.63 4.526 0 5.525-9.894 5.999-9.894 13.683v4.148h7.736v-3.886c0-4.262 10.473-5.209 10.473-14.366 0-6.525-5.368-10.999-13.157-10.999zm-.283-11.979c-17.645 0-31.999 14.356-31.999 32.001 0 17.645 14.354 31.999 31.999 31.999s32.001-14.354 32.001-31.999-14.356-32.001-32.001-32.001z"/></svg>