<svg width="64" height="64" viewBox="0 0 64 64" xmlns="http://www.w3.org/2000/svg"><title>05037fastforwardL</title><path d="M26.785 41.088c-.225-.117-.474-.177-.723-.177-.314 0-.627.093-.881.275l-18.851 13.078c-.967.639-1.88.872-2.388.589-.527-.28-.841-1.166-.841-2.373v-41.764c0-1.272.35-2.232.915-2.512.505-.259 1.339.002 2.292.714l18.873 13.092c.479.326 1.092.371 1.602.098.512-.271.831-.795.831-1.375v-10.017c0-1.272.35-2.232.912-2.512.508-.256 1.343.005 2.297.714l28.442 19.73c.991.661 1.552 1.509 1.624 2.445.089 1.147-.512 2.414-1.612 3.441l-28.433 19.728c-.953.639-1.873.879-2.392.592-.524-.28-.838-1.166-.838-2.373v-10.017c0-.582-.319-1.106-.829-1.375zm34.233-14.996l-28.382-19.69c-2.591-1.942-4.557-1.449-5.496-.975-1.672.833-2.627 2.761-2.627 5.288v7.055l-16.39-11.368c-1.921-1.439-3.884-1.772-5.498-.975-1.669.833-2.625 2.761-2.625 5.288v41.764c0 3.288 1.552 4.615 2.479 5.113 1.593.85 3.573.58 5.597-.766l16.437-11.404v7.057c0 3.288 1.552 4.615 2.474 5.113.613.328 1.279.489 1.985.489 1.135 0 2.368-.424 3.616-1.255l28.622-19.872c1.952-1.794 2.936-3.961 2.773-6.099-.146-1.892-1.2-3.585-2.965-4.763z"/></svg>