<svg width="64" height="64" viewBox="0 0 64 64" xmlns="http://www.w3.org/2000/svg"><title>05037fastforwardF</title><path d="M26.177 40.202c.35 0 .695.085 1 .244.702.369 1.144 1.094 1.144 1.897v9.822c0 1.113.296 1.674.493 1.78.397.042.909-.019 1.707-.549l27.872-19.337c.866-.822 1.385-1.881 1.313-2.818-.056-.733-.5-1.381-1.317-1.925l-27.898-19.353c-.829-.62-1.299-.683-1.463-.683-.366.131-.707.744-.707 1.932v9.824c0 .801-.441 1.529-1.151 1.897-.669.359-1.559.312-2.207-.131l-18.508-12.839c-.831-.62-1.299-.683-1.463-.683-.369.131-.707.744-.707 1.932v40.953c0 1.113.296 1.672.495 1.778.39.045.902-.014 1.705-.547l18.473-12.814c.338-.244.775-.38 1.219-.38zm2.855 18.078c-.801 0-1.554-.186-2.24-.552-1.031-.557-2.757-2.015-2.757-5.563v-5.729l-15.141 10.503c-2.195 1.461-4.386 1.721-6.136.789-1.031-.557-2.759-2.015-2.759-5.563v-40.953c0-2.719 1.064-4.811 2.919-5.739 1.752-.873 3.975-.538 6.042 1.014l15.075 10.456v-5.732c0-2.721 1.064-4.814 2.919-5.739 1.766-.876 3.975-.535 6.042 1.014l27.811 19.29c1.883 1.261 3.015 3.088 3.175 5.135.174 2.294-.864 4.598-2.921 6.488l-28.13 19.539c-1.336.895-2.644 1.341-3.898 1.341z"/></svg>