<svg width="64" height="64" viewBox="0 0 64 64" xmlns="http://www.w3.org/2000/svg"><title>04017fastepaytL</title><path d="M9.438 8.568h13.176v-2.198h-13.176v2.198zm41.144 49.278c-2.044.022-3.994-.604-5.794-1.854-1.996-1.39-3.094-3.102-3.102-3.116l-7.954-12.804c-.292-.53-.144-.988.442-1.364.29-.184.552-.278.784-.28.418 0 .706.354.71.354l3.602 5.55c.378.586 1.158.756 1.75.384l.572-.362c.37-.232.596-.64.596-1.078l.018-19.894c-.004-.078.028-.562.27-.816.196-.208.572-.254.882-.258h.002c.654.002 1 .366 1.026 1.05l-.014 14.35c-.002.702.568 1.272 1.272 1.276h.652c.36-.078.664-.134.902-.372.24-.238.376-.564.376-.902v-4.814c.046-.49.284-1.074 1.196-1.084.46.002.79.102.976.298.258.268.332.756.338 1.038l-.002.04-.004 4.526c.002.338.136.662.374.902.24.24.566.374.904.374h.652c.73-.036 1.274-.57 1.274-1.276l.002-4.468c.036-.534.418-.808 1.174-.816h.002c.244-.002.572.036.748.212.182.184.252.55.256.676l-.006 4.4c0 .704.57 1.274 1.274 1.276l.652.002c.356-.068.662-.136.902-.372.24-.24.376-.564.376-.902l.002-1.702c.024-.914.788-.932 1.08-.936h.01c.81 0 1.23.352 1.25 1.026l-.008 10.31c.002.092.052 2.292-.816 4.702-1.162 3.224-3.364 5.328-6.548 6.252-1.04.304-2.066.462-3.05.472zm-50.582-36.754h13.658v-2.198h-13.658v2.198zm5.81-4.174h14.47v-2.198h-14.47v2.198zm-2.868-4.176h15.558v-2.198h-15.558v2.198zm28.178 23.312h-2.792c-.498 0-.904-.404-.904-.904v-27.46c0-.5.406-.906.904-.906h20.976c.498 0 .904.406.904.906v20.534c.822.208 1.462.552 1.918.924.25-.11.522-.18.794-.25v-21.208c0-1.998-1.62-3.618-3.616-3.618h-20.976c-1.996 0-3.616 1.62-3.616 3.618v36.16c0 1.994 1.62 3.614 3.616 3.614h5.244l-3.334-5.492c-.828-1.458-1.136-4.046.882-5.918zm31.084 15.798c1.012-2.812.946-5.352.942-5.46l.01-10.28c0-1.098-.722-3.174-3.456-3.176-.574.004-1.092.118-1.538.34l-.5.25-.074-.556c-.058-.424-.244-1.228-.858-1.844-.56-.562-1.344-.844-2.33-.846-.902.01-1.654.264-2.232.76l-.334.286-.254-.364c-.08-.114-.172-.228-.276-.336-.42-.438-1.206-.96-2.586-.964-.594.006-1.134.136-1.598.388l-.59.322.008-7.038c-.024-1.092-.73-3.172-3.232-3.176-1.262.014-1.998.514-2.394.93-.928.982-.856 2.348-.856 2.348l-.016 18.132-2.612-4.02c-.44-.604-1.34-1.268-2.502-1.27-.634.006-1.278.214-1.908.618-2.604 1.662-1.192 4.176-1.132 4.284l7.97 12.826c.014.024 1.292 2.072 3.704 3.75 2.136 1.488 4.466 2.242 6.926 2.244l.118-.002c1.178-.014 2.398-.202 3.63-.558 3.882-1.13 6.562-3.684 7.97-7.588z"/></svg>