<svg width="64" height="64" viewBox="0 0 64 64" xmlns="http://www.w3.org/2000/svg"><title>04017fastepaytF</title><path d="M32.394 37.754h-4.066c-.498 0-.904-.404-.904-.906v-27.46c0-.498.406-.906.904-.906h20.976c.498 0 .904.408.904.906v21.226c.626.222 1.076.544 1.356.842.124.132.232.268.326.41.288-.246.634-.446 1.03-.592v-21.886c0-1.998-1.62-3.616-3.616-3.616h-20.976c-1.996 0-3.616 1.618-3.616 3.616v36.162c0 1.994 1.62 3.614 3.616 3.614h7.312l-4.198-6.912c-.55-.974-.95-3.042.952-4.498zm27.316-2.572c-2.142 0-2.186 1.898-2.188 1.978l-.02 1.712-.06.14-.14.056-.654-.008c-.11 0-.198-.092-.198-.2l.05-4.402s-.004-.876-.556-1.438c-.346-.356-.854-.54-1.504-.548-2.104 0-2.256 1.634-2.266 1.818l-.05 4.52c-.002.11-.092.198-.2.198h-.004l-.652-.006-.14-.058-.058-.144.05-4.524c.004-.28-.028-1.202-.614-1.828-.394-.42-.982-.64-1.746-.65-2.044 0-2.27 1.836-2.29 2.046l-.054 4.904-.06.14-.14.058h-.002l-.652-.008c-.11 0-.2-.092-.198-.202l.16-14.348c-.002-.082-.046-2.124-2.08-2.148-.754 0-1.302.196-1.672.576-.61.636-.58 1.596-.578 1.606l-.22 19.838c-.002.068-.038.132-.096.168l-.578.356c-.092.054-.216.028-.272-.064l-3.55-5.59c-.018-.026-.598-.842-1.598-.856-.45 0-.904.148-1.368.438-1.726 1.08-.924 2.62-.828 2.794l7.846 12.918c.124.198 1.27 1.974 3.368 3.464 1.972 1.4 4.124 2.112 6.396 2.112 1.082 0 2.208-.16 3.346-.48 3.542-.99 6.008-3.294 7.328-6.846.996-2.676.93-5.064.93-5.088l.114-10.28c0-.086-.004-2.1-2.302-2.124zm-53.9-16.566h14.47v-2.198h-14.47v2.198zm3.628-8.35h13.176v-2.198h-13.176v2.198zm-6.496 4.176h15.558v-2.198h-15.558v2.198zm-2.822 8.35h13.538v-2.198h-13.538v2.198z"/></svg>