<svg width="64" height="64" viewBox="0 0 64 64" xmlns="http://www.w3.org/2000/svg"><title>04017fastepaytC</title><path d="M25.435 46.383c-1.422 0-2.577-1.154-2.577-2.574v-25.765c0-1.422 1.154-2.577 2.577-2.577h14.945c1.422 0 2.577 1.154 2.577 2.577v15.593c-.283.105-.529.248-.733.423l-.233-.293c-.2-.213-.52-.44-.966-.599v-15.125c0-.355-.289-.644-.644-.644h-14.945c-.355 0-.644.289-.644.644v19.565c0 .357.289.646.644.646h2.897c-1.354 1.038-1.069 2.51-.677 3.204l2.989 4.924h-5.209zm-13.459-27.712h9.387v-1.567h-9.387v1.567zm-2.585 5.95h10.31v-1.567h-10.31v1.567zm-4.139 2.973h9.73v-1.567h-9.73v1.567zm2.095-5.948h11.084v-1.567h-11.084v1.567zm41.15 27.167c-.917 2.465-2.626 4.065-5.083 4.75-2.449.69-4.74.308-6.767-1.133-1.497-1.063-2.31-2.354-2.341-2.405l-5.587-9.195c-.134-.244-.489-1.086.518-1.716.295-.188.586-.283.863-.283.607.008.966.516.966.516l2.529 3.98c.097.157.306.209.479.109l.405-.252c.103-.058.169-.171.171-.293l.157-14.148s-.012-.609.353-.989c.227-.233.57-.349 1.041-.349 1.259.017 1.278 1.274 1.278 1.323l-.114 10.223c-.002.093.033.182.101.248.064.066.153.103.244.103l.469.004c.093 0 .182-.035.244-.095.066-.068.105-.159.105-.25l.037-3.475c.021-.215.184-1.272 1.425-1.272.487.008.855.14 1.096.398.363.39.384.987.382 1.16l-.035 3.225c0 .091.035.178.101.246.066.066.155.103.244.103l.469.004c.19 0 .347-.153.349-.345l.035-3.21c.01-.184.132-1.1 1.408-1.1.407.004.718.116.925.328.328.334.339.877.339.877l-.037 3.14c0 .192.157.349.347.349l.469.002c.095 0 .184-.035.246-.099.066-.066.103-.153.103-.244l.012-1.216c.002-.124.06-1.206 1.35-1.208.467.006.828.136 1.074.388.367.378.363.913.363.913l-.083 7.339c0 .017.039 1.695-.648 3.545zm-17.458-46.895c-17.142 0-31.04 13.898-31.04 31.042 0 17.142 13.898 31.04 31.04 31.04 17.144 0 31.042-13.898 31.042-31.04 0-17.144-13.898-31.042-31.042-31.042z"/></svg>