<svg width="64" height="64" viewBox="0 0 64 64" xmlns="http://www.w3.org/2000/svg"><title>05037fastforwardC</title><path d="M17.184 21.244c0-1.346.506-2.372 1.387-2.812.497-.247 1.534-.51 2.91.523l10.21 7.083v-4.794c0-1.346.506-2.372 1.387-2.812.497-.247 1.534-.51 2.91.523l15.631 10.844c.947.634 1.51 1.536 1.587 2.543.09 1.146-.444 2.31-1.502 3.279l-15.74 10.927c-.666.444-1.323.668-1.924.668-.371 0-.721-.085-1.041-.256-.489-.26-1.308-.962-1.308-2.718v-4.8l-10.231 7.106c-.668.444-1.325.668-1.926.668-.371 0-.721-.085-1.041-.256-.489-.26-1.308-.962-1.308-2.718v-22.997zm-17.184 10.756c0 17.764 14.236 32 32 32s32-14.362 32-32c0-17.638-14.236-32-32-32s-32 14.236-32 32z"/></svg>