<svg width="64" height="64" viewBox="0 0 64 64" xmlns="http://www.w3.org/2000/svg"><title>06036femaleL</title><path d="M50.519 55.307v-4.158c0-6.172-2.268-13.227-11.842-15.494 1.261-.757 2.394-1.764 3.275-3.025.883 1.638 2.268 2.899 3.906 3.529.881.252 1.89.378 2.771.252.252-.503.503-1.007.757-1.638 1.133-3.652-.883-7.558-4.41-8.693l-.503-.126v-.881c0-6.803-5.545-12.346-12.348-12.346-6.803 0-12.346 5.542-12.346 12.346 0 4.284 2.394 8.316 5.794 10.458-9.7 2.266-11.842 9.323-11.842 15.494v4.284c-6.803-5.417-11.339-13.858-11.339-23.307-.252-16.378 13.229-29.858 29.606-29.858 16.378 0 29.858 13.481 29.858 29.858 0 9.449-4.41 17.89-11.339 23.307zm-28.22-29.984c0-3.401 1.762-6.3 4.158-8.062 3.904 4.913 9.197 8.188 15.243 9.449-.629 4.661-4.661 8.439-9.7 8.439-5.417-.126-9.7-4.535-9.7-9.826zm-6.048 31.874v-6.048c0-9.197 5.165-13.478 15.874-13.478s15.874 4.407 15.874 13.478v6.048c-4.661 2.897-10.078 4.661-15.874 4.661-5.922 0-11.339-1.764-15.874-4.661zm15.748-57.197c-17.638 0-32 14.362-32 32 0 17.638 14.362 32 32 32 17.638 0 32-14.362 32-32 0-17.638-14.362-32-32-32z"/></svg>