<svg width="64" height="64" viewBox="0 0 64 64" xmlns="http://www.w3.org/2000/svg"><title>06036femaleC</title><path d="M42.116 39.482l-.011.006c-1.865-1.092-4.213-1.779-7.049-2.067l-.365-.032c-.902-.079-1.843-.128-2.844-.128-10.596 0-15.748 4.397-15.748 13.446v9.024c4.691 2.701 10.11 4.269 15.9 4.269 5.673 0 10.993-1.498 15.616-4.096v-9.197c0-5.361-1.824-9.077-5.5-11.226zm21.884-7.482c0-17.645-14.355-32-32-32s-32 14.355-32 32c0 10.761 5.355 20.273 13.521 26.078v-7.371c0-6.108 2.246-13.173 11.804-15.345l.075-.002c-3.467-2.159-5.788-5.995-5.788-10.372 0-6.741 5.485-12.226 12.226-12.226 6.741 0 12.226 5.485 12.226 12.226 0 .284-.023.561-.043.838.158.03.314.051.471.1 3.605 1.148 5.604 5.013 4.452 8.623-.177.555-.431 1.075-.727 1.559-.885.083-1.796-.009-2.694-.294-1.811-.578-3.174-1.856-3.981-3.422-.896 1.171-1.997 2.172-3.249 2.955l.026.013.073.002c1.21.275 2.3.629 3.285 1.05.407.171.783.361 1.154.553l.209.102c.384.209.74.433 1.088.663l.156.098.134.085-.013.009c4.546 3.196 5.792 8.252 5.792 12.785v7.582c8.331-5.783 13.803-15.403 13.803-26.289zm-37.645-15.012c-2.547 1.751-4.224 4.681-4.224 8 0 5.353 4.354 9.707 9.707 9.707 4.887 0 8.902-3.642 9.57-8.35-5.997-1.205-11.3-4.508-15.053-9.357z"/></svg>