<svg width="64" height="64" viewBox="0 0 64 64" xmlns="http://www.w3.org/2000/svg"><title>02002fireC</title><path d="M29.986 49.041h4.266v14.872c-.746.051-1.494.087-2.253.087-.676 0-1.348-.027-2.013-.07v-14.889zm34.014-17.041c0 9.378-4.036 17.816-10.466 23.67v-7.337c-.72.846-1.453 1.549-2.125 2.121v6.982c-4.289 3.278-9.428 5.491-15.031 6.258v-14.06c-.782-.717-1.635-1.626-2.404-2.719h-6.113v16.809c-5.666-.731-10.867-2.941-15.203-6.236v-13.782h19.624c-.242-.67-.436-1.378-.561-2.126h-25.79c-.159 0-.251-.094-.291-.147-.036-.051-.092-.19-.045-.315l6.859-15.429c.174-.269.478-.431.684-.431h10.204l-1.473 1.42c-.491.474-.772 1.14-.772 1.822v8.73c0 .587.474 1.063 1.063 1.063.587 0 1.061-.476 1.061-1.063v-8.73c0-.108.046-.216.125-.293l8.402-8.107c.16-.153.411-.153.568 0l6.187 5.971c.131-.404.259-.829.378-1.299.102-.398.166-.676.247-1.059l-.608-.58-4.729-4.564c-.987-.948-2.53-.95-3.518 0l-1.637 1.579c-2.021-2.192-1.343-4.566-1.343-4.566s-4.234 3.813-2.897 7.55h-.081c-.539-.383-3.086-2.381-2.244-5.633.75-2.91-2.872-5.254-2.872-5.254s.326 2.976-2.021 5.92c-1.296 1.63-1.286 3.454-.882 4.967h-3.158c-1.012 0-2.013.602-2.551 1.535l-6.989 15.697.001-.001c-.319.689-.204 1.569.329 2.33.459.655 1.205 1.012 2.002 1.012h4.602v12.022c-6.468-5.855-10.532-14.317-10.532-23.727 0-17.674 14.328-32 31.999-32 17.673 0 32.001 14.326 32.001 32zm-39.657 15.518h-7.309v7.31h7.309v-7.31zm8.896-16.717c.214-.568.45-1.184.701-1.892l.221-.619h-5.696v7.31h3.35c.293-1.817.805-3.171 1.424-4.799zm13.968 22.009c-.562.093-1.189.142-1.89.142l-.595-.015c.586-1.662 1.685-4.857 2.089-6.521.561-2.313-.784-8.226-.784-8.226s.336 4.113-.225 6.555c-.561 2.443-2.582 3.856-2.582 3.856s.225-1.928 0-3.084c-.224-1.156-.672-2.829-.672-2.829s-1.347 2.572-1.122 5.529c.13 1.709.821 3.414 1.382 4.553-1.033-.147-2.053-.391-2.912-.727v2.784h7.311v-2.017zm6.453-21.991c-1.505-4.483-4.07-6.94-4.07-6.94s.391 1.59.336 2.746c-.057 1.157-.559 2.604-.559 2.604s-.948-5.133-2.789-7.807c-1.838-2.674-4.291-4.842-4.291-4.842s.11 3.975-1.116 8.817c-1.229 4.844-3.235 6.651-3.235 6.651-.168-2.963-1.226-4.772-1.226-4.772.168 3.688-2.844 7.662-2.789 12.432h-.001c.072 6.155 6.134 9.686 6.134 9.686l.104.049c-1.012-1.199-1.685-2.857-1.492-4.825.33-3.32 3.15-5.394 3.618-10.623 0 0 1.071 4.984 1.071 6.455 0 0 1.071-2.37 1.473-5.473.402-3.106 0-5.72 0-5.72s5.358 5.229 5.358 12.009c0 4.138-.882 7.012-2.446 8.638l.011-.004c1.337-.94 4.071-2.891 5.686-6.36 1.617-3.471 1.73-8.24.223-12.721zm6.396 11.873c.474-.644.61-1.45.374-2.213l-3.431-7.72c.419 2.054.544 4.12.387 6.088l1.024 2.302c.025.132-.03.232-.066.283-.04.053-.132.147-.291.147h-1.088c-.172.736-.387 1.446-.648 2.126h1.737c.799 0 1.528-.368 2.002-1.012v-.001z"/></svg>