<svg width="64" height="64" viewBox="0 0 64 64" xmlns="http://www.w3.org/2000/svg"><title>02002fireL</title><path d="M29.683 55.364h4.776v-13.49h-4.776v13.49zm-14.44-7.041h8.121v-8.121h-8.121v8.121zm33.658 0v-2.363c-.627.107-1.306.175-2.09.175l-.624-.016c.661-1.882 1.85-5.343 2.292-7.166.627-2.584-.877-9.19-.877-9.19s.376 4.594-.251 7.321c-.627 2.73-2.882 4.309-2.882 4.309s.251-2.153 0-3.445c-.251-1.292-.752-3.158-.752-3.158s-1.504 2.871-1.253 6.173c.141 1.855.873 3.691 1.488 4.961-1.13-.164-2.24-.433-3.174-.802v3.201h8.123zm14.734-16.13l-4.022-9.03c.54 2.374.72 4.767.565 7.055l1.249 2.805c.052.173-.016.303-.062.367-.046.062-.15.166-.33.166h-1.344c-.191.82-.447 1.604-.741 2.361h2.085c.891 0 1.702-.41 2.231-1.126.529-.715.681-1.616.369-2.598zm-37.828 31.807h12.66v-2.374h-12.66v2.374zm7.622-42.449c.239-.633.504-1.324.784-2.115l.253-.709h-6.455v8.123h3.842c.326-2.001.891-3.5 1.577-5.3zm16.089 21.296l.009-.005c1.495-1.05 4.546-3.229 6.353-7.103 1.805-3.876 1.93-9.203.248-14.207-1.682-5.004-4.546-7.75-4.546-7.75s.437 1.775.374 3.067c-.064 1.292-.622 2.908-.622 2.908s-1.062-5.733-3.115-8.718c-2.055-2.987-4.794-5.409-4.794-5.409s.123 4.439-1.246 9.848c-1.369 5.407-3.612 7.426-3.612 7.426-.187-3.309-1.369-5.327-1.369-5.327.187 4.117-3.176 8.556-3.115 13.884.08 6.872 6.852 10.817 6.852 10.817l.114.055c-1.13-1.34-1.882-3.192-1.663-5.389.365-3.707 3.514-6.022 4.038-11.863 0 0 1.196 5.564 1.196 7.207 0 0 1.196-2.645 1.645-6.114.449-3.466 0-6.387 0-6.387s5.984 5.84 5.984 13.414c0 4.621-.984 7.829-2.73 9.645zm-10.299-29.893l-5.282-5.097c-1.101-1.06-2.826-1.062-3.924 0l-1.625 1.568c-.923-1.577-.59-2.987-.572-3.06l1.128-3.951-3.053 2.75c-.162.144-2.976 2.718-3.735 6.011-.301-.745-.435-1.65-.164-2.698 1.039-4.026-3.516-7.03-3.71-7.155l-2.051-1.322.235 2.434c.011.118.253 2.919-2.005 5.756-1.244 1.563-1.59 3.227-1.504 4.765h-2.085c-1.128 0-2.242.67-2.898 1.821l-7.797 17.55c-.353.823-.153 1.796.376 2.513.529.715 1.381 1.078 2.272 1.078h5.143v21.811h19.307v2.586h9.602v-2.586h19.104v-16.821c-.798.95-1.611 1.75-2.361 2.397v12.061h-16.798v-12.979c-.825-.766-1.716-1.725-2.532-2.873h-6.97v15.852h-16.989v-19.448h22.044c-.271-.741-.474-1.531-.615-2.361h-28.934c-.18 0-.324-.027-.394-.134-.073-.107-.034-.257.009-.381l7.638-17.195c.189-.333.554-.529.795-.529h11.411l-1.654 1.595c-.549.529-.864 1.269-.864 2.03v9.748c0 .652.531 1.18 1.183 1.18s1.18-.529 1.18-1.18v-9.748c0-.125.052-.246.141-.333l9.383-9.051c.18-.175.463-.175.643-.002l6.991 6.745c.153-.469.308-.943.447-1.495.098-.39.164-.72.246-1.096l-.761-.757z"/></svg>