<svg width="64" height="64" viewBox="0 0 64 64" xmlns="http://www.w3.org/2000/svg"><title>02002fireF</title><path d="M63.944 29.2c-.1.1-.2.2-.4.2h-3.8c.7-3.2.7-6.8-.2-10.3l4.4 9.7c.1.2.1.4 0 .4zm-31.4-1.6c0-2.1.1-3.8.4-5.3h-5.3v-9h8.6l1.3-3.1 2.2 3.7c.3-.7.6-1.6.8-2.6l-8.2-7.9c-.2-.2-.5-.2-.7 0l-10.2 9.8c-.1.1-.2.2-.2.4v10.6c0 .7-.6 1.2-1.2 1.2-.7 0-1.2-.6-1.2-1.2v-10.6c0-.8.3-1.6.9-2.2l1.8-1.8h-12.3c-.3 0-.7.2-.9.6l-8.3 18.6c0 .1-.1.3 0 .4.1.1.2.2.4.2h32.2l-.1-1.8zm-6.3 34.4h11.9v-3.2h-11.9v3.2zm1.5-8.2v-17.3h8.3c-1-1.2-2-2.8-2.7-4.6h-26v21.9h20.4v3.3h9v-3.3h-9zm-4.9-8.3h-9v-9h9v9zm28.8-4.7c-.3.2-.7.4-1.1.5v4.2h-9v-4.7c-.4-.1-.8-.3-1.1-.5-.1-.1-1.9-1.1-3.8-3.1v16.6h20.1v-17.9c-1.8 2.6-4 4.1-5.1 4.9zm.4-30.7s.4 1.8.4 3c-.1 1.3-.6 2.9-.6 2.9s-1.1-5.7-3.1-8.6c-2-3-4.8-5.4-4.8-5.4s.1 4.4-1.2 9.8c-1.4 5.4-3.6 7.4-3.6 7.4-.2-3.3-1.4-5.3-1.4-5.3.2 4.1-3.1 8.5-3.1 13.8.1 6.8 6.8 10.7 6.8 10.7l.1.1c-1.1-1.3-1.9-3.2-1.6-5.3.4-3.7 3.5-6 4-11.8 0 0 1.2 5.5 1.2 7.1 0 0 1.2-2.6 1.6-6.1.4-3.4 0-6.3 0-6.3s5.9 5.8 5.9 13.3c0 4.6-1 7.8-2.7 9.6 1.5-1 4.5-3.2 6.3-7 1.8-3.8 1.9-9.1.2-14.1-1.5-5.1-4.4-7.8-4.4-7.8zm-7 23.9c-.2-1.3-.7-3.1-.7-3.1s-1.6 2.8-1.3 6.1c.2 3.3 2.3 6.3 2.3 6.3h.9s2.1-5.8 2.7-8.3c.6-2.6-.9-9.1-.9-9.1s.4 4.6-.2 7.3c-.6 2.7-2.9 4.3-2.9 4.3s.3-2.2.1-3.5z"/></svg>