<svg width="64" height="64" viewBox="0 0 64 64" xmlns="http://www.w3.org/2000/svg"><title>03018flattireF</title><path d="M59.15 50.872c2.073-4.542 3.737-9.41 3.737-14.757 0-17.07-13.822-30.919-30.887-30.958-17.065.039-30.887 13.888-30.887 30.958 0 5.346 1.664 10.215 3.739 14.757 1.298 2.859-2.249 3.68-2.169 5.847.089 2.539 3.959 2.981 9.481 2.981h39.671c5.522 0 9.392-.441 9.481-2.981.078-2.167-3.47-2.987-2.167-5.847zm-27.019 5.57c-11.179 0-20.247-9.07-20.247-20.247 0-11.184 9.067-20.247 20.247-20.247 11.182 0 20.245 9.063 20.245 20.247 0 11.177-9.063 20.247-20.245 20.247zm.043-24.105c.857 0 1.55-.693 1.55-1.55 0-.853-.693-1.545-1.55-1.545-.857 0-1.547.693-1.547 1.545 0 .857.69 1.55 1.547 1.55zm-3.874 3.822c0-.855-.695-1.55-1.55-1.55-.853 0-1.55.695-1.55 1.55 0 .857.697 1.55 1.55 1.55.855 0 1.55-.693 1.55-1.55zm3.822 6.974c.857 0 1.547-.695 1.547-1.547 0-.855-.69-1.547-1.547-1.547s-1.55.693-1.55 1.547c0 .853.693 1.547 1.55 1.547zm5.424-8.466c-.855 0-1.547.688-1.547 1.55 0 .853.693 1.547 1.547 1.547.853 0 1.55-.695 1.55-1.547 0-.862-.697-1.55-1.55-1.55zm-10.466-14.309c-3.785 1.218-6.238 3.767-6.238 3.767s4.011 3.712 8.213 2.359c4.199-1.351 5.291-6.706 5.291-6.706s-3.479-.64-7.266.581zm-11.561 15.801c-.009 3.977 1.655 7.099 1.655 7.099s4.773-2.67 4.784-7.081c.011-4.414-4.745-7.106-4.745-7.106s-1.682 3.111-1.694 7.088zm11.456 15.879c3.781 1.239 7.264.619 7.264.619s-1.065-5.362-5.257-6.736c-4.192-1.374-8.226 2.318-8.226 2.318s2.441 2.56 6.219 3.799zm18.642-5.989c2.347-3.211 2.834-6.715 2.834-6.715s-5.429-.645-8.032 2.919c-2.603 3.561-.338 8.537-.338 8.537s3.191-1.529 5.536-4.741zm.066-19.579c-2.329-3.225-5.511-4.77-5.511-4.77s-2.293 4.965.293 8.539c2.583 3.577 8.016 2.96 8.016 2.96s-.469-3.506-2.798-6.729z"/></svg>