<svg width="64" height="64" viewBox="0 0 64 64" xmlns="http://www.w3.org/2000/svg"><title>03018flattireC</title><path d="M32 1.888c-16.63 0-30.112 13.48-30.112 30.112 0 16.63 13.482 30.112 30.112 30.112s30.112-13.482 30.112-30.112c0-16.632-13.482-30.112-30.112-30.112zm20.728 44.772c-.064 1.778-2.772 2.086-6.638 2.086h-27.77c-3.864 0-6.574-.308-6.636-2.086-.056-1.518 2.428-2.092 1.518-4.092-1.452-3.18-2.616-6.588-2.616-10.332 0-11.948 9.674-21.642 21.62-21.668l-.05-.004h.1l-.05.004c11.944.026 21.62 9.72 21.62 21.668 0 3.744-1.164 7.152-2.616 10.332-.912 2 1.572 2.574 1.518 4.092zm-20.432-28.54c-7.824 0-14.172 6.344-14.172 14.172 0 7.826 6.348 14.174 14.172 14.174 7.828 0 14.172-6.348 14.172-14.174 0-7.828-6.344-14.172-14.172-14.172zm11.02 11.498c0 .448-.4.832-.816.8h-.052c-.116-.006-2.822-.154-4.312-2.3-1.492-2.15-.676-4.738-.642-4.846.07-.214.226-.39.432-.482.202-.094.438-.096.644-.006.08.032 1.934.842 3.268 2.764 1.074 1.548 1.352 3.162 1.422 3.778.036.09.056.188.056.292zm-1.652 9.65c-1.42 1.862-3.308 2.59-3.388 2.62-.092.034-.188.052-.284.052-.124 0-.248-.028-.362-.086-.2-.104-.348-.284-.408-.502-.03-.11-.728-2.73.856-4.812 1.58-2.082 4.29-2.11 4.404-2.11h.002c.224 0 .438.094.59.26.15.166.226.386.206.61-.006.086-.198 2.106-1.616 3.968zm-5.578-5.876c-.598 0-1.082-.486-1.082-1.084 0-.602.484-1.086 1.082-1.086.598 0 1.086.484 1.086 1.086 0 .598-.488 1.084-1.086 1.084zm-2.424-11.328c-.04.108-1.014 2.64-3.52 3.394-.448.134-.918.202-1.398.202-1.882 0-3.348-1.046-3.408-1.092-.182-.132-.3-.334-.326-.558-.024-.222.046-.446.194-.616.056-.064 1.402-1.578 3.642-2.252.758-.228 1.564-.344 2.394-.344 1.092 0 1.854.206 1.884.214.218.06.4.208.502.408.102.2.116.434.036.644zm-2.418 6.444c0-.596.484-1.082 1.084-1.082.6 0 1.084.486 1.084 1.082 0 .6-.484 1.086-1.084 1.086-.6 0-1.084-.486-1.084-1.086zm1.046 6.476c.6 0 1.084.484 1.084 1.082 0 .598-.484 1.084-1.084 1.084-.6 0-1.084-.486-1.084-1.084 0-.598.484-1.082 1.084-1.082zm-4.844-2.716c0-.598.488-1.084 1.084-1.084.6 0 1.084.486 1.084 1.084 0 .6-.484 1.084-1.084 1.084-.596 0-1.084-.484-1.084-1.084zm5.902 11.002c-.11.196-.298.336-.518.386-.062.014-.64.14-1.51.14-.964 0-1.892-.152-2.76-.456-2.21-.772-3.486-2.346-3.538-2.414-.142-.176-.2-.402-.166-.624.036-.222.162-.418.35-.542.058-.038 1.452-.944 3.222-.944.562 0 1.106.092 1.62.27 2.466.864 3.33 3.434 3.366 3.542.068.214.046.448-.066.642zm-10.53-6.736c-.14.1-.304.152-.472.152l-.16-.016c-.22-.044-.41-.18-.526-.372-.044-.074-1.074-1.82-1.02-4.16.048-2.336 1.15-4.04 1.196-4.112.124-.188.322-.316.544-.35.216-.036.448.024.624.164.09.072 2.196 1.782 2.14 4.396-.058 2.616-2.234 4.23-2.326 4.298z"/></svg>