<svg width="64" height="64" viewBox="0 0 64 64" xmlns="http://www.w3.org/2000/svg"><title>03018flattireL</title><path d="M59.328 49.847c1.73-3.791 3.717-8.894 3.717-14.754 0-17.095-13.883-31.038-30.974-31.114l-.074-.002-.066.002c-17.086.076-30.976 14.018-30.976 31.114 0 5.863 1.986 10.964 3.717 14.754.347.756.172 1.066-.726 2.063-.682.753-1.526 1.694-1.477 3.087.145 4.103 6.324 4.103 10.415 4.103h38.235c4.089 0 10.267 0 10.415-4.103.049-1.393-.798-2.334-1.479-3.087-.896-.997-1.071-1.307-.726-2.063zm-8.209 6.703h-38.235c-1.932 0-7.81 0-7.867-1.644-.012-.337.303-.711.822-1.29.834-.923 2.23-2.471 1.152-4.83-1.622-3.554-3.486-8.322-3.486-13.694 0-15.717 12.785-28.529 28.492-28.566 15.714.037 28.497 12.849 28.497 28.566 0 5.371-1.863 10.139-3.486 13.694-1.076 2.358.318 3.906 1.152 4.83.519.578.837.953.825 1.29-.059 1.644-5.733 1.644-7.867 1.644zm-19.047-41.657c-10.88 0-19.705 8.822-19.705 19.705 0 10.88 8.825 19.702 19.705 19.702 10.882 0 19.702-8.822 19.702-19.702 0-10.882-8.82-19.705-19.702-19.705zm0 36.219c-9.108 0-16.517-7.409-16.517-16.514 0-9.108 7.409-16.517 16.517-16.517s16.514 7.409 16.514 16.517c0 9.105-7.407 16.514-16.514 16.514zm.025-19.934c.758 0 1.374-.618 1.374-1.376 0-.761-.615-1.376-1.374-1.376-.761 0-1.376.615-1.376 1.376 0 .758.615 1.376 1.376 1.376zm-3.444 3.392c0-.758-.615-1.374-1.376-1.374-.761 0-1.376.615-1.376 1.374 0 .763.615 1.376 1.376 1.376.761 0 1.376-.613 1.376-1.376zm3.394 6.196c.761 0 1.376-.615 1.376-1.376 0-.758-.615-1.374-1.376-1.374-.761 0-1.376.615-1.376 1.374 0 .761.615 1.376 1.376 1.376zm4.817-7.52c-.758 0-1.374.615-1.374 1.374 0 .761.615 1.376 1.374 1.376.761 0 1.376-.615 1.376-1.376 0-.758-.615-1.374-1.376-1.374zm-3.7-13.164c-.106-.027-1.061-.278-2.454-.278-1.073 0-2.114.15-3.097.446-2.902.871-4.647 2.838-4.719 2.922-.229.261-.337.603-.3.948.039.345.222.657.5.859.081.059 1.994 1.428 4.45 1.428.63 0 1.248-.091 1.839-.271 3.279-.985 4.554-4.293 4.608-4.431.121-.325.101-.684-.057-.994-.158-.308-.436-.537-.77-.628zm-12.763 8.704c-.271-.214-.615-.308-.96-.254-.342.054-.645.251-.834.539-.062.094-1.494 2.299-1.561 5.332-.066 3.025 1.268 5.297 1.324 5.391.177.298.47.507.81.578l.246.022c.258 0 .512-.081.726-.234.121-.091 2.966-2.201 3.042-5.625.074-3.422-2.676-5.657-2.794-5.75zm8.869 14.235c-.672-.236-1.386-.357-2.122-.357-2.311 0-4.133 1.186-4.209 1.236-.288.19-.485.492-.537.834-.054.342.037.689.254.962.069.086 1.728 2.129 4.586 3.126 1.125.394 2.329.591 3.577.591 1.125 0 1.881-.162 1.962-.182.337-.076.628-.29.798-.591.172-.303.207-.662.101-.99-.047-.143-1.174-3.5-4.409-4.63zm15.714-5.92c-.15 0-3.695.034-5.767 2.762-2.073 2.725-1.159 6.149-1.12 6.292.091.335.32.613.628.77.175.089.367.133.559.133.145 0 .293-.025.433-.079.103-.039 2.558-.982 4.394-3.394 1.836-2.412 2.09-5.031 2.1-5.142.032-.342-.084-.684-.318-.94-.234-.256-.564-.401-.908-.401zm-4.886-14.764c-.318-.13-.677-.13-.994.012-.315.143-.554.411-.66.741-.047.145-1.108 3.525.842 6.336 1.952 2.816 5.492 3.006 5.639 3.01l.057.002h.022c.711.015 1.258-.544 1.258-1.231 0-.162-.032-.315-.089-.458-.103-.844-.482-2.878-1.834-4.83-1.728-2.486-4.138-3.54-4.241-3.584z"/></svg>