<svg width="64" height="64" viewBox="0 0 64 64" xmlns="http://www.w3.org/2000/svg"><title>02009floodL</title><path d="M18.079 28.56h32.237v14.376c-.544.11-1.133.182-1.798.185-4.868-.017-6.377-3.365-6.437-3.502-.141-.333-.467-.549-.829-.552h-.005c-.36 0-.687.218-.829.547-.042.095-.766 1.621-2.688 2.629v-11.045h-7.132v11.098c-2.002-1.004-2.751-2.583-2.792-2.676-.139-.333-.466-.549-.829-.552h-.003c-.36 0-.688.218-.831.547-.061.141-1.541 3.429-6.306 3.506-.649-.01-1.225-.088-1.757-.202v-14.357zm-5.891-1.873c-.075-.08-.059-.194-.014-.279l5.711-12.826c.139-.241.403-.386.576-.386h8.452l-1.191 1.15c-.413.399-.651.958-.651 1.533v7.27c0 .5.404.902.904.902.498 0 .902-.403.902-.902v-7.27c0-.087.036-.172.099-.231l6.998-6.751c.124-.122.321-.124.447 0l6.999 6.751c.061.059.097.144.097.231v7.27c0 .5.404.902.904.902.498 0 .904-.403.904-.902v-7.27c0-.574-.238-1.133-.651-1.533l-1.193-1.15h8.386c.173 0 .437.144.532.299l5.74 12.891c.037.119-.01.209-.042.251-.032.044-.104.117-.228.117h-43.41c-.124 0-.209-.002-.272-.068zm21.922 16.432c-.625-.01-1.188-.08-1.704-.187v-9.929h3.516v9.898c-.547.121-1.139.206-1.811.218zm-25.899 4.32c1.026 1.308 3.108 3.116 6.841 3.256l.126.008h.34l.126-.008c3.732-.139 5.815-1.947 6.841-3.256 1.026 1.308 3.108 3.116 6.841 3.256l.124.008h.342l.124-.008c3.733-.139 5.817-1.947 6.843-3.256 1.059 1.351 3.246 3.234 7.208 3.264h.124c3.964-.031 6.15-1.913 7.21-3.264 1.025 1.308 3.108 3.116 6.841 3.256l.126.008h.34c.498 0 .902-.404.902-.904s-.404-.902-.902-.902c-4.899 0-6.415-3.363-6.474-3.501-.141-.335-.467-.551-.829-.554-.316.029-.692.218-.834.549-.063.143-1.572 3.489-6.44 3.506-4.87-.017-6.379-3.363-6.439-3.501-.139-.335-.466-.551-.829-.554h-.005c-.36 0-.687.218-.829.549-.061.141-1.543 3.427-6.306 3.504-4.765-.076-6.245-3.363-6.304-3.499-.139-.335-.466-.551-.829-.554h-.005c-.36 0-.687.218-.829.549-.061.141-1.543 3.427-6.306 3.504-4.765-.076-6.247-3.363-6.304-3.499-.141-.335-.467-.551-.829-.554h-.003c-.362 0-.688.218-.831.549-.063.143-1.579 3.506-6.476 3.506-.5 0-.904.403-.904.902 0 .5.404.904.904.904h.34l.126-.008c3.732-.139 5.815-1.947 6.841-3.256zm54.885 7.237c-4.897 0-6.415-3.365-6.474-3.502-.139-.333-.466-.549-.829-.552h-.002c-.362 0-.69.218-.833.547-.061.143-1.57 3.49-6.44 3.507-4.868-.017-6.377-3.365-6.437-3.502-.141-.333-.467-.549-.829-.552h-.005c-.36 0-.687.218-.829.547-.061.141-1.543 3.429-6.308 3.506-4.763-.076-6.245-3.365-6.304-3.501-.139-.333-.466-.549-.829-.552h-.003c-.36 0-.688.218-.831.547-.061.141-1.541 3.429-6.306 3.506-4.763-.076-6.245-3.365-6.304-3.501-.139-.333-.466-.549-.828-.552h-.005c-.36 0-.688.218-.831.547-.061.143-1.577 3.507-6.476 3.507-.498 0-.902.403-.902.902 0 .5.404.902.902.902h.34l.126-.008c3.732-.139 5.815-1.946 6.841-3.256 1.026 1.31 3.11 3.116 6.843 3.256l.124.008h.34l.126-.008c3.732-.139 5.815-1.946 6.841-3.256 1.026 1.31 3.11 3.116 6.841 3.256l.126.008h.34l.126-.008c3.733-.139 5.815-1.946 6.841-3.256 1.06 1.351 3.246 3.234 7.21 3.264h.124c3.963-.031 6.148-1.913 7.208-3.264 1.026 1.31 3.11 3.116 6.841 3.256l.126.008h.34c.5 0 .904-.403.904-.902 0-.5-.404-.902-.904-.902zm-31.855-32.898h6.056v-6.056h-6.056v6.056zm-9.62 15.931h6.056v-6.056h-6.056v6.056zm19.04 0h6.056v-6.056h-6.056v6.056zm-35.27 7.217h.34l.126-.008c3.732-.139 5.815-1.946 6.841-3.256 1.026 1.31 3.11 3.116 6.843 3.256l.124.008h.34l.126-.008c3.732-.139 5.815-1.946 6.841-3.256 1.026 1.31 3.11 3.116 6.841 3.256l.126.008h.34l.126-.008c3.733-.139 5.815-1.946 6.841-3.256 1.06 1.351 3.246 3.235 7.21 3.264h.124c3.963-.029 6.148-1.913 7.208-3.264 1.026 1.31 3.11 3.116 6.841 3.256l.126.008h.34c.5 0 .904-.403.904-.902 0-.5-.404-.902-.904-.902-4.897 0-6.415-3.365-6.474-3.502-.139-.333-.466-.549-.829-.552-.282.017-.69.218-.834.547-.042.099-.802 1.698-2.834 2.7v-13.754h3.745c.67 0 1.283-.308 1.682-.85.398-.54.511-1.217.277-1.958l-5.823-13.076c-.45-.78-1.29-1.285-2.138-1.285h-10.257l-3.936-3.796c-.828-.795-2.126-.794-2.955 0l-3.934 3.796h-10.325c-.848 0-1.687.505-2.182 1.37l-5.817 13.091c-.24.634-.107 1.348.291 1.89.399.54 1.035.817 1.706.817h3.813v13.71c-1.964-1.006-2.7-2.557-2.741-2.651-.139-.333-.466-.549-.828-.552h-.005c-.36 0-.688.218-.831.547-.061.143-1.577 3.507-6.476 3.507-.498 0-.902.403-.902.902 0 .5.404.902.902.902z"/></svg>