<svg width="64" height="64" viewBox="0 0 64 64" xmlns="http://www.w3.org/2000/svg"><title>02009floodC</title><path d="M51.3 51.2c-1.2 1.5-3.6 3.5-8 3.6h-.1c-4.3 0-6.8-2.1-8-3.6-1.2 1.5-3.5 3.4-7.6 3.6h-.6c-4.1-.2-6.4-2.1-7.6-3.6-1.2 1.5-3.5 3.4-7.6 3.6h-.6c-.7 0-1.3-.1-1.9-.2 1.6 1.6 3.5 3.1 5.4 4.4.5.1.9.1 1.4.1 5.3-.1 6.9-3.8 6.9-3.8.2-.4.6-.7 1-.7s.8.3 1 .7c.1.1 1.7 3.7 6.9 3.8 5.3-.1 6.9-3.8 6.9-3.8.3-.8 1.6-.8 2 0 .1.1 1.7 3.8 7.1 3.8l1.2-.1c2.2-1.4 4.2-3.1 6-4.9-1.8-.8-3-1.9-3.8-2.9zm-11.4 6.4c-1.2 1.5-3.5 3.4-7.6 3.6h-.6c-4.1-.2-6.4-2.1-7.6-3.6-1 1.2-2.7 2.7-5.6 3.3 4.1 1.9 8.7 3 13.5 3 4.8 0 9.4-1.1 13.5-3-2.9-.5-4.6-2.1-5.6-3.3zm16.1-12.7c-1.2 1.5-3.6 3.5-8 3.6h-.1c-4.3 0-6.8-2.1-8-3.6-1.2 1.5-3.5 3.4-7.6 3.6h-.6c-4.1-.2-6.4-2.1-7.6-3.6-1.2 1.5-3.5 3.4-7.6 3.6h-.6c-4.1-.2-6.4-2.1-7.6-3.6-.8 1-2.1 2.2-4.1 2.9.6 1 1.2 2 1.9 2.9 1.1 1 2.8 1.9 5.5 2 5.2-.1 6.8-3.7 6.9-3.8.2-.4.6-.6 1-.6s.8.3 1 .6c.1.1 1.7 3.7 6.9 3.8 5.3-.1 6.9-3.8 6.9-3.8.2-.4.6-.7 1-.7s.8.3 1 .7c.1.1 1.7 3.8 7.1 3.8 5.3 0 7-3.7 7.1-3.8.2-.4.6-.6 1-.6s.8.3 1 .6c.1.1 1.2 2.5 4.4 3.4 1.2-1.4 2.2-3 3.1-4.6-2-.8-3.3-1.9-4-2.8zm-24-44.9c-17.7 0-32 14.3-32 32 0 5 1.2 9.6 3.2 13.8 3.1-1 4.1-3.3 4.2-3.4.3-.8 1.6-.8 2 0 0 .1 1 2.1 3.5 3.2v-14.8h-4c-.7 0-1.4-.3-1.9-.9-.4-.6-.6-1.5-.3-2.2l6.2-13.8c.6-1 1.5-1.5 2.4-1.5h10.9l4.2-4c.9-.9 2.4-.9 3.3 0l4.1 4h10.9c.9 0 1.9.6 2.4 1.4l6.2 13.9c.3.8.1 1.6-.3 2.2-.4.6-1.1.9-1.9.9h-3.9v14.9c2.9-1.1 3.9-3.3 3.9-3.3.3-.8 1.6-.8 2 0 .1.1 1 2.3 3.9 3.3 2-4.2 3.1-8.8 3.1-13.8-.1-17.6-14.4-31.9-32.1-31.9zm0 46.3c.7 0 1.3-.1 1.8-.2v-10.5h-3.5v10.6c.5 0 1.1.1 1.7.1zm17.1-31.5c-.1-.1-.3-.3-.5-.3h-8.6l1.1 1c.5.4.7 1.1.7 1.7v7.8c0 .6-.5 1.1-1.1 1.1-.6 0-1.1-.5-1.1-1.1v-7.7l-7.5-7.4c-.1-.1-.2-.1-.3 0l-7.4 7.2-.1 7.9c0 .6-.5 1.1-1.1 1.1-.6 0-1.1-.5-1.1-1.1v-7.7c0-.6.3-1.3.7-1.7l1.1-1h-8.7c-.2 0-.4.1-.5.4l-6 13.6c-.1.2 0 .3.2.3h46.300000000000004v-.1l-6.1-14zm-13.8 8.7h-6.4v-6.4h6.4v6.4zm-20.4 7.3v15.3c.4.1.8.1 1.3.1 5.3-.1 6.9-3.8 6.9-3.8.2-.4.6-.7 1-.7s.8.3 1 .7c0 .1.9 1.8 3.1 2.9v-12h7.8v11.9c2.2-1.1 3-2.9 3-2.9.3-.8 1.6-.8 2 0 .1.1 1.7 3.8 7.1 3.8l1.1-.1v-15.2h-34.3zm10.3 9.7h-6.4v-6.5h6.4v6.5zm20.2 0h-6.4v-6.5h6.4v6.5z"/></svg>