<svg width="64" height="64" viewBox="0 0 64 64" xmlns="http://www.w3.org/2000/svg"><title>02009floodF</title><g><path d="M58.8 26.1l-6.4-14.3c-.1-.2-.4-.4-.6-.4h-9.4l1.4 1.4c.4.4.7 1 .7 1.7v8.1c0 .5-.4 1-1 1-.5 0-1-.4-1-1v-8.1c0-.1 0-.2-.1-.3l-7.7-7.5c-.2-.2-.4-.2-.6 0l-7.7 7.5c-.1.1-.1.2-.1.3v8c0 .5-.4 1-1 1-.5 0-1-.4-1-1v-8c0-.6.3-1.2.7-1.7l1.4-1.4h-9.4c-.2 0-.5.2-.7.4l-6.3 14.3c-.1.1 0 .3 0 .3.1.1.1.1.3.1h48c.2 0 .3-.1.3-.1.1-.1.2-.2.2-.3zm-20.9-5h-6.9v-6.9h6.9v6.9zM5.4 50.6c-1.1.5-2.4.9-4.1 1h-.4c-.5 0-.9-.4-.9-.9s.4-.9.9-.9c2.1 0 3.5-.6 4.5-1.3 1.4-1 1.9-2.1 1.9-2.2.1-.3.5-.5.8-.5.4 0 .7.2.8.5.1.1 1.5 3.4 6.3 3.5 4.8-.1 6.3-3.4 6.3-3.5.1-.3.5-.5.8-.5.4 0 .7.2.8.5.1.1 1.5 3.4 6.3 3.5 4.8-.1 6.3-3.4 6.3-3.5.1-.3.4-.6.8-.5.4 0 .7.2.8.5.1.1 1.6 3.5 6.5 3.5s6.4-3.5 6.5-3.5c.3-.7 1.3-.7 1.6 0 .1.1 1.6 3.5 6.5 3.5.5 0 .9.4.9.9s-.4.9-.9.9h-.4c-3.7-.1-5.8-2-6.8-3.3-1 1.3-3.2 3.2-7.2 3.3h-.1c-4 0-6.2-1.9-7.2-3.3-1 1.3-3.1 3.1-6.8 3.3h-.5c-3.7-.1-5.8-2-6.8-3.3-1 1.3-3.1 3.1-6.8 3.3h-.5c-3.7-.1-5.8-2-6.8-3.3-.9.8-1.8 1.7-3.1 2.3zM64 56.6c0 .5-.4.9-.9.9h-.4c-3.6-.1-5.7-1.9-6.7-3.2l-.1-.1-.1.1c-1.1 1.3-3.2 3.1-7.1 3.2h-.1c-3.9 0-6-1.8-7.1-3.2l-.1-.1-.1.1c-1 1.3-3.1 3-6.7 3.2h-.7c-3.6-.1-5.7-1.9-6.7-3.2l-.2-.1-.1.1c-1 1.3-3.1 3-6.7 3.2h-.5c-3.6-.1-5.7-1.9-6.7-3.2l-.1-.1-.1.1c-1 1.3-3.1 3-6.7 3.2h-.6c-.5 0-.9-.4-.9-.9s.4-.9.9-.9c2.2 0 3.6-.7 4.6-1.4 1.3-.9 1.8-2 1.8-2.1.1-.3.5-.5.8-.5.4 0 .7.2.8.5 0 .1.6 1.2 1.8 2.1 1 .7 2.4 1.4 4.5 1.4s3.5-.7 4.5-1.4c1.3-.9 1.8-2 1.8-2.1.1-.3.5-.5.8-.5.4 0 .7.2.8.5 0 .1.6 1.2 1.8 2.1 1 .7 2.4 1.4 4.5 1.4s3.5-.7 4.5-1.4c1.3-.9 1.8-2 1.8-2.1.1-.3.4-.6.8-.5.4 0 .7.2.8.5 0 .1.6 1.2 1.8 2.1 1 .7 2.5 1.4 4.6 1.4 2.1 0 3.6-.7 4.6-1.4 1.3-.9 1.8-2 1.8-2.1.1-.3.5-.5.8-.5.4 0 .7.2.8.5 0 .1.6 1.2 1.8 2.1 1 .7 2.5 1.4 4.6 1.4.9 0 1.3.4 1.3.9zM63.1 44.1c-4.9 0-6.4-3.4-6.5-3.5-.1-.3-.5-.6-.8-.5-.3 0-.7.2-.8.5 0 .1-.5 1.1-1.7 2v-14.2h-37.7v14.4c-1.4-1-2-2.2-2-2.2-.1-.3-.5-.5-.8-.5-.4 0-.7.2-.8.5-.1.1-1.6 3.5-6.5 3.5-.5 0-.9.4-.9.9s.4.9.9.9h.4c3.7-.1 5.8-2 6.8-3.3 1 1.3 3.1 3.1 6.8 3.3h.5c3.7-.1 5.8-2 6.8-3.3 1 1.3 3.1 3.1 6.8 3.3h.5c3.7-.1 5.8-2 6.8-3.3 1 1.3 3.2 3.2 7.2 3.3h.1c4 0 6.2-1.9 7.2-3.3 1 1.3 3.1 3.1 6.8 3.3h.4c.5 0 .9-.4.9-.9.5-.5.1-.9-.4-.9zm-35.7-5.3h-6.9v-6.9h6.9v6.9zm10.5 4.4c-.9.5-2.2.9-3.8 1-1.2 0-2.3-.3-3.1-.6v-11.7h6.9v11.3zm10.6-4.4h-6.9v-6.9h6.9v6.9z"/></g></svg>