<svg width="64" height="64" viewBox="0 0 64 64" xmlns="http://www.w3.org/2000/svg"><title>08002footballL</title><path d="M38.341 48.33c-4.676 1.786-9.821 2.731-14.88 2.731-9.728 0-17.21-3.306-19.799-6.861l17.763-7.064.866 2.194c.247.63.854 1.018 1.494 1.018.198 0 .397-.035.588-.112.826-.327 1.233-1.261.908-2.085l-.868-2.204 3.203-1.275.873 2.215c.247.633.852 1.02 1.494 1.02.196 0 .395-.037.588-.112.826-.327 1.23-1.261.906-2.087l-.875-2.222 3.203-1.272.88 2.234c.247.633.854 1.018 1.494 1.018.196 0 .395-.035.591-.112.824-.324 1.23-1.258.903-2.082l-.882-2.243 3.203-1.275.887 2.253c.247.63.854 1.02 1.496 1.02.196 0 .395-.037.586-.112.826-.327 1.233-1.261.908-2.085l-.889-2.264 18.288-7.27c.749 3.103-.924 8.063-4.459 12.956-2.617 3.621-8.498 10.265-18.47 14.077zm-12.639-33.087c4.699-1.795 9.672-2.706 14.777-2.706 9.651 0 17.289 3.355 19.899 6.854l-18.167 7.221-.922-2.344c-.324-.829-1.261-1.23-2.085-.908-.826.324-1.233 1.258-.908 2.082l.927 2.358-3.203 1.275-.931-2.367c-.324-.829-1.258-1.23-2.085-.906-.826.324-1.23 1.256-.906 2.082l.938 2.377-3.203 1.275-.941-2.388c-.327-.824-1.261-1.23-2.085-.906-.826.324-1.23 1.258-.906 2.085l.943 2.398-3.201 1.272-.95-2.407c-.324-.826-1.261-1.23-2.082-.906-.826.324-1.233 1.258-.908 2.085l.952 2.416-17.88 7.109c-1.693-6.688 7.61-21.199 22.925-27.05zm33.168 20.497c4.326-5.986 6.095-12.107 4.615-15.975-2.127-5.568-12.018-9.765-23.006-9.765-5.418 0-10.697.966-15.683 2.871-16.65 6.361-27.423 22.598-24.239 30.937 2.166 5.67 11.799 9.789 22.904 9.789 5.444 0 10.755-.976 15.786-2.897 7.846-2.997 14.817-8.311 19.624-14.959z"/></svg>