<svg width="64" height="64" viewBox="0 0 64 64" xmlns="http://www.w3.org/2000/svg"><title>02011freezpipeF</title><path d="M38.22 17.743c-.702 4.148-.723 4.151-.723 4.151-.526 3.091-1.979 6.016-4.181 8.37l-.74.787-3.309-2.56-.239-3.385-5.504-1.692 1.164-1.372c.54-.635.901-1.41 1.045-2.24l1.09-6.331c1.399-8.111 7.156-9.323 10.465-9.323.841 0 1.709.076 2.577.228l22.381 3.859-1.716 10.982-20.262-3.522c-1.297-.185-1.877 1.026-2.048 2.05zm-13.305 10.185l-4.151-.431-.386.657c-.846 1.441-2.408 2.337-4.077 2.337-2.605 0-4.724-2.119-4.724-4.727v-21.35h-11.577v21.321c0 6.085 3.323 11.397 8.239 14.253l3.212 14.545 2.617-12.508 2.844 18.863 2.842-19.02-.005.083 1.956 9.126 1.249-10.193c2.939-1.252 5.504-3.335 7.322-6.099l.887-1.344-6.248-1.801v-3.712z"/></svg>