<svg width="64" height="64" viewBox="0 0 64 64" xmlns="http://www.w3.org/2000/svg"><title>02011freezpipeL</title><path d="M59.979 15.598l-18.691-3.224c-.289-.049-.563-.075-.826-.075-2.978 0-3.536 3.247-3.719 4.313-.656 3.781-.712 4.119-.72 4.161-.405 2.362-1.386 4.563-2.86 6.429l-.609-.472-.289-4.07-3.871-1.19c.279-.596.477-1.229.591-1.882l1.12-6.483c.849-4.93 3.606-7.428 8.197-7.428.718 0 1.458.067 2.207.196l20.441 3.523-.97 6.202zm-32.102 18.98c-2.707 3.149-6.649 4.984-10.866 4.984-7.905 0-14.335-6.429-14.335-14.329v-19.344h6.749v19.373c0 4.073 3.314 7.389 7.387 7.389 2.315 0 4.496-1.097 5.882-2.916l.39.041v3.42l4.793 1.383zm-2.119-7.216l-4.442-.462-.434.743c-.844 1.438-2.403 2.331-4.07 2.331-2.596 0-4.71-2.114-4.71-4.713v-21.985h-12.102v21.956c0 6.316 3.471 11.829 8.597 14.76l3.252 14.722 2.7-12.678 2.893 19.184 2.891-19.342 2.016 9.297 1.262-10.29c3.061-1.288 5.73-3.448 7.619-6.321l.999-1.518-6.47-1.866v-3.82zm15.204-24.127c-.896-.155-1.791-.235-2.661-.235-3.425 0-9.39 1.254-10.835 9.65l-1.12 6.481c-.142.828-.501 1.603-1.04 2.235l-1.314 1.549 5.732 1.763.248 3.435 3.52 2.728.831-.89c2.274-2.429 3.773-5.446 4.336-8.726l-.013-.003c.088-.428.266-1.45.73-4.155.361-2.091.867-2.091 1.084-2.091.116 0 .24.013.369.036l21.373 3.686 1.796-11.49-23.038-3.972z"/></svg>