<svg width="64" height="64" viewBox="0 0 64 64" xmlns="http://www.w3.org/2000/svg"><title>02011freezpipeC</title><path d="M39.397 26.436c-.902-.13-1.307.712-1.427 1.427-.487 2.89-.502 2.892-.502 2.892-.367 2.153-1.381 4.193-2.915 5.832l-.514.549-2.306-1.784-.169-2.36-3.834-1.179.811-.956c.376-.442.628-.983.727-1.563l.762-4.41c.974-5.651 4.986-6.495 7.29-6.495.588 0 1.193.052 1.798.157l15.593 2.688-1.195 7.653-14.119-2.453zm-6.959 13.304c-1.268 1.924-3.055 3.375-5.103 4.249l-.869 7.102-1.365-6.359.004-.058-1.98 13.252-1.982-13.143-1.823 8.714-2.238-10.135c-3.427-1.99-5.741-5.692-5.741-9.93v-14.91h8.066v14.931c0 1.815 1.476 3.293 3.291 3.293 1.164 0 2.252-.623 2.843-1.629l.268-.458 2.892.301v2.587l4.354 1.255-.617.937zm-1.354-37.907c-17.166 0-31.083 13.917-31.083 31.083 0 17.166 13.917 31.083 31.083 31.083 17.166 0 31.083-13.917 31.083-31.083 0-17.166-13.917-31.083-31.083-31.083z"/></svg>