<svg width="64" height="64" viewBox="0 0 64 64" xmlns="http://www.w3.org/2000/svg"><title>07011fueldelivF</title><path d="M10.971 19.037c-1.751 0-3.165-1.419-3.165-3.165 0-1.751 1.414-3.162 3.165-3.162h12.657c1.743 0 3.165 1.411 3.165 3.162 0 1.746-1.422 3.165-3.165 3.165h-12.657zm10.668 28.778l-6.923 6.787c-.267.259-.606.387-.949.387-.353 0-.703-.136-.967-.408-.525-.533-.517-1.39.018-1.916l6.923-6.785c.533-.528 1.39-.515 1.916.018.525.536.517 1.393-.018 1.916zm.018-9.179c-.264.269-.617.405-.967.405-.342 0-.685-.128-.949-.387l-6.923-6.787c-.536-.523-.544-1.383-.018-1.916.525-.533 1.383-.544 1.916-.018l6.923 6.787c.536.523.544 1.38.018 1.916zm8.938-2.13l6.97-6.829c.533-.525 1.39-.517 1.916.018.525.536.515 1.393-.018 1.916l-6.97 6.829c-.264.259-.606.387-.949.387-.35 0-.703-.136-.967-.405-.525-.536-.515-1.393.018-1.916zm-.021 9.61c.525-.533 1.383-.541 1.918-.021l6.97 6.824c.533.525.544 1.383.021 1.918-.267.269-.619.408-.97.408-.342 0-.685-.131-.949-.387l-6.97-6.827c-.533-.523-.544-1.38-.021-1.916zm32.005-46.116s-4.534.614-6.476.904c-1.884.277-3.277.384-5.034 2.052-1.312 1.26-2.909 2.791-6.644 6.526l-2.245-2.245c-.661-.664-1.733-.664-2.394 0-.664.661-.664 1.733 0 2.394l.355.355-3.303 3.306-2.875-2.872c-2.517-2.514-7.483-4.568-11.034-4.568h-15.467c-3.557 0-6.463 2.904-6.463 6.463v45.219c0 3.554 2.906 6.466 6.463 6.466h37.951c3.554 0 6.463-2.911 6.463-6.466v-22.738c0-3.554-2.062-8.523-4.571-11.037l-2.76-2.757 3.306-3.306.444.444c.329.332.763.497 1.197.497.434 0 .865-.165 1.197-.497.661-.661.661-1.733 0-2.394l-2.444-2.444c2.269-2.836 4.984-6.536 5.517-7.156.868-1.014 1.234-.98 2.329-1.173 3.034-.541 7.033-1.252 7.033-1.252l-.546-3.722z"/></svg>