<svg width="64" height="64" viewBox="0 0 64 64" xmlns="http://www.w3.org/2000/svg"><title>07011fueldelivC</title><path d="M32 0c-17.673 0-32 14.325-32 32 0 17.673 14.327 32 32 32 17.675 0 32-14.327 32-32 0-17.675-14.325-32-32-32zm15.957 13.751c-.712.128-.95.104-1.515.765-.349.404-2.113 2.81-3.59 4.655l1.59 1.59c.431.429.431 1.126 0 1.558-.215.215-.495.323-.778.323-.283 0-.565-.108-.78-.323l-.306-.308-2.151 2.151 1.813 1.813c1.632 1.637 2.973 4.867 2.973 7.18v14.793c0 2.312-1.892 4.206-4.204 4.206h-24.691c-2.312 0-4.204-1.894-4.204-4.206v-29.42c0-2.315 1.892-4.204 4.204-4.204h10.062c2.312 0 5.543 1.337 7.18 2.973l1.851 1.851 2.151-2.151-.213-.215c-.431-.429-.431-1.126 0-1.558.429-.431 1.126-.431 1.556 0l1.462 1.46c2.427-2.429 3.467-3.426 4.321-4.244 1.143-1.086 2.049-1.156 3.275-1.335 1.265-.189 4.213-.589 4.213-.589l.357 2.423-4.576.812zm-19.063 7.09c0-1.139-.925-2.057-2.06-2.057h-8.236c-1.139 0-2.057.918-2.057 2.057 0 1.137.918 2.06 2.057 2.06h8.236c1.135 0 2.06-.922 2.06-2.06zm3.092 14.823c.274 0 .531-.104.727-.295l4.533-4.444c.2-.196.31-.457.315-.735.002-.278-.104-.54-.3-.735-.393-.4-1.075-.408-1.471-.015l-4.533 4.442c-.2.193-.31.455-.312.729-.004.281.102.544.298.744.2.202.463.31.744.31zm-7.792 4.317l-4.504 4.414c-.2.196-.31.457-.315.735-.002.276.104.54.3.735.196.202.461.315.742.315.274 0 .531-.106.729-.3l4.506-4.414c.408-.4.417-1.061.015-1.471-.391-.397-1.075-.408-1.473-.015zm8.519.138c-.395-.387-1.082-.38-1.473.017-.193.2-.3.461-.295.74.002.278.113.538.312.731l4.533 4.442c.198.191.457.298.729.298.281 0 .544-.113.744-.315.4-.408.395-1.069-.017-1.473l-4.533-4.44zm-11.566-10.514c-.397-.389-1.082-.383-1.471.015-.196.198-.302.459-.3.735.004.278.115.54.312.735l4.506 4.417c.198.191.455.298.729.298.285 0 .548-.113.744-.312.193-.198.3-.461.298-.74-.002-.278-.115-.538-.312-.733l-4.506-4.414z"/></svg>