<svg width="64" height="64" viewBox="0 0 64 64" xmlns="http://www.w3.org/2000/svg"><title>07011fueldelivL</title><path d="M62.924 1.065c-.101-.676-.729-1.141-1.404-1.055 0 0-4.561.62-6.516.907l-.35.051c-1.771.256-3.444.5-5.379 2.346-1.347 1.279-2.968 2.838-6.846 6.718l-.135.203-1.583-1.583c-.487-.49-1.279-.49-1.769 0-.487.487-.487 1.279 0 1.769l.331.328-2.324 2.326-3.349-3.349c-2.251-2.251-6.701-4.095-9.887-4.095h-16.921c-3.185 0-5.792 2.606-5.792 5.792v46.786c0 3.185 2.606 5.792 5.792 5.792h39.489c3.185 0 5.792-2.606 5.792-5.792v-24.218c0-3.185-1.841-7.633-4.095-9.887l-3.289-3.289 2.324-2.326.473.473c.246.244.565.364.886.364.319 0 .639-.121.883-.364.49-.49.49-1.281 0-1.769l-1.349-1.349c1.45-1.786 3.12-3.991 4.361-5.632.746-.985 1.308-1.733 1.518-1.976.49-.572.519-.577 1.289-.707l7.382-1.31c.666-.118 1.117-.743 1.018-1.414l-.548-3.738zm-13.352 32.925v24.218c0 1.815-1.474 3.292-3.292 3.292h-39.489c-1.815 0-3.292-1.477-3.292-3.292v-46.786c0-1.815 1.477-3.292 3.292-3.292h16.921c2.531 0 6.327 1.571 8.12 3.364l14.378 14.375c1.791 1.793 3.362 5.586 3.362 8.12zm5.085-28.926c-1.047.174-1.742.343-2.773 1.544-.224.261-.823 1.052-1.612 2.097-1.185 1.564-2.761 3.641-4.146 5.36l-2.131-2.131.203-.135c3.851-3.854 5.461-5.401 6.8-6.675 1.359-1.296 2.36-1.441 4.013-1.68l.357-.053c1.306-.193 3.774-.533 5.263-.736l.191 1.313-6.166 1.096zm-30.857 6.096h-12.768c-2.519 0-4.558 2.042-4.558 4.561s2.039 4.561 4.558 4.561h12.768c2.519 0 4.561-2.042 4.561-4.561s-2.042-4.561-4.561-4.561zm0 6.624h-12.768c-1.137 0-2.058-.927-2.058-2.063 0-1.137.922-2.061 2.058-2.061h12.768c1.139 0 2.061.924 2.061 2.061s-.922 2.063-2.061 2.063zm6.824 19.527c.246.251.57.376.893.376.316 0 .635-.118.876-.357l6.436-6.306c.492-.485.502-1.277.019-1.769-.485-.495-1.277-.502-1.771-.019l-6.433 6.306c-.495.485-.502 1.277-.019 1.769zm-10.003 6.89l-6.395 6.265c-.492.483-.502 1.274-.017 1.769.244.249.57.374.893.374.316 0 .632-.118.876-.357l6.395-6.265c.492-.483.5-1.274.017-1.769-.483-.492-1.277-.502-1.769-.017zm11.771.198c-.495-.483-1.286-.475-1.769.017-.483.495-.475 1.286.019 1.771l6.433 6.301c.246.239.56.357.876.357.326 0 .649-.125.895-.374.483-.495.473-1.286-.019-1.769l-6.436-6.303zm-16.414-14.925c-.492-.483-1.284-.475-1.769.019-.485.492-.475 1.284.017 1.769l6.395 6.267c.244.239.56.357.876.357.323 0 .647-.125.893-.374.483-.495.475-1.286-.017-1.769l-6.395-6.269z"/></svg>