<svg width="64" height="64" viewBox="0 0 64 64" xmlns="http://www.w3.org/2000/svg"><title>03009gasfinderF</title><path d="M43.197 27.499c1.468 0 2.884.23 4.213.651v-1.924c0-3.695-1.489-6.091-3.251-7.855l-2.285-2.283 1.775-1.775.335.335c.25.252.578.375.905.375.326 0 .655-.124.905-.375.499-.499.499-1.308 0-1.807l-1.649-1.651c1.711-2.138 3.746-4.913 4.147-5.38.659-.766.934-.74 1.762-.887l5.314-.943-.416-2.814s-3.424.465-4.892.685c-1.423.207-2.475.288-3.802 1.549-.99.949-2.193 2.103-4.998 4.909l-1.894-1.897c-.499-.499-1.312-.499-1.809 0-.499.499-.499 1.308 0 1.809l.269.269-1.775 1.775-2.5-2.498c-1.764-1.762-4.137-3.251-7.853-3.251h-12.299c-2.116 0-3.834 1.717-3.834 3.831v35.962c0 2.114 1.717 3.831 3.834 3.831h17.606c-1.075-1.937-1.801-4.087-1.801-6.647 0-7.716 6.278-13.993 13.993-13.993zm-11.763-.606l4.689-4.595c.399-.39 1.041-.386 1.431.013.393.399.386 1.041-.013 1.434l-4.689 4.595c-.198.192-.454.29-.708.29-.262 0-.527-.102-.723-.305-.393-.399-.386-1.039.013-1.431zm-5.884 7.755l-4.659 4.565c-.196.19-.452.288-.708.288-.262 0-.525-.102-.723-.303-.393-.401-.386-1.041.015-1.434l4.657-4.565c.401-.388 1.041-.384 1.431.015.393.401.386 1.041-.013 1.434zm.013-6.178c-.198.201-.461.303-.723.303-.254 0-.512-.096-.708-.29l-4.657-4.567c-.401-.39-.407-1.033-.015-1.431.393-.399 1.035-.405 1.431-.013l4.659 4.567c.399.39.405 1.033.013 1.431zm1.269-13.877h-10.067c-1.393 0-2.517-1.129-2.517-2.517 0-1.391 1.124-2.513 2.517-2.513h10.067c1.385 0 2.515 1.122 2.515 2.513 0 1.389-1.131 2.517-2.515 2.517zm16.365 48.243c2.513-9.406 11.859-12.89 11.859-21.344 0-4.07-2.052-7.659-5.175-9.794-.764-.512-1.596-.928-2.47-1.254v-.028c-1.31-.497-2.726-.783-4.213-.783-6.549 0-11.859 5.308-11.859 11.859 0 8.454 9.348 11.938 11.859 21.344zm-.346-17.316c-2.477 0-4.486-2.007-4.486-4.484s2.01-4.484 4.486-4.484c2.475 0 4.484 2.007 4.484 4.484s-2.01 4.484-4.484 4.484z"/></svg>