<svg width="64" height="64" viewBox="0 0 64 64" xmlns="http://www.w3.org/2000/svg"><title>03009gasfinderC</title><path d="M46.455 12.591c-.64.115-.852.094-1.36.687-.31.361-1.885 2.506-3.207 4.159l1.275 1.275c.385.387.385 1.012-.002 1.399-.191.193-.446.291-.697.291-.253 0-.508-.098-.701-.291l-.259-.259-1.371 1.371 1.766 1.766c1.362 1.365 2.514 3.216 2.514 6.072v1.488c-1.029-.325-2.123-.504-3.256-.504-5.966 0-10.818 4.854-10.818 10.818 0 1.979.559 3.643 1.39 5.139h-13.611c-1.634 0-2.963-1.328-2.963-2.963v-27.802c0-1.632 1.328-2.963 2.963-2.963h9.509c2.871 0 4.706 1.152 6.07 2.514l1.932 1.932 1.373-1.371-.208-.21c-.387-.385-.387-1.01 0-1.396.387-.387 1.014-.387 1.399 0l1.467 1.464c2.168-2.168 3.099-3.061 3.864-3.794 1.024-.973 1.838-1.037 2.939-1.199 1.133-.168 3.781-.529 3.781-.529l.321 2.176-4.108.729zm-5.299 44.774c-1.945-7.271-9.169-9.966-9.169-16.502 0-5.065 4.104-9.169 9.169-9.169 1.148 0 2.242.221 3.256.608.678.257 1.32.587 1.911.99 2.414 1.649 4 4.425 4 7.571 0 6.536-7.224 9.231-9.167 16.502zm-17.248-31.207c-.306-.304-.803-.298-1.107.011-.302.308-.298.806.013 1.107l3.6 3.53c.153.151.351.225.548.225.202 0 .406-.079.559-.234.302-.31.298-.806-.011-1.107l-3.603-3.532zm11.777-.132l-3.624 3.552c-.31.304-.315.799-.013 1.107.153.155.357.236.559.236.198 0 .395-.077.548-.225l3.626-3.554c.308-.302.312-.797.011-1.105-.302-.31-.799-.315-1.107-.011zm-7.184-9.847h-7.783c-1.075 0-1.945.867-1.945 1.943 0 1.073.869 1.947 1.945 1.947h7.783c1.073 0 1.947-.874 1.947-1.947 0-1.075-.874-1.943-1.947-1.943zm-2.087 18.274l-3.6 3.528c-.31.304-.315.799-.013 1.109.153.155.357.234.561.234.198 0 .395-.074.546-.223l3.603-3.528c.308-.304.312-.799.011-1.109-.304-.306-.797-.31-1.107-.011zm14.472 2.591c-1.913 0-3.467 1.552-3.467 3.467s1.554 3.467 3.467 3.467c1.915 0 3.467-1.552 3.467-3.467s-1.552-3.467-3.467-3.467zm-8.886-37.044c-17.673 0-32 14.325-32 32 0 17.673 14.327 32 32 32 17.673 0 32-14.327 32-32 0-17.675-14.327-32-32-32z"/></svg>