<svg width="64" height="64" viewBox="0 0 64 64" xmlns="http://www.w3.org/2000/svg"><title>03009gasfinderL</title><path d="M45.856 27.75v-2.316c0-2.234-1.292-5.352-2.872-6.932l-2.308-2.308 1.562-1.562.332.332c.19.19.44.284.688.284.25 0 .5-.094.69-.284.38-.38.38-.996-.002-1.378l-.884-.884c1.006-1.242 2.164-2.77 3.008-3.886.52-.688.912-1.208 1.058-1.378.32-.376.32-.376.848-.462l5.174-.92c.52-.092.87-.58.794-1.1l-.384-2.62c-.078-.53-.566-.882-1.094-.824 0 0-3.2.434-4.57.636l-.24.036c-1.26.182-2.45.354-3.83 1.668-.944.9-2.082 1.994-4.802 4.714l-.04.06-1.026-1.028c-.38-.378-.996-.378-1.378 0-.38.382-.38.998.002 1.378l.23.232-1.562 1.56-2.348-2.348c-1.578-1.578-4.698-2.87-6.932-2.87h-11.864c-2.234 0-4.06 1.826-4.06 4.06v32.804c0 2.234 1.826 4.062 4.06 4.062h15.56c1.07 1.792 2.464 3.43 3.906 5.11 2.492 2.9 5.068 5.902 6.192 10.108.126.472.554.8 1.042.8.49 0 .918-.328 1.044-.8 1.124-4.206 3.7-7.206 6.19-10.108 3.006-3.502 5.846-6.808 5.846-11.77 0-5.424-3.318-10.086-8.03-12.066zm.546 22.428c-1.968 2.292-4.14 4.824-5.596 8.044-1.454-3.222-3.628-5.752-5.596-8.044-2.856-3.326-5.324-6.202-5.324-10.362 0-6.022 4.9-10.92 10.92-10.92 6.022 0 10.92 4.898 10.92 10.92 0 4.162-2.466 7.036-5.324 10.362zm-6-40.234c2.7-2.702 3.828-3.786 4.768-4.68.93-.888 1.62-.988 2.764-1.152l.248-.036c.886-.132 2.542-.36 3.592-.504l.106.732-4.224.75c-.76.128-1.262.25-2.008 1.116-.156.184-.578.738-1.13 1.47-.798 1.056-1.88 2.482-2.84 3.678l-1.336-1.334.06-.04zm-26.296 34.778c-1.272 0-2.308-1.036-2.308-2.308v-32.804c0-1.272 1.036-2.308 2.308-2.308h11.864c1.776 0 4.438 1.102 5.694 2.358l10.082 10.08c1.254 1.256 2.356 3.918 2.356 5.694v1.738c-1.056-.276-2.156-.438-3.296-.438-7.212 0-13.08 5.868-13.08 13.082 0 1.83.392 3.434 1.03 4.906h-14.65zm15.124-32.098c0-1.766-1.432-3.198-3.198-3.198h-8.954c-1.766 0-3.196 1.432-3.196 3.198s1.43 3.196 3.196 3.196h8.954c1.766 0 3.198-1.43 3.198-3.196zm-3.198 1.446h-8.954c-.796 0-1.442-.648-1.442-1.446 0-.798.646-1.444 1.442-1.444h8.954c.798 0 1.446.646 1.446 1.444 0 .798-.648 1.446-1.446 1.446zm5.412 14.054c.246 0 .492-.094.682-.28l4.512-4.422c.384-.376.39-.994.014-1.378-.378-.384-.994-.39-1.378-.012l-4.512 4.422c-.384.376-.392.992-.014 1.378.19.194.444.292.696.292zm-7.71 4.398l-4.482 4.392c-.384.378-.392.994-.014 1.38.19.194.442.292.696.292.246 0 .492-.094.682-.278l4.482-4.392c.384-.378.39-.994.014-1.38-.376-.382-.992-.388-1.378-.014zm-3.118-10.326c-.384-.378-1.002-.37-1.378.014-.378.384-.37 1 .014 1.378l4.482 4.396c.19.184.436.278.682.278.252 0 .504-.098.696-.292.376-.384.37-1.002-.014-1.378l-4.482-4.396zm20.19 12.82c-2.65 0-4.8 2.148-4.8 4.8 0 2.65 2.15 4.8 4.8 4.8 2.652 0 4.8-2.15 4.8-4.8 0-2.652-2.148-4.8-4.8-4.8z"/></svg>