<svg width="64" height="64" viewBox="0 0 64 64" xmlns="http://www.w3.org/2000/svg"><title>04013genuinepartsC</title><path d="M50.467 23.139c-.197.055-.367.085-.5.085-.123 0-.193-.025-.229-.044l-.32-.172-.468 1.1c-.106.244.008.528.254.634l.322.138c.453.193.665.718.472 1.172l-.487 1.146c-.193.453-.723.663-1.174.472l-.362-.155c-.117-.049-.248-.051-.369-.002-.121.047-.214.14-.265.256l-.43 1.011c-.051.119-.053.248-.004.369s.14.216.258.265l.383.163c.451.193.663.718.47 1.172l-.604 1.417c-.093.22-.267.388-.487.477-.225.091-.466.087-.684-.006l-.386-.163c-.119-.051-.248-.051-.369-.002-.119.047-.212.14-.263.258l-1.776 4.216-.081.114c.521 1.29.801 2.653.801 4.064 0 6-4.88 10.882-10.88 10.882-3.244 0-6.342-1.553-8.723-4.373-.96-1.136-3.138-1.655-4.757-1.655h-5.456c-.013.004-.839.087-1.564-.496-.686-.551-1.034-1.487-1.034-2.78v-4.479c0-1.494.888-2.252 2.636-2.252h7.551l-.032-.047-1.367-3.197c-.106-.244-.39-.362-.634-.254l-.386.165c-.22.091-.462.093-.684.004-.22-.089-.394-.256-.487-.475l-.606-1.42c-.191-.453.021-.979.472-1.172l.381-.163c.119-.049.212-.144.258-.265.049-.121.049-.25-.002-.369l-.43-1.011c-.051-.117-.144-.21-.265-.256-.119-.051-.252-.047-.369.002l-.364.155c-.453.193-.977-.019-1.172-.472l-.487-1.146c-.193-.453.019-.979.472-1.172l.322-.138c.246-.106.36-.39.254-.636l-.468-1.098-.32.172c-.036.019-.106.044-.229.044-.133 0-.303-.03-.502-.085-.6-.17-1.225-1.487-1.216-2.564.008-1.328 2.922-3.098 3.252-3.297.377-.225.894-.303 1.17-.161l.186.032c.191 0 .424-.059.606-.159.015-.008.367-.195 1.146-.515.775-.318 1.1-.422 1.114-.426.333-.108.597-.354.631-.479.091-.339.545-.627.922-.727.07-.019 1.729-.449 3.064-.449.703 0 1.182.117 1.47.358.989.831 1.299 1.896 1.165 2.536-.108.519-.288.65-.386.682l-.612.214.443 1.051c.051.117.144.21.263.258.121.049.252.049.369-.004l.324-.138c.218-.091.462-.095.682-.006.222.089.394.261.489.479l.489 1.146c.091.218.093.462.004.684-.089.22-.258.394-.477.487l-.362.155c-.246.104-.36.388-.256.634l.432 1.011c.104.246.388.36.634.254l.381-.163c.453-.191.979.019 1.172.472l.481 1.131.483-1.131c.193-.453.72-.663 1.172-.472l.381.163c.244.106.53-.008.634-.254l.432-1.011c.104-.246-.011-.53-.256-.634l-.362-.155c-.218-.093-.388-.267-.477-.487-.089-.222-.089-.466.006-.684l.487-1.146c.093-.218.267-.39.489-.479.225-.089.466-.085.682.006l.324.138c.117.051.248.053.367.004.121-.049.214-.142.265-.258l.443-1.051-.612-.214c-.097-.032-.28-.163-.388-.682-.131-.64.176-1.706 1.167-2.536.286-.242.767-.358 1.47-.358 1.335 0 2.994.43 3.064.449.377.1.831.388.922.729.034.123.297.369.634.477.013.004.337.108 1.112.426.78.32 1.131.506 1.146.515.182.1.415.159.606.159l.186-.032c.273-.14.79-.064 1.167.161.333.199 3.244 1.968 3.254 3.297.008 1.076-.617 2.394-1.218 2.564zm-16.728 12.111c0-.354-.29-.644-.642-.644-.36 0-.648.29-.648.644 0 .36.288.644.648.644.352 0 .642-.284.642-.644zm-.655 7.382c-.881 0-1.6-.716-1.6-1.598 0-.881.718-1.598 1.6-1.598.879 0 1.598.716 1.598 1.598 0 .881-.718 1.598-1.598 1.598zm0-4.56c-1.636 0-2.964 1.328-2.964 2.962 0 1.634 1.328 2.962 2.964 2.962 1.634 0 2.962-1.328 2.962-2.962 0-1.634-1.328-2.962-2.962-2.962zm.013 8.047c-.36 0-.648.292-.648.646 0 .354.288.644.648.644.352 0 .642-.29.642-.644 0-.354-.29-.646-.642-.646zm.182-15.781c-5.941 0-10.776 4.835-10.776 10.776 0 .453.367.82.82.82.451 0 .818-.367.818-.82 0-5.038 4.1-9.138 9.138-9.138 2.24 0 4.392.818 6.064 2.301.337.301.856.269 1.155-.068.301-.339.269-.856-.068-1.157-1.97-1.75-4.511-2.714-7.151-2.714zm-1.28-30.339c-17.673 0-32 14.327-32 32 0 17.673 14.327 32 32 32 17.673 0 32-14.327 32-32 0-17.673-14.327-32-32-32z"/></svg>