<svg width="64" height="64" viewBox="0 0 64 64" xmlns="http://www.w3.org/2000/svg"><title>04013genuinepartsL</title><path d="M32.42 36.287c.519 0 .948-.42.948-.951 0-.524-.429-.953-.948-.953-.533 0-.958.429-.958.953 0 .531.424.951.958.951zm0 9.496c-1.079 0-1.956-.872-1.956-1.946 0-1.076.877-1.948 1.956-1.948 1.071 0 1.944.872 1.944 1.948 0 1.074-.872 1.946-1.944 1.946zm0-6.516c-2.522 0-4.572 2.05-4.572 4.57 0 2.517 2.05 4.565 4.572 4.565 2.515 0 4.563-2.048 4.563-4.565 0-2.52-2.048-4.57-4.563-4.57zm0 12.115c-.533 0-.958.429-.958.953s.424.953.958.953c.519 0 .948-.429.948-.953s-.429-.953-.948-.953zm26.797-36.923l-.13.19-.384.555-.161-.073-.476-.218h-.005l-16.076-7.339-.002-.002-.759-.351-.085-.04.171-.659.057-.213c.256-.974.673-1.143 2.1-1.218.889 0 2.612.365 3.641.583l.564.114c.123.713.638 1.301 1.444 1.591.574.199 1.553.583 2.162.863.6.273 1.529.756 2.062 1.064.73.417 1.517.429 2.14.045l.531.405c.82.623 2.347 1.785 2.83 2.404.811 1.06.948 1.467.377 2.302zm-3.525 8.661l-1.114-.5c-.322-.145-.68-.154-1.003-.031-.325.123-.588.372-.73.69l-1.372 3.055c-.296.661-.002 1.434.657 1.733l1.372.616-.631 1.399-1.375-.619c-.657-.296-1.434-.005-1.733.657l-3.432 7.623c-.142.313-.154.668-.033.991.609 1.652.917 3.368.917 5.103 0 8.161-6.635 14.801-14.796 14.801-4.553 0-8.789-2.055-11.665-5.696-1.733-1.965-3.676-3.278-7.547-3.3h-8.633c-1.079 0-1.956-.877-1.956-1.958v-7.699c0-1.081.877-1.96 1.956-1.96h8.633c1.368 0 2.546-.171 3.601-.521.353-.116.638-.377.787-.718.147-.337.145-.725-.007-1.062l-2.522-5.604c-.296-.659-1.067-.955-1.733-.657l-1.375.619-.628-1.399 1.372-.616c.659-.299.953-1.074.657-1.733l-1.377-3.058c-.142-.318-.405-.564-.732-.687-.325-.123-.687-.114-1 .031l-1.109.5-.631-1.399 1.114-.503c.318-.142.567-.405.687-.73.123-.325.114-.687-.031-1.003l-1.235-2.735 13.694-6.253 1.266 2.811c.142.318.405.564.73.687.322.123.685.111 1.003-.031l1.126-.507.628 1.396-1.124.507c-.315.142-.564.405-.685.73-.123.325-.114.685.031 1.003l1.38 3.058c.142.318.405.564.73.685.327.126.69.111 1.003-.031l.856-.386.628 1.401-.858.384c-.318.142-.564.405-.687.73-.123.327-.114.685.028 1.003l1.884 4.184.036.071c-7.891.86-14.056 7.547-14.056 15.647 0 .725.588 1.311 1.311 1.311s1.308-.585 1.308-1.311c0-7.237 5.905-13.127 13.16-13.127 3.409 0 6.637 1.308 9.095 3.679.519.5 1.349.484 1.854-.033.5-.521.486-1.351-.036-1.851-2.539-2.451-5.767-3.947-9.225-4.316l1.915-4.252c.142-.318.154-.676.028-1.003-.123-.325-.37-.588-.687-.73l-.858-.384.628-1.401.856.386c.32.142.68.154 1.005.031.325-.123.585-.37.73-.685l1.377-3.058c.296-.659.002-1.434-.657-1.733l-1.119-.505.631-1.396 1.114.505c.318.145.683.154 1.003.031.327-.123.588-.37.732-.687l1.263-2.811 13.701 6.253-1.233 2.735c-.142.318-.154.678-.031 1.003.123.325.37.588.687.73l1.112.5-.631 1.401zm-49.958-8.484l-.119-.175c-.569-.832-.422-1.261.382-2.302.488-.633 2.034-1.806 2.866-2.434l.493-.377c.619.379 1.399.377 2.143-.045.531-.308 1.46-.792 2.067-1.064.604-.28 1.581-.664 2.162-.868.792-.282 1.304-.86 1.427-1.583l.557-.116c1.029-.218 2.747-.581 3.762-.581h.012c1.306.071 1.726.242 1.982 1.216l.052.194.173.678-.161.078-16.761 7.654-.555.251-.088.038-.393-.564zm26.114 9.365c.211-.095.403-.223.569-.377.166.152.358.282.574.379l.121.055-.695 1.545-.695-1.545.126-.057zm29.065-13.442c-.647-.832-1.939-1.842-3.321-2.892l-.68-.526c-.346-.275-.884-.64-1.536-.64-.462 0-.799.173-1.038.36-.595-.329-1.415-.751-1.975-1.005-.564-.258-1.422-.602-2.065-.839-.012-.254-.081-.562-.292-.868-.42-.612-1.124-.799-1.605-.887l-.754-.156c-1.202-.254-3.02-.638-4.184-.638l-.268.007c-1.164.064-3.589.199-4.366 3.164l-.057.211c-.446 1.697-.607 2.622.943 3.527l-.747 1.659-.365-.166c-.503-.235-1.086-.265-1.64-.059-.526.201-.955.609-1.173 1.109l-1.043 2.313c-.235.517-.254 1.093-.052 1.624.201.531.597.951 1.109 1.178l.386.173-.301.671-.116-.052c-.51-.235-1.1-.258-1.643-.05-.529.209-.943.607-1.161 1.105l-.555 1.233-.559-1.242c-.23-.503-.64-.889-1.178-1.102-.526-.197-1.105-.18-1.621.052l-.119.055-.301-.668.379-.171c.517-.228.915-.647 1.116-1.178.199-.526.185-1.1-.047-1.619l-1.057-2.354c-.242-.495-.652-.877-1.188-1.086-.531-.19-1.128-.156-1.598.062l-.389.175-.744-1.652c1.557-.879 1.394-1.825.889-3.748-.782-2.965-3.205-3.1-4.369-3.164l-.268-.007c-1.166 0-2.989.386-4.196.642l-.732.149c-.491.09-1.192.28-1.614.889-.209.303-.277.612-.289.868-.635.235-1.493.581-2.055.837-.588.268-1.463.716-1.951 1.036-.834-.687-2.055-.187-2.605.254-.154.126-.377.294-.64.491-1.401 1.062-2.714 2.086-3.361 2.927-.711.924-2.195 2.847-.467 5.381l.121.175c.759 1.105 1.259 1.835 2.313 1.835.261 0 .498-.052.761-.145l.704 1.56-.375.171c-.526.235-.936.678-1.116 1.188-.194.521-.175 1.112.052 1.609l1.045 2.328c.479 1.038 1.87 1.493 2.797 1.052l.375-.168.303.668-.638.287c-1.064.481-1.541 1.737-1.062 2.792l1.045 2.328c.235.514.668.917 1.159 1.095.521.206 1.128.19 1.636-.04l.64-.289 1.325 2.944c-.412.05-.856.073-1.332.073h-8.633c-2.522 0-4.575 2.055-4.575 4.58v7.699c0 2.524 2.053 4.58 4.575 4.58h8.626c2.925.014 4.222.858 5.542 2.354 3.33 4.222 8.315 6.642 13.677 6.642 9.605 0 17.417-7.817 17.417-17.422 0-1.868-.303-3.714-.903-5.499l2.683-5.95.635.287c.517.237 1.169.235 1.6.057.531-.19.969-.597 1.202-1.114l1.041-2.318c.479-1.06.005-2.316-1.062-2.799l-.635-.287.299-.668.358.161c1.003.469 2.375-.024 2.816-1.05l1.041-2.304c.235-.503.256-1.095.052-1.638-.204-.526-.593-.943-1.105-1.176l-.377-.171.699-1.557c.254.085.495.14.766.142 1.052 0 1.55-.728 2.304-1.825l.128-.19c1.721-2.517.249-4.444-.465-5.378z"/></svg>