<svg width="64" height="64" viewBox="0 0 64 64" xmlns="http://www.w3.org/2000/svg"><title>07008ghrnetworkC</title><path d="M31.999 0c-17.671 0-31.999 14.328-31.999 31.999 0 17.673 14.328 32.001 31.999 32.001 17.673 0 32.001-14.328 32.001-32.001 0-17.671-14.328-31.999-32.001-31.999zm24.993 21.017l-.027.059-.103.057-.03.076-.055.046-.173.091v.101l-.076.078-.076.032-.07.133-.008.084-.057.049-.201-.036-.063.059-.084.011-.074-.057-.061-.091-.036.002-.046.038-.049.087.04.15-.011.116.04.099-.013.152-.025.025-.125.011-.036.072-.006.12-.061.053-.042.017-.078-.051-.034.023.025.146-.021.08-.036.002-.108-.082-.063.011-.106.106-.061.152.036.167-.046.108-.051.304-.163.26.04.236.173.15.146.076-.065.065v.141l-.046.04-.013.065.019.08.036.017.184.006.106.046.095.144.095.019.15.135.201.015.182-.023.108-.074-.002-.07-.082-.158.044-.027.036.021.122.186-.008.049-.146.171-.103.023-.175.144-.093.017-.087-.084-.065.011-.175.209-.12.068-.07.015-.087-.12-.095-.017-.027.042.011.258-.061.087-.065.051-.279.177-.433.173-.19.112-.251.042-.108.089-.032.118-.171.097-.175.156-.171.097-.038.177-.101.03-.07.236-.034.059-.019.144.025.063.032.023.146.015.135.074.055.061.017.082.023.234-.027.023h-.046l-.013.051.057.306-.015.051-.076.065.027.059-.023.125-.093.135-.078.315-.08.158-.04-.04-.078-.198-.184.046-.146-.057-.158.006-.16-.076-.171-.087.008.11.078.108.39.31.272.165.205.232-.023.108.015.139-.087.217.061.135-.12.534.023.416-.023.091-.046.059-.089.034-.055-.027-.097-.148-.051-.131.034-.401.021-.068.068-.049-.002-.097-.095-.004-.057-.025-.051-.103-.148-.135-.084-.008-.148.038-.16-.076-.061-.091-.013-.082.021-.065.063-.074-.068-.11-.036-.11-.032-.021-.099.027-.046-.038.08-.158-.011-.063-.07-.07-.027-.08.038-.099.076-.065.021-.065v-.097l-.025-.03-.057-.021-.04.008-.032.078-.025.127-.163.224-.125.097.099.103.103.414.097.175.07.076.004.019-.089.032.171.063.163.222-.144-.015-.127-.057-.139.006-.091-.042-.103.03-.232-.034-.146.011-.055-.023.013-.112-.015-.044-.061.051-.017.11.019.042.046.036.342.042.224.087.209-.004.26.027.139.082.053.091.015.205-.065.034.006.017.072.114.106.023.116.112-.068.015-.063.051.021.061.065.082.11.015.049.059-.068.053-.182.055.015.08.12.03h.116l.027-.051.042-.019.34-.023.103.201.038.272.051.034.087.133.097.732.078.108v.013l-.106-.099-.108.025-.129-.004.017.061-.076.013-.217.211-.103.027-.08-.025-.137-.201-.025.051.084.23.076.118.122-.011.439-.194.099.194.061.053.015-.004.034-.188.057-.114.116.08.061.097.055.137-.082.087-.103.241-.093.082-.188.055-.087-.053-.076.013-.082-.093-.091.122-.239.059.338.027.093.044-.065.097-.008.078-.061.095.023.089.021.04.004-.04.084-.059.173-.019.049.112-.002.106-.232.23-.39.12-.302.241-.122.131-.055.163-.078.106-.025.076v.103l-.312.234-.323.116-.099.057-.004.082-.23.832-.097.163-.055.207-.095.103.074.082-.021.118-.089.108-.163.095-.008.122-.072.074-.042.013-.346.416-.087.044-.315.044-.306.093-.008.034.021.042.135.101.068.078-.038.091-.099.021-.156.12-.013.042.046.08-.057.027-.087.177-.106.534-.017.154-.002.209-.063.188.07.268-.019.112.452.758.479.618.504.405.226.217.078.15.057.3.118.209.277.262.589.697.057.234.135.355.074.359-.042.395-.002.376.116.049-.057.152-.182-.03-.234.163-.194.087-.274.057-.103-.04-.032-.034-.051-.228-.325-.346-.141-.07-.186.027-.133-.078-.093-.099-.141-.217-.243-.188.002-.07.036-.093-.023-.011-.095.051-.135-.296-.141.082-.046-.008-.384-.291-.154-.16-.08-.182-.006-.163.027-.241-.101-.046-.103-.011.03.169-.097.015-.013-.017-.089-.171-.03-.106-.053-.621-.114-.315-.07-.122-.065-.057-.27-.034-.148-.051-.268-.177-.118-.023-.057-.163-.116-.023-.251-.163-.177-.082-.222-.025-.108.004-.177.046-.093.087.006.091-.017.015-.118.025-.26.179-.283.099-.274.106-.099-.042-.154-.152-.11-.065-.587-.148-.236-.032-.152-.046-.021-.023.061-.036-.004-.061-.097-.011-.232.03-.428.173-.146.032.032-.139-.015-.04-.03.002-.087.089-.106.034-.141.169-.409.179-.179.049-.04-.051.027-.12-.008-.074-.097-.209-.03-.154-.068-.106-.057.587-.072.051-.182.006-.688.076-.215.152-.179-.015-.234.148-.329-.006-.321-.072-.249.108-.025.194.19.095.203-.04.144-.122.08-.019h.053l.089.19.087-.002.103-.106.224-.125.046.004.057.03-.006.253-.207.179-.063.148.004.044.184.144.371.087.114.097-.017.084-.139.072-.078.046-.266-.209-.258-.055-.171-.097-.108.017-.032.03.025.063-.019.059-.114.165-.228-.008-.093.013-.097.061-.122-.046-.156.097-.182-.021-.07-.042-.241.021-.283-.255-.135-.006-.16-.106-.352-.095-.198.023-.053.065.025.093-.114.12-.249.025-.27-.006-.239-.051-.458-.055-.625.158-.361.055-.23.146-.388.182-.049-.013.12-.059.03-.078-.148.011-.044-.203-.053.002-.061.034-.055.059.055.566-.076.291-.051.087-.268.196-.116.118-.3.173-.338.148-.046-.013.034-.051.158-.091.209-.084.08-.051.011-.034-.046-.002-.325.129-.061-.148-.032.021-.021.082-.063.036-.027-.002-.072-.076-.049-.008-.021.038.011.076-.017.013-.074-.046-.112-.027-.025.057.011.082.131.072-.002.08-.078.046-.205.036-.036.049-.017.065-.106.131-.076-.002-.192.122.002.084.12-.04.019.042-.087.19-.298.078.141.163.017.234-.013.139-.095.065-.068-.046-.156.023-.015.068.065.027.135.015.03.027.023.213-.091.065.042.177.19.454.034.03.055.129.122.184.103.053-.017.04-.376.011-.422-.125-.583.021-.336-.125h-.315l-.38-.173-.416-.431-.409-.836-.388-.184-.222-.317-.374-.287-.481-.798-.236-.118-.148-.175-.382-.268-.175-.152-.931.084-.239-.038-.228.089-.061.07-.447.857-.488-.053-.54-.268-.39-.268-.323-.327-.331-.878-.618-.331-.407-.304-.188-.217-.262-.097-.152-.222-.084-.034-.217-.106-1.855.021-.006.538-.914-.004-.177-.04-.726-.526 8.738-4.72c.481.378 1.022.699 1.604.929.722.289 1.503.462 2.315.485 1.076.032 2.164-.165 3.031-.627.865-.462 2.423-1.927 2.423-1.927.247-.321.194-.773-.118-1.026-.129-.093-.281-.141-.426-.148l-2.001-.061-1.629-.046-.768-1.429-.775-1.435.855-1.38.851-1.387 1.625.044 1.997.061c.403.008.739-.306.749-.709.006-.156-.044-.308-.131-.437-.593-.851-1.385-1.562-2.313-2.062-.893-.481-1.906-.77-2.982-.802-1.849-.051-3.544.65-4.785 1.83-1.245 1.174-2.041 2.824-2.096 4.667l-.002.074-.865.454-11.398 6.168-.059-.103-.171-.084-.175-.125-.127-.034-.101.038-.222-.148-.361-.106-.127-.063-.034-.076-.008-.26.015-.154.063-.116-.006-.044-.082-.139-.144-.099.017-.198-.108-.074-.251-.319-.171-.367-.346-1.148-.025-.078.027-.226.148-.076.034-.203-.074-.184-.236-.087-.137-.192-.004-.34-.061-.213.006-.122.057-.125.076.032.019.101.078.135.139.141.004-.097-.127-.333-.002-.11.112-.082h.122l.144-.046-.222-.125-.258-.061-.068.241-.023.032-.074.036-.059-.032-.023-.057-.11-.036-.12-.133-.027-.072.038-.144-.032-.141-.258-1.03-.097-.213-.095-.146-.017-.646.053-.188.059-.087-.004-.093-.281-.751-.095-.12.008-.091.044-.139.171-.122.154-.156.095-.327.156-.348.017-.564-.002-.171-.002-.074-.042-.346.082-.407.019-.245.209-.395.137-.131.129-.038.013-.12-.03-.008.006-.021.051-.122.209-.355.068-.196.087-.133.184-.65.125-.177.163-.471.101-.112.032-.167.061-.078-.04-.057.017-.101.093-.224.044-.065.063-.023.323.053.165.101.032-.038-.087-.08-.074-.114-.35-.076-.091-.106.011-.116.078-.201.049.068-.044.154.051.023.034-.042.032-.165.049-.108-.006-.034-.063-.004-.049-.034-.015-.046.027-.101.08-.065.053-.076-.034-.084-.101.07-.017-.019.002-.203.049-.488-.025-.253-.082-.175-.025-.129.008-.112.055-.133.091-.114.087-.055.137.129.403.268.144.036.179.089.222.042.186.141.182.021.013.122-.063.12-.038.032-.091.021-.055.036-.234.251-.042.165.12.021.046-.084-.04-.025.063-.059.175-.07.194-.177.097-.008.034.021.023.108.017.008.087-.184.065-.213-.008-.245-.011-.051-.063-.053-.065-.093.004-.019.07-.011.095-.068.044-.129.057-.006.049.046.023-.013-.034-.07-.116-.068-.112-.027-.051-.114-.021-.129s3.428.8 9.762 1.328c6.332.526 10.429.315 10.429.315l.03.017.175.268.125-.023.025.019.072-.006.15-.038.089.03.205.027.04.027.002.019.12.017.165-.027.122-.082.412-.017.16.032.163.057.099.08.091.027.146.019.129.065.196.023.154.112.203.055.103-.025.184-.118.154-.025.289.046.412-.049.243.055.078-.011-.315.325-.293.141-.604.551-.532.536-.099.127.084.078.137-.002.203-.068.549-.397.116.07.032.125-.021.16.027.032.057-.068.333-.015.207-.046.281-.234.186-.087.239-.08.15-.141.163-.11.154-.215.215-.177.165-.114.165-.078.175-.036h.04l.004.065-.127.114-.203.306-.099.065-.057.101.017.169.019.051.106-.127.082.006.247-.084.329.089.125.114.226.12.144-.051.409-.006.082-.04.082-.125.135-.072.139-.11.498-.091.133-.049.135-.103.139-.021.061.068.038.146.165.036.127-.002.228-.072.127-.025.053.038.03.061.059.061.053.15.114.03.08.063.093.023.027.036-.006.011-.108.023-.279.129-.091-.059-.091-.025-.025.065.011.101-.131.027-.089-.061-.055-.013-.188-.04-.211-.002-.188.074-.08.133-.249.076-.215.101-.226.31-.089.025-.057-.266-.097.106-.118.07-.051.002-.133.186-.243.597-.076.194-.093.095-.027.074-.072.241.015.068.325-.361.114-.036.015-.122-.019-.127.179-.258.072.118-.068.293-.101.236-.051.192.004.194.03.127-.042.285-.006.16.034.19-.078.319-.008.201.065.241.118.243.042.12.032.188.044.207.226.304.108.173.078.076.087.017.129.017.15-.019.201-.165.217-.177v-.129l.12-.336.074-.409-.093-.498-.084-.12-.139-.12-.209-.312.017-.325-.027-.27.08-.08-.034-.046-.023-.182.006-.097-.038-.141.068-.112v-.129l.192-.167.068-.101.07-.055.061.068.068.184.034.038.046-.053.065-.095-.011-.15-.04-.192.144-.059.198-.116.021-.046-.108-.078-.038-.07-.021-.076.065-.103.184-.055.203.006.04.021.101-.04.099.013.249.097.089.008.118.044.274.03.133.061.165.156-.027.015-.034.068.044.106.076.076.163.287.04.139-.015.095-.076.116-.027.15-.19.211-.042.152-.004.137.059.053.122.011.093-.057.101-.093.051-.249.021-.03.247-.156.137-.049.287.226.12.146.061.16.144.287.091.108.074.061.019-.036.025.106-.006.418-.207.046-.078.11-.008.082.03.099-.072.099-.032.184.036.169-.171.251-.049.114.279.021.152.065.093.004.127-.034.061.04.34-.027.3-.163.287-.068.511-.456.296-.207.241-.099.196-.156.106-.141.184-.063.125-.122.232-.243.127-.184.059-.025.049-.051.034-.101.154-.222-.116-.163-.114-.093-.093-.12.137-.11.317-.167.352-.135.112-.03.262-.017.179.053.16-.101h.065l.329-.106.135-.084.203-.258.262-.127-.006-.101-.087-.125-.112-.059-.03-.042.006-.038.065-.008.046-.051-.019-.063-.068-.036-.118.038-.051-.065.025-.114.264-.26.042-.169-.008-.093.002-.002.015-.097.245-.247.177-.281.236-.076 1.199-.395 1.556-.545.027-.011-.008-.245.034-.076.175-.082.042-.036.11-.099.19-.002-.044-.087.015-.013.135-.008-.006-.032-.07-.07-.013-.072.023-.076.07-.112.004-.046-.194-.479-.015-.122.023-.127-.025-.087.002-.201-.106-.331.106-.728.07-.091.087-.025.15.04.089.063.059.042.217-.023.226-.152.027-.184.11-.042.572.158.376.652.414.735h.279l.122.211.055.055.08.049.169.017.15-.036.061-.038-.008-.046.053.055.103.148-.013.097.013.036.106-.025.057.055.017.072-.061.101-.118.063z"/></svg>