<svg width="64" height="64" viewBox="0 0 64 64" xmlns="http://www.w3.org/2000/svg"><title>07008ghrnetworkF</title><path d="M63.978 14.711l-.072-.072-.134.032-.016-.046.016-.124-.13-.188-.068-.068.012.058-.08.048-.192.046-.214-.022-.102-.06-.07-.072-.158-.268h-.354l-.531-.937-.478-.835-.731-.202-.14.054-.034.234-.288.194-.276.032-.076-.056-.112-.082-.194-.05-.11.034-.088.114-.134.931.132.422v.254l.03.112-.028.162.018.154.25.615-.008.058-.088.142-.028.098.014.092.09.086.008.042-.172.01-.02.018.058.11-.244.002-.14.126-.052.046-.226.106-.04.096.01.312-.036.014-1.986.695-1.532.503-.3.098-.228.36-.312.312-.018.126-.002.002.012.118-.054.214-.336.332-.034.146.064.084.152-.048.086.046.022.08-.06.064-.082.01-.006.05.036.052.144.076.108.16.008.13-.332.162-.258.326-.172.108-.42.134h-.084l-.206.13-.228-.068-.334.022-.142.038-.448.172-.404.214-.178.138.122.154.144.118.148.208-.198.284-.042.128-.062.064-.076.034-.162.232-.294.31-.158.156-.236.082-.136.18-.248.2-.308.126-.376.262-.653.585-.366.084-.382.208-.434.038-.078-.054-.162.044-.118-.006-.192-.082-.356-.028.062-.146.218-.32-.048-.214.042-.236.09-.126-.036-.126.01-.106.102-.14.262-.058.006-.535-.03-.136-.026.046-.092-.076-.118-.136-.182-.368-.078-.204-.154-.186-.364-.288-.176.062-.314.2-.03.036-.064.318-.128.12-.118.072-.156-.016-.076-.066.006-.174.054-.196.24-.266.038-.192.096-.15.02-.12-.054-.18-.206-.364-.098-.096-.056-.134.044-.088.036-.018-.21-.2-.172-.078-.348-.036-.152-.058-.112-.01-.318-.124-.126-.016-.13.052-.052-.028-.258-.01-.236.07-.08.134.024.096.05.09.136.098-.026.06-.252.15-.184.074.052.244.012.19-.084.122-.058.07-.042-.05-.088-.236-.078-.086-.086.07-.088.132-.244.21v.164l-.086.142.046.182-.008.124.03.232.044.058-.102.104.034.342-.02.418.266.396.178.154.108.152.118.637-.096.523-.152.43v.162l-.276.228-.256.21-.194.024-.162-.022-.112-.022-.1-.096-.136-.222-.288-.386-.058-.264-.04-.24-.052-.154-.152-.308-.082-.308.01-.256.1-.406-.044-.242.008-.206.054-.362-.038-.16-.004-.25.064-.246.128-.3.086-.374-.09-.152-.228.328.022.164-.018.154-.146.048-.412.458-.02-.086.092-.306.032-.094.12-.122.096-.246.312-.763.168-.238.066-.002.15-.09.124-.134.072.338.114-.03.288-.394.272-.13.32-.098.102-.172.238-.092.27.002.242.052.068.016.114.078.168-.034-.014-.13.032-.084.116.032.114.076.356-.166.138-.03.008-.012-.038-.046-.116-.03-.102-.08-.146-.038-.068-.192-.074-.076-.038-.08-.068-.048-.16.032-.29.094h-.162l-.21-.046-.05-.184-.078-.088-.176.028-.172.132-.172.062-.635.116-.176.14-.176.092-.102.158-.108.052-.523.008-.182.064-.286-.152-.16-.146-.42-.112-.314.106-.108-.006-.132.162-.026-.068-.02-.212.072-.132.126-.082.258-.39.164-.146-.008-.084h-.05l-.222.044-.212.102-.21.144-.274.226-.198.274-.206.14-.19.18-.304.102-.24.11-.356.3-.264.06-.424.02-.074.086-.034-.04.024-.206-.038-.158-.146-.088-.703.505-.258.086-.176.004-.106-.102.124-.16.681-.685.771-.703.374-.18.4-.416-.098.014-.31-.07-.527.062-.37-.06-.196.034-.234.15-.132.032-.258-.07-.196-.142-.252-.03-.162-.084-.188-.024-.114-.036-.124-.1-.21-.074-.206-.04-.525.02-.156.106-.21.036-.154-.022v-.022l-.052-.036-.262-.036-.112-.038-.192.048-.09.01-.032-.026-.162.032-.222-.344-.038-.022s-5.229.272-13.314-.402c-8.086-.673-12.463-1.694-12.463-1.694l.026.164.064.148.144.032.15.088.04.088-.028.018-.064-.06-.07.008-.058.162-.12.088-.09.014-.004.022.082.12.082.068.014.062.01.314-.084.274-.11.232-.02-.01-.032-.14-.044-.026-.122.012-.248.226-.224.09-.08.074.05.032-.058.11-.154-.028.056-.212.296-.318.072-.046.114-.028.048-.042.082-.15-.016-.158-.232-.028-.236-.18-.284-.052-.228-.114-.182-.048-.517-.338-.174-.164-.112.068-.114.144-.07.17-.01.144.032.164.104.224.032.322-.062.623-.002.258.022.026.128-.088.044.104-.066.1-.104.082-.034.13.018.06.06.04.084.006.008.044-.064.138-.04.208-.042.054-.066-.028.058-.198-.062-.084-.1.256-.014.146.118.134.446.1.094.142.11.104-.042.048-.21-.128-.412-.068-.08.028-.056.086-.118.284-.022.128.05.072-.076.102-.042.212-.128.144-.21.601-.156.224-.236.831-.11.17-.086.25-.266.454-.066.154-.006.028.038.01-.018.154-.164.05-.174.168-.266.501-.026.314-.104.521.056.44v.094l.004.216-.022.723-.2.444-.122.416-.194.2-.218.154-.058.182-.01.112.12.156.358.957.006.118-.074.112-.068.24.02.823.122.188.124.27.33 1.317.038.178-.048.184.036.092.152.17.142.046.028.07.078.04.092-.042.03-.042.084-.308.33.08.282.156-.182.06h-.156l-.144.108.004.138.16.424-.006.124-.176-.18-.098-.174-.026-.128-.098-.04-.07.16-.01.154.078.272.004.436.178.246.3.11.096.234-.044.258-.188.096-.038.29.036.098.438 1.466.222.468.318.408.138.094-.022.252.184.128.104.176.008.056-.08.148-.02.198.012.33.044.096.16.082.46.134.282.188.132-.048.16.044.222.158.22.106.074.136 14.551-7.876 1.107-.581.002-.09c.07-2.354 1.083-4.463 2.675-5.96 1.586-1.506 3.75-2.4 6.108-2.336 1.375.04 2.669.41 3.81 1.023 1.183.639 2.194 1.548 2.953 2.633.11.164.174.358.166.559-.014.515-.442.917-.957.905l-2.549-.078-2.074-.056-1.087 1.77-1.093 1.762.989 1.832.983 1.826 2.08.058 2.555.078c.186.008.38.072.545.19.398.322.466.901.15 1.309 0 0-1.988 1.87-3.095 2.461-1.107.589-2.493.841-3.87.801-1.035-.03-2.032-.252-2.955-.623-.743-.292-1.433-.701-2.046-1.185l-11.156 6.026.927.671.224.05 1.167.008.01-.689 2.366-.024.278.132.108.044.192.282.336.124.24.278.519.386.791.422.422 1.123.412.418.499.338.691.346.621.064.571-1.095.078-.088.292-.11.304.046 1.189-.104.224.192.487.34.19.224.3.152.615 1.017.476.366.282.406.495.232.525 1.069.531.551.487.22.4-.002.428.158.743-.026.541.16.48-.014.02-.05-.132-.068-.154-.236-.072-.164-.044-.036-.242-.581-.052-.226.116-.082-.03-.272-.038-.036-.174-.02-.082-.032.02-.088.198-.03.086.06.122-.082.016-.178-.024-.3-.178-.208.378-.1.112-.242-.026-.054-.152.05-.002-.106.244-.156.096.004.136-.168.02-.082.048-.062.26-.046.1-.06.002-.102-.166-.092-.016-.106.034-.072.142.036.096.058.02-.016-.012-.096.026-.05.062.012.09.098.036.002.082-.044.026-.106.04-.028.08.19.414-.166.06.004-.016.042-.102.064-.266.11-.202.114-.044.064.06.016.432-.188.38-.222.15-.148.34-.254.066-.108.098-.372-.07-.723.07-.074.078-.044.064-.002.058.258.188-.014-.038.1-.152.076.06.016.497-.234.294-.182.462-.072.797-.202.585.07.304.066.346.006.316-.032.144-.15-.032-.12.068-.082.254-.032.448.122.206.134.172.006.36.328.306-.028.09.054.232.026.2-.122.156.06.122-.078.12-.018.29.012.146-.21.024-.076-.034-.08.042-.04.136-.018.218.12.328.072.34.266.1-.056.18-.094.02-.108-.146-.122-.472-.114-.236-.182-.006-.056.08-.188.266-.23.006-.322-.07-.04-.06-.002-.286.158-.134.136h-.106l-.116-.24-.066-.002-.104.026-.182.156-.258.05-.244-.122.034-.248.316-.136.412.094.418.004.3-.186.228.018.276-.194.877-.096.232-.008.092-.064.072-.749.086.134.038.196.124.266.01.094-.036.154.052.066.23-.062.523-.23.182-.216.132-.042.112-.114.036-.004.018.054-.04.174.188-.038.547-.22.294-.038.126.014.004.076-.078.046.026.032.194.058.302.04.751.188.138.084.196.194.128.052.35-.134.362-.126.33-.23.152-.032.02-.018-.008-.116.12-.11.224-.058.14-.008.282.032.224.108.322.206.146.03.074.206.15.03.342.226.19.064.344.044.082.074.09.154.146.404.068.791.038.134.112.22.016.02.122-.018-.036-.214.13.01.13.06-.034.308.008.208.102.23.196.206.491.372.058.01.182-.106.174.376.118-.062.03.012-.046.12v.086l.308.242.18.276.12.128.17.098.236-.034.18.088.414.442.066.29.038.044.132.05.352-.072.248-.112.296-.206.232.038.074-.194-.148-.062.002-.478.054-.507-.096-.456-.172-.452-.07-.3-.753-.889-.352-.332-.152-.268-.072-.382-.1-.192-.286-.276-.645-.519-.613-.787-.577-.969.022-.144-.086-.34.082-.24v-.268l.022-.196.136-.681.108-.228.074-.034-.058-.102.016-.052.198-.154.126-.028.048-.116-.084-.098-.172-.13-.028-.054.012-.044.39-.116.4-.06.11-.056.44-.533.054-.012.092-.096.012-.156.206-.12.114-.14.028-.15-.096-.104.122-.132.07-.266.124-.206.292-1.059.006-.106.128-.072.41-.15.4-.3-.002-.13.032-.096.102-.136.07-.208.156-.168.384-.302.501-.156.294-.294.002-.134-.06-.142-.222.024-.108.076-.004.05-.028-.05-.028-.116.078-.12.01-.098.084-.124-.12-.058-.43-.034.304-.076.116-.156.104.118.098-.016.11.068.24-.07.118-.106.132-.306.104-.11-.068-.176-.078-.124-.148-.102-.074.146-.042.24-.02.006-.076-.07-.128-.248-.561.248-.156.016-.096-.152-.108-.294.032-.064.176.256.102.032.13-.034.278-.268.098-.018-.022-.078.162.006.138-.034.136.128v-.018l-.1-.134-.126-.937-.108-.17-.064-.044-.05-.346-.132-.256-.434.028-.052.026-.036.064h-.148l-.154-.036-.018-.104.232-.07.086-.068-.064-.072-.138-.02-.082-.106-.028-.078.08-.064.086-.02-.148-.142-.134-.03-.092-.146-.006-.022.082-.042-.02-.26-.066-.118-.178-.104-.332-.034-.266.006-.284-.11-.436-.056-.06-.044-.026-.054.024-.142.076-.064.02.058-.016.142.068.03.186-.014.296.044.134-.04.114.054.18-.008.16.074.184.02-.208-.284-.218-.08.112-.042-.004-.022-.088-.1-.124-.222-.134-.527-.124-.132.158-.126.208-.284.032-.162.038-.1.052-.01.074.026.032.038v.124l-.028.084-.098.082-.048.126.036.104.09.09.012.08-.104.202.06.046.128-.034.042.026.046.142.084.14-.08.094-.03.084.018.106.08.112.204.1.188-.05.108.01.188.174.066.13.072.034.12.006.004.124-.088.06-.028.086-.042.515.066.166.122.186.07.038.114-.046.058-.072.03-.118-.028-.529.154-.685-.08-.172.112-.276-.02-.176.03-.14-.262-.294-.346-.21-.501-.398-.098-.134-.01-.144.216.112.206.098.2-.008.188.072.234-.06.098.254.052.05.104-.202.098-.4.12-.172.028-.16-.036-.074.098-.084.02-.066-.074-.39.018-.064.056.002.036-.032-.028-.3-.024-.102-.07-.08-.17-.092-.186-.02-.04-.032-.032-.08.024-.182.042-.076.09-.3.128-.04.048-.224.218-.124.224-.2.218-.124.04-.15.136-.114.322-.052.242-.142.553-.222.356-.226.084-.066.078-.11-.014-.328.034-.054.12.022.112.152.09-.018.152-.088.224-.264.084-.014.11.108.12-.022.222-.184.13-.028.186-.218.012-.064-.158-.236-.044-.026-.056.034.106.204.002.088-.138.094-.23.028-.258-.018-.19-.172-.12-.024-.124-.184-.134-.058-.234-.008-.044-.022-.026-.102.016-.084.06-.052v-.178l.082-.086-.184-.096-.222-.192-.05-.298.208-.334.064-.388.06-.136-.048-.212.08-.194.134-.136.082-.012.136.104.046-.002.028-.102-.034-.186.044-.028.1.062.052-.02.078-.068.008-.152.048-.094.156-.012.034-.032.016-.194-.05-.128.012-.146-.052-.192.062-.11.06-.05h.044l.08.114.096.074.108-.014.08-.076.256.046.07-.062.012-.106.09-.172.096-.038.098-.102-.002-.126.22-.118.072-.06.038-.098.13-.07.036-.078.152-.08.076-.13-.022-.088"/></svg>