<svg width="64" height="64" viewBox="0 0 64 64" xmlns="http://www.w3.org/2000/svg"><title>07008ghrnetworkL</title><path d="M63.968 15.433c-.044-.199-.217-.45-.363-.592l-.044-.042-.082-.116-.173-.203c-.221-.231-.53-.331-.823-.307-.12-.11-.265-.193-.421-.239l-.696-1.222c-.14-.243-.371-.423-.644-.498l-.706-.193c-.215-.056-.582.004-.793.082-.132.048-.253.124-.351.217-.197-.034-.472.002-.646.058-.213.064-.484.309-.618.486-.108.144-.177.313-.205.49l-.13.899c-.024.161-.01.323.04.478l.078.327.012.132c-.01.118.004.327.016.417l.068.267.046.112-.05.024c-.213.1-.419.345-.534.566l-3.098 1.046c-.239.078-.441.235-.574.445l-.373.466c-.157.157-.277.468-.315.696l-.066.066c-.142.14-.275.456-.321.65-.044.183-.018.395.05.594l-.14.04h-.126l-.323.02-.229.038-.221.068-.558.219-.716.441c-.223.175-.311.506-.345.785-.02.163.018.353.086.526l-.225.237c-.201.07-.377.199-.504.369l-.225.144-.201.11-.66.51v-.022l.006-.528c0-.082-.036-.295-.054-.375-.058-.259-.215-.474-.423-.616l-.104-.251c-.04-.108-.098-.205-.173-.295l-.148-.181-.163-.157-.351-.279c-.09-.072-.209-.122-.337-.151l-.036-.068-.138-.247c-.022-.255-.136-.498-.325-.678l-.203-.195c-.088-.084-.355-.227-.466-.277l-.058-.024c-.036-.165-.106-.325-.207-.458-.092-.124-.255-.237-.421-.317l-.024-.032c-.08-.138-.235-.297-.357-.389-.247-.191-.562-.261-.867-.193l-.066.014c-.273-.169-.676-.223-.969-.181-.175.028-.339.098-.48.207l-.492.098c-.173.03-.335.104-.474.215l-.165.11-.128.09h-.028l-.002-.181c-.052-.626-.704-1.088-1.33-.955l-.215.046-.243.082-.526.303-.084-.209c-.159-.309-.48-.512-.825-.562l-.235-.052c-.12-.028-.241-.036-.363-.02l-.359.044-.207-.036c-.114-.024-.429.016-.548.036l-.177.046c-.096-.042-.201-.072-.307-.084l-.056-.008-.301-.094-.233-.112-.546-.151-.251-.018-.51.02c-.082.004-.191.036-.301.078l-.06-.008-.163-.026c-.082-.028-.189-.042-.303-.042l-.199-.151c-.183-.112-.405-.171-.61-.155-.036.002-4.84.271-12.733-.385-7.632-.638-11.856-1.605-11.896-1.615-.339-.08-.694.094-.955.337-.134.122-.229.299-.281.488l-.355-.271c-.351-.329-.985-.313-1.395-.064-.104.064-.309.287-.387.381-.064.082-.185.337-.223.431-.042.104-.078.353-.086.466-.006.092.03.343.048.433l.08.253.028.078-.056.845.008.14-.01.098-.078.199c-.038.096-.072.339-.08.441l.012.191-.082.199-.086.337-.01.09c-.056.08-.102.171-.136.265l-.153.441-.068.098c-.066.096-.118.203-.151.317l-.207.684-.112.231-.315.612-.04.096-.096.096c-.08.076-.146.165-.199.263l-.259.484c-.068.13-.11.271-.122.417l-.106.684c-.024.114-.028.229-.014.343l.05.562-.014.494-.157.363-.11.179c-.189.132-.383.5-.456.718l-.056.341c-.018.205.09.494.215.716l.187.496-.036.128c-.028.1-.04.207-.038.311l.02.795c.004.199.064.387.171.554l.393 1.316c-.026.207.02.47.092.65.046.12.116.233.203.329l.128.14.038.219.04.409c.002.219.072.433.199.612l.134.183-.032.253c-.018.146.028.397.072.538l.48 1.565.215.454.126.205.211.269c.028.148.09.291.177.415l-.004.112.012.317c.006.13.076.357.13.478.096.225.423.488.64.6l.195.078.421.173c.138.092.325.138.516.148l.036.024c.319.389.875.51 1.332.263l14.057-7.61 1.07-.56c.341-.179.562-.62.574-1.003.056-1.922.855-3.702 2.254-5.021 1.336-1.27 3.09-1.971 4.941-1.971l.201.004c1.13.034 2.207.323 3.209.863.915.494 1.724 1.192 2.328 1.947l-4.172-.12c-.365.028-.738.185-.937.508l-2.105 3.411c-.201.325-.215.732-.032 1.068l1.906 3.536c.181.335.528.548.909.56l4.08.08c-.66.596-1.762 1.539-2.392 1.874-.789.421-1.842.652-2.964.652l-.245-.004c-.847-.024-1.686-.201-2.496-.526-.604-.239-1.178-.572-1.71-.991-.335-.265-.795-.305-1.168-.1l-10.786 5.826c-.323.175-.534.502-.558.867-.024.367.142.72.437.935l.897.648c.116.084.251.146.391.177l.219.05.227.024 1.128.006c.454-.06.841-.277.997-.672l1.003-.01c.124.173.299.303.5.377l.112.078.171.161.638.462.409.219.269.71c.052.138.132.265.237.371l.399.403.157.132 1.276.736c.114.056.239.092.365.106l.6.062c.435.044.855-.181 1.056-.566l.327-.636.026-.002.718-.064.393.321c.092.108.205.199.333.263l.456.732c.068.114.159.215.263.295l.329.251.179.257c.106.155.255.277.425.359l.478.759c.05.1.112.193.191.273l.512.532c.094.096.205.175.327.229l.47.215c.138.064.289.094.441.094h.006l.423.084c.13.05.271.062.407.066l.548-.016.359.102c.098.03.199.044.299.044h.028l.464-.012c.425-.012.823-.323.981-.718.151-.375.004-.821-.277-1.134l-.08-.138-.112-.193-.034-.074.018-.239c.052-.112.084-.233.096-.359l.016-.267.074-.134.108-.233.014-.03.004-.006.036-.044.066-.03c.161-.004.325-.024.474-.09l.893-.448.219-.169.357-.289c.112-.084.271-.297.343-.419.05-.084.088-.175.114-.271l.052-.197 1.318-.411.562.09.205.024.769-.03c.197-.02.381-.094.536-.213l.08.026.126.112c.221.203.522.297.815.275l.024-.002.148.026.227.024c.187.022.369-.008.538-.084l.265-.058.122.006c.215-.01.423-.048.602-.157.347.209 1.011.11 1.365-.074.291-.148.516-.532.578-.853.052-.285-.094-.646-.297-.911l.165-.006c.221.098.472.124.716.054l.875-.335.161-.084.223-.022.195-.056.159-.066.034.01.345.088.686.144.05.052c.098.096.337.221.464.275.249.098.532.104.787.008l.658-.239c.092-.032.183-.078.263-.134l.146-.102c.11-.034.221-.088.317-.153l.064.038c.128.142.299.257.476.337l.239.157c.06.04.255.118.365.161l.046.518.07.323.078.205.11.213.13.197c.054.068.122.128.199.177l.068.155c.05.112.116.215.201.303l.795.676.231.126c.066.108.153.207.255.285l.235.243.235.275c.07.074.313.233.399.283.12.07.249.116.385.134.05.161.157.335.261.456.114.126.385.277.544.337.191.072.397.098.594.048l.339-.068.233-.074.353-.177c.421-.018.803-.283.955-.692l.07-.187c.096-.259.054-.548-.076-.801l.05-.476c.012-.11.006-.221-.016-.329l-.333-1.196c-.038-.165-.116-.315-.225-.443l-.811-.947-.207-.195-.034-.179c-.018-.102-.054-.205-.102-.297l-.098-.187c-.054-.102-.122-.195-.205-.273l-.879-.757-.829-1.208-.026-.136-.008-.026.036-.267.106-.769.042-.076c.165-.13.305-.309.391-.486l.14-.064c.126-.066.239-.159.329-.265l.333-.399.181-.161c.056-.056.104-.134.146-.221l.233-.245c.116-.14.221-.456.253-.636l.01-.157.07-.175.11-.259.175-.634.249-.138.385-.289c.175-.132.303-.363.371-.602l.114-.221.393-.173c.165-.05.313-.138.435-.259l.285-.285c.201-.199.315-.598.317-.881l-.01-.106c.072-.082.132-.179.177-.281l.054-.126c.253-.311.265-.885.124-1.252l-.171-.305-.114-.136-.024-.052-.096-.712c-.018-.126-.128-.363-.211-.512l-.006-.038c-.016-.118-.052-.231-.106-.335l-.006-.014.016-.062c.028-.104.038-.215.032-.323l-.018-.363.116-.52c.02-.088.016-.205 0-.323.048-.142.06-.275.042-.429.038-.185.028-.371-.028-.546l.012-.022.088-.237.05-.199c.076-.108.151-.339.187-.498l.066-.171c.044-.151.056-.309.034-.468.04-.13.054-.269.04-.411l-.026-.289-.044-.235c-.02-.092-.072-.203-.134-.305l.096-.054c.082-.048.161-.12.233-.205l.267-.11.799-.373.345-.219.165-.122.193-.207.231-.114.084-.054.106-.014c.177-.034.343-.112.482-.225l.036-.03c.169-.062.319-.169.437-.305l.181-.211c.122-.144.217-.379.249-.568.048-.269-.008-.546-.159-.773l-.151-.229c-.09-.134-.253-.275-.391-.357-.245-.144-.558-.165-.841-.092l-.14-.207.004-.022.04-.237c.136-.096.257-.223.347-.363l.054-.044c.068-.06.128-.142.181-.235l.102-.084c.092-.092.173-.249.231-.415.185-.056.359-.155.49-.269.102-.09.187-.225.251-.369l.098-.094.108-.146.09-.072.128-.14.086-.082c.163-.112.347-.339.435-.494.138-.233.161-.596.1-.861zm-3.446.604c-.104.084-.253.297-.319.417-.084.148-.11.385-.1.606l-.181.177c-.14.088-.277.197-.361.285-.096.098-.173.213-.225.339l-.076.185c-.07.171-.094.355-.072.536l-.006.036-.116.309c-.136.219-.189.482-.146.736l.048.289c.032.189.112.365.235.512.006.122.026.253.05.345l.092.225-.078.233-.52.219-.177.056c-.187.03-.496.219-.64.341-.06.048-.118.12-.171.205l-.11.086-.249.187c-.189.108-.337.271-.429.464-.104.114-.183.251-.229.403l-.04.157c-.064.116-.13.423-.148.556-.024.189.034.458.108.63.036.086.094.177.163.259-.231-.056-.476-.004-.696.1-.126-.014-.245-.002-.349.02-.355.07-.688.413-.823.749l-.022.07-.036.044c-.235.185-.319.524-.339.823v.102c-.1.042-.193.098-.275.169-.195.163-.349.526-.391.779-.036.217.02.492.116.69.074.155.243.333.381.435.146.108.319.181.5.203l.454.098.205.056.098.175c-.02.13-.022.263-.002.393.05.313.319.6.624.767-.146.106-.269.247-.351.407-.136.263-.157.576-.052.855l.104.285.092.181c-.036.122-.048.255-.038.387.014.163.064.315.142.448l-.347.323c-.106.112-.185.245-.235.389l-.006.03-.12.219-.209.076-.277.14c-.269.151-.46.478-.526.795l-.233.841-.046.08c-.05.082-.088.173-.112.267l-.004.016c-.092.124-.146.275-.167.431l-.136.213-.066.072-.211.253-.576.148c-.351.104-.636.427-.732.783-.034.124-.038.263-.022.399l-.06.148-.034.161-.038.074-.082.251-.146.753-.026.301-.024.153c-.068.197-.076.409-.022.61l.03.124c-.016.217.034.433.146.622l.632 1.046.592.761.175.177.552.439.136.251c.022.114.06.223.118.323l.144.261c.054.094.12.181.201.255l.829.909.181.534-.301-.171-.257-.086-.132-.161c-.074-.223-.219-.419-.411-.558-.134-.217-.341-.379-.586-.456l-.233-.044v-.01c.042-.383-.215-.797-.546-1.031l-.012-.148-.06-.269-.138-.389-.173-.329c-.058-.1-.213-.261-.301-.337-.159-.136-.355-.225-.562-.251l-.381-.144c-.13-.142-.307-.263-.488-.341l-.544-.305c-.106-.05-.221-.084-.337-.098l-.273-.03-.319.002-.207.034-.217.058c-.169.042-.439.233-.568.349l-.092.102-.195.124-.054-.036c-.092-.054-.191-.096-.295-.122l-.769-.187c-.193-.155-.429-.257-.666-.281l-.243.004-.285.038-.261.068-.002.002c-.122-.038-.249-.058-.383-.046-.151.008-.331.084-.494.185-.255-.339-.684-.494-1.102-.393-.407.1-.714.425-.795.829l-.301.032c-.169.018-.329.078-.47.169-.167.016-.325.07-.468.159l-.02.012-.269-.062c-.223-.05-.456-.032-.666.06l-.305.134c-.345.148-.584.468-.632.841l-.032.241-.008.11-.225-.088-.435-.118c-.13-.036-.269-.048-.403-.03l-.247.03c-.223.026-.476.177-.654.343l-.765-.108c-.132-.022-.263-.008-.391.026l-1.118.243-.279.084c-.165-.078-.337-.096-.532-.114-.165.006-.401.09-.548.169-.108.06-.273.211-.355.303-.199.223-.295.518-.267.813l.036.389-.06.012c-.197-.048-.405-.038-.592.022-.12.006-.241.032-.353.078-.379.054-.734.323-.895.676l-.06.199-.026.03-.022.032-.199.126c-.171.108-.303.293-.387.498-.165.132-.289.313-.355.518-.044.14-.056.287-.044.429-.102.138-.177.297-.213.46-.052.237-.004.48.11.692-.108-.034-.219-.052-.331-.052h-.161l-.327-.297-.433-.883c-.106-.219-.287-.395-.506-.498l-.219-.102-.11-.157c-.062-.092-.138-.173-.227-.239l-.301-.231-.492-.813c-.104-.171-.253-.307-.429-.397l-.14-.102-.205-.185-.602-.452c-.219-.189-.508-.281-.789-.253l-1.023.09-.165-.026c-.177-.028-.365-.01-.536.054l-.283.106c-.165.06-.385.249-.5.379l-.148.213-.171.325-.5-.321-.496-1.041c-.092-.241-.269-.443-.496-.566l-.628-.321-.407-.303-.157-.181c-.118-.14-.273-.247-.445-.309-.11-.153-.353-.315-.522-.397l-.269-.126c-.146-.068-.331-.163-.468-.102l-.347.004 6.52-3.522c.532.355 1.09.65 1.668.879 1.041.415 2.125.642 3.223.676l.307.004c1.487 0 2.86-.313 3.967-.905 1.164-.618 3.014-2.348 3.335-2.665.656-.849.512-2.081-.359-2.777-.325-.241-.724-.377-1.124-.391l-3.867-.114-1.322-2.45 1.463-2.37 3.903.114c1.076 0 1.943-.841 1.971-1.9.016-.411-.1-.817-.351-1.194-.837-1.194-1.951-2.187-3.225-2.874-1.276-.688-2.713-1.074-4.16-1.116l-.261-.004c-2.398 0-4.674.907-6.405 2.553-1.662 1.565-2.673 3.64-2.886 5.964l-14.011 7.571c-.108-.068-.361-.159-.474-.189l-.134-.022-.048-.028-.012-.219c-.018-.138-.165-.439-.235-.56l-.07-.106c-.074-.199-.207-.393-.355-.542l-.195-.247-.415-1.248c.054-.102.092-.213.112-.327l.044-.249c.034-.199.012-.401-.064-.586l-.092-.227-.07-.14c.044-.112.07-.233.076-.351v-.008c.167-.171.277-.397.303-.646.042-.421-.171-.829-.542-1.035l-.273-.153c-.084-.048-.177-.084-.273-.106l-.247-.06-.283-1.078-.146-.299-.008-.325c.092-.195.134-.472.126-.666-.006-.114-.028-.223-.068-.329l-.223-.596c.116-.124.203-.271.251-.433l.261-.694c.058-.128.09-.267.094-.409l.02-.744-.004-.203-.008-.215-.034-.261.086-.45.042-.151c.293-.183.51-.556.57-.895l.161-.271.092-.197.076-.177c.056-.088.1-.185.128-.285l.181-.628.048-.072c.056-.078.1-.167.132-.259l.132-.383c.084-.096.151-.211.193-.335.299-.026.592-.175.789-.411.291-.349.299-.863.074-1.252.283-.004.572-.144.787-.351.114 0 .229-.016.337-.054.275-.092.502-.291.626-.554l.245-.638.044-.263c1.874.345 5.494.923 10.726 1.361 6.512.546 10.955.464 12.452.411.207.189.522.293.819.307l.337.008.056-.01.102.014c.104.044.211.078.319.092.108.014.221.016.325-.004l.203-.032.269-.1.114-.004c.092.066.193.118.301.151l.289.074.265.092-.201.201-.211.259c-.331.433-.181 1.144.213 1.521.199.187.622.289.905.289l.335-.052.251-.082.151-.064c.132.044.275.062.415.062.092-.014.223-.02.331-.062l.606-.082c.167-.036.321-.112.452-.223l.249-.207.281-.096.136-.058c.096.05.203.084.313.102.259.046.51-.012.724-.138l.04.022.205.108-.257.628c-.104.126-.205.337-.249.482l-.09.297c-.054.181-.04.456.002.64.072.297.267.548.53.69l.014.122.002.01-.042.173-.03.211-.01.247c-.004.106.008.213.034.315l.08.297.076.207.207.686c.032.148.094.287.185.409l.361.51c.046.078.197.239.259.301.148.14.441.261.642.301l.237.032c.086.01.363-.014.45-.024.199-.024.385-.106.54-.231l.522-.429c.189-.157.315-.462.365-.738l.245-.969c.022-.128.022-.259 0-.387l-.114-.616c-.03-.153-.197-.441-.287-.57l-.167-.183-.054-.048.004-.169c.032-.106.048-.217.048-.331.157-.072.299-.181.407-.305l.146-.203c.092-.132.153-.283.177-.443l.14-.155h.008l.144.048.09.13c-.106.136-.229.445-.271.596-.022.082-.04.337-.044.423-.008.317.199.688.435.897.171.148.534.253.759.275.155.01.357-.038.536-.11l-.054.277-.042.171-.04.227-.014.126-.146.307c-.128.315-.098.676.08.965.181.291.488.48.829.504l.187.022c.116.05.355.084.482.09l.102-.004.277.012.421-.038c.148-.012.289-.056.419-.126l.445-.177c.177-.04.339-.124.476-.245l.532-.486.46-.269c.092-.038.179-.088.255-.148l.241-.193.118-.108c.12-.052.231-.126.325-.221l.61-.662.142-.132c.072-.076.148-.213.209-.341l.126-.181c.11-.161.175-.345.189-.532.271.054.55.006.783-.142l.004-.002.03-.008.407-.128c.082-.028.331-.169.405-.217.106-.064.201-.148.277-.247l.199-.175c.389-.189.618-.718.59-1.15-.008-.12-.076-.299-.153-.454l-.012-.102.044-.136.052-.207.004-.02.024-.026.151-.187 3.381-1.17c.329-.108.576-.367.678-.682.118-.054.227-.13.323-.225.112-.07.215-.165.297-.269.185-.239.257-.564.205-.859l.028-.151c.022-.179-.002-.361-.068-.528l-.163-.397-.02-.307v-.146l-.032-.257c.138-.028.269-.08.385-.159l.612 1.078c.084.151.203.277.343.367-.114.05-.223.116-.309.189z"/></svg>