<svg width="64" height="64" viewBox="0 0 64 64" xmlns="http://www.w3.org/2000/svg"><title>02046gokartF</title><path d="M46.65 40.934c-1.93 0-3.494-1.566-3.494-3.496s1.564-3.494 3.494-3.494c1.93 0 3.496 1.564 3.496 3.494 0 1.93-1.566 3.496-3.496 3.496zm-38 0c-1.93 0-3.494-1.566-3.494-3.496s1.564-3.494 3.494-3.494c1.93 0 3.496 1.564 3.496 3.494 0 1.93-1.566 3.496-3.496 3.496zm53.296-5.858c-2.216-1.71-14.81-7.818-14.934-7.878-1.728-.826-3.31-.598-4.838.702-.686.582-1.43 1.18-2.038 1.662l-3.82-4.074 2.072-2.01c.402-.39.412-1.034.02-1.436-.39-.402-1.032-.412-1.436-.022l-5.576 5.41c-.404.39-.414 1.034-.022 1.436.198.206.464.31.728.31.256 0 .51-.096.708-.288l2.046-1.986 3.564 3.8c-.324.092-.69.118-1.128.068-.792-.088-10.344-1.078-19.226-1.994-.862-1.04-1.964-2.378-2.57-3.124-1.652-2.038-1.894-2.808-3.264-2.808h-1.11c-.476 0-.798.484-.612.922.27.632.666 1.546 1.134 2.604l.806 1.826c-5.266-.54-9.392-.962-9.826-.998-1.066-.088-2.018.448-2.428 1.366-.41.916-.162 1.996.632 2.748.424.402 1.744 1.716 3.148 3.126-.558.866-.886 1.894-.886 3 0 3.068 2.494 5.562 5.56 5.562 1.532 0 2.92-.622 3.928-1.628h30.146c1.006 1.006 2.394 1.628 3.926 1.628 1.658 0 3.142-.732 4.162-1.886 2.808-.32 7.506-.856 9.352-1.082 1.89-.232 2.998-.894 3.292-1.968.188-.686.08-1.762-1.51-2.988z"/></svg>