<svg width="64" height="64" viewBox="0 0 64 64" xmlns="http://www.w3.org/2000/svg"><title>02046gokartC</title><path d="M38.656 41.907c2.313 0 4.188 1.875 4.188 4.188 0 2.313-1.875 4.188-4.188 4.188-2.313 0-4.188-1.875-4.188-4.188 0-2.313 1.875-4.188 4.188-4.188zm-34.844 0c-.749 0-1.449.198-2.057.542.922 2.671 2.18 5.184 3.738 7.482 1.474-.649 2.507-2.121 2.507-3.836 0-2.313-1.875-4.188-4.188-4.188zm28.188-41.907c-17.673 0-32 14.327-32 32 0 .713.032 1.417.077 2.116 1.958.201 4.565.467 7.484.768l-.909-2.061c-.529-1.19-.975-2.223-1.278-2.935-.211-.495.151-1.039.689-1.039h1.25c1.547 0 1.818.866 3.682 3.166.683.843 1.926 2.351 2.897 3.524 10.3 1.762 14.161 2.229 14.315 2.246.495.055.907.026 1.271-.077l-4.017-4.284-2.308 2.24c-.222.215-.51.322-.798.322-.299 0-.597-.115-.821-.348-.442-.454-.431-1.18.023-1.619l6.289-6.101c.454-.439 1.18-.429 1.621.026.439.454.429 1.18-.026 1.619l-2.336 2.266 4.307 4.593c.689-.544 1.527-1.218 2.3-1.873 1.722-1.466 3.507-1.724 5.455-.789.141.066 11.964 7.198 14.464 9.126 1.792 1.382 1.914 2.594 1.702 3.369-.333 1.212-1.581 1.958-3.712 2.219-.86.105-3.765.533-6.959.919-1.169 2.118-3.422 3.556-6.007 3.556-2.438 0-4.578-1.284-5.794-3.209h-23.255c-.621.981-1.483 1.794-2.502 2.357 5.867 7.258 14.837 11.902 24.896 11.902 17.673 0 32-14.327 32-32 0-17.673-14.327-32-32-32z"/></svg>