<svg width="64" height="64" viewBox="0 0 64 64" xmlns="http://www.w3.org/2000/svg"><title>02046gokartL</title><path d="M60.36 37.368c-1.564.191-5.172.607-7.959.925.127-.469.201-.961.201-1.471 0-3.089-2.515-5.602-5.604-5.602s-5.602 2.513-5.602 5.602c0 .661.121 1.294.33 1.882h-27.742c.212-.588.332-1.221.332-1.882 0-3.089-2.513-5.602-5.604-5.602-1.223 0-2.354.399-3.276 1.066-1.41-1.413-2.73-2.73-3.174-3.147-.073-.071-.238-.25-.167-.407.048-.111.185-.167.373-.151 1.259.105 33.384 3.427 34.869 3.593 1.324.147 2.412-.123 3.325-.824.681-.524 1.999-1.554 3.174-2.551.917-.78 1.63-.891 2.628-.415 2.513 1.205 12.956 6.383 14.673 7.707.552.425.715.705.762.814-.109.093-.488.334-1.539.463zm-13.361 2.976c-1.944 0-3.52-1.578-3.52-3.522 0-1.944 1.576-3.52 3.52-3.52s3.522 1.576 3.522 3.52-1.578 3.522-3.522 3.522zm-38.285 0c-1.944 0-3.52-1.578-3.52-3.522 0-1.944 1.576-3.52 3.52-3.52s3.522 1.576 3.522 3.52-1.578 3.522-3.522 3.522zm53.695-5.902c-2.233-1.723-14.921-7.877-15.046-7.937-1.741-.832-3.335-.602-4.874.707-.689.584-1.439 1.187-2.053 1.674l-3.849-4.105 2.088-2.025c.405-.393.415-1.042.02-1.447-.393-.405-1.04-.415-1.447-.022l-5.618 5.451c-.407.393-.417 1.042-.022 1.447.199.208.467.312.733.312.258 0 .514-.097.713-.29l2.061-2.001 3.591 3.828c-.326.093-.695.119-1.136.069-.798-.089-10.422-1.086-19.37-2.009-.868-1.048-1.979-2.396-2.589-3.147-1.664-2.053-1.908-2.829-3.288-2.829h-1.118c-.48 0-.804.488-.617.929.272.637.671 1.558 1.142 2.624l.812 1.84c-5.305-.544-9.462-.969-9.9-1.005-1.074-.093-2.033.451-2.446 1.376-.413.923-.165 2.009.637 2.769.427.405 1.755 1.729 3.172 3.149-.562.872-.893 1.908-.893 3.022 0 3.091 2.513 5.604 5.602 5.604 1.543 0 2.942-.627 3.957-1.64h30.372c1.014 1.014 2.412 1.64 3.955 1.64 1.67 0 3.166-.737 4.193-1.9 2.829-.322 7.562-.862 9.422-1.09 1.904-.234 3.02-.901 3.317-1.983.189-.691.081-1.775-1.521-3.01z"/></svg>