<svg width="64" height="64" viewBox="0 0 64 64" xmlns="http://www.w3.org/2000/svg"><title>01021golfcartF</title><path d="M50.719 51.76c-2.359 0-4.273-1.911-4.273-4.271 0-2.359 1.914-4.271 4.273-4.271s4.271 1.911 4.271 4.271c0 2.359-1.911 4.271-4.271 4.271zm-5.042-19.595l-3.315 9.412c-.316.901-1.392 1.663-2.35 1.663h-12.297c-.887 0-1.609-.72-1.609-1.609v-4.431c0-1.472-1.199-2.671-2.671-2.671h-10.695v-21.778h33.195l6.392 17.04h-3.296c-.222 0-.441.042-.661.097l-6.234-6.262 2.378-2.381c.538-.536.538-1.406 0-1.947-.538-.536-1.406-.538-1.947.002l-6.698 6.701c-.538.536-.538 1.406.002 1.944.267.269.618.403.972.403.352 0 .703-.134.972-.403l2.374-2.374 5.877 5.901c-.151.222-.302.446-.389.691zm-30.376 19.595c-2.357 0-4.271-1.911-4.271-4.271 0-2.359 1.914-4.271 4.271-4.271 2.359 0 4.273 1.911 4.273 4.271 0 2.359-1.914 4.271-4.273 4.271zm47.335-13.734l-4.582-6.286c-.59-.807-1.656-1.449-2.72-1.746l-6.46-17.243h1.258c.76 0 1.376-.616 1.376-1.376 0-.76-.616-1.376-1.376-1.376h-44.433c-.76 0-1.376.616-1.376 1.376 0 .76.616 1.376 1.376 1.376h4.289v21.778h-7.772c-.727 0-1.373.297-1.779.814-.403.517-.536 1.217-.361 1.923l.783 3.148c.307 1.234 1.208 2.949 2.05 3.905l2.732 3.091c1.074 1.484 1.977 1.6 2.23 1.6h.045l.529-.028c.682 3.157 3.492 5.535 6.852 5.535 3.4 0 6.236-2.43 6.875-5.644h21.216l.453-.005c.637 3.216 3.475 5.649 6.875 5.649 3.624 0 6.581-2.775 6.942-6.304l.017-.002 3.742-.498c1.425-.189 2.584-1.512 2.584-2.949v-2.553c0-1.298-.599-3.136-1.364-4.183z"/></svg>