<svg width="64" height="64" viewBox="0 0 64 64" xmlns="http://www.w3.org/2000/svg"><title>01021golfcartL</title><path d="M61.528 44.023c0 .439-.398.892-.835.95l-3.987.532-.453.052c-.542-2.928-3.106-5.156-6.189-5.156-3.271 0-5.939 2.515-6.244 5.709l-.506.002h-21.822c-.301-3.195-2.968-5.712-6.244-5.712-3.307 0-5.998 2.57-6.253 5.814l-.363.019c-.098-.029-.48-.181-1.019-.916l-2.813-3.185c-.57-.647-1.255-1.952-1.463-2.789l-.847-3.4c-.033-.136-.014-.224.012-.258.029-.036.107-.074.248-.074h21.065c.372 0 .687.315.687.687v4.662c0 1.744 1.42 3.161 3.161 3.161h12.349c1.596 0 3.2-1.133 3.732-2.639l3.347-9.51c.177-.501.866-.99 1.396-.99h5.409c.666 0 1.668.508 2.059 1.047l4.674 6.411c.47.642.897 1.954.897 2.749v2.832zm-11.467 6.535c-2.121 0-3.841-1.72-3.841-3.841 0-2.121 1.72-3.839 3.841-3.839 2.119 0 3.839 1.718 3.839 3.839s-1.72 3.841-3.839 3.841zm-34.784 0c-2.119 0-3.839-1.72-3.839-3.841 0-2.121 1.72-3.839 3.839-3.839 2.121 0 3.841 1.718 3.841 3.839s-1.72 3.841-3.841 3.841zm-2.183-38.084h32.615l6.015 16.036h-3.235c-.401 0-.806.079-1.195.215l-5.523-5.523 2.398-2.398c.484-.482.484-1.267 0-1.749-.482-.484-1.267-.484-1.749 0l-6.545 6.547c-.482.482-.482 1.265.002 1.749.241.241.556.363.873.363.317 0 .635-.122.876-.363l2.395-2.398 5.256 5.256c-.22.293-.401.608-.518.942l-3.35 9.51c-.174.499-.866.99-1.396.99h-12.349c-.372 0-.687-.317-.687-.69v-4.662c0-1.744-1.417-3.161-3.161-3.161h-10.722v-20.664zm49.536 24.51l-4.676-6.411c-.763-1.047-2.224-1.828-3.562-1.995l-6.041-16.105h1.381c.682 0 1.236-.554 1.236-1.238 0-.682-.554-1.236-1.236-1.236h-43.412c-.682 0-1.236.554-1.236 1.236 0 .685.554 1.238 1.236 1.238h4.299v20.664h-7.869c-.888 0-1.687.372-2.197 1.024-.508.649-.678 1.517-.463 2.379l.845 3.4c.303 1.212 1.186 2.894 2.011 3.829l2.737 3.092c1.243 1.715 2.551 1.849 2.92 1.849l.098-.002.592-.033c.833 2.508 3.173 4.333 5.955 4.333 2.815 0 5.18-1.868 5.986-4.421h22.079l.766-.005c.804 2.555 3.166 4.426 5.984 4.426 3.013 0 5.531-2.128 6.151-4.956l.816-.095 3.989-.532c1.673-.222 2.98-1.715 2.98-3.402v-2.832c0-1.327-.587-3.135-1.37-4.206z"/></svg>