<svg width="64" height="64" viewBox="0 0 64 64" xmlns="http://www.w3.org/2000/svg"><title>01021golfcartC</title><path d="M15.152 35.989v4.351c0 .871.71 1.579 1.581 1.579h12.074c.942 0 1.998-.748 2.31-1.632l3.254-9.243c.085-.242.234-.459.38-.678l-5.77-5.794-2.329 2.329c-.266.266-.61.397-.956.397s-.691-.132-.954-.395c-.529-.529-.529-1.384-.002-1.913l6.578-6.578c.529-.529 1.384-.529 1.911 0 .529.527.529 1.384 0 1.911l-2.336 2.336 6.03 6.055h3.977l-6.274-16.733h-27.571c-4.404 5.484-7.054 12.438-7.054 20.019 0 .461.049.91.07 1.367h12.459c1.447 0 2.623 1.175 2.623 2.623zm19.977 10.106c0 2.312 1.875 4.187 4.187 4.187 2.315 0 4.189-1.875 4.189-4.187 0-2.312-1.875-4.187-4.189-4.187-2.312 0-4.187 1.875-4.187 4.187zm-3.129-46.096c-8.789 0-16.744 3.545-22.527 9.279h29.271c.746 0 1.352.606 1.352 1.352 0 .746-.606 1.35-1.352 1.35h-1.233l6.361 16.927c1.039.293 2.077.931 2.652 1.719l4.499 6.172c.75 1.029 1.337 2.833 1.337 4.106v2.508c0 1.411-1.137 2.71-2.536 2.897l-3.675.489-.015.002c-.355 3.467-3.258 6.189-6.816 6.189-3.339 0-6.125-2.387-6.752-5.545l-.442.004h-28.145c5.452 9.864 15.951 16.55 28.019 16.55 17.673 0 32-14.327 32-32 0-17.675-14.327-32-32-32z"/></svg>