<svg width="64" height="64" viewBox="0 0 64 64" xmlns="http://www.w3.org/2000/svg"><title>07004goodrideL</title><path d="M52.936 57.543c1.886-.863 3.58-2.096 5.036-3.662 1.454-1.564 2.594-3.384 3.391-5.409.827-2.096 1.244-4.322 1.244-6.616 0-3.45-.96-6.777-2.777-9.625-1.639-2.574-2.506-5.59-2.506-8.716 0-1.013.09-2.023.269-3 .203-1.114.527-2.21.962-3.258.788-1.91 1.91-3.602 3.338-5.034l.055-.055-10.906-12.093-.062.053c-1.299 1.079-2.74 1.919-4.282 2.497-3.21 1.2-6.805 1.193-10.022-.024-1.56-.591-3.013-1.449-4.319-2.555l-.053-.046-.053.046c-1.306 1.105-2.76 1.963-4.322 2.555-3.212 1.218-6.808 1.224-10.02.024-1.542-.578-2.982-1.418-4.282-2.497l-.062-.053-10.906 12.093.057.055c1.425 1.432 2.548 3.124 3.335 5.034.435 1.048.759 2.144.962 3.258.179.975.271 1.983.271 3 0 3.126-.869 6.141-2.508 8.716-1.816 2.848-2.777 6.175-2.777 9.625 0 2.294.417 4.518 1.242 6.611.799 2.03 1.939 3.849 3.391 5.409 1.452 1.566 3.146 2.799 5.032 3.664 1.959.898 4.035 1.357 6.172 1.37 5.217 0 10.203 1.745 14.416 5.047l.051.042.051-.04c4.211-3.302 9.195-5.047 14.409-5.049 2.142-.013 4.218-.472 6.172-1.368zm-20.633 3.404c-4.319-2.974-9.316-4.542-14.465-4.542-1.82-.015-3.583-.408-5.241-1.169-1.604-.737-3.044-1.787-4.28-3.119-1.24-1.335-2.21-2.888-2.89-4.615-.704-1.787-1.061-3.688-1.061-5.647 0-2.947.821-5.789 2.374-8.219 1.904-2.991 2.912-6.49 2.912-10.119 0-.999-.077-1.988-.227-2.96h45.757c-.15.973-.227 1.961-.227 2.96 0 3.629 1.008 7.128 2.914 10.119 1.551 2.431 2.371 5.272 2.371 8.219 0 1.961-.357 3.863-1.061 5.652-.682 1.729-1.654 3.283-2.894 4.617-1.24 1.332-2.68 2.382-4.288 3.117-1.659.761-3.426 1.154-5.244 1.165-5.144.004-10.134 1.573-14.449 4.542zm22.188-18.453c0-3.697-3.013-6.695-6.73-6.695-1.026 0-1.994.236-2.863.644l-1.692-2.764c.168.075.344.126.538.126.17 0 .333-.035.481-.093v-2.504c-.148-.057-.311-.093-.481-.093-.715 0-1.288.565-1.328 1.271l-2.411-3.938c-.055-.216-.207-.878-.315-2.03-.044-.463-.285-.838-.677-1.063-.351-.199-.827-.254-1.366-.218-1.61.101-3.803 1.052-4.855 1.553-.373.176-.532.622-.355.995.135.28.421.439.715.424.104-.002.207-.022.304-.071 1.727-.818 3.62-1.414 4.454-1.438.113-.002.207.007.274.029.101 1.037.236 1.707.318 2.056.126.362.567.938.666 1.211.349.968 1.266 3.534-.984 4.485-1.613.686-5.286 1.171-7.088 1.171l-.335-.007c-1.257-.055-2.078-.435-2.438-1.132-.137-.265-.115-.567-.17-.752-.119-.395-.518-.631-.924-.51-4.599 1.326-7.701-.968-7.844-1.077-.324-.251-.792-.194-1.046.132-.251.326-.194.794.132 1.046l.035.026c-2.766-.119-5.846.869-8.131 3.457-.315.355-.282.902.075 1.218.165.146.368.218.574.218.236 0 .476-.099.646-.293 1.932-2.186 4.463-2.923 6.658-2.855-.232.201-.379.512-.379.909l.029.245h-.026c-3.64 0-6.589 2.936-6.589 6.556s2.949 6.554 6.591 6.554c3.496-.002 6.349-2.713 6.565-6.139.291.018.587.031.867.029l9.303-.024c.88-.002 2.032-.582 2.555-1.291l5.049-6.803 1.324 2.168c-1.571 1.227-2.583 3.126-2.583 5.268 0 3.695 3.011 6.693 6.73 6.693 3.719 0 6.73-2.998 6.73-6.695zm-36.54 5.301c-2.813 0-5.1-2.27-5.1-5.061s2.288-5.063 5.098-5.063 5.096 2.27 5.098 5.063c0 2.791-2.288 5.061-5.096 5.061zm29.809-.099c-2.888 0-5.239-2.332-5.239-5.2 0-1.604.75-3.024 1.904-3.977l2.689 4.405c.139.229.384.357.638.357.132 0 .267-.035.388-.11.351-.214.461-.675.247-1.026l-2.705-4.421c.638-.276 1.339-.43 2.078-.43 2.888 0 5.239 2.332 5.239 5.2 0 2.868-2.349 5.202-5.239 5.202zm-16.944-13.501c1.491.071 5.297-.401 6.839-1.057.794-.335.856-1.065.24-2.786-.351-.975-1.257-1.582-1.932-1.315-1.068.421-2.285 1.046-3.049 1.482-1.743.995-2.656 1.76-3.137 2.318-.289.34-.351.772-.256.953.088.172.474.368 1.295.404z"/></svg>