<svg width="64" height="64" viewBox="0 0 64 64" xmlns="http://www.w3.org/2000/svg"><title>07004goodrideC</title><path d="M32 0c-17.673 0-32 14.327-32 32 0 17.673 14.327 32 32 32 17.673 0 32-14.327 32-32 0-17.673-14.327-32-32-32zm19.521 43.966c-.541 1.375-1.318 2.613-2.307 3.677-.989 1.065-2.142 1.903-3.426 2.49-1.331.61-2.746.923-4.203.934-3.468 0-6.78 1.162-9.581 3.356l-.125.097-.127-.097c-2.801-2.197-6.115-3.356-9.585-3.356-1.46-.011-2.873-.325-4.203-.934-1.282-.589-2.435-1.428-3.424-2.492-.989-1.065-1.764-2.302-2.304-3.677-.56-1.424-.845-2.936-.845-4.493 0-2.345.653-4.605 1.888-6.539 1.086-1.705 1.658-3.701 1.658-5.771 0-.674-.059-1.337-.177-1.988-.135-.739-.349-1.46-.636-2.157-.522-1.263-1.265-2.383-2.209-3.331l-.137-.135 7.511-8.326.15.125c.858.714 1.81 1.269 2.83 1.652 1.056.395 2.163.596 3.291.596 1.143 0 2.264-.207 3.331-.61 1.033-.391 1.994-.959 2.856-1.69l.133-.112.131.112c.862.731 1.823 1.299 2.856 1.69 1.069.403 2.188.61 3.331.61 1.128 0 2.235-.201 3.291-.596 1.02-.382 1.973-.938 2.83-1.652l.15-.125 7.511 8.326-.137.135c-.944.948-1.686 2.068-2.207 3.331-.289.697-.501 1.417-.636 2.157-.12.651-.18 1.314-.18 1.988 0 2.07.572 4.066 1.658 5.771 1.236 1.935 1.888 4.195 1.888 6.539 0 1.559-.285 3.069-.845 4.495zm-4.44-16.805c0-.67.053-1.333.152-1.988h-30.709c.101.655.152 1.318.152 1.988 0 2.435-.676 4.784-1.956 6.791-1.041 1.633-1.59 3.54-1.59 5.519 0 1.314.239 2.59.71 3.789.456 1.16 1.109 2.201 1.941 3.097.828.896 1.795 1.599 2.873 2.095 1.113.509 2.296.775 3.517.784 3.456 0 6.81 1.052 9.71 3.048 2.894-1.992 6.244-3.046 9.697-3.048 1.221-.006 2.406-.27 3.519-.782 1.079-.494 2.047-1.198 2.879-2.093.832-.896 1.485-1.937 1.941-3.097.473-1.202.714-2.478.714-3.794 0-1.979-.551-3.886-1.593-5.519-1.28-2.007-1.956-4.355-1.956-6.791zm-16.925 6.271c.325-.376.94-.891 2.114-1.563.513-.294 1.335-.714 2.053-.997.456-.182 1.067.228 1.303.885.414 1.16.374 1.652-.163 1.878-1.037.439-3.601.758-4.607.712-.551-.023-.813-.156-.872-.272-.065-.123-.023-.412.171-.642zm12.118 11.015c-2.507 0-4.535-2.019-4.535-4.51 0-1.441.68-2.723 1.74-3.549l-.891-1.46-3.403 4.583c-.353.477-1.128.866-1.721.868l-6.267.017-.585-.021c-.146 2.309-2.066 4.136-4.423 4.136-2.452 0-4.44-1.975-4.44-4.415 0-2.437 1.988-4.417 4.44-4.417h.017l-.019-.165c0-.266.099-.477.256-.613-1.479-.046-3.183.45-4.486 1.924-.114.129-.275.196-.435.196-.137 0-.275-.049-.384-.146-.241-.213-.264-.581-.051-.822 1.538-1.743 3.614-2.408 5.477-2.328l-.023-.017c-.22-.171-.26-.486-.089-.705.169-.22.486-.26.703-.091.097.074 2.186 1.62 5.285.724.275-.078.543.08.623.344.038.127.023.33.114.507.243.471.796.727 1.641.763l.226.006c1.217 0 3.69-.33 4.776-.79 1.517-.642.898-2.37.663-3.02-.065-.186-.363-.572-.448-.817-.055-.234-.146-.689-.215-1.386l-.182-.019c-.564.017-1.838.418-3.001.97l-.207.046c-.196.011-.391-.095-.479-.285-.12-.251-.013-.551.237-.67.71-.338 2.186-.978 3.274-1.046.361-.025.682.013.919.146.264.152.427.406.456.716.074.777.175 1.223.213 1.369l1.624 2.653c.027-.475.412-.858.893-.858.114 0 .224.025.325.063v1.686c-.101.04-.209.063-.325.063-.131 0-.249-.034-.361-.084l1.138 1.863c.587-.275 1.238-.435 1.928-.435 2.505 0 4.537 2.019 4.537 4.512 0 2.49-2.03 4.51-4.535 4.51zm0-8.014c-.498 0-.972.106-1.4.291l1.821 2.978c.146.234.072.545-.167.691-.08.051-.171.074-.262.074-.169 0-.334-.087-.429-.241l-1.81-2.968c-.777.642-1.282 1.599-1.282 2.678 0 1.933 1.582 3.504 3.53 3.504 1.945 0 3.53-1.574 3.53-3.504 0-1.933-1.584-3.504-3.53-3.504zm-20.085.253c-1.895 0-3.434 1.531-3.434 3.411 0 1.88 1.54 3.411 3.434 3.411 1.893 0 3.434-1.531 3.434-3.411-.002-1.882-1.542-3.411-3.434-3.411z"/></svg>