<svg width="64" height="64" viewBox="0 0 64 64" xmlns="http://www.w3.org/2000/svg"><title>02021greenimprovC</title><path d="M51.516 47.657c0 .388-.285.657-.657.657l-.134-.01c-1.67-.279-3.34-.384-5.009-.384l-15.858 1.057c-1.67 0-3.338-.105-5.009-.382-.434-.074-.791-.502-.791-.937v-11.51c0-.388.287-.657.657-.657l.134.012c1.67.277 3.34.384 5.011.384l15.855-1.059c1.67 0 3.338.105 5.009.384.434.072.791.502.791.935v11.51zm-28.969-12.267v10.265l-.118.091c-.405.035-.811.054-1.218.054h-.002c-3.619 0-6.063-1.385-6.167-1.443l-.167-.091c-.239.813-.392 1.943-.434 2.709-.019.367-.244.694-.58.842-.128.058-.264.087-.398.087-.223 0-.44-.076-.617-.221l-1.986-1.6c-.215-.173-.347-.431-.363-.706-.014-.279.085-.547.279-.745.568-.58.979-2.129 1.105-2.969l.023-.058c-.196-.279-.388-.551-.584-.863-1.27-2.023-3-6.322-.332-12.358 3.02-6.829 10.762-9.695 15.108-10.793 8.623-2.184 11.06-8.343 11.082-8.405.138-.361.477-.609.865-.632.392.01.749.19.927.533.173.334 4.193 8.332 1.782 17.133-.721 2.624-1.79 5.172-3.101 7.515l-.062.05-.632.062c-4.344.436-9.041.768-12.73.155l-.266-.025c-.793 0-1.412.621-1.412 1.414zm15.812 9.261v-1.91c.638.155 1.086.401 1.086.964 0 .502-.328.877-1.086.946zm-.71-3.708c-.663-.178-1.053-.388-1.053-.9 0-.555.46-.82 1.053-.842v1.742zm.71.155v-1.875c.59.109 1.053.398 1.466.886l1.076-.853c-.59-.778-1.586-1.235-2.541-1.344v-.599h-.71v.553c-1.563.058-2.686.979-2.686 2.321 0 1.621 1.645 2.155 2.686 2.376v2.077c-.805-.089-1.491-.555-1.906-1.222l-1.146.888c.543.82 1.643 1.542 3.051 1.643v.566h.71v-.576c1.714-.145 2.696-1.144 2.696-2.422 0-1.509-1.408-2.085-2.696-2.42zm8.429-3.894c0-.403-.324-.725-.727-.725-.401 0-.725.322-.725.725 0 1.633 1.154 3.004 2.688 3.336v1.796c-1.534.334-2.688 1.703-2.688 3.336 0 .403.324.725.725.725.403 0 .727-.322.727-.725 0-1.084.879-1.963 1.963-1.963h.725v-4.542h-.725c-1.084 0-1.963-.879-1.963-1.963zm-16.413 1.014c0-.403-.324-.725-.725-.725-.401 0-.725.322-.725.725 0 1.084-.882 1.963-1.963 1.963h-.727v4.544h.727c1.082 0 1.963.879 1.963 1.963 0 .401.324.725.725.725.401 0 .725-.324.725-.725 0-1.633-1.154-3.002-2.688-3.336v-1.798c1.534-.332 2.688-1.703 2.688-3.336zm-.818-9.726c3.999-2.207 5.415-5.044 5.475-5.161.194-.401.029-.879-.37-1.076-.396-.194-.882-.031-1.076.365-.014.025-1.284 2.519-4.808 4.463-1.354.745-2.665 1.247-3.935 1.734-2.261.869-4.6 1.765-7.211 4.028-4.558 3.951-4.627 9.026-4.627 9.239 0 .444.357.805.801.807h.004c.442 0 .801-.357.805-.799 0-.043.085-4.575 4.073-8.031 2.395-2.075 4.501-2.884 6.732-3.741 1.319-.506 2.684-1.026 4.135-1.829zm1.74-27.091c-17.286 0-31.298 14.014-31.298 31.3 0 17.284 14.012 31.298 31.298 31.298 17.286 0 31.3-14.014 31.3-31.298 0-17.286-14.014-31.3-31.3-31.3z"/></svg>