<svg width="64" height="64" viewBox="0 0 64 64" xmlns="http://www.w3.org/2000/svg"><title>02021greenimprovF</title><path d="M13.737 40.218c-6.016 5.211-6.144 12.046-6.144 12.112-.005.667-.549 1.205-1.214 1.205h-.007c-.67-.002-1.209-.546-1.207-1.216 0-.322.101-7.975 6.978-13.936 3.938-3.413 7.467-4.766 10.878-6.075 1.913-.734 3.893-1.493 5.934-2.617 5.317-2.933 7.232-6.695 7.253-6.731.295-.599 1.026-.846 1.623-.551.601.295.85 1.017.558 1.621-.089.178-2.226 4.457-8.258 7.785-2.19 1.211-4.249 1.998-6.238 2.761-3.365 1.291-6.542 2.512-10.155 5.643zm27.008 9.019c0 .773.59 1.09 1.589 1.358v-2.629c-.894.034-1.589.434-1.589 1.271zm2.658 4.071v2.88c1.143-.101 1.641-.67 1.641-1.424 0-.853-.677-1.221-1.641-1.456zm16.77 1.461h-1.093c-1.634 0-2.962 1.326-2.962 2.96 0 .608-.489 1.093-1.095 1.093-.603 0-1.093-.485-1.093-1.093 0-2.462 1.739-4.526 4.055-5.029v-2.711c-2.315-.505-4.055-2.569-4.055-5.033 0-.608.489-1.093 1.093-1.093.606 0 1.095.485 1.095 1.093 0 1.634 1.328 2.962 2.962 2.962h1.093v6.85zm-16.77 3.362v.869h-1.07v-.853c-2.123-.151-3.783-1.241-4.603-2.478l1.73-1.339c.626 1.006 1.657 1.71 2.873 1.842v-3.131c-1.57-.334-4.05-1.141-4.05-3.584 0-2.025 1.694-3.415 4.05-3.502v-.834h1.07v.903c1.445.167 2.944.853 3.835 2.027l-1.623 1.287c-.624-.734-1.321-1.17-2.213-1.337v2.827c1.945.505 4.069 1.374 4.069 3.653 0 1.927-1.481 3.433-4.069 3.65zm-12.039 1.131c0 .603-.489 1.093-1.095 1.093-.603 0-1.093-.489-1.093-1.093 0-1.634-1.33-2.962-2.962-2.962h-1.095v-6.853h1.095c1.632 0 2.962-1.328 2.962-2.962 0-.606.489-1.093 1.093-1.093.606 0 1.095.487 1.095 1.093 0 2.464-1.742 4.53-4.057 5.033v2.713c2.315.503 4.057 2.567 4.057 5.031zm30.695-17.312c-2.519-.421-5.035-.581-7.557-.581-7.973.002-15.945 1.598-23.918 1.598-2.519 0-5.038-.16-7.557-.578l-.201-.018c-.56 0-.99.405-.99.992v17.36c0 .656.537 1.303 1.191 1.413 2.521.418 5.038.578 7.557.578l23.918-1.598c2.519 0 5.038.16 7.557.581l.203.016c.558 0 .987-.405.987-.99v-17.36c0-.656-.537-1.303-1.191-1.413zm-42.507.27c0-1.198.937-2.135 2.133-2.135l.402.037c5.563.926 12.649.423 19.202-.233l.951-.094.096-.073c1.975-3.534 3.591-7.378 4.677-11.337 3.637-13.273-2.427-25.337-2.688-25.842-.267-.519-.807-.789-1.399-.805-.585.034-1.095.407-1.303.953-.037.094-3.71 9.383-16.718 12.677-6.555 1.659-18.233 5.979-22.789 16.281-4.023 9.106-1.415 15.589.501 18.642.295.469.585.882.88 1.301l-.032.087c-.19 1.269-.811 3.605-1.666 4.48-.293.299-.443.704-.421 1.122.025.416.224.805.549 1.065l2.994 2.416c.267.217.597.331.93.331.203 0 .409-.043.601-.13.51-.224.848-.715.878-1.271.062-1.154.293-2.857.654-4.085l.251.135c.155.089 3.842 2.178 9.303 2.178h.002c.613 0 1.227-.027 1.838-.08l.174-.139v-15.481z"/></svg>