<svg width="64" height="64" viewBox="0 0 64 64" xmlns="http://www.w3.org/2000/svg"><title>02021greenimprovL</title><path d="M17.567 55.106c-4.787 0-8.063-1.833-8.233-1.919-.704-.295-1.306-.683-1.878-1.136.042-.89.537-7.262 6.242-12.207 3.674-3.186 6.906-4.427 10.327-5.737 2.022-.776 4.115-1.58 6.339-2.807 6.135-3.383 8.307-7.731 8.396-7.915.297-.611.044-1.343-.565-1.643-.606-.297-1.343-.049-1.648.558-.019.04-1.966 3.862-7.371 6.843-2.077 1.146-4.09 1.917-6.035 2.663-3.467 1.331-7.055 2.707-11.056 6.176-4.606 3.992-6.216 8.716-6.783 11.579-.186-.29-.369-.548-.558-.881-2.045-3.618-3.688-8.405-.342-16.466 3.864-9.316 15.018-13.385 21.322-14.981 10.424-2.637 15.504-8.714 17.618-12.13 1.529 4.039 4.057 12.82 1.545 21.989-1.206 4.396-3.079 8.635-5.365 12.43-6.044.558-12.339.885-17.44.04l-.414-.037c-1.252 0-2.233.983-2.233 2.238v13.243c-.623.06-1.246.1-1.871.1zm24.959-.36v-2.902c.971.237 1.652.609 1.652 1.469 0 .76-.502 1.331-1.652 1.434zm-1.078-5.633c-1.006-.27-1.599-.59-1.599-1.366 0-.841.702-1.243 1.599-1.278v2.644zm1.078.237v-2.847c.897.165 1.599.604 2.228 1.345l1.634-1.297c-.897-1.183-2.407-1.873-3.862-2.043v-.909h-1.078v.841c-2.373.088-4.078 1.485-4.078 3.525 0 2.461 2.498 3.272 4.078 3.609v3.153c-1.222-.135-2.261-.844-2.891-1.854l-1.743 1.348c.825 1.246 2.498 2.342 4.634 2.496v.857h1.078v-.876c2.605-.218 4.097-1.736 4.097-3.674 0-2.294-2.138-3.17-4.097-3.676zm-15.783 3.3v-2.526c2.34-.555 4.085-2.661 4.085-5.168 0-.681-.553-1.232-1.232-1.232-.681 0-1.232.551-1.232 1.232 0 1.573-1.28 2.849-2.854 2.849h-1.229v7.164h1.229c1.573 0 2.854 1.276 2.854 2.849 0 .681.551 1.232 1.232 1.232.679 0 1.232-.551 1.232-1.232 0-2.507-1.745-4.613-4.085-5.168zm28.131-9.193c0-.681-.553-1.232-1.232-1.232-.681 0-1.232.551-1.232 1.232 0 2.507 1.745 4.615 4.083 5.17v2.521c-2.338.555-4.083 2.663-4.083 5.173 0 .679.551 1.232 1.232 1.232.679 0 1.232-.553 1.232-1.232 0-1.573 1.28-2.854 2.851-2.854h1.232v-7.159h-1.232c-1.571 0-2.851-1.278-2.851-2.851zm6.664 15.694c-5.912-.955-13.222-.425-19.938.249-6.653.665-13.817 1.183-19.524.23-.067-.014-.177-.146-.179-.216v-17.388c5.907.95 13.217.423 19.94-.249 6.655-.662 13.822-1.178 19.517-.235.067.014.181.151.184.221v17.388zm.221-20.037c-5.693-.95-12.692-.511-19.238.123 2.005-3.583 3.644-7.48 4.743-11.493 3.669-13.394-2.449-25.563-2.712-26.077-.221-.432-.685-.655-1.164-.667-.486.028-.909.337-1.083.792-.037.095-3.82 9.671-17.184 13.055-6.75 1.708-18.718 6.114-22.993 16.422-3.75 9.042-1.866 14.491.472 18.625.253.448.511.809.767 1.197-.114.911-.692 3.725-1.845 5.005-.277.307-.416.713-.381 1.125.033.414.232.795.553 1.053l3.044 2.459c.274.221.609.337.946.337.214 0 .43-.046.63-.139.521-.242.86-.753.876-1.325.028-.983.253-3.128.774-4.362l.281.146c.156.088 3.843 2.18 9.323 2.182.625 0 1.248-.028 1.871-.084v1.926c0 1.278.983 2.442 2.238 2.647 2.449.409 5.031.609 7.894.609 4.113 0 8.263-.416 12.279-.82 6.651-.665 13.819-1.178 19.503-.232l.416.037c1.252 0 2.233-.985 2.233-2.24v-17.651c0-1.276-.983-2.44-2.24-2.649z"/></svg>