<svg width="64" height="64" viewBox="0 0 64 64" xmlns="http://www.w3.org/2000/svg"><title>06038groupmfL</title><path d="M35.614 61.585v-14.82c0-2.908-.597-6.076-2.534-8.661 2.289-1.922 5.722-2.859 10.334-2.859 9.259 0 13.781 3.876 13.781 11.735l.002.926c-4.678 7.383-12.506 12.578-21.583 13.679zm-29.801-15.349l.009-.442c.399-7.228 4.919-10.656 13.749-10.656 9.259 0 13.781 3.767 13.781 11.733v14.908c-.448.019-.898.034-1.353.034-11.285 0-21.126-6.306-26.187-15.578zm13.758-13.359c-4.629 0-8.397-3.876-8.397-8.506v-.431c1.724-.107 4.954-.538 8.075-1.937.862-.431 1.615-.753 2.368-1.184 2.477 1.077 4.954 1.293 6.138 1.399.215.646.322 1.399.322 2.153 0 4.629-3.767 8.506-8.506 8.506zm23.842.109c-4.736 0-8.506-3.876-8.506-8.506 0-2.908 1.508-5.491 3.661-6.997 3.337 4.305 7.966 7.104 13.242 8.181-.538 4.092-4.09 7.322-8.397 7.322zm-11.413-30.799c16.439 0 29.813 13.374 29.813 29.813 0 4.305-.924 8.395-2.573 12.094l-.032-.262c-.736-4.435-3.305-8.742-10.089-10.308 1.075-.646 2.044-1.508 2.799-2.583.753 1.399 1.937 2.475 3.445 3.014.753.215 1.615.322 2.368.215.215-.431.431-.862.646-1.399.969-3.123-.755-6.569-3.876-7.537l-.431-.107v-.755c0-5.92-4.845-10.765-10.765-10.765-5.922 0-10.767 4.845-10.767 10.765 0 3.77 2.046 7.215 5.06 9.043-2.65.612-4.651 1.645-6.157 2.938-1.506-1.291-3.511-2.323-6.165-2.938 3.014-1.937 5.06-5.274 5.06-9.043 0-5.92-4.845-10.765-10.767-10.765-5.92 0-10.765 4.845-10.765 10.765 0 3.77 2.046 7.215 5.06 9.043-6.046 1.395-8.745 4.966-9.781 8.866l-.026.111c-1.21-3.238-1.873-6.739-1.873-10.391 0-16.439 13.374-29.813 29.813-29.813zm0-2.187c-17.673 0-32 14.327-32 32 0 17.673 14.327 32 32 32 17.673 0 32-14.327 32-32 0-17.673-14.327-32-32-32z"/></svg>