<svg width="64" height="64" viewBox="0 0 64 64" xmlns="http://www.w3.org/2000/svg"><title>06014groupC</title><path d="M28.039 23.954c0-4.928-4.008-8.939-8.937-8.939-4.928 0-8.941 4.011-8.941 8.939 0 4.644 3.578 8.431 8.118 8.852.276.027.541.084.823.084.272 0 .529-.056.794-.08 4.552-.409 8.142-4.2 8.142-8.857zm30.014 21.899c-.488-7.336-5.052-10.799-14.328-10.799-4.84 0-8.4.938-10.774 2.873 1.823 2.313 2.757 5.389 2.757 9.248v16.594c9.266-1.074 17.324-6.12 22.448-13.392.033-1.805-.008-3.305-.103-4.523zm-26.675-6.266c-.228-.315-.477-.611-.743-.891-.259-.272-.535-.529-.829-.77-2.375-1.934-5.935-2.873-10.774-2.873-8.523 0-13.091 2.901-14.157 9.06l-.002-.002c-.198 1.052-.37 2.348-.496 3.965 5.556 9.507 15.845 15.923 27.627 15.923.484 0 .957-.051 1.436-.074v-16.752c0-3.169-.679-5.683-2.062-7.587zm-27.833 1.008l.01-.023.14-.325.01.023c1.667-3.665 4.883-6.011 9.673-6.974-3.15-1.934-5.276-5.383-5.276-9.342 0-6.062 4.934-10.997 10.999-10.997 6.062 0 10.997 4.934 10.997 10.997 0 3.978-2.144 7.435-5.317 9.367 2.698.556 4.895 1.549 6.597 2.971 1.689-1.412 3.871-2.401 6.542-2.959-3.128-1.965-5.227-5.42-5.227-9.379 0-6.122 4.98-11.102 11.102-11.102s11.099 4.98 11.099 11.102c0 3.978-2.119 7.443-5.27 9.402 5.402 1.154 8.778 4.087 10.11 8.752l.006-.006.033.117.054.161-.006.014c.214.798.49 2.05.576 4.297 2.288-4.404 3.603-9.394 3.603-14.69 0-17.645-14.355-32-31.996-32-17.647 0-32.004 14.355-32.004 32 0 4.449.918 8.686 2.564 12.538.331-2.115.7-3.253.982-3.941v-.002zm49.083-16.641c0-4.871-3.963-8.834-8.834-8.834-4.871 0-8.836 3.963-8.836 8.834 0 4.869 3.965 8.832 8.836 8.832s8.834-3.963 8.834-8.832z"/></svg>