<svg width="64" height="64" viewBox="0 0 64 64" xmlns="http://www.w3.org/2000/svg"><title>06038groupmfC</title><path d="M38.801 16.966c-2.229 1.562-3.791 4.237-3.791 7.247 0 4.791 3.902 8.804 8.806 8.804 4.459 0 8.137-3.343 8.693-7.58-5.461-1.114-10.255-4.013-13.709-8.471zm-35.703 25.677c1.073-4.036 3.868-7.735 10.127-9.18-3.121-1.894-5.239-5.461-5.239-9.363 0-6.129 5.015-11.147 11.147-11.147 6.131 0 11.147 5.018 11.147 11.147 0 3.902-2.118 7.358-5.239 9.363 2.748.634 4.826 1.705 6.385 3.042 1.557-1.338 3.629-2.409 6.372-3.042-3.119-1.894-5.237-5.461-5.237-9.363 0-6.129 5.015-11.147 11.147-11.147 6.129 0 11.147 5.018 11.147 11.147v.781l.446.111c3.232 1.005 5.015 4.57 4.013 7.804-.224.557-.446 1.003-.67 1.449-.781.111-1.673 0-2.451-.224-1.562-.557-2.788-1.67-3.567-3.119-.781 1.114-1.783 2.005-2.899 2.673 7.025 1.621 9.683 6.082 10.447 10.673.019.117.132 1.156.243 2.443 2.287-4.403 3.586-9.397 3.586-14.692-.002-17.643-14.355-31.998-31.998-31.998s-32.002 14.355-32.002 31.998c0 4.521.947 8.821 2.645 12.723.177-.939.386-1.828.452-2.078zm54.987 4.866c0-8.139-4.683-12.151-14.268-12.151-4.774 0-8.331.971-10.699 2.961 2.003 2.675 2.622 5.954 2.622 8.966v16.489c9.222-1.079 17.254-6.093 22.374-13.316-.034-1.442-.03-2.948-.03-2.948zm-30.481-25.638c-1.227-.111-3.791-.333-6.353-1.449-.781.446-1.562.781-2.453 1.227-3.232 1.449-6.575 1.894-8.358 2.005v.446c0 4.794 3.9 8.806 8.693 8.806 4.905 0 8.806-4.013 8.806-8.806 0-.779-.113-1.559-.335-2.229zm5.796 25.525c0-8.247-4.683-12.149-14.268-12.149-9.143 0-13.824 3.55-14.238 11.034-.011.192-.017 1.455-.021 2.66 5.664 9.035 15.706 15.057 27.132 15.057.467 0 .932-.015 1.395-.036v-16.565z"/></svg>