<svg width="64" height="64" viewBox="0 0 64 64" xmlns="http://www.w3.org/2000/svg"><title>06038groupmfF</title><path d="M34.908 24.48c0-2.908 1.508-5.491 3.661-6.997 3.337 4.305 7.966 7.104 13.242 8.181-.538 4.092-4.09 7.322-8.397 7.322-4.736 0-8.506-3.876-8.506-8.506zm-23.733-.109v-.431c1.724-.107 4.954-.538 8.075-1.937.862-.431 1.615-.753 2.368-1.184 2.477 1.077 4.954 1.293 6.138 1.399.215.646.322 1.399.322 2.153 0 4.629-3.767 8.506-8.506 8.506-4.629 0-8.397-3.876-8.397-8.506zm20.826-24.371c-17.673 0-32 14.327-32 32 0 17.673 14.327 32 32 32 1.222 0 2.426-.075 3.614-.209v-17.026c0-5.276-1.939-11.411-10.336-13.35 3.014-1.937 5.06-5.274 5.06-9.043 0-5.92-4.845-10.765-10.767-10.765-5.92 0-10.765 4.845-10.765 10.765 0 3.77 2.046 7.215 5.06 9.043-6.046 1.395-8.745 4.966-9.781 8.866l-.028.109c-1.207-3.236-1.871-6.737-1.871-10.389 0-16.439 13.374-29.813 29.813-29.813s29.813 13.374 29.813 29.813c0 4.305-.924 8.395-2.573 12.094l-.032-.262c-.736-4.435-3.305-8.742-10.089-10.308 1.075-.646 2.044-1.508 2.799-2.583.753 1.399 1.937 2.475 3.445 3.014.753.215 1.615.322 2.368.215.215-.431.431-.862.646-1.399.969-3.123-.755-6.569-3.876-7.537l-.431-.107v-.755c0-5.92-4.845-10.765-10.765-10.765-5.922 0-10.767 4.845-10.767 10.765 0 3.77 2.046 7.215 5.06 9.043-1.666.386-3.072.939-4.267 1.617.555.521 1.079 1.079 1.542 1.698 1.984 2.647 2.991 6.025 2.991 10.035v16.689c14.869-2.756 26.133-15.787 26.133-31.454 0-17.673-14.327-32-32-32z"/></svg>