<svg width="64" height="64" viewBox="0 0 64 64" xmlns="http://www.w3.org/2000/svg"><title>06014groupL</title><path d="M35.708 61.477v-14.303c0-3.854-.93-6.928-2.749-9.239 2.373-1.936 5.926-2.881 10.766-2.881 9.443 0 14.026 3.564 14.375 11.174-4.486 8.198-12.729 14.04-22.392 15.25m-30.798-17.287c1.054-6.188 5.585-9.136 14.122-9.136 9.83 0 14.408 3.852 14.408 12.12v14.487c-.479.023-.951.072-1.436.072-12.05 0-22.427-7.217-27.094-17.542m14.987-11.379l-.864-.023-.658.031c-4.585-.379-8.212-4.188-8.212-8.865 0-4.928 4.013-8.939 8.941-8.939 4.928 0 8.939 4.011 8.939 8.939 0 4.655-3.593 8.447-8.145 8.857m23.899-.023c-4.873 0-8.836-3.963-8.836-8.834 0-4.871 3.963-8.834 8.836-8.834 4.871 0 8.834 3.963 8.834 8.834 0 4.871-3.963 8.834-8.834 8.834m-11.791-30.52c16.394 0 29.728 13.338 29.728 29.732 0 3.669-.7 7.171-1.92 10.418-1.278-4.842-4.712-7.854-10.235-9.036 3.177-1.955 5.319-5.435 5.319-9.429 0-6.122-4.98-11.099-11.102-11.099s-11.102 4.978-11.102 11.099c0 3.965 2.107 7.424 5.243 9.389-2.665.564-4.846 1.552-6.535 2.965-1.706-1.432-3.918-2.424-6.626-2.984 3.177-1.93 5.323-5.391 5.323-9.371 0-6.064-4.932-10.997-10.997-10.997-6.064 0-10.999 4.932-10.999 10.997 0 3.974 2.14 7.431 5.309 9.361-4.937.992-8.245 3.41-9.871 7.262-.821-2.718-1.274-5.595-1.274-8.577 0-16.394 13.34-29.732 29.736-29.732m0-2.268c-17.645 0-32.004 14.357-32.004 32 0 17.645 14.359 32 32.004 32 17.643 0 31.996-14.355 31.996-32 0-17.643-14.353-32-31.996-32"/></svg>