<svg width="64" height="64" viewBox="0 0 64 64" xmlns="http://www.w3.org/2000/svg"><title>02035guestmedL</title><path d="M22.543 15.537c.033-.04 3.244-3.825 7.969-3.922 4.692.097 7.94 3.886 7.971 3.926.097.115.216.194.338.267h-16.631c.126-.075.254-.152.353-.271zm37.043 4.621v32.044c0 1.106-.898 2.004-2.004 2.004h-53.23c-1.106 0-2.006-.898-2.006-2.004v-32.044c0-1.106.9-2.004 2.006-2.004h53.23c1.106 0 2.004.898 2.004 2.004zm-33.399 29.297h8.719v-8.964h9.011v-8.719h-9.011v-8.925h-8.719v8.925h-8.876v8.719h8.876v8.964zm4.22-40.45c-5.93 0-9.898 4.838-9.898 4.838-.466.561-.391 1.397.17 1.865l.179.102h-16.505c-2.399 0-4.352 1.951-4.352 4.35v32.044c0 2.399 1.953 4.35 4.352 4.35h53.23c2.399 0 4.35-1.951 4.35-4.35v-32.044c0-2.399-1.951-4.35-4.35-4.35h-17.426l.192-.106c.561-.468.636-1.3.168-1.86 0 0-4.178-4.838-10.11-4.838z"/></svg>