<svg width="64" height="64" viewBox="0 0 64 64" xmlns="http://www.w3.org/2000/svg"><title>02035guestmedF</title><path d="M45.383 40.687h-9.312v9.264h-9.01v-9.264h-9.173v-9.013h9.173v-9.221h9.01v9.221h9.312v9.013zm-22.087-25.785c.034-.041 3.351-3.954 8.235-4.055 4.848.101 8.203 4.018 8.235 4.057.101.121.224.201.35.277h-17.186c.13-.075.263-.155.366-.279zm36.206.279h-18.007l.199-.11c.581-.482.658-1.339.174-1.92 0 0-4.318-5.001-10.446-5.001l-10.229 5.001c-.485.581-.405 1.445.176 1.927l.183.103h-17.058c-2.475 0-4.494 2.018-4.494 4.496v33.115c0 2.475 2.018 4.494 4.494 4.494h55.008c2.482 0 4.498-2.018 4.498-4.494v-33.115c0-2.478-2.016-4.496-4.498-4.496z"/></svg>