<svg width="64" height="64" viewBox="0 0 64 64" xmlns="http://www.w3.org/2000/svg"><title>02035guestmedC</title><path d="M51.099 43.448c0 1.536-1.249 2.783-2.783 2.783h-34.06c-1.534 0-2.785-1.247-2.785-2.783v-20.505c0-1.534 1.251-2.783 2.785-2.783h10.56l-.114-.064c-.359-.299-.407-.834-.107-1.193 0 0 2.537-3.095 6.332-3.095 3.797 0 6.47 3.095 6.47 3.095.299.359.25.892-.107 1.191l-.124.066h11.15c1.534 0 2.783 1.249 2.783 2.783v20.505zm-15.003-23.457c-.021-.025-2.1-2.451-5.101-2.513-3.022.062-5.079 2.484-5.099 2.508-.062.078-.145.126-.225.173h10.641c-.076-.045-.153-.097-.215-.169zm-2.29 4.672h-5.578v5.713h-5.682v5.578h5.682v5.735h5.578v-5.735h5.766v-5.578h-5.766v-5.713zm-2.723-22.829c-17.166 0-31.083 13.917-31.083 31.083 0 17.166 13.917 31.083 31.083 31.083 17.169 0 31.083-13.917 31.083-31.083 0-17.166-13.915-31.083-31.083-31.083z"/></svg>