<svg width="64" height="64" viewBox="0 0 64 64" xmlns="http://www.w3.org/2000/svg"><title>02043haildamageL</title><path d="M45.143 53.035h-14.137v-13.342h-7.996v13.342h-14.299v-16.368h36.432v16.368zm-20.145 0h4.02v-11.354h-4.02v11.354zm30.536-28.037c.996.996.996 2.614 0 3.61-.998.998-2.614.998-3.612 0-.996-.996-.996-2.614 0-3.61.998-.998 2.614-.998 3.612 0zm-15.748-20.523c.73.732.73 1.917 0 2.649-.732.73-1.917.73-2.649 0-.732-.732-.732-1.917 0-2.649.732-.73 1.917-.73 2.649 0zm23.667 20.388c.73.732.73 1.917 0 2.649-.732.73-1.917.73-2.649 0-.73-.732-.73-1.917 0-2.649.732-.73 1.917-.73 2.649 0zm-39.869 4.093h6.836v-6.835h-6.836v6.835zm-1.847 31.347h10.654v-1.998h-10.654v1.998zm12.598-13.193h6.836v-6.836h-6.836v6.836zm-21.488 0h6.835v-6.836h-6.835v6.836zm49.745-38.178c-.387-.387-1.017-.387-1.404 0l-12.488 12.488-.008.006c-.387.389-.387 1.017 0 1.404.195.195.449.291.703.291.254 0 .507-.096.701-.291 2.007-2.003 5.268-2.003 7.274 0 .387.389 1.015.389 1.404 0 .387-.387.387-1.015 0-1.404-1.427-1.425-3.315-2.125-5.191-2.082l9.009-9.007c.387-.389.387-1.017 0-1.404zm-13.374-5.186c.998.998.998 2.614 0 3.612-.996.996-2.614.996-3.61 0-.998-.998-.998-2.614 0-3.612.996-.996 2.614-.996 3.61 0zm12.862 12.506c-.732-.73-1.917-.73-2.649 0-.73.732-.73 1.917 0 2.649.732.73 1.917.73 2.649 0 .73-.732.73-1.917 0-2.649zm-.649-9.998c.387-.387.387-1.015 0-1.404-.387-.387-1.015-.387-1.404 0l-16.031 16.031c-.607-.137-1.268.025-1.739.497-.732.732-.732 1.917 0 2.649.73.73 1.917.73 2.647 0 .472-.474.636-1.135.497-1.741l16.031-16.031zm-19.679 12.914c.193.193.447.291.701.291.254 0 .509-.098.701-.291l.01-.008 12.259-12.261c.389-.387.389-1.015 0-1.404-.387-.387-1.015-.387-1.404 0l-8.776 8.778v-.146c0-1.903-.742-3.695-2.088-5.039-.387-.389-1.015-.389-1.402 0-.389.387-.389 1.015 0 1.404.971.971 1.506 2.261 1.506 3.635 0 1.373-.536 2.666-1.506 3.637-.389.387-.389 1.015 0 1.404zm11.843 14.274l-.193-.431c-.9-.046-1.755-.285-2.537-.693l.819 1.84c.042.135-.012.237-.046.285-.037.048-.118.131-.258.131h-44.07l-.586-.002v.002h-4.334c-.141 0-.235 0-.306-.077-.085-.089-.067-.216-.015-.314l6.445-14.474c.158-.272.453-.435.649-.435h9.539l-1.346 1.298c-.466.453-.734 1.081-.734 1.73v8.204c0 .564.458 1.019 1.021 1.019.562 0 1.019-.455 1.019-1.019v-8.204c0-.098.04-.195.112-.262l7.896-7.619c.141-.137.362-.141.507 0l7.898 7.619c.069.067.11.164.11.262v8.204c0 .564.457 1.019 1.019 1.019.562 0 1.021-.455 1.021-1.019v-8.204c0-.649-.268-1.277-.734-1.73l-1.346-1.298h3.835c-.06-.262-.1-.53-.1-.807 0-.426.087-.838.229-1.229h-6.078l-4.44-4.282c-.936-.898-2.4-.898-3.336 0l-4.44 4.282h-11.652c-.955 0-1.903.57-2.462 1.547l-6.563 14.771c-.27.717-.121 1.522.329 2.132.449.611 1.167.923 1.924.923l4.334.002v18.41h16.248v2.179h8.083v-2.179h16.077v-18.41h4.251c.757 0 1.449-.349 1.897-.959.449-.611.58-1.373.314-2.209z"/></svg>