<svg width="64" height="64" viewBox="0 0 64 64" xmlns="http://www.w3.org/2000/svg"><title>02043haildamageF</title><path d="M22.6 61.3h9.8v-2.7h-9.8v2.7zm1.2-4.3h7.5v-2.4h-7.5v2.4zm40.6-32c.7.7.7 2 0 2.7-.7.7-2 .7-2.7 0-.7-.7-.7-2 0-2.7.8-.7 2-.7 2.7 0zm-8.1.1c1 1 1 2.7 0 3.7s-2.7 1-3.7 0-1-2.7 0-3.7c1.1-1 2.7-1 3.7 0zm-16.1-20.9c.7.7.7 2 0 2.7-.7.7-2 .7-2.7 0-.7-.7-.7-2 0-2.7.8-.8 2-.8 2.7 0zm2.8 15.3c-.3 0-.5-.1-.7-.3-.4-.4-.4-1 0-1.4 1-1 1.5-2.3 1.5-3.7 0-1.4-.5-2.7-1.5-3.7-.4-.4-.4-1 0-1.4.4-.4 1-.4 1.4 0 1.4 1.4 2.1 3.2 2.1 5.2v.1l9-9c.4-.4 1-.4 1.4 0 .4.4.4 1 0 1.4l-12.5 12.5c-.2.2-.5.3-.7.3zm7.1 3.7c-.3 0-.5-.1-.7-.3-.4-.4-.4-1 0-1.4l12.7-12.8c.4-.4 1-.4 1.4 0 .4.4.4 1 0 1.4l-9.2 9.2c1.9 0 3.8.7 5.3 2.1.4.4.4 1 0 1.4-.4.4-1 .4-1.4 0-2.1-2-5.4-2-7.4 0-.2.3-.5.4-.7.4zm-.2-19.8c1 1 1 2.7 0 3.7s-2.7 1-3.7 0-1-2.7 0-3.7 2.7-1 3.7 0zm12.5 1.1c-.4-.4-1-.4-1.4 0l-16.5 16.4-.4-.1c-.5 0-1 .2-1.4.6-.7.7-.7 2 0 2.7.4.4.9.6 1.4.6.5 0 1-.2 1.4-.6.5-.5.6-1.2.5-1.8l16.4-16.3c.4-.4.4-1.1 0-1.5zm.6 11.7c-.7-.7-2-.7-2.7 0-.7.7-.7 2 0 2.7.7.7 2 .7 2.7 0 .8-.7.8-1.9 0-2.7zm-56 20.3v18h16.8v-14.2h7.5v14.3h16.6v-18h-40.9v-.1zm12.8 11.2h-7.4v-7.4h7.4v7.4zm22.8 0h-7.4v-7.4h7.4v7.4zm11.2-13.7l-.3-.7c-1.3-.2-2.5-.8-3.5-1.8-1.8-1.8-2.3-4.4-1.5-6.7-.2.5-.5 1-.9 1.4-.9.9-2.1 1.4-3.4 1.4-1.3 0-2.5-.5-3.4-1.4-.9-.9-1.4-2.1-1.4-3.4 0-.8.2-1.6.6-2.3-.4-.6-.6-1.3-.6-2v-.3h-3.4l1.5 1.5c.5.5.8 1.1.8 1.8v8.8c0 .6-.5 1-1 1-.6 0-1-.5-1-1v-8.8c0-.1 0-.2-.1-.3l-8.5-8.2c-.2-.2-.4-.2-.6 0l-8.4 8.1c-.1.1-.1.2-.1.3v8.7c0 .6-.5 1-1 1-.6 0-1-.5-1-1v-8.7c0-.7.3-1.3.8-1.8l1.5-1.5h-10.3c-.2 0-.6.2-.7.5l-6.9 15.4c-.1.1-.1.3 0 .4.1.1.2.1.3.1h52c.2 0 .3-.1.3-.2.2 0 .2-.2.2-.3zm-22.6-5.5h-7.4v-7.4h7.4v7.4z"/></svg>