<svg width="64" height="64" viewBox="0 0 64 64" xmlns="http://www.w3.org/2000/svg"><title>02043haildamageC</title><path d="M16.427 52.209h3.869v9.561c-1.334-.524-2.63-1.124-3.869-1.815v-7.746zm20.114-5.001v16.443c-1.487.211-2.998.358-4.543.358-3.338 0-6.556-.514-9.579-1.461v-12.464h-8.115v8.581c-4.359-2.9-7.97-6.833-10.471-11.457h32.708zm-4.008 3.479h-6.912v6.908h6.912v-6.908zm31.467-18.676c0 15.385-10.864 28.222-25.333 31.295v-16.096h4.246c.773 0 1.474-.356 1.932-.977.457-.621.589-1.398.318-2.25l-.51-1.148c-1.071-.123-2.063-.561-2.885-1.271l1.41 3.163c.034.111-.005.194-.043.245-.037.051-.105.111-.22.111h-40.102c-1.792-3.995-2.813-8.41-2.813-13.072 0-.474.051-.933.07-1.402l.079-.695h9.876l-1.361 1.312c-.469.454-.738 1.088-.738 1.743v8.258c0 .567.459 1.026 1.026 1.026s1.026-.459 1.026-1.026v-8.258c0-.101.041-.197.111-.265l7.951-7.671c.141-.139.365-.141.51 0l7.951 7.671c.07.069.111.165.111.265v8.258c0 .567.461 1.026 1.026 1.026.567 0 1.028-.459 1.028-1.026v-8.258c0-.655-.271-1.289-.74-1.743l-1.355-1.306h3.86c-.156-.678-.107-1.391.134-2.05h-6.123l-4.47-4.31c-.941-.905-2.416-.905-3.359 0l-4.387 4.231h-11.916c2.07-15.671 15.449-27.779 31.688-27.779l.003.002c17.67 0 31.999 14.327 31.999 31.999zm-42.324.651h-6.912v6.91h6.912v-6.91zm9.568-17.643c-.736-.736-1.93-.736-2.666 0s-.736 1.93 0 2.666 1.929.736 2.666 0c.736-.736.736-1.929 0-2.666zm5.861 2.903c1.003 1.003 2.631 1.003 3.634 0 1.005-1.002 1.005-2.631 0-3.636-1.003-1.003-2.631-1.003-3.634 0-1.005 1.005-1.005 2.633 0 3.636zm-2.368 6.816c0 1.383-.538 2.685-1.517 3.662-.194.194-.292.45-.292.706 0 .256.098.512.292.706.196.196.452.294.708.294.254 0 .512-.098.706-.294l12.351-12.351c.39-.39.39-1.022 0-1.412-.39-.39-1.024-.39-1.414 0l-8.84 8.838c.04-1.885-.659-3.785-2.096-5.223-.39-.39-1.024-.39-1.414 0-.39.39-.39 1.024 0 1.414h-.001c.979.977 1.517 2.278 1.517 3.66zm1.655 9.963c.472-.469.606-1.12.476-1.726l16.166-16.166c.39-.39.39-1.022 0-1.412-.39-.39-1.024-.39-1.414 0l-16.164 16.164c-.606-.13-1.257.007-1.728.476-.736.736-.736 1.929 0 2.666.736.736 1.929.736 2.666 0l-.001-.001zm10.705.98c-1.003-1.005-2.631-1.005-3.634 0-1.005 1.003-1.005 2.631 0 3.634 1.003 1.005 2.631 1.005 3.634 0 1.005-1.003 1.005-2.631 0-3.634zm3.264-3.595c-1.438-1.436-3.327-2.126-5.226-2.098l9.069-9.069c.39-.39.39-1.022 0-1.412-.388-.39-1.022-.39-1.412 0l-12.581 12.579c-.196.196-.292.45-.292.706 0 .256.096.512.292.706.39.39 1.024.39 1.414 0 2.016-2.016 5.302-2.016 7.321 0 .194.196.452.294.706.294.256 0 .512-.098.708-.294h.001c.388-.39.388-1.022 0-1.412zm.66-2.544c.736.736 1.93.736 2.668 0 .736-.736.736-1.929 0-2.666-.738-.736-1.931-.736-2.668 0-.736.736-.736 1.93 0 2.666zm4.05 8.667c.736-.736.736-1.93 0-2.666s-1.932-.736-2.668 0c-.736.736-.736 1.929 0 2.666.736.736 1.931.736 2.668 0z"/></svg>