<svg width="64" height="64" viewBox="0 0 64 64" xmlns="http://www.w3.org/2000/svg"><title>01024hatchbackF</title><path d="M7.344 26.736c-.497-.019-.688-.342-.428-.715 0 0 1.197-2.334 2.573-2.776 3.458-1.111 13.522-1.072 13.522-1.072.501-.015.87.312.824.732l.342 3.733c-.048.417-.493.744-.99.726l-15.843-.627zm31.545 1.111l-11.785-.495c-.497-.017-.864-.371-.818-.788l-.342-3.729c.048-.417.493-.74.988-.715 0 0 2.942.22 4.131.453 4.949.971 8.216 4.716 8.216 4.716.283.323.107.575-.39.558zm-31.388 11.368c0-2.007 1.634-3.64 3.64-3.64 2.009 0 3.64 1.634 3.64 3.64 0 2.007-1.631 3.643-3.64 3.643-2.007 0-3.64-1.636-3.64-3.643zm41.276 0c0-2.007 1.634-3.64 3.643-3.64 2.007 0 3.64 1.634 3.64 3.64 0 2.007-1.634 3.643-3.64 3.643-2.009 0-3.643-1.636-3.643-3.643zm14.581-7.235c-.445-1.294-2.003-2.588-3.968-3.294-4.607-1.661-11.028-2.252-11.781-2.315-.732-.426-7.765-4.506-9.913-5.643-2.399-1.271-6.297-2.728-15.206-2.728l-.923.004c-6.352.071-13.964 1.355-15.665 2.646-1.187.9-4.538 6.677-4.811 8.042-.226 1.134-.208 2.965-.203 2.988-.029.187-.189.382-.361.587-.247.298-.528.635-.528 1.099v.138c-.002 1.388.021 3.053.226 3.609.667 1.814 1.705 2.447 5.1 2.625.271 2.986 2.76 5.345 5.815 5.345 2.974 0 5.41-2.231 5.792-5.1l1.057.021h28.639c.39 2.86 2.823 5.079 5.79 5.079 2.932 0 5.345-2.168 5.779-4.978h.084c3.288 0 5.098-.572 5.375-1.705.539-2.208.445-4.251-.3-6.421z"/></svg>