<svg width="64" height="64" viewBox="0 0 64 64" xmlns="http://www.w3.org/2000/svg"><title>01024hatchbackL</title><path d="M61.707 34.704c-1.095.008-2.259-.556-2.674-1.352-.44-.841.131-1.598 1.27-1.696-.507-.419-1.195-.829-2.056-1.14-4.577-1.649-11.136-2.179-11.201-2.183l-.246-.02-.215-.125c-.076-.043-7.508-4.362-9.681-5.514-2.201-1.164-5.8-2.498-14.184-2.498l-.886.004c-6.725.074-13.302 1.422-14.452 2.298-.874.661-3.973 6.023-4.172 7.007l-.029.221c.861-.029 1.71.227 2.146.72.61.689.186 1.559-.947 1.942-.55.186-1.017.225-1.424.143-.141.518-.393.843-.589 1.08l-.211.278c.012 2.371.11 2.948.153 3.089.35.947.546 1.479 3.701 1.645.426-2.739 2.78-4.851 5.636-4.851 2.938 0 5.338 2.232 5.661 5.082l1.043.02h27.903c.315-2.86 2.719-5.102 5.663-5.102 2.979 0 5.403 2.293 5.673 5.203h.045c2.784 0 3.785-.487 3.916-.657.295-1.234.336-2.4.153-3.595zm-9.787 8.329c1.958 0 3.552-1.596 3.552-3.554 0-1.958-1.594-3.552-3.552-3.552-1.96 0-3.552 1.594-3.552 3.552s1.592 3.554 3.552 3.554zm-40.271-7.105c-1.958 0-3.55 1.594-3.55 3.552s1.592 3.554 3.55 3.554c1.96 0 3.554-1.596 3.554-3.554 0-1.958-1.594-3.552-3.554-3.552zm51.994 2.944c-.372 1.518-2.336 2.259-6.003 2.259h-.002l-.262-.002c-.714 2.351-2.874 4.077-5.456 4.077-2.617 0-4.804-1.774-5.485-4.176h-28.104l-1.189-.025c-.673 2.414-2.866 4.2-5.493 4.2-2.705 0-4.967-1.894-5.561-4.421-3.382-.147-4.959-.751-5.82-3.085-.196-.538-.272-1.6-.268-3.791 0-.867.419-1.371.696-1.704l.168-.213c0-.522.023-1.956.217-2.932.301-1.51 3.683-7.326 4.988-8.316 2.023-1.532 9.92-2.674 15.745-2.737l.908-.006c8.863 0 12.778 1.473 15.201 2.754 2.029 1.074 8.288 4.703 9.544 5.432 1.291.117 7.132.706 11.52 2.285 2.165.782 3.83 2.199 4.343 3.699.775 2.263.876 4.395.313 6.702zm-32.558-15.628c-1.158-.227-4.03-.442-4.03-.442-.483-.025-.917.291-.964.698l.336 3.638c.068.475.311.753.796.769l11.5.483c.483.016.655-.229.378-.544 0 0-3.187-3.654-8.016-4.601zm-7.052.323l.333 3.642c.002.446-.481.726-.966.708l-15.456-.612c-.483-.018-.671-.333-.415-.698 0 0 1.166-2.277 2.51-2.709 3.374-1.084 13.19-1.045 13.19-1.045.489-.014.706.248.804.714z"/></svg>