<svg width="64" height="64" viewBox="0 0 64 64" xmlns="http://www.w3.org/2000/svg"><title>04021homechckpL</title><path d="M31.413 4.899c.83 0 1.503.673 1.503 1.503 0 .83-.673 1.503-1.503 1.503-.83 0-1.503-.673-1.503-1.503 0-.83.673-1.503 1.503-1.503zm14.542 27.115c0 .611-.495 1.107-1.107 1.107h-26.971c-.611 0-1.107-.495-1.107-1.107 0-.611.495-1.107 1.107-1.107h26.971c.611 0 1.107.495 1.107 1.107zm0-6.547c0 .611-.495 1.107-1.107 1.107h-26.971c-.611 0-1.107-.495-1.107-1.107 0-.611.495-1.107 1.107-1.107h26.971c.611 0 1.107.495 1.107 1.107zm0-6.547c0 .611-.495 1.107-1.107 1.107h-26.971c-.611 0-1.107-.495-1.107-1.107 0-.611.495-1.107 1.107-1.107h26.971c.611 0 1.107.495 1.107 1.107zm-28.077 25.084h11.683c.611 0 1.107.495 1.107 1.107 0 .611-.495 1.107-1.107 1.107h-11.683c-.611 0-1.107-.495-1.107-1.107 0-.611.495-1.107 1.107-1.107zm28.077-5.44c0 .611-.495 1.107-1.107 1.107h-26.971c-.611 0-1.107-.495-1.107-1.107 0-.611.495-1.107 1.107-1.107h26.971c.611 0 1.107.495 1.107 1.107zm-9.468 20.243c.182.184.421.277.663.277.235 0 .473-.089.652-.268l10.971-10.816c.175-.173.277-.411.279-.659.002-.246-.095-.483-.27-.659l-2.51-2.539c-.361-.365-.952-.37-1.317-.006l-7.756 7.661-2.814-2.845c-.171-.175-.409-.275-.657-.277-.225.012-.483.095-.661.27l-2.537 2.51c-.365.361-.37.952-.008 1.317l5.966 6.033zm10.74-49.643h-2.281v2.294h2.281c1.819 0 3.295 1.482 3.295 3.309v43.625c0 1.829-1.476 3.316-3.295 3.316h-31.639c-1.819 0-3.297-1.486-3.297-3.316v-43.625c0-1.827 1.478-3.309 3.297-3.309h2.279v-2.294h-2.279c-3.082 0-5.589 2.513-5.589 5.603v43.625c0 3.093 2.506 5.607 5.589 5.607h31.639c3.082 0 5.587-2.515 5.587-5.607v-43.625c0-3.091-2.504-5.603-5.587-5.603zm-25.102 4.296h18.564c1.315 0 2.393-1.078 2.393-2.395v-1.586c0-1.317-1.078-2.395-2.393-2.395h-3.592v-3.188c0-1.317-1.078-2.395-2.395-2.395h-6.59c-1.317 0-2.395 1.078-2.395 2.395v3.188h-3.592c-1.317 0-2.395 1.078-2.395 2.395v1.586c0 1.317 1.078 2.395 2.395 2.395z"/></svg>