<svg width="64" height="64" viewBox="0 0 64 64" xmlns="http://www.w3.org/2000/svg"><title>01002homeL</title><path d="M25.864 60.17h12.709v-2.382h-12.709v2.382zm-23.078-30.568h58.445c.181 0 .284-.105.332-.167.046-.064.114-.194.062-.368l-7.731-17.358c-.135-.22-.501-.421-.744-.421h-11.366l1.659 1.601c.551.531.867 1.277.867 2.041v9.787c0 .654-.531 1.185-1.185 1.185-.657 0-1.187-.531-1.187-1.185v-9.787c0-.124-.05-.247-.142-.334l-9.419-9.09c-.183-.174-.464-.174-.645 0l-9.421 9.09c-.089.087-.142.208-.142.334v9.787c0 .654-.531 1.185-1.185 1.185s-1.185-.531-1.185-1.185v-9.787c0-.766.313-1.51.865-2.041l1.659-1.601h-11.455c-.243 0-.609.201-.801.533l-7.689 17.205c-.144.359.034.577.41.577zm50.999 2.373h-43.462v19.525h17.058v-15.917h9.54v15.917h16.864v-19.525zm-24.032 19.525h4.795v-13.544h-4.795v13.544zm33.718-20.657c-.531.718-1.348 1.132-2.24 1.132h-5.074v21.897h-19.181v2.599h-9.641v-2.599h-19.385v-21.897h-5.164c-.895 0-1.711-.414-2.242-1.132-.531-.721-.682-1.622-.416-2.475l7.827-17.621c.661-1.155 1.782-1.828 2.912-1.828h13.915l5.303-5.118c1.103-1.066 2.835-1.066 3.94 0l5.301 5.118h13.825c1.13 0 2.249.673 2.853 1.716l7.838 17.6c.313.986.16 1.887-.371 2.608zm-35.398-7.971h8.154v-8.156h-8.154v8.156zm12.819 21.558h8.156v-8.154h-8.156v8.154zm-25.638 0h8.156v-8.154h-8.156v8.154z"/></svg>