<svg width="64" height="64" viewBox="0 0 64 64" xmlns="http://www.w3.org/2000/svg"><title>01002homeC</title><path d="M28.897 24.576h6.448v-6.448h-6.448v6.448zm-19.433 5.137h45.095c.149 0 .236-.087.272-.138.038-.051.096-.159.053-.302l-5.966-13.396c-.111-.181-.402-.338-.595-.338h-8.825l1.32 1.275c.421.406.661.973.661 1.558v7.552c0 .493-.4.893-.893.893s-.891-.4-.891-.893v-7.552c0-.104-.045-.202-.117-.274l-7.269-7.014c-.149-.142-.378-.14-.529 0l-7.267 7.014c-.074.072-.117.172-.117.274v7.552c0 .493-.4.893-.893.893s-.893-.4-.893-.893v-7.552c0-.584.242-1.154.663-1.558l1.32-1.275h-8.895c-.193 0-.485.157-.638.421l-5.879 13.209c-.166.3-.032.544.281.544zm29.324 11.498h6.448v-6.448h-6.448v6.448zm-9.906 5.957h6.48v-12.406h-6.48v12.406zm-9.875-5.957h6.448v-6.448h-6.448v6.448zm30.721-9.713h-35.365v15.671h14.519v2.204h6.482v-2.204h14.363v-15.671zm-21.849 21.524h8.487v-2.304h-8.487v2.304zm4.121 10.978c-17.673 0-32-14.327-32-32 0-17.673 14.327-32 32-32 17.673 0 32 14.327 32 32 0 17.673-14.327 32-32 32z"/></svg>