<svg width="64" height="64" viewBox="0 0 64 64" xmlns="http://www.w3.org/2000/svg"><title>04023homerepairL</title><path d="M19.413 37.314c-.142-.002-.277.053-.377.153l-15.982 15.993c-1.353 1.36-1.346 3.561.014 4.914.651.647 1.531 1.01 2.45 1.013h.007c.923 0 1.806-.37 2.455-1.024l15.982-15.993c.208-.21.206-.546-.002-.754l-4.167-4.149c-.101-.101-.238-.155-.379-.153zm-13.897 24.114c-3.047 0-5.515-2.471-5.515-5.518 0-1.458.578-2.857 1.609-3.893l15.979-15.991c1.003-1.006 2.633-1.01 3.643-.009l4.167 4.151c1.008 1.003 1.013 2.635.009 3.643l-15.982 15.993c-1.029 1.04-2.432 1.625-3.897 1.623h-.014zm7.563-39.435l26.178 26.302-.082.512c-.338 1.657-.206 3.378.384 4.965.338.697.757 1.353 1.241 1.957.635.741 1.394 1.36 2.245 1.835 1.074.629 2.288.978 3.534 1.024 1.344-.135 2.677-.398 3.973-.784l-2.546-1.246-2.475-1.371-.094-5.655 4.843-2.91 4.878 2.711c-.194-1.262-.665-2.466-1.381-3.525-.715-1.061-1.673-1.934-2.791-2.551-1.899-1.049-4.137-1.301-6.224-.704-.427.13-.843.299-1.243.501l-.658.315-25.474-25.815.158-.562c.667-2.105.457-4.393-.587-6.343-1.657-3.118-5.134-4.814-8.61-4.206-1.264.219-2.457.731-3.486 1.495l5.333 1.582 1.287 5.504-4.126 3.87-5.344-1.611c.638 1.109 1.351 2.171 2.133 3.184.903.887 2.016 1.527 3.234 1.865.933.283 1.906.395 2.878.336.757-.046 1.504-.197 2.217-.455l.608-.219zm33.794-1.545c1.09 0 2.743.391 3.742 1.397.478.482 1.755 1.767 1.031 3.438-.066.153-.066.277-.057.309l3.223 3.237 6.048-6.194-3.259-3.106-.251.08c-1.698.731-3.017-.597-3.451-1.033-.434-.439-1.755-1.771-1.013-3.458.059-.139.059-.256.05-.288l-5.259-5.271c-.437-.425-.93-.837-1.458-1.209-5.808-4.043-11.52-3.237-13.705-2.699-1.239.304-2.114.693-2.67 1.017.377.016.784.021 1.115.023.679.007 1.367.016 1.945.071 3.993.386 5.698 1.566 7.019 4.859 1.191 2.967.089 5.918-1.335 7.691-.455.565-5.472 5.614-5.472 5.614l3.422 3.463s4.967-4.967 5.502-5.509c1.819-1.838 3.218-2.245 4.347-2.398.144-.021.309-.032.487-.032zm-10.341 10.407h-.002c-.272 0-.533-.11-.725-.302l-4.855-4.919c-.395-.4-.393-1.042.005-1.44 0 0 5.575-5.584 6.041-6.165 1.063-1.323 1.893-3.502 1.031-5.65-.962-2.4-1.865-3.255-5.321-3.589-.526-.05-1.152-.055-1.769-.062-1.982-.021-3.547-.037-3.824-1.307-.121-.555.016-1.41 1.362-2.309 2.775-1.854 11.054-3.913 18.912 1.563.624.439 1.202.919 1.726 1.433l5.294 5.319c.608.601.745 1.586.347 2.505-.071.16-.183.418.592 1.2.775.782 1.035.665 1.195.599.923-.395 1.909-.256 2.507.359l3.257 3.271c.359.359.56.841.56 1.353 0 .514-.201.999-.565 1.365l-6.219 6.192c-.75.743-1.97.745-2.718-.007l-3.259-3.287c-.599-.601-.731-1.589-.331-2.51.069-.158.174-.4-.608-1.186-.651-.656-2.053-.843-2.501-.782-.773.107-1.719.343-3.175 1.813-.574.581-6.235 6.242-6.235 6.242-.192.192-.45.299-.722.299zm10.13 29.774c-1.621-.027-3.207-.466-4.608-1.28-1.061-.59-2.007-1.362-2.798-2.281-.59-.722-1.093-1.506-1.504-2.343-.747-1.806-.978-3.785-.667-5.714l-24.555-24.672c-.704.203-1.429.327-2.162.368-1.209.064-2.421-.078-3.582-.421-1.561-.434-2.983-1.266-4.128-2.416-.946-1.179-1.778-2.448-2.478-3.79-.45-1.035.023-2.24 1.061-2.69l.085-.034c.409-.144.853-.155 1.269-.03l4.222 1.271 2.402-2.256-.75-3.209-4.206-1.269c-1.067-.329-1.669-1.458-1.349-2.528.121-.409.37-.768.713-1.024 2.603-1.941 5.973-2.53 9.083-1.593 5.211 1.589 8.267 6.976 6.953 12.265l23.637 23.927c.293-.123.592-.231.896-.32 5.431-1.557 11.093 1.584 12.649 7.013.139.482.242.976.309 1.474.055.439-.032.882-.249 1.266-.565.935-1.753 1.275-2.727.782l-3.856-2.144-2.825 1.696.055 3.296 3.854 2.144c.366.206.661.519.846.894.473 1.017.034 2.224-.981 2.697l-.011.005c-1.497.464-3.038.77-4.597.917z"/></svg>