<svg width="64" height="64" viewBox="0 0 64 64" xmlns="http://www.w3.org/2000/svg"><title>04020homecareL</title><path d="M26.01 47.764h4.192v-11.84h-4.192v11.84zm-1.468-25.026h7.13v-7.128h-7.13v7.128zm-22.422 5.26l6.68-14.918c.168-.292.488-.466.7-.466h10.014l-1.45 1.398c-.482.464-.756 1.114-.756 1.784v8.556c0 .574.464 1.038 1.036 1.038.572 0 1.036-.464 1.036-1.038v-8.556c0-.11.046-.216.124-.292l8.236-7.946c.158-.152.404-.152.564 0l8.234 7.946c.08.078.124.184.124.292v8.556c0 .574.464 1.038 1.038 1.038.572 0 1.036-.464 1.036-1.038v-8.556c0-.668-.276-1.32-.758-1.784l-1.45-1.398h9.936c.212 0 .532.174.65.366l6.756 15.174c.048.152-.012.268-.052.322-.042.054-.132.146-.29.146h-51.092c-.316 0-.472-.312-.316-.624zm20.49 27.346h11.11v-2.084h-11.11v2.084zm35.424-12.736l-2.04-2.062c-.314-.314-.822-.316-1.138-.004l-6.27 6.192-2.252-2.278c-.15-.152-.354-.238-.568-.24h-.004c-.212 0-.416.084-.568.234l-2.06 2.04c-.316.312-.318.822-.006 1.138l4.848 4.904c.156.158.364.238.572.238.204 0 .408-.076.564-.234l8.916-8.79c.15-.148.238-.354.238-.568.002-.214-.082-.418-.232-.57zm-7.454 14.38c-5.824 0-10.562-4.738-10.562-10.562 0-5.824 4.738-10.562 10.562-10.562 5.824 0 10.562 4.738 10.562 10.562 0 5.824-4.738 10.562-10.562 10.562zm-37.244-15.404h7.128v-7.128h-7.128v7.128zm37.244-7.732c-.504 0-.998.038-1.488.096-.71.084-1.404.226-2.074.424-1.52.452-2.918 1.186-4.142 2.138v-2.054h-7.128v7.128h3.23c-.624 1.492-.972 3.126-.972 4.842 0 .452.028.898.074 1.338.076.712.22 1.402.41 2.074 1.492 5.278 6.342 9.162 12.09 9.162 6.934 0 12.574-5.64 12.574-12.574s-5.64-12.574-12.574-12.574zm-18.304 13.912v-13.912h-8.34v13.912h-14.912v-17.068h37.994v3.676c.67-.198 1.364-.34 2.074-.424v-3.252h4.436c.78 0 1.494-.36 1.958-.99.464-.628.598-1.418.324-2.278l-6.852-15.388c-.528-.912-1.506-1.5-2.494-1.5h-12.086l-4.634-4.474c-.966-.93-2.48-.93-3.444 0l-4.636 4.474h-12.164c-.988 0-1.968.588-2.546 1.598l-6.842 15.404c-.232.746-.1 1.534.364 2.164.464.628 1.178.99 1.96.99h4.514v19.142h16.946v2.272h8.428v-2.272h6.166c-.19-.672-.334-1.362-.41-2.074h-5.804z"/></svg>