<svg width="64" height="64" viewBox="0 0 64 64" xmlns="http://www.w3.org/2000/svg"><title>04020homecareF</title><path d="M12.329 42.792h8.035v-8.035h-8.035v8.035zm11.06 14.883h10.579v-2.872h-10.579v2.872zm34.168-15.87l2.106 2.126c.155.157.242.37.239.588 0 .221-.091.434-.246.586l-9.202 9.076c-.163.161-.374.237-.584.237-.215 0-.429-.083-.59-.246l-5.004-5.06c-.322-.324-.32-.853.006-1.175l2.129-2.106c.155-.153.365-.239.584-.239h.004c.221 0 .431.091.586.244l2.325 2.354 6.472-6.394c.326-.318.851-.318 1.175.008zm-32.898-19.743h8.035v-8.037h-8.035v8.037zm32.32 6.229c.047-.064.12-.198.066-.376l-7.436-16.696c-.136-.225-.5-.421-.741-.421h-10.998l1.645 1.588c.524.508.824 1.216.824 1.943v9.412c0 .613-.498 1.111-1.113 1.111-.613 0-1.111-.498-1.113-1.111v-9.412c0-.128-.052-.252-.145-.341l-9.059-8.741c-.184-.178-.471-.175-.659 0l-9.057 8.741c-.093.089-.147.215-.147.341v9.412c0 .613-.498 1.111-1.113 1.111-.613 0-1.111-.498-1.111-1.111v-9.412c0-.729.299-1.437.824-1.943l1.647-1.588h-11.089c-.239 0-.603.196-.793.526l-7.346 16.535-.008.056c-.169.378.041.549.376.549h56.202c.188 0 .295-.109.341-.173zm-15.727 14.501c-.733 1.542-1.154 3.26-1.154 5.079 0 .795.081 1.569.229 2.318 1.08 5.446 5.88 9.553 11.642 9.553 6.557 0 11.871-5.314 11.871-11.871s-5.314-11.871-11.871-11.871c-.456 0-.906.031-1.35.083-2.023.229-3.892.968-5.477 2.087-1.664 1.175-3.008 2.764-3.89 4.622zm-2.246 0h-2.023v-8.035h8.037v1.053c1.678-.972 3.574-1.61 5.599-1.806v-3.314h-44.077v19.499h18.12v-15.432h8.031v15.432h-8.029v2.94h8.029v-2.94h5.549c-.126-.756-.209-1.528-.209-2.318 0-1.794.353-3.503.972-5.079z"/></svg>