<svg width="64" height="64" viewBox="0 0 64 64" xmlns="http://www.w3.org/2000/svg"><title>04023homerepairF</title><path d="M18.178 36.553l-16.8 16.811c-1.842 1.851-1.835 4.843.014 6.686 1.849 1.842 4.843 1.838 6.686-.014l16.8-16.814c.638-.638.635-1.675-.005-2.311l-4.382-4.366c-.635-.633-1.678-.633-2.313.007zm15.374-29.767c3.925.379 5.15 1.525 6.256 4.283 1.049 2.615.048 5.211-1.2 6.763-.469.581-1.998 2.139-6.201 6.334l4.926 4.987c4.062-4.062 5.737-5.739 6.318-6.327 1.634-1.65 2.798-1.995 3.813-2.135.711-.098 2.473.142 3.41 1.088.72.725 1.214 1.465.832 2.345-.201.464-.229 1.051.128 1.408.681.695 2.546 2.569 3.296 3.326.357.357.937.359 1.294.002l6.304-6.274c.359-.359.361-.937.002-1.294l-3.305-3.321c-.354-.359-.933-.338-1.394-.139-.889.384-1.637-.103-2.357-.827-.718-.722-1.207-1.472-.816-2.359.201-.464.222-1.042-.135-1.397l-5.36-5.385c-.512-.503-1.051-.946-1.616-1.342-9.168-6.389-19.342-2.082-18.953-.313.153.706 2.994.407 4.759.576zm-24.366-3.298c.923 0 1.863.133 2.791.414 2.558.777 4.562 2.517 5.723 4.704 1.17 2.183 1.504 4.814.731 7.367l-.027.101.978 1.019 24.832 25.122c.482-.233.974-.448 1.474-.59.869-.251 1.774-.382 2.686-.382 1.584 0 3.191.391 4.677 1.214 1.365.754 2.473 1.803 3.301 3.015.862 1.257 1.401 2.697 1.6 4.185.025.222-.009.455-.123.649-.194.35-.553.544-.923.544-.174 0-.347-.041-.51-.13l-4.583-2.546-4.034 2.421.08 4.706 4.59 2.553c.185.103.35.27.45.475.233.53 0 1.147-.53 1.394 0 0-2.971.846-4.395.864h-.075c-1.401 0-2.894-.466-4.235-1.211-1.026-.569-1.913-1.312-2.649-2.162-.597-.686-1.061-1.534-1.445-2.261-.738-1.397-.843-3.792-.512-5.89l-26.658-26.782c-.834.297-1.721.489-2.626.537l-.583.016c-.937 0-1.886-.13-2.816-.411-1.495-.45-2.894-1.218-3.872-2.251-.978-1.031-2.439-3.755-2.439-3.755-.194-.551.087-1.15.631-1.351.112-.037.226-.053.341-.053.107 0 .215.016.313.043l5.029 1.518 3.431-3.221-1.07-4.581-5.019-1.515c-.553-.174-.871-.757-.699-1.317.059-.217.201-.405.379-.542 1.205-.894 2.615-1.506 4.119-1.765.546-.096 1.106-.146 1.671-.146z"/></svg>