<svg width="64" height="64" viewBox="0 0 64 64" xmlns="http://www.w3.org/2000/svg"><title>04020homecareC</title><path d="M27.14 53.312v-2.242h6.953c.083.77.237 1.515.444 2.242h-7.397zm-13.157-20.951h34.426v3.596c-.237-.012-.473-.037-.714-.037-1.27 0-2.492.188-3.658.512v-.894h-6.278v4.686c-1.608 1.705-2.783 3.819-3.351 6.171v-10.857h-6.276v12.04h6.049c-.101.663-.167 1.336-.167 2.025l.008.157h-5.915v-2.166h-14.123v-15.234zm-5.037-2.327l5.717-12.8c.149-.256.431-.411.621-.411h8.659l-1.286 1.241c-.409.394-.644.948-.644 1.517v7.35c0 .481.388.869.869.869.479 0 .869-.388.869-.867v-7.352c0-.099.041-.196.114-.266l7.075-6.827c.145-.136.37-.138.514 0l7.075 6.827c.072.068.114.167.114.266v7.352c0 .479.388.867.869.867s.869-.388.869-.869v-7.35c0-.568-.235-1.121-.644-1.517l-1.286-1.241h8.593c.188 0 .471.155.578.33l5.807 13.039c.043.138-.014.244-.052.295-.035.05-.12.134-.264.134h-43.898c-.396 0-.396-.233-.268-.588zm50.362 19.57c0 6.402-5.209 11.615-11.613 11.615s-11.615-5.213-11.615-11.615c0-6.404 5.211-11.615 11.615-11.615s11.613 5.211 11.613 11.615zm-5.733-6.39c-.32-.326-.844-.326-1.169-.008l-6.893 6.809-2.498-2.529c-.155-.157-.363-.244-.584-.246-.204-.07-.431.085-.586.239l-2.254 2.234c-.326.32-.328.844-.008 1.169l5.302 5.359c.161.165.374.246.588.246.211 0 .419-.078.58-.237l9.749-9.61c.157-.155.244-.365.246-.584.002-.221-.085-.431-.239-.588l-2.232-2.252zm-35.072-1.4h6.276v-6.276h-6.276v6.276zm9.629-16.192h6.276v-6.278h-6.276v6.278zm34.172 7.226c0-17.204-13.948-31.151-31.151-31.151-17.204 0-31.151 13.948-31.151 31.151 0 17.204 13.948 31.151 31.151 31.151 3.817 0 7.457-.721 10.837-1.976 1.738.801 3.669 1.261 5.706 1.261 7.544 0 13.682-6.138 13.682-13.682 0-1.976-.429-3.848-1.185-5.547 1.344-3.481 2.112-7.253 2.112-11.208z"/></svg>