<svg width="64" height="64" viewBox="0 0 64 64" xmlns="http://www.w3.org/2000/svg"><title>04021homechckpF</title><path d="M48.774 48.431l-10.971 10.816c-.18.178-.417.266-.652.266-.242 0-.481-.093-.663-.275l-5.966-6.035c-.361-.365-.357-.954.008-1.317l2.537-2.51c.178-.173.436-.258.661-.268.248.002.485.099.657.277l2.814 2.845 7.756-7.663c.365-.361.956-.357 1.317.008l2.51 2.537c.175.178.273.413.27.661-.002.248-.101.483-.279.659zm-30.844-1.224c-.609 0-1.107-.495-1.107-1.107 0-.611.498-1.107 1.107-1.107h11.685c.609 0 1.107.495 1.107 1.107 0 .611-.498 1.107-1.107 1.107h-11.685zm0-8.76h26.973c.609 0 1.107.498 1.107 1.107 0 .611-.498 1.107-1.107 1.107h-26.973c-.609 0-1.107-.495-1.107-1.107 0-.609.498-1.107 1.107-1.107zm0-6.553h26.973c.609 0 1.107.498 1.107 1.107 0 .611-.498 1.109-1.107 1.109h-26.973c-.609 0-1.107-.498-1.107-1.109 0-.609.498-1.107 1.107-1.107zm0-6.545h26.973c.609 0 1.107.495 1.107 1.107 0 .609-.498 1.107-1.107 1.107h-26.973c-.609 0-1.107-.498-1.107-1.107 0-.611.498-1.107 1.107-1.107zm0-6.547h26.973c.609 0 1.107.495 1.107 1.107 0 .611-.498 1.107-1.107 1.107h-26.973c-.609 0-1.107-.495-1.107-1.107 0-.611.498-1.107 1.107-1.107zm13.483-13.905c.83 0 1.503.673 1.503 1.503 0 .83-.673 1.503-1.503 1.503-.83 0-1.503-.673-1.503-1.503 0-.83.673-1.503 1.503-1.503zm-9.288 8.562h18.564c1.315 0 2.393-1.078 2.393-2.393v-1.588c0-1.317-1.078-2.395-2.393-2.395h-3.592v-3.188c0-1.317-1.078-2.395-2.395-2.395h-6.59c-1.317 0-2.395 1.078-2.395 2.395v3.188h-3.592c-1.317 0-2.395 1.078-2.395 2.395v1.588c0 1.315 1.078 2.393 2.395 2.393zm25.102-4.296h-2.3v1.844c0 2.382-1.951 4.333-4.333 4.333h-18.345c-2.382 0-4.331-1.951-4.331-4.333v-1.844h-2.331c-3.08 0-5.587 2.515-5.587 5.603v43.627c0 3.091 2.506 5.605 5.587 5.605h31.641c3.08 0 5.587-2.515 5.587-5.605v-43.627c0-3.089-2.506-5.603-5.587-5.603z"/></svg>