<svg width="64" height="64" viewBox="0 0 64 64" xmlns="http://www.w3.org/2000/svg"><title>01002homeF</title><path d="M27.637 56.695h9.012v-3.112h-9.012v3.112zm-.005-34.676h9.016v-9.019h-9.016v9.019zm-27.596 6.535l8.248-18.584c.214-.369.621-.59.89-.59h12.442l-1.848 1.782c-.588.566-.925 1.363-.925 2.179v10.56c0 .69.559 1.249 1.249 1.249.688 0 1.247-.559 1.247-1.249v-10.56c0-.143.059-.281.164-.381l10.165-9.811c.209-.197.531-.2.737 0l10.165 9.808c.105.1.162.24.162.383v10.56c.002.69.559 1.249 1.249 1.249.69 0 1.249-.559 1.249-1.249v-10.56c0-.816-.338-1.611-.925-2.179l-1.846-1.782h12.342c.271 0 .678.221.833.473l8.341 18.732c.062.2-.019.352-.071.423-.052.071-.174.195-.383.195h-63.064c-.381 0-.531-.314-.419-.649zm13.765 16.727h9.016v-9.016h-9.016v9.016zm27.663 0h9.016v-9.016h-9.016v9.016zm-34.157-13.582h49.459v21.884h-20.117v-17.319h-9.012v17.319h-20.331v-21.884zm18.903 30.101h11.871v-3.221h-11.871v3.221z"/></svg>