<svg width="64" height="64" viewBox="0 0 64 64" xmlns="http://www.w3.org/2000/svg"><title>02016hurricaneF</title><path d="M34.727 31.227l-.032-.096-.009-.025-.046-.117-.043-.098-.018-.041-.069-.137c-.779-1.454-2.59-2.002-4.046-1.223-1.454.777-2.002 2.59-1.223 4.043l.075.133c.816 1.355 2.56 1.845 3.968 1.09 1.273-.679 1.851-2.151 1.456-3.483l-.014-.046zm8.039-11.015c-1.317-.002-4.574-.105-5.863 3.339 1.045.613 1.986 1.419 2.766 2.405.359.457.683.949.965 1.479 1.029 1.92 1.362 4.027 1.086 6.032-.101.738-.286 1.463-.546 2.158-.021.059-3.696 11.118-18.242 10.754 0 0-3.23 0-3.186-1.47 0 0 .133-.88 1.239-.875 1.317.002 4.574.105 5.865-3.339-1.39-.814-2.597-1.973-3.477-3.433l-.258-.45c-.802-1.502-1.179-3.115-1.175-4.706v-.034l.009-.382c.011-.272.034-.544.069-.816l.002-.007c.098-.768.288-1.522.56-2.245.021-.069 3.701-11.118 18.24-10.754 0 0 3.23 0 3.186 1.47 0 0-.135.878-1.239.875zm20.715 2.485c-6.005-10.418-16.249-12.603-23.785-12.603-4.059 0-8.373.651-12.489 1.89l-.13.03c-.599.135-1.147.206-1.627.206-1.495 0-2.062-.667-2.359-1.173-1.278-2.158.72-5.73 2.023-7.664.421-.622.464-1.387.112-2.046-.521-.985-1.815-1.378-2.775-.818-13.605 7.84-14.459 23.854-10.709 36.299l.023.103c.617 2.699-.256 3.57-.965 3.986-1.625.953-4.354.206-7.669-2.023-.944-.638-2.299-.302-2.864.681-.357.619-.357 1.36.002 1.984 6.007 10.416 16.251 12.603 23.787 12.603 4.059 0 8.373-.654 12.487-1.89l.13-.027c.599-.137 1.145-.206 1.627-.206 1.495 0 2.062.667 2.359 1.17 1.278 2.16-.72 5.73-2.025 7.666-.421.619-.462 1.385-.11 2.046.354.67 1.038 1.088 1.781 1.088.345 0 .69-.094.994-.27 13.591-7.838 14.455-23.829 10.715-36.27l-.03-.135c-.617-2.699.256-3.568.965-3.986 1.618-.965 4.354-.21 7.666 2.023.944.64 2.299.302 2.866-.679.357-.619.357-1.362-.002-1.986z"/></svg>