<svg width="64" height="64" viewBox="0 0 64 64" xmlns="http://www.w3.org/2000/svg"><title>02016hurricaneC</title><path d="M52.497 27.98c-.434.754-1.478 1.016-2.201.518-2.149-1.447-3.927-1.955-4.947-1.352-.27.159-.991.584-.559 2.471l.023.091c2.529 8.431 1.932 19.262-7.292 24.584-.235.134-.5.204-.766.204-.568 0-1.092-.318-1.367-.832-.268-.506-.237-1.094.085-1.571 1.449-2.151 1.943-3.956 1.354-4.949-.19-.324-.522-.692-1.42-.692-.308 0-.661.043-1.049.132l-.078.019c-2.783.836-5.698 1.278-8.444 1.278-5.116 0-12.069-1.489-16.151-8.566-.277-.481-.277-1.051-.002-1.528.434-.751 1.474-1.003 2.199-.522 2.153 1.451 3.929 1.963 4.947 1.356.273-.159.989-.586.559-2.471l-.014-.062c-2.539-8.436-1.951-19.285 7.286-24.611.737-.421 1.73-.126 2.131.626.27.506.237 1.094-.083 1.573-1.451 2.149-1.945 3.951-1.356 4.947.192.322.524.692 1.418.692.31 0 .663-.043 1.053-.132l.105-.025c2.777-.832 5.682-1.27 8.419-1.27 5.114 0 12.067 1.484 16.149 8.566.277.481.277 1.051.002 1.526zm-20.395 6.642c-.948.508-2.118.178-2.667-.733l-.05-.089c-.524-.977-.157-2.195.822-2.717.979-.524 2.195-.155 2.719.822l.045.093.012.027.029.066.031.078.006.017.021.064.01.031c.264.896-.124 1.885-.979 2.341zm4.998-11.318c-9.769-.244-12.243 7.182-12.257 7.228-.184.485-.31.991-.376 1.509l-.002.004c-.023.182-.039.365-.045.547l-.006.258v.023c-.004 1.069.25 2.153.789 3.163l.173.301c.593.983 1.402 1.761 2.337 2.308-.869 2.314-3.058 2.244-3.941 2.244-.743-.004-.834.588-.834.588-.029.987 2.143.987 2.143.987 9.773.244 12.245-7.187 12.257-7.226.175-.469.299-.954.367-1.451.186-1.346-.037-2.762-.729-4.053-.19-.357-.407-.687-.648-.995-.524-.661-1.156-1.204-1.858-1.614.865-2.314 3.053-2.246 3.939-2.244.741 0 .832-.588.832-.588.029-.989-2.141-.989-2.141-.989zm-6.016-21.471c-17.166 0-31.083 13.917-31.083 31.083 0 17.166 13.917 31.083 31.083 31.083 17.166 0 31.083-13.917 31.083-31.083 0-17.166-13.917-31.083-31.083-31.083z"/></svg>