<svg width="64" height="64" viewBox="0 0 64 64" xmlns="http://www.w3.org/2000/svg"><title>02019idtheftF</title><path d="M53.31 27.588h-15.468c-.716 0-1.296-.582-1.296-1.296 0-.716.58-1.298 1.296-1.298h15.468c.716 0 1.296.582 1.296 1.298 0 .714-.58 1.296-1.296 1.296zm0 6.39h-15.468c-.716 0-1.296-.582-1.296-1.298 0-.714.58-1.296 1.296-1.296h15.468c.716 0 1.296.582 1.296 1.296 0 .716-.58 1.298-1.296 1.298zm0 6.388h-15.468c-.716 0-1.296-.582-1.296-1.296 0-.716.58-1.298 1.296-1.298h15.468c.716 0 1.296.582 1.296 1.298 0 .714-.58 1.296-1.296 1.296zm-21.892.106c0 3.168-2.592 5.76-5.76 5.76h-13.932c-3.168 0-5.76-2.592-5.76-5.76v-16.96c0-3.168 2.592-5.76 5.76-5.76h13.932c3.168 0 5.76 2.592 5.76 5.76v16.96zm-13.33-3.24c-1.31 0-2.344 1.034-2.344 2.344 0 1.31 1.034 2.344 2.344 2.344 1.286 0 2.344-1.034 2.344-2.344 0-1.31-1.058-2.344-2.344-2.344zm.126-12.022c1.74 0 2.698.958 2.698 2.168 0 2.648-4.74 2.874-4.74 6.556v1.986h3.706v-1.86c0-2.042 5.018-2.496 5.018-6.882 0-3.126-2.572-5.27-6.304-5.27-2.344 0-4.284.832-5.848 2.194l1.764 2.622c1.11-1.084 2.496-1.514 3.706-1.514zm38.336-13.064h-49.35c-3.96 0-7.2 3.24-7.2 7.2v25.454c0 3.96 3.24 7.2 7.2 7.2h49.35c3.96 0 7.2-3.24 7.2-7.2v-25.454c0-3.96-3.24-7.2-7.2-7.2z"/></svg>