<svg width="64" height="64" viewBox="0 0 64 64" xmlns="http://www.w3.org/2000/svg"><title>02019idtheftL</title><path d="M61.867 45.805c0 2.686-2.185 4.871-4.873 4.871h-49.989c-2.688 0-4.873-2.185-4.873-4.871v-26.799c0-2.688 2.185-4.873 4.873-4.873h49.989c2.688 0 4.873 2.185 4.873 4.873v26.799zm-9.066-20.079h-15.011c-.59 0-1.066.477-1.066 1.066 0 .59.477 1.068 1.066 1.068h15.011c.59 0 1.066-.479 1.066-1.068 0-.59-.477-1.066-1.066-1.066zm0 6.201h-15.011c-.59 0-1.066.477-1.066 1.066 0 .59.477 1.068 1.066 1.068h15.011c.59 0 1.066-.479 1.066-1.068 0-.59-.477-1.066-1.066-1.066zm0 6.199h-15.011c-.59 0-1.066.479-1.066 1.066 0 .59.477 1.068 1.066 1.068h15.011c.59 0 1.066-.479 1.066-1.068 0-.587-.477-1.066-1.066-1.066zm-32.465-3.877v1.837h-3.658v-1.962c0-3.634 4.678-3.857 4.678-6.47 0-1.195-.946-2.141-2.662-2.141-1.195 0-2.563.425-3.658 1.493l-1.742-2.587c1.543-1.344 3.459-2.165 5.772-2.165 3.684 0 6.223 2.115 6.223 5.201 0 4.33-4.953 4.778-4.953 6.794zm-1.766 7.758c-1.294 0-2.314-1.02-2.314-2.314s1.02-2.314 2.314-2.314c1.27 0 2.314 1.02 2.314 2.314s-1.044 2.314-2.314 2.314zm8.235-23.5h-15.198c-2.614 0-4.75 2.137-4.75 4.75v18.136c0 2.614 2.137 4.752 4.75 4.752h15.198c2.614 0 4.75-2.139 4.75-4.752v-18.136c0-2.614-2.137-4.75-4.75-4.75zm30.189-6.507h-49.989c-3.863 0-7.006 3.143-7.006 7.006v26.799c0 3.863 3.143 7.004 7.006 7.004h49.989c3.863 0 7.006-3.141 7.006-7.004v-26.799c0-3.863-3.143-7.006-7.006-7.006z"/></svg>