<svg width="64" height="64" viewBox="0 0 64 64" xmlns="http://www.w3.org/2000/svg"><title>06024insurancecrdF</title><path d="M55.208 30.116h-22.481c-.659 0-1.196-.535-1.196-1.196 0-.659.537-1.194 1.196-1.194h22.481c.661 0 1.194.535 1.194 1.194 0 .661-.533 1.196-1.194 1.196zm0 6.373h-22.481c-.659 0-1.196-.535-1.196-1.196 0-.659.537-1.196 1.196-1.196h22.481c.661 0 1.194.537 1.194 1.196 0 .661-.533 1.196-1.194 1.196zm0 6.373h-22.481c-.659 0-1.196-.535-1.196-1.196 0-.659.537-1.196 1.196-1.196h22.481c.661 0 1.194.537 1.194 1.196 0 .661-.533 1.196-1.194 1.196zm-28.03-.013h-4.391l-.002-5.636h-7.81l-3.473 5.634h-4.624l13.608-21.883h6.693v21.886zm5.548-21.868h11.241c.661 0 1.194.535 1.194 1.194 0 .661-.533 1.196-1.194 1.196h-11.241c-.659 0-1.196-.535-1.196-1.196 0-.659.537-1.194 1.196-1.194zm-9.519 12.354v-8.714s-5.034 8.188-5.366 8.714h5.366zm33.479-22.335h-49.374c-4.031 0-7.313 3.28-7.313 7.313v27c0 4.033 3.282 7.313 7.313 7.313h49.374c4.033 0 7.313-3.28 7.313-7.313v-27c0-4.033-3.28-7.313-7.313-7.313z"/></svg>