<svg width="64" height="64" viewBox="0 0 64 64" xmlns="http://www.w3.org/2000/svg"><title>06024insurancecrdS</title><path d="M57 10h-50c-3.85 0-7 3.15-7 7v30c0 3.85 3.15 7 7 7h50c3.85 0 7-3.15 7-7v-30c0-3.85-3.15-7-7-7zm-25 14h12c1.105 0 2 .895 2 2s-.895 2-2 2h-12c-1.105 0-2-.895-2-2s.895-2 2-2zm24 16h-24c-1.105 0-2-.895-2-2s.895-2 2-2h24c1.105 0 2 .895 2 2s-.895 2-2 2zm-30 2.943h-4.324l-.004-5.637h-7.694l-3.422 5.635h-4.556l13.406-21.884h6.594v21.886zm-3.912-9.515v-8.713s-4.958 8.186-5.287 8.713h5.287z" fill="#000"/></svg>