<svg width="64" height="64" viewBox="0 0 64 64" xmlns="http://www.w3.org/2000/svg"><title>06024insurancecrdC</title><path d="M53.208 40.947c0 2.672-2.174 4.846-4.846 4.846h-32.723c-2.67 0-4.846-2.174-4.846-4.846v-17.895c0-2.672 2.176-4.846 4.846-4.846h32.723c2.672 0 4.846 2.174 4.846 4.846v17.895zm-5.828-11.921h-14.898c-.583 0-1.058.473-1.058 1.056 0 .583.475 1.058 1.058 1.058h14.898c.583 0 1.056-.475 1.056-1.058 0-.583-.473-1.056-1.056-1.056zm0 4.222h-14.898c-.583 0-1.058.475-1.058 1.058 0 .581.475 1.056 1.058 1.056h14.898c.583 0 1.056-.475 1.056-1.056 0-.583-.473-1.058-1.056-1.058zm-21.473-.505h-2.814c.594-.965 2.047-3.323 2.814-4.574v4.574zm-11.034 6.833h3.69l.078-.125s1.817-2.952 2.223-3.607h4.763l.002 3.735h3.44v-15.036h-4.848l-9.348 15.034zm17.609-12.907h7.45c.581 0 1.056-.473 1.056-1.058 0-.581-.475-1.056-1.056-1.056h-7.45c-.583 0-1.058.475-1.058 1.056 0 .585.475 1.058 1.058 1.058zm14.898 10.801h-14.898c-.583 0-1.058.475-1.058 1.058 0 .585.475 1.058 1.058 1.058h14.898c.583 0 1.056-.473 1.056-1.058 0-.583-.473-1.058-1.056-1.058zm-15.38-37.472c-17.672 0-32 14.326-32 32 0 17.672 14.328 32 32 32s32-14.328 32-32c0-17.674-14.328-32-32-32z"/></svg>