<svg width="64" height="64" viewBox="0 0 64 64" xmlns="http://www.w3.org/2000/svg"><title>01006jetskiC</title><path d="M31.766 30.693c-.026.083-.38.429-1.56.489-2.491.123-9.109.453-16.3-.429-4.742-.58-7.301-1.022-8.444-1.243l-1.824-2.808c-.285-.425 0-.908.48-.85l7.241.712c7.766 1.32 11.679 1.335 14.378.712l.096.072c3.177 1.59 5.007 2.752 5.932 3.345zm.234-30.693c-17.673 0-32 14.327-32 32 0 .546.055 1.078.081 1.617l4.621-2.121c.99.206 3.598.684 8.95 1.339 3.883.476 7.59.608 10.604.608 2.708 0 4.854-.106 6.057-.166 2.691-.136 3.333-1.477 3.484-2.049.234-.891-.147-1.832-.952-2.344-.74-.47-2.151-1.36-4.417-2.559.559-.264 1.107-.553 1.681-.857l-.017-.151c-.317-2.604-2.965-3.832-2.993-3.843-.451-.204-.697-.695-.591-1.18.104-.482.531-.825 1.024-.825h.002l2.363.004c.255 0 .499.094.693.261l3.923 3.454 2.423-1.25s4.232.321 9.677 2.876c8.162 3.828 11.086 6.85 12.242 8.54.138.202.249.417.334.633l-59.027 1.256c.072.708.2 1.399.317 2.091l58.468-1.243c-.098.13-.21.259-.344.385-9.256 8.816-30.387 8.077-30.387 8.077-11.014-.306-19.998-.67-24.829-.961-.429-.028-.827-.034-1.207-.051 4.633 11.962 16.221 20.457 29.819 20.457 17.675 0 32-14.327 32-32 0-17.673-14.325-32-32-32z"/></svg>