<svg width="64" height="64" viewBox="0 0 64 64" xmlns="http://www.w3.org/2000/svg"><title>01006jetskiF</title><path d="M1.993 41.088c1.66 2.75 3.077 2.394 5.173 2.522 4.91.296 14.042.666 25.238.975 0 0 21.48.753 30.89-8.207.135-.13.251-.26.349-.393l-63.643 1.355 1.993 3.749zm32.433-10.097c1.2-.06 1.562-.411 1.585-.496-.94-.603-2.8-1.785-6.031-3.399l-.097-.077c-2.745.635-6.722.618-14.616-.722l-7.36-.724c-.49-.057-.777.433-.49.865l1.856 2.854c1.161.225 3.761.675 8.583 1.264 7.309.896 14.036.561 16.569.435zm29.464 2.854l-63.868 1.36 8.477-3.893c1.008.207 3.659.695 9.099 1.36 3.946.485 7.717.618 10.779.618 2.752 0 4.933-.108 6.157-.168 2.736-.139 3.387-1.503 3.54-2.083.24-.907-.15-1.863-.965-2.383-.753-.479-2.187-1.384-4.491-2.602.569-.267 1.126-.561 1.71-.87l-.018-.154c-.322-2.646-3.013-3.895-3.041-3.908-.457-.207-.709-.706-.602-1.198.106-.49.541-.839 1.042-.839h.002l2.403.005c.26 0 .508.095.702.265l3.988 3.511 2.465-1.271s4.303.327 9.836 2.922c8.298 3.893 11.269 6.965 12.445 8.684.141.205.252.421.34.642z"/></svg>