<svg width="64" height="64" viewBox="0 0 64 64" xmlns="http://www.w3.org/2000/svg"><title>01006jetskiL</title><path d="M32.808 42.297c-9.998-.275-18.982-.624-24.033-.928l-.777-.033c-1.501-.047-2.254-.073-3.319-1.832l-1.506-2.834 57.803-1.45c-7.562 6.555-22.522 7.093-27.02 7.093-.722 0-1.13-.014-1.147-.016zm3.337-12.352c-.177.151-.59.365-1.438.408-2.413.12-8.829.439-15.798-.416-3.837-.469-5.804-.759-6.785-.922l-1.669-2.575 5.816.439c4.325.736 7.666 1.091 10.212 1.091 2.213 0 3.798-.267 5.122-.685l4.541 2.66zm-2.113-3.68l.987-.512c.365-.196.745-.396 1.157-.606l5.251-2.709c.981.12 4.484.661 8.752 2.664 7.338 3.442 10.282 6.214 11.459 7.934l.065.129-57.906 1.453 7.878-3.617c1.032.173 3.054.473 6.987.953 3.762.461 7.358.59 10.276.59 2.626 0 4.706-.104 5.873-.163 2.268-.114 3.291-1.122 3.47-2.118.159-.891-.275-1.669-1.13-2.177l-3.119-1.822zm29.286 5.622c-1.92-2.805-6.049-5.706-12.273-8.627-5.384-2.524-9.561-2.866-9.735-2.88-.186-.018-.377.025-.543.112l-2.703 1.393-2.983-2.626c-.186-.163-.424-.251-.669-.253l-2.291-.006h-.004c-.471 0-.881.326-.989.785-.108.461.116.936.541 1.146.657.326 2.583 1.536 2.778 2.776l.016.043-.396.206c-2.169 1.151-3.737 1.981-7.583 1.981-2.43 0-5.659-.347-9.965-1.073l-7.87-.598c-.369-.041-.714.141-.918.443-.204.302-.231.69-.073 1.018l2.342 3.747-.039.075v.004l-9.368 4.302c-.255.118-.449.333-.539.598-.088.267-.065.557.067.804l2.791 5.251c1.665 2.756 3.372 2.809 5.023 2.864l.718.029c5.073.306 14.082.655 24.092.932 0 0 .437.016 1.212.016 4.798 0 21.065-.586 28.98-8.123 1.269-1.208 1.412-2.83.382-4.337z"/></svg>