<svg width="64" height="64" viewBox="0 0 64 64" xmlns="http://www.w3.org/2000/svg"><title>07013jumpstartC</title><path d="M32 0c-17.673 0-32 14.327-32 32 0 17.673 14.327 32 32 32 17.673 0 32-14.327 32-32 0-17.673-14.327-32-32-32zm20.179 47.433c0 1.08-.884 1.966-1.964 1.966h-37.194c-1.082 0-1.966-.886-1.966-1.966v-23.203h41.124v23.203zm1.609-24.988h-44.168c-.587-.026-1.061-.508-1.061-1.099v-2.799c0-.608.497-1.105 1.107-1.105h7.603v-3.343c0-.612.497-1.109 1.107-1.109h3.003c.61 0 1.109.497 1.109 1.109v3.343h18.735v-3.343c0-.612.499-1.109 1.105-1.109h3.007c.606 0 1.105.497 1.105 1.109v3.343h7.299c.608 0 1.105.497 1.105 1.105v2.799c0 .591-.474 1.073-1.058 1.099zm-15.554 10.493h3.003v3.003c0 .595.485 1.08 1.08 1.08.597 0 1.082-.485 1.082-1.08v-3.003h3.003c.595 0 1.08-.485 1.08-1.078 0-.595-.485-1.08-1.08-1.08h-3.003v-3.005c0-.593-.485-1.078-1.082-1.078-.595 0-1.08.485-1.08 1.078v3.005h-3.003c-.595 0-1.08.485-1.08 1.08 0 .593.485 1.078 1.08 1.078zm-21.233 0h8.168c.595 0 1.08-.485 1.08-1.078 0-.595-.485-1.08-1.08-1.08h-8.168c-.597 0-1.082.485-1.082 1.08 0 .593.485 1.078 1.082 1.078z"/></svg>