<svg width="64" height="64" viewBox="0 0 64 64" xmlns="http://www.w3.org/2000/svg"><title>07013jumpstartL</title><path d="M61.138 12.884h-8.252v-3.025c0-1.577-1.283-2.859-2.859-2.859h-3.974c-1.577 0-2.859 1.283-2.859 2.859v3.025h-21.982v-3.025c0-1.577-1.283-2.859-2.862-2.859h-3.971c-1.577 0-2.859 1.283-2.859 2.859v3.025h-8.66c-1.577 0-2.859 1.285-2.859 2.859v3.7c0 1.577 1.283 2.859 2.859 2.859h.442v31.635c0 2.202 1.792 3.995 3.995 3.995h49.18c2.202 0 3.995-1.792 3.995-3.995v-31.635h.668c1.577 0 2.862-1.283 2.862-2.859v-3.7c0-1.574-1.285-2.859-2.862-2.859zm-3.461 41.054c0 .662-.539 1.204-1.201 1.204h-49.18c-.662 0-1.201-.541-1.201-1.204v-31.635h51.582v31.635zm3.527-34.494l-.066.068-58.344-.068.066-3.766 58.344.066v3.7zm-20.318 16h4v4.003c0 .773.625 1.396 1.398 1.396.77 0 1.398-.623 1.398-1.396v-4.003h4c.77 0 1.398-.623 1.398-1.396 0-.773-.628-1.396-1.398-1.396h-4v-4.005c0-.773-.628-1.396-1.398-1.396-.773 0-1.398.623-1.398 1.396v4.005h-4c-.773 0-1.398.623-1.398 1.396 0 .773.625 1.396 1.398 1.396zm-28.076 0h10.796c.773 0 1.398-.623 1.398-1.396 0-.773-.625-1.396-1.398-1.396h-10.796c-.77 0-1.398.623-1.398 1.396 0 .773.628 1.396 1.398 1.396z"/></svg>