<svg width="64" height="64" viewBox="0 0 64 64" xmlns="http://www.w3.org/2000/svg"><title>07013jumpstartF</title><path d="M11.934 32.506h11.292c.725 0 1.32.586 1.32 1.317 0 .725-.594 1.317-1.32 1.317h-11.292c-.728 0-1.317-.592-1.317-1.317 0-.731.589-1.317 1.317-1.317zm29.358 0h4.328v-4.33c0-.725.589-1.312 1.317-1.312.725 0 1.32.586 1.32 1.312v4.33h4.328c.725 0 1.317.586 1.317 1.317 0 .725-.592 1.317-1.317 1.317h-4.328v4.328c0 .728-.594 1.317-1.32 1.317-.728 0-1.317-.589-1.317-1.317v-4.328h-4.328c-.725 0-1.32-.592-1.32-1.317 0-.731.594-1.317 1.32-1.317zm-37.839 22.116c0 1.494 1.221 2.717 2.715 2.717h51.426c1.494 0 2.715-1.223 2.715-2.717v-32.081h-56.856v32.081zm59.018-41.467h-10.091v-4.623c0-.844-.69-1.532-1.529-1.532h-4.156c-.839 0-1.527.688-1.527 1.532v4.623h-25.908v-4.623c0-.844-.69-1.532-1.532-1.532h-4.153c-.842 0-1.532.688-1.532 1.532v4.623h-10.511c-.844 0-1.532.688-1.532 1.529v3.87c0 .816.655 1.481 1.469 1.517h61.065c.809-.035 1.466-.7 1.466-1.517v-3.87c0-.842-.69-1.529-1.529-1.529z"/></svg>