<?xml version="1.0" encoding="utf-8"?>
<!-- Generator: Adobe Illustrator 20.1.0, SVG Export Plug-In . SVG Version: 6.00 Build 0)  -->
<svg version="1.1" id="Layer_1" xmlns="http://www.w3.org/2000/svg" xmlns:xlink="http://www.w3.org/1999/xlink" x="0px" y="0px"
	 viewBox="0 0 73 72.5" style="enable-background:new 0 0 73 72.5;" xml:space="preserve">
<style type="text/css">
	.st0{fill:#6699CC;}
	.st1{fill:#7EA2C2;}
	.st2{fill:none;}
	.st3{fill:url(#SVGID_1_);}
	.st4{fill:#FFFFFF;}
</style>
<circle class="st0" cx="36.8" cy="36.2" r="33.5"/>
<title>icon-logo-milewise</title>
<path class="st1" d="M-2.5,336c-14.9-19-29.5-40.4-46.5-57c-15.3-15-33-34.4-51.7-45.2"/>
<g>
	<path class="st2" d="M45.2,3.9c-0.7-0.2-1.4-0.3-2.2-0.5l-1.8,13L45.2,3.9z"/>
	<path class="st2" d="M12.9,12.9c-0.5,0.5-1,1.1-1.5,1.6l10.4,8L12.9,12.9z"/>
	<path class="st2" d="M42.3,3.3C41.6,3.1,40.8,3,40.1,3l-0.6,13.1L42.3,3.3z"/>
	<path class="st2" d="M55.8,8.7c-0.6-0.4-1.2-0.8-1.9-1.2l-6.1,11.7L55.8,8.7z"/>
	<path class="st2" d="M39.4,2.9c-0.7-0.1-1.5-0.1-2.2-0.1L37.7,16L39.4,2.9z"/>
	<path class="st2" d="M50.7,5.8c-0.7-0.3-1.4-0.6-2-0.9l-4,12.5L50.7,5.8z"/>
	<path class="st2" d="M58.1,10.4c-0.6-0.5-1.2-0.9-1.8-1.3l-7.1,11.1L58.1,10.4z"/>
	<path class="st2" d="M53.3,7.1c-0.6-0.4-1.3-0.7-2-1l-5.1,12.1L53.3,7.1z"/>
	<path class="st2" d="M48,4.7c-0.7-0.2-1.4-0.5-2.1-0.7L43,16.9L48,4.7z"/>
	<path class="st2" d="M17.3,9.1c-0.6,0.4-1.2,0.9-1.8,1.3l8.9,9.7L17.3,9.1z"/>
	<path class="st2" d="M19.8,7.5c-0.6,0.4-1.3,0.8-1.9,1.2l8,10.5L19.8,7.5z"/>
	<path class="st2" d="M36.5,2.8c-0.7,0-1.5,0-2.2,0.1L36,16L36.5,2.8z"/>
	<path class="st2" d="M22.4,6.1c-0.7,0.3-1.3,0.7-2,1l7,11.1L22.4,6.1z"/>
	<path class="st2" d="M15,10.9c-0.6,0.5-1.1,1-1.6,1.5l9.7,8.9L15,10.9z"/>
	<path class="st2" d="M33.6,3c-0.7,0.1-1.5,0.2-2.2,0.3l2.8,12.9L33.6,3z"/>
	<path class="st2" d="M25.1,4.9c-0.7,0.3-1.4,0.5-2,0.9l6,11.7L25.1,4.9z"/>
	<path class="st2" d="M30.7,3.4c-0.7,0.1-1.5,0.3-2.2,0.5l3.9,12.6L30.7,3.4z"/>
	<path class="st2" d="M27.8,4c-0.7,0.2-1.4,0.4-2.1,0.7l5,12.2L27.8,4z"/>
	<path class="st2" d="M60.3,12.4c-0.5-0.5-1.1-1-1.6-1.5l-8,10.4L60.3,12.4z"/>
	<path class="st2" d="M67.3,50.1c0.3-0.7,0.6-1.3,0.9-2l-12.5-4L67.3,50.1z"/>
	<path class="st2" d="M70.2,38.9c0.1-0.7,0.1-1.5,0.1-2.2l-13.1,0.5L70.2,38.9z"/>
	<path class="st2" d="M68.4,47.4c0.2-0.7,0.5-1.4,0.7-2.1l-12.8-2.9L68.4,47.4z"/>
	<path class="st2" d="M69.8,41.8c0.1-0.7,0.2-1.5,0.3-2.2L57,39L69.8,41.8z"/>
	<path class="st2" d="M69.2,44.6c0.2-0.7,0.3-1.4,0.5-2.2l-13-1.7L69.2,44.6z"/>
	<path class="st2" d="M62.6,57.5c0.5-0.6,0.9-1.2,1.3-1.8l-11-7.1L62.6,57.5z"/>
	<path class="st2" d="M60.7,59.7c0.5-0.5,1-1.1,1.5-1.6l-10.4-8L60.7,59.7z"/>
	<path class="st2" d="M65.9,52.7c0.4-0.6,0.7-1.3,1-2l-12.1-5.1L65.9,52.7z"/>
	<path class="st2" d="M64.4,55.2c0.4-0.6,0.8-1.2,1.2-1.9L54,47.3L64.4,55.2z"/>
	<path class="st2" d="M65.6,19.3c-0.4-0.6-0.8-1.3-1.2-1.9l-10.5,8L65.6,19.3z"/>
	<path class="st2" d="M70.3,36c0-0.7,0-1.5-0.1-2.2l-13,1.7L70.3,36z"/>
	<path class="st2" d="M67,21.8c-0.3-0.7-0.7-1.3-1-2l-11.1,7L67,21.8z"/>
	<path class="st2" d="M64,16.8c-0.4-0.6-0.9-1.2-1.3-1.8L53,23.9L64,16.8z"/>
	<path class="st2" d="M68.2,24.5c-0.3-0.7-0.5-1.4-0.8-2l-11.7,6L68.2,24.5z"/>
	<path class="st2" d="M62.2,14.5c-0.5-0.6-1-1.1-1.5-1.6l-8.9,9.7L62.2,14.5z"/>
	<path class="st2" d="M69.1,27.3c-0.2-0.7-0.4-1.4-0.7-2.1l-12.1,5L69.1,27.3z"/>
	<path class="st2" d="M70.1,33c-0.1-0.7-0.2-1.5-0.3-2.2L57,33.7L70.1,33z"/>
	<path class="st2" d="M69.7,30.2c-0.1-0.7-0.3-1.5-0.5-2.2l-12.5,3.9L69.7,30.2z"/>
	<path class="st2" d="M40.1,69.5c0.7-0.1,1.5-0.2,2.2-0.3l-2.8-12.8L40.1,69.5z"/>
	<path class="st2" d="M34.2,69.6c0.7,0.1,1.5,0.1,2.2,0.1l-0.5-13.1L34.2,69.6z"/>
	<path class="st2" d="M31.3,69.2c0.7,0.1,1.4,0.2,2.2,0.3l0.6-13.1L31.3,69.2z"/>
	<path class="st2" d="M42.9,69.1c0.7-0.1,1.4-0.3,2.2-0.5l-3.9-12.5L42.9,69.1z"/>
	<path class="st2" d="M37.2,69.7c0.7,0,1.5,0,2.2-0.1l-1.7-13L37.2,69.7z"/>
	<path class="st2" d="M28.5,68.7c0.7,0.2,1.4,0.3,2.2,0.5l1.7-13L28.5,68.7z"/>
	<path class="st2" d="M17.9,63.9c0.6,0.4,1.2,0.8,1.9,1.2l6.1-11.6L17.9,63.9z"/>
	<path class="st2" d="M20.4,65.4c0.6,0.4,1.3,0.7,2,1l5-12.1L20.4,65.4z"/>
	<path class="st2" d="M25.7,67.8c0.7,0.2,1.4,0.5,2.1,0.7l2.9-12.8L25.7,67.8z"/>
	<path class="st2" d="M23,66.7c0.7,0.3,1.3,0.6,2,0.8l4-12.5L23,66.7z"/>
	<path class="st2" d="M58.5,61.7c0.6-0.5,1.1-1,1.6-1.5l-9.6-8.9L58.5,61.7z"/>
	<polygon class="st2" points="38.6,35.9 38.6,35.7 38.5,35.6 38.5,35.4 38.4,35.3 38.3,35.2 38.2,35 38.1,34.9 37.9,34.8 37.8,34.7 
		37.7,34.7 37.5,34.6 37.4,34.5 37.2,34.5 37.1,34.5 36.9,34.4 36.7,34.4 36.6,34.5 36.4,34.5 36.3,34.5 36.1,34.6 36,34.7 
		35.8,34.7 35.7,34.8 35.6,34.9 35.5,35 35.4,35.2 35.3,35.3 35.2,35.4 35.1,35.6 35.1,35.7 35,35.9 35,36.1 35,36.2 35,36.4 
		35,36.5 35,36.7 35.1,36.8 35.1,37 35.2,37.1 35.3,37.3 35.4,37.4 35.5,37.5 35.6,37.7 35.7,37.8 35.8,37.8 36,37.9 36.1,38 
		36.3,38.1 36.4,38.1 36.6,38.1 36.7,38.1 36.9,38.1 37.1,38.1 37.2,38.1 37.4,38.1 37.5,38 37.7,37.9 37.8,37.8 37.9,37.8 
		38.1,37.7 38.2,37.5 38.3,37.4 38.4,37.3 38.5,37.1 38.5,37 38.6,36.8 38.6,36.7 38.6,36.5 38.7,36.4 38.7,36.2 38.6,36.1 	"/>
	<path class="st2" d="M15.6,62.1c0.6,0.5,1.2,0.9,1.8,1.3l7.1-11L15.6,62.1z"/>
	<path class="st2" d="M56.3,63.5c0.6-0.4,1.2-0.9,1.8-1.3l-8.8-9.7L56.3,63.5z"/>
	<path class="st2" d="M51.2,66.4c0.7-0.3,1.3-0.7,2-1l-7-11.1L51.2,66.4z"/>
	<path class="st2" d="M48.6,67.6c0.7-0.3,1.4-0.5,2-0.8l-6-11.6L48.6,67.6z"/>
	<path class="st2" d="M53.8,65.1c0.6-0.4,1.3-0.8,1.9-1.2l-7.9-10.4L53.8,65.1z"/>
	<path class="st2" d="M45.8,68.5c0.7-0.2,1.4-0.4,2.1-0.7l-5-12.1L45.8,68.5z"/>
	<path class="st2" d="M5.3,25.2c-0.2,0.7-0.5,1.4-0.7,2.1l12.8,2.9L5.3,25.2z"/>
	<path class="st2" d="M3.8,30.8c-0.1,0.7-0.2,1.5-0.3,2.2l13.1,0.6L3.8,30.8z"/>
	<path class="st2" d="M4.4,28c-0.2,0.7-0.3,1.4-0.5,2.2l13,1.8L4.4,28z"/>
	<path class="st2" d="M3.4,36.6c0,0.7,0,1.5,0.1,2.2l13-1.7L3.4,36.6z"/>
	<path class="st2" d="M11,15c-0.5,0.6-0.9,1.2-1.3,1.8l11.1,7.1L11,15z"/>
	<path class="st2" d="M13.4,60.2c0.5,0.5,1.1,1,1.6,1.5l8-10.4L13.4,60.2z"/>
	<path class="st2" d="M9.2,17.4C8.8,18,8.4,18.6,8,19.2l11.6,6.1L9.2,17.4z"/>
	<path class="st2" d="M7.7,19.8c-0.4,0.6-0.7,1.3-1,2l12.1,5.1L7.7,19.8z"/>
	<path class="st2" d="M6.3,22.5c-0.3,0.7-0.6,1.3-0.9,2l12.5,4L6.3,22.5z"/>
	<path class="st2" d="M3.5,33.7c-0.1,0.7-0.1,1.5-0.1,2.2l13.1-0.5L3.5,33.7z"/>
	<path class="st2" d="M6.7,50.7c0.3,0.7,0.7,1.3,1,2l11.1-7L6.7,50.7z"/>
	<path class="st2" d="M8,53.3c0.4,0.6,0.8,1.3,1.2,1.9l10.4-7.9L8,53.3z"/>
	<path class="st2" d="M9.6,55.7c0.4,0.6,0.9,1.2,1.3,1.8l9.7-8.8L9.6,55.7z"/>
	<path class="st2" d="M11.4,58c0.5,0.6,1,1.1,1.5,1.6l8.9-9.6L11.4,58z"/>
	<path class="st2" d="M3.9,42.4c0.1,0.7,0.3,1.4,0.5,2.2l12.5-3.9L3.9,42.4z"/>
	<path class="st2" d="M3.5,39.5c0.1,0.7,0.2,1.5,0.3,2.2l12.8-2.8L3.5,39.5z"/>
	<path class="st2" d="M5.5,48c0.3,0.7,0.5,1.4,0.8,2l11.6-6L5.5,48z"/>
	<path class="st2" d="M4.6,45.3C4.8,46,5,46.7,5.3,47.4l12.1-5L4.6,45.3z"/>
	<radialGradient id="SVGID_1_" cx="36.6942" cy="35.1519" r="36.2578" gradientUnits="userSpaceOnUse">
		<stop  offset="0" style="stop-color:#99EEFF"/>
		<stop  offset="1" style="stop-color:#6699CC"/>
	</radialGradient>
	<path class="st3" d="M51.8,50.1l10.4,8c0.2-0.2,0.3-0.4,0.5-0.5L53,48.7l11,7.1c0.1-0.2,0.3-0.4,0.4-0.6L54,47.3l11.6,6.1
		c0.1-0.2,0.2-0.4,0.4-0.6l-11.1-7L67,50.8c0.1-0.2,0.2-0.4,0.3-0.6l-11.6-6l12.5,4c0.1-0.2,0.2-0.4,0.2-0.7l-12.1-5L69,45.3
		c0.1-0.2,0.1-0.5,0.2-0.7l-12.5-3.9l13,1.7c0-0.2,0.1-0.5,0.1-0.7L57,39l13.1,0.6c0-0.2,0-0.5,0.1-0.7l-13-1.7l13.1-0.5
		c0-0.1,0-0.3,0-0.4c0-0.1,0-0.2,0-0.3l-13.1-0.5l13-1.7c0-0.2,0-0.5-0.1-0.7L57,33.7l12.8-2.8c0-0.2-0.1-0.5-0.1-0.7l-13,1.8
		L69.2,28c-0.1-0.2-0.1-0.5-0.2-0.7l-12.8,2.9l12.1-5c-0.1-0.2-0.2-0.4-0.2-0.7l-12.5,4l11.7-6c-0.1-0.2-0.2-0.4-0.3-0.6l-12.1,5.1
		l11.1-7c-0.1-0.2-0.2-0.4-0.4-0.6L54,25.4l10.5-8c-0.1-0.2-0.3-0.4-0.4-0.6L53,23.9l9.7-8.9c-0.1-0.2-0.3-0.4-0.5-0.5l-10.4,8
		l8.9-9.7c-0.2-0.2-0.3-0.3-0.5-0.5l-9.7,8.9l8-10.4c-0.2-0.2-0.4-0.3-0.5-0.5l-8.9,9.7l7.1-11.1c-0.2-0.1-0.4-0.3-0.6-0.4l-8,10.5
		l6.1-11.7c-0.2-0.1-0.4-0.2-0.6-0.4l-7,11.1l5.1-12.1c-0.2-0.1-0.4-0.2-0.6-0.3l-6,11.7l4-12.5c-0.2-0.1-0.4-0.2-0.7-0.2l-5,12.2
		L45.8,4c-0.2-0.1-0.5-0.1-0.7-0.2l-3.9,12.6l1.8-13c-0.2,0-0.5-0.1-0.7-0.1l-2.8,12.9L40.1,3c-0.2,0-0.5,0-0.7-0.1l-1.7,13
		L37.2,2.8c-0.1,0-0.2,0-0.4,0c-0.1,0-0.2,0-0.3,0L36,16l-1.7-13c-0.2,0-0.5,0-0.7,0.1l0.6,13.1L31.4,3.2c-0.2,0-0.5,0.1-0.7,0.1
		l1.8,13L28.5,3.8C28.3,3.9,28.1,4,27.8,4l2.9,12.8l-5-12.2c-0.2,0.1-0.4,0.2-0.7,0.2l4,12.5L23,5.8c-0.2,0.1-0.4,0.2-0.6,0.3
		l5.1,12.1l-7-11.1c-0.2,0.1-0.4,0.2-0.6,0.4l6.1,11.6l-8-10.5c-0.2,0.1-0.4,0.3-0.6,0.4l7.1,11.1l-8.9-9.7
		c-0.2,0.1-0.4,0.3-0.5,0.5l8,10.4l-9.7-8.9c-0.2,0.2-0.3,0.3-0.5,0.5l8.9,9.7l-10.4-8c-0.2,0.2-0.3,0.4-0.5,0.5l9.7,8.9L9.6,16.8
		c-0.1,0.2-0.3,0.4-0.4,0.6l10.4,8L8,19.2c-0.1,0.2-0.2,0.4-0.4,0.6l11.1,7L6.6,21.8c-0.1,0.2-0.2,0.4-0.3,0.6l11.7,6l-12.5-4
		c-0.1,0.2-0.2,0.4-0.2,0.7l12.1,5L4.6,27.3c-0.1,0.2-0.1,0.5-0.2,0.7l12.5,3.9l-13-1.8c0,0.2-0.1,0.5-0.1,0.7l12.8,2.8L3.5,33
		c0,0.2,0,0.5-0.1,0.7l13,1.7L3.4,35.9c0,0.1,0,0.2,0,0.3c0,0.1,0,0.3,0,0.4l13.1,0.5l-13,1.7c0,0.2,0,0.5,0.1,0.7l13.1-0.6
		L3.8,41.7c0,0.2,0.1,0.5,0.1,0.7l13-1.7L4.4,44.6c0.1,0.2,0.1,0.5,0.2,0.7l12.8-2.9l-12.1,5c0.1,0.2,0.2,0.4,0.2,0.7l12.5-4
		l-11.6,6c0.1,0.2,0.2,0.4,0.3,0.6l12.1-5.1l-11.1,7c0.1,0.2,0.2,0.4,0.4,0.6l11.6-6.1L9.2,55.2c0.1,0.2,0.3,0.4,0.4,0.6l11-7.1
		L11,57.5c0.2,0.2,0.3,0.4,0.5,0.5l10.4-8l-8.9,9.6c0.2,0.2,0.3,0.3,0.5,0.5l9.6-8.9l-8,10.4c0.2,0.2,0.4,0.3,0.5,0.5l8.8-9.7
		l-7.1,11c0.2,0.1,0.4,0.3,0.6,0.4l7.9-10.4L19.8,65c0.2,0.1,0.4,0.2,0.6,0.4l7-11l-5,12.1c0.2,0.1,0.4,0.2,0.6,0.3l6-11.6l-4,12.5
		c0.2,0.1,0.4,0.2,0.7,0.2l5-12.1l-2.9,12.8c0.2,0.1,0.5,0.1,0.7,0.2l3.9-12.5l-1.7,13c0.2,0,0.5,0.1,0.7,0.1l2.8-12.8l-0.6,13.1
		c0.2,0,0.5,0,0.7,0.1l1.7-13l0.5,13.1c0.1,0,0.3,0,0.4,0c0.1,0,0.2,0,0.3,0l0.5-13.1l1.7,13c0.2,0,0.5,0,0.7-0.1l-0.6-13.1
		l2.8,12.8c0.2,0,0.5-0.1,0.7-0.1l-1.7-13l3.9,12.5c0.2-0.1,0.5-0.1,0.7-0.2l-2.9-12.8l5,12.1c0.2-0.1,0.4-0.2,0.7-0.2l-4-12.5
		l6,11.6c0.2-0.1,0.4-0.2,0.6-0.3l-5-12.1l7,11.1c0.2-0.1,0.4-0.2,0.6-0.4l-6.1-11.6l7.9,10.4c0.2-0.1,0.4-0.3,0.6-0.4l-7.1-11
		l8.8,9.7c0.2-0.2,0.4-0.3,0.5-0.5l-8-10.4l9.6,8.9c0.2-0.2,0.3-0.3,0.5-0.5L51.8,50.1z M38.7,36.4l0,0.2l0,0.2l0,0.2L38.5,37
		l-0.1,0.1l-0.1,0.1l-0.1,0.1l-0.1,0.1l-0.1,0.1l-0.1,0.1l-0.1,0.1l-0.1,0.1L37.5,38l-0.2,0.1l-0.2,0l-0.2,0l-0.2,0h-0.2l-0.2,0
		l-0.2,0l-0.2,0L36.1,38L36,37.9l-0.1-0.1l-0.1-0.1l-0.1-0.1l-0.1-0.1l-0.1-0.1l-0.1-0.1l-0.1-0.1L35.1,37l-0.1-0.2l0-0.2l0-0.2
		l0-0.2v-0.2l0-0.2l0-0.2l0-0.2l0.1-0.2l0.1-0.1l0.1-0.1l0.1-0.1l0.1-0.1l0.1-0.1l0.1-0.1l0.1-0.1l0.1-0.1l0.1-0.1l0.2-0.1l0.2,0
		l0.2,0l0.2,0h0.2l0.2,0l0.2,0l0.2,0l0.2,0.1l0.1,0.1l0.1,0.1l0.1,0.1l0.1,0.1l0.1,0.1l0.1,0.1l0.1,0.1l0.1,0.1l0.1,0.1l0.1,0.2
		l0,0.2l0,0.2l0,0.2V36.4z"/>
</g>
<path class="st4" d="M48.6,56.4l-7.1-25.6c2.4-1.6,4-4.2,4-7.3c0-4.8-3.9-8.7-8.7-8.7c-4.8,0-8.7,3.9-8.7,8.7c0,3.1,1.6,5.7,4,7.3
	L25,56.4c-0.1,0.3,0,0.7,0.2,0.9c0.2,0.3,0.5,0.4,0.9,0.4h21.6c0.3,0,0.6-0.2,0.9-0.4C48.6,57.1,48.7,56.7,48.6,56.4z"/>
</svg>
