<svg width="64" height="64" viewBox="0 0 64 64" xmlns="http://www.w3.org/2000/svg"><title>01010landlordF</title><path d="M26.992 34.573c-1.974-4.211-1.18-9.012 1.617-12.369-3.445 1.42-5.846 4.792-5.815 8.711.03 3.876 2.501 7.379 6.152 8.714.457.167.755.609.738 1.096l-.129 3.917 1.587 3.046c.152.296.169.644.043.95l-1.358 3.289 1.469 2.825c.159.305.169.665.03.978l-1.448 3.254.197 2.334c1.315 1.203 2.699 2.448 2.93 2.619l.129.062.075-.028c.251-.161 1.811-1.386 2.044-1.613l.257-.337.193-.266-.036-20.671c-3.758-.609-7.04-3.018-8.677-6.513zm-14.452 25.903c.3-.026 2.248-.382 2.566-.478.146-.051.442-.23.895-.513l9.866-18.897c-3.231-2.098-5.294-5.719-5.324-9.657-.03-3.896 1.879-7.358 4.816-9.488-2.851.504-5.333 2.282-6.689 4.921-1.774 3.447-1.212 7.697 1.401 10.578.326.358.384.888.144 1.311l-1.933 3.409-.009 3.434c0 .332-.148.648-.403.862l-2.729 2.28-.011 3.188c-.002.343-.159.667-.427.88l-2.793 2.21-.91 2.156c.605 1.678 1.253 3.422 1.379 3.681l.139.127.021-.002zm24.09-32.471c2.962-.852 5.432-2.81 7.173-5.266.899.817 1.656 1.8 2.188 2.935 1.529 3.265 1.081 7.255-1.115 9.928-.275.335-.335.796-.152 1.186l8.937 19.379-.097.444-.086.38c-.116.307-1.028 2.072-1.186 2.323l-.109.062-.088-.009c-.279-.06-2.057-.614-3.758-1.158l-1.152-2.038-.043-3.563c-.004-.343-.165-.665-.433-.875l-2.516-1.954-.139-3.557c-.013-.33-.172-.641-.435-.845l-2.711-2.104-1.519-3.615c-.189-.448-.644-.721-1.128-.689-3.891.313-7.592-1.858-9.226-5.352-2.19-4.674-.167-10.26 4.507-12.45 1.257-.59 2.591-.888 3.966-.888 1.047 0 2.061.195 3.023.526.476-.598.886-1.246 1.238-1.935.279-.549.53-1.113.721-1.712.867-2.707.665-5.567-.478-8.143-.092-.208-.144-.425-.249-.629-1.405-2.731-3.793-4.751-6.716-5.689-1.04-.332-2.117-.517-3.196-.547l-.448.026c-4.891.073-9.31 3.267-10.816 7.967-1.081 3.372-.519 7.083 1.476 10.001-.648.305-1.261.676-1.843 1.094-2.304-3.443-2.943-7.793-1.675-11.749 1.841-5.747 7.317-9.627 13.366-9.484h.002c1.281.036 2.555.255 3.786.65 1.519.487 2.885 1.257 4.117 2.199 1.581 1.21 2.917 2.726 3.855 4.55 1.669 3.241 1.976 6.937.862 10.408-1.257 3.936-4.192 7.055-8.046 8.557-.129.049-.262.073-.39.073-.429 0-.834-.257-1-.682-.215-.553.058-1.176.609-1.39.41-.159.807-.341 1.191-.541-.341-.238-.723-.42-1.167-.453-1.324-.097-2.473.897-2.572 2.22-.097 1.324 1.111 2.452 2.433 2.572.369.034.68-.06 1.045-.163z"/></svg>