<svg width="64" height="64" viewBox="0 0 64 64" xmlns="http://www.w3.org/2000/svg"><title>01010landlordL</title><path d="M50.946 57.029l-.049-.007c-.276-.059-1.924-.572-3.515-1.083l-1.046-1.853-.042-3.368c-.005-.384-.183-.748-.489-.985l-2.344-1.824-.13-3.324c-.015-.372-.196-.721-.489-.951l-2.567-1.99-1.437-3.425c-.21-.504-.728-.816-1.269-.772-3.652.303-7.135-1.748-8.67-5.028-.997-2.129-1.105-4.517-.306-6.729.799-2.21 2.413-3.975 4.539-4.972 1.181-.552 2.435-.834 3.728-.834.87 0 1.721.134 2.532.379-.922 1.098-2.056 2.004-3.344 2.664-.271-.142-.572-.235-.897-.257-1.269-.095-2.374.86-2.469 2.129-.09 1.271.863 2.374 2.132 2.469 1.269.093 2.374-.86 2.466-2.132 1.753-.914 3.278-2.195 4.463-3.755 1.313.875 2.4 2.092 3.092 3.571 1.474 3.148.948 6.883-1.34 9.511-.328.379-.406.912-.196 1.364l8.714 19.027-1.071 2.173zm-38.059 1.056l-1.259-3.461.824-1.958 2.642-2.09c.303-.24.482-.604.482-.99l.012-2.97 2.552-2.136c.286-.24.452-.594.455-.968l.007-3.244 1.831-3.232c.269-.477.205-1.071-.164-1.476-2.454-2.704-2.985-6.698-1.318-9.937 1.146-2.232 3.148-3.816 5.49-4.459-2.493 2.1-4.07 5.251-4.045 8.758.029 3.652 1.863 7.011 4.749 9.091l-.093.093-9.739 18.526c-.313.093-2.132.425-2.422.452h-.005zm7.961-48.04c.88-2.748 2.777-4.987 5.341-6.309 2.562-1.318 5.488-1.562 8.235-.682 2.748.88 4.987 2.777 6.307 5.341 1.322 2.564 1.564 5.488.684 8.235-.164.508-.374.992-.606 1.464-1.247-.467-2.576-.746-3.948-.746-1.667 0-3.283.362-4.801 1.073l-.159.093-.257-.012c-.677.005-1.335.081-1.978.2-.941-.249-1.912-.391-2.884-.391-1.633 0-3.202.35-4.632.988-1.802-2.718-2.3-6.14-1.303-9.255zm9.064 48.947l-.178-2.119 1.371-3.08c.156-.352.144-.758-.037-1.098l-1.369-2.638 1.269-3.078c.144-.345.127-.736-.046-1.068l-1.498-2.877.12-3.711c.02-.548-.315-1.046-.831-1.232-3.43-1.256-5.752-4.547-5.781-8.189-.024-3.422 1.936-6.375 4.808-7.851-.618.851-1.161 1.76-1.528 2.777-1.032 2.845-.89 5.923.394 8.663 1.525 3.261 4.534 5.544 7.991 6.258l-.017 20.191c-.23.222-1.604 1.298-1.916 1.513l-2.75-2.462zm24.427-5.285l-8.406-18.225c2.498-3.332 2.982-7.798 1.2-11.604-.907-1.931-2.332-3.522-4.058-4.654.288-.587.552-1.188.753-1.821 1.088-3.39.787-7.003-.843-10.169-1.63-3.166-4.395-5.507-7.785-6.593-3.393-1.085-7.006-.785-10.171.843-3.166 1.63-5.507 4.395-6.593 7.788-1.22 3.806-.626 7.986 1.542 11.325-1.342 1.01-2.479 2.308-3.28 3.865-2.004 3.899-1.545 8.641 1.098 12.085l-1.562 2.757c-.108.191-.166.403-.166.623l-.007 2.987-2.55 2.134c-.288.24-.455.594-.455.968l-.012 2.95-2.418 1.914c-.169.132-.298.306-.381.501l-1.144 2.716c-.125.293-.132.621-.024.922.308.86 1.337 3.706 1.569 4.175.442.892 1.281 1.425 2.242 1.425l.198-.007c.362-.027 2.608-.425 3.043-.579.643-.225 1.159-.643 1.518-1.264l9.289-17.793h.02l-.076 2.308c-.007.218.042.435.142.628l1.381 2.647-1.269 3.078c-.144.345-.127.736.046 1.068l1.362 2.616-1.254 2.818c-.086.196-.122.408-.105.621l.247 2.936c.027.318.171.614.406.829.675.618 2.909 2.66 3.332 2.968.457.332.978.508 1.503.508.46 0 .914-.132 1.315-.384.342-.215 2.122-1.601 2.427-1.926.464-.501.726-1.112.755-1.824l-.032-19.162.934 2.227c.086.2.22.376.391.508l2.361 1.833.13 3.324c.015.372.193.721.489.951l2.33 1.809.037 3.085c.002.213.059.423.164.609l1.45 2.567c.156.276.413.484.714.582 1.117.359 3.767 1.208 4.265 1.308.193.039.376.054.548.054.846 0 1.601-.406 2.07-1.122.198-.306 1.252-2.322 1.398-2.762.213-.645.196-1.308-.076-1.97z"/></svg>