<svg width="64" height="64" viewBox="0 0 64 64" xmlns="http://www.w3.org/2000/svg"><title>01010landlordC</title><path d="M35.864 27.809c2.308-.799 4.306-2.23 5.685-4.174.714.646 1.313 1.426 1.736 2.325 1.211 2.589.857 5.751-.886 7.87-.217.264-.264.629-.121.939l7.086 15.36-.077.353-.068.3c-.094.244-.814 1.643-.942 1.843l-.087.049-.07-.006c-.221-.047-1.63-.487-2.978-.918l-.914-1.617-.034-2.823c-.002-.272-.13-.527-.344-.695l-1.994-1.549-.111-2.816c-.009-.264-.136-.51-.344-.672l-2.151-1.668-1.203-2.865c-.149-.355-.51-.572-.893-.544-3.086.247-6.019-1.473-7.313-4.242-1.736-3.707-.134-8.134 3.573-9.87.995-.465 2.053-.704 3.143-.704.829 0 1.632.155 2.395.417.376-.474.704-.988.98-1.532.221-.436.421-.884.574-1.358.687-2.147.527-4.412-.38-6.455l-.198-.497c-1.114-2.166-3.005-3.766-5.324-4.508-.825-.266-1.677-.41-2.531-.434l-.357.019c-3.877.06-7.379 2.589-8.574 6.315-.854 2.674-.41 5.615 1.171 7.928-.514.24-.999.536-1.46.867-1.826-2.731-2.334-6.176-1.328-9.313 1.458-4.555 5.8-7.63 10.595-7.515 1.016.028 2.026.202 3.003.514 1.203.385 2.287.997 3.262 1.743 1.252.959 2.31 2.162 3.054 3.607 1.324 2.567 1.566 5.498.684 8.249-.997 3.12-3.322 5.594-6.378 6.782-.102.04-.206.06-.31.06-.34 0-.661-.206-.791-.542-.17-.438.045-.931.482-1.101.325-.128.64-.27.944-.429-.272-.189-.574-.334-.925-.359-1.05-.077-1.962.712-2.038 1.76-.079 1.05.716 1.913 1.76 2.038.353.043.725-.034.995-.128zm-.886 26.963l-.202.268c-.185.181-1.422 1.15-1.622 1.277l-.06.023-.102-.051c-.183-.134-1.279-1.12-2.323-2.074l-.155-1.851 1.146-2.578c.111-.249.102-.533-.023-.776l-1.165-2.24 1.078-2.606c.1-.244.087-.519-.034-.755l-1.258-2.414.102-3.103c.013-.387-.223-.735-.584-.869-2.895-1.058-4.854-3.834-4.878-6.908-.023-3.105 1.879-5.779 4.61-6.905-2.217 2.663-2.846 6.468-1.282 9.804 1.296 2.769 3.898 4.68 6.878 5.163l.03 16.385-.155.21zm-15.467-2.013c-.357.227-.591.368-.708.408-.251.077-1.794.357-2.034.38h-.015l-.113-.1c-.1-.206-.612-1.588-1.092-2.918l.721-1.709 2.213-1.751c.215-.168.338-.425.34-.697l.009-2.525 2.164-1.809c.202-.17.319-.419.319-.682l.006-2.725 1.532-2.699c.191-.336.145-.757-.115-1.041-2.07-2.283-2.516-5.651-1.109-8.383 1.073-2.091 3.041-3.503 5.303-3.9-2.329 1.688-3.843 4.431-3.817 7.52.021 3.122 1.658 5.994 4.219 7.654l-7.821 14.978zm12.489-52.759c-17.673 0-32 14.327-32 32 0 17.673 14.327 32 32 32 17.675 0 32-14.327 32-32 0-17.673-14.325-32-32-32z"/></svg>