<svg width="64" height="64" viewBox="0 0 64 64" xmlns="http://www.w3.org/2000/svg"><title>02013liabilityC</title><path d="M45.663 27.7l-8.409 8.411c-.725.725-1.912.725-2.636 0l-.281-.281c-.723-.723-.723-1.91 0-2.634l8.411-8.411c.725-.725 1.912-.725 2.636 0l.279.281c.725.725.725 1.91 0 2.634zm-26.729-9.908l8.411-8.411c.725-.725 1.91-.725 2.634 0l.281.279c.725.725.725 1.912 0 2.636l-8.411 8.411c-.725.725-1.91.725-2.634 0l-.281-.281c-.725-.725-.725-1.91 0-2.634zm-12.123 27.627l19.896-19.898-4.055-4.055 8.337-8.334 10.936 10.936-8.334 8.334-4.055-4.053-19.898 19.896-2.826-2.826zm19.055.898v-.394c0-1.026.838-1.864 1.864-1.864h1.245v-1.745h23.478v1.745h1.245c1.026 0 1.864.838 1.864 1.864v.394c0 1.026-.838 1.864-1.864 1.864h-25.967c-1.026 0-1.864-.838-1.864-1.864zm5.225-44.501c-17.173 0-31.092 13.921-31.092 31.092s13.919 31.092 31.092 31.092c17.171 0 31.092-13.921 31.092-31.092s-13.921-31.092-31.092-31.092z"/></svg>