<svg width="64" height="64" viewBox="0 0 64 64" xmlns="http://www.w3.org/2000/svg"><title>02013liabilityF</title><path d="M60.565 58.251h-33.544c-1.323 0-2.405-1.083-2.405-2.408v-.512c0-1.323 1.083-2.405 2.405-2.405h1.608v-2.253h30.325v2.253h1.611c1.323 0 2.405 1.083 2.405 2.405v.512c0 1.325-1.083 2.408-2.405 2.408zm-60.565-3.568l25.701-25.701-5.237-5.237 10.765-10.765 14.125 14.125-10.765 10.765-5.237-5.237-25.701 25.701-3.651-3.651zm15.659-35.688l10.864-10.864c.936-.936 2.469-.936 3.405 0l.36.363c.936.936.936 2.467 0 3.403l-10.864 10.864c-.936.936-2.467.936-3.403 0l-.363-.36c-.936-.936-.936-2.469 0-3.405zm34.165 9.035l.363.363c.936.936.936 2.467 0 3.403l-10.864 10.864c-.936.936-2.467.936-3.403 0l-.363-.363c-.936-.936-.936-2.467 0-3.403l10.864-10.864c.936-.936 2.467-.936 3.403 0z"/></svg>