<svg width="64" height="64" viewBox="0 0 64 64" xmlns="http://www.w3.org/2000/svg"><title>06037lienC</title><path d="M55.674 31.812l-4.917-4.917 1.728-1.726c.346-.346.809-.538 1.301-.538.493 0 .954.192 1.299.538l2.315 2.315c.717.717.717 1.884 0 2.603l-1.726 1.726zm-12.924 12.922v.002l-.147.09-6.573 2.193c-.141.047-.288.009-.386-.09-.102-.102-.137-.254-.094-.39l2.195-6.575.09-.143 11.631-11.633 4.917 4.915-11.633 11.631zm4.998 3.529c0 2.4-1.948 4.354-4.341 4.354h-22.844c-2.391 0-4.339-1.954-4.339-4.354v-32.527c0-2.4 1.948-4.352 4.339-4.352h22.844c2.391 0 4.339 1.952 4.341 4.352v11.831l-11.083 11.083c-.226.226-.397.506-.495.806l-2.165 6.496c-1.359-.188-2.014-.544-2.481-.8-.614-.339-1.461-.802-2.675-.102l-.469.25c.07-1.286-.333-2.084-.727-2.551-.527-.619-1.295-.947-2.089-.909-2.135.117-3.979 3.014-4.508 4.119-.311.649-.038 1.427.612 1.737.646.311 1.427.038 1.737-.612.653-1.359 2.095-2.652 2.257-2.652.164 0 .228.427.023 1.365-.173.791.096 1.557.698 1.999 1.222.89 2.963-.028 3.716-.457l.171.096c.774.427 2.069 1.139 5.082 1.237l.559.019c.222 0 .442-.036.651-.109l6.564-2.189c.303-.102.576-.271.794-.489l3.829-3.829v6.187zm-5.931-31.26h-19.663c-.493 0-.892.399-.89.892 0 .491.397.89.89.89h19.663c.491 0 .89-.399.89-.89 0-.493-.399-.892-.89-.892zm0 5.146h-19.663c-.493 0-.892.399-.89.89 0 .491.397.89.89.89h19.663c.491 0 .89-.399.89-.89 0-.493-.399-.89-.89-.89zm0 5.143h-19.663c-.493 0-.892.397-.89.89 0 .493.397.89.89.89h19.663c.491 0 .89-.397.89-.89s-.399-.89-.89-.89zm-10.234 5.105h-9.391c-.512 0-.928.416-.928.928s.416.928.928.928h9.391c.512 0 .928-.416.928-.928s-.416-.928-.928-.928zm6.782 10.116c-.073-.07-.164-.109-.277-.09-.098.019-.186.083-.23.171l-.725 1.455c-.062.122-.038.267.06.367l1.003 1.003c.06.062.143.094.224.094l.139-.032 1.459-.73c.092-.045.156-.132.171-.23.017-.1-.017-.203-.09-.275l-1.732-1.732zm-6.366-42.513c-17.673 0-32 14.327-32 32 0 17.673 14.327 32 32 32 17.673 0 32-14.327 32-32 0-17.673-14.327-32-32-32z"/></svg>