<svg width="64" height="64" viewBox="0 0 64 64" xmlns="http://www.w3.org/2000/svg"><title>06037lienL</title><path d="M60.588 30.225l-1.645 1.643-4.83-4.828 1.645-1.645c.876-.876 2.206-1.111 2.81-.739.925.571 2.188 1.837 2.759 2.759.375.604.163 1.909-.739 2.81zm-17.434-19.82c0 .759-.617 1.379-1.379 1.379h-31.832c-.762 0-1.379-.62-1.379-1.379 0-.762.617-1.379 1.379-1.379h31.832c.759 0 1.379.617 1.379 1.379zm0 8.16c0 .762-.617 1.379-1.379 1.379h-31.832c-.762 0-1.379-.617-1.379-1.379s.617-1.379 1.379-1.379h31.832c.759 0 1.379.617 1.379 1.379zm0 8.158c0 .762-.617 1.382-1.379 1.382h-31.832c-.762 0-1.379-.62-1.379-1.382 0-.759.617-1.379 1.379-1.379h31.832c.759 0 1.379.62 1.379 1.379zm-33.211 6.791h13.97c.762 0 1.379.617 1.379 1.379 0 .759-.617 1.379-1.379 1.379h-13.97c-.762 0-1.379-.62-1.379-1.379 0-.762.62-1.379 1.379-1.379zm37.972 15.809v8.15c0 2.11-1.707 3.828-3.808 3.828h-36.552c-2.1 0-3.805-1.718-3.805-3.828v-50.953c0-2.108 1.705-3.823 3.805-3.823h36.552c2.1 0 3.808 1.715 3.808 3.823v20.293l2.751-2.751v-17.581c-.003-3.572-2.911-6.481-6.484-6.481h-36.699c-3.575 0-6.484 2.906-6.484 6.481v51.033c0 3.575 2.909 6.486 6.484 6.486h36.699c3.575 0 6.484-2.911 6.484-6.486v-10.945l-2.751 2.754zm-7.445 1.018l-4.83-4.828 17.201-17.201 4.83 4.828-17.201 17.201zm-5.097 2.469l-2.191-2.18 1.387-3.725 4.518 4.495-3.715 1.41zm27.482-26.34c-.716-1.157-2.185-2.624-3.343-3.343-1.397-.863-3.603-.426-5.027.997l-20.753 20.753c-.108.108-.225.369-.225.369l-3.255 8.132c-4.244-.189-5.267-.969-5.755-1.343-.904-.692-1.764-.971-3.273-.217-.847.424-1.441.63-1.834.728.282-2.082-.325-3.366-.93-4.099-.765-.93-1.945-1.457-3.159-1.418-3.286.111-6.251 4.34-7.031 5.812-.418.788-.119 1.764.672 2.183.788.418 1.764.119 2.18-.672.961-1.811 3.128-4.056 4.288-4.094.075.008.364.005.558.243.305.369.349 1.183.119 2.18-.235 1.018.083 1.984.852 2.588 1.204.948 3.077.765 5.729-.563l.003-.003c.85.641 2.477 1.622 7.476 1.839.013 0 .227.018.483-.049.258-.067.437-.158.437-.158l9.669-3.862s.261-.119.369-.225l20.753-20.756c1.421-1.421 1.86-3.627.997-5.024z"/></svg>