<svg width="64" height="64" viewBox="0 0 64 64" xmlns="http://www.w3.org/2000/svg"><title>06037lienF</title><path d="M9.127 32.137h14.365c.784 0 1.418.635 1.418 1.418 0 .784-.635 1.418-1.418 1.418h-14.365c-.784 0-1.418-.635-1.418-1.418 0-.784.637-1.418 1.418-1.418zm-.058-7.807h30.074c.752 0 1.36.608 1.36 1.36 0 .752-.608 1.363-1.36 1.363h-30.074c-.752 0-1.36-.611-1.36-1.363s.608-1.36 1.36-1.36zm0-7.868h30.074c.752 0 1.36.608 1.36 1.363 0 .752-.608 1.36-1.36 1.36h-30.074c-.752 0-1.36-.608-1.36-1.36 0-.752.608-1.363 1.36-1.363zm0-7.868h30.074c.752 0 1.36.608 1.36 1.363 0 .752-.608 1.36-1.36 1.36h-30.074c-.752 0-1.36-.608-1.36-1.36 0-.754.608-1.363 1.36-1.363zm27.229 42.255l-2.229 1.113c-.106.053-.236.032-.321-.053l-1.535-1.535c-.085-.085-.106-.215-.053-.321l1.113-2.229c.04-.08.117-.135.205-.151.088-.013.178.016.242.08l2.651 2.651c.064.064.093.154.08.242-.013.088-.072.165-.151.205zm4.417.3l17.932-17.932-7.807-7.807-17.935 17.932c-.085.088-.151.191-.186.303l-3.355 10.054c-.093.284-.021.592.191.805.146.146.343.228.552.228l.244-.04 10.054-3.355c.12-.04.22-.104.308-.189zm22.405-26.671l-3.541-3.541c-.568-.568-1.325-.879-2.133-.879-.807 0-1.565.311-2.136.879l-2.784 2.786 7.807 7.807 2.786-2.786c1.174-1.177 1.174-3.089 0-4.266zm-48.837 22.1c1.217-.058 2.388.441 3.193 1.389.608.712 1.222 1.934 1.113 3.902.21-.101.446-.226.72-.382 1.859-1.07 3.15-.361 4.093.157.712.393 1.716.935 3.793 1.222l3.312-9.932c.149-.462.409-.887.754-1.232l16.949-16.949v-18.097c0-3.671-2.98-6.656-6.638-6.656h-34.934c-3.66 0-6.638 2.988-6.638 6.656v49.745c0 3.671 2.978 6.659 6.638 6.659h34.934c3.66 0 6.638-2.988 6.638-6.659v-9.461l-5.854 5.854c-.335.335-.752.592-1.214.749l-10.038 3.349c-.321.109-.656.165-.996.165l-.855-.029c-4.606-.151-6.587-1.243-7.772-1.894l-.26-.146c-1.153.656-3.814 2.061-5.684.699-.922-.675-1.328-1.846-1.065-3.057.313-1.437.215-2.088-.037-2.088-.25 0-2.454 1.976-3.45 4.056-.475.993-1.668 1.41-2.659.935-.991-.473-1.41-1.665-.935-2.656.81-1.689 3.628-6.117 6.893-6.298z"/></svg>