<svg width="64" height="64" viewBox="0 0 64 64" xmlns="http://www.w3.org/2000/svg"><title>01003lifeC</title><path d="M50.649 22.981c-.359-.31-.782-.555-1.262-.708-.227-.072-.455-.111-.682-.132.234.026.468.074.701.149.472.151.888.389 1.243.691m-2.338 3.42c-.393-.457-.659-1.012-.788-1.602.128.595.395 1.143.788 1.602m-16.31-26.401c-17.674 0-32.001 14.325-32.001 31.999 0 10.971 5.53 20.648 13.946 26.411v-12.952c-1.358-3.736-2.102-8.083-2.102-13.791 0-4.637 2.13-7.464 6.461-8.567-1.347-1.282-2.198-3.082-2.198-5.084 0-3.883 3.158-7.039 7.041-7.039 3.881 0 7.039 3.156 7.039 7.039 0 2.006-.854 3.809-2.204 5.09 4.306 1.116 5.549 3.781 5.677 6.227.538-.504 1.15-.946 1.834-1.311.674-.361 1.432-.629 2.236-.846-1.792-1.218-2.971-3.271-2.971-5.596 0-3.73 3.033-6.765 6.763-6.765s6.765 3.035 6.765 6.765c0 .185-.051.357-.066.54l.425.019.057.002c.227.021.455.06.682.132.48.153.903.397 1.262.708 1.075.916 1.558 2.419 1.101 3.849-.091.293-.227.567-.383.823-.465.043-.946-.006-1.42-.157-.325-.104-.616-.261-.886-.44l-.057-.04c-.251-.172-.476-.37-.672-.593l-.021-.021c-.393-.459-.661-1.007-.788-1.602l-.026-.079c-.487.905-1.167 1.694-1.991 2.3 6.429 1.316 7.517 6.053 7.517 9.062 0 4.181-1.148 7.135-3.503 11.419v11.256c8.714-5.715 14.48-15.557 14.48-26.758 0-17.674-14.327-31.999-31.999-31.999m10.129 55.369v6.965c-3.188 1.065-6.586 1.664-10.129 1.664-3.526 0-6.907-.593-10.078-1.645v-6.984c0-4.21 3.356-7.898 6.769-9.141-1.596-1.129-2.65-2.982-2.65-5.082 0-3.435 2.795-6.225 6.227-6.225 3.435 0 6.227 2.791 6.227 6.225 0 2.164-1.112 4.07-2.791 5.186 3.243 1.328 6.425 4.961 6.425 9.037" fill="#221F20"/></svg>