<svg width="64" height="64" viewBox="0 0 64 64" xmlns="http://www.w3.org/2000/svg"><title>01003lifeL</title><path d="M51.602 27.412c0-4.987-3.193-7.515-9.487-7.515-6.452 0-8.748 3.271-8.748 6.334h-.017v.049c3.136.655 5.499 3.439 5.499 6.764 0 2.267-1.11 4.263-2.801 5.526 3.616 1.438 6.186 4.955 6.186 9.078v.389c6.43-7.582 9.369-14.028 9.369-20.625zm-3.766 17.593c-1.543 2.201-3.365 4.465-5.519 6.838l-.084.098v9.506h5.602v-16.443zm-8.153 2.644c0-3.988-3.244-7.232-7.234-7.232h-1.558c-3.99 0-7.232 3.244-7.232 7.232v13.799h16.025v-13.799zm-18.565-.15c.064-4.197 2.791-7.729 6.56-9.049-1.605-1.268-2.656-3.207-2.656-5.406 0-3.422 2.506-6.25 5.777-6.796v-5.605c0-1.273 0-5.15-8.709-5.15-8.384 0-9.538 3.446-9.538 7.173 0 11.604 2.757 17.42 8.566 24.832zm-.012 4.052c-2.466-2.983-4.591-5.723-6.294-8.642v18.54h6.294v-9.898zm-3.97-43.564c0 2.732 2.223 4.955 4.955 4.955s4.955-2.223 4.955-4.955c0-.418-.069-.817-.165-1.206-.743-.034-2.279-.204-3.838-.94-.414.258-.864.522-1.406.793-1.694.847-3.394 1.145-4.492 1.248l-.01.106zm10.439 25.058c0 2.405 1.957 4.362 4.362 4.362 2.405 0 4.362-1.957 4.362-4.362 0-2.402-1.957-4.362-4.362-4.362-2.405 0-4.362 1.959-4.362 4.362zm14.277-16.569c2.481 0 4.497-1.954 4.633-4.406-2.769-.49-5.211-2.028-6.865-4.315-1.44.795-2.427 2.309-2.427 4.064 0 2.567 2.09 4.657 4.66 4.657zm12.303 10.937c0 4.49-1.243 8.876-3.776 13.479v23.109h-38.112v-26.516c-1.462-4.017-2.267-8.684-2.267-14.818 0-4.994 2.321-8.015 7.03-9.174-1.494-1.374-2.447-3.323-2.447-5.506 0-4.138 3.367-7.508 7.508-7.508 4.14 0 7.508 3.37 7.508 7.508 0 2.183-.953 4.133-2.447 5.506 4.807 1.201 6.105 4.177 6.188 6.858 1.135-1.098 2.69-1.95 4.647-2.464-2.006-1.282-3.348-3.518-3.348-6.068 0-3.975 3.234-7.21 7.212-7.21 3.975 0 7.21 3.234 7.21 7.21l-.037.345c.182.034.362.059.542.116 2.164.689 3.362 3.006 2.671 5.172-.103.335-.258.647-.436.938-.532.047-1.078-.007-1.617-.177-1.15-.367-2.014-1.196-2.481-2.213-.473.66-1.054 1.233-1.716 1.703 6.991 1.369 8.167 6.476 8.167 9.711zm-24.446 6.594h4.357c-.35.859-1.194 1.467-2.176 1.467-.987 0-1.834-.608-2.181-1.467z"/></svg>