<svg width="64" height="64" viewBox="0 0 64 64" xmlns="http://www.w3.org/2000/svg"><title>01003lifeF</title><path d="M55.473 28.334c0 4.721-1.294 8.054-3.951 12.889v22.778h-8.34v-13.896c0-4.601-3.591-8.701-7.253-10.199 1.896-1.262 3.151-3.413 3.151-5.853 0-3.875-3.153-7.028-7.028-7.028-3.875 0-7.028 3.153-7.028 7.028 0 2.371 1.188 4.461 2.991 5.734-3.853 1.403-7.64 5.566-7.64 10.319v13.896h-9.003v-25.082c-1.533-4.217-2.371-9.12-2.371-15.567 0-5.232 2.403-8.423 7.29-9.666-1.52-1.448-2.48-3.479-2.48-5.739 0-4.381 3.567-7.945 7.948-7.945 4.378 0 7.943 3.564 7.943 7.945 0 2.265-.963 4.299-2.488 5.747 4.861 1.257 6.264 4.264 6.41 7.025.605-.568 1.294-1.066 2.069-1.477.761-.408 1.618-.711 2.525-.957-2.023-1.374-3.355-3.692-3.355-6.314 0-4.211 3.424-7.635 7.632-7.635 4.211 0 7.635 3.424 7.635 7.635 0 .21-.058.403-.074.607.438-.008.878.034 1.315.175 2.14.682 3.326 2.973 2.644 5.116-.106.329-.26.639-.432.928-.528.048-1.069-.008-1.602-.178-1.467-.469-2.466-1.695-2.745-3.105-.546 1.024-1.315 1.912-2.246 2.596 7.258 1.482 8.484 6.831 8.484 10.226"/></svg>