<svg width="64" height="64" viewBox="0 0 64 64" xmlns="http://www.w3.org/2000/svg"><title>02006lightningC</title><path d="M47.2 47.1l-3.1-7-2.7 5.9-2.9-3.1-7.2 4.2 2.4-7.2-1.8-.9 1.6-4.5-1.8-2.1 1.3-1.8h-4.3l1.6 1.6c.5.5.8 1.2.8 1.9v9.1c0 .6-.5 1.1-1.1 1.1-.6 0-1.1-.5-1.1-1.1v-9.2c0-.1-.1-.3-.1-.3l-8.8-8.5c-.2-.2-.5-.2-.7 0l-8.8 8.4c-.1.1-.1.2-.1.3v9.1c0 .6-.5 1.1-1.1 1.1-.6 0-1.1-.5-1.1-1.1v-9c0-.7.3-1.4.8-1.9l1.6-1.6h-10.5c0 .6-.1 1-.1 1.5 0 5.7 1.5 11 4.1 15.7h42.7c.2 0 .3-.1.3-.2.1-.1.2-.2.1-.4zm-23.6-5.7h-7.6v-7.6h7.6v7.6zm-18.2 8.4c2.6 3.9 6 7.1 10 9.5v-6.1h8.8v9.8c2.5.6 5.1 1 7.8 1s5.4-.4 7.9-1v-13.2h-34.5zm30.1 11.6h-7.6v-7.6h7.6v7.6zm28.5-29.4c0-17.7-14.3-32-32-32-16.5 0-30 12.5-31.8 28.5h12.8l4.9-4.8c1-1 2.6-1 3.6 0l4.9 4.8h10.6l-2.7 3.8 1.5 1.7-1.4 3.9 1.9.9-1.2 3.8 3.9-2.2 1.8 2 3.3-7.3 5.1 11.4c.3.9.1 1.7-.3 2.4-.5.7-1.2 1-2.1 1h-4.8v12.6c12.8-4.4 22-16.3 22-30.5zm-13.3-10.9l-13.1 16.6 2.7-13.3-4.1-.4-3.1-.4 1.6-2.2 6.8-12.1 9.8 1-7.8 10.1 7.2.7zm-33.2 34.3h4.5v7c-1.6-.5-3.1-1.2-4.5-1.9v-5.1z"/></svg>