<svg width="64" height="64" viewBox="0 0 64 64" xmlns="http://www.w3.org/2000/svg"><title>02006lightningL</title><path d="M47.295 56.866h-13.877v-13.096h-7.848v13.096h-14.035v-16.066h35.759v16.066zm-19.772 0h3.945v-11.144h-3.945v11.144zm26.17-18.155c-.038.051-.124.139-.271.139h-48.088c-.147 0-.232-.024-.307-.096-.094-.09-.073-.243-.015-.339l6.313-14.195c.158-.275.459-.439.657-.439h9.427l-1.365 1.318c-.454.439-.713 1.05-.713 1.679v8.053c0 .538.437.975.975.975.54 0 .977-.437.977-.975v-8.053c0-.104.041-.203.115-.275l7.752-7.479c.149-.143.382-.143.533 0l7.75 7.479c.073.072.117.171.117.275v8.053c0 .538.437.975.975.975.54 0 .977-.437.977-.975v-8.053c0-.629-.26-1.24-.713-1.679l-1.365-1.318h3.65l-1.105 1.566 1.598 1.828-1.438 4.013 1.702.779-2.118 6.472 6.424-3.706 2.541 2.773 2.349-5.201 2.718 6.104c.045.143-.013.25-.051.301zm-29.372 25.289h10.456v-1.96h-10.456v1.96zm-8.727-12.951h6.709v-6.709h-6.709v6.709zm21.092 0h6.711v-6.709h-6.711v6.709zm23.874-48.593l-8.706-.924-7.77 12.252-1.376 1.984 2.765.329 3.612.444-2.362 11.748 11.631-14.743-6.419-.623 8.625-10.468zm-34.421 30.856h6.711v-6.711h-6.711v6.711zm24.9-5.779l-2.923 6.472-1.6-1.745-3.364 1.941 1.073-3.281-1.656-.759 1.222-3.409-1.344-1.534 2.391-3.388h-9.438l-4.363-4.211c-.909-.873-2.332-.875-3.24.002l-4.363 4.209h-11.45c-.93 0-1.852.555-2.394 1.506l-6.441 14.498c-.28.7-.145 1.453.292 2.044.437.593 1.161.922 1.896.922h4.25v18.018h15.949v2.136h7.932v-2.136h15.782v-18.018h4.175c.734 0 1.406-.339 1.843-.932.437-.591.561-1.333.305-2.144l-4.531-10.191z"/></svg>