<svg width="64" height="64" viewBox="0 0 64 64" xmlns="http://www.w3.org/2000/svg"><title>02006lightningF</title><path d="M24.057 61.293h9.862v2.707h-9.862v-2.707zm1.189-4.367v2.787h7.484v-2.787h-7.484zm30.528-21.004c.053.166-.013.294-.06.353-.043.062-.145.164-.319.164h-52.987c-.176 0-.259-.057-.342-.14-.081-.087-.086-.228-.022-.408l6.94-15.613c.179-.31.521-.495.749-.495h10.451l-1.55 1.499c-.495.475-.779 1.145-.779 1.83v8.873c0 .579.47 1.049 1.049 1.049s1.049-.47 1.049-1.049v-8.873c0-.119.05-.236.138-.319l8.539-8.241c.175-.166.447-.168.619 0l8.541 8.239c.089.084.138.202.138.321v8.871c0 .579.47 1.049 1.049 1.049s1.049-.47 1.049-1.049v-8.871c0-.685-.283-1.352-.777-1.83l-1.552-1.499h6.37l-1.531 1.952 1.561 1.784-1.41 3.938 1.782.817.001.001-1.693 5.175 5.194-2.997 2.197 2.397 2.367-4.202 3.239 7.274zm-22.957-13.097h-7.576v7.576h7.576v-7.576zm-24.654 15.709h41.649v18.391h-17.082v-14.554h-7.484v14.554h-17.082v-18.391zm28.616 11.412h7.576v-7.576h-7.576v7.576zm-23.159 0h7.576v-7.576h-7.576v7.576zm38.93-37.855l9.156-11.11-9.241-.981-8.248 13.005-1.463 2.108 2.935.347 3.834.472-2.507 12.469 12.347-15.645-6.815-.663.001-.001z"/></svg>