<svg width="64" height="64" viewBox="0 0 64 64" xmlns="http://www.w3.org/2000/svg"><title>06034likeC</title><path d="M50.56 33.335c0 .988-.804 1.792-1.792 1.794h-3.36c-.523 0-.945.422-.945.943 0 .521.422.945.945.945h2.758c.99 0 1.794.804 1.794 1.792v.559c0 .99-.802 1.794-1.79 1.794h-3.78c-.521 0-.943.425-.943.945 0 .521.422.943.943.943h2.56c.99 0 1.794.806 1.794 1.794v.557c0 .99-.804 1.796-1.794 1.796h-16.028c-1.743 0-3.324-.367-4.706-1.09v-18.419c.806-.514 2.88-1.873 3.75-2.716.847-.964 2.814-6.443 4.235-11.1.299-.915 1.331-1.449 2.259-1.152l.542.175c.911.299 1.325.977 1.231 2.022-.034.39-.695 6.686-.828 7.782-.094.753.03 1.323.358 1.696.435.489 1.139.542 1.423.542h8.979c.99 0 1.794.804 1.794 1.792v.57c0 .99-.804 1.794-1.794 1.794h-2.758c-.523 0-.945.422-.945.945 0 .521.422.943.945.943h3.358c.99 0 1.794.806 1.794 1.794v.559zm-26.807 13.664c0 1.007-.819 1.826-1.826 1.826h-7.3c-1.007 0-1.826-.819-1.826-1.826v-19.471c0-1.007.819-1.824 1.826-1.824h7.3c1.007 0 1.826.817 1.826 1.824v19.471zm8.247-46.999c-17.764 0-32 14.236-32 32s14.236 32 32 32 32-14.362 32-32c0-17.638-14.236-32-32-32z"/></svg>