<svg width="64" height="64" viewBox="0 0 64 64" xmlns="http://www.w3.org/2000/svg"><title>02042lndlrdincC</title><path d="M49.606 61.661c-6.008 0-10.897-4.942-10.897-11.016 0-6.076 4.889-11.018 10.897-11.018s10.897 4.942 10.897 11.018c0 6.074-4.889 11.016-10.897 11.016zm-13.514-24.374c-2.996.239-5.847-1.431-7.104-4.121-1.687-3.601-.13-7.901 3.47-9.588.966-.452 1.994-.683 3.053-.683.805 0 1.586.151 2.327.405.365-.46.683-.958.952-1.489.215-.423.409-.859.557-1.319.667-2.085.512-4.286-.37-6.27l-.192-.483c-1.082-2.104-2.919-3.658-5.172-4.379-.801-.258-1.629-.398-2.459-.421l-.345.019c-3.768.058-7.17 2.515-8.33 6.134-.83 2.597-.398 5.454 1.138 7.701-.5.233-.97.52-1.418.842-1.773-2.651-2.267-5.999-1.29-9.047 1.416-4.424 5.634-7.412 10.292-7.3.987.027 1.967.196 2.917.5 1.169.374 2.221.968 3.169 1.693 1.216.931 2.244 2.1 2.969 3.503 1.284 2.494 1.519 5.341.663 8.012-.968 3.031-3.227 5.434-6.196 6.588-.099.039-.2.058-.301.058-.33 0-.642-.2-.768-.526-.165-.425.043-.904.469-1.069.316-.122.621-.262.917-.417-.264-.182-.557-.322-.898-.349-1.02-.074-1.906.692-1.98 1.709-.076 1.02.696 1.858 1.709 1.98.343.041.704-.033.966-.124 2.242-.776 4.183-2.166 5.525-4.055.692.628 1.274 1.385 1.685 2.259 1.177 2.515.832 5.587-.861 7.645-.211.256-.256.611-.118.913l1.798 3.898c-1.1.681-2.089 1.519-2.942 2.488l-1.796-1.394-1.169-2.783c-.145-.345-.493-.555-.867-.529zm-2.116 17.749l-.196.26c-.18.175-1.381 1.117-1.575 1.241l-.058.023-.099-.05c-.178-.13-1.243-1.088-2.254-2.015l-.153-1.798 1.113-2.504c.107-.242.099-.518-.021-.754l-1.133-2.176 1.047-2.531c.097-.237.085-.504-.033-.733l-1.222-2.343.099-3.016c.012-.376-.217-.714-.568-.844-2.812-1.028-4.715-3.724-4.736-6.71-.025-3.016 1.823-5.613 4.476-6.706-2.153 2.585-2.764 6.28-1.245 9.522 1.259 2.69 3.786 4.546 6.681 5.015l.029 15.915-.151.204zm-15.023-1.955c-.347.221-.574.357-.687.396-.244.074-1.742.349-1.976.37h-.014l-.109-.097c-.097-.2-.595-1.542-1.061-2.835l.7-1.66 2.149-1.701c.209-.163.328-.413.33-.677l.008-2.453 2.102-1.757c.196-.165.31-.407.31-.663l.006-2.647 1.489-2.622c.186-.326.14-.735-.111-1.012-2.011-2.217-2.444-5.49-1.078-8.142 1.045-2.031 2.954-3.402 5.151-3.788-2.263 1.639-3.733 4.305-3.708 7.304.021 3.033 1.61 5.822 4.098 7.434l-7.597 14.549zm28.523 4.133c.211 0 .421-.078.584-.239l9.202-9.076c.155-.153.246-.363.246-.586.002-.219-.085-.431-.239-.588l-2.106-2.126c-.324-.326-.849-.328-1.175-.006l-6.472 6.392-2.325-2.351c-.155-.155-.365-.244-.586-.246h-.004c-.219 0-.429.087-.584.239l-2.129 2.106c-.326.324-.328.849-.006 1.177l5.004 5.06c.161.163.376.246.59.246zm12.864-13.878c1.162-3.262 1.827-6.759 1.827-10.42 0-17.166-13.915-31.083-31.083-31.083-17.166 0-31.083 13.917-31.083 31.083 0 17.166 13.917 31.083 31.083 31.083 4.131 0 8.064-.824 11.671-2.285 1.99 1.259 4.335 2.001 6.852 2.001 7.141 0 12.951-5.863 12.951-13.07 0-2.705-.818-5.221-2.217-7.308z"/></svg>