<svg width="64" height="64" viewBox="0 0 64 64" xmlns="http://www.w3.org/2000/svg"><title>02041lndlrdkitC</title><path d="M46.594 49.197c0 2.232-1.809 4.049-4.034 4.049h-22.85c-2.226 0-4.034-1.817-4.034-4.049v-31.507c0-2.232 1.809-4.046 4.034-4.046h1.701l-.019 1.332c0 1.72 1.408 3.13 3.13 3.13h13.248c1.72 0 3.128-1.41 3.128-3.13v-1.332h1.662c2.226 0 4.034 1.815 4.034 4.046v31.507zm-23.893-35.326c0-.95.778-1.728 1.73-1.728h2.595v-2.302c0-.952.778-1.73 1.728-1.73h4.761c.95 0 1.728.778 1.728 1.73v2.302h2.593c.952 0 1.73.778 1.73 1.728v1.148c0 .95-.778 1.728-1.73 1.728h-13.405c-.952 0-1.73-.778-1.73-1.728v-1.148zm18.18 13.529h-19.479c-.442 0-.799.357-.799.799 0 .44.357.799.799.799h19.479c.44 0 .799-.359.799-.799 0-.442-.359-.799-.799-.799zm0-4.728h-19.479c-.442 0-.799.357-.799.799 0 .44.357.799.799.799h19.479c.44 0 .799-.359.799-.799 0-.442-.359-.799-.799-.799zm0 9.453h-19.479c-.442 0-.799.359-.799.801 0 .44.357.799.799.799h19.479c.44 0 .799-.359.799-.799 0-.442-.359-.801-.799-.801zm-11.041 9.46h-8.438c-.442 0-.799.359-.799.801 0 .44.357.799.799.799h8.438c.44 0 .799-.359.799-.799 0-.442-.359-.801-.799-.801zm11.041-4.726h-19.479c-.442 0-.799.357-.799.799 0 .44.357.799.799.799h19.479c.44 0 .799-.359.799-.799 0-.442-.359-.799-.799-.799zm-9.742-24.124c.599 0 1.086-.487 1.086-1.086 0-.601-.487-1.086-1.086-1.086-.599 0-1.086.485-1.086 1.086 0 .599.487 1.086 1.086 1.086zm.012-11.039c-17.204 0-31.151 13.946-31.151 31.151 0 17.204 13.948 31.151 31.151 31.151 17.204 0 31.151-13.948 31.151-31.151 0-17.206-13.948-31.151-31.151-31.151z"/></svg>