<svg width="64" height="64" viewBox="0 0 64 64" xmlns="http://www.w3.org/2000/svg"><title>04025locationservF</title><path d="M25.391 61.607c-1.959 0-3.548-1.578-3.548-3.523 0-1.939 1.589-3.517 3.548-3.517s3.548 1.578 3.548 3.517c0 1.945-1.589 3.523-3.548 3.523zm-3.782-58.563h7.563c.818 0 1.48.659 1.48 1.478 0 .818-.662 1.478-1.48 1.478h-7.563c-.818 0-1.48-.659-1.48-1.478 0-.818.662-1.478 1.48-1.478zm25.063 22.84l-5.618 12.591c-.134.298-.429.484-.746.484l-.125-.008c-.362-.058-.643-.353-.685-.721l-.587-5.24-4.942.017h-.003c-.373 0-.696-.25-.787-.615-.095-.362.067-.743.392-.924l11.96-6.642c.306-.173.69-.125.949.117.256.239.334.618.192.941zm-5.312-9.188c-7.686 0-13.913 6.23-13.913 13.913 0 7.686 6.227 13.913 13.913 13.913 7.683 0 13.913-6.227 13.913-13.913 0-7.683-6.23-13.913-13.913-13.913zm0 30.609c-.459 0-.91-.033-1.361-.07v3.548c0 .765-.626 1.391-1.391 1.391h-26.435c-.765 0-1.391-.626-1.391-1.391v-40.348c0-.765.626-1.391 1.391-1.391h26.435c.765 0 1.391.626 1.391 1.391v3.548c.451-.036.902-.07 1.361-.07.479 0 .952.033 1.422.072v-9.811c0-2.301-1.873-4.174-4.174-4.174h-26.435c-2.301 0-4.174 1.873-4.174 4.174v55.652c0 2.301 1.873 4.174 4.174 4.174h26.435c2.301 0 4.174-1.873 4.174-4.174v-12.594c-.47.042-.943.072-1.422.072z"/></svg>