<svg width="64" height="64" viewBox="0 0 64 64" xmlns="http://www.w3.org/2000/svg"><title>04025locationservC</title><path d="M41.937 39.2c-4.418 0-8-3.582-8-8s3.58-8 8-8c4.418 0 8 3.582 8 8s-3.582 8-8 8zm.939 9.101c0 1.764-1.436 3.2-3.2 3.2h-15.351c-1.764 0-3.2-1.436-3.2-3.2v-32.834c0-1.764 1.436-3.2 3.2-3.2h15.351c1.764 0 3.2 1.436 3.2 3.2v6.227c-.314-.03-.619-.094-.941-.094-.407 0-.798.07-1.193.119v-2.507c0-.587-.48-1.067-1.067-1.067h-15.351c-.587 0-1.067.48-1.067 1.067v23.676c0 .587.48 1.067 1.067 1.067h15.351c.587 0 1.067-.48 1.067-1.067v-2.21c.395.051.785.122 1.193.122.322 0 .627-.064.941-.096v7.597zm1.478-20.425l-6.927 3.817c-.188.107-.282.324-.228.533.053.209.241.354.457.354h.002l2.861-.011.341 3.012c.023.213.186.382.395.414l.075.006c.183 0 .352-.107.431-.277l3.253-7.243c.083-.186.038-.403-.111-.54-.151-.139-.371-.166-.548-.066zm-14.758-11.302h4.527c.625 0 1.135-.508 1.135-1.133 0-.627-.51-1.135-1.135-1.135h-4.527c-.625 0-1.133.508-1.133 1.135 0 .625.508 1.133 1.133 1.133zm2.404 28.815c-1.171 0-2.123.943-2.123 2.103 0 1.163.951 2.108 2.123 2.108 1.171 0 2.123-.945 2.123-2.108 0-1.161-.951-2.103-2.123-2.103zm0-45.389c-17.675 0-32 14.327-32 32 0 17.673 14.325 32 32 32 17.673 0 32-14.327 32-32 0-17.673-14.325-32-32-32z"/></svg>