<svg width="64" height="64" viewBox="0 0 64 64" xmlns="http://www.w3.org/2000/svg"><title>04025locationservL</title><path d="M41.333 60c0 .733-.6 1.333-1.333 1.333h-28c-.733 0-1.333-.6-1.333-1.333v-7.579c.419.149.864.245 1.333.245h28c.469 0 .915-.096 1.333-.245v7.579zm-30.667-56c0-.733.6-1.333 1.333-1.333h28c.733 0 1.333.6 1.333 1.333v4.912c-.419-.149-.864-.245-1.333-.245h-28c-.469 0-.915.096-1.333.245v-4.912zm31.893 36.888c-5.645 0-10.221-4.576-10.221-10.221 0-5.645 4.576-10.221 10.221-10.221 5.645 0 10.221 4.576 10.221 10.221 0 5.645-4.573 10.221-10.221 10.221zm0-23.555c-7.363 0-13.333 5.971-13.333 13.333 0 7.365 5.971 13.333 13.333 13.333 7.363 0 13.333-5.968 13.333-13.333 0-7.363-5.968-13.333-13.333-13.333zm-16.56 43.04c-1.875 0-3.397-1.512-3.397-3.376 0-1.859 1.523-3.371 3.397-3.371 1.877 0 3.4 1.512 3.4 3.371 0 1.864-1.523 3.376-3.4 3.376zm21.501-35.136c-.248-.232-.616-.277-.912-.112l-11.544 6.365c-.315.173-.472.539-.381.885.091.349.403.589.763.589h.003l4.768-.016.568 5.021c.04.352.309.635.659.691l.123.008c.307 0 .589-.179.717-.464l5.424-12.067c.139-.309.064-.672-.187-.901zm-4.941 21.429c-.413 0-.819-.032-1.227-.061v2.061c0 .733-.6 1.333-1.333 1.333h-28c-.733 0-1.333-.6-1.333-1.333v-36c0-.733.6-1.333 1.333-1.333h28c.733 0 1.333.6 1.333 1.333v2.061c.408-.029.813-.061 1.227-.061.488 0 .965.029 1.44.072v-10.739c0-2.205-1.795-4-4-4h-28c-2.205 0-4 1.795-4 4v56c0 2.205 1.795 4 4 4h28c2.205 0 4-1.795 4-4v-13.405c-.475.043-.952.072-1.44.072z" fill="#1B1A19"/></svg>