<svg width="64" height="64" viewBox="0 0 64 64" xmlns="http://www.w3.org/2000/svg"><title>08011locationF</title><path d="M43.9,19c-0.6-0.6-1.5-0.7-2.2-0.3L14,34c-0.8,0.4-1.1,1.3-0.9,2.1c0.2,0.8,1,1.4,1.8,1.4h0l11.4,0l1.4,12.1 c0.1,0.8,0.7,1.5,1.6,1.7c0.1,0,0.2,0,0.3,0c0.7,0,1.4-0.4,1.7-1.1l13-29C44.6,20.4,44.5,19.5,43.9,19 M32,56.5 c-13.6,0-24.5-11-24.5-24.5c0-13.6,11-24.5,24.5-24.5c13.5,0,24.5,11,24.5,24.5C56.5,45.5,45.5,56.5,32,56.5 M32,0 C14.3,0,0,14.3,0,32c0,17.7,14.3,32,32,32c17.7,0,32-14.3,32-32C64,14.3,49.7,0,32,0"/></svg>