<svg width="64" height="64" viewBox="0 0 64 64" xmlns="http://www.w3.org/2000/svg"><title>06019lockedS</title><path d="M40 24h-16v-7.996c0-4.488 3.516-8.004 8-8.004 4.41 0 8 3.59 8 8.004v7.996zm-4.715 20.629l-.001 9.371h-6.568l-.001-9.338c-1.521-1.004-2.504-2.699-2.504-4.66 0-3.16 2.543-5.635 5.789-5.635 3.191 0 5.789 2.528 5.789 5.635 0 1.918-.995 3.61-2.504 4.627zm13.715-20.629h-1v-7.996c0-8.824-7.176-16.004-16-16.004-8.973 0-16 7.029-16 16.004v7.996h-1c-3.85 0-7 3.15-7 7v26c0 3.85 3.15 7 7 7h34c3.85 0 7-3.15 7-7v-26c0-3.85-3.15-7-7-7z" fill="#000"/></svg>