<svg width="64" height="64" viewBox="0 0 64 64" xmlns="http://www.w3.org/2000/svg"><title>07014lockoutL</title><path d="M63.168 29.605l-9.143-16.228c-1.146-2.034-3.318-3.297-5.665-3.297-1.106 0-2.202.287-3.165.829l-1.006.567c-1.357-1.837-3.506-2.947-5.837-2.947-2.082 0-3.949.892-5.274 2.298-2.73-2.122-5.162-3.827-7.637-3.827-1.918 0-3.639 1.006-5.26 3.076-3.232 4.124-7.608 14.772-5.074 19.551l-6.589 8.127c-.125.156-.202.344-.221.542l-.356 3.857-2.399 2.025c-.154.133-.266.306-.321.5l-.736 2.648-2.472 1.51c-.12.076-.222.171-.302.289l-1.532 2.221c-.127.184-.19.405-.177.627.053.97.184 3.268.255 3.675.16.92.848 1.527 1.759 1.542h.011c.327 0 2.133-.16 2.504-.253.508-.129.96-.411 1.327-.837l16.576-20.656c.215.08.435.173.631.222.414.105.871.16 1.354.16 3.306 0 7.774-2.517 11.306-5.241l6.192 10.991c1.144 2.034 3.316 3.297 5.664 3.297 1.106 0 2.202-.287 3.165-.829l9.956-5.608c3.112-1.755 4.219-5.715 2.466-8.831zm-23.354-13.348l4.276-2.411.548-.308 1.546-.873c.664-.373 1.416-.572 2.177-.572 1.622 0 3.12.871 3.909 2.272l9.143 16.228c1.209 2.148.447 4.876-1.7 6.086l-9.954 5.608c-2.076 1.169-4.926.357-6.084-1.698l-6.365-11.297c1.369-1.175 2.51-2.319 3.241-3.255.321-.409.589-.814.823-1.217.373.143.764.243 1.177.243.57 0 1.133-.15 1.629-.428l2.783-1.568c.774-.437 1.331-1.15 1.572-2.008.24-.859.131-1.759-.304-2.527l-.139-.251c-.865-1.536-2.987-2.139-4.536-1.268l-2.12 1.196-1.622-1.954zm-22.879 12.559c-2.07-3.394 1.546-13.306 4.831-17.496 1.618-2.067 2.873-2.304 3.675-2.304 1.852 0 4.013 1.544 6.481 3.466-.179.346-.327.703-.449 1.078l-.825-.664c-1.078-.871-2.804-.679-3.673.399l-.122.152c-.437.542-.635 1.222-.561 1.918.076.694.416 1.318.958 1.755l4.521 3.637c.46.371 1.042.576 1.635.576.798 0 1.54-.356 2.034-.97l.125-.156c.901-1.122.724-2.77-.397-3.673l-1.983-1.597c.068-.418.175-.823.337-1.203l.319.249c3.15 2.464 6.127 4.791 6.424 7.222.137 1.124-.289 2.297-1.302 3.589-2.791 3.561-10.418 9.017-14.546 9.015-.316 0-.605-.03-.861-.097-1.899-.479-5.635-3.386-6.622-4.897zm25.331-7.856c-.032-.272-.114-.534-.188-.798l2.466-1.39c.194-.11.414-.167.637-.167.481 0 .922.257 1.152.665l.143.253c.169.302.211.656.118.996-.097.34-.316.622-.62.793l-2.785 1.568c-.333.188-.726.192-1.074.068.16-.662.234-1.325.152-1.989zm-13.753-5.411c-.122-.099-.2-.241-.217-.401-.017-.16.029-.316.127-.439l.122-.152c.114-.141.283-.221.468-.221.095 0 .24.023.371.129l1.705 1.373c.004.709.137 1.392.337 2.053l-2.913-2.342zm5.53 3.238c-.224-.321-.414-.662-.559-1.021l.42.338c.211.171.236.445.139.683zm8.34-6.295l-4.241 2.39c-.954-.829-1.992-1.652-3.061-2.487l-.42-.329c.949-.939 2.251-1.521 3.69-1.521 1.595 0 3.048.741 4.032 1.947zm-38.076 42.32c-.076.087-.167.144-.255.169-.222.042-1.352.152-1.827.184-.042-.454-.124-1.732-.194-2.96l1.217-1.76 2.627-1.608c.217-.133.375-.342.445-.587l.759-2.73 2.477-2.091c.202-.171.329-.414.352-.679l.367-3.962 6.112-7.538c1.122 1.135 2.696 2.373 4.2 3.276l-16.28 20.287zm53.845-27.768c-1.143-2.027-3.306-3.285-5.646-3.285-1.103 0-2.194.285-3.156.829l-4.614 2.599c-3.103 1.749-4.205 5.696-2.456 8.802l.325.576c1.143 2.029 3.306 3.289 5.646 3.289 1.103 0 2.194-.287 3.156-.829l4.614-2.599c1.498-.844 2.58-2.228 3.044-3.894.466-1.667.257-3.411-.586-4.907l-.327-.582zm-1.029 4.947c-.319 1.148-1.063 2.101-2.093 2.679l-1.335.753-1.791-3.179 5.141-2.897c.291.846.325 1.759.078 2.645zm-12.297 4.24l5.321-2.998 1.791 3.179-1.523.857c-1.827 1.032-4.253.515-5.589-1.038zm7.679-10.454c1.424 0 2.721.7 3.553 1.814l-5.145 2.897-1.911-3.392 1.335-.753c.662-.371 1.409-.567 2.167-.567zm-5.257 2.308l1.911 3.394-5.348 3.013c-.835-2.044-.057-4.437 1.914-5.548l1.523-.859z"/></svg>