<svg width="64" height="64" viewBox="0 0 64 64" xmlns="http://www.w3.org/2000/svg"><title>07014lockoutF</title><path d="M14.936 30.294l-6.509 8.035-.402 4.335-2.758 2.327-.855 3.079-2.856 1.747-1.557 2.254s.177 3.217.246 3.615c.092.534.45.713.792.719.271.004 2.035-.16 2.289-.223.252-.065.552-.209.803-.502l16.683-20.789c-2.099-1.07-4.603-3.065-5.877-4.597zm26.789-7.541c.298.111.634.115.922-.048l3.267-1.839c.528-.3.717-.972.419-1.501l-.388-.688c-.194-.346-.565-.559-.965-.559-.188 0-.369.046-.534.14l-2.733 1.539c.075.273.158.542.192.824.086.711.006 1.42-.181 2.131zm21.433 6.68l-9.317-16.54c-1.157-2.052-3.348-3.327-5.717-3.327-1.117 0-2.223.288-3.196.838l-1.057.596c-1.378-1.87-3.561-3-5.929-3-2.114 0-4.011.909-5.356 2.341-.461.492-.842 1.053-1.157 1.657-2.514-1.958-4.716-3.53-6.605-3.53-.819 0-2.097.242-3.745 2.345-3.338 4.261-7.014 14.344-4.908 17.797 1.005 1.537 4.804 4.495 6.736 4.981.263.065.557.1.88.1 4.199 0 11.955-5.548 14.79-9.167 1.032-1.316 1.466-2.514 1.326-3.657-.302-2.477-3.327-4.843-6.528-7.347l-.342-.267c.273-.628.659-1.195 1.138-1.672.969-.963 2.302-1.56 3.772-1.56 1.632 0 3.117.763 4.12 1.999l-4.334 2.443c1.291 1.124 2.4 2.268 3.159 3.486l2.567-1.447c1.449-.821 3.436-.254 4.247 1.186l.388.69c.842 1.497.311 3.401-1.186 4.247l-3.269 1.841c-.465.263-.992.4-1.524.4-.409 0-.798-.104-1.165-.254-.227.382-.479.769-.782 1.159-1.015 1.293-2.788 2.986-4.887 4.606l6.313 11.208c1.155 2.052 3.346 3.328 5.715 3.328 1.118 0 2.223-.29 3.198-.84l10.164-5.727c3.144-1.768 4.261-5.767 2.489-8.911zm-28.955-12.405c.625.502.724 1.422.223 2.047l-.175.217-.092-.138c-.917-.917-1.436-2.112-1.53-3.394l1.574 1.268zm-7.255-3.269l.344-.425c.502-.623 1.422-.724 2.047-.221l1.353 1.088c-.061.384-.117.769-.117 1.168 0 1.585.517 3.079 1.436 4.332l-4.839-3.893c-.625-.502-.724-1.424-.223-2.049zm14.167 17.077c.429-1.537 1.426-2.813 2.808-3.59l5.717-3.221c.888-.5 1.895-.763 2.911-.763 2.158 0 4.153 1.159 5.206 3.029l.913 1.62c.778 1.382.97 2.988.542 4.526-.43 1.537-1.428 2.813-2.81 3.59l-5.717 3.223c-.886.5-1.893.765-2.91.765-2.16 0-4.155-1.163-5.208-3.031l-.913-1.62c-.778-1.382-.97-2.99-.54-4.528zm8.819 2.229l-5.488 3.094c1.082 1.683 3.478 2.331 5.248 1.334l2.075-1.168-1.835-3.259zm-6.497 1.347l5.508-3.104-1.956-3.475-2.074 1.168c-.915.515-1.572 1.359-1.856 2.375-.284 1.019-.158 2.081.356 2.994l.023.04zm7.266-4.093l5.319-2.998-.023-.038c-.696-1.236-2.016-2.002-3.448-2.002-.671 0-1.336.173-1.92.502l-1.885 1.063 1.956 3.475zm.99 1.756l1.835 3.257 1.885-1.063c1.831-1.034 2.506-3.319 1.58-5.181l-5.3 2.986z"/></svg>