<svg width="64" height="64" viewBox="0 0 64 64" xmlns="http://www.w3.org/2000/svg"><title>06019lockedC</title><path d="M47.307 48.34c0 1.318-1.069 2.387-2.387 2.387h-25.996c-1.318 0-2.387-1.069-2.387-2.387v-21.258c0-1.318 1.069-2.387 2.387-2.387h2.115v-5.617c0-6.06 4.914-10.973 10.973-10.973 6.062 0 10.976 4.914 10.976 10.973v5.617h1.932c1.318 0 2.387 1.069 2.387 2.387v21.258zm-15.294-16.499c-1.9 0-3.441 1.541-3.441 3.441 0 1.258.68 2.351 1.69 2.95v3.273c0 .988.801 1.787 1.787 1.787.988 0 1.787-.799 1.787-1.787v-3.322c.969-.608 1.62-1.673 1.62-2.901 0-1.9-1.541-3.441-3.443-3.441zm6.582-12.616v-.693c0-3.643-2.952-6.595-6.593-6.595s-6.593 2.952-6.593 6.595v6.164h13.226l-.04-5.471zm-6.595-19.224c-17.673 0-32 14.327-32 32.002 0 17.671 14.327 31.998 32 31.998 17.675 0 32-14.327 32-31.998 0-17.675-14.325-32.002-32-32.002z"/></svg>