<svg width="64" height="64" viewBox="0 0 64 64" xmlns="http://www.w3.org/2000/svg"><title>07014lockoutC</title><path d="M32 0c-17.672 0-32 14.328-32 32s14.328 32 32 32c17.674 0 32-14.328 32-32s-14.326-32-32-32zm10.257 19.946c-.021-.172-.077-.334-.117-.502l1.786-1.005c.134-.077.281-.115.434-.115.328 0 .628.175.835.539.117.207.145.449.079.681-.064.234-.213.426-.422.543l-2.137 1.205c-.166.092-.351.111-.534.087.089-.481.134-.96.077-1.433zm-30.997 28.374c-.202.051-1.607.181-1.824.179-.273-.004-.558-.147-.63-.573-.055-.317-.196-2.883-.196-2.883l1.241-1.797 2.274-1.392.683-2.453 2.197-1.856.321-3.455 5.029-6.206c1.043 1.241 3.002 2.8 4.684 3.664l-13.138 16.374c-.2.232-.441.347-.641.398zm44.652-13.338l-5.746 3.236c-1.013.573-2.165.873-3.328.873-2.47 0-4.752-1.326-5.957-3.464l-4.232-7.513c1.795-1.358 3.317-2.795 4.168-3.885.226-.287.409-.577.581-.866.283.087.577.143.881.143.513 0 1.02-.132 1.467-.383l2.135-1.205c.698-.392 1.201-1.035 1.416-1.807.217-.773.119-1.582-.319-2.361-.779-1.384-2.697-1.925-4.085-1.141l-1.614.907c-.641-.96-1.535-1.863-2.565-2.751l3.066-1.727c-.749-.798-1.799-1.267-2.927-1.267-1.767 0-3.253 1.154-3.792 2.74 2.512 1.963 4.882 3.817 5.109 5.689.102.845-.226 1.737-1.007 2.734-2.231 2.849-8.313 7.213-11.594 7.213-.236 0-.451-.026-.639-.072-1.36-.341-4.394-2.595-5.222-3.86-1.631-2.676 1.275-10.56 3.898-13.904 1.245-1.592 2.189-1.778 2.791-1.778 1.386 0 3.049 1.162 4.948 2.638.986-2.063 3.074-3.502 5.508-3.502 1.918 0 3.687.898 4.835 2.384.873-.392 1.803-.645 2.761-.645 2.47 0 4.752 1.328 5.955 3.466l6.099 10.828c.89 1.58 1.111 3.417.62 5.175-.49 1.758-1.631 3.217-3.21 4.107zm-13.896-2.393c.994 1.765 2.876 2.861 4.916 2.861.96 0 1.91-.247 2.748-.722l3.46-1.95c1.305-.734 2.246-1.939 2.653-3.389.404-1.45.224-2.968-.511-4.271l-.111-.196c-.994-1.765-2.878-2.861-4.916-2.861-.96 0-1.91.249-2.746.722l-3.462 1.948c-2.704 1.522-3.664 4.96-2.142 7.662l.111.196zm2.504-.219l3.798-2.14 1.22 2.167-.89.502c-1.326.739-3.034.456-4.128-.53zm9.248-3.545c-.255.909-.843 1.663-1.661 2.125l-.737.415-1.222-2.165 3.658-2.061c.119.551.117 1.124-.038 1.686zm-3.513-4.662c.992 0 1.916.417 2.574 1.116l-3.711 2.091-1.318-2.34.739-.417c.524-.294 1.116-.449 1.716-.449zm-5.175 2.397l.888-.5 1.32 2.342-3.864 2.176c-.424-1.526.215-3.206 1.656-4.017zm-12.346-10.77c0-.381.045-.752.111-1.116l-.705-.568c-.577-.464-1.429-.37-1.893.207l-.043.051c-.464.575-.37 1.426.207 1.89l3.125 2.514c-.509-.903-.803-1.914-.803-2.978zm3.276 2.842l.03.045c.304-.56.2-1.269-.313-1.682l-.841-.679c.113.873.492 1.684 1.124 2.316z"/></svg>