<svg width="64" height="64" viewBox="0 0 64 64" xmlns="http://www.w3.org/2000/svg"><title>06019lockedL</title><path d="M51.456 24.798h-2.674v-8.057c0-9.231-7.51-16.741-16.741-16.741s-16.741 7.51-16.741 16.741v8.057h-2.928c-1.86 0-3.373 1.515-3.373 3.375v32.451c0 1.862 1.513 3.375 3.373 3.375h39.084c1.857 0 3.37-1.513 3.37-3.375v-32.451c0-1.86-1.513-3.375-3.37-3.375zm.618 35.826c0 .342-.279.616-.618.616h-39.084c-.342 0-.618-.274-.618-.616v-32.451c0-.342.276-.616.618-.616h39.084c.339 0 .618.274.618.616v32.451zm-34.019-43.884c0-7.711 6.273-13.981 13.986-13.981 7.713 0 13.986 6.271 13.986 13.981v8.057h-3.335l-.06-8.819c0-5.853-4.758-10.613-10.606-10.613-5.851 0-10.608 4.76-10.608 10.611v8.822h-3.363v-8.057zm21.883 8.057h-15.766v-8.822c0-4.33 3.521-7.851 7.854-7.851 4.33 0 7.854 3.521 7.854 7.851l.058 8.822zm-7.975 11.383c-2.662 0-4.82 2.156-4.82 4.815 0 1.764.953 3.292 2.367 4.129v4.587c0 1.382 1.121 2.503 2.503 2.503 1.382 0 2.503-1.121 2.503-2.503v-4.652c1.355-.852 2.264-2.342 2.264-4.064 0-2.659-2.156-4.815-4.818-4.815z"/></svg>