<svg width="64" height="64" viewBox="0 0 64 64" xmlns="http://www.w3.org/2000/svg"><title>05034logoutL</title><path d="M32.13 62.925c0 .591-.484 1.075-1.075 1.075h-20.773c-2.365 0-4.282-1.917-4.282-4.282v-55.435c0-2.365 1.917-4.282 4.282-4.282h20.549c.591 0 1.075.484 1.075 1.075v1.723c0 .591-.484 1.075-1.075 1.075h-19.513c-.8 0-1.448.648-1.448 1.451v53.354c0 .8.648 1.448 1.448 1.448h19.737c.591 0 1.075.484 1.075 1.075v1.723zm25.888-31.888l-18.438-18.441c-.227-.224-.529-.349-.851-.352-.323 0-.621.125-.851.352l-1.054 1.057c-.469.469-.469 1.233 0 1.702l14.63 14.624h-34.176c-.66 0-1.201.544-1.201 1.206v1.487c0 .66.541 1.203 1.201 1.203h34.092l-14.755 14.749c-.469.472-.469 1.236 0 1.705l1.054 1.054c.227.227.529.352.851.352.323 0 .624-.125.848-.352l18.65-18.647c.466-.469.466-1.233 0-1.702z"/></svg>