<svg width="64" height="64" viewBox="0 0 64 64" xmlns="http://www.w3.org/2000/svg"><title>05034logoutC</title><path d="M47.643 32.835l-9.137 9.137c-.504.502-.886.502-1.388 0l-.772-.772c-.504-.504-.504-.888 0-1.388l6.359-6.361h-11.726v.002h-4.021c-.71 0-.982-.272-.982-.982v-1.09c0-.712.272-.982.982-.982h.298l.017-.002h15.433l-6.247-6.249c-.504-.502-.504-.886 0-1.39l.769-.769c.504-.504.888-.502 1.39 0l9.024 9.024c.504.504.504 1.318 0 1.821zm-13.577 15.515c0 .359-.293.652-.652.652h-9.911c-1.807 0-3.273-1.464-3.273-3.271v-27.464c0-1.807 1.467-3.271 3.273-3.271h9.911c.359 0 .652.291.652.655v1.747c0 .361-.293.652-.652.652h-8.842c-.712 0-1.288.576-1.288 1.288v25.322c0 .71.576 1.288 1.288 1.288h8.842c.359 0 .652.291.652.652v1.749zm-2.066-48.351c-17.673 0-32 14.327-32 32 0 17.675 14.327 32 32 32 17.673 0 32-14.325 32-32 0-17.673-14.327-32-32-32z"/></svg>