<svg width="64" height="64" viewBox="0 0 64 64" xmlns="http://www.w3.org/2000/svg"><title>05034logoutS</title><path d="M41.912 15.737c-1.167 1.167-1.167 3.076 0 4.243l8.021 8.02h-29.687c-1.649 0-3 1.351-3 3v2c0 1.65 1.351 3 3 3h29.687l-8.021 8.021c-1.167 1.167-1.167 3.076 0 4.243l1.414 1.414c1.167 1.167 3.076 1.167 4.243 0l14.141-14.141.001-.001 1.414-1.414c1.167-1.167 1.167-3.076 0-4.243l-1.414-1.414-.001-.001-14.141-14.141c-1.167-1.167-3.076-1.167-4.243 0l-1.414 1.414zm-5.912 45.263v-2c0-1.65-1.35-3-3-3h-25v-48h25c1.65 0 3-1.35 3-3v-2c0-1.65-1.35-3-3-3h-30c-1.65 0-3 1.35-3 3v58c0 1.65 1.35 3 3 3h30c1.65 0 3-1.35 3-3z"/></svg>