<svg width="64" height="64" viewBox="0 0 64 64" xmlns="http://www.w3.org/2000/svg"><title>01012manuhomeL</title><path d="M48.074 37.499h5.884v-5.882h-5.884v5.882zm-9.119 0h5.884v-5.882h-5.884v5.882zm-28.703 0h5.882v-5.882h-5.882v5.882zm23.732-14.303h25.964c.192 0 .361.117.419.284l1.166 3.047h-23.605l-3.944-3.331zm-31.465 3.349l1.22-3.039c.087-.208.258-.309.446-.309h18.6c-1.881 1.65-3.676 3.234-3.805 3.347h-12.795l-3.43.002h-.236zm23.631 15.404h4.608v-8.967h-4.608v8.967zm32.222 0h-25.559v-11.024h-8.719l-.002 1.454v9.57h-18.29v-13.327h13.93l.583-.514c1.978-1.744 7.265-6.394 7.979-6.973l.014-.012c.672.526 5.317 4.461 8.31 7.009l.577.49h21.177v13.327zm5.521-15.033l-1.609-4.176c-.339-.881-1.387-1.599-2.329-1.599h-28.408c-.988-.831-1.77-1.482-2.006-1.664-.415-.319-.823-.476-1.23-.476-.44 0-.877.183-1.313.536-.246.2-.962.819-1.863 1.605h-20.951c-.942 0-2.002.714-2.353 1.589l-1.718 4.283c-.351.875.131 1.589 1.073 1.589h1.569l.988-.002v15.406h20.441v1.649h8.574v-1.649h27.67v-15.376h2.367c.942-.018 1.436-.835 1.097-1.714z"/></svg>