<svg width="64" height="64" viewBox="0 0 64 64" xmlns="http://www.w3.org/2000/svg"><title>01012manuhomeC</title><path d="M59.156 26.425c-.023-.106-.077-.225-.159-.349l-1.324-2.546c-.166-.247-.427-.472-.71-.638-.285-.162-.591-.264-.857-.264l-23.071.015c1.688 1.685 3.403 3.484 4.238 4.342l20.434-.004-.002-.004h.937c.395 0 .587-.23.514-.553zm-2.772 2.3h-19.443l-.253-.251c-2.474-2.448-6.574-6.474-7.058-6.848-.402-.308-.665-.3-1.084.038-.531.434-4.329 4.302-6.752 6.797l-.255.264h-13.284v14.251h17.256v1.673h7.354v-1.673h23.52v-14.251zm-31.957 19.065h9.817v-1.717h-9.817v1.717zm-17.658-20.812l-.002.004 14.036.004c.835-.859 2.55-2.657 4.238-4.342l-16.674-.015c-.264 0-.572.102-.857.264-.283.166-.542.391-.71.638l-1.324 2.546c-.083.123-.136.242-.159.349-.07.323.119.553.514.553h.937zm57.231 5.022c0 17.673-14.327 32-32 32-17.673 0-32-14.327-32-32 0-17.673 14.327-32 32-32 17.673 0 32 14.327 32 32zm-25.847 5.356h4.995v-4.995h-4.995v4.995zm-24.372 0h4.993v-4.995h-4.993v4.995zm32.113 0h4.995v-4.995h-4.995v4.995zm-20.383 5.622h7.354v-11.203h-7.354v11.203z"/></svg>