<svg width="64" height="64" viewBox="0 0 64 64" xmlns="http://www.w3.org/2000/svg"><title>01012manuhomeF</title><path d="M22.517 47.349h11.665v-2.042h-11.665v2.042zm25.709-12.395h5.934v-5.932h-5.934v5.932zm-9.197 0h5.934v-5.932h-5.934v5.932zm-6.266-5.167v-1.466h-8.794v13.299h8.794v-11.834zm-22.692 5.167h5.934v-5.932h-5.934v5.932zm-6.565-10.254h15.781l.307-.314c2.876-2.964 7.39-7.561 8.023-8.076.497-.401.81-.411 1.283-.045.578.444 5.452 5.226 8.389 8.135l.301.299h23.099v16.921h-27.926v1.997h-8.794v-1.997h-20.463v-16.921zm34.477-2.066l24.278-.004-.002-.006h1.116c.468 0 .694-.271.609-.656-.028-.128-.09-.269-.189-.415l-1.572-3.025c-.2-.295-.507-.562-.845-.757-.336-.193-.702-.314-1.016-.314h-27.413c2.003 2.003 4.043 4.157 5.034 5.177zm-19.567 0l-16.675-.004.002-.006h-1.116c-.47 0-.694-.271-.609-.656.029-.128.09-.269.187-.415l1.574-3.025c.2-.295.507-.562.843-.757.338-.193.704-.314 1.018-.314h19.81c-2.003 2.003-4.041 4.157-5.034 5.177z"/></svg>