<svg width="64" height="64" viewBox="0 0 64 64" xmlns="http://www.w3.org/2000/svg"><title>03002mapC</title><path d="M48.315 43.758c-1.947 2.803-3.945 5.685-5.262 8.929-1.316-3.243-3.316-6.125-5.26-8.929-2.818-4.06-5.477-7.892-5.477-12.151 0-5.921 4.818-10.738 10.74-10.738 5.919 0 10.735 4.816 10.735 10.738 0 4.259-2.659 8.091-5.475 12.151zm-15.409.185l-6.695 3.53c-1.19.629-3.231.861-4.533.519l-6.289-1.66c-1.303-.342-2.368-1.726-2.368-3.071v-27.233c0-1.345 1.065-2.168 2.368-1.824l6.289 1.658c1.303.344 3.343.111 4.533-.516l6.695-3.53c1.19-.629 3.231-.863 4.531-.519l6.285 1.658c1.301.344 2.368 1.728 2.368 3.073v3.443c-.973-.242-1.989-.387-3.039-.387-2.565 0-4.952.778-6.942 2.108v-7.324c0-.493-.4-.893-.893-.893s-.893.4-.893.893v8.776c-2.336 2.276-3.794 5.45-3.794 8.963 0 4.268 2.21 7.938 4.786 11.705-.886.081-1.77.293-2.41.631zm-9.007-25.994c-.493 0-.891.4-.891.893v26.604c0 .493.397.893.891.893.495 0 .893-.4.893-.893v-26.604c0-.493-.397-.893-.893-.893zm19.154 9.005c-2.57 0-4.652 2.083-4.652 4.652 0 2.567 2.083 4.65 4.652 4.65 2.57 0 4.652-2.083 4.652-4.65 0-2.57-2.083-4.652-4.652-4.652zm-11.052-26.954c-17.673 0-32 14.327-32 32 0 17.673 14.327 32 32 32 17.673 0 32-14.327 32-32 0-17.673-14.327-32-32-32z"/></svg>