<svg width="64" height="64" viewBox="0 0 64 64" xmlns="http://www.w3.org/2000/svg"><title>03002mapF</title><path d="M18.478 52.855c0 .774-.627 1.401-1.401 1.401s-1.401-.627-1.401-1.401v-41.764c0-.774.627-1.401 1.401-1.401s1.401.627 1.401 1.401v41.764zm28.666-14.424c-4.033 0-7.303-3.267-7.303-7.3 0-4.036 3.27-7.305 7.303-7.305 4.033 0 7.303 3.27 7.303 7.305 0 4.033-3.27 7.3-7.303 7.3zm.003-24.155c-9.297 0-16.861 7.562-16.861 16.855 0 6.683 4.177 12.702 8.597 19.073 3.056 4.401 6.192 8.926 8.261 14.016 2.066-5.09 5.202-9.614 8.258-14.016 4.42-6.371 8.597-12.39 8.597-19.073 0-9.294-7.562-16.855-16.853-16.855zm-13.706 2.787v-13.775c0-.774.627-1.401 1.401-1.401s1.401.627 1.401 1.401v11.496c3.12-2.087 6.868-3.31 10.898-3.31 1.647 0 3.24.224 4.77.609l-.003-5.405c0-2.114-1.671-4.287-3.715-4.826l-9.862-2.602c-2.045-.539-5.247-.173-7.119.814l-10.506 5.541c-1.871.985-5.074 1.353-7.119.814l-9.873-2.605c-2.042-.539-3.715.75-3.715 2.864v42.746c0 2.114 1.674 4.284 3.715 4.826l9.873 2.602c2.045.539 5.247.173 7.119-.814l10.506-5.541c1.006-.531 2.397-.862 3.785-.99-4.044-5.915-7.511-11.677-7.511-18.374 0-5.514 2.287-10.498 5.955-14.069z"/></svg>