<svg width="64" height="64" viewBox="0 0 64 64" xmlns="http://www.w3.org/2000/svg"><title>03002mapL</title><path d="M53.611 46.416c-2.861 3.333-6.025 7.018-8.089 11.736-2.064-4.718-5.228-8.403-8.086-11.734-4.09-4.763-7.621-8.878-7.621-14.863 0-8.662 7.048-15.708 15.71-15.708 8.66 0 15.708 7.046 15.708 15.708 0 5.985-3.532 10.1-7.621 14.861zm-23.188 1.802l-10.761 5.676c-1.144.603-3.449.867-4.698.538l-10.251-2.705c-1.036-.274-1.946-1.453-1.946-2.524v-41.065c0-.302.085-1.005.862-1.005.118 0 .246.018.377.053l10.251 2.705c1.948.513 4.944.158 6.696-.764l10.761-5.676c1.146-.606 3.454-.865 4.698-.538l10.243 2.705c1.036.271 1.943 1.45 1.943 2.521l.003 5.218c-1.005-.168-2.029-.277-3.082-.277-3.74 0-7.219 1.124-10.13 3.042v-10.633c0-.767-.621-1.385-1.385-1.385s-1.385.618-1.385 1.385v12.865c-3.434 3.356-5.575 8.031-5.575 13.202 0 5.538 2.524 9.627 5.681 13.549.096.239.266.425.47.578.435.528.872 1.056 1.322 1.584-1.483.068-3.016.385-4.095.953zm15.099-23.5c-3.775 0-6.837 3.062-6.837 6.837s3.062 6.837 6.837 6.837 6.837-3.062 6.837-6.837-3.062-6.837-6.837-6.837zm-28.148-13.307c-.767 0-1.385.618-1.385 1.385v39.1c0 .764.618 1.385 1.385 1.385.764 0 1.383-.621 1.383-1.385v-39.1c0-.767-.618-1.385-1.383-1.385zm33.997 2.632l-.003-5.905c0-2.323-1.76-4.608-4.007-5.198l-10.243-2.705c-1.946-.51-4.939-.161-6.696.764l-10.761 5.676c-1.144.603-3.449.867-4.698.538l-10.251-2.705c-2.461-.649-4.713 1.106-4.713 3.63v41.065c0 2.325 1.76 4.608 4.007 5.201l10.251 2.705c.618.161 1.325.244 2.104.244 1.677 0 3.396-.377 4.592-1.008l10.761-5.676c1.144-.606 3.449-.867 4.698-.538l.694.183c2.951 3.532 5.736 7.345 7.078 12.367.161.603.711 1.026 1.337 1.026.628 0 1.176-.422 1.337-1.028 1.609-6.023 5.291-10.311 8.853-14.459 4.261-4.964 8.287-9.655 8.287-16.665 0-8.142-5.301-15.057-12.629-17.513z"/></svg>