<svg width="64" height="64" viewBox="0 0 64 64" xmlns="http://www.w3.org/2000/svg"><title>06032mappointC</title><path d="M39.698 39.428c-2.691 3.131-5.473 6.372-6.689 10.925-.121.457-.536.776-1.01.776s-.888-.319-1.01-.776c-1.216-4.553-3.998-7.794-6.689-10.925-3.222-3.753-6.264-7.296-6.264-12.595 0-6.153 4.006-11.379 9.543-13.233 1.131-.376 2.091-.519 2.091-.519.759-.128 1.532-.21 2.327-.21.795 0 1.569.083 2.325.21 0 0 .963.142 2.094.519 5.537 1.853 9.543 7.08 9.543 13.233 0 5.299-3.041 8.842-6.264 12.595zm-7.698-7.428c-2.854 0-5.167-2.312-5.167-5.167 0-2.852 2.312-5.167 5.167-5.167 2.852 0 5.167 2.315 5.167 5.167 0 2.854-2.315 5.167-5.167 5.167zm0-32c-17.673 0-32 14.327-32 32 0 17.675 14.327 32 32 32 17.673 0 32-14.325 32-32 0-17.673-14.327-32-32-32z"/></svg>