<svg width="64" height="64" viewBox="0 0 64 64" xmlns="http://www.w3.org/2000/svg"><title>06032mappointL</title><path d="M32.358 14.713c-4.775 0-8.645 3.87-8.645 8.645 0 4.773 3.87 8.642 8.645 8.642 4.773 0 8.642-3.87 8.642-8.642 0-4.775-3.87-8.645-8.642-8.645zm10.96 27.803c-3.525 4.105-7.52 8.757-10.069 14.592l-.891 2.034-.891-2.034c-2.549-5.831-6.542-10.482-10.064-14.587-5.298-6.171-9.872-11.497-9.872-19.424 0-11.486 9.342-20.827 20.825-20.827 11.486 0 20.83 9.342 20.83 20.827 0 7.927-4.574 13.253-9.867 19.419zm-3.568-41.298c-1.893-.626-3.502-.866-3.502-.866-1.269-.215-2.562-.352-3.89-.352-1.33 0-2.624.137-3.893.352 0 0-1.609.24-3.499.866-9.264 3.104-15.966 11.845-15.966 22.137 0 8.864 5.09 14.793 10.478 21.07 4.501 5.241 9.157 10.663 11.189 18.277.206.766.898 1.298 1.691 1.298s1.486-.533 1.689-1.298c2.034-7.614 6.688-13.035 11.189-18.277 5.39-6.277 10.48-12.206 10.48-21.07 0-10.293-6.704-19.033-15.966-22.137z"/></svg>