<svg width="64" height="64" viewBox="0 0 64 64" xmlns="http://www.w3.org/2000/svg"><title>07017milewiseF</title><path d="M63.966 26.368c-.606-1.994-2.028-6.28-2.834-8.932-.396-1.352-1.46-.956-1.938-.48-1.838 1.828-4.856 5.154-6.42 6.814-.55.608-.338 1.204.462 1.366l2.544.594-3.82 16.886c-.064.274-.452.284-.53.014l-4.81-17.174c-.318-1.104-1.328-1.864-2.478-1.864-1.15 0-2.16.762-2.48 1.866l-4.774 17.098c-.078.272-.466.262-.53-.014l-6.486-25.632-.152-.608c-.346-1.354-1.568-2.302-2.966-2.302-1.368 0-2.57.906-2.946 2.222l-4.558 15.97c-.076.266-.452.266-.528 0l-4.558-15.97c-.376-1.316-1.578-2.222-2.946-2.222h-.012c-1.392 0-2.61.94-2.962 2.286l-4.912 18.752c-1.914.478-3.332 2.208-3.332 4.27 0 2.432 1.97 4.402 4.402 4.402 2.43 0 4.402-1.97 4.402-4.402 0-1.126-.426-2.156-1.122-2.934l3.448-15.25c.064-.274.452-.284.532-.014l4.808 17.174c.32 1.104 1.33 1.862 2.478 1.862 1.15 0 2.162-.76 2.48-1.864l4.774-17.098c.078-.272.466-.262.53.014l6.638 26.24c.348 1.354 1.568 2.302 2.968 2.302 1.368 0 2.57-.906 2.944-2.222l4.558-15.97c.076-.266.452-.266.528 0l4.558 15.97c.376 1.316 1.578 2.222 2.946 2.222h.012c1.394 0 2.61-.94 2.964-2.286l5.416-20.678 2.734.638c.59.092 1.148-.4.968-1.046"/></svg>