<svg width="64" height="64" viewBox="0 0 64 64" xmlns="http://www.w3.org/2000/svg"><title>07019milemainC</title><path d="M52.011 46.121c-.196.068-.395.1-.593.1-.763 0-1.475-.48-1.736-1.243l-7.52-22.057-7.373 19.662c-.268.716-.954 1.192-1.719 1.192-.763 0-1.45-.476-1.717-1.192l-7.373-19.662-6.385 18.723c.682.714 1.103 1.679 1.103 2.742 0 2.196-1.779 3.977-3.974 3.977-2.198 0-3.977-1.781-3.977-3.977 0-1.989 1.464-3.634 3.375-3.923l8.038-23.579c.249-.733.933-1.231 1.709-1.243.78-.011 1.473.465 1.745 1.192l7.456 19.883 7.458-19.883c.272-.727.967-1.211 1.745-1.192.776.013 1.46.51 1.709 1.243l9.175 26.912c.327.959-.187 2.002-1.146 2.327zm-20.011-46.121c-17.673 0-32 14.327-32 32 0 17.675 14.327 32 32 32 17.673 0 32-14.325 32-32 0-17.673-14.327-32-32-32z"/></svg>