<svg width="64" height="64" viewBox="0 0 64 64" xmlns="http://www.w3.org/2000/svg"><title>07018mileactvtyF</title><path d="M62.791 40.36l-4.686 1.598-11.623-34.098c-.375-1.097-1.397-1.84-2.555-1.858-1.161-.03-2.203.695-2.61 1.781l-13.047 34.791h-25.527c-1.515 0-2.743 1.23-2.743 2.743 0 1.515 1.227 2.743 2.743 2.743h27.429c1.143 0 2.167-.709 2.569-1.778l11.022-29.397 9.152 26.843-4.386 1.495c-.665.226-.837 1.09-.306 1.554l12.779 11.321 2.981-16.695c.137-.69-.526-1.269-1.191-1.042zm-60.048-4.187h20.114c1.515 0 2.743-1.227 2.743-2.743 0-1.515-1.227-2.743-2.743-2.743h-20.114c-1.515 0-2.743 1.227-2.743 2.743 0 1.515 1.227 2.743 2.743 2.743zm0-11.886h20.114c1.515 0 2.743-1.227 2.743-2.743 0-1.513-1.227-2.743-2.743-2.743h-20.114c-1.515 0-2.743 1.23-2.743 2.743 0 1.515 1.227 2.743 2.743 2.743zm0-11.886h20.114c1.515 0 2.743-1.227 2.743-2.743 0-1.513-1.227-2.743-2.743-2.743h-20.114c-1.515 0-2.743 1.23-2.743 2.743 0 1.515 1.227 2.743 2.743 2.743z"/></svg>