<svg width="64" height="64" viewBox="0 0 64 64" xmlns="http://www.w3.org/2000/svg"><title>07018mileactvtyC</title><path d="M51.112 49.365l-8.338-7.647c-.353-.308-.238-.88.204-1.031l2.912-.995-6.077-17.828-7.322 19.524c-.266.712-.946 1.182-1.705 1.182h-18.219c-1.005 0-1.821-.816-1.821-1.821s.816-1.821 1.821-1.821h16.956l8.665-23.107c.27-.723.961-1.203 1.732-1.184.769.013 1.45.506 1.696 1.235l7.722 22.646 3.112-1.061c.442-.151.882.234.791.693l-2.13 11.216zm-38.544-18.332h13.36c1.005 0 1.821.814 1.821 1.821 0 1.005-.816 1.821-1.821 1.821h-13.36c-1.005 0-1.821-.816-1.821-1.821 0-1.007.816-1.821 1.821-1.821zm0-7.896h13.36c1.005 0 1.821.816 1.821 1.824 0 1.005-.816 1.821-1.821 1.821h-13.36c-1.005 0-1.821-.816-1.821-1.821 0-1.007.816-1.824 1.821-1.824zm0-7.894h13.36c1.005 0 1.821.816 1.821 1.821 0 1.007-.816 1.821-1.821 1.821h-13.36c-1.005 0-1.821-.814-1.821-1.821 0-1.005.816-1.821 1.821-1.821zm19.433-15.243c-17.673 0-32 14.327-32 32 0 17.675 14.327 32 32 32 17.673 0 32-14.325 32-32 0-17.673-14.327-32-32-32z"/></svg>