<svg width="64" height="64" viewBox="0 0 64 64" xmlns="http://www.w3.org/2000/svg"><title>07017milewiseC</title><path d="M57.084 28.395l-2.213-.516-4.383 16.731c-.287 1.09-1.271 1.851-2.397 1.851h-.011c-1.107 0-2.079-.733-2.383-1.798l-3.69-12.925c-.062-.215-.366-.215-.427 0l-3.688 12.925c-.304 1.065-1.277 1.798-2.385 1.798-1.131 0-2.119-.767-2.4-1.864l-5.371-21.233c-.053-.223-.368-.232-.429-.013l-3.864 13.836c-.257.895-1.075 1.509-2.006 1.509-.929 0-1.747-.614-2.006-1.507l-3.892-13.896c-.062-.221-.376-.213-.429.011l-2.791 12.34c.565.629.908 1.462.908 2.374 0 1.968-1.594 3.562-3.562 3.562-1.966 0-3.56-1.594-3.56-3.562 0-1.668 1.148-3.069 2.695-3.456l3.974-15.173c.287-1.09 1.271-1.851 2.397-1.851h.011c1.107 0 2.079.735 2.383 1.798l3.69 12.925c.062.215.366.215.427 0l3.688-12.925c.304-1.063 1.277-1.798 2.385-1.798 1.131 0 2.119.767 2.4 1.864l.123.491 5.248 20.742c.053.223.368.232.429.013l3.864-13.836c.257-.895 1.075-1.509 2.006-1.509.929 0 1.747.614 2.006 1.507l3.892 13.896c.062.221.376.213.427-.011l3.092-13.664-2.06-.48c-.646-.13-.818-.614-.374-1.105 1.267-1.343 3.709-4.034 5.197-5.515.385-.383 1.248-.704 1.569.389.65 2.147 1.802 5.615 2.291 7.228.147.525-.304.922-.782.848zm-25.084-28.395c-17.673 0-32 14.327-32 32 0 17.675 14.327 32 32 32 17.673 0 32-14.325 32-32 0-17.673-14.327-32-32-32z"/></svg>