<svg width="64" height="64" viewBox="0 0 64 64" xmlns="http://www.w3.org/2000/svg"><title>07019milemainF</title><path d="M63.852 49.39l-13.813-40.517c-.377-1.104-1.406-1.854-2.574-1.872-1.17-.032-2.219.699-2.629 1.794l-11.225 29.936-11.227-29.936c-.409-1.093-1.454-1.81-2.629-1.794-1.166.018-2.194.768-2.571 1.872l-12.103 35.5c-2.875.437-5.081 2.912-5.081 5.909 0 3.307 2.679 5.986 5.986 5.986 3.305 0 5.984-2.679 5.984-5.986 0-1.602-.633-3.054-1.659-4.128l9.611-28.19 11.102 29.605c.405 1.079 1.435 1.792 2.587 1.792 1.152 0 2.183-.713 2.587-1.792l11.102-29.605 11.321 33.209c.393 1.15 1.465 1.872 2.615 1.872.295 0 .597-.048.891-.149 1.445-.491 2.215-2.062 1.723-3.506"/></svg>