<svg width="64" height="64" viewBox="0 0 64 64" xmlns="http://www.w3.org/2000/svg"><title>07020milespendC</title><path d="M32.733 46.555c2.448-.278 4.414-1.107 5.702-2.408 1.107-1.124 1.662-2.561 1.641-4.272-.026-2-.891-4.485-7.343-6.026v12.706zm13.955-20.746l-.927-8.125c-.026-.232-.17-.427-.385-.521-.217-.098-.455-.068-.642.072l-2.055 1.522c-2.013-2.06-5.322-4.512-9.947-4.988v-2.969c0-1.007-.818-1.828-1.824-1.828-1.007 0-1.828.82-1.828 1.828v2.984c-7.52.74-10.206 5.418-10.206 9.579 0 3.554 2.684 7.957 10.206 9.73v13.479c-3.645-.366-6.353-1.858-8.499-4.682-.61-.806-1.76-.959-2.557-.349-.803.61-.959 1.756-.351 2.557 2.835 3.73 6.57 5.739 11.407 6.138v2.965c0 1.005.82 1.826 1.828 1.826 1.005 0 1.824-.82 1.824-1.826v-2.969c3.473-.319 6.34-1.535 8.3-3.522 1.794-1.815 2.727-4.193 2.695-6.878-.06-5.007-3.658-8.191-10.995-9.73v-12.65c3.163.431 5.507 2.085 6.98 3.498l-2.102 1.554c-.189.142-.285.363-.257.597.028.232.17.427.385.521l7.503 3.26c.34.147.731.104 1.031-.119.304-.223.459-.58.417-.954zm17.311 6.191c0 17.675-14.327 32-32 32-17.673 0-32-14.325-32-32 0-17.673 14.327-32 32-32 17.673 0 32 14.327 32 32zm-34.918-14.54v11.862c-4.113-1.165-6.557-3.379-6.557-5.96 0-1.552.646-5.194 6.557-5.902z"/></svg>