<svg width="64" height="64" viewBox="0 0 64 64" xmlns="http://www.w3.org/2000/svg"><title>01022minivanF</title><path d="M34.918 29.136s0-6.431.008-6.469c.026-.142.148-.445.539-.443 1.916.014 3.447.206 4.627.455 3.98.842 7.07 4.709 8.413 6.325.305.369.034.922-.443.91l-12.637-.259c-.283-.006-.507-.236-.507-.519zm-1.649-.048c0 .289-.236.523-.529.517l-12.7-.23c-.283-.008-.509-.236-.509-.519v-6.277c0-.289.236-.521.523-.519l12.704.15c.283.002.511.234.511.519v6.359zm-20.796 15.261c-1.98 0-3.589-1.609-3.589-3.587 0-1.978 1.609-3.587 3.589-3.587 1.978 0 3.587 1.609 3.587 3.587 0 1.978-1.609 3.587-3.587 3.587zm-5.224-21.91c0-.289.236-.521.525-.519l9.597.11c.285.002.513.234.513.519v6.257c0 .291-.238.525-.529.517l-9.597-.168c-.281-.006-.509-.234-.509-.519v-6.196zm44.217 21.91c-1.978 0-3.587-1.609-3.587-3.587 0-1.978 1.609-3.587 3.587-3.587 1.978 0 3.589 1.609 3.589 3.587 0 1.978-1.611 3.587-3.589 3.587zm12.523-8.198c0-.289-.816-.766-.816-.766s.158-2.633-.816-3.948c-1.527-2.062-5.884-3.363-9.766-4.8 0 0-5.705-5.623-11.241-7.066-8.094-2.112-27.515-1.545-35.199-1.365-1.665.04-3.589 2.725-4.413 5.802-.834 3.1-.834 4.792-.834 7.385v5.14s-.535.385-.731.737c-.198.355-.309 1.315.126 2.649.567 1.677 2.733 1.721 6.142 1.657.403 2.982 2.938 5.297 6.03 5.297 2.746 0 5.048-1.832 5.816-4.329h27.361c.77 2.497 3.07 4.329 5.816 4.329 2.986 0 5.469-2.154 6-4.986 1.98-.066 5.15-.325 5.818-1.299.864-1.259.705-2.503.705-4.439z"/></svg>