<svg width="64" height="64" viewBox="0 0 64 64" xmlns="http://www.w3.org/2000/svg"><title>01022minivanL</title><path d="M61.801 36.307l-.002-.385-.25-.165-.576-.341.036-.671c.019-.326.002-.772-.044-1.227l-.203.028c-.954 0-1.727-.521-1.727-1.164 0-.489.466-.88 1.103-1.05-1.261-1.28-4.133-2.322-6.937-3.327-.567-.205-1.136-.408-1.695-.616l-.22-.08-.169-.165c-.053-.053-5.371-5.242-10.364-6.546-3.625-.946-10.251-1.405-20.255-1.405-3.069 0-6.017.04-8.55.076-1.917.025-3.596.049-4.91.049-.781 0-2.417 1.867-3.202 4.789-.736 2.739-.764 4.241-.766 6.558.804.099 1.426.546 1.426 1.115 0 .571-.622 1.018-1.426 1.117v3.579l-.455.33c-.154.112-.347.29-.396.366-.032.095-.106.7.212 1.676.178.527.83.859 3.517.859l1.805-.025c.453-2.552 2.675-4.501 5.354-4.501 3.005 0 5.449 2.444 5.452 5.449l26.788-.004c.004-3.003 2.446-5.445 5.452-5.445 2.787 0 5.069 2.114 5.386 4.819 3.039-.068 4.829-.493 5.138-.806.483-.707.495-1.397.478-2.887zm-7.746 4.326c0-1.795-1.462-3.257-3.257-3.257-1.797 0-3.259 1.462-3.259 3.257 0 1.797 1.462 3.257 3.259 3.257 1.795 0 3.257-1.46 3.257-3.257zm-37.691 0c0-1.795-1.46-3.257-3.257-3.257-1.795 0-3.257 1.462-3.257 3.257 0 1.797 1.462 3.257 3.257 3.257 1.797 0 3.257-1.46 3.257-3.257zm47.632-4.351c.017 1.526.034 2.842-.88 4.175-.288.417-1.158 1.659-7.124 1.744-.679 2.239-2.736 3.883-5.193 3.883-2.228 0-4.142-1.346-4.986-3.265h-27.719c-.847 1.919-2.76 3.265-4.986 3.265-2.576 0-4.728-1.801-5.295-4.209-.98 0-1.291.028-1.864.028-1.913 0-4.802 0-5.6-2.362-.449-1.376-.463-2.692-.04-3.445.146-.262.364-.504.567-.692v-4.451c0-2.578 0-4.281.84-7.416.857-3.187 2.959-6.415 5.323-6.415 1.306 0 2.976-.023 4.88-.049 2.542-.034 5.5-.074 8.58-.074 10.336 0 16.947.468 20.81 1.475 5.09 1.329 10.163 5.972 11.176 6.935l1.458.529c3.498 1.255 6.802 2.44 8.258 4.404.853 1.151 1.001 2.933 1.014 3.894.777.614.777 1.124.777 1.31l.006.734zm-24.181-13.743c-1.141-.241-2.618-.425-4.468-.438-.379-.002-.497.288-.523.427-.008.036-.008 6.247-.008 6.247 0 .271.218.495.491.499l12.205.25c.461.013.722-.523.427-.876-1.295-1.562-4.281-5.297-8.125-6.11zm-21.944-.626l-9.267-.106c-.277-.004-.508.22-.508.502v5.983c0 .275.22.497.493.502l9.267.163c.281.006.512-.218.512-.499v-6.044c0-.273-.222-.497-.497-.499zm15.354.675v6.139c0 .279-.229.506-.51.502l-12.266-.224c-.273-.006-.491-.226-.491-.502v-6.059c0-.279.229-.506.508-.502l12.264.146c.273.002.495.224.495.499z"/></svg>