<svg width="64" height="64" viewBox="0 0 64 64" xmlns="http://www.w3.org/2000/svg"><title>01022minivanC</title><path d="M36.991 29.269c-1.577-1.897-5.211-6.443-9.887-7.432-1.389-.293-3.186-.52-5.438-.535-.46-.004-.603.353-.636.52-.008.043-.008 7.604-.008 7.604 0 .33.264.601.595.607l14.852.306c.562.014.879-.636.522-1.069zm-18.508-7.983l-10.162-.114c-.339-.004-.617.27-.617.609v7.377c0 .33.266.601.599.609l10.162.209c.341.006.619-.268.619-.609v-7.471c0-.334-.268-.607-.601-.609zm-13.335 8.421c.341.008.621-.266.621-.609v-7.352c0-.334-.27-.607-.603-.609l-3.57-.041c-.915 2.694-1.458 5.551-1.596 8.52l5.147.091zm25.862-29.706c-11.867 0-22.175 6.654-27.411 16.431 9.261 0 19.413.299 24.983 1.751 6.505 1.697 13.211 8.303 13.211 8.303 4.561 1.691 9.681 3.217 11.477 5.642 1.144 1.544.958 4.641.958 4.641s.96.559.96.898c0 2.275.184 3.739-.83 5.217-.785 1.144-4.511 1.447-6.838 1.526-.623 3.328-3.543 5.859-7.05 5.859-3.227 0-5.931-2.153-6.836-5.087h-30.301c5.141 10.073 15.591 16.985 27.677 16.985 17.166 0 31.083-13.917 31.083-31.083 0-17.169-13.917-31.083-31.083-31.083zm5.244 43.086c0-2.325 1.891-4.216 4.216-4.216s4.218 1.891 4.218 4.216-1.893 4.216-4.218 4.216-4.216-1.891-4.216-4.216z" fill="#221F20"/></svg>