<svg width="64" height="64" viewBox="0 0 64 64" xmlns="http://www.w3.org/2000/svg"><title>06030moreL</title><path d="M32 26.667c-2.941 0-5.333 2.392-5.333 5.333 0 2.941 2.392 5.333 5.333 5.333 2.941 0 5.333-2.392 5.333-5.333 0-2.941-2.392-5.333-5.333-5.333zm24 0c-2.941 0-5.333 2.392-5.333 5.333 0 2.941 2.392 5.333 5.333 5.333 2.941 0 5.333-2.392 5.333-5.333 0-2.941-2.392-5.333-5.333-5.333zm0 13.333c-4.411 0-8-3.589-8-8s3.589-8 8-8 8 3.589 8 8-3.589 8-8 8zm-48-13.333c-2.941 0-5.333 2.392-5.333 5.333 0 2.941 2.392 5.333 5.333 5.333 2.941 0 5.333-2.392 5.333-5.333 0-2.941-2.392-5.333-5.333-5.333zm0 13.333c-4.411 0-8-3.589-8-8s3.589-8 8-8 8 3.589 8 8-3.589 8-8 8zm24 0c-4.411 0-8-3.589-8-8s3.589-8 8-8 8 3.589 8 8-3.589 8-8 8z"/></svg>