<svg width="64" height="64" viewBox="0 0 64 64" xmlns="http://www.w3.org/2000/svg"><title>06030moreC</title><path d="M46.971 36.159c-2.298 0-4.159-1.862-4.159-4.159 0-2.295 1.862-4.159 4.159-4.159 2.295 0 4.157 1.864 4.157 4.159 0 2.298-1.862 4.159-4.157 4.159zm-14.971 0c-2.295 0-4.157-1.862-4.157-4.159 0-2.295 1.862-4.159 4.157-4.159 2.298 0 4.159 1.864 4.159 4.159 0 2.298-1.862 4.159-4.159 4.159zm-14.969 0c-2.298 0-4.159-1.862-4.159-4.159 0-2.295 1.862-4.159 4.159-4.159 2.295 0 4.157 1.864 4.157 4.159 0 2.298-1.862 4.159-4.157 4.159zm14.969-36.159c-17.673 0-32 14.327-32 32 0 17.675 14.327 32 32 32 17.673 0 32-14.325 32-32 0-17.673-14.327-32-32-32z"/></svg>