<svg width="64" height="64" viewBox="0 0 64 64" xmlns="http://www.w3.org/2000/svg"><title>01018motorhomeL</title><path d="M61.67 38.291c0-.769-.627-1.784-1.315-2.126l-4.855-2.429c-1.293-.649-2.815-2.168-3.461-3.463l-2.427-4.853c-.344-.688-1.359-1.315-2.131-1.315h-4.638c-.566 0-1.026.46-1.026 1.028v18.577h5.498c.178-3.238 2.843-5.822 6.124-5.822 3.249 0 5.892 2.536 6.116 5.73.603-.064 1.188-.14 1.633-.224.158-.033.362-.107.482-.178v-4.925zm-8.231 1.925c-2.111 0-3.827 1.719-3.827 3.827 0 2.111 1.716 3.829 3.827 3.829 2.111 0 3.827-1.719 3.827-3.829 0-2.109-1.716-3.827-3.827-3.827zm-5.41-18.43l3.735-.765c.215-.042.37-.136.438-.27.07-.129.057-.313-.033-.513l-1.626-3.597c-.309-.686-1.278-1.311-2.032-1.311h-45.153c-.566 0-1.026.46-1.026 1.028v26.324c0 .568.46 1.028 1.026 1.028h4.8c.178-3.238 2.843-5.822 6.124-5.822 3.281 0 5.947 2.584 6.124 5.822h5.914v-18.577c0-1.852 1.506-3.358 3.358-3.358h4.391c1.85 0 3.356 1.506 3.356 3.358v18.577h2.058v-18.577c0-1.852 1.508-3.347 3.358-3.347h5.186zm-12.933 3.347c0-.568-.46-1.028-1.026-1.028h-4.391c-.568 0-1.028.46-1.028 1.028v18.577h6.444v-18.577zm-20.813 15.083c-2.111 0-3.825 1.719-3.825 3.827 0 2.111 1.714 3.829 3.825 3.829s3.827-1.719 3.827-3.829c0-2.109-1.716-3.827-3.827-3.827zm49.717-1.925v5.121c0 1.346-1.282 2.065-2.381 2.271-.644.123-1.506.228-2.365.302-.82 2.44-3.102 4.215-5.815 4.215-2.694 0-4.963-1.749-5.798-4.16h-27.56c-.833 2.411-3.104 4.16-5.798 4.16-2.692 0-4.963-1.749-5.796-4.16h-5.129c-1.852 0-3.358-1.506-3.358-3.358v-26.324c0-1.852 1.506-3.358 3.358-3.358h45.153c1.651 0 3.477 1.177 4.156 2.683l1.626 3.597c.384.85.375 1.78-.024 2.549-.399.765-1.153 1.304-2.071 1.48l-1.087.206c.232.267.432.559.585.866l2.427 4.853c.43.857 1.561 1.988 2.42 2.418l4.853 2.429c1.46.728 2.604 2.576 2.604 4.211zm-15.053-11.201c-.449-.969-1.127-1.747-2.37-1.747h-2.179c-.789 0-1.129.971-1.129 1.846l.031 3.494c0 .969.789 1.648 2.258 1.648h3.426c1.129 0 1.806-.969 1.355-1.843-.452-.872-1.392-3.398-1.392-3.398zm-27.31 2.431c0 1.206-.986 2.192-2.192 2.192h-10.239c-1.206 0-2.192-.986-2.192-2.192v-4.391c0-1.206.986-2.192 2.192-2.192h10.239c1.206 0 2.192.986 2.192 2.192v4.391z"/></svg>