<svg width="64" height="64" viewBox="0 0 64 64" xmlns="http://www.w3.org/2000/svg"><title>01007motorcycleF</title><path d="M61.846 40.07c0-4.14-3.393-7.51-7.562-7.508-1.068 0-2.08.226-3.001.624l3.904 6.381c.31.505.152 1.169-.357 1.479-.175.107-.368.16-.561.16-.363 0-.717-.183-.92-.516l-3.88-6.362c-1.664 1.378-2.748 3.428-2.748 5.744 0 4.14 3.393 7.508 7.564 7.508s7.562-3.37 7.562-7.51zm-43.241.347c-.002-4.032-3.302-7.311-7.358-7.311-4.058 0-7.358 3.28-7.358 7.311 0 4.029 3.302 7.305 7.359 7.305 4.056 0 7.356-3.278 7.356-7.305zm7.615-12.014c.52 1.006 1.705 1.555 3.518 1.633l.485.01c2.604 0 7.903-.702 10.232-1.688 3.247-1.376 1.922-5.081 1.421-6.475-.142-.396-.782-1.226-.961-1.75-.119-.503-.314-1.472-.46-2.968-.097-.031-.232-.043-.394-.041-1.204.033-3.937.897-6.43 2.078-.142.068-.29.097-.44.101-.423.021-.838-.207-1.031-.612-.257-.538-.025-1.179.511-1.436 1.52-.723 4.683-2.095 7.013-2.239.776-.055 1.464.027 1.967.314.569.324.916.867.98 1.534.156 1.664.376 2.618.456 2.931l3.479 5.683c.058-1.019.885-1.834 1.916-1.834.246 0 .481.053.698.134v3.612c-.216.084-.45.136-.698.136-.277 0-.534-.074-.774-.183l2.442 3.992c1.253-.589 2.651-.93 4.132-.93 5.368 0 9.718 4.327 9.718 9.663 0 5.338-4.348 9.665-9.716 9.665-5.37 0-9.718-4.325-9.718-9.663 0-3.089 1.462-5.833 3.73-7.603l-1.91-3.128-7.289 9.821c-.758 1.019-2.417 1.857-3.689 1.861l-13.429.035c-.403.002-.83-.018-1.251-.041-.312 4.945-4.428 8.86-9.478 8.86-5.255 0-9.513-4.233-9.515-9.459 0-5.227 4.259-9.466 9.513-9.466l.037.002-.039-.355c0-.573.21-1.023.546-1.31-3.167-.099-6.822.963-9.611 4.118-.246.279-.591.423-.934.423-.294 0-.589-.105-.826-.314-.516-.456-.565-1.243-.107-1.76 3.298-3.734 7.743-5.161 11.737-4.988l-.051-.037c-.472-.364-.555-1.041-.191-1.51.364-.47 1.041-.555 1.509-.193.209.158 4.685 3.469 11.324 1.553.587-.172 1.164.17 1.333.737.082.269.049.706.246 1.086zm2.101-2.273c.696-.807 2.013-1.912 4.531-3.348 1.099-.628 2.857-1.53 4.399-2.138.976-.388 2.284.491 2.791 1.896.889 2.485.799 3.537-.347 4.023-2.226.945-7.72 1.625-9.872 1.526-1.185-.051-1.744-.333-1.873-.583-.136-.263-.047-.885.37-1.376z"/></svg>