<svg width="64" height="64" viewBox="0 0 64 64" xmlns="http://www.w3.org/2000/svg"><title>01018motorhomeC</title><path d="M42.316 41.464c-2.345 0-4.253 1.908-4.253 4.253s1.908 4.253 4.253 4.253 4.253-1.908 4.253-4.253-1.908-4.253-4.253-4.253zm10.661-4.044c0-1.071-.749-2.283-1.703-2.76l-7.424-3.712c-.733-.365-1.664-1.297-2.031-2.031l-3.584-7.168h-10.663c-.359 0-.661.303-.661.661v24.147h8.76c.419 3.314 3.221 5.892 6.646 5.892 3.452 0 6.272-2.62 6.654-5.973.386-.043.756-.093 1.055-.151.493-.093 2.952-.621 2.952-1.91v-6.995zm-32.828-14.842c0-.359-.303-.661-.661-.661h-7.073c-.357 0-.661.301-.661.661v23.977h8.394v-23.977zm41.992 8.506c0 17.169-13.915 31.083-31.083 31.083-11.528 0-21.568-6.291-26.934-15.612h5.649v-23.977c0-1.458 1.185-2.643 2.643-2.643h7.073c1.458 0 2.643 1.185 2.643 2.643v23.977h2.797v-24.147c0-1.458 1.185-2.643 2.643-2.643h11.861l2.884-.543c.557-.103.999-.421 1.214-.869.215-.45.184-.993-.087-1.491l-2.669-4.953c-.504-.937-1.732-1.672-2.797-1.672h-29.929c5.688-6.272 13.876-10.238 23.011-10.238 17.169 0 31.083 13.917 31.083 31.083zm-56.642-.504c.908 0 1.652-.743 1.652-1.652v-7.073c0-.908-.743-1.652-1.652-1.652h-3.528c-1.214 3.239-1.912 6.726-1.972 10.376h5.5zm31.515 1.142h-4.055c-1.734 0-2.667-.803-2.667-1.951l-.037-4.131c0-1.032.401-2.18 1.334-2.18h2.579c1.468 0 2.269.919 2.802 2.065 0 0 1.111 2.985 1.643 4.018.535 1.034-.266 2.18-1.598 2.18z" fill="#221F20"/></svg>