<svg width="64" height="64" viewBox="0 0 64 64" xmlns="http://www.w3.org/2000/svg"><title>01018motorhomeF</title><path d="M8.407 31.421c-1.069 0-1.944-.872-1.944-1.941v-5.083c0-1.067.874-1.941 1.944-1.941h11.061c1.069 0 1.944.874 1.944 1.941v5.083c0 1.069-.874 1.941-1.944 1.941h-11.061zm-.616 12.279c0-2.119 1.722-3.843 3.843-3.843 2.119 0 3.843 1.724 3.843 3.843 0 2.119-1.724 3.843-3.843 3.843-2.121 0-3.843-1.724-3.843-3.843zm32.439-18.745c0-1.606 1.308-2.912 2.914-2.912h9.759c.598-.142 1.093-.486 1.354-.986.276-.53.278-1.179.007-1.781l-1.906-4.22c-.521-1.153-1.919-2.055-3.186-2.055h-46.745c-1.339 0-2.428 1.089-2.428 2.428v27.503c0 1.339 1.089 2.428 2.428 2.428h3.094c.734 2.699 3.184 4.702 6.113 4.702 2.93 0 5.377-2.003 6.111-4.702h8.729v-20.515c0-1.608 1.308-2.914 2.914-2.914h5.083c1.606 0 2.914 1.306 2.914 2.914v20.515h2.844v-20.404zm-4.788 20.404h-7.025v-20.515c0-.537.436-.973.971-.973h5.083c.537 0 .971.436.971.973v20.515zm9.113-14.396l-.031-3.572c0-.892.346-1.884 1.153-1.884h2.226c1.269 0 1.961.793 2.423 1.786 0 0 .96 2.579 1.422 3.471.46.894-.232 1.887-1.385 1.887h-3.504c-1.499 0-2.305-.695-2.305-1.687zm6.827 12.737c0-2.119 1.724-3.843 3.845-3.843 2.119 0 3.841 1.724 3.841 3.843 0 2.119-1.722 3.843-3.841 3.843-2.121 0-3.845-1.724-3.845-3.843zm10.612-9.097l-5.493-2.745c-.863-.432-1.957-1.525-2.388-2.39l-2.741-5.482h-8.228c-.537 0-.971.436-.971.971v20.404h6.939c.736 2.699 3.184 4.702 6.115 4.702 3.013 0 5.53-2.112 6.183-4.93l.436-.068c.221-.042 2.152-.44 2.152-1.683v-5.53c0-1.258-.881-2.684-2.005-3.247z"/></svg>