<svg width="64" height="64" viewBox="0 0 64 64" xmlns="http://www.w3.org/2000/svg"><title>01007motorcycleL</title><path d="M54.258 47.662c-4.181 0-7.584-3.375-7.584-7.527 0-2.308 1.075-4.352 2.729-5.734l3.879 6.356c.202.333.558.517.921.517.192 0 .388-.052.565-.16.508-.31.669-.975.356-1.485l-3.904-6.379c.931-.408 1.956-.642 3.038-.642 4.181 0 7.581 3.377 7.581 7.527 0 4.152-3.4 7.527-7.581 7.527zm-23.609-20.882c2.306-1.838 7.667-4.596 9.1-4.621 1.471 0 2.686 1.092 2.711 2.431.023 1.371-1.179 2.506-2.677 2.531l-1.248.029c-1.358.038-3.354.09-5.202.09-.971 0-1.702-.017-2.281-.04-.527 0-.625-.223-.402-.421zm-19.54 21.022c-4.069 0-7.379-3.286-7.379-7.323 0-4.042 3.311-7.327 7.379-7.327 4.067 0 7.375 3.286 7.375 7.327 0 4.038-3.308 7.323-7.375 7.323zm43.149-17.355c-1.496 0-2.908.346-4.175.944l-2.469-4.033c.254.123.529.202.829.202.248 0 .481-.052.698-.135v-3.621c-.217-.081-.45-.133-.698-.133-1.052 0-1.898.84-1.933 1.885l-3.515-5.746c-.081-.315-.3-1.271-.458-2.94-.06-.667-.41-1.213-.981-1.538-2.01-1.146-6.938.971-8.963 1.931-.54.256-.769.9-.513 1.44.254.54.898.769 1.438.513 2.865-1.36 6.036-2.296 6.879-2.042.146 1.5.34 2.471.458 2.975-.383-.088-.779-.148-1.194-.148h-.002c-2.129.035-11.573 4.608-12.152 7.565-.56.215-1.152.438-1.76.65.156-.25.219-.558.129-.865-.165-.575-.773-.906-1.335-.74-6.694 1.927-11.171-1.417-11.359-1.56-.473-.36-1.146-.275-1.51.194-.367.473-.279 1.15.192 1.517l.31.217c-4.025-.25-8.559 1.146-11.902 4.931-.396.446-.352 1.129.094 1.523.206.183.46.271.715.271.3 0 .596-.123.81-.365 4.504-5.096 11.246-4.825 14.659-2.969.108.05 2.708 1.229 5.236 1.094 1.819-.094 5.452-1.452 7.434-2.242.913.138 2.221.179 4.115.179 1.869 0 3.886-.054 5.259-.09l1.227-.029c2.117-.038 3.883-1.365 4.527-3.175l1.388 2.277-7.569 10.194c-.554.746-1.904 1.427-2.831 1.429l-14.709.038c-.229-5.036-4.394-9.054-9.515-9.054-5.269 0-9.538 4.248-9.538 9.488 0 5.24 4.269 9.484 9.538 9.484 4.673 0 8.552-3.344 9.371-7.757l14.857-.038c1.602-.004 3.606-1.017 4.561-2.302l7.05-9.492 1.306 2.142c-2.275 1.773-3.74 4.523-3.74 7.619 0 5.352 4.358 9.688 9.744 9.688 5.379 0 9.742-4.336 9.742-9.688 0-5.35-4.363-9.688-9.742-9.688z"/></svg>