<svg width="64" height="64" viewBox="0 0 64 64" xmlns="http://www.w3.org/2000/svg"><title>01007motorcycleC</title><path d="M10.043 22.947c-.413.539-.572 1.257-.419 1.555.147.281.778.601 2.114.659 2.432.111 8.634-.657 11.146-1.724 1.294-.547 1.396-1.736.392-4.542-.572-1.588-1.775-2.548-3.161-2.131-1.74.685-3.716 1.695-4.957 2.403-2.843 1.623-4.331 2.87-5.116 3.78m15.304-4.796c.549 1.581 2.062 5.758-1.604 7.31-2.628 1.117-8.613 1.908-11.553 1.908l-.547-.01c-2.048-.089-3.382-.712-3.972-1.846-.173-.33-.19-.917-.277-1.226-.184-.644-.844-1.024-1.507-.832-1.78.514-3.415.687-4.887.663 3.167-13.807 15.505-24.118 30.272-24.118 17.166 0 31.083 13.917 31.083 31.083 0 17.166-13.917 31.083-31.083 31.083-14.125 0-26.031-9.429-29.814-22.332l.01-.081c.475.027.956.047 1.412.047l15.164-.041c1.435-.004 3.309-.95 4.164-2.102l8.231-11.089 2.155 3.532c-2.56 1.998-4.212 5.097-4.212 8.584 0 6.026 4.911 10.913 10.973 10.913 6.061-.002 10.973-4.889 10.973-10.915 0-6.026-4.914-10.911-10.975-10.911-1.672 0-3.25.386-4.666 1.051l-2.756-4.507c.27.122.559.204.873.204.281 0 .545-.058.789-.153v-4.077c-.244-.093-.51-.153-.789-.153-1.164 0-2.098.921-2.164 2.071l-3.929-6.417c-.091-.355-.337-1.431-.514-3.311-.072-.751-.462-1.365-1.107-1.73-.57-.324-1.344-.417-2.221-.355-2.628.163-6.2 1.711-7.917 2.529-.607.289-.867 1.014-.576 1.621.217.46.685.716 1.162.692.169-.002.337-.037.5-.114 2.814-1.336 5.898-2.308 7.259-2.345.184-.002.334.01.444.045.167 1.689.386 2.783.52 3.353.171.522.811 1.187 1.084 1.974m5.469 20.538c0-2.614 1.224-4.928 3.105-6.485l4.381 7.182c.229.376.628.582 1.038.582.217 0 .436-.058.634-.18.574-.349.751-1.098.403-1.67l-4.408-7.205c1.038-.45 2.182-.704 3.388-.704 4.707-.002 8.539 3.803 8.539 8.477 0 4.676-3.83 8.479-8.539 8.481-4.707 0-8.541-3.803-8.541-8.479" fill="#221F20"/></svg>