<svg width="64" height="64" viewBox="0 0 64 64" xmlns="http://www.w3.org/2000/svg"><title>02023musicinstrL</title><path d="M26.563 17.662l23.653 6.627v-3.679l-23.653-6.634v3.686zm26.293 10.104l-28.934-8.102v-9.17l28.934 8.115v9.158zm-2.245 22.94c-.986 0-2.042.164-3.137.482-4.791 1.398-8.013 4.99-8.013 7.461 0 1.997 2.126 2.712 4.116 2.712.991 0 2.052-.164 3.157-.487 4.791-1.398 8.01-4.99 8.01-7.461v-40.734l-32.709-9.195v37.466l-1.448-.142c-1.187-.117-2.538.035-3.934.442-4.794 1.398-8.015 4.987-8.015 7.461 0 1.997 2.129 2.712 4.118 2.712.991 0 2.052-.164 3.157-.487 4.791-1.398 8.01-4.99 8.01-7.461v-21.649l28.934 8.102v20.958l-1.448-.142c-.258-.027-.524-.04-.797-.04zm-7.034 13.293c-4.041 0-6.753-2.148-6.753-5.35 0-3.982 4.352-8.37 9.91-9.995 1.195-.348 2.365-.541 3.482-.581v-16.14l-23.653-6.627v18.169c0 3.982-4.354 8.37-9.91 9.995-1.344.392-2.655.591-3.897.591-4.041 0-6.756-2.148-6.756-5.35 0-3.982 4.354-8.37 9.913-9.995 1.19-.348 2.36-.544 3.482-.581v-38.136l37.99 10.68v42.734c0 3.982-4.354 8.37-9.91 9.995-1.346.392-2.658.591-3.897.591z"/></svg>