<svg width="64" height="64" viewBox="0 0 64 64" xmlns="http://www.w3.org/2000/svg"><title>02023musicinstrC</title><path d="M41.875 24.101l-16.611-4.658v4.061l16.611 4.651v-4.055zm2.859 21.355c0 2.133-2.533 4.6-5.661 5.514-3.126.913-5.661-.074-5.661-2.207 0-2.131 2.535-4.6 5.661-5.512 1.02-.299 1.974-.392 2.802-.312v-11.685l-16.611-4.653v12.577c0 2.133-2.535 4.6-5.661 5.514-3.126.913-5.661-.074-5.661-2.207 0-2.131 2.535-4.6 5.661-5.512 1.02-.299 1.974-.39 2.799-.31v-23.847l22.332 6.276v26.364zm-13.436-44.055c-17.286 0-31.298 14.014-31.298 31.3 0 17.284 14.012 31.298 31.298 31.298 17.286 0 31.3-14.014 31.3-31.298 0-17.286-14.014-31.3-31.3-31.3z"/></svg>