<svg width="64" height="64" viewBox="0 0 64 64" xmlns="http://www.w3.org/2000/svg"><title>02023musicinstrF</title><path d="M49.82 21.167v5.081l-24.827-6.951v-5.093l24.827 6.964zm-30.545-18.986v37.568c-1.228-.039-2.585.153-3.951.551-5.228 1.529-9.324 5.588-9.324 9.241 0 2.757 2.412 4.61 6.001 4.61 1.167 0 2.4-.187 3.668-.559 5.228-1.529 9.324-5.585 9.324-9.241v-18.917l24.827 6.951v17.214c-1.243-.059-2.58.148-3.951.549-5.228 1.529-9.324 5.585-9.324 9.241 0 2.757 2.412 4.61 6.001 4.61 1.164 0 2.398-.187 3.668-.559 5.228-1.529 9.324-5.585 9.324-9.241v-41.826l-36.263-10.193z"/></svg>