<svg width="64" height="64" viewBox="0 0 64 64" xmlns="http://www.w3.org/2000/svg"><title>07009myaccountC</title><path d="M32 0c-17.673 0-32 14.327-32 32 0 17.673 14.327 32 32 32 17.673 0 32-14.327 32-32 0-17.673-14.327-32-32-32zm-22.491 18.814c0-1.063.844-1.932 1.906-1.932h22.349c-1.105.891-1.981 1.6-2.559 2.094-.64.548-1.109.808-2.057.808h-19.639v-.969zm43.084 25.129c0 1.25-1.018 2.266-2.268 2.268h-38.525c-1.25 0-2.291-1.018-2.291-2.268v-22.374h19.639c1.473 0 2.353-.493 3.218-1.235.674-.576 2.448-2.006 3.841-3.126 2.204-1.807 3.639-2.55 5.764-2.55h8.355c1.25 0 2.268 1.018 2.268 2.268v27.018zm-23.813-4.408h4.072s2.954-4.795 3.056-4.963h6.876l.004 4.965h3.864v-19.271h-5.892l-11.981 19.269zm14.378-8.376h-4.727c.295-.463 4.727-7.673 4.727-7.673v7.673z"/></svg>