<svg width="64" height="64" viewBox="0 0 64 64" xmlns="http://www.w3.org/2000/svg"><title>07009myaccountF</title><path d="M32.231 15.415c.856-.735 2.157-1.788 3.801-3.109h-33.201c-1.576 0-2.831 1.291-2.831 2.867v1.442h29.175c1.407 0 2.106-.386 3.056-1.2zm15.991-6.415c-3.157 0-5.289 1.104-8.565 3.789-2.066 1.662-4.703 3.786-5.703 4.642-1.286 1.104-2.591 1.836-4.779 1.836h-29.175v33.234c0 1.859 1.548 3.369 3.405 3.369h57.228c1.856-.005 3.367-1.513 3.367-3.369v-40.132c0-1.859-1.513-3.369-3.369-3.369h-12.409zm6.956 36.957h-5.744l-.003-7.373h-10.214c-.152.248-4.541 7.368-4.541 7.368h-6.049l17.796-28.619h8.754v28.624zm-5.193-12.444v-11.399s-6.582 10.709-7.019 11.399h7.019z"/></svg>