<svg width="64" height="64" viewBox="0 0 64 64" xmlns="http://www.w3.org/2000/svg"><title>07009myaccountL</title><path d="M0 52.501c0 1.856 1.547 3.369 3.406 3.369l57.224-.022c1.856-.002 3.369-1.513 3.369-3.369v-40.11c0-1.856-1.513-3.369-3.369-3.369h-12.993c-1.366 0-3.274.541-4.438 1.258l-3.324 2.048h-37.042c-1.577 0-2.833 1.291-2.833 2.868v37.326zm61.289-.022c0 .356-.302.658-.66.658l-57.222.022c-.359 0-.66-.302-.66-.658v-33.663c0-.356.302-.658.66-.658h29.706c1.366 0 3.274-.541 4.438-1.258l7.07-4.356c.728-.449 2.165-.855 3.018-.855h12.993c.356 0 .658.302.658.658v40.11zm-32.662-6.526h6.048s4.391-7.119 4.54-7.369h10.214l.005 7.374h5.741v-28.625h-8.752l-17.797 28.62zm21.356-12.44h-7.017c.436-.69 7.017-11.398 7.017-11.398v11.398z"/></svg>