<svg width="64" height="64" viewBox="0 0 64 64" xmlns="http://www.w3.org/2000/svg"><title>03006mydrivingC</title><path d="M52.295 44.942h-42.465v-1.509h2.818v-10.015c0-1.182.963-2.142 2.142-2.142h3.49c1.182 0 2.142.961 2.142 2.142v10.015h1.913v-28.378c0-1.182.959-2.142 2.14-2.142h3.49c1.182 0 2.142.961 2.142 2.142v28.378h1.911v-16.999c0-1.18.963-2.14 2.142-2.14h3.49c1.182 0 2.142.961 2.142 2.14v16.999h1.628v-22.81c0-1.18.959-2.142 2.14-2.142h3.49c1.182 0 2.142.963 2.142 2.142v22.81h3.101v1.509zm-20.295-44.942c-17.673 0-32 14.327-32 32 0 17.673 14.327 32 32 32 17.673 0 32-14.327 32-32 0-17.673-14.327-32-32-32z"/></svg>