<svg width="64" height="64" viewBox="0 0 64 64" xmlns="http://www.w3.org/2000/svg"><title>03006mydrivingL</title><path d="M50.104 19.673c0-.53.43-.96.96-.96h5.286c.527 0 .96.43.96.96v34.531h-7.205v-34.531zm-43.556 19.37c0-.533.433-.962.96-.962h5.283c.533 0 .962.43.962.962v15.111h-7.205v-15.111zm14.664-27.803c0-.527.43-.96.96-.96h5.283c.53 0 .962.433.962.96v42.914h-7.205v-42.914zm14.661 17.23c0-.53.433-.962.96-.962h5.283c.533 0 .962.433.962.962v25.684h-7.205v-25.684zm23.717 25.734v-34.531c0-1.787-1.454-3.244-3.241-3.244h-5.286c-1.787 0-3.241 1.457-3.241 3.244v34.531h-2.461v-25.734c0-1.787-1.457-3.244-3.247-3.244h-5.283c-1.787 0-3.241 1.457-3.241 3.244v25.734h-2.893v-42.964c0-1.787-1.457-3.241-3.244-3.241h-5.283c-1.79 0-3.241 1.454-3.241 3.241v42.964h-2.893v-15.161c0-1.79-1.457-3.247-3.247-3.247h-5.283c-1.787 0-3.241 1.457-3.241 3.247v15.161h-4.268v2.281h64v-2.281h-4.409z"/></svg>