<svg width="64" height="64" viewBox="0 0 64 64" xmlns="http://www.w3.org/2000/svg"><title>03006mydrivingF</title><path d="M59.648 54.249v-34.565c0-1.788-1.455-3.247-3.244-3.247h-5.291c-1.788 0-3.244 1.458-3.244 3.247v34.565h-2.466v-25.759c0-1.788-1.455-3.247-3.247-3.247h-5.288c-1.788 0-3.244 1.458-3.244 3.247v25.759h-2.896v-43.005c0-1.788-1.458-3.244-3.247-3.244h-5.288c-1.791 0-3.244 1.455-3.244 3.244v43.005h-2.896v-15.179c0-1.788-1.458-3.247-3.25-3.247h-5.288c-1.788 0-3.244 1.458-3.244 3.247v15.179h-4.272v2.283h64v-2.283h-4.352"/></svg>