<svg width="64" height="64" viewBox="0 0 64 64" xmlns="http://www.w3.org/2000/svg"><title>04007myoffersL</title><path d="M15.471 5.572c.242-.194.688-.348 1.315-.348.433 0 .951.072 1.549.258 3.145.983 7.303 4.755 10.148 12.385l-.077.019c-7.89-.77-13.102-4.439-14.284-7.967-.574-1.713-.12-3.175 1.35-4.346zm29.451 2.787c.377-.09.712-.128 1.009-.128 1.028 0 1.615.46 2.03.898 1.18 1.259.853 2.088.712 2.439-.964 2.439-5.903 5.263-13.471 6.315 1.955-4.354 6.291-8.716 9.72-9.524zm-39.979 51.229v-36.042c0-.81.659-1.469 1.469-1.469h15.275c-1.961 2.843-2.319 6.554-2.622 9.784-.335 3.531-.648 6.867-2.577 9.181l-1.817 2.181 4.362 3.634 1.814-2.181c3.055-3.666 3.485-8.243 3.868-12.284.483-5.127.972-7.449 3.504-8.509v37.173h-21.808c-.81 0-1.469-.659-1.469-1.469zm52.494-37.492c.81 0 1.472.64 1.472 1.45v36.042c0 .81-.661 1.469-1.472 1.469h-21.664v-34.32c2.572 3.27 6.333 9.649 6.599 19.281l.077 2.837 5.674-.157-.077-2.837c-.329-11.928-5.488-20.023-8.634-23.766h18.025zm0-2.962h-9.279c2.635-1.57 4.519-3.488 5.372-5.645 1.087-2.744.46-5.56-1.759-7.93-2.069-2.208-4.928-3.018-8.044-2.282-4.508 1.06-8.923 5.167-11.718 9.603-3.042-6.4-7.343-10.889-12.117-12.382-2.938-.917-5.738-.555-7.677.988-3.175 2.532-4.312 6.304-3.044 10.09.901 2.691 3.095 5.411 6.455 7.558h-9.213c-2.433 0-4.413 1.979-4.413 4.413v36.042c0 2.433 1.979 4.413 4.413 4.413h51.025c2.433 0 4.413-1.979 4.413-4.413v-36.042c0-2.433-1.979-4.413-4.413-4.413z"/></svg>