<svg width="64" height="64" viewBox="0 0 64 64" xmlns="http://www.w3.org/2000/svg"><title>06002mypoliciesF</title><path d="M44.007 26.169h-25.367c-.745 0-1.347-.602-1.347-1.347s.602-1.35 1.347-1.35h25.367c.745 0 1.347.605 1.347 1.35 0 .745-.602 1.347-1.347 1.347zm-25.367 23.845h25.367c.745 0 1.347.602 1.347 1.347s-.602 1.35-1.347 1.35h-25.367c-.745 0-1.347-.605-1.347-1.35 0-.745.602-1.347 1.347-1.347zm26.714-7.497c0 .745-.602 1.35-1.347 1.35h-25.367c-.745 0-1.347-.605-1.347-1.35 0-.745.602-1.347 1.347-1.347h25.367c.745 0 1.347.602 1.347 1.347zm-1.347-7.495h-25.367c-.745 0-1.347-.602-1.347-1.35 0-.745.602-1.347 1.347-1.347h25.367c.745 0 1.347.602 1.347 1.347 0 .747-.602 1.35-1.347 1.35zm-9.387-19.044c0 .745-.602 1.347-1.347 1.347h-14.633c-.745 0-1.347-.602-1.347-1.347s.602-1.35 1.347-1.35h14.633c.745 0 1.347.605 1.347 1.35zm19.165 2.632h-11.75c-1.864 0-3.229-1.427-3.229-3.294v-12.513l14.979 15.807zm.714-4.524l-10.773-11.257c-1.719-1.797-4.129-2.828-6.613-2.828h-25.427c-2.583 0-4.685 2.104-4.685 4.69l.018 54.623c.003 2.585 2.104 4.687 4.687 4.687l40.375-.026c2.733-.01 4.956-2.241 4.956-4.974v-38.584c0-2.368-.902-4.62-2.539-6.331z"/></svg>