<svg width="64" height="64" viewBox="0 0 64 64" xmlns="http://www.w3.org/2000/svg"><title>06002mypoliciesC</title><path d="M49.852 49.741c0 1.858-1.509 3.372-3.364 3.376l-27.349.019c-1.754 0-3.181-1.426-3.181-3.181l-.013-37.004c0-.849.33-1.648.93-2.248.6-.6 1.399-.93 2.248-.93h17.222c1.686 0 3.321.698 4.488 1.914l7.296 7.628c1.111 1.16 1.722 2.682 1.722 4.29v26.136zm-26.104-27.552h10.04c.573 0 1.037-.464 1.037-1.037s-.464-1.037-1.037-1.037h-10.04c-.573 0-1.037.464-1.037 1.037s.464 1.037 1.037 1.037zm17.406 3.996h-17.406c-.573 0-1.037.464-1.037 1.037s.464 1.037 1.037 1.037h17.406c.575 0 1.039-.464 1.039-1.037s-.464-1.037-1.039-1.037zm0 18.21h-17.406c-.573 0-1.037.464-1.037 1.037s.464 1.037 1.037 1.037h17.406c.575 0 1.039-.464 1.039-1.037s-.464-1.037-1.039-1.037zm0-6.067h-17.406c-.573 0-1.037.462-1.037 1.035 0 .575.464 1.037 1.037 1.037h17.406c.575 0 1.039-.462 1.039-1.037 0-.573-.464-1.035-1.039-1.035zm0-6.069h-17.406c-.573 0-1.037.464-1.037 1.037s.464 1.037 1.037 1.037h17.406c.575 0 1.039-.464 1.039-1.037s-.464-1.037-1.039-1.037zm-3.66-12.107c0 1.262.926 2.231 2.188 2.231h7.96l-10.148-10.708v8.477zm-5.492-20.152c-17.674 0-32.001 14.327-32.001 31.999 0 17.674 14.327 32.001 32.001 32.001 17.672 0 31.999-14.327 31.999-32.001 0-17.672-14.327-31.999-31.999-31.999z"/></svg>