<svg width="64" height="64" viewBox="0 0 64 64" xmlns="http://www.w3.org/2000/svg"><title>06002mypoliciesS</title><path d="M48 31h-32c-1.105 0-2-.895-2-2s.895-2 2-2h32c1.105 0 2 .895 2 2s-.895 2-2 2zm0 12h-32c-1.105 0-2-.895-2-2s.895-2 2-2h32c1.105 0 2 .895 2 2s-.895 2-2 2zm0 12h-32c-1.105 0-2-.895-2-2s.895-2 2-2h32c1.105 0 2 .895 2 2s-.895 2-2 2zm-32-40h11c1.105 0 2 .895 2 2s-.895 2-2 2h-11c-1.105 0-2-.895-2-2s.895-2 2-2zm19-4c0-2.452 1.458-3.549 2.902-3.549.914 0 1.8.423 2.634 1.256l7.757 7.757c1.643 1.643 1.282 3.12 1.051 3.678-.232.559-1.021 1.858-3.344 1.858h-6c-2.757 0-5-2.243-5-5v-6zm18.172 2.456l-10.628-10.628c-1.555-1.555-4.628-2.828-6.828-2.828h-20.716c-3.85 0-7 3.15-7 7v50c0 3.85 3.15 7 7 7h34c3.85 0 7-3.15 7-7v-36.716c0-2.2-1.273-5.273-2.828-6.828z" fill="#000"/></svg>