<svg width="64" height="64" viewBox="0 0 64 64" xmlns="http://www.w3.org/2000/svg"><title>02030newcarrplL</title><path d="M40.912 34.88c.465.014.601-.252.303-.589 0 0-3.443-3.911-8.156-4.888-1.131-.236-3.699-.358-3.699-.358-.465-.02-.845.321-.845.762l.713 3.919c0 .441.38.811.845.825l10.838.329zm-25.864-.79l11.307.353c.465.016.845-.333.845-.772l-.713-3.927c0-.441-.382-.782-.847-.762 0 0-3.49.16-6.61 1.308-3.555 1.306-4.457 3.053-4.457 3.053-.205.396.01.733.475.748zm-3.807-9.233c-.297 0-.593-.118-.798-.353l-3.502-3.947c-.368-.418-.311-1.04.128-1.39.445-.347 1.101-.295 1.471.122l3.498 3.947c.37.418.315 1.04-.128 1.39-.195.154-.433.23-.67.23zm7.786-4.252c-.425 0-.825-.25-.979-.652l-1.863-4.841c-.195-.512.083-1.077.624-1.264.542-.185 1.138.079 1.335.591l1.861 4.841c.199.512-.081 1.077-.622 1.264-.118.039-.236.061-.356.061zm25.498 4.254c-.236 0-.475-.077-.672-.232-.441-.349-.498-.971-.128-1.389l3.5-3.949c.37-.42 1.026-.473 1.469-.122.439.351.498.971.128 1.389l-3.498 3.951c-.207.232-.502.353-.8.353zm-7.786-4.254c-.12 0-.238-.02-.355-.061-.544-.187-.823-.752-.626-1.264l1.861-4.843c.199-.514.802-.774 1.335-.591.544.187.821.752.626 1.266l-1.861 4.841c-.156.402-.555.652-.981.652zm-8.857-1.479c-.575 0-1.042-.443-1.042-.985v-5.156c0-.544.467-.985 1.042-.985s1.042.441 1.042.985v5.156c0 .542-.467.985-1.042.985zm34.656 17.044c-.918-1.448-4.863-2.495-8.01-3.12-3.352-.666-7.008-.936-8.081-1.004-1.119-.766-5.629-3.843-7.557-4.808-2.042-1.022-4.835-2.423-12.8-2.298-5.668.098-10.779 1.719-15.618 4.963-1.816 1.215-3.23 1.452-5.018 1.749l-.559.095c-3.078.53-3.722 1.973-3.722 3.094 0 .811-.13 3.557-.173 4.453l-.823 1.111-.043.197c-.037.173-.355 1.719.158 3.171.888 2.523 2.927 3.545 7.301 3.659.577 2.275 2.732 3.976 5.31 3.976 2.501 0 4.593-1.56 5.245-3.732h28.028c.666 2.149 2.747 3.732 5.231 3.732 2.488 0 4.569-1.585 5.233-3.738 2.005-.077 5.166-.412 6.149-1.763 1.712-2.363 1.599-6.822-.248-9.737zm-46.241 10.058c0 .492-.128.953-.337 1.371-.546 1.085-1.708 1.842-3.061 1.842-1.402 0-2.61-.808-3.128-1.96-.173-.386-.268-.808-.268-1.253 0-.246.037-.486.093-.719.347-1.426 1.694-2.493 3.303-2.493 1.658 0 3.037 1.131 3.334 2.621.037.191.063.388.063.591zm38.504 0c0 .53-.152 1.022-.392 1.461-.563 1.036-1.692 1.751-3.006 1.751-1.318 0-2.45-.721-3.013-1.759-.236-.439-.384-.928-.384-1.454 0-.189.028-.372.061-.555.278-1.505 1.664-2.657 3.336-2.657 1.688 0 3.08 1.174 3.34 2.702.03.167.057.335.057.51zm6.269-1.434c-.303.402-2.188.778-4.248.892-.29-2.6-2.596-4.638-5.418-4.638-2.816 0-5.115 2.027-5.416 4.617h-27.672c-.301-2.59-2.6-4.617-5.416-4.617-2.746 0-5.003 1.928-5.393 4.426-4.481-.146-4.904-1.347-5.247-2.324-.262-.739-.177-1.599-.124-1.968l.91-1.229.016-.286.087-1.891c.353.037.741.01 1.197-.138 1.083-.345 1.491-1.132.906-1.757-.408-.437-1.201-.666-2.009-.65l.006-.392c0-.54.679-.93 2.017-1.158l.548-.093c1.885-.315 3.663-.611 5.857-2.082 4.489-3.006 9.219-4.512 14.458-4.603 7.386-.124 9.844 1.099 11.786 2.07 2.031 1.02 7.496 4.79 7.551 4.827l.246.171.305.018c.043 0 4.333.24 8.083.983 3.297.654 5.079 1.312 5.954 1.755-.855.183-1.268.76-.934 1.406.36.693 1.446 1.197 2.513 1.225.483 1.981.321 4.215-.563 5.434z"/></svg>