<svg width="64" height="64" viewBox="0 0 64 64" xmlns="http://www.w3.org/2000/svg"><title>02030newcarrplF</title><path d="M29.83 34.966c-.478-.014-.868-.416-.868-.894l-.734-4.258c0-.476.39-.848.868-.824 0 0 2.638.13 3.8.384 4.844 1.06 8.38 5.308 8.38 5.308.306.366.166.656-.312.642l-11.134-.358zm-15.926-1.312s.928-1.896 4.58-3.316c3.206-1.246 6.792-1.418 6.792-1.418.476-.024.868.35.868.828l.732 4.262c0 .478-.39.854-.868.838l-11.616-.382c-.478-.018-.698-.382-.488-.812zm34.35 12.722c0-1.924 1.564-3.49 3.49-3.49 1.924 0 3.488 1.566 3.488 3.49 0 1.924-1.564 3.488-3.488 3.488-1.926 0-3.49-1.564-3.49-3.488zm-36.068 3.488c-1.924 0-3.49-1.564-3.49-3.488s1.566-3.49 3.49-3.49c1.922 0 3.488 1.566 3.488 3.49 0 1.924-1.566 3.488-3.488 3.488zm-1.052-24.494c-.304 0-.602-.122-.812-.358l-3.554-4.01c-.374-.424-.316-1.054.13-1.41.452-.354 1.118-.302 1.494.122l3.552 4.008c.376.424.318 1.056-.13 1.412-.198.158-.44.236-.68.236zm7.906-4.32c-.434 0-.84-.254-.994-.662l-1.892-4.916c-.198-.518.084-1.094.634-1.282.548-.19 1.156.08 1.356.598l1.89 4.916c.2.52-.082 1.096-.632 1.284-.12.042-.242.062-.362.062zm25.89 4.32c-.238 0-.48-.078-.68-.234-.448-.354-.506-.988-.13-1.412l3.554-4.008c.376-.426 1.042-.482 1.49-.126.448.356.506.988.13 1.412l-3.552 4.01c-.21.238-.508.358-.812.358zm-7.904-4.32c-.122 0-.242-.02-.362-.062-.552-.188-.834-.762-.636-1.282l1.89-4.918c.204-.522.814-.788 1.358-.6.552.188.834.764.636 1.286l-1.89 4.916c-.158.408-.564.66-.996.66zm-8.994-1.502c-.584 0-1.058-.448-1.058-1v-5.234c0-.552.474-1.002 1.058-1.002.584 0 1.058.45 1.058 1.002v5.234c0 .552-.474 1-1.058 1zm34.236 17.726c-.582-.97-3.56-2.06-7.534-2.892-3.976-.834-8.462-1.09-8.462-1.09s-5.706-4.168-7.886-5.322c-2.18-1.154-4.924-2.512-12.63-2.372-6.758.122-11.75 2.572-15.452 5.192-2.264 1.604-4.038 1.796-6.154 2.18-2.116.386-2.95 1.22-2.95 2.31 0 1.088-.192 5.192-.192 5.192l-.896 1.282s-.322 1.54.128 2.886c.632 1.894 1.854 3.13 6.556 3.256.668 2.36 2.818 4.104 5.39 4.104 2.494 0 4.59-1.644 5.324-3.898h28.906c.734 2.254 2.832 3.898 5.328 3.898 2.482 0 4.57-1.628 5.316-3.864 1.586-.078 4.756-.368 5.496-1.446 1.538-2.244 1.348-6.688-.288-9.416z"/></svg>