<svg width="64" height="64" viewBox="0 0 64 64" xmlns="http://www.w3.org/2000/svg"><title>02030newcarrplC</title><path d="M51.656 42.005c-.584 1.755-2.223 3.031-4.17 3.031-1.957 0-3.603-1.29-4.179-3.058h-22.677c-.576 1.767-2.221 3.058-4.179 3.058-2.017 0-3.704-1.367-4.228-3.219-3.687-.099-4.647-1.069-5.145-2.556-.351-1.055-.099-2.263-.099-2.263l.704-1.005s.151-3.221.151-4.075c0-.855.654-1.509 2.314-1.811 1.658-.301 3.051-.452 4.827-1.709 2.905-2.056 6.819-3.978 12.123-4.073 6.045-.111 8.198.956 9.908 1.86 1.709.904 6.187 4.174 6.187 4.174s3.52.2 6.637.855c3.119.654 5.454 1.509 5.911 2.269 1.284 2.141 1.433 5.628.227 7.389-.58.844-3.068 1.071-4.313 1.133zm-39.562-22.918c.407-.341 1.061-.281 1.404.124l2.845 3.39c.351.421.297 1.051-.122 1.402-.18.151-.407.235-.64.235-.293 0-.572-.13-.762-.355l-2.847-3.394c-.351-.417-.297-1.047.122-1.402zm7.963-4.598c.51-.184 1.094.097 1.274.597l1.515 4.16c.091.25.078.52-.033.762-.114.239-.314.421-.562.512-.105.039-.219.062-.341.062-.415 0-.791-.264-.935-.657l-1.513-4.16c-.188-.514.078-1.088.595-1.276zm8.06-.601c0-.549.446-.995.995-.995.549 0 .995.446.995.995v4.428c0 .547-.446.995-.995.995-.549 0-.995-.448-.995-.995v-4.428zm7.259 5.357l1.513-4.16c.145-.392.522-.654.939-.654.116 0 .227.019.337.058.514.188.782.762.597 1.276l-1.513 4.16c-.145.392-.52.659-.935.659-.114 0-.229-.023-.341-.062-.514-.188-.782-.76-.597-1.276zm6.505 3.357l2.845-3.392c.339-.407.997-.462 1.402-.124.419.353.475.981.122 1.4l-2.845 3.394c-.19.227-.469.357-.762.357-.233 0-.46-.083-.638-.233-.423-.351-.477-.983-.124-1.402zm5.609 15.424c-1.435 0-2.599 1.166-2.599 2.601 0 1.433 1.164 2.599 2.599 2.599 1.435 0 2.601-1.166 2.601-2.599 0-1.435-1.166-2.601-2.601-2.601zm-31.038-.002c-1.435 0-2.601 1.166-2.601 2.599 0 1.435 1.166 2.601 2.601 2.601 1.433 0 2.599-1.166 2.599-2.601 0-1.433-1.166-2.599-2.599-2.599zm16.248-10.738c-.913-.2-2.981-.303-2.981-.303-.374-.019-.681.273-.681.648l.576 3.338c0 .376.308.692.681.702l8.735.281c.374.012.485-.215.246-.504 0 0-2.775-3.33-6.575-4.162zm-5.979-.357s-2.812.134-5.329 1.113c-2.866 1.113-3.592 2.601-3.592 2.601-.165.337.008.623.382.636l9.115.301c.374.012.681-.283.681-.659l-.576-3.345c0-.374-.306-.667-.681-.648zm4.577-25.528c-17.284 0-31.298 14.014-31.298 31.3 0 17.284 14.014 31.298 31.298 31.298 17.286 0 31.3-14.014 31.3-31.298 0-17.286-14.014-31.3-31.3-31.3z"/></svg>