<svg width="64" height="64" viewBox="0 0 64 64" xmlns="http://www.w3.org/2000/svg"><title>02029newmotorplL</title><path d="M54.259 52.874c-4.182 0-7.585-3.377-7.585-7.528 0-2.308 1.075-4.353 2.729-5.735l3.879 6.357c.204.333.558.515.922.515.192 0 .388-.051.564-.159.507-.311.668-.977.356-1.484l-3.904-6.381c.932-.407 1.956-.642 3.039-.642 4.18 0 7.581 3.377 7.581 7.528s-3.401 7.528-7.581 7.528zm-23.609-20.883c2.305-1.837 7.665-4.595 9.099-4.621 1.47 0 2.686 1.093 2.71 2.432.023 1.371-1.179 2.506-2.677 2.532l-1.247.029c-1.359.035-3.354.088-5.202.088-.971 0-1.701-.016-2.281-.039-.529 0-.627-.223-.401-.421zm-19.542 21.022c-4.067 0-7.378-3.285-7.378-7.325 0-4.041 3.311-7.327 7.378-7.327 4.069 0 7.378 3.285 7.378 7.327 0 4.039-3.309 7.325-7.378 7.325zm2.355-30.916c-.309 0-.615-.131-.83-.386l-3.63-4.327c-.384-.458-.325-1.141.133-1.525.458-.382 1.14-.323 1.523.133l3.632 4.327c.384.458.323 1.141-.133 1.525-.204.17-.45.253-.695.253zm8.077-4.664c-.442 0-.856-.272-1.016-.713l-1.932-5.308c-.204-.562.086-1.183.646-1.386.564-.206 1.183.086 1.386.646l1.934 5.308c.204.562-.086 1.183-.648 1.386-.121.045-.247.067-.37.067zm26.454 4.664c-.245 0-.491-.082-.695-.253-.458-.384-.517-1.065-.133-1.523l3.63-4.329c.386-.458 1.067-.519 1.525-.135.456.384.517 1.067.133 1.525l-3.632 4.329c-.213.255-.519.386-.828.386zm-8.078-4.662c-.123 0-.247-.022-.368-.067-.562-.204-.852-.824-.648-1.386l1.931-5.31c.206-.564.83-.85 1.386-.646.562.204.852.824.648 1.386l-1.931 5.308c-.161.441-.576.715-1.018.715zm-9.187-1.623c-.597 0-1.083-.484-1.083-1.081v-5.651c0-.597.486-1.081 1.083-1.081s1.081.484 1.081 1.081v5.651c0 .597-.484 1.081-1.081 1.081zm23.531 19.846c-1.498 0-2.91.345-4.176.944l-2.469-4.033c.255.121.531.202.83.202.247 0 .482-.051.697-.135v-3.62c-.215-.082-.45-.135-.697-.135-1.051 0-1.899.84-1.934 1.886l-3.515-5.745c-.08-.315-.302-1.271-.458-2.941-.061-.666-.411-1.212-.981-1.537-2.011-1.145-6.937.969-8.963 1.932-.538.256-.768.899-.513 1.439.255.538.899.768 1.439.513 2.864-1.361 6.034-2.297 6.878-2.044.145 1.502.339 2.473.458 2.978-.384-.09-.779-.151-1.194-.151-2.13.037-11.573 4.611-12.153 7.567-.56.213-1.153.437-1.76.65.157-.253.217-.56.129-.867-.164-.574-.773-.907-1.337-.738-6.692 1.929-11.17-1.418-11.356-1.56-.474-.36-1.147-.274-1.512.194-.366.472-.28 1.151.192 1.515l.309.217c-4.024-.249-8.556 1.145-11.902 4.93-.396.448-.352 1.13.094 1.525.206.182.462.27.715.27.3 0 .597-.121.811-.364 4.503-5.097 11.246-4.826 14.659-2.968.11.051 2.71 1.23 5.236 1.093 1.819-.094 5.451-1.451 7.432-2.242.914.137 2.222.178 4.116.178 1.87 0 3.885-.053 5.257-.088l1.23-.029c2.117-.037 3.883-1.365 4.527-3.174l1.388 2.277-7.569 10.193c-.554.746-1.905 1.465-2.833 1.467h-14.708c-.229-5.036-4.394-9.055-9.516-9.055-5.269 0-9.537 4.251-9.537 9.488 0 5.239 4.268 9.484 9.537 9.484 4.674 0 8.554-3.381 9.371-7.795h14.859c1.602-.004 3.607-1.016 4.56-2.303l7.049-9.492 1.308 2.142c-2.275 1.774-3.74 4.525-3.74 7.62 0 5.351 4.358 9.688 9.745 9.688 5.378 0 9.741-4.337 9.741-9.688 0-5.349-4.362-9.688-9.741-9.688z"/></svg>