<svg width="64" height="64" viewBox="0 0 64 64" xmlns="http://www.w3.org/2000/svg"><title>02029newmotorplC</title><path d="M49.241 47.723c-4.249 0-7.69-3.423-7.69-7.647 0-2.444 1.156-4.616 2.952-6.018l-1.511-2.475-5.768 7.773c-.601.807-1.984 1.451-2.991 1.453h-10.628c-.318 0-.586.033-.919.014-.246 3.912-3.506 7.011-7.5 7.011-4.16 0-7.529-3.351-7.531-7.486 0-4.135 3.369-7.49 7.529-7.49l.031.002-.033-.281c0-.454.167-.809.434-1.038-2.506-.078-5.399.764-7.608 3.26-.194.221-.467.334-.739.334-.233 0-.465-.083-.652-.248-.409-.361-.448-.985-.087-1.394 2.612-2.954 6.13-4.084 9.29-3.947l-.041-.029c-.372-.287-.44-.824-.151-1.195.289-.372.824-.44 1.195-.153.163.126 3.706 2.746 8.96 1.23.465-.136.921.132 1.057.582.064.213.037.557.194.859.411.797 1.348 1.23 2.783 1.294l.384.006c2.06 0 6.255-.555 8.097-1.336 2.57-1.088 1.522-4.022 1.125-5.124-.111-.314-.619-.97-.76-1.385-.095-.398-.248-1.164-.363-2.349-.076-.025-.184-.033-.312-.031-.954.025-3.115.708-5.089 1.643-.114.054-.231.078-.349.081-.334.017-.663-.163-.815-.485-.202-.425-.021-.933.405-1.135 1.202-.574 3.706-1.658 5.547-1.773.615-.043 1.16.023 1.559.248.45.256.725.687.776 1.214.124 1.317.295 2.073.359 2.321l2.754 4.499c.045-.807.7-1.451 1.517-1.451.194 0 .38.041.551.105v2.859c-.171.066-.357.107-.551.107-.221 0-.423-.06-.613-.145l1.932 3.159c.993-.467 2.098-.735 3.27-.735 4.247 0 7.69 3.423 7.69 7.647s-3.442 7.649-7.69 7.649zm-35.617-30.728c.361-.301.898-.256 1.199.105l2.861 3.409c.301.361.256.898-.105 1.202-.159.132-.353.198-.547.198-.244 0-.485-.103-.654-.303l-2.859-3.411c-.303-.359-.256-.898.105-1.199zm7.959-4.596c.442-.161.931.068 1.092.508l1.522 4.183c.161.444-.066.931-.51 1.092-.095.035-.194.052-.291.052-.349 0-.675-.215-.801-.562l-1.522-4.181c-.161-.444.068-.931.51-1.092zm7.112 16.644c.551-.64 1.594-1.513 3.586-2.649.871-.498 2.261-1.212 3.481-1.693.774-.308 1.809.388 2.209 1.501.704 1.967.632 2.799-.275 3.183-1.761.747-6.109 1.286-7.812 1.208-.937-.041-1.379-.264-1.482-.46-.107-.209-.037-.702.293-1.09zm1.086-17.389c0-.471.382-.851.853-.851s.853.38.853.851v4.451c0 .471-.382.853-.853.853s-.853-.382-.853-.853v-4.451zm7.29 5.438l1.522-4.185c.163-.442.654-.669 1.092-.508.442.159.671.648.51 1.092l-1.519 4.183c-.128.347-.454.562-.803.562-.097 0-.194-.017-.289-.052-.444-.161-.673-.65-.512-1.092zm6.511 3.417l2.861-3.411c.303-.361.84-.407 1.202-.105.359.303.407.84.103 1.202l-2.859 3.411c-.169.2-.411.303-.652.303-.194 0-.388-.064-.549-.198-.359-.301-.407-.84-.105-1.202zm-28.399 14.055c-3.212 0-5.824 2.597-5.824 5.787 0 3.188 2.614 5.781 5.826 5.781 3.21 0 5.822-2.595 5.822-5.783-.002-3.19-2.614-5.785-5.824-5.785zm34.058-.431c-.844 0-1.645.18-2.374.493l3.089 5.05c.246.403.122.927-.281 1.173-.138.085-.293.126-.444.126-.289 0-.568-.145-.729-.409l-3.07-5.033c-1.319 1.09-2.176 2.713-2.176 4.544 0 3.278 2.686 5.942 5.985 5.942 3.301 0 5.985-2.665 5.985-5.944 0-3.274-2.686-5.942-5.985-5.942zm-17.943-32.731c-17.284 0-31.298 14.014-31.298 31.3 0 17.284 14.014 31.298 31.298 31.298 17.286 0 31.3-14.014 31.3-31.298 0-17.286-14.014-31.3-31.3-31.3z"/></svg>