<svg width="64" height="64" viewBox="0 0 64 64" xmlns="http://www.w3.org/2000/svg"><title>02029newmotorplF</title><path d="M54.016 54.2c-4.15 0-7.527-3.351-7.527-7.471 0-2.304 1.078-4.344 2.735-5.713l3.861 6.328c.202.332.555.514.915.514.192 0 .384-.052.559-.159.506-.308.663-.97.355-1.474l-3.885-6.348c.917-.398 1.924-.621 2.987-.621 4.148-.002 7.525 3.351 7.525 7.471 0 4.119-3.375 7.472-7.525 7.472zm-42.822.142c-4.038 0-7.323-3.26-7.323-7.269 0-4.011 3.283-7.275 7.321-7.275 4.036 0 7.319 3.262 7.321 7.273 0 4.009-3.283 7.271-7.319 7.271zm2.323-30.456c-.306 0-.609-.13-.822-.382l-3.596-4.286c-.38-.454-.322-1.129.132-1.511.456-.378 1.129-.32 1.511.132l3.596 4.288c.38.454.322 1.129-.132 1.509-.202.169-.446.25-.688.25zm8.002-4.62c-.438 0-.849-.27-1.008-.706l-1.914-5.258c-.202-.557.085-1.171.642-1.373.557-.202 1.171.085 1.373.64l1.914 5.26c.202.557-.085 1.169-.642 1.373-.12.045-.244.064-.365.064zm26.201 4.622c-.242 0-.487-.083-.688-.25-.452-.38-.512-1.057-.132-1.511l3.596-4.288c.382-.454 1.057-.512 1.511-.132.452.38.512 1.055.132 1.509l-3.596 4.288c-.213.252-.516.384-.822.384zm-8-4.62c-.122 0-.244-.021-.367-.066-.557-.202-.844-.816-.642-1.373l1.912-5.26c.206-.557.824-.842 1.373-.64.559.202.844.816.644 1.373l-1.912 5.26c-.161.434-.57.706-1.008.706zm-9.102-1.606c-.592 0-1.071-.481-1.071-1.072v-5.595c0-.592.479-1.072 1.071-1.072s1.071.481 1.071 1.072v5.595c0 .592-.479 1.072-1.071 1.072zm-4.773 16.376c-.169-.564-.743-.904-1.327-.733-6.606 1.906-11.06-1.389-11.268-1.546-.465-.361-1.138-.275-1.501.192s-.279 1.14.19 1.503l.05.037c-3.974-.173-8.398 1.247-11.679 4.963-.456.514-.407 1.297.107 1.751.237.208.529.312.822.312.341 0 .685-.144.929-.421 2.775-3.14 6.412-4.197 9.563-4.098-.334.285-.543.733-.543 1.303l.039.353-.037-.002c-5.229 0-9.466 4.218-9.466 9.418.002 5.201 4.24 9.414 9.468 9.414 5.025 0 9.121-3.896 9.431-8.816.419.023.844 0 1.245 0h13.362c1.266-.004 2.917-.832 3.671-1.846l7.253-9.773 1.901 3.113c-2.257 1.761-3.712 4.492-3.712 7.566 0 5.312 4.327 9.616 9.67 9.616 5.341 0 9.668-4.305 9.668-9.617 0-5.31-4.329-9.616-9.67-9.616-1.474 0-2.864.339-4.112.925l-2.43-3.972c.239.109.495.182.77.182.246 0 .479-.052.694-.136v-3.594c-.215-.081-.45-.134-.694-.134-1.026 0-1.848.811-1.906 1.825l-3.462-5.655c-.08-.312-.297-1.261-.454-2.917-.064-.663-.409-1.204-.974-1.526-.502-.285-1.187-.367-1.959-.312-2.318.144-5.465 1.509-6.978 2.228-.533.256-.762.894-.508 1.429.192.403.605.63 1.026.609.149-.004.297-.033.438-.101 2.482-1.175 5.2-2.034 6.398-2.067.161-.002.295.01.392.041.145 1.489.339 2.453.458 2.954.178.522.815 1.348.956 1.742.498 1.387 1.817 5.073-1.414 6.443-2.318.981-7.591 1.68-10.182 1.68l-.483-.01c-1.804-.078-2.983-.624-3.501-1.625-.196-.378-.163-.813-.244-1.08zm1.967.188c.128.248.685.529 1.864.582 2.141.097 7.608-.58 9.823-1.52 1.14-.483 1.23-1.53.345-4.003-.504-1.398-1.806-2.273-2.777-1.887-1.534.605-3.283 1.503-4.377 2.128-2.506 1.429-3.817 2.529-4.509 3.332-.415.489-.502 1.107-.368 1.369z"/></svg>