<svg width="64" height="64" viewBox="0 0 64 64" xmlns="http://www.w3.org/2000/svg"><title>04008newroofL</title><path d="M44.596 16.559c.011-.324-.11-.652-.36-.895l-2.454-2.377h11.365c.244 0 .61.199.744.421l7.729 17.358c.053.173-.014.303-.061.364-.047.063-.148.167-.329.167h-58.444c-.392 0-.458-.242-.362-.559l7.644-17.218c.191-.333.555-.533.799-.533h11.455l-2.465 2.377c-.238.231-.359.539-.361.848h-.003v10.204c0 .655.533 1.186 1.188 1.186.653 0 1.186-.531 1.186-1.186v-9.688l9.861-9.523c.183-.175.468-.177.647 0l9.419 9.088.429.422v9.7c0 .655.533 1.186 1.186 1.186.655 0 1.188-.531 1.188-1.186v-10.158zm19.241 13.674l-7.833-17.6c-.602-1.043-1.726-1.718-2.857-1.718h-13.822l-5.303-5.114c-1.108-1.07-2.833-1.064-3.939-.002l-5.301 5.116h-13.913c-1.133 0-2.253.675-2.91 1.828l-7.831 17.623c-.264.852-.11 1.757.419 2.475.531.718 1.346 1.131 2.241 1.131h58.444c.895 0 1.71-.415 2.241-1.133.529-.72.681-1.623.366-2.605zm-55.889 3.738v19.329h-5.318c-.653 0-1.186.535-1.186 1.188 0 .657.533 1.186 1.186 1.186h24.705v2.794h9.639v-2.794h24.502c.655 0 1.188-.529 1.188-1.186 0-.653-.533-1.188-1.188-1.188h-5.32v-19.329h-2.373v19.329h-16.862v-15.719h-9.541v15.719h-17.057v-19.329h-2.375zm7.309 12.457h8.154v-8.154h-8.154v8.154zm25.637 0h8.152v-8.154h-8.152v8.154zm-12.819-21.557h8.154v-8.154h-8.154v8.154zm1.682 28.431h4.793v-13.35h-4.793v13.35z"/></svg>