<svg width="64" height="64" viewBox="0 0 64 64" xmlns="http://www.w3.org/2000/svg"><title>03008nightdrivingC</title><path d="M53.759 41.642l-3.064-1.328-2.832 1.77.316-3.325-2.558-2.146 3.261-.726 1.251-3.096 1.696 2.876 3.333.233-2.212 2.503.809 3.239zm-5.492 5.879c-4.177 3.983-9.639 6.176-15.383 6.176-12.3 0-22.306-10.006-22.306-22.304 0-12.302 10.006-22.308 22.306-22.308.829 0 1.689.058 2.708.182.41.047.739.359.809.767.07.408-.132.811-.502.999-6.317 3.184-10.239 9.541-10.239 16.592 0 10.252 8.339 18.593 18.591 18.593 1.012 0 2.063-.098 3.21-.299.416-.058.811.137.997.504.184.367.107.814-.19 1.1zm-5.031-31.19l.243 5.101 4.339 2.693-4.777 1.809-1.219 4.961-3.195-3.987-5.095.374 2.804-4.271-1.93-4.73 4.928 1.347 3.901-3.297zm-11.234-16.332c-17.675 0-32.001 14.326-32.001 31.999 0 17.675 14.326 32.001 32.001 32.001 17.673 0 31.999-14.326 31.999-32.001 0-17.673-14.326-31.999-31.999-31.999z"/></svg>