<svg width="64" height="64" viewBox="0 0 64 64" xmlns="http://www.w3.org/2000/svg"><title>06029notesC</title><path d="M46.946 47.726c0 2.835-2.308 5.141-5.143 5.141h-19.605c-2.835 0-5.143-2.306-5.143-5.141v-28.332c0-2.835 2.308-5.141 5.143-5.141h1.955v3.194c0 1.46 1.186 2.648 2.646 2.648l.378-.028c1.294-.185 2.268-1.345 2.268-2.701v-3.114h5.114v3.194c0 1.46 1.186 2.648 2.646 2.648l.378-.028c1.294-.185 2.268-1.345 2.268-2.701v-3.114h1.951c2.835 0 5.143 2.306 5.143 5.141v28.332zm-21.199-34.41c0-.58.47-1.052 1.052-1.052l.155.011c.531.077.897.584.897 1.122v3.97c0 .54-.366 1.048-.897 1.124l-.155.011c-.582 0-1.052-.472-1.052-1.054v-4.132zm10.406 0c0-.58.47-1.052 1.052-1.052l.153.011c.533.077.899.584.899 1.122v3.97c0 .54-.366 1.048-.899 1.124l-.153.011c-.58 0-1.052-.472-1.052-1.054v-4.132zm5.237 9.282h-18.78c-.448 0-.814.363-.814.814 0 .448.366.814.814.814h18.78c.448 0 .814-.366.814-.814 0-.451-.366-.814-.814-.814zm0 4.814h-18.78c-.448 0-.814.363-.814.814 0 .448.366.812.814.812h18.78c.448 0 .814-.363.814-.812 0-.451-.366-.814-.814-.814zm0 4.814h-18.78c-.448 0-.814.363-.814.814 0 .448.366.812.814.812h18.78c.448 0 .814-.363.814-.812 0-.451-.366-.814-.814-.814zm0 4.818h-18.78c-.448 0-.814.363-.814.814 0 .448.366.814.814.814h18.78c.448 0 .814-.366.814-.814 0-.451-.366-.814-.814-.814zm0 4.81h-18.78c-.448 0-.814.363-.814.812 0 .451.366.814.814.814h18.78c.448 0 .814-.363.814-.814 0-.448-.366-.812-.814-.812zm-9.39-41.853c-17.673 0-32 14.327-32 32 0 17.675 14.327 32 32 32 17.673 0 32-14.325 32-32 0-17.673-14.327-32-32-32z"/></svg>