<svg width="64" height="64" viewBox="0 0 64 64" xmlns="http://www.w3.org/2000/svg"><title>06029notesF</title><path d="M47.15 19.004h-29.837c-.712 0-1.293-.577-1.293-1.293 0-.714.581-1.293 1.293-1.293h29.837c.714 0 1.293.579 1.293 1.293 0 .716-.579 1.293-1.293 1.293zm0 7.649h-29.837c-.712 0-1.293-.579-1.293-1.293s.581-1.293 1.293-1.293h29.837c.714 0 1.293.579 1.293 1.293s-.579 1.293-1.293 1.293zm0 7.649h-29.837c-.712 0-1.293-.579-1.293-1.293s.581-1.293 1.293-1.293h29.837c.714 0 1.293.579 1.293 1.293s-.579 1.293-1.293 1.293zm0 7.654h-29.837c-.712 0-1.293-.579-1.293-1.293 0-.712.581-1.291 1.293-1.291h29.837c.714 0 1.293.579 1.293 1.291 0 .714-.579 1.293-1.293 1.293zm0 7.642h-29.837c-.712 0-1.293-.579-1.293-1.293s.581-1.293 1.293-1.293h29.837c.714 0 1.293.579 1.293 1.293s-.579 1.293-1.293 1.293zm-6.405-39.704c.847-.123 1.428-.929 1.428-1.785v-6.308c0-.854-.581-1.662-1.428-1.785l-.244-.017c-.924 0-1.672.75-1.672 1.674v6.564c0 .924.748 1.674 1.672 1.674l.244-.017zm-16.531 0c.844-.123 1.426-.929 1.426-1.785v-6.308c0-.854-.581-1.662-1.426-1.785l-.246-.017c-.924 0-1.672.75-1.672 1.674v6.564c0 .924.748 1.674 1.672 1.674l.246-.017zm25.413-6.221h-5.042v4.436c0 2.094-1.503 3.886-3.5 4.173-.198.027-.391.041-.584.041-2.253 0-4.084-1.833-4.084-4.086v-4.564h-8.366v4.436c0 2.094-1.503 3.886-3.5 4.173-.195.027-.391.041-.584.041-2.253 0-4.084-1.833-4.084-4.086v-4.564h-5.046c-3.218 0-5.838 2.617-5.838 5.838v48.653c0 3.218 2.62 5.835 5.838 5.835h34.79c3.218 0 5.838-2.617 5.838-5.835v-48.653c0-3.22-2.62-5.838-5.838-5.838z"/></svg>