<svg width="64" height="64" viewBox="0 0 64 64" xmlns="http://www.w3.org/2000/svg"><title>06029notesL</title><path d="M52.901 58.165c0 1.804-1.469 3.271-3.273 3.271h-34.79c-1.804 0-3.273-1.467-3.273-3.271v-48.653c0-1.804 1.469-3.273 3.273-3.273h7.459v2c0 1.006.885 1.804 1.918 1.657.844-.123 1.426-.929 1.426-1.785v-1.872h13.19v2c0 1.006.885 1.804 1.915 1.657.847-.123 1.428-.929 1.428-1.785v-1.872h7.454c1.804 0 3.273 1.469 3.273 3.273v48.653zm-4.238-40.454c0 .714-.579 1.293-1.293 1.293h-29.837c-.712 0-1.293-.579-1.293-1.293s.581-1.293 1.293-1.293h29.837c.714 0 1.293.579 1.293 1.293zm0 7.649c0 .714-.579 1.293-1.293 1.293h-29.837c-.712 0-1.293-.579-1.293-1.293s.581-1.293 1.293-1.293h29.837c.714 0 1.293.579 1.293 1.293zm0 7.649c0 .714-.579 1.293-1.293 1.293h-29.837c-.712 0-1.293-.579-1.293-1.293s.581-1.293 1.293-1.293h29.837c.714 0 1.293.579 1.293 1.293zm0 7.654c0 .714-.579 1.293-1.293 1.293h-29.837c-.712 0-1.293-.579-1.293-1.293 0-.712.581-1.291 1.293-1.291h29.837c.714 0 1.293.579 1.293 1.291zm0 7.642c0 .714-.579 1.293-1.293 1.293h-29.837c-.712 0-1.293-.579-1.293-1.293s.581-1.293 1.293-1.293h29.837c.714 0 1.293.579 1.293 1.293zm.965-44.632h-7.454v-1.872c0-.854-.581-1.662-1.428-1.785-1.03-.145-1.915.654-1.915 1.657v2h-13.19v-1.872c0-.854-.581-1.662-1.426-1.785-1.032-.145-1.918.654-1.918 1.657v2h-7.459c-3.218 0-5.838 2.617-5.838 5.838v48.653c0 3.218 2.62 5.835 5.838 5.835h34.79c3.218 0 5.838-2.617 5.838-5.835v-48.653c0-3.22-2.62-5.838-5.838-5.838z"/></svg>