<svg width="64" height="64" viewBox="0 0 64 64" xmlns="http://www.w3.org/2000/svg"><title>06028notificationsC</title><path d="M46.757 46.244l-29.25.032-.584-.011c-1.507-.125-2.738-1.258-2.978-2.78-.264-1.607.661-3.154 2.2-3.671.714-.504 2.183-5.539 2.172-11.841-.004-3.694 1.409-7.163 3.981-9.77 1.379-1.392 3.001-2.453 4.825-3.148l.714-.217c-.13-1.226.291-2.463 1.194-3.369 1.36-1.36 3.624-1.588 5.224-.531.236.157.455.336.652.533.587.584.98 1.326 1.139 2.142.081.421.098.844.049 1.265l.595.155c5.354 2.068 8.884 7.239 8.893 12.903.015 6.268 1.475 11.273 2.249 11.86 1.515.529 2.421 2.064 2.159 3.662-.253 1.607-1.615 2.78-3.235 2.784zm-12.106 7.77c-.789.555-1.715.85-2.676.85-1.515.002-2.942-.742-3.817-1.979-.672-.956-.914-2.085-.797-3.171h9.22c.168 1.624-.502 3.29-1.93 4.3zm-2.65-54.015c-17.673 0-32 14.327-32 32 0 17.675 14.327 32 32 32 17.673 0 32-14.325 32-32 0-17.673-14.327-32-32-32z"/></svg>