<svg width="64" height="64" viewBox="0 0 64 64" xmlns="http://www.w3.org/2000/svg"><title>06028notificationsL</title><path d="M31.927 2.362c-.881 0-1.709.342-2.334.967-.951.949-1.228 2.365-.708 3.608.135.324.121.69-.036 1.003-.16.313-.447.54-.787.621-.701.166-1.441.364-2.273.627-2.217.848-4.249 2.174-5.976 3.921-3.228 3.273-5.005 7.635-5.002 12.282.011 7.307-1.576 18.66-5.025 19.823-.958.321-1.533 1.29-1.367 2.307.157 1.005.989 1.733 1.987 1.751h.031l42.991-.047c1.003-.002 1.846-.735 2.005-1.745.166-1.021-.407-1.99-1.365-2.316-3.438-1.158-5.063-12.509-5.079-19.816-.013-7.12-4.445-13.618-11.023-16.167-.733-.187-1.488-.373-2.208-.544-.346-.081-.639-.31-.798-.63-.157-.317-.166-.69-.022-1.014.112-.259.189-.486.229-.701.081-.418.081-.841 0-1.261-.126-.645-.438-1.234-.908-1.702-.157-.16-.333-.304-.517-.425-.537-.355-1.167-.542-1.817-.542zm-5.533 54.147c.076.989.409 1.933.969 2.729 1.048 1.484 2.754 2.37 4.562 2.37h.013c1.149 0 2.255-.351 3.204-1.018 1.338-.947 2.174-2.448 2.313-4.081h-11.061zm5.528 7.491c-2.581 0-5.016-1.264-6.513-3.384-1.095-1.556-1.583-3.483-1.374-5.427.065-.607.578-1.068 1.187-1.07l13.413-.002c.614 0 1.126.465 1.189 1.075.295 2.887-.973 5.704-3.307 7.352-1.353.953-2.936 1.457-4.577 1.457h-.018zm-21.493-12.336h-.004c-2.19-.011-4.027-1.596-4.364-3.766-.357-2.167.89-4.254 2.965-4.951 1.192-.596 3.411-8.242 3.395-17.554-.004-5.281 2.019-10.238 5.69-13.962 1.969-1.994 4.29-3.507 6.893-4.501.47-.148.899-.274 1.302-.387-.283-1.772.288-3.595 1.596-4.906 1.868-1.866 4.962-2.179 7.156-.728.319.211.621.456.893.728.807.807 1.347 1.823 1.565 2.938.13.674.137 1.358.022 2.035.371.092.76.193 1.167.301 7.617 2.943 12.66 10.333 12.676 18.431.02 9.676 2.282 16.963 3.46 17.561 2.068.701 3.309 2.783 2.952 4.955-.342 2.167-2.176 3.75-4.359 3.757l-42.953.045-.052.002z"/></svg>