<svg width="64" height="64" viewBox="0 0 64 64" xmlns="http://www.w3.org/2000/svg"><title>06028notificationsF</title><path d="M40.316 54.068l-15.743.002-.11 1.025c-.209 1.965.282 3.913 1.389 5.484 1.513 2.144 3.975 3.421 6.582 3.421h.018c1.658 0 3.258-.509 4.626-1.472 2.359-1.667 3.641-4.512 3.343-7.43l-.105-1.029zm15.493-11.507c-1.201-.594-3.512-8.033-3.533-17.91-.016-8.256-5.158-15.791-12.923-18.792-.871-.234-1.648-.426-2.393-.598.206-1.387-.211-2.85-1.277-3.918-.896-.896-2.07-1.343-3.244-1.343-1.174 0-2.345.447-3.242 1.343-1.048 1.045-1.463 2.474-1.286 3.836-.782.188-1.605.408-2.531.699-2.655 1.013-5.021 2.556-7.029 4.587-3.744 3.799-5.807 8.854-5.803 14.239.016 9.496-2.247 17.293-3.462 17.901-2.116.711-3.388 2.836-3.024 5.048.335 2.134 2.089 3.714 4.216 3.831l.156.007h.078l.41.002 43.447-.05c2.226-.007 4.097-1.619 4.448-3.833.36-2.217-.91-4.34-3.008-5.048z"/></svg>