<svg width="64" height="64" viewBox="0 0 64 64" xmlns="http://www.w3.org/2000/svg"><title>01030offrdbikeF</title><path d="M31.085 24.356c1.07-1.032 2.418-2.192 3.593-2.77 2.582-1.267 4.784-1.8 5.623-1.925.405-.062.627-.034.801.348.435.952 1.526 3.357 2.098 4.481-.388.329-1.077.922-1.498 1.299-.627-.053-8.497-.755-10.572-.941-.318-.028-.204-.339-.045-.492zm23.054 23.907c-3.998.384-7.563-2.531-7.944-6.501-.271-2.811 1.13-5.403 3.389-6.817l3.135 6.569c.18.377.557.596.948.596.151 0 .305-.032.452-.102.523-.25.744-.877.494-1.399l-3.107-6.509c.401-.112.816-.197 1.246-.237 3.997-.386 7.561 2.531 7.944 6.503.381 3.97-2.56 7.51-6.558 7.897zm-34.462-21.221c-.076.36-.43.593-.789.515l-8.239-1.77c-.174-.038-.326-.14-.422-.29-.098-.15-.131-.329-.093-.504.036-.176.138-.326.29-.422.15-.098.329-.133.5-.095l8.239 1.772c.36.076.593.432.515.793zm43.271 13.813c.702-.133 1.162-.808 1.03-1.509-.134-.697-.801-1.157-1.494-1.036l-.019.004-.021.004c-.229-.761-.53-1.486-.93-2.145l.049-.042c.543-.466.604-1.282.14-1.823-.468-.54-1.282-.6-1.823-.138l-.006.004c-.574-.534-1.21-.984-1.895-1.363l.028-.08c.235-.672-.117-1.41-.791-1.647-.661-.227-1.38.112-1.63.763-.753-.176-1.545-.223-2.342-.204l-.015-.074c-.131-.7-.801-1.206-1.507-1.032-.702.131-1.164.805-1.034 1.507l.004.017-.136.049-2.859-5.99c2.775-.786 6.535-.905 10.638 1.643.492.309 1.14.155 1.446-.337.305-.492.155-1.14-.339-1.446-4.907-3.05-9.417-2.785-12.664-1.783l-4.262-8.926c-.117-.244-.324-.434-.577-.53l-4.447-1.674c-.541-.203-1.149.07-1.352.613-.204.543.07 1.149.612 1.352l4.051 1.526 1.236 2.59c.093.189.328.697.621 1.339.511 1.115 1.212 2.641 1.624 3.453.256.504.131 1.117-.301 1.482-.381.322-1.058.903-1.471 1.274-.223.201-.513.31-.812.31l-.104-.004c-.721-.062-11.075-.986-11.075-.986-.471-.042-.875-.352-1.036-.797-.104-.284-.089-.589.011-.863.117-.318.343-.5.602-.761.405-.407.246-1.157-.61-1.113-.926.047-1.532.1-2.48.078-5.439-.14-7.933-1.439-7.948-1.446-.534-.297-1.2-.203-1.63.227-.434.432-.528 1.096-.235 1.63l.341.619-12.376-2.526c-.57-.115-1.123.25-1.24.82-.115.568.252 1.123.82 1.238l2.461.502 1.098 1.604c.042 1.115.827 2.105 1.963 2.346l8.237 1.77h.002c.174.038.35.055.523.055.273 0 .54-.057.797-.144l.059.034c.04.015 4.029 1.473 5.557 2.092 1 .405 1.363.948 1.689 2.527.222 1.079.447 1.867.837 3.124.568 1.836 2.62 2.97 4.195 2.97h3.376c1.562 0 3.775-1.819 4.775-4.864 1.384-4.214 3.296-7.1 5.422-8.256l2.899 6.072-.129.066c-.435-.566-1.242-.676-1.81-.239-.566.434-.676 1.244-.242 1.81l.072.093c-.517.562-.954 1.181-1.321 1.852l-.089-.032c-.67-.235-1.41.114-1.649.788-.237.67.114 1.401.78 1.643-.174.75-.222 1.535-.203 2.329l-.095.017c-.7.133-1.164.807-1.034 1.509.129.695.795 1.155 1.492 1.036l.015-.004.042-.008c.231.757.53 1.479.928 2.134l-.064.055c-.541.464-.604 1.28-.142 1.823.309.358.769.507 1.204.432.222-.038.435-.134.617-.292l.03-.025c.57.53 1.2.981 1.882 1.356l-.038.106c-.237.672.117 1.412.789 1.647.216.076.439.091.649.055.445-.078.837-.386.998-.841.75.172 1.532.222 2.323.204l.019.102c.131.695.795 1.153 1.492 1.034l.017-.004c.7-.131 1.164-.807 1.032-1.509l-.009-.038c.759-.231 1.48-.53 2.137-.926l.053.062c.307.358.767.505 1.202.432.223-.038.437-.136.619-.293.541-.466.602-1.282.138-1.821l-.017-.019c.534-.57.983-1.202 1.361-1.886l.097.034c.218.074.437.091.647.053.449-.076.841-.388 1-.846.233-.666-.114-1.392-.774-1.636.176-.753.227-1.539.212-2.336l.085-.015zm-41.702-4.409c-.379 0-.742-.204-.931-.56-.271-.513-.074-1.149.439-1.418l3.438-1.814c.513-.271 1.147-.074 1.418.439.271.513.074 1.149-.439 1.42l-3.436 1.812c-.157.081-.324.121-.488.121zm-9.576 11.74c-3.955.7-7.739-1.925-8.434-5.852-.695-3.928 1.958-7.694 5.914-8.393 3.953-.7 7.738 1.925 8.432 5.854.695 3.927-1.958 7.69-5.913 8.391zm8.196-8.08c.689-.189 1.096-.899.907-1.587-.189-.685-.888-1.09-1.569-.914l-.019.006-.021.006c-.29-.742-.646-1.441-1.096-2.065l.045-.045c.504-.507.5-1.325-.006-1.829-.507-.5-1.325-.496-1.827.006l-.006.006c-.613-.487-1.284-.886-1.997-1.21l.023-.081c.182-.689-.229-1.397-.92-1.579-.676-.176-1.365.222-1.564.89-.765-.115-1.556-.1-2.351-.021l-.021-.07c-.186-.689-.894-1.14-1.583-.911-.689.186-1.098.895-.911 1.585l.004.017c-.757.299-1.471.663-2.107 1.126-.479-.528-1.293-.574-1.825-.095-.53.477-.574 1.295-.097 1.825l.08.087c-.471.602-.86 1.253-1.172 1.948l-.091-.023c-.687-.182-1.397.223-1.583.914-.182.687.223 1.388.907 1.577-.114.761-.097 1.547-.015 2.336l-.095.027c-.687.186-1.098.895-.911 1.585.184.683.882 1.089 1.568.914l.015-.006.042-.009c.29.736.646 1.431 1.094 2.052l-.061.061c-.504.505-.502 1.323.004 1.827.333.333.807.447 1.232.337.218-.055.424-.17.594-.339l.027-.027c.61.483 1.274.88 1.982 1.202l-.028.108c-.184.689.227 1.397.918 1.579.222.059.443.057.651.004.437-.112.803-.451.928-.918.761.115 1.545.102 2.332.023l.027.098c.186.683.884 1.089 1.568.913l.017-.004c.689-.186 1.098-.895.909-1.585l-.011-.04c.738-.288 1.435-.644 2.058-1.09l.059.059c.333.331.805.443 1.231.333.22-.055.426-.168.594-.341.504-.505.5-1.325-.008-1.827l-.015-.015c.485-.612.884-1.278 1.208-1.988l.098.027c.222.057.443.055.649.002.439-.114.807-.454.93-.924.18-.683-.223-1.378-.901-1.569.115-.763.104-1.551.027-2.346l.083-.021z"/></svg>