<svg width="64" height="64" viewBox="0 0 64 64" xmlns="http://www.w3.org/2000/svg"><title>01030offrdbikeC</title><path d="M18.37 17.086c-1.282.627-2.752 1.894-3.917 3.021-.173.166-.297.503.049.535l11.524 1.026c.459-.412 1.212-1.058 1.636-1.417-.625-1.227-1.813-3.846-2.289-4.885-.19-.416-.431-.448-.875-.382-.913.139-3.313.719-6.129 2.101zm45.63 14.914c0 17.673-14.327 32-32 32-17.673 0-32-14.327-32-32 0-1.553.149-3.068.363-4.561 1.065.382 2.097.764 2.733 1.022 1.171.474 1.596 1.109 1.978 2.957.26 1.265.523 2.187.979 3.659.666 2.148 3.068 3.477 4.913 3.477h8.215c1.83 0 4.422-2.129 5.591-5.694 1.621-4.934 3.859-8.311 6.349-9.666l3.394 7.106-.151.079c-.51-.661-1.455-.789-2.121-.279-.663.508-.789 1.457-.282 2.121l.083.109c-.604.657-1.118 1.382-1.547 2.165l-.105-.036c-.785-.275-1.651.132-1.931.922-.277.785.132 1.641.913 1.924-.205.879-.258 1.796-.237 2.726l-.113.021c-.819.154-1.361.943-1.207 1.764.151.815.93 1.353 1.745 1.212l.019-.002.047-.009c.271.885.621 1.728 1.088 2.496l-.077.064c-.634.544-.706 1.5-.164 2.133.358.42.9.595 1.408.508.26-.045.51-.16.723-.341l.034-.03c.668.623 1.406 1.148 2.204 1.587l-.045.124c-.277.787.137 1.653.926 1.929.252.09.512.107.759.064.521-.09.979-.45 1.169-.983.877.203 1.792.26 2.72.241l.021.117c.151.815.93 1.35 1.745 1.21l.021-.002c.821-.154 1.361-.945 1.207-1.766l-.011-.047c.887-.269 1.732-.619 2.5-1.084l.064.075c.358.418.898.591 1.406.503.262-.043.512-.158.725-.343.636-.544.706-1.5.162-2.131l-.019-.021c.623-.668 1.15-1.408 1.594-2.208l.113.041c.254.085.512.105.757.062.525-.09.983-.454 1.171-.99.271-.781-.134-1.63-.909-1.918.207-.879.269-1.798.25-2.733l.1-.017c.821-.156 1.361-.947 1.205-1.769-.158-.815-.937-1.353-1.749-1.212l-.021.004-.023.004c-.271-.892-.621-1.739-1.088-2.511l.058-.049c.634-.546.704-1.502.162-2.133-.546-.631-1.502-.702-2.135-.162l-.006.004c-.67-.625-1.414-1.154-2.217-1.596l.032-.092c.277-.789-.139-1.653-.926-1.929-.774-.269-1.615.13-1.907.892-.885-.207-1.809-.26-2.743-.241l-.017-.083c-.154-.821-.937-1.412-1.764-1.21-.821.154-1.363.943-1.21 1.764l.004.021-.16.058-3.347-7.014c3.249-.917 7.652-1.058 12.454 1.926.576.358 1.335.181 1.692-.397.358-.576.181-1.333-.395-1.692-5.747-3.571-11.025-3.262-14.827-2.089l-4.99-10.449c-.137-.288-.378-.51-.676-.621l-5.205-1.961c-.634-.237-1.344.083-1.583.719-.239.634.083 1.344.717 1.583l4.745 1.783 1.446 3.034c.109.222.382.817.727 1.568.597 1.303 1.417 3.091 1.901 4.043.299.589.154 1.308-.352 1.734-.446.375-1.239 1.058-1.722 1.491-.262.235-.602.365-.954.365l-.122-.006c-.845-.073-12.964-1.154-12.964-1.154-.553-.049-1.024-.412-1.214-.932-.122-.333-.102-.689.015-1.011.137-.371.401-.585.704-.89.474-.478.288-1.357-.713-1.303-1.086.055-3.927.115-5.037.09-1.414-.036-2.643-.145-3.74-.284 5.227-10.566 16.083-17.85 28.67-17.85 17.673 0 32 14.327 32 32zm-22.483 7.264l-3.637-7.62c.471-.13.956-.228 1.459-.277 4.678-.45 8.851 2.965 9.299 7.614.448 4.649-2.995 8.794-7.676 9.246-4.683.45-8.853-2.963-9.301-7.61-.318-3.294 1.323-6.327 3.968-7.983l3.671 7.691c.209.442.651.7 1.109.7.177 0 .356-.041.529-.122.612-.292.87-1.026.578-1.638z"/></svg>