<svg width="64" height="64" viewBox="0 0 64 64" xmlns="http://www.w3.org/2000/svg"><title>03015oilchangeF</title><path d="M6.904 36.244c0 .392-.33.722-.722.722h-2.996c-.392 0-.722-.33-.722-.724l-.008-10.402c0-.39.332-.722.724-.722h2.96c.394.01.764.318.764.724v10.402zm4.628 4.762c0 1.378 1.118 2.504 2.496 2.504h17.492c.856 0 1.59-.13 2.138-.752 1.242-1.406 3.27-3.724 4.304-5.006.39-.484.828-1.408.828-1.946 0-.332.012-1.108.022-1.65 3.618-1.366 11.98-5.062 12.71-5.304 1.16-.384 1.432-.184 2.38.18 2.638 1.008 6.108 2.34 6.108 2.34l1.328-3.178s-3.846-1.656-5.504-2.348c-1.608-.67-2.752-1.246-4.914-.764-1.604.356-7.33 1.624-12.806 2.782-.456-.472-1.09-.768-1.794-.768h-10.084v-4.854h3.878c.766 0 1.394-.626 1.394-1.394 0-.766-.628-1.392-1.394-1.392h-10.12c-.766 0-1.394.626-1.394 1.392 0 .768.628 1.394 1.394 1.394h4.17v4.854h-9.086c-.548 0-1.054.184-1.468.486v-1.322c0-1.772-1.44-3.214-3.214-3.214h-7.216c-1.542 0-2.796 1.254-2.796 2.796l.008 10.402c0 1.54 1.254 2.794 2.794 2.794h2.996c1.54 0 2.794-1.254 2.794-2.794v-10.402c0-.25-.032-.494-.094-.724h1.514c.63 0 1.136.512 1.136 1.142v14.746zm49.086-6.222c-.636 2.378-2.996 4.626-2.996 6.764 0 1.656 1.342 2.996 2.996 2.996 1.656 0 2.998-1.34 2.998-2.996 0-2.138-2.362-4.386-2.998-6.764z"/></svg>