<svg width="64" height="64" viewBox="0 0 64 64" xmlns="http://www.w3.org/2000/svg"><title>03015oilchangeC</title><path d="M32 1.888c-16.63 0-30.112 13.482-30.112 30.112s13.482 30.112 30.112 30.112 30.112-13.482 30.112-30.112-13.482-30.112-30.112-30.112zm18.566 26.088c-.76-.29-.976-.452-1.904-.144-.578.192-6.982 2.978-9.904 4.082-.006.38-.024 1.272-.024 1.608 0 .708-.494 1.64-.846 2.076-.832 1.032-2.466 2.9-3.466 4.034-.688.78-1.608.88-2.332.88h-13.152c-1.562 0-2.842-1.27-2.842-2.83v-8.464l-.018-3.334c0-.404-.34-.744-.742-.744h-1c.022.132.034.27.034.408v8.322c0 1.326-1.08 2.408-2.406 2.408h-2.398c-1.326 0-2.406-1.082-2.406-2.408l-.006-8.322c0-1.328 1.08-2.408 2.408-2.408h5.774c1.506 0 2.734 1.224 2.74 2.732.274-.088.56-.148.862-.148h7.096v-3.054h-3.164c-.614 0-1.116-.502-1.116-1.116 0-.612.502-1.114 1.116-1.114h8.096c.612 0 1.114.502 1.114 1.114 0 .614-.502 1.116-1.114 1.116h-2.932v3.054h7.896c.972 0 1.832.494 2.342 1.242 4.25-.9 8.67-1.874 9.908-2.148 1.73-.388 2.646.072 3.932.61 1.326.554 4.402 1.878 4.402 1.878l-1.062 2.542s-2.776-1.066-4.886-1.872zm5.372 12.41c-1.324 0-2.396-1.072-2.396-2.398 0-1.708 1.888-3.508 2.396-5.41.508 1.902 2.398 3.702 2.398 5.41 0 1.326-1.074 2.398-2.398 2.398zm-44.038-15.246h-2.338c-.22 0-.408.188-.408.408l.006 8.322c0 .222.186.406.406.406h2.398c.22 0 .406-.184.406-.406v-8.322c0-.244-.23-.388-.47-.408z"/></svg>