<svg width="64" height="64" viewBox="0 0 64 64" xmlns="http://www.w3.org/2000/svg"><title>03015oilchangeL</title><path d="M61.32 31.614l1.33-3.176c.22-.526-.024-1.128-.546-1.352 0 0-3.852-1.66-5.514-2.354l-.296-.124c-1.488-.626-2.892-1.216-5.242-.694-1.61.356-7.522 1.66-13.022 2.822-.584-.422-1.294-.678-2.066-.678h-10.084v-3.816h3.878c.766 0 1.394-.628 1.394-1.394 0-.766-.628-1.394-1.394-1.394h-10.12c-.766 0-1.394.628-1.394 1.394 0 .766.628 1.394 1.394 1.394h4.17v3.816h-9.086c-.524 0-1.02.122-1.468.328v-.126c0-1.774-1.442-3.216-3.214-3.216h-7.216c-1.542 0-2.796 1.254-2.796 2.796l.008 10.402c0 1.542 1.254 2.794 2.794 2.794h2.996c1.54 0 2.794-1.252 2.794-2.794v-10.402c0-.25-.032-.492-.094-.724h1.514c.63 0 1.142.514 1.142 1.144v14.744c0 1.954 1.588 3.542 3.54 3.542h16.442c.904 0 2.052-.126 2.914-1.104 1.16-1.312 3.262-3.712 4.334-5.042.44-.544 1.058-1.708 1.058-2.594l.01-.898c2.176-.798 6.31-2.544 9.38-3.84 1.598-.674 3.106-1.312 3.342-1.392.69-.228.744-.206 1.41.058l6.382 2.448c.522.2 1.112-.052 1.326-.568zm-54.772 4.628c0 .392-.332.724-.722.724h-2.996c-.392 0-.722-.332-.722-.724l-.008-10.402c0-.392.332-.724.724-.724h3.002c.39 0 .722.332.722.724v10.402zm30.884-2.692s-.034 1.712-.034 2.256c-.004.212-.284.904-.598 1.294-1.048 1.298-3.128 3.672-4.274 4.972-.22.248-.524.402-1.362.402h-16.442c-.81 0-1.468-.658-1.468-1.47v-11.406c0-.81.658-1.468 1.468-1.468h21.242c.81 0 1.468.658 1.468 1.468v3.952zm16.942-5.744c-.908-.358-1.486-.538-2.824-.096-.304.102-1.408.566-3.496 1.45-2.726 1.15-6.302 2.66-8.55 3.526v-3.088c0-.358-.07-.696-.168-1.02 5.244-1.114 10.638-2.302 12.166-2.642 1.704-.38 2.564-.016 3.988.582l.302.126c1.138.476 3.306 1.404 4.55 1.94l-.544 1.304-5.424-2.082zm6.6 6.822c-.636 2.378-2.996 4.626-2.996 6.762 0 1.656 1.342 2.996 2.996 2.996 1.656 0 2.998-1.34 2.998-2.996 0-2.136-2.362-4.384-2.998-6.762z"/></svg>