<svg width="64" height="64" viewBox="0 0 64 64" xmlns="http://www.w3.org/2000/svg"><title>06007okayL</title><path d="M6.404 32.24l-3.076 3.284 18.203 17.992 39.14-39.143-3.287-3.073-35.853 36.064-15.127-15.124zm15.135 24.706h-.018c-.859 0-1.669-.336-2.276-.943l-18.302-18.304c-1.255-1.253-1.258-3.297-.003-4.558l3.289-3.287c1.219-1.222 3.344-1.216 4.56 0l12.741 12.739 33.679-33.679c1.219-1.222 3.344-1.216 4.56 0l3.287 3.284c.609.607.943 1.417.943 2.282 0 .862-.333 1.675-.945 2.282l-39.239 39.242c-.609.607-1.417.943-2.276.943z"/></svg>