<svg width="64" height="64" viewBox="0 0 64 64" xmlns="http://www.w3.org/2000/svg"><title>06008okayaltL</title><path d="M64 14.323c0-.73-.284-1.418-.801-1.933l-7.615-7.615c-1.03-1.033-2.828-1.033-3.861-.005l-6.727 6.72c-4.91-3.984-11.016-6.184-17.376-6.184-15.229 0-27.619 12.391-27.619 27.619 0 15.229 12.391 27.619 27.619 27.619 15.229 0 27.619-12.391 27.619-27.619 0-2.601-.378-5.16-1.089-7.634l9.05-9.04c.517-.515.799-1.198.801-1.928m-11.668 18.603c0 13.627-11.084 24.713-24.713 24.713-13.624 0-24.713-11.086-24.713-24.713s11.089-24.713 24.713-24.713c5.588 0 10.959 1.897 15.311 5.338l-14.77 14.749-7.823-7.821c-1.03-1.03-2.831-1.03-3.859 0l-7.618 7.618c-1.063 1.066-1.063 2.795 0 3.859l17.367 17.369c.515.515 1.2.799 1.93.799s1.413-.281 1.928-.796l21.67-21.646c.371 1.715.577 3.466.577 5.246m-24.172 14.22l-17.121-17.119 7.367-7.367 7.821 7.819c1.03 1.03 2.826 1.03 3.859.002l23.567-23.527 7.367 7.365-32.86 32.827"/></svg>