<svg width="64" height="64" viewBox="0 0 64 64" xmlns="http://www.w3.org/2000/svg"><title>06007okayC</title><path d="M52.683 20.356l-26.409 26.409c-.392.392-.913.607-1.467.607h-.009c-.554 0-1.075-.215-1.465-.607l-12.183-12.181c-.809-.811-.809-2.125 0-2.936l1.98-1.978c.783-.783 2.154-.781 2.936.002l8.737 8.735 22.966-22.966c.781-.781 2.152-.781 2.934 0l1.98 1.98c.392.392.607.911.607 1.469 0 .556-.215 1.075-.607 1.467zm-20.682-20.356c-17.674 0-32.001 14.327-32.001 31.999 0 17.674 14.327 32.001 32.001 32.001 17.672 0 31.999-14.327 31.999-32.001 0-17.672-14.327-31.999-31.999-31.999z"/></svg>