<svg width="64" height="64" viewBox="0 0 64 64" xmlns="http://www.w3.org/2000/svg"><title>02033othrstrctureF</title><path d="M35.844 42.183h15.126v14.76h-15.126v-14.76zm-22.512 14.76h15.126v-14.76h-15.126v14.76zm50.563-23.844c-.058.082-.194.217-.426.217h-62.932c-.469 0-.645-.316-.469-.772l8.235-18.504c.232-.399.655-.616.937-.616h12.551l-1.943 1.873c-.576.557-.905 1.335-.905 2.135v10.537c0 .659.533 1.189 1.191 1.189.657 0 1.189-.531 1.189-1.189v-10.537c0-.161.065-.314.178-.422l10.145-9.788c.228-.221.587-.221.815 0l10.145 9.786c.112.11.178.264.178.424v10.537c0 .659.535 1.189 1.191 1.189.657 0 1.189-.531 1.189-1.189v-10.537c0-.802-.329-1.578-.905-2.137l-1.941-1.871h12.451c.279 0 .704.217.877.505l8.33 18.698c.069.223-.022.391-.081.471zm-27.347-15.969h-8.926v8.923h8.926v-8.923zm-29.173 39.813h3.574v-17.138h19.889v17.138h2.622v-17.138h19.889v17.138h3.581v-21.246h-49.556v21.246z"/></svg>