<svg width="64" height="64" viewBox="0 0 64 64" xmlns="http://www.w3.org/2000/svg"><title>02033othrstrctureL</title><path d="M2.273 32.947l7.669-17.228c.217-.371.609-.573.872-.573h11.684l-1.808 1.745c-.536.519-.844 1.241-.844 1.987v9.81c0 .613.498 1.107 1.109 1.107.613 0 1.109-.494 1.109-1.107v-9.81c0-.148.06-.292.167-.394l9.443-9.111c.213-.206.546-.206.759 0l9.443 9.109c.106.104.167.248.167.396v9.81c0 .613.498 1.107 1.109 1.107.613 0 1.109-.494 1.109-1.107v-9.81c0-.746-.309-1.468-.844-1.989l-1.806-1.743h11.593c.261 0 .655.202.817.469l7.754 17.41c.065.208-.019.365-.075.44-.056.075-.181.202-.396.202h-58.59c-.44 0-.603-.296-.44-.719zm52.944 22.716h-3.334v-15.958h-18.517v15.958h-2.444v-15.958h-18.515v15.958h-3.328v-19.782h46.137v19.782zm-19.634 0h14.082v-13.742h-14.082v13.742zm-20.958 0h14.08v-13.742h-14.08v13.742zm13.304-28.758h8.311v-8.307h-8.311v8.307zm35.916 5.342l-7.852-17.635c-.588-1.022-1.685-1.683-2.79-1.683h-13.89l-5.342-5.152c-1.076-1.038-2.761-1.034-3.836 0l-5.342 5.152h-13.98c-1.107 0-2.202.661-2.844 1.787l-7.846 17.654c-.256.83-.108 1.71.409 2.41.517.701 1.311 1.101 2.181 1.101h4.149v21.997h50.571v-21.997h3.87c.869 0 1.664-.4 2.181-1.101.515-.701.663-1.58.361-2.533z"/></svg>