<svg width="64" height="64" viewBox="0 0 64 64" xmlns="http://www.w3.org/2000/svg"><title>02033othrstrctureC</title><path d="M54.807 32.217h-47.443c-.355 0-.487-.237-.355-.58l6.21-13.95c.173-.303.493-.467.706-.467h9.46l-1.464 1.414c-.434.419-.683 1.005-.683 1.608v7.944c0 .495.403.896.898.896s.898-.401.898-.896v-7.944c0-.12.05-.235.134-.318l7.649-7.379c.171-.167.442-.167.613 0l7.647 7.377c.085.085.134.2.134.32v7.944c0 .495.403.896.898.896s.898-.401.898-.896v-7.944c0-.603-.248-1.189-.683-1.61l-1.464-1.412h9.387c.213 0 .531.163.663.382l6.278 14.097c.052.167-.014.295-.06.355-.045.062-.147.163-.322.163zm-4.928 17.813h-2.698v-12.922h-14.995v12.922h-1.978v-12.922h-14.993v12.922h-2.694v-16.019h37.357v16.019zm-15.897 0h11.402v-11.128h-11.402v11.128zm-16.972 0h11.402v-11.128h-11.402v11.128zm10.775-23.288h6.73v-6.726h-6.73v6.726zm3.299-24.908c-17.166 0-31.083 13.917-31.083 31.083 0 17.166 13.917 31.083 31.083 31.083 17.169 0 31.083-13.917 31.083-31.083 0-17.166-13.915-31.083-31.083-31.083z"/></svg>