<svg width="64" height="64" viewBox="0 0 64 64" xmlns="http://www.w3.org/2000/svg"><title>04016paperlessL</title><path d="M54.518 43.885c0 .887-.725 1.611-1.611 1.613l-3.317.002c0-2.197-.343-4.587-1.018-7.255-2.534-10.018-15.053-15.23-20.316-17.005-2.334-.787-4.318-1.749-6.01-2.793l-.006-13.914c0-.375.145-.727.412-.994.265-.265.619-.399.992-.399h19.309v8.439c0 1.929 1.434 3.381 3.334 3.381h8.23v28.924zm-9.758 10.219l-.145.198c-.734-2.647-2.404-7.151-5.914-10.684-3.486-3.507-6.741-5.05-9.89-6.545-1.766-.836-3.593-1.702-5.451-2.918-4.838-3.168-6.372-6.848-6.385-6.88-.235-.593-.902-.881-1.495-.649-.591.235-.881.905-.646 1.495.07.177 1.775 4.367 7.264 7.959 1.99 1.303 3.891 2.204 5.728 3.074 3.104 1.474 6.037 2.865 9.242 6.086 4.004 4.032 5.385 9.685 5.696 11.221-.764.642-1.611 1.103-2.63 1.427l-.137.053c-.064.028-6.334 2.878-13.801-.463-7.838-3.505-15.159-14.609-17.408-26.404-1.653-8.676 1.399-16.612 3.14-20.222 1.715 3.319 6.012 9.335 15.593 12.567 3.827 1.291 16.499 6.217 18.818 15.388 2.042 8.07.448 12.119-1.579 15.294zm10.059-42.906l-7.806-8.158c-1.284-1.344-3.087-2.116-4.947-2.116h-18.421c-.964 0-1.869.378-2.551 1.058-.681.683-1.056 1.589-1.056 2.551l.004 12.378c-5.331-4.126-6.814-8.774-6.895-9.043-.13-.433-.501-.751-.949-.811-.442-.06-.89.143-1.131.525-.284.454-6.957 11.253-4.54 23.925 2.377 12.48 10.255 24.286 18.729 28.077 3.106 1.389 6.018 1.833 8.474 1.833 3.917 0 6.669-1.131 7.168-1.353.983-.318 1.826-.77 2.613-1.314.284 1.436.384 3.328.399 4.117.006.467.299.885.734 1.054.137.053.277.079.418.079.309 0 .614-.126.836-.361l1.199-1.265c.243-.258.356-.612.303-.962-.213-1.444-.721-4.563-.917-5.769l.22-.301c1.542-2.415 2.453-4.89 2.765-7.637l3.445-.004c2.099-.004 3.806-1.717 3.806-3.817v-27.955c0-1.773-.674-3.454-1.899-4.732z"/></svg>