<svg width="64" height="64" viewBox="0 0 64 64" xmlns="http://www.w3.org/2000/svg"><title>04016paperlessS</title><path d="M58.87 45.948c1.066-5.363.577-10.349-4.739-18.162-6.481-9.526-19.234-11.663-28.79-11.778-11.07-.133-17.208-5.429-19.332-7.7-.606-.647-.926-1.087-.97-1.149l-2.919-4.159-1.204 4.929c-.149.611-3.549 15.131 3.783 28.449 7.301 13.262 20.061 23.357 31.031 24.549 3.47.377 6.878.033 10.13-1.024 3.03-.984 5.208-2.36 6.487-3.298-2.58-5.488-7.572-12.505-12.447-15.251-4.006-2.257-7.098-2.749-10.677-3.32-2.134-.34-4.554-.725-7.2-1.544-7.361-2.284-10.941-6.61-11.326-7.095-.856-1.082-.671-2.648.408-3.504 1.082-.864 2.652-.675 3.511.403.028.036 2.885 3.561 8.887 5.422 2.304.715 4.44 1.055 6.506 1.383 3.716.592 7.556 1.205 12.345 3.902 5.433 3.062 10.684 9.91 13.824 16.023l.007-.009c.92 1.748 1.907 3.734 2.863 5.883.544 1.222 1.917 1.814 3.162 1.41l.254-.097c1.306-.582 1.892-2.112 1.313-3.416-1.789-4.016-3.71-7.552-5.105-9.99.074-.285.206-.577.198-.857"/></svg>