<svg width="64" height="64" viewBox="0 0 64 64" xmlns="http://www.w3.org/2000/svg"><title>04016paperlessF</title><path d="M44.948 15.457c-1.554 0-2.69-1.19-2.69-2.743v-10.428l12.482 13.171h-9.792zm1.198 43.99c.117 2.556-.011 4.553-.011 4.553l2.319-2.304c.113-1.66-.068-3.383-.355-4.946-.143-.781-.316-1.523-.49-2.191 2.236-3.864 3.346-7.751 1.013-15.764-2.569-8.825-11.86-14.038-20.244-16.874-10.185-3.445-14.356-10.154-15.773-13.18-.448-.956-.625-1.549-.625-1.549s-6.921 11.238-4.447 24.168c2.474 12.932 10.436 24.697 18.734 28.427 8.298 3.73 15.228.428 15.228.428.836-.274 1.578-.627 2.258-1.075l.225-.154c-.11-1.304-.922-8.071-5.994-13.215-3.326-3.372-6.365-4.82-9.58-6.354-1.896-.903-3.855-1.836-5.91-3.191-5.65-3.721-7.411-8.066-7.484-8.249-.223-.563.055-1.201.618-1.423.565-.223 1.201.055 1.423.618.015.035 1.615 3.908 6.649 7.223 1.929 1.269 3.818 2.172 5.645 3.041 3.246 1.549 6.605 3.149 10.2 6.795 4.429 4.491 5.91 9.958 6.4 12.857.115.978.152 1.37.199 2.359zm9.26-47.848l-8.978-9.384c-1.32-1.379-3.174-2.172-5.082-2.172h-17.969c-.885 0-1.717.346-2.342.971-.627.627-.971 1.459-.971 2.342l.004 11.505c2.399 2.092 5.665 4.156 10.083 5.65 8.384 2.836 17.832 8.492 20.401 17.32 1.249 4.288 1.615 7.51 1.357 10.183h1.907c1.951-.007 3.54-1.6 3.54-3.553v-27.999c0-1.821-.693-3.546-1.951-4.862z"/></svg>