<svg width="64" height="64" viewBox="0 0 64 64" xmlns="http://www.w3.org/2000/svg"><title>04016paperlessC</title><path d="M36.389 14.088v7.034c0 1.049.768 1.852 1.817 1.852h6.604l-8.421-8.886zm10.302 28.451c0 1.381-1.123 2.506-2.502 2.51l-1.067.002c.233-1.864.008-4.119-.882-7.174-1.734-5.956-8.107-9.771-13.762-11.685-3.214-1.086-5.523-2.618-7.17-4.139l-.002-7.242c0-.628.244-1.218.687-1.66.444-.444 1.032-.69 1.66-.69h12.123c1.319 0 2.599.547 3.512 1.501l6.055 6.33c.869.908 1.348 2.102 1.348 3.359v18.888zm-6.119 11.627l-1.567 1.555s.258-3.867-.498-6.885l-.008-.029c-.611-1.959-1.689-4.466-3.776-6.582-2.453-2.49-4.736-3.578-6.945-4.631-1.224-.584-2.494-1.187-3.78-2.036-3.328-2.193-4.391-4.744-4.399-4.767-.196-.498-.758-.739-1.255-.545-.498.196-.741.758-.545 1.255.05.126 1.263 3.122 5.134 5.673 1.4.921 2.727 1.555 4.013 2.168 2.151 1.024 4.185 1.994 6.4 4.241 3.636 3.687 3.974 8.634 3.989 8.9-.44.283-.921.508-1.458.683 0 0-4.676 2.228-10.273-.289-5.597-2.517-10.969-10.453-12.639-19.175-1.668-8.725 3.002-16.306 3.002-16.306s2.017 6.877 11.06 9.937c5.657 1.914 11.925 5.43 13.657 11.384 1.575 5.405.826 8.027-.683 10.634.355 1.356.683 3.136.572 4.814zm-9.515-52.282c-17.152 0-31.057 13.905-31.057 31.059 0 17.152 13.905 31.057 31.057 31.057 17.154 0 31.059-13.905 31.059-31.057 0-17.154-13.905-31.059-31.059-31.059z"/></svg>