<svg width="64" height="64" viewBox="0 0 64 64" xmlns="http://www.w3.org/2000/svg"><title>03004parkremindL</title><path d="M60.508 55.475c-.368.362-2.108.704-3.96.815-.41-2.584-2.627-4.565-5.327-4.565-2.695 0-4.909 1.968-5.327 4.544h-27.461c-.418-2.576-2.632-4.544-5.327-4.544-2.621 0-4.803 1.857-5.303 4.33-4.163-.14-4.576-1.214-4.899-2.185-.204-.614-.175-1.378-.122-1.815l.913-1.301.019-.399s.079-1.69.132-3.169c.307.011.637-.021 1.018-.151 1.071-.362 1.476-1.185.899-1.838-.235-.265-.611-.439-1.024-.553.341-.116.696-.193.876-.225l.534-.095c1.904-.333 3.7-.651 5.938-2.235 3.031-2.145 6.179-3.534 9.522-4.227 2.925 3.505 5.69 7.282 7.023 12.263.159.6.704 1.018 1.323 1.018.622 0 1.166-.418 1.325-1.018 1.164-4.349 3.42-7.782 5.922-10.916l.495.257c1.989 1.053 7.374 4.981 7.427 5.02l.328.241.402.021c.042.003 4.267.251 7.946 1.024 2.933.614 4.642 1.235 5.544 1.664-.54.272-.775.759-.508 1.307.317.643 1.201 1.127 2.135 1.251.495 2.002.36 4.277-.463 5.483zm-6.121 2.219c-.254 1.51-1.563 2.666-3.142 2.666-1.595 0-2.91-1.18-3.145-2.711-.026-.159-.05-.317-.05-.481 0-1.762 1.434-3.195 3.195-3.195 1.759 0 3.195 1.434 3.195 3.195 0 .18-.024.354-.053.526zm-38.29-.09c-.22 1.471-1.481 2.605-3.013 2.605-1.574 0-2.857-1.198-3.023-2.727l-.034-.331c0-1.688 1.373-3.058 3.058-3.058 1.688 0 3.06 1.37 3.06 3.058 0 .156-.024.304-.048.452zm-1.698-38.303c0-8.578 6.978-15.558 15.556-15.558s15.558 6.98 15.558 15.558c0 5.928-3.497 9.998-7.546 14.717-2.833 3.298-5.967 6.949-8.012 11.622-2.042-4.674-5.176-8.324-8.009-11.622-4.05-4.719-7.546-8.79-7.546-14.717zm15.339 6.007c3.735 0 6.769-3.031 6.769-6.771 0-3.737-3.034-6.771-6.769-6.771-3.74 0-6.774 3.034-6.774 6.771 0 3.74 3.034 6.771 6.774 6.771zm32.772 21.2c-.778-1.301-3.521-2.452-8.149-3.423-3.24-.68-6.761-.968-7.943-1.05-1.227-.889-5.544-3.989-7.43-4.989.352-.418.706-.831 1.061-1.243 4.219-4.917 8.208-9.559 8.208-16.503 0-10.091-8.21-18.301-18.301-18.301-10.088 0-18.299 8.21-18.299 18.301 0 6.803 3.83 11.4 7.956 16.206-3.177.846-6.195 2.28-9.107 4.343-1.738 1.227-3.103 1.468-4.833 1.772l-.548.098c-3.454.627-3.97 2.505-3.97 3.571 0 .833-.116 3.518-.164 4.539l-.801 1.14-.056.28c-.04.188-.365 1.889.169 3.489.928 2.791 3.126 3.952 7.676 4.063.704 2.172 2.719 3.753 5.126 3.753 2.33 0 4.298-1.481 5.063-3.544h27.99c.762 2.063 2.73 3.542 5.063 3.542 2.314 0 4.272-1.457 5.047-3.497 2.037-.074 5.407-.439 6.478-2 1.762-2.574 1.653-7.404-.235-10.549z"/></svg>