<svg width="64" height="64" viewBox="0 0 64 64" xmlns="http://www.w3.org/2000/svg"><title>03004parkremindF</title><path d="M52.727 56.727c-1.844 0-3.343-1.499-3.343-3.341 0-1.844 1.499-3.343 3.343-3.343 1.842 0 3.341 1.499 3.341 3.343 0 1.842-1.499 3.341-3.341 3.341zm-41.662 0c-1.847 0-3.348-1.499-3.348-3.341 0-1.844 1.501-3.343 3.348-3.343 1.842 0 3.341 1.499 3.341 3.343 0 1.842-1.499 3.341-3.341 3.341zm19.385-33.898c-2.977 0-5.389-2.414-5.389-5.389 0-2.977 2.412-5.389 5.389-5.389 2.975 0 5.389 2.412 5.389 5.389 0 2.975-2.414 5.389-5.389 5.389zm.002-17.829c-6.861 0-12.442 5.581-12.442 12.44 0 4.934 3.08 9.373 6.343 14.076 2.254 3.249 4.57 6.588 6.096 10.343 1.524-3.755 3.84-7.094 6.094-10.343 3.263-4.7 6.346-9.142 6.346-14.076 0-6.858-5.581-12.44-12.437-12.44zm-8.44 27.82c-3.803.732-8.284 2.46-11.716 4.89-2.24 1.59-4.076 1.911-6.021 2.254l-.579.105c-2.462.446-2.462 1.378-2.462 1.687 0 1.124-.188 5.197-.195 5.371l-.014.201-.95 1.357c-.055.378-.19 1.499.13 2.474.46 1.366 1.195 2.526 4.966 2.812.3 3 2.812 5.359 5.893 5.359 2.984 0 5.439-2.22 5.858-5.089h29.943c.419 2.87 2.874 5.089 5.861 5.089 2.986 0 5.439-2.22 5.858-5.092 2.057-.151 4.048-.563 4.451-1.146 1.405-2.05 1.254-6.307-.318-8.929-.263-.444-2.133-1.568-7.288-2.648-3.989-.835-8.556-1.105-8.597-1.108l-.208-.011-.165-.124c-.059-.041-6.218-4.476-8.391-5.625l-.165-.085c-2.721 3.222-4.968 6.881-6.199 11.488 0 0-.284 1.206-1.261 1.206-.975 0-1.254-1.206-1.254-1.206-1.892-5.51-4.693-9.932-7.176-13.231z"/></svg>