<svg width="64" height="64" viewBox="0 0 64 64" xmlns="http://www.w3.org/2000/svg"><title>03004parkremindC</title><path d="M53.245 44.527c-.332 2.268-2.27 4.019-4.627 4.019-2.357 0-4.295-1.751-4.625-4.019h-23.639c-.332 2.268-2.27 4.019-4.627 4.019-2.431 0-4.414-1.862-4.65-4.232-2.978-.225-3.558-1.139-3.919-2.221-.255-.767-.149-1.654-.104-1.951l.748-1.071.011-.159c.006-.138.155-3.352.155-4.24 0-.242 0-.98 1.943-1.333l.459-.081c1.535-.272 2.984-.525 4.752-1.781 2.71-1.917 6.247-3.282 9.25-3.86 1.96 2.604 4.172 6.096 5.664 10.444 0 0 .221.954.993.954.769 0 .993-.954.993-.954.973-3.634 2.746-6.525 4.895-9.069l.13.068c1.717.908 6.578 4.408 6.625 4.442l.132.096.164.009c.034.002 3.639.217 6.786.876 4.072.852 5.547 1.739 5.753 2.091 1.243 2.07 1.362 5.428.253 7.048-.317.461-1.889.786-3.513.905zm-22.213-38.874c5.416 0 9.819 4.406 9.819 9.821 0 3.894-2.434 7.401-5.007 11.114-1.781 2.563-3.609 5.199-4.812 8.166-1.205-2.967-3.033-5.603-4.814-8.166-2.574-3.713-5.007-7.22-5.007-11.114 0-5.416 4.406-9.821 9.821-9.821zm17.586 35.56c-1.454 0-2.638 1.184-2.638 2.638 0 1.456 1.184 2.64 2.638 2.64 1.456 0 2.64-1.184 2.64-2.64 0-1.454-1.184-2.638-2.64-2.638zm-32.891 0c-1.456 0-2.642 1.184-2.642 2.638 0 1.456 1.186 2.64 2.642 2.64s2.64-1.184 2.64-2.64c0-1.454-1.184-2.638-2.64-2.638zm15.305-21.484c2.349 0 4.255-1.906 4.255-4.255 0-2.351-1.906-4.255-4.255-4.255-2.351 0-4.255 1.904-4.255 4.255 0 2.349 1.904 4.255 4.255 4.255zm.967-19.73c-17.673 0-32 14.325-32 32 0 17.673 14.327 31.998 32 31.998 17.675 0 32-14.325 32-31.998 0-17.675-14.325-32-32-32z"/></svg>