<svg width="64" height="64" viewBox="0 0 64 64" xmlns="http://www.w3.org/2000/svg"><title>08012parkF</title><path d="M50,45.9c-4.7-4.9-5.4-8.4-5.4-8.4s3-0.1,6.3-0.3c2.4-0.1,4.1-1.4,4.1-1.4s-4.9-3.2-9.1-7.7 c-3.8-4.1-5.6-7.7-5.6-7.7s1.8,0.5,4.7,0.2c1.9-0.2,2.7-1.3,2.7-1.3s-4.1-2.8-7.4-6.2c-0.8-0.8-1.5-1.6-2.2-2.5 C34.8,6.3,31.3,0,31.3,0s-2.2,6.3-5.6,10.7c-0.7,0.8-1.4,1.7-2.2,2.5c-3.4,3.4-7.4,6.2-7.4,6.2s0.8,1.1,2.7,1.3 c2.9,0.3,4.8-0.2,4.8-0.2s-1.8,3.6-5.6,7.7c-4.2,4.4-9.1,7.7-9.1,7.7s1.7,1.3,4.1,1.4c3.3,0.2,6.3,0.3,6.3,0.3s-0.7,3.5-5.4,8.4 c-5,5.3-10.9,8-10.9,8s5.8,3,11.9,4.1c5.2,0.9,11.6,0.8,11.6,0.8V64h10.8v-5.2c0,0,6.4,0.1,11.6-0.8c6.1-1.1,11.9-4.1,11.9-4.1 S55,51.2,50,45.9"/></svg>