<svg width="64" height="64" viewBox="0 0 64 64" xmlns="http://www.w3.org/2000/svg"><title>05036pauseC</title><path d="M43.063 43.465c0 1.677-1.361 3.04-3.038 3.04h-2.293c-1.675 0-3.038-1.363-3.038-3.04v-22.929c0-1.677 1.363-3.038 3.038-3.038h2.293c1.677 0 3.038 1.361 3.038 3.038v22.929zm-13.758 0c0 1.677-1.363 3.04-3.038 3.04h-2.293c-1.677 0-3.038-1.363-3.038-3.04v-22.929c0-1.677 1.361-3.038 3.038-3.038h2.293c1.675 0 3.038 1.361 3.038 3.038v22.929zm2.694-43.465c-17.764 0-32 14.236-32 32s14.236 32 32 32 32-14.362 32-32c0-17.638-14.236-32-32-32z"/></svg>