<svg width="64" height="64" viewBox="0 0 64 64" xmlns="http://www.w3.org/2000/svg"><title>05036pauseL</title><path d="M52.028 57.313c0 1.891-1.541 3.432-3.437 3.432h-5.062c-1.893 0-3.435-1.541-3.435-3.432v-50.623c0-1.896 1.541-3.435 3.435-3.435h5.062c1.896 0 3.437 1.539 3.437 3.435v50.623zm-39.775-50.623c0-1.896 1.541-3.435 3.437-3.435h5.062c1.893 0 3.435 1.539 3.435 3.435v50.623c0 1.891-1.541 3.432-3.435 3.432h-5.062c-1.896 0-3.437-1.541-3.437-3.432v-50.623zm8.499-6.69h-5.062c-3.688 0-6.69 3.002-6.69 6.69v50.623c0 3.685 3.002 6.687 6.69 6.687h5.062c3.688 0 6.687-3.002 6.687-6.687v-50.623c0-3.688-2.999-6.69-6.687-6.69zm27.839 0h-5.062c-3.688 0-6.687 3.002-6.687 6.69v50.623c0 3.685 2.999 6.687 6.687 6.687h5.062c3.688 0 6.69-3.002 6.69-6.687v-50.623c0-3.688-3.002-6.69-6.69-6.69z"/></svg>