<svg width="64" height="64" viewBox="0 0 64 64" xmlns="http://www.w3.org/2000/svg"><title>05036pauseF</title><path d="M43.925 4.912c-1.361 0-2.469 1.108-2.469 2.469v49.24c0 1.361 1.108 2.467 2.469 2.467h4.924c1.359 0 2.467-1.105 2.467-2.467v-49.24c0-1.361-1.108-2.469-2.467-2.469h-4.924zm4.924 59.088h-4.924c-4.07 0-7.381-3.311-7.381-7.379v-49.24c0-4.07 3.311-7.381 7.381-7.381h4.924c4.067 0 7.379 3.311 7.379 7.381v49.24c0 4.067-3.311 7.379-7.379 7.379zm-34.468-59.088c-1.361 0-2.469 1.108-2.469 2.469v49.24c0 1.361 1.108 2.467 2.469 2.467h4.924c1.359 0 2.467-1.105 2.467-2.467v-49.24c0-1.361-1.108-2.469-2.467-2.469h-4.924zm4.924 59.088h-4.924c-4.07 0-7.381-3.311-7.381-7.379v-49.24c0-4.07 3.311-7.381 7.381-7.381h4.924c4.067 0 7.379 3.311 7.379 7.381v49.24c0 4.067-3.311 7.379-7.379 7.379z"/></svg>