<svg width="64" height="64" viewBox="0 0 64 64" xmlns="http://www.w3.org/2000/svg"><title>05017paymentC</title><path d="M33.932 35.761v9.008c3.353-.316 4.819-2.096 4.819-4.451 0-2.671-1.99-3.823-4.819-4.556zm-7.802-12.726c0 2.408 1.729 3.404 4.661 4.242v-8.223c-2.618.105-4.661 1.361-4.661 3.981zm7.802 27.809v2.723h-3.141v-2.671c-6.232-.472-11.102-3.877-13.51-7.751l5.08-4.189c1.834 3.141 4.87 5.34 8.431 5.759v-9.794c-4.607-1.045-11.886-3.56-11.886-11.207 0-6.336 4.973-10.683 11.886-10.944v-2.62h3.141v2.829c4.244.524 8.642 2.671 11.26 6.338l-4.766 4.03c-1.834-2.304-3.874-3.667-6.494-4.191v8.852c5.71 1.571 11.942 4.295 11.942 11.418 0 6.02-4.347 10.734-11.942 11.416zm-1.932-50.844c-17.646 0-32 14.354-32 32s14.354 32 32 32c17.648 0 32.002-14.354 32.002-32s-14.354-32-32.002-32z"/></svg>