<svg width="64" height="64" viewBox="0 0 64 64" xmlns="http://www.w3.org/2000/svg"><title>05017paymentL</title><path d="M33.929 35.699v9.007c3.351-.314 4.816-2.096 4.816-4.45 0-2.672-1.989-3.822-4.816-4.557zm-3.141-8.481v-8.219c-2.618.105-4.659 1.361-4.659 3.979 0 2.408 1.728 3.403 4.659 4.24zm0 26.285v-2.67c-6.232-.474-11.101-3.874-13.509-7.75l5.078-4.188c1.832 3.141 4.869 5.34 8.431 5.759v-9.79c-4.607-1.049-11.886-3.56-11.886-11.206 0-6.335 4.973-10.682 11.886-10.944v-2.618h3.141v2.827c4.24.526 8.638 2.67 11.256 6.337l-4.764 4.029c-1.832-2.301-3.874-3.665-6.492-4.186v8.847c5.706 1.571 11.936 4.293 11.936 11.415 0 6.02-4.345 10.732-11.936 11.413v2.725h-3.141zm-28.32-21.502c0-16.286 13.247-29.534 29.531-29.534 16.286 0 29.534 13.247 29.534 29.534 0 16.284-13.247 29.531-29.534 29.531-16.284 0-29.531-13.247-29.531-29.531zm29.531-32.001c-17.645 0-31.999 14.356-31.999 32.001 0 17.645 14.354 31.999 31.999 31.999s32.001-14.354 32.001-31.999-14.356-32.001-32.001-32.001z"/></svg>