<svg width="64" height="64" viewBox="0 0 64 64" xmlns="http://www.w3.org/2000/svg"><title>05017paymentS</title><path d="M33.673 35.234v15.537c5.5-.52 8.177-3.569 8.177-7.733 0-4.68-3.418-6.392-8.177-7.804zm-4.239-9.961v-14.046c-4.533.222-7.88 2.451-7.88 6.837 0 4.311 3.121 5.798 7.88 7.209zm0 36.721v-4.164c-8.546-.52-14.867-5.128-18.432-10.33l5.722-4.981c2.899 4.683 7.356 7.582 12.71 8.177v-16.651c-7.063-1.86-16.128-5.128-16.128-15.164 0-8.621 6.837-14.569 16.128-14.942v-3.938h4.239v4.164c6.02.817 11.889 3.938 15.608 8.772l-5.429 4.83c-2.748-3.418-6.091-5.651-10.18-6.392v15.014c8.621 2.53 16.354 6.174 16.354 15.612 0 8.696-6.392 14.942-16.354 15.759v4.235h-4.239z"/></svg>