<svg width="64" height="64" viewBox="0 0 64 64" xmlns="http://www.w3.org/2000/svg"><title>06009pendingrqstC</title><path d="M52.557 44.523c0 1.282-1.044 2.325-2.325 2.325l-37.396.015c-1.284 0-2.327-1.044-2.327-2.325v-21.943c0-1.282 1.044-2.325 2.327-2.325h19.348c.589 0 1.581-.283 2.083-.591l4.519-2.784c.803-.495 2.121-.867 3.065-.867h8.383c1.282 0 2.325 1.044 2.325 2.325v26.17zm-21.509-7.105c-1.005 0-1.798.795-1.798 1.8 0 1.007.793 1.8 1.798 1.8.988 0 1.802-.793 1.802-1.8 0-1.005-.814-1.8-1.802-1.8zm.098-9.233c1.337 0 2.072.738 2.072 1.666 0 2.032-3.641 2.206-3.641 5.033v1.526h2.846v-1.428c0-1.569 3.853-1.917 3.853-5.286 0-2.402-1.974-4.047-4.84-4.047-1.8 0-3.292.64-4.493 1.685l1.356 2.013c.852-.833 1.917-1.163 2.846-1.163zm.854-28.185c-17.673 0-32 14.327-32 32 0 17.673 14.327 32 32 32 17.673 0 32-14.327 32-32 0-17.673-14.327-32-32-32z"/></svg>