<svg width="64" height="64" viewBox="0 0 64 64" xmlns="http://www.w3.org/2000/svg"><title>06009pendingrqstF</title><path d="M60.628 9h-12.999c-1.368 0-3.276.542-4.442 1.259l-7.073 4.357c-.728.448-2.167.856-3.019.856h-29.725c-1.86 0-3.372 1.512-3.372 3.372v33.683c0 1.858 1.512 3.369 3.372 3.369l57.257-.023c1.86-.002 3.372-1.514 3.372-3.372v-40.131c0-1.858-1.512-3.372-3.372-3.372zm-29.039 38.569c-1.573 0-2.814-1.241-2.814-2.812 0-1.573 1.241-2.814 2.814-2.814 1.541 0 2.812 1.241 2.812 2.814 0 1.571-1.27 2.812-2.812 2.812zm2.147-9.429v2.231h-4.446v-2.384c0-4.416 5.684-4.687 5.684-7.863 0-1.452-1.147-2.6-3.235-2.6-1.452 0-3.114.512-4.446 1.814l-2.117-3.146c1.876-1.632 4.205-2.632 7.016-2.632 4.478 0 7.563 2.57 7.563 6.322 0 5.261-6.019 5.807-6.019 8.257z"/></svg>