<svg width="64" height="64" viewBox="0 0 64 64" xmlns="http://www.w3.org/2000/svg"><title>06009pendingrqstL</title><path d="M60.628 9h-12.999c-1.368 0-3.278.54-4.442 1.259l-7.073 4.357c-.728.448-2.165.854-3.019.854h-29.725c-1.86 0-3.372 1.514-3.372 3.372v33.683c0 1.86 1.512 3.372 3.372 3.372l57.257-.023c1.86 0 3.372-1.514 3.372-3.372v-40.133c0-1.858-1.512-3.369-3.372-3.369zm.66 43.502c0 .357-.303.658-.66.658l-57.257.025c-.357 0-.66-.303-.66-.66v-33.683c0-.357.303-.658.66-.658h29.725c1.366 0 3.276-.542 4.439-1.259l7.075-4.357c.726-.448 2.165-.856 3.019-.856h12.999c.357 0 .66.303.66.658v40.133zm-29.538-25.242c2.088 0 3.235 1.147 3.235 2.6 0 3.176-5.684 3.449-5.684 7.863v2.384h4.446v-2.231c0-2.452 6.019-2.996 6.019-8.257 0-3.752-3.087-6.322-7.563-6.322-2.812 0-5.14.999-7.016 2.632l2.117 3.146c1.332-1.302 2.994-1.814 4.446-1.814zm-.153 14.42c-1.571 0-2.812 1.241-2.812 2.814 0 1.571 1.241 2.812 2.812 2.812 1.543 0 2.814-1.241 2.814-2.812 0-1.573-1.27-2.814-2.814-2.814z"/></svg>