<svg width="64" height="64" viewBox="0 0 64 64" xmlns="http://www.w3.org/2000/svg"><title>02027persinjcovF</title><path d="M48.193 40.351l-11.288 11.288c-.435.433-1.112.483-1.602.15l-.207-.166-6.464-6.343c-.497-.486-.503-1.291-.015-1.785l1.571-1.602c.486-.494 1.291-.503 1.788-.015l4.01 3.935 8.836-8.834c.49-.492 1.295-.492 1.785 0l1.587 1.585c.492.492.492 1.295 0 1.788zm-30.31-27.529c1.655-.088 4.935-.472 8.214-2.112 1.183-.591 2.123-1.165 2.942-1.719 3.315 1.496 6.493 1.47 6.775 1.461.141.633.225 1.284.225 1.96 0 5.016-4.081 9.099-9.099 9.099-4.877 0-8.836-3.866-9.057-8.689zm21.089 11.997c-1.578-1.218-3.63-2.172-6.268-2.734 3.302-1.975 5.542-5.553 5.542-9.673 0-6.234-5.071-11.306-11.306-11.306-6.234 0-11.306 5.071-11.306 11.306 0 4.12 2.24 7.698 5.544 9.673-9.059 1.933-11.178 8.532-11.178 14.23v15.389h2.207v-15.389c0-8.477 4.82-12.597 14.733-12.597 4.074 0 7.239.735 9.611 2.141-4.008 3.176-7.137 4.173-11.487 4.273-.441.011-.799.366-.799.808v15.055c0 7.318 4.897 12.054 13.48 17.821.364.247.96.247 1.326 0 8.58-5.767 13.48-10.503 13.48-17.821v-15.055c0-.441-.358-.808-.799-.808-4.802 0-8.09-1.717-12.78-5.312z"/></svg>