<svg width="64" height="64" viewBox="0 0 64 64" xmlns="http://www.w3.org/2000/svg"><title>02036perspropL</title><path d="M58.3 21.3h-2.4c-1.8 0-3.2.5-4.3 1.3-2.8-.7-5-2.3-7.3-3.9-3.4-2.4-6.8-4.9-12.4-4.9-5.5 0-9 2.5-12.4 4.9-2.2 1.6-4.4 3.1-7.1 3.9-1.1-.8-2.5-1.2-4.3-1.2h-2.4c-3.1-.1-5.7 2.4-5.7 5.6 0 3.2 2.6 5.7 5.7 5.7h.3v17.5h8.7v-5.7h34.6v5.7h8.7v-17.5h.3c3.2 0 5.7-2.6 5.7-5.7 0-3.2-2.6-5.7-5.7-5.7zm-45.7 26.9h-4.5v-17.6h-2.4c-2 0-3.6-1.6-3.6-3.6s1.6-3.6 3.6-3.6h2.4c3 0 4.5 1.4 4.5 4.3v20.5zm36.7-5.7h-34.6v-8.8h34.6v8.8zm0-14.9v4h-34.6v-4c0-1.3-.3-2.4-.8-3.4 2.6-.9 4.8-2.4 6.8-3.9 3.2-2.3 6.3-4.5 11.2-4.5 4.9 0 7.9 2.2 11.2 4.5 2.1 1.5 4.3 3.1 7 4-.5.9-.8 2-.8 3.3zm9 3h-2.4v17.5h-4.5v-20.5c0-2.8 1.5-4.3 4.5-4.3h2.4c2 0 3.6 1.6 3.6 3.6 0 2.1-1.6 3.7-3.6 3.7z"/></svg>