<svg width="64" height="64" viewBox="0 0 64 64" xmlns="http://www.w3.org/2000/svg"><title>02027persinjcovL</title><path d="M50.615 45.573c0 5.599-3.058 9.633-12.045 15.764-8.987-6.132-12.045-10.166-12.045-15.764v-13.882c4.578-.344 7.971-1.794 12.045-5.118 4.074 3.323 7.467 4.774 12.045 5.118v13.882zm-32.583-33.638c1.686-.09 5.028-.481 8.369-2.152 1.205-.603 2.163-1.187 2.997-1.752 3.377 1.525 6.615 1.498 6.903 1.489.144.645.229 1.309.229 1.997 0 5.111-4.158 9.271-9.271 9.271-4.969 0-9.003-3.939-9.228-8.852zm13.93 29.604c-.506-.495-1.324-.488-1.821.016l-1.601 1.632c-.497.504-.488 1.324.018 1.819l6.584 6.465.211.166c.501.34 1.192.288 1.635-.153l11.501-11.501c.499-.499.499-1.32 0-1.821l-1.617-1.614c-.501-.501-1.32-.501-1.821 0l-9.003 9.001-4.086-4.009zm7.222-17.624c-1.495-1.201-3.584-2.017-6.051-2.543 3.364-2.012 5.646-5.657 5.646-9.855 0-6.352-5.167-11.517-11.519-11.517s-11.519 5.165-11.519 11.517c0 4.198 2.282 7.843 5.648 9.855-9.23 1.97-11.389 8.693-11.389 14.499v15.679h2.249v-15.679c0-8.637 4.911-12.835 15.011-12.835 3.921 0 6.988.69 9.358 1.974-4.077 3.215-7.27 4.227-11.704 4.328-.452.009-.818.376-.818.825v15.409c0 7.49 5.012 12.335 13.795 18.238.187.126.434.189.679.189.245 0 .492-.063.679-.189 8.783-5.902 13.795-10.748 13.795-18.238v-15.409c0-.45-.367-.816-.816-.825-4.911-.112-8.288-1.313-13.044-5.423z"/></svg>