<svg width="64" height="64" viewBox="0 0 64 64" xmlns="http://www.w3.org/2000/svg"><title>02036perspropC</title><path d="M32 0c-17.7 0-32 14.3-32 32s14.3 32 32 32 32-14.3 32-32-14.3-32-32-32zm-15.6 44.6h-5.2v-15h-1c-1.8 0-3.3-1.5-3.3-3.3 0-1.8 1.5-3.3 3.3-3.3h2.1c2.8 0 4 .7 4 3.8v17.8h.1zm29.5-4.5h-27.8v-8.7h27.8v8.7zm0-13.6v3.2h-27.8v-3.2c0-1.1-.2-1.9-.6-2.7 2.1-.7 3.8-1.9 5.5-3.1 2.6-1.9 5-3.6 9-3.6 3.9 0 6.4 1.8 8.9 3.6 1.7 1.2 3.5 2.5 5.7 3.2-.5.7-.7 1.6-.7 2.6zm7.8 3.1h-1v15h-5.2v-17.7c0-3.1 1.2-3.8 4-3.8h2.1c1.8 0 3.3 1.5 3.3 3.3 0 1.8-1.4 3.2-3.2 3.2z"/></svg>