<svg width="64" height="64" viewBox="0 0 64 64" xmlns="http://www.w3.org/2000/svg"><title>02036perspropF</title><path d="M14.06 44.344h35.328v-11.11h-35.328v11.11zm-7.22-21.65h-2.704c-2.282 0-4.136 1.856-4.136 4.138 0 2.28 1.854 4.136 4.136 4.136h1.234v19.032h6.556v-22.476c0-3.884-1.528-4.83-5.086-4.83zm24.754-7.664c-4.976 0-8.088 2.234-11.386 4.594-2.118 1.52-4.29 3.062-6.962 3.976.518.952.814 2.092.814 3.43v4.072h35.33v-4.072c0-1.308.286-2.422.778-3.362-2.774-.902-5.012-2.482-7.19-4.044-3.296-2.36-6.41-4.594-11.384-4.594zm27.72 7.664h-2.704c-3.558 0-5.086.946-5.086 4.83v22.476h6.556v-19.032h1.234c2.282 0 4.136-1.856 4.136-4.136 0-2.282-1.854-4.138-4.136-4.138z"/></svg>