<svg width="64" height="64" viewBox="0 0 64 64" xmlns="http://www.w3.org/2000/svg"><title>02027persinjcovC</title><path d="M38.441 26.236c2.591 2.729 5.929 3.865 9.46 3.945.324.008.588.27.588.595v11.076c0 5.386-3.605 8.871-9.918 13.114-.27.182-.708.182-.977 0-6.315-4.243-9.918-7.727-9.918-13.114v-11.076c0-.324.262-.586.586-.595 2.952-.068 5.141-.7 7.773-2.626-1.709-1.647-4.389-2.467-8.091-2.467-6.966 0-10.351 2.872-10.351 8.778v11.324h-2.603v-11.324c0-4.152 1.451-8.931 7.498-10.684-2.038-1.614-3.353-4.104-3.353-6.902 0-4.856 3.951-8.807 8.809-8.807 4.856 0 8.807 3.951 8.807 8.807 0 2.797-1.313 5.287-3.353 6.902 2.269.659 3.904 1.734 5.042 3.053zm5.673 8.983c-.361-.361-.952-.361-1.313 0l-6.503 6.501-2.95-2.894c-.365-.359-.956-.353-1.315.012l-1.156 1.177c-.359.365-.353.956.012 1.315l4.755 4.666.153.122c.361.246.861.209 1.179-.111l8.308-8.306c.361-.361.361-.952 0-1.313l-1.169-1.169zm-10.151-20.381c-.704-.014-2.579-.149-4.554-1.003-.58.384-1.268.787-2.085 1.195-2.112 1.057-4.243 1.408-5.56 1.522.147 3.293 2.851 5.935 6.181 5.935 3.421 0 6.206-2.785 6.206-6.206 0-.5-.074-.979-.188-1.443zm-2.665-13.436c-17.286 0-31.298 14.014-31.298 31.3 0 17.284 14.012 31.298 31.298 31.298 17.286 0 31.3-14.014 31.3-31.298 0-17.286-14.014-31.3-31.3-31.3z"/></svg>