<svg width="64" height="64" viewBox="0 0 64 64" xmlns="http://www.w3.org/2000/svg"><title>01020pickuptruckL</title><path d="M41.633 28.009c.266.345.031.863-.386.852l-10.984-.243c-.245-.006-.442-.221-.442-.485 0 0 .002-5.101.008-5.136.023-.133.112-.413.47-.413 2.29 0 3.565.069 4.592.29 2.697.583 5.963 4.124 6.742 5.136zm20.164 10.218c-.053.292-.562.793-3.388.879l-.76.035c-.419-1.629-1.57-2.966-3.095-3.608-.64-.27-1.343-.421-2.083-.421-2.793 0-5.068 2.163-5.299 4.898l-.043.033-28.683.008c-.213-2.752-2.496-4.933-5.303-4.933-2.353 0-4.332 1.539-5.044 3.655l-.713-.045c-.022 0-2.112-.067-3.841-.299-.603-.08-1.149-.392-1.245-.709-.08-.264-.233-1.194-.27-1.603-.023-.253.315-.44.319-.442l.574-.276-.002-3.071.685-.162c1.02-.345 1.402-1.124.853-1.746-.327-.366-.908-.581-1.541-.63v-1.133h23.878v-7.254c0-.906.621-1.245.947-1.298.221-.035.953-.072 2.341-.072 1.294 0 2.694.033 3.478.082 2.919.188 4.117 1.063 6.781 3.013 2.576 1.885 5.79 5.146 5.822 5.178l.268.274.382.027c.033.002 3.265.241 6.609.75 3.97.605 6.411 1.486 7.069 2.093l.125.166c-.478.094-.9.286-1.159.576-.546.622-.166 1.402.853 1.746.317.108.601.151.861.149.018.38.016.746-.004 1.053l-.02.628.529.317c.057.035.274.2.284.437.014.294.027.624-.166 1.709zm-9.326 5.544c-1.826 0-3.314-1.488-3.314-3.314 0-1.828 1.488-3.316 3.314-3.316 1.828 0 3.316 1.488 3.316 3.316 0 1.826-1.488 3.314-3.316 3.314zm-39.328.008c-1.828 0-3.314-1.486-3.314-3.314s1.486-3.318 3.314-3.318 3.316 1.49 3.316 3.318-1.488 3.314-3.316 3.314zm50.846-7.411c-.033-.765-.423-1.308-.773-1.644.02-1.175-.104-3.625-1.349-4.77-1.605-1.478-6.225-2.314-8.135-2.605-2.746-.419-5.42-.658-6.387-.738-.848-.846-3.516-3.449-5.845-5.154-2.678-1.959-4.295-3.142-7.807-3.367-.824-.053-2.275-.088-3.608-.088-.932 0-2.149.018-2.662.1-1.319.209-2.656 1.411-2.656 3.3v5.227h-22.018c-.419 0-1.028.053-1.46.525-.209.227-.446.632-.395 1.198v5.88c-.497.429-.973 1.129-.883 2.077.039.425.206 1.533.348 2.003.405 1.337 1.822 1.983 2.915 2.132 1.85.251 4.005.321 3.976.309l.581.027c.166 2.799 2.474 5.031 5.313 5.031 2.384 0 4.385-1.578 5.072-3.737l.014.002h29.182c.476 1.486 1.558 2.703 2.985 3.306.642.274 1.351.429 2.093.429 2.707 0 4.925-2.03 5.274-4.641l.707-.033c1.589-.047 4.894-.149 5.324-2.547.235-1.308.213-1.779.196-2.22z"/></svg>