<svg width="64" height="64" viewBox="0 0 64 64" xmlns="http://www.w3.org/2000/svg"><title>01020pickuptruckC</title><path d="M42.668 46.862c2.343 0 4.249-1.906 4.249-4.247 0-2.345-1.906-4.251-4.249-4.251s-4.249 1.906-4.249 4.251c0 2.341 1.906 4.247 4.249 4.247m-22.303-26.067c-1.303-.281-2.917-.37-5.818-.37-.456 0-.568.357-.597.526-.008.043-.01 6.509-.01 6.509 0 .334.25.607.562.615l13.919.306c.526.017.824-.642.489-1.08-.989-1.282-5.126-5.77-8.545-6.507m42.479 10.287c0 17.169-13.917 31.083-31.083 31.083-12.614 0-23.451-7.527-28.323-18.325h32.628c.58 3.122 3.314 5.498 6.602 5.498 3.683 0 6.677-2.977 6.718-6.648l.822-.039c3.07-.093 5.231-.557 5.521-2.17.289-1.612.246-2.079.227-2.533-.041-1.003-1.003-1.53-1.003-1.53s.281-4.28-1.272-5.706c-1.226-1.127-4.922-2.259-9.633-2.977-4.342-.661-8.475-.96-8.475-.96s-4.146-4.218-7.535-6.697c-3.39-2.482-5.174-3.801-9.272-4.063-1.945-.124-6.627-.165-7.659 0-1.034.165-2.285 1.138-2.285 2.915v7.907h-7.82c2.075-15.154 15.038-26.839 30.761-26.839 17.166 0 31.083 13.917 31.083 31.083" fill="#221F20"/></svg>