<svg width="64" height="64" viewBox="0 0 64 64" xmlns="http://www.w3.org/2000/svg"><title>01020pickuptruckF</title><path d="M53.16 43.225c-1.908 0-3.462-1.552-3.462-3.462 0-1.91 1.554-3.464 3.462-3.464 1.91 0 3.464 1.554 3.464 3.464s-1.554 3.462-3.464 3.462zm-11.61-15.058l-11.343-.251c-.253-.004-.457-.228-.457-.501 0 0 .002-5.269.01-5.304.024-.137.113-.428.485-.428 2.365 0 3.679.071 4.742.301 2.785.602 6.157 4.257 6.963 5.302.273.356.03.893-.4.881zm-29.023 15.406c-1.886 0-3.424-1.536-3.424-3.424s1.538-3.424 3.424-3.424c1.888 0 3.426 1.536 3.426 3.424s-1.538 3.424-3.426 3.424zm-5.445-4.148c-.032.239-.073.477-.073.724 0 3.044 2.476 5.52 5.518 5.52 2.834 0 5.15-2.153 5.459-4.906h29.795c.473 2.545 2.7 4.483 5.38 4.483 3.001 0 5.441-2.427 5.477-5.419l.667-.032c2.502-.075 4.263-.455 4.499-1.769.236-1.314.202-1.692.186-2.062-.034-.817-.817-1.247-.817-1.247s.228-3.487-1.037-4.649c-1-.922-4.01-1.841-7.85-2.427-3.539-.538-6.906-.784-6.906-.784s-3.379-3.436-6.142-5.459c-2.763-2.021-4.216-3.096-7.555-3.309-1.583-.101-5.401-.135-6.242 0-.843.135-1.86.926-1.86 2.375v6.444h-23.786c-.558 0-.92.125-.869.732v6.621s-1.013.487-.918 1.5c.042.445.208 1.49.321 1.86.253.833 1.229 1.342 2.147 1.465 1.87.253 4.633.279 4.633.279l-.026.059z"/></svg>