<svg width="64" height="64" viewBox="0 0 64 64" xmlns="http://www.w3.org/2000/svg"><title>05035playL</title><path d="M52.141 31.445c.116 1.47-.645 3.086-2.07 4.415l-34.441 23.891c-1.241.827-2.476 1.102-3.167.734-.736-.396-1.16-1.531-1.16-3.119v-50.581c0-1.662.469-2.892 1.253-3.283.194-.096.411-.146.656-.146.663 0 1.498.356 2.398 1.031l34.443 23.891c1.271.847 1.992 1.944 2.088 3.167zm-.169-5.845l-34.527-23.949c-1.462-1.097-2.902-1.652-4.281-1.652-.744 0-1.478.171-2.118.492-1.936.968-3.046 3.22-3.046 6.185v50.798c0 3.868 1.798 5.406 2.872 5.976.686.368 1.452.55 2.264.55 1.341 0 2.811-.494 4.259-1.465l34.776-24.143c2.315-2.123 3.482-4.68 3.291-7.199-.171-2.216-1.412-4.201-3.49-5.593z"/></svg>