<svg width="64" height="64" viewBox="0 0 64 64" xmlns="http://www.w3.org/2000/svg"><title>05035playF</title><path d="M13.887 4.913c-.069 0-.165.007-.236.044-.298.148-.739.913-.739 2.413v49.394c0 1.504.419 2.13.665 2.263.332.17 1.3-.086 2.186-.675l33.614-23.319c1.093-1.034 1.733-2.349 1.642-3.514-.071-.926-.625-1.741-1.645-2.423l-33.646-23.339c-1.022-.766-1.627-.845-1.842-.845zm.002 59.087h-.002c-.945 0-1.832-.217-2.627-.645-1.216-.648-3.26-2.371-3.26-6.591v-49.394c0-3.23 1.258-5.71 3.452-6.808 2.076-1.044 4.693-.63 7.15 1.214l33.545 23.268c2.241 1.497 3.585 3.666 3.772 6.096.207 2.728-1.029 5.471-3.484 7.721l-33.909 23.553c-1.554 1.039-3.154 1.586-4.636 1.586z"/></svg>