<svg width="64" height="64" viewBox="0 0 64 64" xmlns="http://www.w3.org/2000/svg"><title>plus-outline</title><path d="M50.963 32c0 1.422-.948 2.37-2.37 2.37h-14.222v14.222c0 1.422-.948 2.37-2.37 2.37-1.422 0-2.37-.948-2.37-2.37v-14.222h-14.222c-1.422 0-2.37-.948-2.37-2.37 0-1.422.948-2.37 2.37-2.37h14.222v-14.222c0-1.422.948-2.37 2.37-2.37 1.422 0 2.37.948 2.37 2.37v14.222h14.222c1.422 0 2.37.948 2.37 2.37zm13.037 0c0 17.541-14.459 32-32 32s-32-14.459-32-32 14.459-32 32-32 32 14.459 32 32zm-3.793.237c0-15.644-12.8-27.97-28.207-27.97s-28.207 12.089-28.207 27.733 12.8 28.207 28.207 28.207 28.207-12.326 28.207-27.97z" fill="#000"/></svg>