<svg width="64" height="64" viewBox="0 0 64 64" xmlns="http://www.w3.org/2000/svg"><title>04002pointsrwrdsF</title><path d="M32 6.713l-5.713 17.583h-18.49l14.959 10.87-5.713 17.585 14.959-10.87 14.959 10.87-5.713-17.585 14.959-10.87h-18.49l-5.713-17.583zm0-6.713c-17.673 0-32 14.327-32 32 0 17.673 14.327 32 32 32 17.675 0 32-14.327 32-32 0-17.673-14.325-32-32-32zm0 2.375c16.336 0 29.625 13.289 29.625 29.625s-13.289 29.625-29.625 29.625-29.625-13.289-29.625-29.625 13.289-29.625 29.625-29.625z"/></svg>