<svg width="64" height="64" viewBox="0 0 64 64" xmlns="http://www.w3.org/2000/svg"><title>05018printL</title><path d="M57.072 39.886h-50.897v3.264h-2.103c-.479 0-.868-.389-.868-.868v-17.213c0-.476.389-.868.868-.868h54.99c.476 0 .868.392.868.868v17.213c0 .479-.392.868-.868.868h-1.989v-3.264zm-12.186 15.384c0 .886-.717 1.6-1.603 1.6h-23.782c-.886 0-1.603-.714-1.603-1.6 0-.886.717-1.6 1.603-1.6h23.782c.886 0 1.603.714 1.603 1.6zm-1.603-5.641h-23.782c-.886 0-1.603-.717-1.603-1.603 0-.883.717-1.6 1.603-1.6h23.782c.886 0 1.603.717 1.603 1.6 0 .886-.717 1.603-1.603 1.603zm-3.068-46.425v8.655c0 3.101 2.305 5.436 5.367 5.436h8.29v3.722h-44.491l-.018-15.556c0-1.245 1.016-2.257 2.26-2.257h28.592zm11.071 57.59h-39.639c-1.245 0-2.269-.997-2.269-2.245v-15.456h44.494v15.091c0 1.422-1.163 2.604-2.586 2.61zm5.786-14.368h3.242c1.57 0 2.845-1.278 2.845-2.848v-19.714c0-1.573-1.275-2.848-2.845-2.848h-3.242v-3.029c0-.331-.03-.838-.063-1.166-.217-2.239-1.157-4.33-2.718-5.961l-7.208-7.745c-1.892-1.977-4.547-3.113-7.284-3.113l-28.176-.003c-3.01 0-5.46 2.45-5.46 5.463l.015 15.553h-3.33c-1.57 0-2.848 1.275-2.848 2.848v19.714c0 1.57 1.278 2.848 2.848 2.848h3.327v12.126c0 3.01 2.462 5.448 5.472 5.448h39.645c3.188-.012 5.78-2.634 5.78-5.816v-11.759z"/></svg>