<svg width="64" height="64" viewBox="0 0 64 64" xmlns="http://www.w3.org/2000/svg"><title>05018printC</title><path d="M53.967 40.437c0 1.078-.878 1.957-1.959 1.957h-2.155v-4.494h-35.032l.004 4.494h-2.361c-1.081 0-1.959-.878-1.959-1.957v-13.568c0-1.078.878-1.959 1.959-1.959h39.543c1.081 0 1.959.881 1.959 1.959v13.568zm-6.317 10.048c0 .981-.798 1.782-1.778 1.785l-27.275.021c-.857 0-1.555-.698-1.557-1.555l-.013-10.635h30.623v10.384zm-29.07-39.507h14.617l5.084-.011v6.385c0 1.861 1.438 3.32 3.276 3.32h6.094v2.036h-30.614l-.011-10.176c0-.859.696-1.555 1.555-1.555zm21.902 1.055l6 6.436h-4.926c-.632 0-1.074-.459-1.074-1.117v-5.32zm-16.482 37.55h16.365c.608 0 1.102-.493 1.102-1.102 0-.61-.493-1.102-1.102-1.102h-16.365c-.608 0-1.102.491-1.102 1.102 0 .608.493 1.102 1.102 1.102zm0-4.986h16.365c.608 0 1.102-.491 1.102-1.102 0-.61-.493-1.102-1.102-1.102h-16.365c-.608 0-1.102.491-1.102 1.102 0 .61.493 1.102 1.102 1.102zm8.002-44.597c-17.673 0-32.001 14.326-32.001 31.999s14.328 32.001 32.001 32.001 31.999-14.328 31.999-32.001-14.326-31.999-31.999-31.999z"/></svg>