<svg width="64" height="64" viewBox="0 0 64 64" xmlns="http://www.w3.org/2000/svg"><title>05018printF</title><path d="M43.968 58.862h-24.1c-.895 0-1.621-.724-1.621-1.621 0-.898.727-1.621 1.621-1.621h24.1c.895 0 1.621.724 1.621 1.621 0 .898-.727 1.621-1.621 1.621zm-25.721-8.962c0-.898.727-1.621 1.621-1.621h24.1c.895 0 1.621.724 1.621 1.621 0 .898-.727 1.621-1.621 1.621h-24.1c-.895 0-1.621-.724-1.621-1.621zm42.866-27.367h-58.227c-1.591 0-2.885 1.295-2.885 2.882v19.978c0 1.591 1.295 2.885 2.885 2.885h3.475l-.006-6.62h51.586v6.62h3.172c1.591 0 2.882-1.295 2.882-2.885v-19.978c0-1.588-1.292-2.882-2.882-2.882zm-16.97-18.961v7.832c0 .968.647 1.643 1.579 1.643h7.252l-8.83-9.475zm-10.729-1.557h-21.526c-1.264 0-2.287 1.026-2.287 2.29l.015 14.983h45.08v-2.996h-8.974c-2.705 0-4.824-2.146-4.824-4.888v-9.404l-7.484.015zm21.282 42.887h-45.092l.018 15.658c.003 1.264 1.029 2.29 2.29 2.29l40.167-.031c1.441-.003 2.617-1.182 2.617-2.629v-15.288z"/></svg>