<svg width="64" height="64" viewBox="0 0 64 64" xmlns="http://www.w3.org/2000/svg"><title>05018printS</title><path d="M60 16h-56c-2.2 0-4 1.8-4 4v24c0 2.2 1.8 4 4 4h1v-17h54v17h1c2.2 0 4-1.8 4-4v-24c0-2.2-1.8-4-4-4zm-4.006 12.017c-2.207 0-3.994-1.796-3.994-4.006 0-2.218 1.787-4.011 3.994-4.011 2.215 0 4.006 1.793 4.006 4.011 0 2.21-1.791 4.006-4.006 4.006zm-45.994 7.983v22c0 3.3 2.7 6 6 6h32c3.3 0 6-2.7 6-6v-22h-44zm38 22h-32c-1.105 0-2-.895-2-2s.895-2 2-2h32c1.105 0 2 .895 2 2s-.895 2-2 2zm0-12h-32c-1.105 0-2-.895-2-2s.895-2 2-2h32c1.105 0 2 .895 2 2s-.895 2-2 2zm6-35v-5c0-3.3-2.7-6-6-6h-32c-3.3 0-6 2.7-6 6v5h44z"/></svg>