<svg width="64" height="64" viewBox="0 0 64 64" xmlns="http://www.w3.org/2000/svg"><title>01014pupC</title><path d="M28.352 28.934c.053 2.983.385 9.587 2.082 17.555-1.052-1.906-2.271-4.35-3.327-7.071-1.655-4.26-2.254-8.189-2.471-10.422 1.139.382 2.569.355 3.716-.062zm12.005.062c-.219 2.233-.818 6.162-2.471 10.422-1.058 2.716-2.276 5.161-3.327 7.069 1.696-7.966 2.027-14.57 2.082-17.553 1.147.416 2.577.444 3.716.062zm-7.86.297c.686-.004 1.356-.132 1.965-.37-.051 2.435-.344 8.805-1.968 16.625-1.625-7.828-1.917-14.192-1.965-16.625.608.238 1.279.365 1.968.37zm22.776 11.134c-.108 0-.219-.017-.329-.053-.557-.181-.863-.78-.682-1.339.759-2.337 1.143-4.77 1.143-7.227 0-12.893-10.49-23.386-23.386-23.386-12.896 0-23.386 10.492-23.386 23.386 0 2.458.385 4.891 1.143 7.227.181.559-.125 1.158-.682 1.339-.559.178-1.158-.123-1.339-.682-.829-2.548-1.247-5.199-1.247-7.883 0-14.066 11.444-25.511 25.511-25.511 14.066 0 25.511 11.444 25.511 25.511 0 2.679-.419 5.331-1.247 7.883-.144.448-.563.735-1.009.735zm-15.358-.219c-2.658 6.842-6.145 11.818-6.534 12.362-.204.283-.535.453-.886.453s-.68-.17-.884-.453c-.153-.215-3.799-5.325-6.534-12.362-2.769-7.127-2.752-13.142-2.75-13.395.004-.48.325-.905.784-1.039.438-.127.96.057 1.22.455.34.525 1.213.89 2.123.89.903 0 1.772-.363 2.108-.886.151-.306.474-.516.875-.54h.002c.399 0 .737.195.954.525.189.291.552.542 1.007.701v-5.988c-.004-.963-.816-1.747-1.81-1.747-.491 0-.946.189-1.286.529-.325.329-.504.763-.501 1.22.002.291-.108.567-.314.771-.204.208-.478.323-.769.325-.601 0-1.092-.487-1.094-1.084-.006-1.041.397-2.023 1.135-2.767.75-.754 1.753-1.173 2.824-1.175 2.199 0 3.988 1.761 3.997 3.925v5.992c.459-.159.827-.41 1.016-.703.219-.329.557-.527.909-.527.446.025.773.234.941.572.319.493 1.186.856 2.091.856.909 0 1.783-.365 2.123-.892.257-.395.767-.591 1.222-.45.455.132.778.557.782 1.037.002.253.019 6.268-2.75 13.395zm-7.915-40.208c-17.674 0-32 14.328-32 32 0 17.674 14.326 32 32 32 17.672 0 32-14.326 32-32 0-17.672-14.328-32-32-32z"/></svg>