<svg width="64" height="64" viewBox="0 0 64 64" xmlns="http://www.w3.org/2000/svg"><title>01014pupL</title><path d="M32.4 28.42l-.025-.002-.025.002h.05zm9.362-.531c-1.478.698-3.505.662-5.012-.058-.035 3.405-.394 12.258-2.906 22.865 1.461-2.456 3.399-6.045 5.02-10.22 2.039-5.247 2.691-10.039 2.897-12.588zm-6.77-.094c-.756.392-1.656.619-2.618.624-.961-.005-1.862-.232-2.618-.624.031 3.162.394 11.346 2.618 21.272 2.224-9.925 2.586-18.109 2.618-21.272zm-4.087 22.901c-2.512-10.607-2.871-19.46-2.906-22.865-1.507.72-3.535.756-5.012.058.207 2.548.859 7.34 2.897 12.588 1.622 4.175 3.559 7.764 5.02 10.22zm9.599-9.583c-3.103 7.989-7.241 13.791-7.415 14.034-.165.23-.432.366-.715.366-.285 0-.549-.136-.715-.366-.174-.243-4.312-6.045-7.417-14.034-3.122-8.04-3.116-14.869-3.113-15.157.002-.389.26-.73.632-.837.371-.113.773.036.985.364.46.708 1.557 1.185 2.729 1.185 1.172 0 2.26-.475 2.712-1.18.141-.281.4-.43.716-.448.313-.015.592.172.766.437.336.518 1.018.905 1.819 1.079v-7.314c-.005-1.302-1.095-2.361-2.432-2.361h-.002c-.655.002-1.266.256-1.723.715-.44.443-.682 1.029-.678 1.65.003.485-.389.882-.875.884h-.002c-.485 0-.879-.391-.882-.875-.007-1.09.417-2.12 1.19-2.897.788-.793 1.84-1.231 2.965-1.233h.005c2.303-.003 4.185 1.843 4.193 4.117v7.319c.806-.174 1.493-.561 1.83-1.082.174-.265.453-.452.766-.437.316.018.576.167.716.448.452.705 1.541 1.18 2.712 1.18 1.172 0 2.269-.477 2.729-1.185.212-.328.614-.477.985-.364.372.108.629.448.632.837.002.288.01 7.117-3.114 15.157zm23.496-.114c0 3.364-.526 6.692-1.565 9.889-.119.372-.465.607-.836.607-.089 0-.18-.013-.271-.041-.462-.151-.715-.647-.564-1.109.98-3.023 1.478-6.167 1.478-9.346 0-16.675-13.565-30.242-30.242-30.242-16.675 0-30.24 13.567-30.24 30.242 0 3.179.498 6.323 1.478 9.346.151.462-.101.958-.564 1.109-.465.151-.958-.104-1.107-.566-1.039-3.197-1.565-6.525-1.565-9.889 0-17.646 14.355-31.999 31.999-31.999 17.646 0 32.001 14.353 32.001 31.999z"/></svg>