<svg width="64" height="64" viewBox="0 0 64 64" xmlns="http://www.w3.org/2000/svg"><title>07007quickphotoF</title><path d="M63.11 13.918c1.188-1.195 1.188-3.136-.002-4.326l-2.76-2.76c-1.11-1.11-3.214-1.11-4.328 0l-11.829 11.829h-21.706v-4.413c0-.597-.489-1.084-1.091-1.084h-13.293c-.6 0-1.089.486-1.089 1.084v4.413h-4.951c-1.136 0-2.059.921-2.059 2.052v35.751c0 1.131.923 2.052 2.059 2.052h56.647c1.136 0 2.059-.921 2.059-2.052v-35.751c0-1.131-.923-2.052-2.059-2.052h-.34l4.744-4.744zm-32.735 9.381c2.654 0 5.154.666 7.353 1.828l-1.877 1.877c-1.672-.76-3.523-1.197-5.476-1.197-3.183 0-6.108 1.131-8.396 3.008l-1.778-1.778c2.751-2.326 6.3-3.738 10.174-3.738zm-21.524-2.942v-5.065c0-.165.135-.302.302-.302h11.095c.165 0 .3.137.3.302v5.065c0 .165-.135.3-.3.3h-11.095c-.168 0-.302-.135-.302-.3zm37.311 18.724c0 8.703-7.081 15.784-15.787 15.784-8.699 0-15.777-7.081-15.777-15.784 0-1.081.111-2.137.319-3.157l2.238 2.241c-.021.302-.045.607-.045.916 0 7.32 5.95 13.277 13.265 13.277 7.32 0 13.275-5.957 13.275-13.277 0-1.693-.331-3.306-.909-4.796l1.908-1.905c.961 2.038 1.514 4.302 1.514 6.701zm-17.222 6.533c-.246.248-.574.383-.926.383l-.005-.002c-.527 0-.933-.383-.933-.383l-15.357-15.357c-.248-.246-.383-.576-.383-.928 0-.352.135-.68.383-.928l2.76-2.758c.458-.46 1.393-.46 1.854 0l11.676 11.674 29.246-29.246c.463-.456 1.395-.465 1.856 0l2.76 2.76c.51.51.51 1.341.002 1.854l-32.934 32.931z"/></svg>