<svg width="64" height="64" viewBox="0 0 64 64" xmlns="http://www.w3.org/2000/svg"><title>07007quickphotoL</title><path d="M59.725 13.608l1.751-1.751c.768-.775.768-2.028 0-2.798l-2.497-2.5c-.749-.747-2.054-.744-2.801 0l-7.022 7.025h-22.324v-1.789c0-1.955-1.599-3.547-3.562-3.547h-12.908c-1.96 0-3.554 1.592-3.554 3.547v1.789h-2.309c-2.48 0-4.498 2.013-4.498 4.491v34.714c0 2.476 2.018 4.489 4.498 4.489h55.003c2.48 0 4.498-2.013 4.498-4.489v-34.714c0-2.401-1.9-4.349-4.275-4.467zm1.715 39.181c0 1.064-.869 1.929-1.939 1.929h-55.003c-1.069 0-1.939-.865-1.939-1.929v-34.714c0-1.067.869-1.931 1.939-1.931h4.869v-4.349c0-.544.446-.99.995-.99h12.908c.551 0 .999.446.999.99v4.349h22.326l-6.63 6.632c-2.331-1.418-5.052-2.252-7.974-2.252-3.807 0-7.292 1.399-9.98 3.701l-1.76-1.76c-.747-.744-2.054-.744-2.798 0l-2.497 2.5c-.373.373-.578.869-.578 1.399s.205 1.026.578 1.399l2.675 2.675c-.65 1.703-1.021 3.542-1.021 5.469 0 8.486 6.899 15.391 15.381 15.391 8.486 0 15.388-6.904 15.388-15.391 0-2.851-.792-5.515-2.151-7.805l11.959-11.959h2.312c1.069 0 1.939.865 1.939 1.931v34.714zm-16.619-16.881c0 7.075-5.753 12.831-12.828 12.831-7.068 0-12.821-5.756-12.821-12.831 0-1.19.217-2.317.52-3.41l9.168 9.168c.373.373.869.578 1.399.578h.007c.532 0 1.028-.205 1.402-.578l11.651-11.651c.927 1.772 1.503 3.757 1.503 5.893zm-20.958-9.833c2.218-1.84 5.028-2.991 8.13-2.991 2.206 0 4.253.609 6.069 1.594l-7.798 7.798-6.401-6.401zm-1.411-8.352v-4.908c0-.164-.135-.299-.299-.299h-10.765c-.164 0-.296.135-.296.299v4.908c0 .164.132.296.296.296h10.765c.164 0 .299-.132.299-.296z"/></svg>