<svg width="64" height="64" viewBox="0 0 64 64" xmlns="http://www.w3.org/2000/svg"><title>07007quickphotoC</title><path d="M64 32c0-9.426-4.101-17.875-10.59-23.733-.355-.321-.692-.658-1.062-.962-5.531-4.562-12.619-7.304-20.348-7.304-17.674 0-32 14.326-32 32s14.326 32 32 32c7.729 0 14.817-2.742 20.348-7.302.37-.304.707-.644 1.062-.964 6.489-5.856 10.59-14.305 10.59-23.733zm-12.234-19.9l1.799 1.799c.775.777.775 2.041.002 2.819l-2.87 2.867h.58c.701 0 1.272.569 1.272 1.268v23.838c0 .699-.571 1.266-1.272 1.266h-37.771c-.703 0-1.272-.567-1.272-1.266v-23.838c0-.699.569-1.268 1.272-1.268h3.401v-3.044c0-.348.276-.622.627-.622h8.863c.346 0 .629.278.629.622v3.044h14.432l7.487-7.485c.722-.729 2.096-.729 2.821 0zm-10.626 21c0 4.824-3.927 8.749-8.753 8.749-4.824 0-8.747-3.925-8.747-8.749l.049-.493-1.693-1.693c-.147.705-.229 1.436-.229 2.186 0 5.856 4.764 10.624 10.62 10.624 5.858 0 10.624-4.768 10.624-10.624 0-1.691-.433-3.269-1.138-4.69l-1.391 1.391c.418 1.017.658 2.13.658 3.299zm-14.369-6.652c1.525-1.289 3.468-2.096 5.616-2.096 1.264 0 2.457.28 3.543.763l1.374-1.374c-1.476-.782-3.133-1.264-4.917-1.264-2.663 0-5.072 1.02-6.939 2.646l1.323 1.325zm-.937-5.849v-3.345c0-.119-.098-.217-.217-.217h-7.366c-.119 0-.217.098-.217.217v3.345c0 .119.098.217.217.217h7.366c.119 0 .217-.098.217-.217zm4.849 11.374l-7.612-7.614c-.149-.147-.37-.234-.605-.234-.234 0-.455.087-.605.234l-1.795 1.801c-.164.161-.251.376-.251.605 0 .229.087.444.249.605l10.012 10.01c.161.161.376.251.603.251v-.002c.004 0 .374-.008.612-.249l21.469-21.467c.331-.333.331-.875 0-1.209l-1.799-1.799c-.302-.299-.909-.299-1.209 0l-19.069 19.067z"/></svg>