<svg width="64" height="64" viewBox="0 0 64 64" xmlns="http://www.w3.org/2000/svg"><title>07016referrewardsC</title><path d="M31.999 0c-17.673 0-31.999 14.326-31.999 32.001 0 17.673 14.326 31.999 31.999 31.999 17.675 0 32.001-14.326 32.001-31.999 0-17.675-14.326-32.001-32.001-32.001zm22.501 39.399c0 1.206-.98 2.185-2.185 2.185h-3.606l-4.213 5.152c-.149.181-.368.281-.594.281-.087 0-.175-.015-.26-.045-.305-.109-.509-.398-.509-.722v-4.667h-12.122c-1.203 0-2.185-.98-2.185-2.185v-3.698h-7.958v4.667c0 .324-.204.613-.511.724-.085.03-.173.045-.258.045-.226 0-.445-.1-.594-.283l-4.213-5.152h-3.606c-1.206 0-2.185-.98-2.185-2.183v-14.35c0-1.206.98-2.185 2.185-2.185h21.302c1.206 0 2.185.98 2.185 2.185v3.696h17.142c1.206 0 2.185.982 2.185 2.185v14.35zm-2.185-14.997h-17.142v9.116c0 1.203-.98 2.183-2.185 2.183h-2.624v3.698c0 .358.292.648.648.648h12.891c.424 0 .767.343.767.769v3.28l3.082-3.766c.145-.179.362-.283.594-.283h3.97c.358 0 .648-.29.648-.648v-14.35c0-.356-.29-.648-.648-.648zm-9.278 12.122v.724c0 .464-.379.839-.843.839-.464 0-.843-.375-.843-.839v-.628c-.941-.104-1.764-.46-2.33-1.01-.33-.326-.339-.858-.013-1.191.322-.332.856-.339 1.189-.017.373.364 1.01.579 1.706.579 1.214 0 1.957-.626 1.957-1.074 0-.371 0-.931-1.772-1.078-1.936-.16-3.093-1.101-3.093-2.516 0-1.201.941-2.168 2.356-2.443v-.669c0-.464.379-.843.843-.843.464 0 .843.379.843.843v.684c.679.138 1.287.441 1.717.863.332.324.339.856.017 1.189-.326.334-.861.341-1.193.017-.3-.294-.846-.475-1.423-.475-.814 0-1.478.375-1.478.835 0 .66 1.186.809 1.549.839 2.743.224 3.319 1.621 3.319 2.754 0 1.216-1.001 2.251-2.507 2.616zm-9.402-3.005v-9.116h-2.624c-.356 0-.648.292-.648.648v9.116h2.624c.358 0 .648-.29.648-.648zm-8.192-8.207h-3.214v-3.276c0-.309-.249-.562-.558-.562h-.878c-.309 0-.56.253-.56.562v3.276h-3.406c-.311 0-.56.251-.56.562v.875c0 .309.249.56.56.56h3.406v3.342c0 .309.251.558.56.558h.878c.309 0 .558-.249.558-.558v-3.342h3.214c.309 0 .56-.251.56-.56v-.875c0-.311-.251-.562-.56-.562z"/></svg>