<svg width="64" height="64" viewBox="0 0 64 64" xmlns="http://www.w3.org/2000/svg"><title>07016referrewardsF</title><path d="M60.892 19.364h-24.38v-5.257c0-1.715-1.395-3.108-3.108-3.108h-30.297c-1.715 0-3.108 1.393-3.108 3.108v20.41c0 1.71 1.393 3.106 3.108 3.106h5.127l5.992 7.327c.213.258.526.403.848.403.121 0 .247-.021.366-.066.437-.155.726-.567.726-1.029v-6.635h11.319v5.259c0 1.713 1.395 3.106 3.108 3.106h17.238v6.637c0 .46.292.873.726 1.029.119.043.243.064.366.064.324 0 .635-.143.846-.4l5.994-7.329h5.129c1.713 0 3.108-1.393 3.108-3.106v-20.41c0-1.713-1.395-3.108-3.108-3.108zm.922 23.517c0 .509-.415.92-.922.92h-5.647c-.328 0-.639.147-.846.4l-4.381 5.359v-4.667c0-.603-.49-1.093-1.095-1.093h-18.331c-.507 0-.92-.411-.92-.92v-5.259h3.732c1.713 0 3.108-1.395 3.108-3.106v-12.967h24.38c.507 0 .922.415.922.922v20.41zm-38.344-17.992c0 .439-.358.794-.797.794h-4.569v4.754c0 .439-.358.797-.797.797h-1.248c-.437 0-.794-.358-.794-.797v-4.754h-4.846c-.441 0-.797-.356-.797-.794v-1.246c0-.441.356-.799.797-.799h4.846v-4.66c0-.439.358-.797.794-.797h1.248c.439 0 .797.358.797.797v4.66h4.569c.439 0 .797.358.797.799v1.246zm6.203-2.418c0-.507.413-.922.92-.922h3.734v12.967c0 .507-.415.92-.922.92h-3.732v-12.965zm16.872 8.682c-.518-.043-2.205-.253-2.205-1.193 0-.656.944-1.189 2.102-1.189.822 0 1.597.258 2.023.675.471.46 1.233.452 1.695-.023.458-.471.447-1.231-.023-1.691-.613-.599-1.474-1.029-2.443-1.225v-.976c0-.66-.539-1.197-1.199-1.197s-1.197.537-1.197 1.197v.954c-2.015.39-3.353 1.764-3.353 3.474 0 2.013 1.644 3.35 4.401 3.576 2.52.211 2.52 1.005 2.52 1.531 0 .639-1.059 1.529-2.784 1.529-.99 0-1.898-.307-2.426-.824-.475-.458-1.233-.447-1.693.023-.46.473-.449 1.231.021 1.693.805.784 1.975 1.287 3.314 1.436v.895c0 .66.537 1.195 1.197 1.195s1.199-.535 1.199-1.195v-1.029c2.143-.518 3.568-1.992 3.568-3.723 0-1.608-.82-3.595-4.718-3.915z"/></svg>