<svg width="64" height="64" viewBox="0 0 64 64" xmlns="http://www.w3.org/2000/svg"><title>05020refreshL</title><path d="M61.031 34.603h-1.39c-.477 0-.867.388-.867.865-.487 14.096-12.107 25.408-26.319 25.408-14.52 0-26.331-11.81-26.331-26.333 0-14.52 11.81-26.333 26.331-26.333 6.588 0 12.613 2.435 17.235 6.446l-11.567 1.166c-.532.058-.92.53-.865 1.065l.123 1.2c.058.532.535.92 1.065.865l15.59-1.609c.255-.029.487-.152.653-.357.161-.2.236-.453.212-.708l-1.604-15.407c-.055-.53-.535-.918-1.065-.865l-1.2.128c-.535.058-.915.535-.865 1.065l1.123 10.717c-5.112-4.259-11.676-6.829-18.835-6.829-16.24 0-29.455 13.215-29.455 29.457 0 16.243 13.215 29.457 29.455 29.457 15.934 0 28.952-12.716 29.445-28.528 0-.477-.393-.87-.87-.87"/></svg>