<svg width="64" height="64" viewBox="0 0 64 64" xmlns="http://www.w3.org/2000/svg"><title>05020refreshS</title><path d="M61 0h-2c-1.65 0-3 1.349-3 2.999v7.92c-5.927-6.767-14.519-10.919-23.998-10.919-8.818 0-16.814 3.585-22.607 9.373l-.021-.021c-5.794 5.793-9.38 13.793-9.374 22.618.011 17.65 14.384 32.019 32.039 32.03 8.422.005 16.266-3.392 22.1-8.968l.139-.092 1.061-1.06c1.166-1.167 1.166-3.075 0-4.242l-1.415-1.413c-1.166-1.167-3.075-1.167-4.242 0l-.828.827c-4.398 4.318-10.388 6.95-16.82 6.946-13.242-.009-24.021-10.785-24.029-24.023-.005-6.615 2.681-12.612 7.022-16.955l.013.012c4.345-4.344 10.345-7.035 16.962-7.035 8.747 0 16.507 4.683 20.721 11.996h-13.722c-1.649 0-2.999 1.35-2.999 2.999v1.999c0 1.65 1.35 2.999 2.999 2.999h21.999c1.65 0 3-1.349 3-2.999v-21.992c0-1.65-1.35-2.999-3-2.999"/></svg>