<svg width="64" height="64" viewBox="0 0 64 64" xmlns="http://www.w3.org/2000/svg"><title>05020refreshF</title><path d="M60.106 34.359h-2.446c-.61 0-1.089.485-1.115 1.094-.575 13.24-11.527 23.834-24.904 23.834-14.749 0-26.547-12.877-24.746-27.977 1.086-9.09 7.247-17.058 15.826-20.254 8.277-3.083 17.079-1.603 23.711 3.304l-9.491 1.004c-1.089.115-1.464.577-1.346 1.669l.177 1.673c.118 1.091.577 1.461 1.669 1.346l15.138-1.605c1.094-.115 1.883-1.094 1.765-2.185l-1.577-14.892c-.118-1.094-.575-1.466-1.669-1.348l-1.673.177c-1.089.115-1.461.577-1.346 1.669l.896 8.47c-7.964-5.748-18.498-7.353-28.335-3.54-9.477 3.677-16.436 12.255-18.178 22.269-3.25 18.668 11.1 34.934 29.179 34.934 15.948 0 28.998-12.663 29.617-28.463.026-.643-.509-1.178-1.152-1.178"/></svg>