<svg width="64" height="64" viewBox="0 0 64 64" xmlns="http://www.w3.org/2000/svg"><title>03017refuelingL</title><path d="M60.775 2.699c-.094-.642-.69-1.081-1.33-1.001 0 0-4.32.587-6.171.862l-.331.048c-1.678.242-3.262.473-5.095 2.219-1.275 1.214-2.811 2.69-6.485 6.366l-.126.192-1.502-1.499c-.462-.464-1.211-.464-1.673 0-.464.462-.464 1.211 0 1.673l.311.313-2.201 2.203-3.173-3.173c-2.133-2.133-6.347-3.879-9.365-3.879h-16.027c-3.017 0-5.486 2.469-5.486 5.486v44.315c0 3.017 2.469 5.486 5.486 5.486h37.403c3.019 0 5.486-2.469 5.486-5.486v-22.939c0-3.017-1.744-7.23-3.879-9.365l-3.115-3.115 2.201-2.203.448.448c.231.231.535.345.839.345.302 0 .606-.114.837-.345.462-.464.462-1.214 0-1.675l-1.278-1.278c1.374-1.694 2.958-3.781 4.13-5.335.706-.933 1.239-1.641 1.438-1.872.464-.544.491-.549 1.221-.67l6.994-1.241c.629-.112 1.056-.706.962-1.339l-.519-3.541zm-12.647 31.186v22.939c0 1.719-1.397 3.118-3.118 3.118h-37.403c-1.719 0-3.118-1.399-3.118-3.118v-44.315c0-1.719 1.399-3.118 3.118-3.118h16.027c2.398 0 5.995 1.488 7.691 3.186l13.618 13.616c1.696 1.698 3.184 5.291 3.184 7.691zm4.816-27.399c-.992.165-1.653.325-2.626 1.463-.213.247-.779.997-1.527 1.986-1.122 1.481-2.615 3.449-3.927 5.077l-2.018-2.018.192-.128c3.648-3.65 5.173-5.115 6.441-6.322 1.287-1.23 2.235-1.365 3.803-1.593l.336-.048c1.237-.183 3.575-.505 4.985-.699l.181 1.246-5.84 1.038zm-29.227 5.774h-12.094c-2.386 0-4.318 1.934-4.318 4.32s1.931 4.32 4.318 4.32h12.094c2.386 0 4.32-1.934 4.32-4.32s-1.934-4.32-4.32-4.32zm0 6.272h-12.094c-1.077 0-1.95-.875-1.95-1.952s.873-1.952 1.95-1.952h12.094c1.079 0 1.952.875 1.952 1.952s-.873 1.952-1.952 1.952zm6.464 18.498c.233.238.539.357.848.357.297 0 .599-.114.827-.338l6.096-5.973c.466-.459.475-1.209.018-1.678-.459-.466-1.209-.473-1.675-.016l-6.096 5.973c-.469.457-.475 1.207-.018 1.675zm-9.474 6.523l-6.057 5.936c-.466.457-.475 1.207-.016 1.675.231.235.539.354.846.354.299 0 .599-.112.83-.338l6.057-5.934c.466-.457.475-1.207.016-1.675-.457-.466-1.209-.475-1.675-.018zm11.15.19c-.469-.457-1.218-.45-1.675.016-.457.469-.45 1.218.018 1.678l6.096 5.968c.231.226.53.338.827.338.309 0 .615-.119.848-.354.457-.469.448-1.218-.018-1.675l-6.096-5.97zm-15.547-14.137c-.466-.457-1.216-.45-1.675.016-.459.469-.45 1.218.016 1.678l6.057 5.936c.231.226.53.338.83.338.306 0 .615-.119.846-.354.459-.469.45-1.218-.016-1.678l-6.057-5.936z"/></svg>