<svg width="64" height="64" viewBox="0 0 64 64" xmlns="http://www.w3.org/2000/svg"><title>03017refuelingF</title><path d="M10.971 19.037c-1.751 0-3.165-1.419-3.165-3.165 0-1.751 1.414-3.162 3.165-3.162h12.657c1.746 0 3.165 1.411 3.165 3.162 0 1.746-1.419 3.165-3.165 3.165h-12.657zm10.668 28.778l-6.923 6.787c-.264.259-.606.387-.949.387-.35 0-.703-.136-.967-.408-.525-.533-.515-1.39.018-1.913l6.926-6.787c.533-.525 1.388-.515 1.913.021.525.533.517 1.39-.018 1.913zm.018-9.179c-.264.269-.614.408-.964.408-.342 0-.687-.131-.949-.389l-6.926-6.787c-.533-.523-.544-1.38-.018-1.916.525-.533 1.385-.544 1.916-.018l6.923 6.787c.536.523.544 1.38.018 1.916zm8.938-2.13l6.97-6.829c.536-.525 1.39-.517 1.918.018.523.536.515 1.393-.021 1.916l-6.97 6.829c-.264.259-.606.387-.949.387-.35 0-.7-.136-.967-.405-.525-.536-.515-1.393.018-1.916zm-.018 9.61c.523-.533 1.383-.541 1.916-.021l6.97 6.827c.536.523.544 1.38.021 1.916-.267.272-.617.408-.97.408-.34 0-.682-.128-.949-.387l-6.97-6.827c-.533-.523-.544-1.38-.018-1.916zm32.003-46.116s-4.532.614-6.476.907c-1.882.274-3.277.382-5.034 2.052-1.312 1.257-2.909 2.789-6.644 6.523l-2.245-2.245c-.661-.664-1.733-.664-2.394 0-.661.661-.661 1.733 0 2.394l.355.355-3.303 3.306-2.872-2.872c-2.517-2.514-7.485-4.568-11.037-4.568h-15.467c-3.554 0-6.463 2.904-6.463 6.463v45.222c0 3.552 2.909 6.463 6.463 6.463h37.954c3.554 0 6.461-2.911 6.461-6.463v-22.74c0-3.554-2.062-8.52-4.571-11.034l-2.76-2.76 3.306-3.306.444.444c.332.332.763.497 1.197.497.434 0 .865-.165 1.197-.497.664-.661.664-1.733 0-2.394l-2.444-2.444c2.271-2.836 4.984-6.534 5.517-7.156.87-1.014 1.236-.98 2.329-1.173 3.034-.541 7.036-1.249 7.036-1.249l-.549-3.724z"/></svg>