<svg width="64" height="64" viewBox="0 0 64 64" xmlns="http://www.w3.org/2000/svg"><title>05027removecloseS</title><path d="M62.098 2.99l-1.847-1.847c-1.524-1.524-4.018-1.524-5.542 0l-23.088 23.09-23.09-23.09c-1.524-1.524-4.018-1.524-5.542 0l-1.847 1.847c-1.524 1.524-1.524 4.018 0 5.542l23.09 23.088-23.09 23.09c-1.524 1.524-1.524 4.018 0 5.542l1.847 1.847c1.524 1.524 4.018 1.524 5.542 0l23.09-23.09 23.088 23.09c1.524 1.524 4.018 1.524 5.542 0l1.847-1.847c1.524-1.524 1.524-4.018 0-5.542l-23.09-23.09 23.09-23.088c1.524-1.524 1.524-4.018 0-5.542"/></svg>