<svg width="64" height="64" viewBox="0 0 64 64" xmlns="http://www.w3.org/2000/svg"><title>05027removecloseF</title><path d="M.969 57.458l25.492-25.492-25.46-25.456c-1.289-1.289-1.289-2.277 0-3.566l1.979-1.979c1.289-1.289 2.277-1.285 3.562.004l25.46 25.456 25.46-25.456c1.289-1.289 2.277-1.293 3.566-.004l1.979 1.979c1.289 1.289 1.289 2.277-.004 3.566l-25.46 25.456 25.492 25.492c1.289 1.289 1.293 2.277.004 3.566l-1.979 1.979c-1.289 1.289-2.277 1.289-3.566 0l-25.492-25.496-25.492 25.496c-1.289 1.289-2.277 1.289-3.566 0l-1.979-1.979c-1.289-1.289-1.285-2.277.004-3.566"/></svg>