<svg width="64" height="64" viewBox="0 0 64 64" xmlns="http://www.w3.org/2000/svg"><title>05027removecloseC</title><path d="M44.544 43.798l-.801.801c-.521.521-.92.521-1.443-.002l-10.312-10.312-10.312 10.312c-.521.523-.92.523-1.443.002l-.799-.801c-.523-.521-.521-.92 0-1.443l10.312-10.312-10.3-10.3c-.523-.521-.523-.92 0-1.443l.799-.799c.523-.523.922-.521 1.443 0l10.3 10.3 10.3-10.3c.521-.521.92-.523 1.443 0l.799.799c.523.523.523.922 0 1.443l-10.3 10.3 10.312 10.312c.521.523.523.922.002 1.443zm-12.544-43.798c-17.673 0-32 14.327-32 32 0 17.673 14.327 32 32 32 17.673 0 32-14.327 32-32 0-17.673-14.327-32-32-32z"/></svg>