<svg width="64" height="64" viewBox="0 0 64 64" xmlns="http://www.w3.org/2000/svg"><title>05027removecloseL</title><path d="M.485 59.695c-.65.65-.646 1.709.004 2.359l1.457 1.457c.65.65 1.71.654 2.359.004l27.718-27.711 27.672 27.666c.65.65 1.71.646 2.359-.004l1.457-1.457c.65-.65.65-1.709.004-2.359l-27.676-27.666 27.643-27.637c.65-.646.646-1.709 0-2.355l-1.461-1.461c-.646-.646-1.705-.65-2.355 0l-27.643 27.637-27.689-27.682c-.65-.65-1.71-.646-2.359.004l-1.457 1.457c-.65.65-.65 1.709 0 2.355l27.684 27.682-27.718 27.711"/></svg>