<svg width="64" height="64" viewBox="0 0 64 64" xmlns="http://www.w3.org/2000/svg"><title>01029rentersspL</title><path d="M52.474 34.191l1.102-3.267 1.077 3.267h-2.179zm.095-5.034l-3.117 8.459h1.906l.64-1.931h3.142l.64 1.931h1.99l-3.105-8.459h-2.095zm-7.616 6.848h4.132v1.611h-5.969v-8.459h1.837v6.848zm-5.409 1.611h1.837v-8.459h-1.837v8.459zm-3.509-8.459h1.837v5.237c0 2.157-1.433 3.378-3.556 3.378-2.118 0-3.528-1.222-3.528-3.378v-5.237h1.825v5.237c0 1.08.604 1.717 1.703 1.717 1.102 0 1.72-.637 1.72-1.717v-5.237zm-8.913 6.055l-.971-1.16-1.077.874.877 1.116c-.189.07-.403.106-.626.106-1.508 0-2.335-1.197-2.335-2.76 0-1.55.826-2.749 2.335-2.749 1.503 0 2.343 1.199 2.343 2.749 0 .723-.189 1.352-.545 1.825zm-1.798-6.208c-2.571 0-4.23 1.931-4.23 4.383 0 2.451 1.658 4.385 4.23 4.385.637 0 1.219-.12 1.739-.356l.735.899 1.197-.971-.665-.771c.785-.779 1.233-1.92 1.233-3.186 0-2.451-1.67-4.383-4.238-4.383zm-8.946 7.001h4.135v1.611h-5.971v-8.459h1.837v6.848zm-8.022-1.814l1.102-3.267 1.08 3.267h-2.182zm.097-5.034l-3.117 8.459h1.906l.64-1.931h3.139l.64 1.931h1.99l-3.103-8.459h-2.095zm13.123-15.591c0-1.953 1.622-3.114 3.882-3.114 1.825 0 3.272.771 4.141 1.914l-1.578 1.185c-.479-.682-1.433-1.185-2.549-1.185-.868 0-1.622.303-1.622 1.057 0 .796.854.952 1.97 1.199 2.101.448 4.04 1.013 4.04 3.186 0 2.026-1.695 3.359-4.285 3.359-2.042 0-3.62-.84-4.519-2.159l1.65-1.23c.682 1.013 1.781 1.491 2.983 1.491 1.174 0 1.898-.462 1.898-1.258 0-1.912-6.01-.637-6.01-4.447zm9.856-2.922h7.499v1.967h-5.256v2.157h4.678v1.809h-4.678v2.432h5.401v1.97h-7.644v-10.335zm-21.632 12.163h43.409c1.313 0 2.385-1.074 2.385-2.382v-9.689c0-1.311-1.071-2.382-2.385-2.382h-43.409c-1.311 0-2.382 1.071-2.382 2.382v9.689c0 1.308 1.071 2.382 2.382 2.382zm49.951 20.778c0 .91-.768 1.678-1.678 1.678h-53.309c-.907 0-1.678-.768-1.678-1.678v-37.599c0-.91.771-1.675 1.678-1.675h53.309c.91 0 1.678.765 1.678 1.675v37.599zm-1.678-42.362h-53.309c-2.618 0-4.764 2.145-4.764 4.764v37.599c0 2.621 2.145 4.764 4.764 4.764h6.784v13.869h3.089v-13.869h33.567v13.869h3.089v-13.869h6.781c2.621 0 4.764-2.143 4.764-4.764v-37.599c0-2.618-2.143-4.764-4.764-4.764z"/></svg>