<svg width="64" height="64" viewBox="0 0 64 64" xmlns="http://www.w3.org/2000/svg"><title>01028rentersL</title><path d="M45.768 26.272h10.293v2.78h-3.651v11.748h-2.989v-11.748h-3.654v-2.78zm-4.984 0h2.947v14.528h-2.571l-5.752-8.779v8.779h-2.944v-14.528h2.758l5.562 8.467v-8.467zm-17.146 11.807h6.456v2.721h-9.441v-14.528h9.358v2.719h-6.372v3.133h5.604v2.719h-5.604v3.236zm-8.406-6.89c0 1.311-.829 2.182-2.365 2.182h-2.221v-4.38h2.157c1.536 0 2.429.726 2.429 2.179v.019zm3.03-.081v-.083c0-1.433-.437-2.574-1.224-3.361-.913-.913-2.262-1.391-3.943-1.391h-5.457v14.528h3.008v-4.775h1.887l2.68 4.775h3.445l-3.091-5.395c1.597-.707 2.696-2.098 2.696-4.296zm.184-20.544h6.637v1.959h-4.502v2.31h3.96v1.956h-3.96v4.079h-2.134v-10.304zm7.744 5.078c0-3.091 1.942-5.254 4.666-5.254 2.738 0 4.65 2.148 4.65 5.223v.178c0 3.078-1.942 5.254-4.666 5.254-2.738 0-4.65-2.148-4.65-5.223v-.178zm11.019-5.078h3.871c1.194 0 2.148.339 2.799.988.557.559.868 1.366.868 2.382v.061c0 1.558-.782 2.546-1.914 3.044l2.193 3.829h-2.443l-1.901-3.386h-1.338v3.386h-2.134v-10.304zm-27.409 12.243h43.409c1.313 0 2.382-1.074 2.382-2.382v-9.689c0-1.311-1.069-2.382-2.382-2.382h-43.409c-1.311 0-2.382 1.071-2.382 2.382v9.689c0 1.308 1.071 2.382 2.382 2.382zm18.582-7.048v-.103c0-2.031 1.016-3.297 2.457-3.297 1.43 0 2.46 1.283 2.46 3.311v.106c0 2.031-1.016 3.297-2.443 3.297s-2.474-1.283-2.474-3.314zm12.536-.161h-1.575v-3.105h1.53c1.091 0 1.722.515 1.722 1.547v.014c0 .927-.587 1.544-1.678 1.544zm18.833 27.987c0 .91-.768 1.678-1.678 1.678h-53.309c-.907 0-1.678-.768-1.678-1.678v-37.599c0-.91.771-1.675 1.678-1.675h53.309c.91 0 1.678.765 1.678 1.675v37.599zm-1.678-42.362h-53.309c-2.618 0-4.764 2.145-4.764 4.764v37.599c0 2.621 2.145 4.767 4.764 4.767h6.784v13.866h3.089v-13.866h33.567v13.866h3.089v-13.866h6.781c2.621 0 4.764-2.145 4.764-4.767v-37.599c0-2.618-2.143-4.764-4.764-4.764z"/></svg>