<svg width="64" height="64" viewBox="0 0 64 64" xmlns="http://www.w3.org/2000/svg"><title>01028rentersC</title><path d="M31.615 25.892c.969 0 1.656-.857 1.656-2.236v-.07c0-1.377-.699-2.244-1.666-2.244-.978 0-1.666.857-1.666 2.236v.068c0 1.379.708 2.247 1.677 2.247zm7.962-3.405v-.009c0-.699-.429-1.048-1.167-1.048h-1.039v2.106h1.069c.738 0 1.137-.419 1.137-1.05zm-16.378 4.623h1.447v-2.765h2.684v-1.328h-2.684v-1.566h3.054v-1.328h-4.502v6.988zm5.252-3.424c0 2.087 1.296 3.545 3.154 3.545 1.847 0 3.165-1.479 3.165-3.564v-.119c0-2.087-1.299-3.545-3.154-3.545-1.847 0-3.165 1.469-3.165 3.564v.119zm7.473 3.424h1.447v-2.295h.908l1.288 2.295h1.658l-1.488-2.595c.769-.34 1.299-1.007 1.299-2.066v-.04c0-.689-.21-1.239-.589-1.617-.44-.438-1.088-.67-1.898-.67h-2.625v6.988zm-19.037 1.407c-.888 0-1.615-.727-1.615-1.615v-6.572c0-.886.727-1.613 1.615-1.613h29.439c.888 0 1.615.727 1.615 1.613v6.572c0 .888-.727 1.615-1.615 1.615h-29.439zm1.022 8.474h1.507c1.041 0 1.605-.591 1.605-1.479v-.013c0-.986-.606-1.477-1.647-1.477h-1.464v2.969zm1.282 1.8h-1.282v3.237h-2.04v-9.851h3.7c1.141 0 2.057.323 2.676.944.533.533.831 1.307.831 2.281v.055c0 1.492-.746 2.436-1.83 2.914l2.096 3.658h-2.336l-1.815-3.237zm22.538-4.729h2.478v7.966h2.026v-7.966h2.476v-1.885h-6.98v1.885zm-3.379 3.858l-3.773-5.743h-1.87v9.851h1.996v-5.953l3.9 5.953h1.745v-9.851h-1.998v5.743zm-24.427 8.961c-1.777 0-3.231-1.454-3.231-3.231v-25.498c0-1.777 1.454-3.231 3.231-3.231h36.151c1.777 0 3.231 1.454 3.231 3.231v25.498c0 1.777-1.454 3.231-3.231 3.231h-4.599v14.115c10.933-5.088 18.527-16.142 18.527-28.995 0-17.673-14.327-32-32-32-17.673 0-32 14.327-32 32 0 12.85 7.592 23.9 18.521 28.993v-14.113h-4.599zm6.695 0v14.997c3.541 1.352 7.369 2.123 11.384 2.123 4.013 0 7.838-.772 11.377-2.121v-14.999h-22.761zm6.104-6.695h4.378v1.843h-6.404v-9.851h6.346v1.845h-4.321v2.123h3.8v1.845h-3.8v2.196z"/></svg>