<svg width="64" height="64" viewBox="0 0 64 64" xmlns="http://www.w3.org/2000/svg"><title>01028rentersF</title><path d="M40.073 13.936h1.602c1.111 0 1.711-.626 1.711-1.573v-.012c0-1.053-.646-1.576-1.754-1.576h-1.558v3.161zm0 5.368h-2.175v-10.494h3.942c1.216 0 2.19.345 2.851 1.006.567.57.883 1.395.883 2.427v.061c0 1.588-.792 2.591-1.95 3.102l2.237 3.898h-2.488l-1.936-3.447h-1.363v3.447zm-11.164-5.202c0 2.07 1.064 3.374 2.518 3.374 1.456 0 2.488-1.289 2.488-3.36v-.105c0-2.067-1.05-3.374-2.503-3.374-1.471 0-2.503 1.289-2.503 3.36v.105zm-2.234.061v-.181c0-3.149 1.98-5.351 4.751-5.351 2.789 0 4.737 2.187 4.737 5.322v.178c0 3.135-1.977 5.354-4.751 5.354-2.789 0-4.737-2.19-4.737-5.322zm-5.713.988h4.032v-1.994h-4.032v-2.354h4.585v-1.994h-6.76v10.494h2.175v-4.152zm36.137 11.763h-10.482v2.83h3.719v11.965h3.044v-11.965h3.719v-2.83zm-12.558 0h-3.003v8.623l-5.664-8.623h-2.81v14.795h3v-8.942l5.857 8.942h2.62v-14.795zm-13.889 12.026h-6.576v-3.298h5.708v-2.769h-5.708v-3.19h6.488v-2.769h-9.529v14.795h9.617v-2.769zm-11.652 2.769l-3.146-5.497c1.626-.716 2.746-2.135 2.746-4.374v-.085c0-1.459-.444-2.62-1.249-3.424-.927-.93-2.301-1.415-4.015-1.415h-5.558v14.795h3.064v-4.863h1.924l2.728 4.863h3.506zm-9.696-20.292h44.216c1.333 0 2.424-1.094 2.424-2.427v-9.868c0-1.333-1.091-2.427-2.424-2.427h-44.216c-1.333 0-2.424 1.094-2.424 2.427v9.868c0 1.333 1.091 2.427 2.424 2.427zm54.696-15.567v38.295c0 2.667-2.184 4.851-4.851 4.851h-6.906v14.868h-3.149v-14.868h-34.184v14.868h-3.149v-14.868h-6.909c-2.667 0-4.851-2.184-4.851-4.851v-38.295c0-2.67 2.184-4.851 4.851-4.851h54.298c2.667 0 4.851 2.181 4.851 4.851zm-48.485 26.053v.02c0 1.333-.845 2.219-2.409 2.219h-2.263v-4.459h2.199c1.564 0 2.474.737 2.474 2.219z"/></svg>