<svg width="64" height="64" viewBox="0 0 64 64" xmlns="http://www.w3.org/2000/svg"><title>08013restaurantF</title><path d="M58.7,54.9c1.6,1.6,1.6,4.2,0,5.8l-1,1c-0.8,0.8-1.8,1.2-2.9,1.2c-1,0-2.1-0.4-2.9-1.2l-26-28 c-0.6-0.4-1.4-0.6-2.1-0.6c-0.3,0-0.6,0-0.8,0.1c-1,0.2-2,0.4-3.1,0.4c-1.6,0-3.1-0.5-4.5-2.2L0.4,14c-0.5-0.6-0.5-1.6,0.1-2.2 c0.3-0.3,0.6-0.4,1-0.4c0.4,0,0.8,0.2,1.1,0.5l12.2,12.9c0.3,0.3,0.7,0.5,1.1,0.5c0.4,0,0.7-0.1,1-0.4l0.2-0.2 c0.6-0.6,0.6-1.6,0-2.2L4.7,9.8c-0.6-0.6-0.6-1.6,0-2.2C5,7.3,5.4,7.1,5.8,7.1c0.4,0,0.8,0.1,1.1,0.4L19.6,20 c0.3,0.3,0.7,0.4,1.1,0.4c0.4,0,0.8-0.1,1.1-0.4l0.2-0.2c0.6-0.6,0.6-1.5,0-2.1L9,5.4C8.4,4.8,8.4,3.9,9,3.3 C9.3,3,9.7,2.9,10.1,2.9c0.4,0,0.8,0.1,1.1,0.4l17.3,15c3,2.5,2.2,5.2,1.8,7.6c-0.2,0.9,0,2.1,0.5,2.9L58.7,54.9z M43.7,35 L36,27.8L61.3,2.5C61.7,2.2,62.1,2,62.5,2c0.9,0,1.6,0.8,1.5,2c-1.3,10.5-12.7,24.9-16.8,29.8c-0.7,0.8-1.9,1.2-3,1.2 C44,35,43.9,35,43.7,35z M25,38.9l5.4,5.8L15.9,61.3c-0.8,0.9-1.8,1.4-2.9,1.4c-0.9,0-1.9-0.4-2.6-1.1l-1.2-1.2 c-1.6-1.6-1.6-4.2,0-5.8L25,38.9z"/></svg>