<svg width="64" height="64" viewBox="0 0 64 64" xmlns="http://www.w3.org/2000/svg"><title>01004retirementL</title><path d="M15.369 52.43l5.347-.007-.365-5.114 3.19.835c1.093.285 3.304.573 5.787.573 2.508 0 3.809-.335 5.014-.639 1.55-.39 3.234-.776 3.234-.776l.278 5.167h4.747l2.437-6.883.796-.434c.493-.267 1.148-.555 1.91-.885 1.515-.662 3.806-1.659 4.92-2.67 3.124-2.834 5.05-3.562 8.243-4.772l.728-.276v-6.264c-5.087-.783-7.236-2.907-8.998-4.658-.543-.539-1.654-1.502-2.839-2.129l-3.955-1.86 4.717-2.099c2.277-1.041 3.298-2.127 3.752-2.939-.682-.119-1.513-.212-2.424-.212-.744 0-1.472.064-2.159.189-2.583.475-5.237 2.825-5.265 2.848l-1.283 1.162c-7.006-4.233-16.063-3.857-16.063-3.857-11.104 0-19.785 7.049-19.785 15.979 0 3.396 1.394 6.666 4.03 9.459l.331.351 3.674 9.911zm32.273-42.43s.915 2.17.272 4.639c1.029-.438 2.538-.616 3.975-.616 2.903 0 5.089.812 5.089.812s.965 3.927-5.434 6.853c.315.146 1.159.764 1.55 1.109 2.492 2.198 3.882 4.9 10.906 5.367v10c-4.655 1.851-6.342 2.095-9.749 5.183-1.965 1.785-5.89 3.122-7.287 3.882l-2.693 7.604h-8.658l-.246-4.566c-1.228.297-2.807.815-6.038.815-2.43 0-4.92-.267-6.385-.65l.308 4.352-9.523.014-4.003-10.753-.08-.253c-2.846-3.015-4.569-6.725-4.658-10.755-.187.023-.374.043-.545.043-.972 0-1.693-.326-2.177-.664-2.01-1.394-2.243-4.418-2.264-4.758-.039-.65.456-1.207 1.107-1.248.66-.046 1.209.456 1.253 1.105.037.571.347 2.337 1.255 2.962.141.1.575.37 1.506.13 1.228-9.115 10.326-16.239 22.113-16.239.185 0 7.052-.082 12.579 2.077 0 0 1.755-6.314 7.827-6.442zm-12.275 10.335c-2.145-.304-4.411-.452-6.933-.452-2.408 0-4.785.276-7.07.817-.634.153-1.027.79-.876 1.424.128.543.614.908 1.148.908l.276-.032c2.104-.5 4.299-.753 6.522-.753 2.408 0 4.566.139 6.6.429.657.094 1.244-.358 1.337-1.004.091-.646-.358-1.244-1.004-1.337zm13.542 9.101c0 1.203-.979 2.179-2.184 2.179s-2.182-.977-2.182-2.179c0-1.207.977-2.182 2.182-2.182s2.184.974 2.184 2.182z"/></svg>