<svg width="64" height="64" viewBox="0 0 64 64" xmlns="http://www.w3.org/2000/svg"><title>01004retirementC</title><path d="M33.375 23.401c-1.605-.251-3.313-.342-5.216-.342-1.76 0-3.494.202-5.156.597l-.21.026c-.41 0-.782-.281-.88-.695-.115-.487.185-.976.67-1.092 1.8-.427 3.677-.646 5.577-.646 1.987 0 3.777.119 5.471.359.495.07.837.529.769 1.024-.057.408-.474.854-1.024.769zm10.952 5.365c0 .95-.772 1.722-1.724 1.722s-1.724-.772-1.724-1.722c0-.952.772-1.724 1.724-1.724s1.724.772 1.724 1.724zm5.526 9.896c-1.186.891-2.115 1.66-3.518 2.521-1.109.678-2.402 1.012-3.543 1.632l-2.128 6.006h-6.835l-.193-3.609c-3.175.769-6.618.965-9.813.13l.244 3.439-7.522.011-3.16-8.491-.062-.2c-2.204-2.336-3.552-5.199-3.668-8.312-2.072.289-3.928-1.838-3.783-3.913.102-1.45 1.855-1.475 2.219.03.27 1.12.383 1.838 1.69 1.626 1.641-8.372 9.768-12.803 17.87-12.661h.002c2.795.051 5.739.329 8.397 1.254 1.188.391 2.4.784 3.518 1.352 3.135-2.74 7.192-3.577 11.131-2.238 0 0 .763 3.101-4.289 5.411 1.192.557 2.068 1.743 3.029 2.597 1.194 1.065 2.563 1.77 4.119 2.136.763.179 1.647.31 2.687.38v7.896c-2.2.874-4.476 1.562-6.391 3.003zm-17.853-38.661c-17.673 0-32 14.327-32 32 0 17.673 14.327 32 32 32 17.675 0 32-14.327 32-32 0-17.673-14.325-32-32-32z"/></svg>