<svg width="64" height="64" viewBox="0 0 64 64" xmlns="http://www.w3.org/2000/svg"><title>01004retirementF</title><path d="M46.67 29.629c-1.21 0-2.188-.981-2.188-2.186 0-1.212.978-2.192 2.188-2.192 1.21 0 2.19.981 2.19 2.192 0 1.205-.981 2.186-2.19 2.186zm-11.722-9.003c-2.037-.335-4.21-.432-6.625-.432-2.236 0-4.441.255-6.553.758l-.266.03c-.521 0-.994-.354-1.119-.883-.147-.618.235-1.238.853-1.385 2.285-.544 4.668-.821 7.085-.821 2.523 0 4.797.149 6.947.454.631.091 1.104.68.978 1.302-.136.68-.706 1.074-1.3.976zm25.639 5.059c-1.979-.464-3.715-1.361-5.231-2.713-1.223-1.089-2.335-2.594-3.849-3.303 6.419-2.933 5.447-6.873 5.447-6.873-5.003-1.702-10.156-.637-14.139 2.845-1.419-.724-2.959-1.223-4.469-1.719-3.376-1.173-7.117-1.527-10.668-1.592h-.002c-10.29-.179-20.615 5.447-22.701 16.083-1.659.272-1.804-.644-2.147-2.065-.46-1.912-2.689-1.879-2.817-.037-.186 2.635 2.173 5.335 4.804 4.97.151 3.955 1.862 7.595 4.661 10.56l.08.253 4.013 10.787 9.556-.015-.311-4.365c4.056 1.061 8.433.812 12.465-.166l.246 4.583h8.685l2.702-7.629c1.447-.788 3.091-1.212 4.499-2.076 1.782-1.093 2.964-2.069 4.469-3.201 2.432-1.83 5.324-2.704 8.119-3.815v-10.031c-1.322-.089-2.445-.255-3.413-.482z"/></svg>