<svg width="64" height="64" viewBox="0 0 64 64" xmlns="http://www.w3.org/2000/svg"><title>05038rewindL</title><path d="M37.223 22.114c.517.268 1.131.228 1.602-.101l18.927-13.13c.893-.666 1.734-.915 2.237-.675.563.283.915 1.245.915 2.513v41.772c0 1.205-.314 2.093-.841 2.374-.498.273-1.432.043-2.357-.572l-18.881-13.097c-.261-.182-.57-.275-.879-.275-.247 0-.496.06-.726.172-.513.271-.831.795-.831 1.377v10.021c0 1.205-.314 2.091-.836 2.371-.515.273-1.423.053-2.364-.57l-28.268-19.59c-1.257-1.152-1.902-2.431-1.811-3.6.072-.937.62-1.775 1.641-2.46l28.486-19.763c.896-.663 1.734-.915 2.237-.673.565.283.915 1.245.915 2.513v10.017c0 .58.319 1.107.834 1.377zm24.158-16.68c-.937-.469-2.893-.98-5.442.932l-16.448 11.411v-7.056c0-2.525-.956-4.453-2.628-5.286-1.602-.795-3.566-.477-5.439.932l-28.438 19.727c-1.77 1.183-2.824 2.879-2.968 4.774-.17 2.177.846 4.328 2.972 6.254l28.455 19.739c1.969 1.31 4 1.586 5.566.745.927-.498 2.479-1.825 2.479-5.111v-7.059l16.469 11.425c1.224.817 2.445 1.231 3.574 1.231.707 0 1.377-.16 1.995-.489.925-.496 2.477-1.818 2.477-5.109v-41.772c0-2.522-.956-4.45-2.625-5.286z"/></svg>