<svg width="64" height="64" viewBox="0 0 64 64" xmlns="http://www.w3.org/2000/svg"><title>05038rewindC</title><path d="M46.814 44.241c0 1.756-.817 2.458-1.306 2.718-.32.171-.67.256-1.041.256-.602 0-1.259-.224-1.926-.668l-10.231-7.106v4.8c0 1.756-.819 2.458-1.308 2.718-.32.171-.67.256-1.041.256-.602 0-1.259-.224-1.924-.668l-15.74-10.927c-1.058-.969-1.591-2.133-1.502-3.279.077-1.007.64-1.909 1.587-2.543l15.631-10.844c1.376-1.033 2.413-.77 2.91-.523.881.439 1.387 1.466 1.387 2.812v4.794l10.21-7.083c1.376-1.033 2.413-.77 2.91-.523.881.439 1.385 1.466 1.385 2.812v22.997zm-14.814-44.241c-17.764 0-32 14.362-32 32 0 17.638 14.236 32 32 32s32-14.236 32-32-14.236-32-32-32z"/></svg>