<svg width="64" height="64" viewBox="0 0 64 64" xmlns="http://www.w3.org/2000/svg"><title>05038rewindF</title><path d="M37.827 40.214c.442 0 .864.132 1.221.38l18.51 12.841c.761.505 1.266.564 1.447.564.416-.148.712-.709.712-1.82v-40.957c0-1.188-.338-1.801-.554-1.907-.308-.016-.784.035-1.538.604l-18.579 12.888c-.632.444-1.517.5-2.215.136-.709-.369-1.151-1.097-1.151-1.898v-9.824c0-1.186-.338-1.801-.552-1.907-.535.005-1.019.214-1.543.604l-27.949 19.389c-.606.409-1.273 1.038-1.341 1.947-.075.953.486 2.027 1.576 3.025l27.651 19.156c.531.35 1.064.559 1.447.559.416-.143.712-.705.712-1.815v-9.826c0-.801.442-1.529 1.151-1.9.315-.16.655-.24.996-.24zm21.171 18.076c-1.252 0-2.546-.439-3.851-1.31l-15.178-10.53v5.73c0 3.546-1.728 5.005-2.759 5.561-1.726.925-3.988.643-6.097-.761l-27.911-19.361c-2.297-2.071-3.361-4.356-3.182-6.691.16-2.053 1.292-3.882 3.189-5.15l27.871-19.335c2.001-1.503 4.185-1.848 5.965-.961 1.858.928 2.924 3.02 2.924 5.74v5.728l15.147-10.507c2.001-1.501 4.222-1.839 5.972-.958 1.853.928 2.917 3.02 2.917 5.737v40.957c0 3.551-1.728 5.007-2.759 5.559-.69.366-1.447.552-2.247.552z"/></svg>