<svg width="64" height="64" viewBox="0 0 64 64" xmlns="http://www.w3.org/2000/svg"><title>04012riderprtctnF</title><path d="M27.821 29.567c0 .877-.716 1.591-1.594 1.591-.883 0-1.594-.714-1.594-1.591 0-.883.711-1.596 1.594-1.596.877 0 1.594.714 1.594 1.596m31.25-7.405c-5.621-14.242-15.285-21.161-29.551-21.161-16.275 0-29.519 13.241-29.519 29.519 0 6.407 1.94 12.396 5.61 17.319.891 1.194 2.455 2.729 4.169 3.442 1.545.644 33.541 10.354 38.024 11.653.883.25 1.806.381 2.747.381 4.285 0 9.858-2.847 12.645-10.832 2.624-7.513-1.827-24.502-4.127-30.321m1.739 26.007c-.598.051-1.543-.005-2.922-.461-8.645-2.852-27.622-10.284-31.242-12.235-3.102-1.674-4.808-3.858-4.808-6.155 0-2.112 1.717-3.831 3.882-3.831l30.815-1.138c2.095 5.803 4.728 16.981 4.274 23.82"/></svg>