<svg width="64" height="64" viewBox="0 0 64 64" xmlns="http://www.w3.org/2000/svg"><title>04012riderprtctnC</title><path d="M27.697 30.833c-.549 0-.992-.445-.992-.992 0-.547.443-.989.992-.989.547 0 .992.443.992.989 0 .547-.445.992-.992.992zm-.316-3.526c-1.345 0-2.413 1.068-2.413 2.379 0 1.428 1.062 2.786 2.99 3.827 2.248 1.212 14.043 5.833 19.417 7.604.858.284 1.445.318 1.816.286.282-4.25-1.354-11.198-2.657-14.804l-19.152.708zm23.294 16.777c-1.733 4.964-5.195 6.733-7.861 6.733-.583 0-1.159-.081-1.706-.237-2.788-.805-22.673-6.842-23.633-7.242-1.066-.443-2.038-1.396-2.593-2.14-2.28-3.06-3.485-6.782-3.485-10.763 0-10.117 8.229-18.349 18.347-18.349 8.865 0 14.874 4.303 18.366 13.153 1.43 3.619 4.197 14.177 2.566 18.844zm-18.675-44.083c-17.673 0-32 14.327-32 32 0 17.673 14.327 32 32 32 17.673 0 32-14.327 32-32 0-17.673-14.327-32-32-32z"/></svg>