<svg width="64" height="64" viewBox="0 0 64 64" xmlns="http://www.w3.org/2000/svg"><title>07015ridernewsF</title><path d="M53.874 27.915c-1.296 0-2.896.338-3.693.665l-.445.17-.156.059-3.516-6.737c.622.395 1.355.627 2.07.627.384 0 .384-1.668.384-3.502 0-1.836.005-3.146-.384-3.146-1.675 0-3.436 1.271-3.695 2.91l-.147-.281-.023-.041c-.277-.454-.501-.854-.697-1.208-.856-1.543-1.373-2.474-3.689-2.429-.611.013-1.947.132-2.004.138l.002.004c-.37.041-.658.356-.658.735 0 .409.332.742.742.742.089 0 .177-.018.256-.046.399-.034 1.266-.105 1.691-.114 1.437-.027 1.584.234 2.388 1.68.2.361.427.769.711 1.237l5.284 10.119-.583.383c-1.646 1.099-3.223 3.198-3.925 5.22-.068.193-.181.572-.2.638-.338 1.664-.408 3.225-.206 4.635.136.951.39 1.827.778 2.674l.232.018c.164 0 .309-.029.44-.084.252-.109.454-.331.613-.674-.856-2.131-.921-4.485-.179-6.641.626-1.82 1.936-3.566 3.337-4.449l.009-.005c1.235-.778 1.258-.792 1.959-1.067l.215-.086c.937-.372 2.197-.604 3.291-.604 2.808 0 5.348 1.246 7.159 3.507.39.218.67.316.903.316.113 0 .225-.025.347-.073.141-.057.291-.148.452-.277-1.941-3.096-5.393-5.01-9.063-5.01zm8.793 5.91c-.179.064-.352.098-.529.098-.365 0-.742-.127-1.264-.424l-.068-.038-.05-.063c-1.686-2.127-4.058-3.298-6.68-3.298-1.017 0-2.186.213-3.053.558l-.215.086c-.644.254-.644.254-1.852 1.014l-.009.005c-1.283.808-2.49 2.422-3.069 4.111-.701 2.04-.629 4.269.204 6.28l.064.156-.064.156c-.218.52-.531.879-.93 1.074 1.687 3.151 5.01 5.296 8.836 5.296 5.529 0 10.012-4.483 10.012-10.014 0-1.82-.484-3.527-1.333-4.998zm-8.678 11.436c-3.55 0-6.439-2.889-6.439-6.439 0-2.217 1.126-4.174 2.835-5.332l2.508 4.748c-.07.154-.111.322-.111.501 0 .665.54 1.205 1.205 1.205s1.205-.54 1.205-1.205c0-.61-.454-1.112-1.04-1.19l-2.494-4.724c.722-.282 1.509-.438 2.331-.438 3.548 0 6.437 2.887 6.437 6.437 0 3.55-2.889 6.439-6.437 6.439zm-43.081 0c-3.55 0-6.439-2.889-6.439-6.439 0-3.55 2.889-6.437 6.439-6.437.458 0 .903.048 1.333.139l.009-.157c.05-.227.254-.393.486-.393l.107.013.016.004c-.098-.114-.143-.272-.109-.431.05-.227.254-.393.486-.393l.107.013.016.004c-.068-.08-.111-.182-.118-.291-.644-.175-1.312-.275-1.989-.299l-.302-.005c-2.184 0-4.229.833-5.759 2.345-1.443 1.426-2.331 3.337-2.501 5.377l-.027.302-.232.197c-.481.402-.983.608-1.493.608l-.027-.002c.306 5.255 4.664 9.422 9.996 9.422 4.168 0 7.742-2.547 9.249-6.17h-4.088c-1.174 1.573-3.049 2.595-5.161 2.595zm7.57-14.445c-.188-.179-.381-.35-.579-.517-.463-.384-.958-.733-1.48-1.039l-.404.658.059.059.052.068.014.029.013.027.03.073.011.034.005.025c.018.079.021.161.004.241-.048.227-.227.399-.452.442l-.089.007c.034.075.054.156.054.241 1.451.881 2.624 2.172 3.373 3.754l.933-.252.956-.256c-.088-.204-.184-.404-.282-.601l-.193-.365-.257-.442-.17-.266c-.168-.257-.347-.506-.536-.747-.318-.408-.665-.794-1.037-1.151l-.023-.023zm-7.279-3.042l-.279-.004c-5.936 0-10.711 4.621-10.92 10.539.275.22.552.345.824.372l.072.004.043.002c.125 0 .252-.02.379-.063.17-.054.343-.145.517-.273l.129-.102c.093-1.106.379-2.177.838-3.166.116-.247.241-.488.377-.724s.284-.467.44-.69c.315-.447.669-.867 1.062-1.255.416-.413.867-.778 1.348-1.096l.182-.116c.365-.227.745-.429 1.14-.601l.399-.163c1.006-.381 2.088-.581 3.201-.581l.327.005c.213.007.424.021.631.043.624.063 1.226.184 1.804.361-.034-.079-.048-.164-.043-.25v-.002l.013-.086.029-.095c.038-.091.097-.17.172-.229l.164-.093.193-.034.122.013.145.032.572-.928c-1.203-.499-2.511-.788-3.879-.822zm13.464-4.601c-.016 0-5.92.502-7.264.318-2.846-.39-2.154-.636-3.974-.965-1.451-.261-3.986.467-3.995.556-.231.168.034.433.189.545.232.164.99.593 1.716 1.121.726.529 2.047.958 3.141.958 1.094 0 8.233-.12 9.274-.195 1.039-.077 1.223-.143 1.403-.229.181-.084.552-.175.552-1.16 0-.795-.631-.983-1.042-.949zm17.609 13.632c-.007-.163-.025-.325-.054-.484-.038-.202-.093-.395-.166-.574-.195-.475-.515-.865-.947-1.162-.325-.222-.711-.388-1.149-.492l-.322-.064-.325-.041-.358-.014c.148.307.227.635.227.972 0 .32-.07.629-.202.922l.231.02.254.046c.379.089.888.286.915.947.023.563-.318 1.298-.869 1.872-.222.231-.475.434-.756.606l-.082.05-.138.079-.254.122c-.563.25-1.18.377-1.838.377-2.015 0-4.86.027-6.744.045l-.204.002-.96.009h-.168l-.946-.011h-12.775l-.166.034c-.366.009-.497.275-.499.502l-.002.663c-.002.39.279.551.431.636l.027.016c.061.036.13.054.202.054h12.747l.854.002.677-.002.799-.007c1.777-.016 4.208-.039 6.119-.045h.608c.815 0 1.598-.143 2.327-.424l.302-.125.164-.079.1-.048c.581-.297 1.099-.681 1.543-1.142.318-.331.593-.699.815-1.09.107-.189.202-.386.281-.581.218-.536.322-1.087.3-1.591zm.316-17.232l-.334.206-.254-.184-.27-.168c-.182-.105-.358-.191-.515-.259-.386-.168-1.167-.295-2.066-.379v-.15c0-.179-.145-.324-.324-.324h-1.873c-.179 0-.324.145-.324.324v.027c-.511-.004-.983.005-1.359.029-2.646.164-2.964.429-5.354 1.056-2.275.595-2.898 2.506-3.559 4.395-.016.046-.195.871-.558 1.31-.402.488-1.01.595-1.405.606-.011.002-3.747.157-3.757.157-.467 0-.874-.013-1.246-.036-.277.007-.967-.025-1.55-.048.084.111.143.238.168.374l.013.206c-.009.17-.064.332-.164.47-.084.118-.193.209-.322.273.856 1.278 1.972 3.044 2.588 4.036l.234.379c.309.424.59.867.838 1.326.147.223.273.413.377.552l.309.415.229.297.216.302v.002l-.365.097.014.032-.813.218-.828.223-1.06.284-.586.159-.261-.551c-.683-1.437-1.752-2.628-3.094-3.443l-.207-.127-.089-.011-.018-.004c.098.114.145.272.109.431-.043.197-.198.349-.399.386l-.088.007-.107-.011-.016-.004c.098.114.143.272.109.431-.043.197-.198.347-.395.383l-.066.007c1.162.686 2.093 1.727 2.638 2.973l-.658.177-.794.215c-.118-.232-.359-.379-.618-.379l-.179.023-.593.161-.99.266c-.229-.232-.497-.427-.794-.57l-.129.215.002.005c.095.518-.248 1.019-.769 1.115l-.175.016c-.461 0-.856-.329-.942-.783-.055-.3.039-.595.229-.81-1.344.247-2.363 1.425-2.363 2.839 0 1.594 1.292 2.887 2.887 2.887.96 0 1.811-.468 2.334-1.189.057-.586.484-1.021 1.071-1.09.102-.03.207-.045.316-.045h.304l.395-.105c.322-.088.529-.388.511-.708l.767-.206.685-.184c.027.238.041.479.041.724l-.02.479h3.584l.013-.479c0-.565-.048-1.121-.139-1.661l.109-.029 2.034-.545.009-.002c.173.524.416 1.042.753 1.409 1.137 1.232 3.207 1.246 3.228 1.246.32 0 7.851-.027 8.693-.082 1.677-.107 2.999-.94 3.92-2.438l-.234-.077-.182-.032-.193-.018-.386-.002c-.903 1.23-2.032 1.618-2.982 1.678-.815.054-8.56.08-8.637.08-.438 0-1.848-.177-2.57-.96-.375-.408-.62-1.165-.767-1.834l-.063-.402-.023-.197-.041-.495-.004-.059-.011-.197-.004-.098-.009-.358c-.005-.266-.004-.54.002-.817.014-.733.063-1.482.125-2.158l.052-.502c.029-.27.072-.547.127-.826.08-.406.193-.817.345-1.212.39-1.01 1.332-1.244 1.875-1.276.545-.034 2.082-.063 2.592.023.958.161 2.849.34 4.644.409 1.795.07 4.276-.073 6.678-.456.492-.077.899-.186 1.242-.32l.356-.164c.139-.073.266-.152.379-.236l.034-.043-2.032 7.152.284.057c.2.048.391.107.574.177l2.628-9.243c.44-.388.883-.719 1.237-1.005l-1.975-3.739zm-10.675 17.543c-.851-.567-1.319-1.337-1.319-2.17 0-.831.468-1.602 1.319-2.168.799-.534 1.855-.828 2.973-.828 1.117 0 2.174.293 2.973.828.395.263.706.57.928.906l.207-.018.02-.002.086-.383.002-.013.004-.014.007-.032.004-.013.004-.013 1.316-4.63c-.397-.624-1.073-.751-1.764-.726-.597.075-1.199.136-1.795.182l-5.69.593c-.602.048-.806.236-.851.568.141.701.297 1.493.365 1.866.072.402.147.817-.12 1.18-.266.363-.724.483-1.478.576-1.01.127-3.748.447-4.88.579l-.073.009.002.343.011.341v.023l.004.073.009.186.002.036.002.016.038.467.021.181.055.35c.154.697.372 1.251.588 1.485.509.552 1.67.724 2.034.724 1.58-.005 4.04-.018 5.933-.034-.338-.127-.652-.284-.933-.472zm-1.802-5.203l.064-.118.002-.005.007-.029.002-.009.005-.029.002-.009.004-.023.002-.023v-.09l-.002-.03v-.018l-.004-.032-.002-.02-.004-.034-.002-.018-.005-.036-.002-.013-.007-.048-.002-.013-.009-.048v-.002l-.02-.114c-.132-.738-.627-3.171-.627-3.171l-3.827-.004c-.499.045-.856.418-1.055.871-.073.234-.138.481-.189.742v.004c-.05.245-.089.502-.118.761l-.05.49c-.063.667-.104 1.348-.12 1.979.86-.1 3.016-.352 4.281-.504l.068-.009.073-.009.014-.002.284-.034.156-.02.111-.014.034-.005.07-.011.041-.005.055-.009.043-.007.048-.009.041-.007.043-.009.041-.009.038-.007.039-.009.034-.009.036-.011.03-.007.034-.011.027-.009.034-.011.023-.009.03-.013.02-.009.029-.013.018-.009.027-.014.014-.009.025-.016.013-.009.021-.016.011-.009.021-.018.007-.009.018-.021.004-.002zm4.774.443c-2.147 0-3.888 1.16-3.888 2.59 0 1.432 1.741 2.592 3.888 2.592s3.886-1.16 3.886-2.592c0-1.43-1.739-2.59-3.886-2.59zm-.045 3.891c-.685 0-1.242-.558-1.242-1.242 0-.685.558-1.241 1.242-1.241.685 0 1.241.556 1.241 1.241s-.556 1.242-1.241 1.242zm.962-1.242c0 .508-.411.919-.917.919-.508 0-.919-.411-.919-.919 0-.506.411-.917.919-.917.506 0 .917.411.917.917zm-22.063-4.322c-.055 0-.105.029-.138.072l-.034.066c-.02.095.039.188.134.209l1.228.266.177.038.038.005.032-.004c.059-.011.109-.054.13-.114l.007-.02c.021-.095-.039-.188-.134-.209l-1.405-.304-.036-.005zm-1.503 2.426l-.113.043-.057.095c-.021.095.039.188.134.207l1.405.306.038.004.03-.004.034-.011c.052-.021.093-.064.105-.123.02-.095-.039-.188-.134-.207l-1.405-.306-.038-.004zm-.501.808c-.08 0-.152.055-.17.138-.021.095.039.188.132.207l1.405.306.038.004.032-.002c.068-.013.123-.064.139-.136.02-.095-.039-.188-.134-.207l-1.405-.306-.038-.004zm-.463 1.609l-.275.459c-.299.063-.495.352-.44.652.05.272.288.461.552.461l.104-.009c.306-.057.506-.35.45-.656l-.041-.129.547-.921.055-.091.377.082.038.004.032-.002.025-.009c.055-.02.1-.064.114-.127.02-.095-.039-.188-.134-.207l-1.405-.306-.038-.004c-.08 0-.154.055-.172.138v.07c.013.068.064.123.134.138l.306.066-.038.066-.193.324zm3.041-2.708c.021-.095-.039-.188-.134-.207l-1.405-.306-.038-.004c-.08 0-.152.055-.17.138-.018.077.021.154.088.189l.109.032 1.342.291.038.004.03-.004c.068-.013.123-.063.139-.134zm.331-.67l.03-.004c.068-.013.125-.064.139-.134.021-.095-.039-.188-.134-.209l-1.405-.304-.038-.004c-.08 0-.152.055-.17.138-.021.093.039.186.134.207l1.405.306.038.004zm2.951-5.15c.061-.086.098-.189.104-.299l-.007-.13c-.02-.105-.068-.197-.132-.27l-.072-.068c-.059-.048-.13-.082-.206-.102l-.023-.007-.029-.004-.041-.007-.05-.004-.104.011c-.104.018-.195.064-.268.129l-.046.046-.043.054-.079.161-.023.181.007.077.002.007.025.089-1.913 3.11-.422-.091-.036-.005c-.08 0-.154.057-.172.138-.02.095.039.188.134.209l1.405.304.038.005.032-.004c.066-.013.123-.064.138-.136.021-.093-.039-.186-.134-.207l-.259-.055 1.784-2.901.034-.005.089-.025.007-.002c.105-.039.195-.111.259-.198z"/></svg>