<svg width="64" height="64" viewBox="0 0 64 64" xmlns="http://www.w3.org/2000/svg"><title>07015ridernewsC</title><path d="M31.995 0c-14.098 0-26.04 9.126-30.309 21.782 2.258-.126 4.537-.319 4.55-.319.489-.04 1.241.181 1.241 1.13 0 1.172-.445 1.281-.66 1.381-.215.102-.434.181-1.67.272-.509.036-2.245.083-4.201.123l-.181.7.677.019c.013 0 4.46-.185 4.473-.187.472-.015 1.194-.143 1.675-.723.432-.523.643-1.502.662-1.557.789-2.249 1.53-4.524 4.237-5.232 2.845-.747 3.224-1.062 6.373-1.257.447-.028 1.009-.04 1.617-.034v-.034c0-.213.172-.385.385-.385h2.232c.211 0 .383.172.383.385v.181c1.073.1 2 .251 2.46.451.187.081.396.183.613.309l.321.198.302.221.398-.245 2.351 4.451c-.421.34-.949.734-1.473 1.194l-3.126 11.005c-.219-.083-.447-.153-.685-.211l-.338-.07 2.42-8.511-.038.051c-.136.1-.287.194-.451.281l-.426.196c-.409.16-.892.287-1.479.381-2.86.455-5.814.626-7.95.543-2.137-.083-4.388-.298-5.526-.487-.609-.102-2.439-.068-3.086-.03-.649.04-1.771.319-2.234 1.521-.181.47-.313.96-.411 1.443-.066.332-.115.662-.151.983l-.062.596c-.074.806-.132 1.698-.149 2.568-.006.33-.009.657-.002.975l.011.426.006.117.011.234.004.068.049.592.028.234.077.479c.172.796.464 1.698.911 2.183.86.932 2.541 1.143 3.06 1.143.092 0 9.312-.034 10.283-.096 1.13-.074 2.475-.534 3.552-1.998l.458.002.23.019.217.04.281.089c-1.098 1.785-2.673 2.777-4.669 2.904-1 .066-9.968.098-10.349.098-.026 0-2.49-.017-3.841-1.485-.402-.434-.689-1.051-.898-1.677l-.011.004-2.422.647-.128.034c.106.645.164 1.304.164 1.979l-.015.57h-.555c.081.287.136.583.226.866h8.08c.006 0 .626.015 1.124.015l.2-.002 1.143-.009.245-.004c2.241-.019 5.629-.051 8.027-.051.783 0 1.519-.151 2.188-.449l.302-.145.164-.094.098-.06c.334-.204.636-.449.9-.723.655-.683 1.062-1.555 1.034-2.226-.032-.789-.636-1.021-1.09-1.128l-.302-.055-.275-.023c.157-.349.24-.717.24-1.098 0-.402-.094-.792-.27-1.157l.426.017.387.049.383.077c.521.123.981.321 1.368.585.517.351.896.817 1.128 1.383.087.213.153.443.198.683.034.189.057.383.064.577.026.6-.098 1.253-.358 1.892-.094.234-.206.468-.334.694-.264.466-.589.902-.97 1.298-.528.549-1.145 1.006-1.834 1.357l-.119.06-.198.094-.36.149c-.868.334-1.8.504-2.771.504h-.724c-2.275.006-5.169.032-7.282.051l-.953.011-.807.002-1.017-.002h-7.205c4.701 11.828 16.226 20.203 29.73 20.203 17.675 0 32.005-14.326 32.005-31.999 0-17.675-14.33-32.001-32.005-32.001zm-26.224 30.593l.06-.581c.034-.311.081-.615.14-.909v-.004c.062-.309.138-.602.228-.881.236-.54.66-.983 1.253-1.036l4.556.004s.589 2.896.747 3.775l.023.136.011.064.002.011.009.049.002.015.006.057.002.015.006.049v.015l.004.045.002.015v.034l.002.074-.002.034-.002.017-.004.036-.002.011-.004.032-.004.015-.009.03-.002.011-.077.14-.002.002-.023.026-.009.009-.026.021-.013.011-.026.021-.015.011-.028.017-.019.013-.03.015-.023.013-.032.015-.026.011-.036.015-.028.011-.038.013-.032.011-.043.013-.036.009-.043.013-.04.009-.047.013-.045.009-.047.011-.051.009-.051.011-.057.011-.049.009-.068.011-.049.006-.081.013-.043.004-.132.019-.183.021-.34.043-.017.002-.087.011-.081.011c-1.505.181-4.071.481-5.094.6.017-.751.066-1.564.14-2.358zm12.632 7.968c-2.556 0-4.626-1.381-4.626-3.085s2.071-3.085 4.626-3.085c2.556 0 4.628 1.381 4.628 3.085s-2.073 3.085-4.628 3.085zm5.039-5.166l-.004.015-.002.015-.011.038-.004.015-.002.017-.102.455h-.023v.002l-.247.021c-.264-.4-.634-.766-1.104-1.081-.951-.634-2.209-.983-3.539-.983s-2.588.349-3.539.983c-1.013.677-1.57 1.594-1.57 2.583 0 .992.558 1.906 1.57 2.583.336.223.711.411 1.111.562-2.254.019-5.182.034-7.063.04-.434 0-1.815-.204-2.422-.862-.255-.279-.517-.938-.7-1.768l-.066-.417-.023-.215-.047-.555-.002-.019-.002-.043-.011-.223-.004-.087v-.026l-.011-.406-.004-.409.087-.011c1.347-.157 4.607-.538 5.809-.689.898-.113 1.443-.255 1.76-.685.317-.432.23-.926.143-1.404-.079-.445-.266-1.387-.432-2.221.051-.396.294-.619 1.011-.679.564-.057 4.592-.477 6.776-.704.709-.057 1.424-.13 2.134-.217.824-.03 1.628.121 2.102.864l-1.568 5.511zm6.278 11.743l-.277-.021c-.46-1.009-.764-2.051-.926-3.183-.24-1.679-.157-3.536.245-5.517.023-.079.157-.53.238-.76.836-2.406 2.713-4.904 4.673-6.215l.694-.455-6.29-12.043c-.338-.557-.609-1.043-.847-1.472-.958-1.723-1.13-2.034-2.843-2-.506.011-1.536.094-2.011.134-.096.036-.198.057-.306.057-.487 0-.881-.396-.881-.883 0-.453.34-.826.781-.874v-.004c.066-.006 1.656-.151 2.383-.164 2.758-.053 3.373 1.055 4.394 2.892.234.421.498.898.828 1.436l.028.051.174.334.043-.153.098-.351.145-.377.168-.323.228-.34.226-.289.298-.302.27-.243.362-.26.294-.191c.138-.079.283-.143.428-.206l.296-.134c.166-.062.336-.104.509-.147l.255-.068c.26-.051.521-.079.781-.079.464 0 .458 1.56.458 3.743 0 2.185 0 4.168-.458 4.168-.381 0-.764-.072-1.141-.177l-.238-.068c-.364-.121-.717-.279-1.047-.481l-.038-.019 4.188 8.019.183-.07.53-.204c.949-.387 2.854-.789 4.396-.789 4.369 0 8.48 2.279 10.789 5.962-.192.155-.368.264-.538.332-.145.057-.279.085-.411.085-.279 0-.613-.115-1.077-.374-2.156-2.694-5.18-4.175-8.523-4.175-1.3 0-2.803.274-3.918.719l-.255.1c-.832.328-.862.347-2.332 1.272l-.011.006c-1.668 1.051-3.228 3.128-3.973 5.296-.881 2.566-.807 5.368.213 7.905-.189.409-.428.67-.73.8-.155.068-.328.102-.523.102zm11.425 6.873c-4.554 0-8.51-2.553-10.517-6.304.472-.232.845-.66 1.104-1.279l.077-.185-.077-.185c-.992-2.394-1.077-5.049-.243-7.477.692-2.009 2.126-3.93 3.654-4.892l.013-.006c1.436-.906 1.436-.906 2.202-1.209l.257-.1c1.03-.411 2.422-.664 3.633-.664 3.122 0 5.946 1.394 7.952 3.926l.06.074.081.045c.621.353 1.07.504 1.507.504.209 0 .415-.04.628-.117 1.011 1.751 1.59 3.783 1.59 5.949 0 6.583-5.337 11.92-11.921 11.92zm-39.075-16.335l.966-.262-.015-.036.434-.117-.002-.002-.257-.357-.272-.353-.368-.494c-.121-.166-.275-.392-.449-.657-.296-.549-.63-1.075-.996-1.579l-.281-.451-.747-1.192c-.032.545-.079 1.083-.083 1.636l.132.147c.226.287.438.583.638.887l.202.319.306.526.23.434c.117.234.232.47.336.713l-.987.266-.151.04-.547.147.13.864.794-.215.987-.264zm16.279-1.609c-.815 0-1.479.664-1.479 1.479 0 .815.664 1.479 1.479 1.479.815 0 1.477-.664 1.477-1.479 0-.815-.662-1.479-1.477-1.479zm.053 2.57c-.602 0-1.092-.489-1.092-1.092 0-.604.489-1.092 1.092-1.092.604 0 1.092.487 1.092 1.092 0 .602-.487 1.092-1.092 1.092zm22.742-4.209c-.979 0-1.915.185-2.775.521l2.969 5.621c.7.096 1.239.694 1.239 1.419 0 .792-.643 1.434-1.434 1.434-.792 0-1.432-.643-1.432-1.434 0-.213.047-.415.13-.596l-2.986-5.651c-2.034 1.379-3.375 3.709-3.375 6.347 0 4.226 3.439 7.662 7.665 7.662s7.663-3.436 7.663-7.662-3.437-7.662-7.663-7.662z"/></svg>