<svg width="64" height="64" viewBox="0 0 64 64" xmlns="http://www.w3.org/2000/svg"><title>04012riderprtctnL</title><path d="M61.063 48.242l-.008.116-.116.011-.385.016c-.754 0-1.63-.164-2.603-.488-8.678-2.861-27.748-10.333-31.394-12.294-3.158-1.705-4.898-3.944-4.898-6.302 0-2.196 1.808-3.979 4.033-3.979l31.038-1.148.032.094c2.067 5.72 4.766 16.942 4.3 23.974zm-.558 3.225l-.027.102c-2.279 6.528-6.585 8.856-9.85 8.856-.657 0-1.301-.092-1.918-.267-5.203-1.506-36.37-10.987-37.86-11.583-1.091-.458-2.261-1.576-2.934-2.481-3.292-4.416-5.033-9.804-5.033-15.584 0-14.684 11.944-26.63 26.628-26.63 12.448 0 20.706 5.486 25.984 17.27l.084.181-.199.008-29.737 1.099c-3.788 0-6.868 3.08-6.868 6.862 0 3.465 2.279 6.604 6.418 8.837 4.09 2.209 23.551 9.756 31.854 12.496 1.191.393 2.285.598 3.344.617l.172.003-.057.213zm-34.304-23.516c-.886 0-1.6.714-1.6 1.6 0 .884.714 1.6 1.6 1.6.884 0 1.6-.717 1.6-1.6 0-.886-.717-1.6-1.6-1.6zm32.854-5.785c-5.618-14.242-15.282-21.166-29.545-21.166-16.271 0-29.51 13.24-29.51 29.51 0 6.404 1.94 12.391 5.607 17.308.884 1.185 2.433 2.708 4.133 3.419 1.565.647 33.673 10.392 38.167 11.69.876.251 1.792.377 2.721.377 4.257 0 9.794-2.834 12.569-10.788 2.627-7.514-1.838-24.523-4.141-30.351z"/></svg>