<svg width="64" height="64" viewBox="0 0 64 64" xmlns="http://www.w3.org/2000/svg"><title>03016roadsideasstF</title><path d="M53.298 46.836c-1.587 0-2.911-1.102-3.275-2.576-.064-.259-.109-.528-.109-.809 0-1.865 1.519-3.383 3.385-3.383 1.865 0 3.383 1.517 3.383 3.383 0 .271-.039.528-.1.78-.353 1.489-1.687 2.604-3.283 2.604zm-6.205-13.875h-9.23c-1.465 0-2.253-.788-2.253-1.912 0-1.126.12-1.235.226-2.253.103-1.008.338-2.138 1.126-2.138h7.781c1.237 0 1.617.777 2.27 1.967 0 0 .805 1.42 1.497 2.647.543.966-.29 1.689-1.416 1.689zm-17.019.498h-7.839v-2.963c0-.293-.124-.573-.34-.769l-11.37-10.266 19.549 8.411v5.588zm-10.468 13.376c-1.521 0-2.794-1.015-3.221-2.397-.096-.314-.164-.641-.164-.987 0-1.865 1.519-3.383 3.385-3.383 1.865 0 3.383 1.517 3.383 3.383 0 .293-.049.573-.118.844-.378 1.457-1.692 2.54-3.264 2.54zm-14.516-29.523v11.447c-.511.353-.869.914-.869 1.581 0 .669.357 1.23.869 1.581v1.177c0 .903-.733 1.634-1.634 1.634-.632 0-1.215-.37-1.484-.942-.244-.519-.859-.741-1.378-.496-.517.243-.741.861-.496 1.378.609 1.296 1.927 2.132 3.358 2.132 2.044 0 3.704-1.662 3.704-3.706v-1.111c.568-.34.966-.936.966-1.647s-.399-1.305-.966-1.647v-9.48l13.004 11.742v2.503h-7.909c-1.547 0-2.239.912-2.239 1.818 0 0 .009 1.354.009 2.144 0 .212-.154.397-.404.683-.31.353-.696.792-.696 1.463v2.023c0 1.929 1.055 2.866 3.225 2.866h2.102c.474 2.529 2.689 4.451 5.353 4.451 2.728 0 4.975-2.019 5.372-4.639l.664-.002h22.284c.397 2.619 2.642 4.641 5.372 4.641 2.741 0 4.996-2.04 5.376-4.678l.731-.002h1.288c1.578 0 3.275-.865 3.275-2.76l.03-1.529c.015-.79-.196-1.916-.575-2.433-.214-.288-.466-1.164-.485-1.954-.024-.995-.801-1.961-1.769-2.2l-8.322-2.055c-.688-.171-1.579-.827-1.948-1.433l-2.71-4.477c-.495-.814-1.626-1.452-2.58-1.452h-9.779c-1.013 0-1.91.822-1.999 1.831l-.517 5.959c-.124.66-.594 1.16-1.17 1.391v-5.927c0-.414-.244-.788-.626-.951l-25.92-11.152c-.47-.201-1.008-.034-1.282.391-.273.427-.197.989.179 1.329l.596.508z"/></svg>