<svg width="64" height="64" viewBox="0 0 64 64" xmlns="http://www.w3.org/2000/svg"><title>03016roadsideasstL</title><path d="M6.29 18.327l-.089 10.574c-.507.325-.862.868-.862 1.515 0 .645.356 1.188.862 1.513v1.07c0 .871-.708 1.579-1.579 1.579-.61 0-1.173-.357-1.433-.91-.217-.462-.766-.66-1.227-.443-.46.217-.66.766-.443 1.227.564 1.196 1.781 1.97 3.102 1.97 1.888 0 3.422-1.534 3.422-3.422v-1.008c.56-.313.955-.889.955-1.575 0-.688-.395-1.264-.955-1.577v-8.956l12.277 11.086v1.819h-6.772c-1.817 0-2.644 1.166-2.644 2.254l.012 1.964c-.023.062-.158.217-.247.318-.315.357-.788.898-.788 1.732v1.895c0 1.474.619 3.232 3.568 3.232h2.114l.782-.004c.512 2.132 2.423 3.726 4.709 3.726 2.35 0 4.313-1.68 4.757-3.9l.204-.002 21.388-.023c.436 2.233 2.404 3.925 4.761 3.925 2.363 0 4.331-1.698 4.761-3.936l1.993-.002c2.128 0 3.614-1.291 3.614-3.122l.03-1.5c.016-.807-.201-1.941-.649-2.546-.112-.155-.331-.825-.348-1.584-.028-1.129-.908-2.228-2.005-2.498l-7.927-1.959c-.466-.114-1.138-.61-1.387-1.019l-2.61-4.309c-.54-.894-1.735-1.566-2.779-1.566h-9.3c-1.189 0-2.24.964-2.343 2.148l-.484 5.559c-.146.748-.702 1.109-1.289 1.157v-5.268c0-.368-.219-.7-.558-.846l-24.281-10.446c-.416-.178-.896-.03-1.14.348-.244.379-.176.88.158 1.182l.663.628zm54.404 22.5c0 1.262-1.589 1.298-1.771 1.298l-1.993.004c-.434-2.236-2.4-3.931-4.761-3.931-2.363 0-4.332 1.7-4.761 3.94l-21.388.025h-.197c-.42-2.252-2.393-3.964-4.764-3.964-2.43 0-4.432 1.803-4.78 4.139l-.711.004h-2.114c-1.476 0-1.724-.428-1.724-1.388v-1.895c0-.128.1-.254.329-.516.295-.336.7-.798.7-1.495l-.009-2.009c0-.386.668-.405.802-.405h17.365c1.691 0 3.285-.782 3.579-2.476l.562-5.982c.021-.244.263-.466.507-.466h9.3c.4 0 .994.336 1.202.679l2.61 4.309c.5.825 1.582 1.621 2.521 1.854l7.927 1.959c.297.073.597.446.608.88.02.795.267 1.909.706 2.505.108.151.3.805.288 1.417l-.03 1.516zm-38.832-10.951l-10.868-9.815 18.61 8.009v4.718h-7.44v-2.228c0-.261-.11-.51-.302-.684zm2.208 13.177c0 1.66-1.351 3.012-3.012 3.012-1.66 0-3.012-1.351-3.012-3.012 0-1.66 1.351-3.012 3.012-3.012 1.66 0 3.012 1.351 3.012 3.012zm31.111 0c0 1.66-1.351 3.012-3.012 3.012-1.66 0-3.012-1.351-3.012-3.012 0-1.66 1.351-3.012 3.012-3.012 1.66 0 3.012 1.351 3.012 3.012zm-9.628-14.073c-.537-.976-.846-1.614-1.863-1.614h-6.388c-.647 0-.839.928-.924 1.756-.085.836-.185.924-.185 1.847 0 .924.647 1.572 1.849 1.572h7.579c.924 0 1.607-.594 1.161-1.387-.567-1.008-1.228-2.174-1.228-2.174z"/></svg>