<svg width="64" height="64" viewBox="0 0 64 64" xmlns="http://www.w3.org/2000/svg"><title>03016roadsideasstC</title><path d="M17.36 12.164c-.47-.422-.566-1.126-.222-1.662.346-.53 1.014-.74 1.604-.488l33.644 14.454c.474.204.782.674.782 1.19v7.406c.822-.178 1.606-.61 1.814-1.626l.68-7.818c.148-1.696 1.596-3.02 3.294-3.02h2.032c-4.496-10.974-15.27-18.712-27.864-18.712-16.63 0-30.112 13.482-30.112 30.112s13.482 30.112 30.112 30.112c10.358 0 19.488-5.232 24.908-13.192h-13.446c-.25 3.366-3.04 6.038-6.472 6.038-3.344 0-6.076-2.54-6.446-5.788h-3.804c-4.146 0-5.018-2.47-5.018-4.542v-2.664c0-1.176.666-1.934 1.108-2.436.124-.144.316-.362.348-.446l-.018-2.764c0-1.532 1.162-3.168 3.718-3.168h9.522v-2.562l-16.766-15.352v12.596c.79.44 1.342 1.25 1.342 2.218 0 .964-.552 1.774-1.342 2.214v1.418c0 2.654-2.158 4.814-4.808 4.814-1.86 0-3.57-1.088-4.364-2.772-.304-.648-.028-1.418.622-1.724.648-.306 1.418-.028 1.722.622.366.778 1.158 1.284 2.02 1.284 1.224 0 2.216-.998 2.216-2.224v-1.504c-.712-.458-1.21-1.22-1.21-2.128 0-.91.498-1.67 1.21-2.128v-15l-.806-.758zm20.754 32.154c-2.27 0-4.12 1.848-4.12 4.12 0 .25.032.492.074.73.348 1.924 2.026 3.39 4.046 3.39 2.114 0 3.84-1.604 4.074-3.654.018-.156.048-.306.048-.466 0-2.272-1.85-4.12-4.122-4.12zm1.574-15.268c.272.248.428.598.428.964v3.136h10.46v-6.638l-26.17-11.262 15.282 13.8z"/></svg>