<svg width="64" height="64" viewBox="0 0 64 64" xmlns="http://www.w3.org/2000/svg"><title>04015safedrvbonusL</title><path d="M13.702 33.029h1.346v-2.441h-1.346v2.441zm-2.656 0h1.346v-2.441h-1.346v2.441zm-7.894-6.993h24.36v-1.346h-24.36v1.346zm56.086 8.976l.002 2.381h-6.774l-.002-2.381h6.774zm1.35 3.727l-.006-5.073h-9.466l.004 5.073h9.468zm-37.736-9.031h39.141v17.081h-39.129l-.011-17.081zm-2.008-2.008l.015 21.095h43.141v-21.095h-43.156zm24.967 18.084h15.203v-1.346h-15.203v1.346zm-21.817-7.045h24.36v-1.346h-24.36v1.346zm-21.986-21.734h39.141v9.374h2.008v-11.38h-43.156l.015 21.095h18.977v-2.008h-16.971l-.013-17.081zm36.386 5.303l.002 2.381h-6.774l-.002-2.381h6.774zm-22.032 10.72h1.346v-2.441h-1.346v2.441zm-7.975 0h1.346v-2.441h-1.346v2.441zm-2.658 0h1.346v-2.441h-1.346v2.441zm-2.658 0h1.346v-2.441h-1.346v2.441zm34.133 12.701h1.346v-2.441h-1.346v2.441zm-2.658 0h1.346v-2.441h-1.346v2.441zm-2.658 0h1.346v-2.441h-1.346v2.441zm-2.656 0h1.346v-2.441h-1.346v2.441zm-2.66 0h1.346v-2.441h-1.346v2.441zm-2.656 0h1.346v-2.441h-1.346v2.441zm6.361-19.694h9.466l-.004-5.073h-9.466l.004 5.073z"/></svg>