<svg width="64" height="64" viewBox="0 0 64 64" xmlns="http://www.w3.org/2000/svg"><title>04015safedrvbonusC</title><path d="M23.684 44.014l-.013-15.774h32.805v15.774h-32.792zm-1.585-9.988h-14.819l-.011-15.774h32.805v8.655l-17.976.011v7.109zm11.897 7.878h1.04v-1.884h-1.04v1.884zm-6.157 0h1.04v-1.884h-1.04v1.884zm-2.009.015h1.04v-1.886h-1.04v1.886zm6.113-.015h1.04v-1.884h-1.04v1.884zm-2.053 0h1.04v-1.884h-1.04v1.884zm12.8.04h11.736v-1.038h-11.736v1.038zm-16.84-5.439h18.804v-1.04h-18.804v1.04zm10.198 5.399h1.04v-1.884h-1.04v1.884zm-22.559-9.99h1.04v-1.886h-1.04v1.886zm-4.104 0h1.04v-1.886h-1.04v1.886zm6.157 0h1.04v-1.886h-1.04v1.886zm-4.104 0h1.04v-1.886h-1.04v1.886zm6.155 0h1.04v-1.886h-1.04v1.886zm13.834-6.846l-.002-1.837h5.229v1.837h-5.227zm-1.042-2.877l.002 3.918h7.308l-.002-3.918h-7.308zm-20.936 3.807h18.804v-1.04h-18.804v1.04zm10.198 5.916h1.04v-1.886h-1.04v1.886zm12.355-31.913c-17.673 0-32 14.327-32 32 0 17.673 14.327 32 32 32 17.673 0 32-14.327 32-32 0-17.673-14.327-32-32-32zm21.054 33.627l.002 1.839h-5.229l-.002-1.839h5.229zm1.042 2.877l-.004-3.916h-7.308l.004 3.916h7.308z"/></svg>