<svg width="64" height="64" viewBox="0 0 64 64" xmlns="http://www.w3.org/2000/svg"><title>04015safedrvbonusF</title><path d="M46.069 45.816h15.264v-1.352h-15.264v1.352zm-8.639-.055h1.352v-2.451h-1.352v2.451zm-2.669 0h1.352v-2.451h-1.352v2.451zm-2.669 0h1.352v-2.451h-1.352v2.451zm-2.669 0h1.352v-2.451h-1.352v2.451zm-2.669 0h1.352v-2.451h-1.352v2.451zm-2.614.019h1.352v-2.451h-1.352v2.451zm.027-7.038h24.458v-1.352h-24.458v1.352zm36.735-5.096l.004 5.096h-9.504l-.006-5.096h9.506zm-29.485-12.171l.002 2.391h6.801l-.002-2.391h-6.801zm28.136 15.915l-.002-2.391h-6.801l.002 2.391h6.801zm-29.485-12.171l-.004-5.096h9.504l.004 5.096h-9.504zm-27.233-.146h24.458v-1.352h-24.458v1.352zm13.261 7.696h1.352v-2.451h-1.352v2.451zm-2.669 0h1.352v-2.451h-1.352v2.451zm-2.669 0h1.352v-2.451h-1.352v2.451zm-2.669 0h1.352v-2.451h-1.352v2.451zm-2.669 0h1.352v-2.451h-1.352v2.451zm-2.669 0h1.352v-2.451h-1.352v2.451zm39.917-17.77h-42.667l.015 20.517h19.275v-9.245l23.377-.013v-11.259zm-21.335 12.991l.015 20.517h42.652v-20.517h-42.667z"/></svg>