<svg width="64" height="64" viewBox="0 0 64 64" xmlns="http://www.w3.org/2000/svg"><title>05021saveL</title><path d="M0 1.301c0-.588.291-1.07.877-1.07h1.715c.588 0 1.263.481 1.263 1.07v55.603c0 1.789 1.646 3.242 3.432 3.242h49.817c1.789 0 3.052-1.453 3.052-3.242v-49.812c0-1.786-1.646-3.242-3.435-3.242h-19.792c-1.789 0-3.236 1.456-3.236 3.242v31.963l14.687-14.687c.47-.464 1.224-.464 1.694 0l1.049 1.052c.229.226.354.526.354.85-.003.318-.128.618-.354.841l-18.556 18.556c-.235.232-.538.348-.847.348-.306 0-.612-.116-.847-.348l-18.351-18.348c-.223-.223-.348-.52-.351-.841 0-.321.125-.624.351-.85l1.052-1.049c.47-.467 1.224-.467 1.694 0l14.562 14.557v-32.043c0-3.91 3.189-7.093 7.1-7.093h19.792c3.911 0 7.284 3.182 7.284 7.093v49.812c0 3.913-2.99 7.096-6.901 7.096h-49.817c-3.911 0-7.287-3.182-7.287-7.096v-55.603"/></svg>