<svg width="64" height="64" viewBox="0 0 64 64" xmlns="http://www.w3.org/2000/svg"><title>05021saveC</title><path d="M48.633 33.354v11.972c0 1.76-1.428 3.186-3.188 3.186h-26.769c-1.76 0-3.186-1.426-3.186-3.186v-29.152c0-.351.285-.635.635-.635h1.702c.353 0 .638.285.638.635v28.108c0 .693.561 1.254 1.254 1.254h24.682c.693 0 1.256-.561 1.256-1.254v-24.561c0-.691-.561-1.254-1.256-1.254h-9.622c-.693 0-1.254.563-1.254 1.254v15.012l6.009-6.011c.491-.489.865-.489 1.356 0l.75.75c.491.491.489.865-.002 1.354l-8.791 8.791c-.489.491-1.282.491-1.773 0l-8.901-8.901c-.489-.489-.491-.861 0-1.352l.75-.75c.491-.491.865-.491 1.354 0l6.272 6.272v-16.206c0-1.76 1.426-3.188 3.188-3.188h11.707c1.76 0 3.188 1.428 3.188 3.188v14.674zm-16.633-33.354c-17.673 0-32 14.325-32 32 0 17.673 14.327 32 32 32 17.673 0 32-14.327 32-32 0-17.675-14.327-32-32-32z"/></svg>