<svg width="64" height="64" viewBox="0 0 64 64" xmlns="http://www.w3.org/2000/svg"><title>05021saveF</title><path d="M57.845 0h-22.606c-3.399 0-6.154 2.755-6.154 6.154v31.294l-12.115-12.112c-.942-.945-1.666-.945-2.611 0l-1.451 1.448c-.945.948-.945 1.669 0 2.614l17.188 17.185c.945.948 2.479.948 3.424.003l16.976-16.976c.945-.945.948-1.669 0-2.614l-1.448-1.451c-.945-.945-1.669-.945-2.614.003l-11.603 11.603v-28.984c0-1.336 1.083-2.422 2.422-2.422h18.579c1.339 0 2.422 1.086 2.422 2.422v47.425c0 1.339-1.083 2.422-2.422 2.422h-47.663c-1.339 0-2.422-1.083-2.422-2.422v-54.277c0-.678-.549-1.227-1.23-1.227h-3.287c-.681 0-1.23.549-1.23 1.227v56.291c0 3.399 2.755 6.154 6.154 6.154h51.691c3.399 0 6.154-2.755 6.154-6.154v-51.453c0-3.399-2.755-6.154-6.154-6.154"/></svg>