<svg width="64" height="64" viewBox="0 0 64 64" xmlns="http://www.w3.org/2000/svg"><title>05021saveS</title><path d="M61 0h-30c-1.65 0-3 1.35-3 3v30.657l-8.021-8.021c-1.167-1.167-3.076-1.167-4.242 0l-1.415 1.414c-1.166 1.167-1.166 3.076 0 4.243l15.557 15.556c1.166 1.167 3.076 1.167 4.242 0l15.557-15.556c1.166-1.167 1.166-3.076 0-4.243l-1.415-1.414c-1.166-1.167-3.076-1.167-4.242 0l-8.021 8.021v-25.657h20v48h-48v-53c0-1.65-1.35-3-3-3h-2c-1.65 0-3 1.35-3 3v58c0 1.65 1.35 3 3 3h58c1.65 0 3-1.35 3-3v-58c0-1.65-1.35-3-3-3"/></svg>