<svg width="64" height="64" viewBox="0 0 64 64" xmlns="http://www.w3.org/2000/svg"><title>08014schoolF</title><path d="M63.4,28.7c0.4,0.2,0.6,0.5,0.6,0.9c0,0.4-0.2,0.8-0.6,0.9L59,32.8v5.3c0.2,0.2,0.4,0.4,0.4,0.8l0.7,10.2 c0,0.3-0.1,0.6-0.3,0.8c-0.2,0.2-0.5,0.3-0.8,0.3h-3.8c-0.3,0-0.6-0.1-0.8-0.3c-0.2-0.2-0.3-0.5-0.3-0.8l0.8-10.2 c0-0.3,0.2-0.6,0.4-0.7v-3.5l-4.1,2.1c-0.1,0.1-0.3,0.1-0.4,0.1v-4.3c0-0.9-0.6-1.7-1.4-2C44,28.4,38.1,27.3,32,27.3 c-6.1,0-12,1.1-17.6,3.3c0,0-0.1,0-0.1,0c-0.8,0.3-1.3,1.1-1.3,1.9v4c-0.1,0.1-0.3,0.1-0.4,0.1c-0.2,0-0.3,0-0.5-0.1l-11.6-6 C0.2,30.4,0,30,0,29.6c0-0.4,0.2-0.7,0.6-0.9l31-14.6C31.7,14,31.8,14,32,14c0.2,0,0.3,0,0.4,0.1L63.4,28.7z M46.9,34v8.3H17.1V34 c4.7-1.7,9.7-2.5,14.8-2.5C37.2,31.5,42.1,32.3,46.9,34z"/></svg>