<svg width="64" height="64" viewBox="0 0 64 64" xmlns="http://www.w3.org/2000/svg"><title>01031scooterC</title><path d="M44.769 46.839c-.203.126-.427.186-.646.186-.412 0-.813-.207-1.045-.582l-1.907-3.07c-.538.666-.873 1.5-.873 2.421 0 2.14 1.734 3.876 3.874 3.876 2.142 0 3.876-1.737 3.876-3.876 0-2.14-1.734-3.876-3.876-3.876-.322 0-.631.053-.932.128l1.926 3.1c.356.578.179 1.335-.397 1.694m-22.758-22.763c-.224-.578-.659-1.033-1.231-1.282-.567-.247-1.193-.258-1.751-.034-5.865 2.276-11.509-.38-11.52-.38-1.069-.672-2.492-.358-3.172.704-.687 1.071-.373 2.498.717 3.196l.454.256c2.874 1.316 4.147 1.329 6.458 1.348l.555.006h.164c2.793 0 7.543-.841 8.081-1.007.521-.164.939-.523 1.175-1.011.314-.649.241-1.355.07-1.796m41.986 7.923c0 17.675-14.327 32-32 32-10.234 0-19.311-4.826-25.161-12.303 2.381-.911 4.085-3.204 4.085-5.903 0-3.492-2.842-6.334-6.334-6.334-1.263 0-2.436.382-3.424 1.022-.245-.896-.454-1.807-.623-2.731 1.34-.905 2.953-1.431 4.685-1.431 4.636 0 8.407 3.772 8.407 8.407 0 .361-.03.71-.075 1.058l.015.023c0 .678.55 1.229 1.229 1.229l19.565.006c.303 0 .61-.126.836-.329.247-.222.395-.533.405-.866.098-2.496.713-4.045 1.939-4.879.361-.245.809-.41 1.269-.525l.478-.092.531.855c-1.218 1.156-1.988 2.778-1.988 4.585 0 3.492 2.842 6.334 6.334 6.334 3.494 0 6.334-2.842 6.334-6.334 0-2.144-1.077-4.038-2.714-5.184l.557.145c.828.173 1.5.335 1.76.401.45.105.915-.049 1.212-.397.299-.348.378-.832.209-1.257-.277-.689-1.803-4.198-4.806-5.7-1.918-.96-4.723-1.003-6.65-.819-.54-1.963-1.786-6.231-3.157-9.129-.273-.58-.538-1.12-.791-1.636.35.064.713.109 1.092.109l.461-.015c.083-.011.162-.06.198-.139.326-.715.495-1.438.499-2.15 0-.73-.169-1.457-.499-2.182-.041-.073-.115-.128-.198-.132l-.461-.015c-.981 0-1.903.228-2.603.644-.156.092-.29.194-.416.299-.589-.973-1.06-1.611-1.37-1.824-.99-.817-1.871-.668-2.379-.429l-1.271.529c-.235.111-.437.265-.608.444l-3.678-.61c-.666-.107-1.301.341-1.412 1.011-.111.67.341 1.303 1.011 1.414l3.742.621 3.305 12.996c.228.877.35 1.668.35 2.295 0 3.221-2.624 5.843-5.847 5.843-3.221 0-5.843-2.622-5.843-5.843 0-1.515.587-2.955 1.662-4.068.45-.478.687-1.103.698-1.758.013-.704-.608-.779-1.367-.557-.723.209-5.594 1.073-8.506 1.073l-.177-.002-.555-.004c-2.34-.021-3.887-.036-7.038-1.478l-.028-.013c-2.057 1.015-3.644 2.308-4.885 3.657.036-17.643 14.345-31.934 31.996-31.934 17.673 0 32 14.327 32 32m-58.673 17.596c-1.361-2.061-2.505-4.277-3.362-6.637.691-.64 1.609-1.041 2.626-1.041 2.14 0 3.876 1.737 3.876 3.876 0 1.888-1.353 3.458-3.14 3.802" fill="#221F20"/></svg>