<svg width="64" height="64" viewBox="0 0 64 64" xmlns="http://www.w3.org/2000/svg"><title>01031scooterL</title><path d="M54.633 49.191c-2.456 0-4.447-1.993-4.447-4.45 0-1.056.384-2.016 1-2.78l2.189 3.526c.267.43.728.667 1.199.667.255 0 .512-.069.743-.214.662-.41.865-1.28.453-1.942l-2.209-3.559c.344-.087.7-.145 1.072-.145 2.456 0 4.447 1.991 4.447 4.447s-1.991 4.45-4.447 4.45zm-26.412-23.439l.069-.178-.084.26.015-.081zm35.678 12.995c-.316-.792-2.067-4.819-5.514-6.542-2.202-1.102-5.422-1.151-7.631-.939-.619-2.253-2.052-7.15-3.622-10.477-.316-.664-.619-1.285-.911-1.876.402.074.82.125 1.255.125l.527-.018c.097-.013.188-.069.229-.16.374-.817.568-1.647.573-2.467 0-.835-.193-1.672-.573-2.502-.046-.084-.132-.148-.229-.153l-.527-.018c-1.128 0-2.184.262-2.986.738-.178.107-.333.224-.479.344-.675-1.117-1.217-1.848-1.571-2.092-1.138-.937-2.148-.769-2.729-.491l-1.461.606c-.27.127-.501.303-.697.509l-4.22-.7c-.764-.122-1.494.392-1.621 1.161s.392 1.494 1.161 1.624l4.294.713 3.793 14.911c.262 1.005.4 1.917.4 2.635 0 3.699-3.009 6.707-6.707 6.707-3.699 0-6.707-3.009-6.707-6.707 0-1.736.672-3.391 1.909-4.668.517-.547.799-1.265.799-2.019 0-1.049-.57-1.973-1.489-2.512.323-.216.606-.486.781-.848.359-.743.277-1.553.079-2.062-.255-.662-.756-1.184-1.41-1.469-.652-.285-1.369-.298-2.011-.041-6.73 2.614-13.206-.433-13.219-.435-1.227-.771-2.859-.41-3.643.809-.787 1.229-.425 2.866.822 3.666l.524.295c.499.227.944.412 1.369.578-.382.14-.766.272-1.14.435-9.586 4.129-11.233 13.387-11.297 13.779-.13.769.389 1.494 1.158 1.624.776.132 1.494-.392 1.624-1.161.013-.081 1.441-8.125 9.63-11.651 4.302-1.853 8.922-2.176 15.423-1.077l-.043.14c-1.733 1.795-2.688 4.144-2.688 6.616 0 5.254 4.274 9.528 9.528 9.528 5.254 0 9.528-4.274 9.528-9.528 0-1.204-.265-2.482-.486-3.335l-3.854-15.125.802-.333c.15.16 1.255 1.438 3.94 7.112 1.937 4.101 3.744 11.103 3.765 11.175.181.71.876 1.166 1.596 1.041 1.784-.298 5.307-.42 7.181.517 1.084.542 2.011 1.507 2.726 2.502-1.313-.244-2.803-.461-4.04-.479l-3.77.003c-.356-.023-3.533-.173-5.771 1.344-2.398 1.629-3.128 4.259-3.363 6.481l-21.153-.005c-.779 0-1.41.631-1.41 1.408 0 .781.631 1.413 1.41 1.413l22.451.008c.349 0 .703-.143.96-.377.283-.255.453-.613.466-.995.112-2.864.817-4.643 2.225-5.598.415-.283.929-.471 1.456-.603-1.196 1.296-1.947 3.014-1.947 4.913 0 4.009 3.261 7.27 7.27 7.27 4.007 0 7.27-3.261 7.27-7.27 0-1.733-.636-3.307-1.655-4.556.949.196 1.721.382 2.021.458.517.12 1.049-.056 1.39-.456.341-.397.435-.955.239-1.441zm-53.135-1.273c-4.009 0-7.27 3.261-7.27 7.267 0 4.009 3.261 7.27 7.27 7.27 4.007 0 7.267-3.261 7.267-7.27 0-4.007-3.261-7.267-7.267-7.267zm0 2.82c2.456 0 4.447 1.991 4.447 4.447s-1.991 4.45-4.447 4.45-4.45-1.993-4.45-4.45c0-2.456 1.993-4.447 4.45-4.447z"/></svg>