<svg width="64" height="64" viewBox="0 0 64 64" xmlns="http://www.w3.org/2000/svg"><title>01031scooterF</title><path d="M10.764 37.474c4.007 0 7.267 3.261 7.267 7.267 0 4.009-3.261 7.27-7.267 7.27-4.009 0-7.27-3.261-7.27-7.27 0-4.007 3.261-7.267 7.27-7.267zm0 2.82c-2.456 0-4.45 1.991-4.45 4.447s1.993 4.45 4.45 4.45c2.456 0 4.447-1.993 4.447-4.45 0-2.456-1.991-4.447-4.447-4.447zm48.316 4.447c0-2.456-1.991-4.447-4.447-4.447-.372 0-.728.059-1.072.145l2.209 3.559c.412.662.209 1.532-.453 1.942-.232.145-.489.214-.743.214-.471 0-.932-.237-1.199-.667l-2.189-3.526c-.616.764-1 1.723-1 2.78 0 2.456 1.991 4.45 4.447 4.45s4.447-1.993 4.447-4.45zm4.579-4.554c-.341.4-.873.575-1.39.456-.3-.076-1.072-.262-2.021-.458 1.018 1.25 1.655 2.823 1.655 4.556 0 4.009-3.263 7.27-7.27 7.27-4.009 0-7.27-3.261-7.27-7.27 0-1.899.751-3.617 1.947-4.913-.527.132-1.041.321-1.456.603-1.408.955-2.113 2.734-2.225 5.598-.013.382-.183.741-.466.995-.257.234-.611.377-.96.377l-22.451-.008c-.779 0-1.41-.631-1.41-1.413l-.015-.023c.051-.4.084-.804.084-1.217 0-5.32-4.327-9.647-9.647-9.647-3.979 0-7.4 2.421-8.874 5.867l-.713-.153c-.769-.13-1.288-.855-1.158-1.624.064-.379 1.621-9.008 10.355-13.321l.031.015c3.617 1.655 5.391 1.672 8.077 1.695l.636.008h.204c3.34 0 8.93-.99 9.759-1.232.873-.252 1.583-.165 1.571.639-.01.753-.283 1.471-.799 2.019-1.237 1.278-1.909 2.932-1.909 4.668 0 3.699 3.009 6.707 6.707 6.707 3.699 0 6.707-3.009 6.707-6.707 0-.718-.137-1.629-.4-2.635l-3.793-14.911-4.294-.713c-.769-.13-1.288-.855-1.161-1.624.127-.769.858-1.283 1.621-1.161l4.22.7c.196-.206.428-.382.697-.509l1.461-.606c.58-.277 1.591-.445 2.729.491.354.244.896.975 1.571 2.092.145-.12.3-.237.479-.344.802-.476 1.858-.738 2.986-.738l.527.018c.097.005.183.069.229.153.379.83.573 1.667.573 2.502-.005.82-.199 1.649-.573 2.467-.041.092-.132.148-.229.16l-.527.018c-.435 0-.853-.051-1.255-.125.293.591.596 1.212.911 1.876 1.571 3.327 3.004 8.224 3.622 10.477 2.209-.211 5.43-.163 7.631.939 3.447 1.723 5.198 5.75 5.514 6.542.196.486.102 1.044-.239 1.441zm-51.77-18.126l-.028-.015.028.015zm15.759.659l-.003.003.003-.003zm.947 2.069c.598-.186 1.077-.598 1.349-1.161.359-.743.277-1.553.079-2.062-.255-.662-.756-1.184-1.41-1.469-.652-.285-1.369-.298-2.011-.041-6.73 2.614-13.206-.433-13.219-.435-1.227-.771-2.859-.41-3.643.809-.787 1.229-.425 2.866.822 3.666l.524.295c3.296 1.509 4.758 1.522 7.41 1.548l.636.005.188.003c3.205 0 8.655-.965 9.273-1.158z"/></svg>