<svg width="64" height="64" viewBox="0 0 64 64" xmlns="http://www.w3.org/2000/svg"><title>05008searchC</title><path d="M48.638 49.747l-.751.749c-.599.601-1.391.9-2.182.9-.791 0-1.583-.299-2.184-.9l-12.317-12.319c1.098-.628 2.129-1.396 3.047-2.314.842-.84 1.54-1.769 2.129-2.744l12.259 12.261c1.202 1.199 1.202 3.165 0 4.366zm-24.175-11.435c-3.128 0-6.258-1.193-8.644-3.582-4.775-4.775-4.775-12.517 0-17.29 2.387-2.389 5.516-3.582 8.644-3.582 3.13 0 6.26 1.193 8.646 3.582 4.775 4.773 4.775 12.515 0 17.29-2.387 2.389-5.516 3.582-8.646 3.582zm.023-20.831c-2.197 0-4.393.84-6.07 2.517-3.353 3.351-3.353 8.787 0 12.139 1.676 1.676 3.873 2.515 6.07 2.515s4.395-.838 6.07-2.515c3.353-3.353 3.353-8.789 0-12.139-1.674-1.676-3.873-2.517-6.07-2.517zm6.598-15.647c-17.166 0-31.083 13.917-31.083 31.083 0 17.166 13.917 31.083 31.083 31.083 17.166 0 31.083-13.917 31.083-31.083 0-17.166-13.917-31.083-31.083-31.083z"/></svg>