<svg width="64" height="64" viewBox="0 0 64 64" xmlns="http://www.w3.org/2000/svg"><title>05008searchF</title><path d="M10.376 31.654c-5.629-5.629-5.629-14.756 0-20.385 2.816-2.816 6.505-4.224 10.194-4.224 3.689 0 7.378 1.408 10.194 4.224 5.629 5.629 5.629 14.756 0 20.385-2.816 2.816-6.505 4.224-10.194 4.224-3.689 0-7.378-1.408-10.194-4.224zm21.473 10.145l20.687 20.687c1.009 1.009 2.337 1.513 3.666 1.513 1.329 0 2.657-.504 3.666-1.513l1.26-1.26c2.017-2.017 2.017-5.317 0-7.332l-20.585-20.59c-.988 1.638-2.161 3.195-3.574 4.608-1.546 1.544-3.272 2.831-5.12 3.889v-.003zm3.203-5.788c8.018-8.02 8.018-21.02 0-29.038-4.009-4.009-9.265-6.013-14.518-6.013-5.256 0-10.511 2.004-14.52 6.013-8.018 8.018-8.018 21.018 0 29.038 4.009 4.009 9.265 6.013 14.52 6.013 5.253 0 10.509-2.004 14.518-6.013z"/></svg>