<svg width="64" height="64" viewBox="0 0 64 64" xmlns="http://www.w3.org/2000/svg"><title>05008searchL</title><path d="M30.352 30.288c-2.41 2.407-5.615 3.735-9.023 3.735-3.408 0-6.613-1.328-9.023-3.735-2.41-2.412-3.737-5.615-3.737-9.023 0-3.408 1.328-6.613 3.74-9.023 2.407-2.41 5.612-3.737 9.021-3.737 3.408 0 6.613 1.328 9.023 3.737 2.41 2.41 3.737 5.615 3.737 9.023 0 3.408-1.328 6.611-3.737 9.023zm1.821-19.867c-2.896-2.896-6.748-4.491-10.844-4.491-4.096 0-7.946 1.595-10.841 4.491-2.898 2.898-4.493 6.748-4.493 10.844 0 4.096 1.595 7.946 4.493 10.841 2.896 2.898 6.746 4.491 10.841 4.491 4.096 0 7.948-1.593 10.844-4.491 5.978-5.978 5.978-15.705 0-21.685zm27.766 48.68l-1.227 1.227c-1.413 1.413-3.909 1.413-5.325 0l-20.954-20.932.751-.434c1.124-.761 2.186-1.632 3.168-2.611.854-.856 1.607-1.782 2.297-2.746l.425-.694 20.865 20.865c1.467 1.467 1.467 3.855 0 5.325zm-38.644-19.089c-5.001 0-9.703-1.946-13.239-5.482-3.534-3.536-5.48-8.238-5.48-13.236 0-5.001 1.946-9.7 5.48-13.236 3.539-3.536 8.238-5.484 13.239-5.484 4.999 0 9.7 1.948 13.236 5.484 3.534 3.536 5.482 8.235 5.482 13.236 0 4.999-1.948 9.7-5.482 13.236-3.536 3.536-8.238 5.482-13.236 5.482zm40.465 11.943l-21.354-21.332c1.406-2.874 2.182-6.037 2.182-9.33 0-5.688-2.216-11.035-6.235-15.057-4.022-4.022-9.371-6.238-15.057-6.238-5.688 0-11.035 2.216-15.057 6.238s-6.238 9.369-6.238 15.057c0 5.688 2.216 11.035 6.238 15.057 4.022 4.019 9.369 6.235 15.057 6.235 3.085 0 6.049-.694 8.775-1.936l21.496 21.499c1.193 1.193 2.785 1.85 4.481 1.85 1.698 0 3.291-.658 4.483-1.85l1.229-1.229c2.471-2.471 2.471-6.493 0-8.964z"/></svg>