<svg width="64" height="64" viewBox="0 0 64 64" xmlns="http://www.w3.org/2000/svg"><title>02048segwayF</title><path d="M30.068 61.515c-4.679 0-8.488-3.78-8.488-8.426 0-4.648 3.809-8.428 8.488-8.428 4.679 0 8.486 3.78 8.486 8.428 0 4.646-3.807 8.426-8.486 8.426zm19.884-52.131c-.693-1.889-3.343-4.213-5.078-4.879-.896-.344-2.536-1.011-3.908-1.569-1.106-.45-2.041-.83-2.3-.925-1.485-.55-3.05.154-3.637 1.635-.519 1.304-.113 3.019 1.662 3.776.386.166 2.631 1.084 4.334 1.779-.452.664-.653 1.397-.764 1.799-.139.501-.9 3.381-1.874 7.062-1.854 7.007-4.657 17.598-5.065 18.986-.322 1.101-1.258 1.289-3.255 1.289-7.133 0-13.263 5.378-14.508 12.215h-1.721c-1.015 0-1.838.823-1.838 1.841 0 1.015.823 1.838 1.838 1.838h2.392l.108-.011.117.013h2.701c.574 5.489 5.237 9.768 10.911 9.768 5.672 0 10.337-4.279 10.909-9.768h2.701c.631 0 1.141-.512 1.141-1.141 0-3.829-1.516-7.541-4.182-10.286.547-3.399 3.218-19.915 3.302-20.462.066-.43.066-.43.349-.649.812-.622 2.412-1.946 4.03-3.811 1.997-2.304 2.655-5.718 1.635-8.499z"/></svg>