<svg width="64" height="64" viewBox="0 0 64 64" xmlns="http://www.w3.org/2000/svg"><title>02048segwayL</title><path d="M47.608 14.991c-1.531 1.763-3.039 3.012-3.805 3.601-.959.738-1.134 1.422-1.249 2.172-.093.604-3.457 21.433-3.492 21.642-.061.384.07.775.352 1.04 2.306 2.183 3.689 5.043 3.969 8.151h-1.556c-.588-5.652-5.391-10.059-11.229-10.059-5.84 0-10.64 4.409-11.231 10.059h-1.179c-.057-.227-.15-.441-.282-.627.909-6.149 6.352-11.07 12.726-11.04 1.647 0 4.689-.009 5.57-3.012.429-1.461 3.203-11.949 5.229-19.607 1-3.775 1.781-6.731 1.922-7.244.302-1.097.595-1.506 1.122-1.565.534-.061.959-.473 1.034-1.006.073-.532-.223-1.045-.72-1.249-.057-.023-5.829-2.378-6.454-2.642-.559-.239-.552-.602-.448-.863.064-.164.266-.527.75-.345.257.095 1.19.475 2.294.922 1.427.582 3.133 1.274 4.066 1.633 1.347.518 3.442 2.49 3.864 3.639.763 2.083.261 4.657-1.254 6.402zm-17.01 46.449c-4.816 0-8.737-3.889-8.737-8.671 0-4.784 3.921-8.675 8.737-8.675 4.816 0 8.735 3.891 8.735 8.675 0 4.782-3.919 8.671-8.735 8.671zm20.468-53.659c-.713-1.945-3.442-4.339-5.227-5.023-.922-.354-2.61-1.04-4.023-1.615-1.138-.463-2.101-.854-2.367-.952-1.529-.566-3.139.159-3.744 1.683-.534 1.343-.116 3.108 1.711 3.887.398.17 2.708 1.115 4.462 1.831-.466.684-.672 1.438-.786 1.851-.143.516-.927 3.478-1.929 7.267-1.908 7.213-4.793 18.116-5.213 19.545-.332 1.134-1.295 1.327-3.351 1.327-7.342 0-13.653 5.536-14.934 12.574h-1.772c-1.045 0-1.892.847-1.892 1.895 0 1.045.847 1.892 1.892 1.892h2.462l.111-.011.12.014h2.781c.591 5.65 5.391 10.054 11.231 10.054 5.838 0 10.64-4.405 11.229-10.054h2.783c.647 0 1.172-.527 1.172-1.174 0-3.941-1.561-7.765-4.305-10.588.566-3.498 3.312-20.499 3.398-21.063.068-.443.068-.443.359-.668.834-.641 2.483-2.004 4.148-3.923 2.056-2.372 2.733-5.886 1.683-8.748z"/></svg>