<svg width="64" height="64" viewBox="0 0 64 64" xmlns="http://www.w3.org/2000/svg"><title>02048segwayC</title><path d="M26.567 47.593c-4.24 0-7.678 3.439-7.678 7.68s3.438 7.68 7.678 7.68 7.678-3.439 7.678-7.68-3.438-7.68-7.678-7.68zm-13.156 8.785l-.111-.011-.107.011h-1.926c1.853 1.579 3.89 2.95 6.075 4.077-.7-1.229-1.167-2.605-1.32-4.077h-2.611zm50.588-24.371c0 17.506-14.054 31.721-31.492 31.994 2.521-1.702 4.272-4.448 4.603-7.622h2.613c.608 0 1.101-.493 1.101-1.101 0-3.701-1.465-7.292-4.042-9.943.531-3.285 3.11-19.251 3.191-19.78.064-.416.064-.416.339-.627.783-.602 2.329-1.882 3.893-3.684 1.932-2.227 2.566-5.527 1.58-8.215-.67-1.826-3.231-4.075-4.906-4.717-.866-.333-2.453-.977-3.78-1.517-1.069-.435-1.973-.802-2.222-.894-1.435-.531-2.946.149-3.515 1.579-.499 1.261-.109 2.921 1.606 3.652.373.16 2.542 1.047 4.189 1.719-.437.642-.631 1.35-.738 1.739-.132.484-.87 3.266-1.811 6.827-1.792 6.773-4.498 17.011-4.893 18.353-.314 1.065-1.218 1.244-3.146 1.244h-.002c-6.894 0-12.819 5.201-14.022 11.81h-1.662c-.909 0-1.649.683-1.755 1.559-5.646-5.771-9.129-13.664-9.129-22.374 0-17.677 14.327-32.006 32-32.006 17.673 0 32 14.33 32 32.006z"/></svg>