<svg width="64" height="64" viewBox="0 0 64 64" xmlns="http://www.w3.org/2000/svg"><title>06026settingsF</title><path d="M32.053 47.45c-8.524 0-15.433-6.909-15.433-15.436 0-8.524 6.909-15.433 15.433-15.433 8.526 0 15.436 6.909 15.436 15.433 0 8.526-6.909 15.436-15.436 15.436zm30.682-21.799h-3.627c-.567 0-1.045-.385-1.199-.929-.58-2.071-1.401-4.04-2.431-5.878-.277-.493-.208-1.101.193-1.502l2.569-2.569c.493-.493.493-1.294 0-1.789l-7.207-7.207c-.495-.495-1.296-.495-1.792 0l-2.554 2.554c-.4.403-1.009.472-1.504.193-1.838-1.037-3.809-1.863-5.883-2.449-.544-.154-.927-.634-.927-1.199v-3.611c0-.698-.565-1.265-1.265-1.265h-10.192c-.701 0-1.265.567-1.265 1.265v3.586c0 .567-.385 1.047-.929 1.199-2.084.58-4.063 1.404-5.908 2.441-.493.277-1.101.205-1.502-.193l-2.538-2.538c-.493-.495-1.294-.495-1.789 0l-7.207 7.207c-.495.495-.495 1.296 0 1.789l2.523 2.526c.4.4.472 1.009.193 1.502-1.042 1.848-1.871 3.829-2.459 5.914-.151.544-.631.929-1.196.929h-3.573c-.698 0-1.265.565-1.265 1.263v10.195c0 .698.567 1.265 1.265 1.265h3.565c.565 0 1.045.382 1.196.929.585 2.087 1.414 4.068 2.454 5.916.277.493.208 1.101-.193 1.502l-2.528 2.528c-.495.495-.495 1.296 0 1.789l7.207 7.21c.495.493 1.296.493 1.789 0l2.533-2.533c.4-.4 1.009-.47 1.502-.193 1.845 1.037 3.824 1.863 5.906 2.446.544.151.929.631.929 1.199v3.593c0 .698.565 1.265 1.265 1.265h10.192c.698 0 1.265-.567 1.265-1.265v-3.606c0-.565.382-1.045.927-1.196 2.076-.585 4.048-1.409 5.888-2.446.493-.277 1.101-.208 1.502.193l2.559 2.562c.495.493 1.296.493 1.789 0l7.21-7.207c.493-.495.493-1.296 0-1.792l-2.564-2.562c-.4-.4-.47-1.009-.193-1.504 1.032-1.835 1.853-3.804 2.436-5.875.154-.544.634-.927 1.199-.927h3.634c.698 0 1.265-.567 1.265-1.265v-10.192c0-.701-.567-1.265-1.265-1.265z"/></svg>