<svg width="64" height="64" viewBox="0 0 64 64" xmlns="http://www.w3.org/2000/svg"><title>06026settingsL</title><path d="M32.115 19.015c-7.217 0-13.093 5.871-13.093 13.09 0 7.22 5.875 13.09 13.093 13.09 7.22 0 13.09-5.871 13.09-13.09 0-7.22-5.871-13.09-13.09-13.09zm-4.568 41.823h8.933v-3.035c0-1.23.837-2.325 2.037-2.662 1.835-.515 3.606-1.247 5.265-2.179 1.064-.605 2.464-.417 3.323.444l2.137 2.135 6.317-6.315-2.135-2.137c-.874-.874-1.054-2.24-.444-3.321.937-1.664 1.674-3.44 2.186-5.275.339-1.198 1.432-2.037 2.662-2.037h3.011v-8.933h-3.018c-1.232 0-2.325-.839-2.662-2.037-.515-1.835-1.252-3.609-2.191-5.27-.612-1.088-.429-2.452.444-3.326l2.128-2.13-6.315-6.317-2.147 2.142c-.849.856-2.242 1.052-3.313.449-1.669-.937-3.44-1.669-5.268-2.179-1.205-.334-2.042-1.43-2.042-2.66v-3.033h-8.935v3.055c0 1.23-.834 2.325-2.03 2.662-1.823.512-3.587 1.247-5.246 2.184-1.069.603-2.464.415-3.323-.444l-2.162-2.159-6.319 6.317 2.176 2.176c.871.866 1.054 2.23.444 3.316-.927 1.652-1.657 3.416-2.167 5.241-.334 1.198-1.427 2.04-2.662 2.04h-3.069v8.93h3.077c1.23 0 2.323.839 2.66 2.035.512 1.823 1.244 3.587 2.174 5.239.617 1.1.439 2.433-.442 3.318l-2.172 2.172 6.317 6.319 2.164-2.169c.861-.856 2.257-1.047 3.323-.442 1.654.932 3.421 1.664 5.248 2.179 1.198.337 2.035 1.43 2.035 2.66v3.048zm9.311 3.165h-9.689c-1.537 0-2.784-1.249-2.784-2.784v-3.121c-1.884-.551-3.704-1.308-5.422-2.252l-2.218 2.22c-1.052 1.052-2.884 1.049-3.936 0l-6.854-6.854c-1.086-1.083-1.086-2.852 0-3.936l2.223-2.225c-.942-1.715-1.696-3.533-2.245-5.407h-3.15c-1.535 0-2.784-1.252-2.784-2.786v-9.691c0-1.532 1.249-2.782 2.784-2.782h3.14c.549-1.881 1.3-3.697 2.24-5.412l-2.225-2.228c-.527-.525-.817-1.225-.817-1.969 0-.742.29-1.444.817-1.967l6.851-6.854c1.052-1.052 2.884-1.052 3.936 0l2.247 2.245c1.603-.942 3.46-1.723 5.385-2.289v-3.128c0-1.535 1.249-2.784 2.786-2.784h9.689c1.535 0 2.784 1.249 2.784 2.784v3.104c1.881.544 3.711 1.3 5.441 2.25l2.198-2.198c1.052-1.052 2.884-1.049 3.936-.002l6.854 6.856c.525.525.815 1.222.815 1.964 0 .747-.29 1.444-.817 1.971l-2.181 2.184c.952 1.727 1.713 3.557 2.264 5.446h3.091c1.535 0 2.782 1.252 2.782 2.786v9.689c0 1.535-1.247 2.786-2.782 2.786h-3.084c-.549 1.889-1.308 3.718-2.259 5.448l2.189 2.191c1.083 1.081 1.083 2.847.002 3.933l-6.856 6.854c-1.047 1.054-2.882 1.054-3.936 0l-2.223-2.223c-1.605.939-3.472 1.72-5.409 2.284v3.111c0 1.535-1.249 2.784-2.784 2.784zm-4.743-15.643c-8.962 0-16.255-7.293-16.255-16.255s7.293-16.255 16.255-16.255 16.253 7.293 16.253 16.255-7.291 16.255-16.253 16.255z"/></svg>