<svg width="64" height="64" viewBox="0 0 64 64" xmlns="http://www.w3.org/2000/svg"><title>06026settingsC</title><path d="M53.231 35.32c0 .463-.376.84-.84.84h-2.408c-.374 0-.691.253-.793.614-.387 1.371-.931 2.674-1.615 3.892-.183.327-.136.729.13.995l1.698 1.698c.327.327.327.859 0 1.186l-4.776 4.774c-.327.329-.859.329-1.186 0l-1.696-1.694c-.264-.266-.667-.312-.995-.13-1.218.687-2.525 1.233-3.9 1.62-.359.102-.614.421-.614.795v2.387c0 .463-.374.84-.837.84h-6.752c-.463 0-.84-.376-.84-.84v-2.38c0-.374-.253-.693-.614-.793-1.379-.387-2.689-.933-3.913-1.622-.325-.183-.729-.136-.993.13l-1.679 1.677c-.327.327-.859.327-1.186 0l-4.774-4.776c-.327-.327-.327-.859 0-1.186l1.675-1.675c.266-.266.312-.667.128-.995-.691-1.224-1.239-2.538-1.626-3.919-.1-.361-.419-.616-.793-.616h-2.361c-.463 0-.837-.374-.837-.837v-6.752c0-.463.374-.837.837-.837h2.366c.374 0 .693-.255.795-.614.387-1.384.937-2.695 1.628-3.919.185-.327.138-.729-.128-.995l-1.673-1.673c-.327-.327-.327-.859 0-1.186l4.776-4.774c.327-.327.859-.327 1.186 0l1.681 1.681c.264.264.667.312.993.128 1.224-.687 2.536-1.231 3.915-1.617.361-.1.616-.419.616-.793v-2.376c0-.463.374-.837.837-.837h6.752c.463 0 .84.374.84.837v2.393c0 .374.253.691.612.793 1.375.389 2.68.935 3.898 1.624.327.185.731.138.997-.128l1.692-1.694c.327-.325.859-.325 1.186 0l4.776 4.776c.325.327.325.859 0 1.186l-1.702 1.7c-.266.266-.312.67-.13.995.684 1.218 1.226 2.523 1.611 3.894.102.361.419.614.795.614h2.402c.463 0 .84.376.84.84v6.752zm-21.165-13.598c-5.645 0-10.223 4.576-10.223 10.225 0 5.645 4.578 10.223 10.223 10.223 5.647 0 10.225-4.578 10.225-10.223 0-5.649-4.578-10.225-10.225-10.225zm-.066-21.722c-17.673 0-32 14.327-32 32 0 17.673 14.327 32 32 32 17.673 0 32-14.327 32-32 0-17.673-14.327-32-32-32z"/></svg>