<svg width="64" height="64" viewBox="0 0 64 64" xmlns="http://www.w3.org/2000/svg"><title>06026settingsS</title><path d="M31.613 43c-6.066 0-11-4.934-11-11s4.934-11 11-11 11 4.934 11 11-4.934 11-11 11m30.115-5.16l-10.115-5.84 10.115-5.84c1.429-.825 1.923-2.669 1.098-4.098l-7-12.124c-.825-1.429-2.669-1.923-4.098-1.098l-10.115 5.839v-11.679c0-1.65-1.35-3-3-3h-14c-1.65 0-3 1.35-3 3v11.679l-10.115-5.839c-1.429-.825-3.273-.331-4.098 1.098l-7 12.124c-.825 1.429-.331 3.273 1.098 4.098l10.115 5.84-10.115 5.84c-1.429.825-1.923 2.669-1.098 4.098l7 12.124c.825 1.429 2.669 1.923 4.098 1.098l10.115-5.84v11.68c0 1.65 1.35 3 3 3h14c1.65 0 3-1.35 3-3v-11.68l10.115 5.84c1.429.825 3.273.331 4.098-1.098l7-12.124c.825-1.429.331-3.273-1.098-4.098" fill="#000"/></svg>