<svg width="64" height="64" viewBox="0 0 64 64" xmlns="http://www.w3.org/2000/svg"><title>02031sevenfigincC</title><path d="M48.093 35.662c0 8.681-5.81 14.299-15.988 21.139-.434.291-1.14.291-1.573 0-10.178-6.84-15.988-12.457-15.988-21.139v-17.856c0-.522.425-.946.948-.956 5.692-.132 9.604-1.522 15.116-6.286.394-.341 1.026-.341 1.422.002 5.51 4.763 9.425 6.152 15.114 6.284.524.01.948.434.948.956v17.856zm-11.035-2.18c-.155-.047-.444-.114-.869-.2-.498-.103-.799-.171-.9-.206-.105-.037-.159-.097-.159-.188 0-.052.027-.093.076-.12.052-.027.128-.039.231-.039.126 0 .209.017.248.045.039.033.058.097.058.196v.095h1.672l.017-.105c0-.169-.128-.299-.386-.394-.256-.095-.642-.153-1.158-.175v-.18h-.77v.18c-.566.023-.989.083-1.272.178-.283.097-.423.229-.423.398 0 .118.066.221.2.314s.291.163.475.215c.184.052.531.13 1.041.239.308.064.487.124.539.178.052.054.078.145.078.273 0 .05-.027.089-.083.114-.056.025-.138.039-.252.039-.132 0-.217-.019-.252-.056-.033-.037-.052-.132-.052-.283v-.14h-1.67v.111c0 .252.165.429.5.531.334.101.725.159 1.171.173v.221h.77v-.213c.574-.029 1.005-.099 1.29-.215.287-.114.431-.273.431-.473 0-.126-.054-.233-.159-.316-.107-.085-.237-.151-.392-.196zm-15.973-8.865c1.41-.489 3.297-.76 5.312-.76 2.017 0 3.904.27 5.312.76 1.284.446 1.86.983 1.86 1.317 0 .334-.576.871-1.86 1.315-1.408.491-3.295.762-5.312.762-2.015 0-3.902-.27-5.312-.762-1.284-.444-1.858-.981-1.858-1.315 0-.334.574-.871 1.858-1.317zm-.721 4.819c-.415-.182-.766-.384-1.045-.599v-2.025c.279.217.63.417 1.045.599v2.025zm6.033 1.278c4.313 0 7.81-1.216 7.81-2.715v-2.065c0-1.499-3.497-2.715-7.81-2.715s-7.808 1.216-7.808 2.715v2.065c0 1.499 3.495 2.715 7.808 2.715zm14.431 4.154c-.619.215-1.342.38-2.114.506-.989.161-2.067.254-3.198.254-2.017 0-3.904-.268-5.312-.76-1.284-.446-1.858-.981-1.858-1.315 0-.334.574-.871 1.858-1.317 1.408-.489 3.295-.76 5.312-.76 1.47 0 2.868.147 4.065.415.444.099.865.213 1.247.345 1.284.446 1.858.983 1.858 1.317 0 .334-.574.869-1.858 1.315zm-11.347 2.184c-.413-.182-.766-.382-1.045-.597v-2.025c.279.217.632.417 1.045.599v2.023zm-1.045.665c.279.215.632.415 1.045.597v2.025c-.413-.182-.766-.382-1.045-.597v-2.025zm0 4.517v-1.146c.279.215.632.415 1.045.597v2.025c-.413-.182-.766-.382-1.045-.599v-.877zm-8.072-2.771c-.415-.182-.766-.382-1.045-.597v-2.025c.279.217.63.417 1.045.599v2.023zm0-3.371c-.415-.18-.766-.382-1.045-.597v-2.025c.279.217.63.417 1.045.599v2.023zm0-3.369c-.415-.182-.766-.384-1.045-.599v-2.023c.279.215.63.415 1.045.597v2.025zm15.151-1.885c-.448 0-.884.014-1.309.039v-1.656c0-.095-.014-.19-.041-.281-.405 1.367-3.729 2.432-7.769 2.432-4.038 0-7.362-1.065-7.767-2.432-.027.091-.041.186-.041.281v2.065c0 1.499 3.495 2.715 7.808 2.715.448 0 .882-.017 1.309-.041v.743c-.427.025-.861.043-1.309.043-4.038 0-7.362-1.067-7.767-2.436-.027.093-.041.188-.041.283v2.062c0 1.501 3.495 2.717 7.808 2.717.448 0 .882-.017 1.309-.041v.743c-.427.025-.861.043-1.309.043-4.038 0-7.362-1.067-7.767-2.436-.027.093-.041.188-.041.283v2.062c0 1.501 3.495 2.717 7.808 2.717.448 0 .882-.017 1.309-.041v1.571c0 1.501 3.497 2.717 7.81 2.717s7.81-1.216 7.81-2.717v-2.065c0-.095-.014-.188-.043-.281-.353 1.197-2.946 2.164-6.297 2.387-.477.031-.968.047-1.47.047-3.588 0-6.6-.842-7.515-1.99l.006-.729c.929 1.14 3.935 1.976 7.509 1.976.57 0 1.123-.023 1.658-.064 3.516-.264 6.152-1.35 6.152-2.653v-2.062c0-.097-.014-.19-.043-.283-.322 1.092-2.517 1.98-5.436 2.3-.741.081-1.515.134-2.331.134-3.539 0-6.526-.818-7.486-1.939l.006-.659c.962 1.121 3.945 1.937 7.48 1.937.873 0 1.711-.052 2.498-.142 3.086-.363 5.312-1.377 5.312-2.572v-2.062c0-1.499-3.497-2.715-7.81-2.715zm-10.535-4.961c.184.052.531.13 1.041.239.306.064.485.124.539.178.052.056.078.147.078.273 0 .052-.029.089-.083.116-.056.025-.14.037-.254.037-.132 0-.215-.019-.25-.056-.035-.035-.052-.13-.052-.283v-.138h-1.672v.109c0 .252.167.429.502.531.332.101.723.159 1.171.173v.221h.77v-.213c.574-.027 1.003-.097 1.29-.213.287-.116.429-.273.429-.475 0-.126-.052-.231-.159-.316-.105-.085-.235-.151-.39-.196-.155-.047-.444-.114-.869-.2-.5-.101-.799-.171-.902-.206-.105-.035-.157-.097-.157-.186 0-.054.025-.093.076-.12.052-.027.128-.041.229-.041.128 0 .211.017.248.047.039.031.06.095.06.196v.093h1.67l.017-.105c0-.167-.128-.299-.384-.394-.256-.093-.642-.153-1.158-.175v-.18h-.77v.18c-.566.023-.989.083-1.272.18-.283.095-.425.227-.425.396 0 .118.068.221.2.314.134.093.293.165.477.215zm6.317-24.475c-17.284 0-31.298 14.014-31.298 31.3 0 17.284 14.014 31.298 31.298 31.298 17.286 0 31.3-14.014 31.3-31.298 0-17.286-14.014-31.3-31.3-31.3z"/></svg>