<svg width="64" height="64" viewBox="0 0 64 64" xmlns="http://www.w3.org/2000/svg"><title>02031sevenfigincF</title><path d="M48.426 34.678c0 2.054-4.79 3.72-10.698 3.72-4.892 0-8.972-1.15-10.246-2.708l-.008.954c1.314 1.536 5.408 2.658 10.254 2.658 5.534 0 10.086-1.462 10.642-3.334.036.126.056.254.056.384v2.828c0 2.054-4.79 3.72-10.698 3.72-4.938 0-9.052-1.17-10.284-2.75l-.01 1.044c1.254 1.57 5.378 2.726 10.294 2.726 5.534 0 10.086-1.462 10.642-3.334.036.126.056.254.056.386v2.826c0 2.056-4.79 3.72-10.698 3.72s-10.698-1.664-10.698-3.72v-2.16c-.586.034-1.178.062-1.792.062-5.91 0-10.698-1.664-10.698-3.72v-2.826c0-.13.018-.258.056-.386.554 1.874 5.108 3.336 10.642 3.336.612 0 1.208-.024 1.792-.06v-1.024c-.586.036-1.178.064-1.792.064-5.91 0-10.698-1.666-10.698-3.722v-2.826c0-.13.018-.258.056-.386.554 1.872 5.108 3.336 10.642 3.336.612 0 1.208-.026 1.792-.06v-1.024c-.586.036-1.178.064-1.792.064-5.91 0-10.698-1.666-10.698-3.722v-2.826c0-.132.018-.258.056-.386.554 1.874 5.108 3.334 10.642 3.334s10.086-1.46 10.64-3.334c.038.128.058.254.058.386v2.276c.586-.034 1.178-.064 1.792-.064 5.908 0 10.698 1.666 10.698 3.72v2.828zm-33.886-13.262c0-2.054 4.788-3.72 10.698-3.72 5.908 0 10.698 1.666 10.698 3.72v2.826c0 2.054-4.79 3.72-10.698 3.72-5.91 0-10.698-1.666-10.698-3.72v-2.826zm13.492 18.914c.382.294.864.57 1.43.818v-2.774c-.566-.248-1.048-.522-1.43-.818v2.774zm1.43-6.458c-.566-.248-1.048-.522-1.43-.818v2.774c.382.294.864.57 1.43.818v-2.774zm10.544-.766c-.392.158-.982.254-1.768.292v.29h-1.054v-.3c-.612-.02-1.148-.1-1.604-.238-.458-.14-.686-.382-.686-.726v-.152h2.29v.19c0 .208.024.338.07.388.048.05.162.076.344.076.154 0 .27-.018.346-.052.074-.036.112-.088.112-.158 0-.174-.034-.298-.106-.372-.072-.076-.318-.158-.738-.244-.698-.15-1.174-.258-1.426-.328-.25-.07-.468-.168-.652-.294-.182-.128-.274-.27-.274-.43 0-.232.194-.414.58-.546.388-.13.97-.212 1.744-.242v-.248h1.054v.248c.706.03 1.236.11 1.588.24.35.13.526.31.526.538l-.022.146h-2.29v-.128c0-.138-.026-.226-.08-.27-.052-.042-.166-.062-.34-.062-.14 0-.244.018-.314.054-.07.036-.106.092-.106.164 0 .122.072.206.216.256.14.048.552.142 1.236.282.582.12.978.21 1.19.274.212.064.39.154.536.27.146.114.218.26.218.432 0 .276-.196.492-.59.65zm5-3.06c-1.932-.67-4.516-1.04-7.278-1.04-2.762 0-5.346.37-7.278 1.04-1.758.612-2.544 1.346-2.544 1.804 0 .458.786 1.192 2.544 1.804 1.932.672 4.516 1.04 7.278 1.04 2.762 0 5.346-.368 7.278-1.04 1.758-.612 2.544-1.346 2.544-1.804 0-.458-.786-1.192-2.544-1.804zm-16.974 14.902c.382.296.864.57 1.43.818v-2.774c-.566-.248-1.048-.522-1.43-.818v2.774zm-12.49-15.054c.38.296.864.57 1.43.82v-2.774c-.566-.25-1.05-.524-1.43-.818v2.772zm0 4.618c.38.296.864.57 1.43.82v-2.774c-.566-.25-1.05-.524-1.43-.82v2.774zm0 4.62c.38.294.864.568 1.43.818v-2.774c-.566-.25-1.05-.524-1.43-.82v2.776zm7.408-19.064c.388-.132.968-.214 1.742-.244v-.248h1.056v.248c.706.03 1.236.112 1.586.24.352.13.528.31.528.54l-.022.144h-2.29v-.128c0-.138-.028-.226-.08-.268-.054-.042-.166-.064-.34-.064-.14 0-.244.018-.316.054-.068.038-.104.092-.104.164 0 .122.072.208.216.256.14.048.552.144 1.236.284.582.118.978.21 1.19.274.212.062.39.152.536.268.146.116.218.26.218.432 0 .276-.196.494-.59.65-.392.158-.982.256-1.768.292v.292h-1.056v-.302c-.61-.02-1.146-.1-1.604-.238-.456-.138-.684-.38-.684-.726v-.152h2.288v.19c0 .208.024.338.072.39.048.05.162.074.344.074.154 0 .27-.018.344-.052.076-.036.114-.088.114-.156 0-.174-.036-.3-.108-.374-.072-.074-.316-.156-.736-.244-.7-.15-1.174-.258-1.426-.328s-.468-.166-.652-.294c-.184-.126-.274-.27-.274-.43 0-.23.192-.412.58-.544zm-4.99 3.15c1.93.672 4.516 1.042 7.278 1.042 2.762 0 5.346-.37 7.276-1.042 1.76-.61 2.546-1.344 2.546-1.802 0-.458-.786-1.194-2.546-1.804-1.93-.672-4.514-1.042-7.276-1.042-2.762 0-5.348.37-7.278 1.042-1.758.61-2.546 1.346-2.546 1.804 0 .458.788 1.192 2.546 1.802zm-2.418 2.174c.38.296.864.57 1.43.82v-2.774c-.566-.25-1.05-.524-1.43-.82v2.774zm38.12-16.422c-7.798-.18-13.158-2.084-20.708-8.608-.542-.47-1.406-.47-1.948-.002-7.55 6.526-12.912 8.43-20.708 8.61-.716.016-1.298.596-1.298 1.312v24.462c0 11.892 7.958 19.586 21.9 28.956.596.4 1.564.4 2.158 0 13.942-9.37 21.9-17.064 21.9-28.956v-24.462c0-.716-.58-1.296-1.296-1.312z"/></svg>