<svg width="64" height="64" viewBox="0 0 64 64" xmlns="http://www.w3.org/2000/svg"><title>05010shareF</title><path d="M7.513 33.213c0-3.239 2.635-5.871 5.871-5.871 3.236 0 5.871 2.632 5.871 5.871 0 3.236-2.635 5.869-5.871 5.869-3.236 0-5.871-2.632-5.871-5.869zm45.601 11.431c-2.056 0-3.954.648-5.521 1.742l-21.151-10.315c.203-.921.326-1.875.326-2.858 0-.988-.125-1.942-.328-2.869l21.148-10.318c1.569 1.096 3.467 1.747 5.526 1.747 5.345 0 9.678-4.333 9.678-9.678 0-5.345-4.333-9.678-9.678-9.678-5.217 0-9.441 4.138-9.642 9.305l-22.127 10.794c-2.232-1.667-4.97-2.688-7.961-2.688-7.379 0-13.384 6.002-13.384 13.384 0 7.379 6.005 13.382 13.384 13.382 2.997 0 5.738-1.024 7.969-2.694l22.119 10.785c.198 5.173 4.422 9.313 9.642 9.313 5.345 0 9.678-4.333 9.678-9.678 0-5.345-4.333-9.678-9.678-9.678z"/></svg>