<svg width="64" height="64" viewBox="0 0 64 64" xmlns="http://www.w3.org/2000/svg"><title>05010shareC</title><path d="M16.233 29.178c-2.052 0-3.722 1.67-3.722 3.722 0 2.054 1.67 3.724 3.722 3.724 2.054 0 3.724-1.67 3.724-3.724 0-2.052-1.67-3.722-3.724-3.722zm8.491 3.722c0 .626-.078 1.23-.206 1.817l13.415 6.542c.995-.694 2.199-1.107 3.503-1.107 3.39 0 6.14 2.75 6.14 6.14 0 3.39-2.75 6.14-6.14 6.14-3.311 0-5.991-2.628-6.115-5.909l-14.033-6.842c-1.416 1.059-3.155 1.709-5.056 1.709-4.68 0-8.489-3.809-8.489-8.491 0-4.68 3.809-8.489 8.489-8.489 1.899 0 3.638.648 5.052 1.707l14.037-6.846c.126-3.278 2.806-5.905 6.115-5.905 3.39 0 6.14 2.748 6.14 6.14 0 3.39-2.75 6.14-6.14 6.14-1.305 0-2.51-.415-3.506-1.109l-13.415 6.542c.13.588.209 1.193.209 1.819zm6.359-31.067c-17.166 0-31.083 13.915-31.083 31.083 0 17.166 13.917 31.083 31.083 31.083 17.166 0 31.083-13.917 31.083-31.083 0-17.169-13.917-31.083-31.083-31.083z"/></svg>