<svg width="64" height="64" viewBox="0 0 64 64" xmlns="http://www.w3.org/2000/svg"><title>05010shareS</title><path d="M13 39.416c-3.864 0-7-3.132-7-7 0-3.864 3.136-7 7-7s7 3.136 7 7c0 3.868-3.136 7-7 7m41 .584c-2.644 0-5.032 1.044-6.82 2.724l-21.3-9.136c.036-.392.12-.772.12-1.172 0-.652-.1-1.28-.192-1.908l21.816-10.864c1.732 1.448 3.94 2.356 6.376 2.356 5.524 0 10-4.476 10-10s-4.476-10-10-10-10 4.476-10 10l.048.488-21.776 10.844c-2.36-2.412-5.64-3.916-9.272-3.916-7.168 0-13 5.832-13 13s5.832 13 13 13c3.892 0 7.352-1.756 9.736-4.472l21.272 9.12c.036 5.492 4.492 9.936 9.992 9.936 5.524 0 10-4.476 10-10s-4.476-10-10-10"/></svg>