<svg width="64" height="64" viewBox="0 0 64 64" xmlns="http://www.w3.org/2000/svg"><title>05039skipL</title><path d="M37.317 31.763c.091 1.179-.526 2.479-1.653 3.533l-29.171 20.241c-.975.646-1.938.882-2.449.607-.54-.287-.862-1.199-.862-2.437v-42.847c0-1.3.359-2.287.931-2.572.13-.066.283-.096.452-.096.513 0 1.187.287 1.906.825l29.181 20.241c1.015.676 1.592 1.543 1.666 2.506zm.135-5.127l-29.119-20.201c-1.975-1.479-3.999-1.813-5.641-.997-1.712.855-2.693 2.833-2.693 5.422v42.847c0 3.373 1.592 4.734 2.543 5.245.614.327 1.297.486 2.019.486 1.177 0 2.462-.43 3.722-1.273l29.362-20.386c2.002-1.838 3.012-4.061 2.845-6.257-.15-1.941-1.231-3.678-3.039-4.886zm13.735-15.769c0-1.479 1.204-2.678 2.68-2.678h4.275c1.476 0 2.68 1.199 2.68 2.678v42.717c0 1.479-1.204 2.68-2.68 2.68h-4.275c-1.476 0-2.68-1.201-2.68-2.68v-42.717zm6.955-5.867h-4.275c-3.233 0-5.862 2.631-5.862 5.867v42.717c0 3.235 2.629 5.867 5.862 5.867h4.275c3.231 0 5.862-2.631 5.862-5.867v-42.717c0-3.235-2.631-5.867-5.862-5.867z"/></svg>