<svg width="64" height="64" viewBox="0 0 64 64" xmlns="http://www.w3.org/2000/svg"><title>05039skipF</title><path d="M53.424 9.398c-1.095 0-1.988.891-1.988 1.986v41.861c0 1.095.893 1.988 1.988 1.988h4.189c1.095 0 1.988-.893 1.988-1.988v-41.861c0-1.095-.893-1.986-1.988-1.986h-4.189zm-48.313.005l-.164.024c-.207.106-.554.734-.554 1.95v41.987c0 1.141.303 1.716.508 1.827.404.036.927-.022 1.75-.566l28.57-19.825c.891-.843 1.423-1.928 1.348-2.889-.058-.751-.513-1.418-1.351-1.974l-28.602-19.841c-.595-.443-1.146-.693-1.507-.693zm.005 50.22c-.821 0-1.591-.185-2.285-.554-1.062-.573-2.831-2.068-2.831-5.705v-41.987c0-2.788 1.091-4.933 2.992-5.884 1.832-.91 4.061-.559 6.194 1.038l28.515 19.781c1.928 1.288 3.089 3.163 3.252 5.265.178 2.352-.883 4.716-2.992 6.649l-28.84 20.034c-1.343.896-2.72 1.363-4.006 1.363zm52.497.007h-4.189c-3.52 0-6.382-2.862-6.382-6.384v-41.861c0-3.522 2.862-6.384 6.382-6.384h4.189c3.52 0 6.382 2.862 6.382 6.384v41.861c0 3.522-2.862 6.384-6.382 6.384z"/></svg>