<svg width="64" height="64" viewBox="0 0 64 64" xmlns="http://www.w3.org/2000/svg"><title>05040skipbackL</title><path d="M12.817 53.583c0 1.479-1.204 2.678-2.683 2.678h-4.272c-1.476 0-2.68-1.199-2.68-2.678v-42.717c0-1.479 1.204-2.68 2.68-2.68h4.272c1.479 0 2.683 1.201 2.683 2.68v42.717zm13.87-20.899c-.091-1.177.526-2.476 1.653-3.53l29.171-20.241c.975-.646 1.938-.882 2.449-.607.538.287.862 1.199.862 2.437v42.847c0 1.297-.359 2.287-.931 2.572-.13.064-.283.096-.452.096-.513 0-1.189-.287-1.906-.825l-29.181-20.241c-1.017-.678-1.592-1.543-1.666-2.508zm-.135 5.13l29.119 20.201c1.973 1.479 3.999 1.813 5.641.997 1.71-.855 2.693-2.833 2.693-5.422v-42.847c0-3.373-1.592-4.734-2.543-5.245-.614-.327-1.297-.486-2.019-.486-1.179 0-2.462.43-3.722 1.27l-29.362 20.388c-2.002 1.838-3.014 4.058-2.847 6.257h.002c.147 1.941 1.231 3.678 3.039 4.886zm-20.69 21.636h4.272c3.233 0 5.864-2.631 5.864-5.867v-42.717c0-3.235-2.631-5.867-5.864-5.867h-4.272c-3.233 0-5.862 2.631-5.862 5.867v42.717c0 3.235 2.629 5.867 5.862 5.867z"/></svg>