<svg width="64" height="64" viewBox="0 0 64 64" xmlns="http://www.w3.org/2000/svg"><title>05040skipbackF</title><path d="M58.872 9.399c-.169 0-.643.06-1.416.64l-28.684 19.899c-.84.561-1.29 1.223-1.348 1.974-.077.98.498 2.08 1.618 3.103l28.344 19.641c.785.518 1.3.575 1.485.575.426-.152.729-.727.729-1.866v-41.988c0-1.218-.349-1.847-.568-1.955l-.161-.024zm.007 50.227c-1.278 0-2.648-.462-3.963-1.339l-28.611-19.848c-2.355-2.123-3.448-4.466-3.262-6.862.161-2.102 1.322-3.977 3.267-5.277l28.575-19.821c2.046-1.538 4.319-1.888 6.12-.982 1.9.949 2.99 3.094 2.99 5.882v41.988c0 3.638-1.77 5.133-2.824 5.704-.701.371-1.471.556-2.292.556zm-52.497-50.229c-1.095 0-1.989.893-1.989 1.989v41.86c0 1.095.893 1.989 1.989 1.989h4.187c1.098 0 1.989-.893 1.989-1.989v-41.86c0-1.095-.891-1.989-1.989-1.989h-4.187zm4.187 50.234h-4.187c-3.52 0-6.382-2.863-6.382-6.385v-41.86c0-3.522 2.863-6.385 6.382-6.385h4.187c3.52 0 6.382 2.863 6.382 6.385v41.86c0 3.522-2.863 6.385-6.382 6.385z"/></svg>