<svg width="64" height="64" viewBox="0 0 64 64" xmlns="http://www.w3.org/2000/svg"><title>05039skipC</title><path d="M49.067 43.465c0 1.675-1.363 3.038-3.038 3.038h-2.293c-1.675 0-3.038-1.363-3.038-3.038v-22.929c0-1.675 1.363-3.038 3.038-3.038h2.293c1.675 0 3.038 1.363 3.038 3.038v22.929zm-14.121-8.557l-15.74 10.927c-.666.444-1.323.67-1.926.67-.369 0-.721-.085-1.041-.256-.486-.262-1.306-.962-1.306-2.718v-22.997c0-1.346.506-2.372 1.385-2.812.497-.25 1.534-.51 2.912.523l15.633 10.844c.945.631 1.506 1.534 1.585 2.543.087 1.146-.446 2.308-1.502 3.277zm-2.946-34.908c-17.764 0-32 14.362-32 32 0 17.638 14.236 32 32 32s32-14.236 32-32-14.236-32-32-32z"/></svg>