<svg width="64" height="64" viewBox="0 0 64 64" xmlns="http://www.w3.org/2000/svg"><title>05040skipbackC</title><path d="M49.067 43.531c0 1.756-.819 2.455-1.306 2.718-.322.171-.672.256-1.041.256-.604 0-1.261-.226-1.926-.67l-15.74-10.927c-1.056-.969-1.589-2.131-1.502-3.277.079-1.009.64-1.911 1.585-2.543l15.633-10.844c1.378-1.033 2.415-.772 2.912-.523.879.439 1.385 1.466 1.385 2.812v22.997zm-25.764-.066c0 1.675-1.363 3.038-3.038 3.038h-2.293c-1.675 0-3.038-1.363-3.038-3.038v-22.929c0-1.675 1.363-3.038 3.038-3.038h2.293c1.675 0 3.038 1.363 3.038 3.038v22.929zm8.698-43.465c-17.764 0-32 14.236-32 32s14.236 32 32 32 32-14.362 32-32c0-17.638-14.236-32-32-32z"/></svg>