<svg width="64" height="64" viewBox="0 0 64 64" xmlns="http://www.w3.org/2000/svg"><title>02004smokeC</title><path d="M15.434 52.27h3.91v9.055c-1.338-.617-2.675-1.338-3.91-2.058v-6.997zm48.566-20.27c0 15.949-11.627 29.016-26.855 31.486v-11.318c-.412 0-.72.103-1.132 0h-.823v11.627c-1.029.103-2.161.206-3.19.206-3.704 0-7.305-.72-10.701-1.852v-11.73h-7.82v7.717c-3.91-2.778-7.203-6.379-9.466-10.701h22.945c.103-.72.309-1.338.617-1.955h-24.592c-1.852-4.116-2.984-8.643-2.984-13.479l.103-1.646h9.158l-1.338 1.338c-.412.412-.72 1.029-.72 1.646v8.026c0 .514.412 1.029 1.029 1.029.514 0 1.029-.412 1.029-1.029v-8.026c0-.103 0-.206.103-.309l7.717-7.511c.103-.103.412-.103.514 0l7.717 7.511c.103.103.103.206.103.309v8.026c0 .514.412 1.029 1.029 1.029.514 0 .926-.412.926-1.029v-8.026c0-.617-.309-1.235-.72-1.646l-1.338-1.338h9.363c.206 0 .514.206.617.309l.514 1.235c.617-.206 1.235-.309 1.955-.412l-.72-1.646c-.514-.823-1.441-1.441-2.367-1.441h-11.421l-3.396-3.293c.514-2.675 3.087-4.63 5.865-4.219.514.103 1.029-.309 1.132-.823.103-.514-.309-1.029-.823-1.132-1.543-.206-3.087.103-4.424.823-.206-1.029-.206-1.955 0-2.984.72-5.453 5.762-9.26 11.215-8.54 1.441.206 2.881.72 4.116 1.543.412.309 1.029.206 1.338-.309.309-.514.206-1.029-.309-1.338-1.441-.926-3.087-1.543-4.836-1.852-6.482-.926-12.553 3.704-13.479 10.186-.206 1.543-.103 3.087.309 4.527-.72.72-1.338 1.646-1.646 2.675-.823-.309-1.852-.206-2.469.514l-4.527 4.219h-11.113c1.852-15.949 15.331-28.399 31.794-28.399 17.698 0 32 14.302 32 32zm-43.215 1.132h-6.688v6.688h6.688v-6.688zm13.685-7.717c-1.235-2.367-4.424-1.955-4.527-1.955-.514.103-.926.617-.823 1.132.103.514.617.926 1.132.823 0 0 1.955-.206 2.572.823.206.309.514.514.823.514.103 0 .309 0 .412-.103.514-.103.72-.72.412-1.235zm3.498-1.132c.309 0 .72-.206.823-.514.823-1.646 1.029-3.601.412-5.35-.617-1.749-1.852-3.19-3.498-4.116-.514-.206-1.029 0-1.338.412-.206.514 0 1.029.412 1.338 1.235.617 2.161 1.646 2.572 2.984.412 1.338.309 2.675-.309 3.91-.206.514 0 1.029.412 1.338h.514zm-6.688 29.736c-.412.206-.823.412-1.235.412-.72 0-1.441-.309-1.852-.926-.514-.72-.926-1.646-1.235-2.469h-2.469v6.688h6.688v-3.704h.103zm12.862-29.016c-.514 0-1.029.412-1.029.926s.412 1.029.926 1.029c3.807.206 6.688 3.395 6.482 7.203-.103 1.852-.926 3.498-2.264 4.733-1.338 1.235-3.087 1.852-4.939 1.749-.514 0-1.029-.103-1.441-.206-.309-.206-.823-.103-1.132.103-.412.309-.412.823-.206 1.235.514.823.72 1.749.72 2.675-.103 2.469-2.264 4.424-4.836 4.322h-1.338c-1.646-.103-3.293.514-4.63 1.543-.206-.617-.309-1.235-.309-1.955.103-2.264 1.852-4.116 4.116-4.424.514-.103.926-.514.823-1.029-.103-.514-.514-.926-1.029-.823-1.029.103-1.955.412-2.675.926-.103-.412-.103-.823-.103-1.235 0-3.807 3.087-6.894 6.894-6.894.514 0 1.029-.412 1.029-1.029 0-.514-.412-1.029-1.029-1.029-3.19 0-5.968 1.749-7.511 4.219-.823 1.338-1.338 2.881-1.338 4.63 0 .309 0 .72.103 1.029.103.412.103.926.309 1.338l.103.206c-.926 1.029-1.441 2.367-1.543 3.91-.103 1.441.412 2.984 1.235 4.219.206.206.514.412.823.412.309 0 .617-.103.823-.412.926-1.235 2.367-1.852 3.91-1.852h1.338c3.601.206 6.688-2.572 6.894-6.174 0-.617 0-1.338-.206-1.955h.206c2.367.103 4.63-.72 6.379-2.264 1.749-1.543 2.778-3.704 2.881-6.071.103-4.63-3.601-8.746-8.437-9.055z"/></svg>