<svg width="64" height="64" viewBox="0 0 64 64" xmlns="http://www.w3.org/2000/svg"><title>02004smokeL</title><path d="M25.395 56.902h3.925v-11.087h-3.925v11.087zm-11.868-5.787h6.675v-6.675h-6.675v6.675zm20.987 0h6.677v-3.643c-.365.242-.788.386-1.234.386h-.026c-.714-.007-1.382-.354-1.8-.935-.543-.758-.942-1.603-1.193-2.483h-2.423v6.675zm-10.493-17.646h6.677v-6.677h-6.677v6.677zm-1.809 30.531h10.404v-1.95h-10.404v1.95zm23.328-55.899c-.476-.242-1.062-.049-1.303.431-.242.478-.049 1.062.431 1.303 1.202.607 2.098 1.644 2.519 2.923.423 1.279.322 2.646-.285 3.849-.242.479-.049 1.062.431 1.303.139.071.288.105.436.105.354 0 .697-.197.867-.534.839-1.667.979-3.56.395-5.332-.584-1.772-1.824-3.21-3.491-4.049zm-5.712 9.108c-.532.077-.899.569-.822 1.101.077.53.569.897 1.101.82.019-.004 1.976-.236 2.519.852.17.341.513.538.869.538.146 0 .294-.034.434-.103.479-.24.674-.822.433-1.303-1.182-2.364-4.401-1.927-4.534-1.905zm-.749 19.399c.054.457.137.908.262 1.35l.084.18c-.871 1.056-1.433 2.375-1.51 3.839-.077 1.48.369 2.97 1.253 4.201.18.251.468.401.775.405h.013c.303 0 .59-.142.773-.386.908-1.202 2.358-1.869 3.922-1.79l1.337.026c3.577.221 6.626-2.564 6.813-6.134.034-.655-.028-1.303-.187-1.929l.178.011c2.335.127 4.579-.67 6.315-2.236 1.738-1.564 2.762-3.71 2.886-6.046.253-4.819-3.463-8.947-8.284-9.199-.545-.037-.991.384-1.021.918-.028.536.384.993.92 1.021 3.751.197 6.643 3.409 6.444 7.16-.096 1.817-.891 3.487-2.244 4.705-1.352 1.217-3.105 1.826-4.914 1.74-.47-.024-1.021-.127-1.414-.228-.348-.189-.785-.148-1.096.12-.36.311-.44.839-.191 1.244.485.788.717 1.693.669 2.618-.133 2.502-2.3 4.426-4.804 4.296l-1.337-.026c-1.682-.097-3.306.464-4.555 1.519-.238-.611-.346-1.26-.315-1.907.12-2.281 1.85-4.12 4.115-4.373.532-.058.916-.539.856-1.071-.06-.534-.545-.925-1.071-.858-.991.11-1.893.455-2.695.944-.066-.388-.112-.779-.112-1.176 0-3.772 3.07-6.841 6.841-6.841.536 0 .97-.434.97-.97 0-.538-.434-.972-.97-.972-3.163 0-5.933 1.687-7.48 4.203-.82 1.335-1.302 2.901-1.302 4.581 0 .358.03.712.073 1.064zm5.991 9.083v11.211h-13.807v-13.029h-7.81v13.029h-13.964v-15.983h27.268c.122-.682.328-1.333.612-1.942h-34.05c-.148 0-.199-.002-.294-.099-.067-.069-.066-.219-.013-.358l6.267-14.099c.159-.273.457-.436.655-.436h9.379l-1.36 1.313c-.449.434-.708 1.043-.708 1.669v8.012c0 .536.434.972.97.972s.97-.436.97-.972v-8.012c0-.101.043-.202.116-.273l7.712-7.439c.148-.144.38-.144.528-.002l7.712 7.441c.073.071.116.172.116.273v8.012c0 .536.434.972.97.972s.97-.436.97-.972v-8.012c0-.626-.257-1.234-.71-1.671l-1.358-1.311h9.304c.199 0 .496.163.609.345l.53 1.189c.597-.189 1.238-.339 1.92-.449l-.723-1.62c-.493-.854-1.41-1.406-2.335-1.406h-11.316l-3.409-3.287c.536-2.695 3.066-4.557 5.836-4.175.526.071 1.021-.298 1.094-.83.073-.532-.298-1.021-.83-1.096-1.573-.215-3.088.114-4.386.818-.169-.983-.189-1.987-.051-2.997.745-5.401 5.744-9.194 11.147-8.441 1.459.2 2.817.706 4.04 1.502.448.292 1.051.165 1.343-.285.292-.449.165-1.051-.285-1.343-1.463-.953-3.088-1.558-4.832-1.8-6.456-.891-12.443 3.639-13.336 10.1-.212 1.538-.109 3.064.272 4.547-.727.738-1.313 1.618-1.667 2.628-.832-.346-1.813-.197-2.502.468l-4.339 4.188h-11.392c-.925 0-1.843.552-2.382 1.498l-6.409 14.425c-.283.648-.131 1.465.303 2.053.433.59 1.141.901 1.873.901h4.227v17.925h15.87v2.126h7.892v-2.126h15.702v-13.183c-.361.032-.721.067-1.09.047l-.852-.017z"/></svg>