<svg width="64" height="64" viewBox="0 0 64 64" xmlns="http://www.w3.org/2000/svg"><title>02004smokeF</title><path d="M45.144 23.892c-.2-.3-.5-.5-.7-.5h-9.6l.2.1 1.4 1.4c.5.4.7 1.1.7 1.7v8.2c0 .5-.4 1-1 1-.5 0-1-.4-1-1v-8.2c0-.1 0-.2-.1-.3l-7.9-7.6c-.2-.2-.4-.2-.6 0l-7.9 7.6c-.1.1-.1.2-.1.3v8.2c0 .5-.4 1-1 1-.5 0-1-.4-1-1v-8.2c0-.6.3-1.3.7-1.7l1.4-1.4h-9.5c-.2 0-.5.2-.7.5l-6.4 14.3c-.1.2 0 .3 0 .4.1.1.2.1.3.1h34.6c.2-.8.6-1.6 1-2.3-.1-.3-.1-.7-.2-1.1l-.1-1.2c0-1.8.5-3.6 1.5-5.2 1.4-2.3 3.6-3.9 6.1-4.5l-.1-.6zm-14.7 9.4h-7v-7h7v7zm-7 24.4h7v2.4h-7v-2.4zm30.2-39.8c-.5 0-1 .4-1 .9s.4 1 .9 1c3.7.2 6.5 3.4 6.3 7-.1 1.8-.9 3.4-2.2 4.6-1.3 1.2-3.1 1.8-4.8 1.7-.5 0-1-.1-1.4-.2-.3-.2-.8-.1-1.1.1-.4.3-.4.8-.2 1.2.5.8.7 1.7.7 2.6-.1 2.5-2.3 4.4-4.7 4.2h-1.3c-1.7-.1-3.3.5-4.5 1.5-.2-.6-.3-1.2-.3-1.9.1-2.2 1.8-4.1 4-4.3.5-.1.9-.5.8-1.1-.1-.5-.5-.9-1.1-.8-1 .1-1.9.4-2.7.9-.1-.4-.1-.8-.1-1.2 0-3.7 3-6.7 6.7-6.7.5 0 1-.4 1-1s-.4-1-1-1c-3.1 0-5.8 1.7-7.4 4.1-.8 1.3-1.3 2.9-1.3 4.5 0 .4 0 .7.1 1 .1.4.1.9.3 1.3l.1.2c-.9 1-1.4 2.3-1.5 3.8-.1 1.5.4 2.9 1.2 4.1.2.2.5.4.8.4.3 0 .6-.1.8-.4.9-1.2 2.3-1.8 3.9-1.8h1.3c3.5.2 6.5-2.5 6.7-6 0-.6 0-1.3-.2-1.9h.2c2.3.1 4.5-.7 6.2-2.2 1.7-1.5 2.7-3.7 2.8-5.9.4-4.4-3.2-8.5-8-8.7zm-23.9.6c.5-2.7 3-4.5 5.7-4.1.5.1 1-.3 1.1-.8.1-.5-.3-1-.8-1.1-1.5-.2-3 .1-4.3.8-.2-1-.2-2 0-3 .7-5.3 5.6-9 11-8.3 1.4.2 2.8.7 4 1.5.4.3 1 .2 1.3-.3.3-.4.2-1-.3-1.3-1.4-.9-3-1.5-4.8-1.8-6.4-.8-12.3 3.7-13.1 10-.2 1.5-.1 3 .3 4.5-.7.7-1.3 1.6-1.6 2.6l1.5 1.3zm8.7 0c.1.5.6.9 1.1.8 0 0 1.9-.2 2.5.8.2.3.5.5.9.5.1 0 .3 0 .4-.1.5-.2.7-.8.4-1.3-1.2-2.3-4.3-1.9-4.5-1.9-.5.2-.9.7-.8 1.2zm6.4-10c-.5-.2-1 0-1.3.4-.2.5 0 1 .4 1.3 1.2.6 2.1 1.6 2.5 2.9.4 1.3.3 2.6-.3 3.8-.2.5 0 1 .4 1.3.1.1.3.1.4.1.3 0 .7-.2.9-.5.8-1.6 1-3.5.4-5.2-.5-1.9-1.8-3.3-3.4-4.1zm-22.5 53.1h9.2v2.5h-9.2v-2.5zm23.7-17.2h-1.5c-1 0-1.9.4-2.5 1.2-.2.3-.5.5-.8.7v5.1h-7v-7h3.3c-.5-1.1-.8-2.3-.8-3.5h-29v17h15.8v-13.6h7v13.4h15.6l-.1-13.3zm-26.3 6.9h-7v-7h7v7z"/></svg>