<svg width="64" height="64" viewBox="0 0 64 64" xmlns="http://www.w3.org/2000/svg"><title>01013snowmobileF</title><path d="M30.279 45.55h-19.765c-2.829 0-5.194-1.956-5.861-4.582-.922.583-1.542 1.607-1.542 2.777 0 1.815 1.476 3.293 3.291 3.293h21.13c1.148 0 2.158-.593 2.747-1.488zm33.328.731c-1.977 1.612-5.342 3.334-8.864 3.334h-11.549c-.593 0-1.074-.482-1.074-1.074 0-.593.482-1.074 1.074-1.074h8.624l-1.324-2.757c-4.559.634-10.256.84-16.887.84h-.967c-.261.739-.665 1.41-1.199 1.963l.021.031c.349.48.242 1.15-.238 1.499-.189.138-.411.205-.628.205-.333 0-.661-.154-.872-.443l-.049-.064c-.31.133-.636.234-.973.308v.08c0 .593-.482 1.074-1.074 1.074-.571 0-1.033-.452-1.063-1.02h-1.394c-.031.567-.491 1.02-1.065 1.02-.573 0-1.033-.452-1.063-1.02h-1.398c-.031.567-.491 1.02-1.063 1.02-.573 0-1.033-.452-1.065-1.02h-1.392c-.031.567-.491 1.02-1.065 1.02-.573 0-1.035-.452-1.065-1.02h-1.394c-.031.567-.491 1.02-1.065 1.02-.571 0-1.031-.452-1.063-1.02h-1.398c-.027.567-.489 1.02-1.063 1.02-.573 0-1.033-.452-1.065-1.02h-1.392c-.031.567-.491 1.02-1.065 1.02-.593 0-1.074-.482-1.074-1.074v-.045c-.433-.078-.844-.207-1.234-.382l-.076.103c-.209.289-.536.443-.87.443-.22 0-.439-.066-.63-.205-.48-.349-.585-1.02-.24-1.499l.07-.096c-.285-.302-.524-.641-.733-1.004l-.205.066c-.109.037-.222.053-.331.053-.452 0-.874-.289-1.022-.743-.183-.563.125-1.168.688-1.351l.189-.062c-.027-.218-.066-.435-.066-.663 0-.181.035-.355.055-.534l-.273-.088c-.565-.185-.874-.79-.69-1.353.183-.563.79-.872 1.353-.69l.24.078c.189-.345.409-.665.665-.959l-.189-.263c-.351-.482-.246-1.152.234-1.501s1.152-.242 1.499.236l.156.214c.17-.084.341-.16.521-.226.294-2.143 1.689-3.939 3.613-4.759 7.557 1.23 28.9 4.428 46.376 4.428 2.81 0 5.522-.084 8.06-.271-.786 3.317-4.251 5.235-9.878 6.296l1.497 3.116h.542c2.96 0 5.892-1.534 7.505-2.851.462-.372 1.135-.306 1.511.154.374.46.306 1.135-.152 1.511zm-1.074-10.373c-18.119 1.355-45.389-2.722-54.062-4.134-1.71-1.045-2.213-3.244-1.56-4.857.677-1.667 2.621-2.515 4.847-2.088l19.295 3.763c.56.111 1.271.273 1.995.448l2.266-5.908c.125-.614.762-2.071 3.8-2.125l-1.445-3.01-4.908-1.922c-.552-.216-.825-.84-.608-1.392.216-.554.842-.825 1.392-.608l5.695 2.233 2.363 4.923c1.62.257 3.515.739 5.73 1.484 9.848 3.317 15.013 7.748 15.396 13.179l-.197.016z"/></svg>