<svg width="64" height="64" viewBox="0 0 64 64" xmlns="http://www.w3.org/2000/svg"><title>01013snowmobileC</title><path d="M31.923 0c-13.707 0-25.367 8.633-29.926 20.746l.111.013 20.081 3.917c.582.115 1.322.283 2.074.465l2.357-6.149c.132-.638.793-2.153 3.955-2.21l-1.503-3.133-5.107-2c-.574-.227-.859-.876-.633-1.45.225-.576.878-.859 1.447-.633l5.928 2.323 2.459 5.122c1.685.27 3.66.769 5.964 1.545 10.274 3.46 15.651 8.087 16.026 13.756l-.208-.026c-17.932 1.341-44.461-2.427-54.782-4.062-.087.735-.13 1.486-.166 2.236 8.995 1.422 29.566 4.344 46.61 4.344 2.925 0 5.745-.089 8.389-.285-.818 3.454-4.425 5.45-10.281 6.553l1.558 3.243h.565c3.082 0 6.132-1.598 7.811-2.965.48-.389 1.182-.321 1.571.159.391.478.319 1.182-.157 1.573-2.057 1.677-5.56 3.469-9.224 3.469h-12.019c-.616 0-1.116-.499-1.116-1.118 0-.616.499-1.118 1.116-1.118h8.976l-1.377-2.869c-4.744.659-10.674.876-17.575.876h-1.005c-.272.769-.693 1.464-1.25 2.043l.023.032c.363.499.253 1.199-.247 1.562-.2.142-.429.213-.655.213-.346 0-.689-.162-.908-.461l-.049-.068c-.323.138-.663.244-1.014.323v.083c0 .616-.502 1.118-1.118 1.118-.595 0-1.075-.472-1.107-1.063h-1.45c-.032.591-.512 1.063-1.107 1.063-.597 0-1.078-.472-1.105-1.063h-1.456c-.032.591-.51 1.063-1.105 1.063-.597 0-1.075-.472-1.107-1.063h-1.452c-.032.591-.51 1.063-1.107 1.063s-1.075-.472-1.107-1.063h-1.452c-.032.591-.51 1.063-1.107 1.063l-.242-.049c5.396 10.047 16 16.882 28.204 16.882 17.675 0 32-14.325 32-32 0-17.673-14.325-32-32-32m-13.401 43.87h-16.3c-.204-.508-.389-1.027-.565-1.547h19.724c-.612.931-1.664 1.547-2.859 1.547" fill="#221F20"/></svg>