<svg width="64" height="64" viewBox="0 0 64 64" xmlns="http://www.w3.org/2000/svg"><title>01013snowmobileL</title><path d="M51.603 42.651c-.718.126-1.468.239-2.245.337-4.633.589-10.261.737-16.086.737h-23.347c-2.185 0-3.963-1.776-3.963-3.961 0-1.054.419-2.007 1.093-2.719.723-.762 1.738-1.246 2.869-1.246h22.578l4.558-11.89.073-.184c.09-.191.507-.478 1.866-.478.272 0 .597.036.909.063.767.065 1.63.201 2.612.427 1.171.27 2.474.637 3.936 1.131 9.241 3.11 14.123 7.232 14.123 11.92 0 3.173-3.569 4.914-8.977 5.862zm-42.413-12.41c-.984-.413-1.185-1.655-.896-2.365.331-.817 1.481-.989 2.471-.796l21.173 4.13-.928 2.417h-13.526l.002-.002-8.296-3.385zm54.565 14.867c-.379-.465-1.064-.532-1.529-.155-1.627 1.33-4.593 2.882-7.586 2.882h-.549l-1.512-3.152c6.508-1.225 10.173-3.575 10.173-7.894 0-5.789-5.249-10.493-15.602-13.979-2.239-.754-4.158-1.24-5.795-1.502l-2.39-4.976-5.756-2.258c-.557-.216-1.188.057-1.407.616-.218.559.057 1.188.616 1.407l4.962 1.946 1.46 3.043c-3.073.054-3.542 1.384-3.812 2.082l-2.3 5.984-21.548-4.204c-2.241-.434-4.21.417-4.899 2.111-.723 1.782-.063 4.289 2.08 5.188l3.383 1.38h-1.818c-2.608 0-4.826 1.644-5.712 3.944l-.159.059-.155-.214c-.354-.486-1.035-.593-1.518-.241-.484.352-.591 1.033-.241 1.516l.195.268c-.258.297-.48.622-.67.97l-.243-.08c-.57-.182-1.183.128-1.368.697-.186.572.126 1.183.695 1.368l.276.09c-.017.18-.054.356-.054.54 0 .23.042.448.069.67l-.193.061c-.572.186-.884.798-.697 1.37.149.459.574.75 1.033.75.109 0 .222-.017.335-.054l.207-.067c.212.367.455.71.741 1.016l-.069.096c-.352.484-.245 1.165.241 1.516.193.14.415.207.637.207.335 0 .668-.155.88-.448l.075-.105c.396.178.813.308 1.25.387v.046c0 .599.486 1.085 1.085 1.085.58 0 1.045-.459 1.074-1.03h1.412c.029.572.494 1.03 1.074 1.03.58 0 1.045-.459 1.074-1.03h1.412c.029.572.494 1.03 1.074 1.03.58 0 1.045-.459 1.074-1.03h1.414c.029.572.494 1.03 1.074 1.03.58 0 1.043-.459 1.074-1.03h1.412c.029.572.494 1.03 1.074 1.03.58 0 1.043-.459 1.074-1.03h1.412c.029.572.494 1.03 1.074 1.03.58 0 1.043-.459 1.074-1.03h1.412c.031.572.494 1.03 1.077 1.03.599 0 1.085-.486 1.085-1.085v-.082c.341-.075.67-.178.984-.314l.048.067c.214.293.545.448.88.448.222 0 .444-.067.637-.207.486-.352.593-1.033.241-1.516l-.023-.034c.136-.14.245-.302.367-.457h1.121c6.707 0 12.464-.209 17.074-.85l1.338 2.788h-8.719c-.599 0-1.085.486-1.085 1.087 0 .599.486 1.085 1.085 1.085h11.675c3.561 0 6.964-1.741 8.96-3.37.465-.379.534-1.064.155-1.529z"/></svg>