<svg width="64" height="64" viewBox="0 0 64 64" xmlns="http://www.w3.org/2000/svg"><title>06022soundonL</title><path d="M25.613 52.51c-.826.172-1.279.396-1.621.812l-6.119 7.408c-1.454-.812-4.233-2.462-6.68-4.484-2.479-2.046-4.754-4.587-5.881-5.905l6.473-7.841c.204-.246.32-.553.33-.871l.455-13.933c2.885 1.22 8.778 4.056 14.764 9.004 5.972 4.929 9.88 10.187 11.628 12.794l-13.35 3.015zm24.565-44.502c-7.981-6.591-18.412-9.307-28.626-7.423-.782.145-1.301.895-1.156 1.677.145.785.91 1.311 1.677 1.158 9.363-1.727 18.945.762 26.27 6.81 7.324 6.05 11.569 14.983 11.651 24.509.007.797.657 1.436 1.454 1.429l.128-.007c.735-.069 1.308-.691 1.301-1.446-.089-10.379-4.715-20.114-12.698-26.707zm-26.316 1.931c-.792.081-1.367.787-1.286 1.579.081.792.863 1.289 1.579 1.289 6.377-.556 12.686 1.242 17.649 5.342 4.966 4.1 8.013 9.897 8.584 16.321.069.794.77 1.38 1.562 1.308h.01c.787-.076 1.367-.772 1.299-1.562-.639-7.199-4.053-13.694-9.617-18.291-5.566-4.594-12.578-6.783-19.779-5.986zm13.239 13.903c-3.46-2.858-7.654-4.621-12.12-5.096-.797-.084-1.503.489-1.586 1.279-.084.792.489 1.503 1.281 1.586 3.903.416 7.565 1.955 10.59 4.454 3.025 2.499 5.229 5.804 6.372 9.558.204.667.846 1.08 1.515 1.016l.285-.057c.76-.234 1.19-1.038.957-1.8-1.308-4.297-3.832-8.079-7.295-10.94zm-7.929 10.635c-8.761-7.236-17.162-10.113-17.516-10.234-.433-.145-.908-.076-1.281.182-.374.261-.603.681-.617 1.139l-.507 15.48-6.921 8.382c-.433.524-.44 1.281-.017 1.813.135.17 3.306 4.142 7.044 7.228 3.743 3.094 8.042 5.285 8.224 5.376.251.128.524.177.787.15.371-.034.726-.212.976-.516l6.695-8.106 15.551-3.512c.445-.103.817-.408 1.001-.824.184-.416.162-.898-.064-1.294-.182-.325-4.597-8.03-13.355-15.263z"/></svg>