<svg width="64" height="64" viewBox="0 0 64 64" xmlns="http://www.w3.org/2000/svg"><title>06022soundonC</title><path d="M52.407 35.486l-.085.004c-.277.002-.537-.102-.733-.294-.196-.194-.305-.449-.307-.724-.053-6.388-2.901-12.38-7.813-16.437-4.43-3.659-10.026-5.372-15.758-4.827-.62.06-1.246.147-1.862.26l-.104.015c-.524.049-.993-.313-1.091-.839-.102-.56.268-1.095.824-1.197.677-.124 1.365-.219 2.049-.283 6.269-.599 12.392 1.278 17.247 5.289 5.38 4.443 8.501 11.004 8.561 18.005.004.526-.403.98-.929 1.029zm-6.467-.258h-.004c-.564.047-1.065-.371-1.116-.931-.379-4.307-2.422-8.19-5.749-10.94-3.295-2.72-7.457-3.996-11.717-3.589l-.151.011h-.009c-.52.049-1.018-.36-1.076-.918-.028-.273.053-.539.226-.752.173-.211.42-.345.692-.373l.224-.021c4.741-.454 9.402.99 13.119 4.062 3.753 3.099 6.058 7.481 6.488 12.339.049.558-.366 1.056-.927 1.112zm-5.11.036c-.13.243-.345.42-.607.501l-.202.04c-.484.047-.937-.26-1.08-.726-.765-2.511-2.241-4.724-4.266-6.399-2.028-1.67-4.482-2.703-7.093-2.98-.562-.06-.971-.567-.912-1.129.06-.554.554-.956 1.129-.914 3.016.324 5.845 1.51 8.184 3.442 2.339 1.932 4.041 4.486 4.925 7.385.079.262.051.539-.077.78zm-12.648 12.397l-.077-.062-4.871 5.898s-2.935-1.487-5.44-3.555c-2.505-2.07-4.671-4.797-4.671-4.797l4.946-5.987.356-10.918s5.745 1.934 11.66 6.82c5.917 4.886 8.901 10.16 8.901 10.16l-10.803 2.441zm35.671-18.697c-1.676-17.592-17.298-30.493-34.89-28.817-17.594 1.676-30.495 17.298-28.817 34.89 1.676 17.594 17.298 30.495 34.89 28.817 17.592-1.676 30.493-17.298 28.817-34.89z"/></svg>