<svg width="64" height="64" viewBox="0 0 64 64" xmlns="http://www.w3.org/2000/svg"><title>06023soundoffC</title><path d="M52.406 35.485l-.085.004c-.278.002-.537-.102-.732-.295-.195-.193-.304-.448-.308-.724-.042-5.137-1.895-10.014-5.173-13.839l1.316-1.613c3.74 4.228 5.863 9.683 5.911 15.437.004.526-.403.981-.93 1.029zm-6.465-.259h-.004c-.567.049-1.066-.369-1.116-.93-.267-3.035-1.365-5.86-3.154-8.227l1.333-1.632c2.201 2.747 3.549 6.081 3.867 9.679.049.558-.365 1.057-.925 1.11zm-5.111.038c-.129.242-.344.418-.607.499l-.204.042c-.482.045-.936-.259-1.078-.726-.391-1.284-.97-2.486-1.709-3.581l1.344-1.645c1.025 1.395 1.819 2.952 2.331 4.629.079.263.053.539-.076.781zm-17.596 18.233s-1.182-.601-2.689-1.569l11.988-14.678c4.29 4.15 6.453 7.968 6.453 7.968l-10.804 2.441-4.948 5.837zm-8.609-1.653l33.369-40.853 1.946 1.59-33.367 40.855-1.949-1.592zm3.445-12.687l.357-10.918s4.067 1.371 8.883 4.716l-11.984 14.673c-1.305-1.354-2.203-2.483-2.203-2.483l4.948-5.988zm15.397-13.739l-1.322 1.62c-1.42-.711-2.961-1.167-4.561-1.337-.562-.059-.972-.567-.913-1.129.059-.554.552-.955 1.127-.915 2.004.214 3.92.819 5.669 1.762zm-6.113-5.65l-.153.011h-.006c-.52.051-1.019-.359-1.076-.917-.028-.274.053-.539.227-.754.172-.21.418-.344.69-.374l.223-.021c3.727-.354 7.399.465 10.606 2.32l-1.318 1.613c-2.785-1.524-5.96-2.186-9.193-1.878zm-1.874-8.323c.675-.123 1.365-.217 2.048-.282 5.232-.499 10.36.732 14.737 3.483l-1.308 1.6c-3.946-2.413-8.55-3.485-13.247-3.037-.62.059-1.246.144-1.859.259l-.104.013c-.524.051-.995-.31-1.091-.838-.102-.558.267-1.093.824-1.197zm38.374 17.518c-1.677-17.592-17.297-30.493-34.891-28.816-17.592 1.677-30.493 17.297-28.816 34.891 1.677 17.592 17.299 30.493 34.891 28.816 17.592-1.677 30.493-17.299 28.816-34.891z"/></svg>