<svg width="64" height="64" viewBox="0 0 64 64" xmlns="http://www.w3.org/2000/svg"><title>06023soundoffL</title><path d="M5.312 50.339l6.476-7.842c.203-.245.319-.551.328-.869l.454-13.933c2.238.946 6.283 2.87 10.779 5.989l1.833-2.245c-7.165-5.019-13.226-7.096-13.525-7.197-.435-.146-.909-.077-1.282.183-.375.259-.603.682-.617 1.136l-.506 15.481-6.923 8.383c-.432.524-.44 1.279-.015 1.813.086.111 1.487 1.862 3.495 3.925l1.835-2.25c-.973-1.013-1.786-1.936-2.332-2.574zm19.668-31.595c-.795-.082-1.499.489-1.586 1.282-.084.79.492 1.502 1.282 1.586 2.416.257 4.742.946 6.879 2.025l1.86-2.277c-2.598-1.405-5.454-2.297-8.435-2.616zm-3.426-18.159c-.783.143-1.302.894-1.158 1.677.146.783.911 1.309 1.68 1.156 7.859-1.447 15.869.084 22.572 4.189l1.845-2.26c-7.37-4.631-16.232-6.37-24.938-4.762zm31.797 10.396l-1.845 2.262c5.365 5.819 8.42 13.441 8.489 21.495.005.795.657 1.435 1.452 1.43l.128-.007c.736-.069 1.307-.694 1.302-1.445-.077-8.916-3.502-17.353-9.526-23.736zm3.554-8.464l-2.845-2.324-49.395 60.485 2.845 2.324 49.395-60.485zm-15.266 33.104c.203.667.847 1.079 1.517 1.015l.284-.057c.761-.232 1.19-1.037.958-1.798-.872-2.855-2.28-5.483-4.142-7.765l-1.867 2.285c1.445 1.885 2.549 4.019 3.25 6.32zm-2.675 13.873l-13.352 3.016c-.825.17-1.277.395-1.618.81l-6.12 7.41c-.822-.459-2.07-1.188-3.441-2.099l-1.83 2.243c2.623 1.768 4.848 2.905 4.977 2.971.252.126.524.175.788.148.37-.035.724-.212.976-.516l6.696-8.109 15.553-3.512c.445-.101.815-.405 1-.822.185-.417.161-.897-.064-1.292-.163-.289-3.621-6.323-10.453-12.71l-1.83 2.24c4.345 4.098 7.271 8.067 8.719 10.223zm-15.101-39.558c-.793.082-1.368.79-1.287 1.581.082.793.862 1.289 1.578 1.287 4.876-.425 9.709.531 13.933 2.835l1.862-2.28c-4.831-2.811-10.398-4.053-16.086-3.423zm26.524 24.533c.069.793.768 1.378 1.561 1.309l.01-.002c.788-.074 1.368-.771 1.299-1.561-.506-5.713-2.769-10.981-6.459-15.21l-1.852 2.267c3.102 3.707 5.004 8.267 5.441 13.197z"/></svg>