<svg width="64" height="64" viewBox="0 0 64 64" xmlns="http://www.w3.org/2000/svg"><title>06023soundoffF</title><path d="M24.509 54.351l16.15-3.647s-3.37-5.95-10.049-12.299l-17.987 22.019c2.469 1.626 4.492 2.65 4.492 2.65l7.394-8.723zm-14.584-29.03l-.534 16.321-7.392 8.949s1.505 1.893 3.647 4.077l17.972-22.004c-7.376-5.215-13.693-7.344-13.693-7.344zm10.497-24.596c-.72.131-1.193.82-1.062 1.538.131.717.803 1.208 1.538 1.062 8.074-1.48 16.293.088 23.174 4.299l1.691-2.071c-7.49-4.696-16.492-6.453-25.341-4.827zm32.337 10.56l-1.694 2.074c5.534 5.982 8.688 13.827 8.758 22.114.005.732.601 1.319 1.334 1.311l.113-.008c.677-.063 1.203-.634 1.195-1.326-.076-9.078-3.569-17.67-9.707-24.165zm-2.753 23.901c.063.727.705 1.263 1.432 1.198h.008c.725-.068 1.256-.707 1.193-1.432-.516-5.814-2.819-11.169-6.576-15.468l-1.699 2.079c3.216 3.823 5.189 8.527 5.642 13.623zm-27.238-24.903c-.725.073-1.253.722-1.18 1.45.073.722.717 1.251 1.44 1.18l.176-.015c4.991-.478 9.886.551 14.174 2.922l1.699-2.081c-4.89-2.836-10.515-4.08-16.308-3.455zm18.294 26.05c.186.612.775.989 1.389.929l.259-.05c.7-.214 1.092-.951.881-1.648-.886-2.904-2.318-5.575-4.213-7.895l-1.711 2.094c1.513 1.953 2.665 4.173 3.395 6.571zm-17.182-17.053c-.73-.063-1.379.45-1.455 1.175-.078.727.448 1.377 1.173 1.455 2.494.264 4.89.976 7.095 2.091l1.706-2.086c-2.627-1.414-5.512-2.313-8.519-2.635zm32.737-16.912l-2.897-2.368-50.332 61.632 2.897 2.368 50.332-61.632z"/></svg>