<svg width="64" height="64" viewBox="0 0 64 64" xmlns="http://www.w3.org/2000/svg"><title>06022soundonF</title><path d="M26.781 35.977c-8.993-7.426-17.72-10.366-17.72-10.366l-.543 16.594-7.517 9.102s3.292 4.143 7.099 7.288c3.807 3.145 8.269 5.405 8.269 5.405l7.405-8.965.112.094 16.421-3.71s-4.536-8.017-13.526-15.442zm-4.663-25.656c-.739.074-1.277.734-1.2 1.473.076.736.729 1.272 1.465 1.2l.178-.015c6.648-.635 13.134 1.351 18.281 5.601 5.188 4.284 8.376 10.343 8.97 17.063.066.739.719 1.284 1.458 1.218h.01c.734-.071 1.274-.721 1.21-1.458-.66-7.438-4.189-14.15-9.938-18.895-5.746-4.747-12.955-6.992-20.434-6.187zm27.228-2.039c-8.256-6.819-19.043-9.622-29.613-7.68-.731.133-1.213.833-1.08 1.565.135.729.818 1.228 1.565 1.078 9.778-1.791 19.774.795 27.419 7.11s12.076 15.639 12.16 25.579c.005.744.612 1.34 1.356 1.333l.117-.005c.688-.066 1.223-.647 1.216-1.348-.092-10.738-4.88-20.811-13.139-27.631zm-13.587 16.449c-3.575-2.951-7.9-4.77-12.509-5.262-.744-.064-1.402.459-1.481 1.195-.079.739.456 1.402 1.195 1.481 4.085.433 7.917 2.044 11.085 4.658 3.167 2.617 5.474 6.078 6.669 10.004.191.622.79 1.007 1.414.948l.265-.054c.708-.217 1.111-.966.894-1.677-1.353-4.436-3.957-8.34-7.533-11.294z"/></svg>