<svg width="64" height="64" viewBox="0 0 64 64" xmlns="http://www.w3.org/2000/svg"><title>06022soundonS</title><path d="M26.105 38.118c-6.687-6.685-13.408-10.357-15.619-11.468l-1.798 13.995-8.688 8.687s3.002 4.618 6.637 8.251c3.634 3.634 8.034 6.417 8.034 6.417l8.558-8.556.109.109 14.238-1.819c-1.124-2.225-4.825-8.973-11.471-15.616zm14.3 5.387c-1.363 0-2.598-.935-2.918-2.32-.836-3.589-2.641-6.85-5.219-9.431-2.628-2.627-5.945-4.445-9.593-5.261-1.617-.361-2.633-1.966-2.27-3.581.36-1.621 1.957-2.636 3.582-2.273 4.758 1.064 9.09 3.441 12.524 6.873 3.374 3.377 5.734 7.634 6.82 12.314.375 1.615-.629 3.226-2.242 3.601-.231.053-.457.078-.684.078zm10.43.744c-1.453 0-2.734-1.06-2.961-2.542-.996-6.464-3.972-12.328-8.601-16.958-4.676-4.676-10.598-7.662-17.129-8.633-1.641-.242-2.769-1.769-2.527-3.407.242-1.64 1.789-2.775 3.41-2.525 7.812 1.16 14.898 4.732 20.488 10.324 5.539 5.538 9.097 12.552 10.289 20.285.254 1.636-.871 3.169-2.508 3.421-.156.023-.309.035-.461.035zm10.16.205c-1.5 0-2.797-1.123-2.977-2.65-1.078-9.217-5.117-17.555-11.679-24.114-6.609-6.608-15.012-10.656-24.293-11.706-1.648-.186-2.832-1.672-2.644-3.318.183-1.646 1.68-2.857 3.316-2.642 10.649 1.205 20.285 5.847 27.863 13.425 7.527 7.524 12.156 17.086 13.398 27.656.192 1.646-.984 3.136-2.632 3.329l-.352.02z" fill="#000"/></svg>