<svg width="64" height="64" viewBox="0 0 64 64" xmlns="http://www.w3.org/2000/svg"><title>01027specialautoL</title><path d="M31.017 11.394c-6.212 0-11.266 5.052-11.266 11.266 0 6.212 5.055 11.266 11.266 11.266 6.214 0 11.266-5.055 11.266-11.266 0-6.214-5.052-11.266-11.266-11.266zm0 24.927c-7.533 0-13.66-6.127-13.66-13.66s6.127-13.66 13.66-13.66 13.663 6.127 13.663 13.66-6.13 13.66-13.663 13.66zm.31-22.109c3.299 0 5.573 1.895 5.573 4.658 0 3.88-4.436 4.281-4.436 6.085v1.645h-3.277v-1.756c0-3.254 4.19-3.454 4.19-5.795 0-1.071-.847-1.918-2.383-1.918-1.071 0-2.297.379-3.277 1.337l-1.561-2.317c1.381-1.204 3.099-1.94 5.17-1.94zm-.446 17.695c-1.157 0-2.073-.916-2.073-2.075 0-1.159.916-2.073 2.073-2.073 1.137 0 2.073.913 2.073 2.073 0 1.159-.936 2.075-2.073 2.075zm20.429 19.999c-1.64 0-2.977-1.337-2.977-2.977s1.337-2.977 2.977-2.977c1.643 0 2.977 1.337 2.977 2.977s-1.335 2.977-2.977 2.977zm-38.314 0c-1.64 0-2.977-1.337-2.977-2.977s1.337-2.977 2.977-2.977c1.643 0 2.977 1.337 2.977 2.977s-1.335 2.977-2.977 2.977zm49.53-13.638c-.521-.867-2.345-2.153-8.074-3.352-3.157-.661-6.611-.955-7.95-1.053l-.069-.004-.058-.042c-.463-.335-1.348-.969-2.372-1.687-.477.656-.998 1.268-1.55 1.829 1.452 1.015 2.671 1.9 2.835 2.02l.301.222.352.02c.038 0 4.33.259 8.018 1.033 3.017.63 4.704 1.255 5.587 1.667l.428.2-.41.233c-.242.14-.61.448-.357.96.264.541 1.031.989 1.907 1.122l.162.024.04.157c.541 2.175.346 4.458-.488 5.677-.503.485-2.33.771-3.751.88l-.222.018-.038-.219c-.468-2.696-2.784-4.651-5.509-4.651-2.725 0-5.043 1.958-5.509 4.655l-.033.204-27.228.002-.035-.204c-.463-2.7-2.782-4.658-5.509-4.658-2.627 0-4.933 1.867-5.48 4.438l-.042.204-.208-.011c-3.7-.184-4.321-1.153-4.709-2.308-.235-.714-.168-1.565-.129-1.895l.042-.113.878-1.253.016-.346.086-1.984.009-.217.217-.016c.242-.016.479-.067.729-.153.525-.175.891-.483.982-.818.058-.217-.007-.437-.184-.636-.273-.31-.798-.521-1.439-.583l-.224-.022.004-.224.007-.432c0-.634 1.177-.936 1.88-1.06l.554-.1c1.898-.335 3.676-.652 5.879-2.212 1.665-1.179 3.421-2.159 5.223-2.913-.399-.689-.745-1.412-1.038-2.159-1.907.811-3.778 1.862-5.564 3.126-1.771 1.253-3.157 1.499-4.91 1.809l-.574.102c-3.336.607-3.837 2.394-3.837 3.407 0 .909-.137 3.957-.164 4.558l-.004.071-.811 1.159-.049.242c-.04.184-.364 1.844.16 3.414.878 2.64 2.944 3.782 7.13 3.946l.173.009.051.168c.716 2.403 2.866 4.017 5.347 4.017 2.379 0 4.502-1.527 5.281-3.804l.058-.164h27.651l.058.164c.8 2.277 2.917 3.804 5.267 3.804 2.37 0 4.489-1.519 5.274-3.782l.055-.155.164-.009c3.15-.155 5.214-.814 5.961-1.911 1.738-2.529 1.627-7.298-.239-10.411z"/></svg>