<svg width="64" height="64" viewBox="0 0 64 64" xmlns="http://www.w3.org/2000/svg"><title>01027specialautoF</title><path d="M33.425 23.142v1.619h-3.225v-1.728c0-3.203 4.124-3.402 4.124-5.706 0-1.052-.834-1.885-2.348-1.885-1.052 0-2.259.373-3.225 1.316l-1.534-2.283c1.359-1.185 3.048-1.907 5.089-1.907 3.247 0 5.486 1.864 5.486 4.585 0 3.817-4.367 4.212-4.367 5.99zm-1.558 6.841c-1.139 0-2.04-.899-2.04-2.04s.901-2.04 2.04-2.04c1.119 0 2.04.899 2.04 2.04s-.921 2.04-2.04 2.04zm.133-21.983c-7.116 0-12.883 5.767-12.883 12.881 0 7.116 5.767 12.883 12.883 12.883 7.116 0 12.883-5.767 12.883-12.883 0-7.114-5.767-12.881-12.883-12.881zm20.061 45.116c-1.936 0-3.509-1.573-3.509-3.509s1.573-3.511 3.509-3.511c1.938 0 3.511 1.576 3.511 3.511 0 1.936-1.573 3.509-3.511 3.509zm-39.8 0c-1.936 0-3.511-1.573-3.511-3.509s1.576-3.511 3.511-3.511c1.936 0 3.511 1.576 3.511 3.511 0 1.936-1.576 3.509-3.511 3.509zm50.388-12.667c-.583-.975-3.579-2.071-7.579-2.909-4-.84-8.515-1.098-8.515-1.098s-2.187-1.597-4.377-3.092c-2.776 2.269-6.32 3.635-10.178 3.635-5.569 0-10.485-2.841-13.379-7.151-3.286.989-6.01 2.505-8.253 4.092-2.278 1.613-4.063 1.807-6.193 2.193-2.128.386-2.966 1.226-2.966 2.324 0 1.095-.194 5.224-.194 5.224l-.903 1.29s-.323 1.549.129 2.902c.637 1.907 1.868 3.151 6.597 3.278.674 2.374 2.837 4.129 5.423 4.129 2.512 0 4.62-1.654 5.359-3.924h29.082c.74 2.269 2.85 3.924 5.359 3.924 2.499 0 4.6-1.637 5.351-3.886 1.595-.079 4.785-.371 5.53-1.456 1.547-2.256 1.357-6.73-.292-9.475z"/></svg>