<svg width="64" height="64" viewBox="0 0 64 64" xmlns="http://www.w3.org/2000/svg"><title>01027specialautoC</title><path d="M16.368 40.902c-1.531 0-2.78 1.248-2.78 2.78 0 1.533 1.248 2.78 2.78 2.78 1.533 0 2.78-1.246 2.78-2.78 0-1.531-1.246-2.78-2.78-2.78zm31.516 0c-1.533 0-2.78 1.248-2.78 2.78 0 1.533 1.246 2.78 2.78 2.78 1.533 0 2.782-1.246 2.782-2.78 0-1.531-1.248-2.78-2.782-2.78zm-15.903-24.274c1.199 0 1.859.661 1.859 1.493 0 1.825-3.266 1.982-3.266 4.519v1.368h2.554v-1.283c0-1.407 3.457-1.72 3.457-4.742 0-2.155-1.774-3.631-4.345-3.631-1.615 0-2.953.573-4.03 1.51l1.216 1.808c.766-.749 1.72-1.042 2.554-1.042zm24.518 27.304c1.227-1.787 1.074-5.327-.229-7.502-.463-.772-2.835-1.641-6.003-2.303-3.166-.665-6.741-.869-6.741-.869s-1.733-1.265-3.468-2.449c-2.198 1.797-5.004 2.88-8.06 2.88-4.41 0-8.302-2.252-10.593-5.664-2.604.783-4.759 1.984-6.535 3.241-1.804 1.278-3.219 1.431-4.905 1.737-1.684.307-2.348.969-2.348 1.838 0 .869-.152 4.137-.152 4.137l-.716 1.023s-.255 1.225.103 2.297c.502 1.51 1.478 2.496 5.222 2.595.534 1.881 2.246 3.271 4.294 3.271 1.988 0 3.659-1.31 4.244-3.108h23.03c.583 1.797 2.256 3.108 4.242 3.108 1.98 0 3.644-1.298 4.236-3.08 1.265-.062 3.79-.292 4.379-1.152zm-34.701-22.995c0 5.634 4.568 10.202 10.2 10.202 5.636 0 10.202-4.568 10.202-10.202s-4.566-10.202-10.202-10.202c-5.632 0-10.2 4.568-10.2 10.202zm42.201 11.065c0 17.67-14.327 31.997-31.999 31.997-17.674 0-32.001-14.327-32.001-31.997 0-17.677 14.327-32.001 32.001-32.001 17.672 0 31.999 14.324 31.999 32.001zm-30.489-5.473c0 .903-.729 1.615-1.617 1.615-.903 0-1.615-.712-1.615-1.615 0-.905.712-1.617 1.615-1.617.888 0 1.617.712 1.617 1.617z"/></svg>