<svg width="64" height="64" viewBox="0 0 64 64" xmlns="http://www.w3.org/2000/svg"><title>03007speedingL</title><path d="M61.404 41.401c-7.549.614-15.213.992-22.914 1.129l.017-.392c0-1.146-.297-2.223-.819-3.157l14.255-12.091c.836-.707.938-1.957.229-2.791-.707-.836-1.955-.938-2.791-.229l-14.606 12.388c-.843-.4-1.782-.631-2.779-.631-3.596 0-6.511 2.915-6.511 6.511l.015.392c-7.696-.134-15.357-.507-22.904-1.119l-.005-.397c0-4.288.921-8.361 2.579-12.037l1.992 1.036c.193.1.397.146.597.146.468 0 .919-.254 1.151-.697.332-.636.083-1.419-.551-1.748l-2.021-1.051c2.206-3.929 5.287-7.303 8.978-9.855l1.16 1.914c.244.4.673.622 1.109.622.229 0 .461-.059.673-.188.609-.371.804-1.168.434-1.779l-1.182-1.945c3.815-2.169 8.161-3.51 12.788-3.776v2.247c0 .717.58 1.294 1.297 1.294.714 0 1.294-.578 1.294-1.294v-2.284c4.934.149 9.563 1.516 13.602 3.812l-1.182 1.945c-.373.612-.178 1.409.434 1.779.21.129.444.188.673.188.436 0 .863-.222 1.107-.622l1.163-1.914c3.691 2.552 6.772 5.926 8.975 9.855l-2.018 1.051c-.634.329-.882 1.112-.551 1.748.229.444.683.697 1.151.697.2 0 .405-.046.595-.146l1.994-1.036c1.655 3.676 2.579 7.749 2.579 12.037l-.005.388zm-14.738 9.222h-29.395c-1.212 0-2.194.982-2.194 2.194v.512c0 1.212.982 2.194 2.194 2.194h29.395c1.212 0 2.194-.982 2.194-2.194v-.512c0-1.212-.982-2.194-2.194-2.194zm14.012-23.799l-.09-.222-.093-.141c-2.606-5.082-6.53-9.38-11.32-12.437l-.217-.166-.202-.098c-4.878-3.008-10.616-4.749-16.756-4.749l-.249.005-.156-.017-.2.022c-5.911.11-11.435 1.831-16.152 4.741l-.202.095-.215.166c-4.79 3.057-8.715 7.354-11.32 12.437l-.093.141-.09.222c-2.126 4.278-3.322 9.097-3.322 14.189l.002.183c.005.878.046 1.748.122 2.611.87.076 1.745.146 2.62.215 9.607.77 19.396 1.165 29.205 1.165 9.843 0 19.667-.397 29.308-1.173.873-.071 1.748-.139 2.62-.217.073-.86.115-1.731.119-2.611l.002-.173c0-5.092-1.199-9.911-3.322-14.189z"/></svg>