<svg width="64" height="64" viewBox="0 0 64 64" xmlns="http://www.w3.org/2000/svg"><title>03007speedingC</title><path d="M55.501 37.638c-.636.056-1.275.108-1.913.158-5.646.453-11.377.726-17.133.817.341-.655.537-1.397.537-2.188 0-.834-.218-1.618-.597-2.3l10.402-8.821c.607-.516.682-1.429.166-2.036-.516-.609-1.429-.684-2.036-.166l-10.656 9.036c-.616-.293-1.302-.462-2.03-.462-2.622 0-4.75 2.127-4.75 4.75 0 .79.195 1.535.537 2.19-5.752-.089-11.481-.362-17.125-.813-.636-.05-1.275-.102-1.911-.158-.054-.628-.085-1.262-.087-1.903l-.002-.133c0-3.437.747-6.704 2.086-9.645l2.329 1.212c.15.077.308.114.466.114.366 0 .717-.2.898-.545.258-.495.064-1.106-.43-1.364l-2.344-1.219c1.759-3.115 4.213-5.787 7.149-7.805l1.343 2.211c.189.314.522.487.865.487.179 0 .36-.048.524-.146.476-.291.628-.913.339-1.389l-1.358-2.236c3.03-1.716 6.476-2.776 10.148-2.982v2.585c0 .557.453 1.011 1.011 1.011.559 0 1.013-.453 1.013-1.011v-2.612c3.903.114 7.57 1.192 10.768 3.005l-1.36 2.24c-.289.476-.137 1.098.341 1.389.164.098.345.146.524.146.341 0 .674-.173.865-.487l1.345-2.217c2.938 2.017 5.394 4.689 7.156 7.805l-2.354 1.225c-.495.258-.686.869-.43 1.364.181.345.534.545.898.545.158 0 .316-.037.466-.114l2.339-1.219c1.341 2.945 2.09 6.212 2.09 9.651l-.002.127c-.004.64-.033 1.275-.087 1.903zm-10.572 8.087c0 .875-.711 1.587-1.589 1.587h-22.646c-.875 0-1.587-.711-1.587-1.587v-.572c0-.875.711-1.587 1.587-1.587h22.646c.878 0 1.589.711 1.589 1.587v.572zm-12.929-45.725c-17.674 0-32 14.328-32 32 0 17.674 14.326 32 32 32 17.672 0 32-14.326 32-32 0-17.672-14.328-32-32-32z"/></svg>