<svg width="64" height="64" viewBox="0 0 64 64" xmlns="http://www.w3.org/2000/svg"><title>03007speedingF</title><path d="M59.162 28.224l-3.103 1.615c-.199.104-.41.152-.618.152-.486 0-.953-.265-1.192-.724-.342-.655-.086-1.465.572-1.807l3.123-1.624c-2.337-4.134-5.594-7.678-9.494-10.355l-1.785 2.942c-.254.415-.695.644-1.148.644-.238 0-.479-.062-.695-.194-.633-.384-.834-1.209-.45-1.843l1.803-2.97c-4.244-2.403-9.108-3.833-14.285-3.986v3.465c0 .742-.6 1.342-1.342 1.342-.742 0-1.342-.6-1.342-1.342v-3.43c-4.871.274-9.443 1.679-13.462 3.957l1.801 2.964c.384.633.183 1.459-.45 1.843-.218.132-.459.194-.695.194-.452 0-.896-.23-1.148-.644l-1.781-2.935c-3.895 2.679-7.15 6.223-9.485 10.355l3.11 1.618c.658.342.914 1.152.572 1.807-.241.459-.708.724-1.192.724-.207 0-.419-.049-.618-.152l-3.09-1.607c-1.777 3.902-2.767 8.234-2.767 12.793l.002.177c.004.85.044 1.693.117 2.525.843.075 1.69.141 2.536.21 7.486.6 15.086.96 22.718 1.079-.452-.87-.713-1.856-.713-2.904 0-3.48 2.82-6.301 6.301-6.301.964 0 1.876.223 2.692.611l14.135-11.988c.808-.684 2.017-.585 2.701.223.684.806.585 2.015-.223 2.701l-13.795 11.701c.501.903.79 1.944.79 3.052 0 1.046-.26 2.033-.713 2.902 7.636-.121 15.241-.483 22.731-1.084.845-.068 1.693-.137 2.536-.21.071-.834.11-1.675.117-2.527v-.168c0-4.564-.991-8.898-2.77-12.802zm-13.478 28.328h-30.042c-1.163 0-2.105-.942-2.105-2.105v-.757c0-1.163.942-2.105 2.105-2.105h30.042c1.163 0 2.105.942 2.105 2.105v.757c0 1.163-.942 2.105-2.105 2.105z"/></svg>