<svg width="64" height="64" viewBox="0 0 64 64" xmlns="http://www.w3.org/2000/svg"><title>01008sportsbikeL</title><path d="M54.674 47.474c-4.003 0-7.26-3.233-7.26-7.206 0-2.673 1.49-4.982 3.672-6.227l2.571 6.654c.16.411.55.662.965.662.124 0 .249-.022.371-.07.535-.205.798-.806.592-1.336l-2.581-6.68c.539-.126 1.093-.211 1.669-.211 4.001 0 7.258 3.233 7.258 7.208 0 3.973-3.257 7.206-7.258 7.206zm-7.461-17.657c-4.561 2.882-5.309 8.064-5.411 10.326l-16.078.04c-.618-2.076-2.816-7.537-9.424-10.613-6.055-2.82-11.684-4.021-14.011-4.432l9.534-.207c1.165.686 3.907 2.022 7.649 3.389 6.755 2.469 10.288 3.57 13.361 3.57 1.153 0 2.302-.154 3.64-.489.902-.247 1.859-.566 2.848-.945 7.557-2.898 9.984-6.091 10.084-6.227.144-.191.215-.429.203-.668-.102-1.977-1.496-3.815-3.054-5.273 5.976 2.166 8.191 5.95 9.141 7.569l.183.313c.529.88.58 1.269.622 1.31-.052.022-.187.064-.479.082-.874 0-5.407.108-8.81 2.256zm-16.876-2.146c1.153-1.255 2.242-2.439 3.49-2.679 3.776-.724 7.691-.391 10.342.828-1.376.842-3.185 1.783-5.589 2.705-.927.355-1.821.654-2.633.878-1.163.289-2.122.421-3.115.421-1.161-.002-2.449-.201-4.015-.596.531-.485 1.029-1.023 1.52-1.556zm24.337 3.323c-.84 0-1.649.12-2.423.327l-.451-1.169c1.969-.485 3.736-.525 4.222-.525l.207-.002c1.031-.078 1.731-.465 2.082-1.145.566-1.097-.104-2.453-.658-3.377l-.174-.293c-1.314-2.244-4.807-8.209-15.637-9.799-.495-.074-.969.219-1.129.692-.16.473.042.993.479 1.235 1.637.908 5.79 3.73 6.301 6.341-.247.259-.712.692-1.392 1.221-3.662-2.222-8.935-2.256-12.665-1.538-1.917.369-3.293 1.865-4.621 3.309-.407.443-.802.864-1.197 1.245.022-.178.014-.361-.062-.539-.219-.515-.826-.754-1.342-.55-.022.008-2.274.836-6.913-2.084-.483-.305-1.123-.16-1.426.323-.15.237-.187.513-.134.768-2.599-1.059-4.428-1.991-5.076-2.409-.174-.114-.373-.15-.584-.168l-10.645.225c-.475.01-.88.341-.985.804l-.425 1.871c-.066.283-.006.58.16.82.168.239.427.397.714.435.07.01 7.047.949 14.526 4.432 7.108 3.309 8.423 9.679 8.473 9.935l.004.022c.09.495.517.854 1.019.854h.002l17.911-.046c.285 0 .556-.12.752-.325.193-.209.295-.489.277-.772-.004-.066-.347-6.514 4.454-9.544.481-.305.995-.546 1.516-.762l.489 1.263c-2.96 1.556-4.976 4.641-4.976 8.201 0 5.122 4.173 9.274 9.328 9.274 5.152 0 9.326-4.153 9.326-9.274 0-5.122-4.175-9.274-9.326-9.274zm-43.504 16.612c-3.893 0-7.063-3.145-7.063-7.011 0-3.867 3.169-7.015 7.063-7.015 3.895 0 7.063 3.147 7.063 7.015 0 3.865-3.167 7.011-7.063 7.011zm0-16.094c-5.044 0-9.131 4.069-9.131 9.083 0 5.016 4.087 9.079 9.131 9.079 5.044 0 9.131-4.063 9.131-9.079 0-5.014-4.087-9.083-9.131-9.083z"/></svg>