<svg width="64" height="64" viewBox="0 0 64 64" xmlns="http://www.w3.org/2000/svg"><title>02024sportsequipF</title><path d="M19.543 32.19l-.115-1.086c-.356-3.375-.166-5.365.599-6.27.299-.356.755-.585 1.397-.721v15.74c-1.126-1.103-1.408-3.127-1.882-7.663zm1.958 26.916c.375 2.756 2.686 4.894 5.502 4.894h10.142c2.816 0 5.126-2.138 5.502-4.894h-21.146zm.7-37.438c-1.203-.066-2.771.235-3.906 1.7-1.161 1.5-1.559 3.834-1.12 7.972l.113 1.084c.593 5.692.926 8.619 4.137 10.127v13.788h21.299v-29.879c0-.542-.386-1.011-.922-1.114l-3.966-.753v-9.664c.71-.134 1.589-.177 2.716.098 4.158 1.02 5.694-1.084 4.454-4.279-.474-1.222-1.007-1.282-5.229.493-4.173 1.751-4.22 1.886-4.22 3.866l.011.07v8.986l-2.419-.461v-13.585c.71-.134 1.589-.177 2.718.098 4.156 1.02 5.692-1.084 4.452-4.279-.474-1.222-1.005-1.282-5.227.493-4.175 1.751-4.222 1.886-4.222 3.866l.011.068v12.909l-2.417-.459v-17.508c.71-.134 1.589-.177 2.716.098 4.158 1.02 5.692-1.084 4.454-4.279-.474-1.222-1.007-1.282-5.229.493-4.173 1.751-4.222 1.886-4.222 3.866l.013.073v16.828l-3.426-.651-.57-.062z"/></svg>