<svg width="64" height="64" viewBox="0 0 64 64" xmlns="http://www.w3.org/2000/svg"><title>01008sportsbikeF</title><path d="M54.555 48.064c-4.161 0-7.546-3.361-7.546-7.491 0-2.726 1.488-5.09 3.684-6.402l2.661 6.9c.188.488.654.789 1.148.789.148 0 .298-.027.443-.084.635-.243.952-.956.707-1.591l-2.672-6.932c.507-.108 1.034-.171 1.576-.171 4.159 0 7.544 3.361 7.544 7.491 0 4.13-3.385 7.491-7.544 7.491zm0-16.882c-.783 0-1.532.122-2.26.3l-.753-1.952c2.055-.492 3.87-.534 4.379-.534h.148c.756-.059 1.232-.297 1.454-.726.297-.574.091-1.412-.642-2.636l-.181-.306c-1.277-2.182-5.826-7.622-15.185-9.69-.2-.044-.393.089-.456.279-.065.19.017.399.194.496.114.063 6.586 3.492 6.879 7.219l-.023.025c.002.262-.095.523-.304.711-1.418 1.275-4.125 3.188-8.977 5.05-.994.38-1.96.701-2.876.956-1.013.253-2.083.38-3.245.38-2.057 0-4.4-.401-7.244-1.218l-.192-.101c.492-.08.804-.196.893-.238.506-.232.745-.756.665-1.281-.015-.101-.023-.205-.065-.304-.257-.612-.969-.903-1.593-.667-.021.008-2.241.795-6.833-2.095-.578-.361-1.336-.19-1.699.386-.177.283-.222.608-.16.91-2.494-1.032-4.223-1.922-4.898-2.361l-.137-.038-10.779.228c-.112.002-.207.08-.232.188l-.43 1.893c-.015.067 0 .137.038.192.04.055.099.093.167.103.072.01 7.263.979 14.944 4.556 7.597 3.537 9.017 10.58 9.032 10.654l.006.021c.023.114.122.194.236.194h.002l18.133-.046c.067 0 .131-.027.179-.074.044-.049.067-.116.063-.181-.004-.07-.374-7.075 4.883-10.395.483-.306.994-.553 1.515-.776l.804 2.085c-2.908 1.6-4.898 4.644-4.898 8.183 0 5.185 4.227 9.392 9.447 9.392 5.216 0 9.445-4.206 9.445-9.392 0-5.187-4.229-9.392-9.445-9.392zm-26.359-2.927c.511-.454 1.023-.996 1.551-1.564 1.367-1.471 2.783-2.996 4.689-3.362 4.723-.907 8.263-.749 11.013.507-1.462 1.087-3.756 2.446-7.301 3.807-.937.359-1.846.661-2.678.893-1.95.485-4.317.378-7.274-.281zm-17.69 19.943c-4.05 0-7.344-3.271-7.344-7.293s3.294-7.295 7.344-7.295c4.049 0 7.343 3.273 7.343 7.295s-3.294 7.293-7.343 7.293zm0-16.489c-5.107 0-9.245 4.119-9.245 9.196 0 5.079 4.138 9.194 9.245 9.194 5.105 0 9.243-4.115 9.243-9.194 0-5.077-4.138-9.196-9.243-9.196z"/></svg>