<svg width="64" height="64" viewBox="0 0 64 64" xmlns="http://www.w3.org/2000/svg"><title>02024sportsequipC</title><path d="M22.419 30.993l.081.768c.334 3.212.535 4.645 1.332 5.426v-11.142c-.454.097-.778.258-.989.51-.543.64-.677 2.05-.423 4.439zm14.953-11.38c-.799-.196-1.42-.167-1.924-.07v6.84l2.808.535c.38.072.652.403.652.789v21.151h-15.077v-9.761c-2.273-1.067-2.508-3.138-2.927-7.168l-.081-.766c-.312-2.932-.074-4.62.793-5.644.799-.943 1.998-1.123 2.833-1.173l.002.023c.109-.027.221-.033.332-.01l2.426.46v-11.912l-.008-.052c0-1.402.035-1.497 2.989-2.738 2.987-1.255 3.365-1.212 3.7-.347.877 2.263-.209 3.751-3.153 3.029-.797-.194-1.42-.165-1.922-.068v12.393l1.711.324v-9.14l-.008-.047c0-1.4.035-1.495 2.987-2.735 2.989-1.257 3.367-1.214 3.702-.349.877 2.263-.211 3.751-3.153 3.031-.799-.196-1.42-.167-1.924-.07v9.617l1.714.326v-6.363l-.008-.05c0-1.4.033-1.495 2.987-2.735 2.989-1.255 3.367-1.214 3.702-.349.877 2.263-.211 3.751-3.153 3.031zm-2.411 34.667h-7.18c-1.992 0-3.629-1.513-3.894-3.464h14.968c-.266 1.951-1.901 3.464-3.894 3.464zm-3.662-52.878c-17.286 0-31.298 14.014-31.298 31.3 0 17.284 14.012 31.298 31.298 31.298 17.286 0 31.3-14.014 31.3-31.298 0-17.286-14.014-31.3-31.3-31.3z"/></svg>