<svg width="64" height="64" viewBox="0 0 64 64" xmlns="http://www.w3.org/2000/svg"><title>01008sportsbikeC</title><path d="M31.363 19.182c-1.696 1.292-4.601 3.116-9.224 4.888-1.146.44-2.251.808-3.262 1.086-2.606.652-5.643.502-9.683-.502.652-.538 1.305-1.18 1.979-1.847 1.802-1.792 3.664-3.643 6.174-4.087 5.953-1.056 10.47-.908 14.017.461m10.961 21.628c-.149.057-.304.085-.455.085-.508 0-.988-.31-1.182-.812l-3.137-8.161c-2.682 1.524-4.514 4.357-4.514 7.639 0 4.869 3.991 8.831 8.897 8.831 4.905 0 8.897-3.962 8.897-8.831s-3.991-8.831-8.897-8.831c-.699 0-1.373.1-2.028.253l3.148 8.191c.251.652-.077 1.386-.729 1.637m-10.359-40.81c-14.924 0-27.426 10.234-30.965 24.055 2.293.827 4.289 1.522 5.998 2.059l.017-.021c3.313.944 6.066 1.411 8.476 1.411 1.39 0 2.669-.153 3.883-.457 1.097-.302 2.261-.689 3.464-1.152 6.21-2.38 9.556-4.914 10.997-6.212.181-.164.274-.378.304-.601l.021-.026-.006-.038c.009-.147-.021-.291-.077-.429-.825-4.325-8.108-8.195-8.242-8.268-.213-.119-.312-.372-.232-.601.077-.23.31-.391.55-.338 11.328 2.502 16.831 9.086 18.378 11.728l.217.368c.891 1.484 1.137 2.497.778 3.192-.27.521-.844.808-1.762.88h-.179c-.629 0-2.933.049-5.503.695l.901 2.344c.944-.249 1.928-.395 2.948-.395 6.312 0 11.43 5.09 11.43 11.367 0 6.276-5.118 11.364-11.43 11.364-6.317 0-11.43-5.088-11.43-11.364 0-4.37 2.48-8.157 6.117-10.059l-.948-2.468c-.704.287-1.396.629-2.049 1.039-6.361 4.019-5.913 12.495-5.909 12.58.006.079-.023.159-.079.219-.055.057-.132.091-.213.091l-26.144.055.057.232c3.968 13.16 16.174 22.75 30.629 22.75 17.675 0 32-14.327 32-32 0-17.673-14.325-32-32-32" fill="#221F20"/></svg>