<svg width="64" height="64" viewBox="0 0 64 64" xmlns="http://www.w3.org/2000/svg"><title>02024sportsequipL</title><path d="M41.758 56.561h-17.214v-32.501l17.214 3.206v29.295zm-3.413 5.165h-10.388c-1.702 0-3.105-1.257-3.36-2.889h17.109c-.255 1.632-1.66 2.889-3.362 2.889zm-17.773-29.649l-.113-1.096c-.398-3.752-.154-6.064.726-6.878.107-.103.39-.353 1.084-.375v15.839c-.976-1.15-1.246-3.201-1.696-7.49zm21.09-17.233c4.173 1.024 5.713-1.088 4.471-4.295-.475-1.227-1.011-1.287-5.248.495-4.188 1.758-4.238 1.893-4.238 3.88l.013.069v9.009l-2.428-.452v-13.634c.713-.135 1.595-.178 2.726.099 4.173 1.024 5.715-1.088 4.471-4.295-.475-1.227-1.011-1.287-5.248.495-4.188 1.758-4.236 1.893-4.236 3.88l.011.071v12.961l-2.428-.452v-17.589c.713-.135 1.595-.178 2.728.099 4.171 1.024 5.713-1.088 4.469-4.295-.475-1.227-1.009-1.287-5.246.495-4.191 1.758-4.238 1.893-4.238 3.88l.013.069v16.919l-3.638-.677c-1.681-.315-3.021-.024-3.976.861-1.495 1.383-1.94 4.094-1.443 8.786l.116 1.096c.585 5.585.925 8.512 3.957 10.053v15.944c0 3.137 2.552 5.687 5.689 5.687h10.388c3.137 0 5.689-2.55 5.689-5.687v-31.993c0-.548-.39-1.017-.929-1.118l-4.171-.777v-9.679c.715-.135 1.597-.178 2.728.099z"/></svg>