<svg width="64" height="64" viewBox="0 0 64 64" xmlns="http://www.w3.org/2000/svg"><title>01015sppC</title><path d="M50.933 16.233l-4.833 5.15c-.251.266-.589.4-.927.4-.312 0-.623-.113-.869-.344-.512-.478-.538-1.284-.055-1.794l4.833-5.15c.482-.512 1.286-.536 1.796-.055.512.478.536 1.284.055 1.794zm-10.656 16.325l4.336-7.522 4.693 7.522h-9.028zm-6.829 22.949l5.991-20.988h9.436l-15.428 20.988zm-6.482-20.988h10.195l-4.995 18.191-5.201-18.191zm-11.475 0h9.434l5.993 20.988-15.428-20.988zm4.261-9.483l4.336 7.522h-9.028l4.693-7.522zm-6.846-10.599c.514-.478 1.316-.453 1.796.06l4.824 5.148c.48.512.453 1.316-.06 1.796-.244.23-.557.342-.867.342-.34 0-.678-.134-.927-.402l-4.824-5.148c-.482-.512-.455-1.316.057-1.796zm9.118-4.64c.65-.264 1.392.055 1.651.708l2.523 6.316c.259.65-.057 1.39-.708 1.649-.155.064-.315.091-.472.091-.504 0-.982-.302-1.18-.799l-2.523-6.316c-.261-.65.057-1.39.708-1.649zm9.949-1.571h.002c.701 0 1.269.567 1.269 1.269l.004 6.712c.002.703-.567 1.273-1.269 1.273-.701 0-1.271-.57-1.271-1.269l-.004-6.714c0-.701.567-1.271 1.269-1.271zm5.604 8.593l2.529-6.314c.261-.652 1.005-.969 1.651-.708.65.259.967.999.706 1.651l-2.527 6.316c-.2.495-.678.797-1.18.797-.159 0-.319-.028-.472-.091-.652-.259-.969-.999-.708-1.651zm-4.701 7.082h10.131l-4.397 7.621-5.734-7.621zm-7.122 7.621l-4.397-7.621h10.134l-5.736 7.621zm6.431-5.279l4.756 6.314h-9.513l4.756-6.314zm-.187-26.244c-17.672 0-31.999 14.327-31.999 31.999 0 17.672 14.327 31.999 31.999 31.999 17.674 0 32.001-14.327 32.001-31.999 0-17.672-14.327-31.999-32.001-31.999z"/></svg>