<svg width="64" height="64" viewBox="0 0 64 64" xmlns="http://www.w3.org/2000/svg"><title>01015sppF</title><path d="M40.894 13.868c.21.085.427.125.64.125.682 0 1.327-.409 1.598-1.083l3.423-8.548c.353-.881-.074-1.884-.958-2.237-.873-.35-1.881.077-2.234.958l-3.423 8.55c-.353.881.074 1.881.955 2.234zm9.328 4.482c.456 0 .913-.18 1.253-.541l6.544-6.969c.65-.693.616-1.781-.077-2.431-.69-.65-1.778-.618-2.431.077l-6.544 6.969c-.65.693-.616 1.781.077 2.428.332.313.754.467 1.178.467zm-28.878-5.44c.268.674.913 1.083 1.595 1.083.215 0 .43-.04.64-.125.881-.353 1.311-1.353.958-2.234l-3.415-8.548c-.35-.884-1.356-1.316-2.234-.961-.884.353-1.311 1.353-.958 2.234l3.415 8.55zm11.016-.385h.003c.95 0 1.72-.77 1.717-1.72l-.005-9.086c0-.95-.77-1.72-1.72-1.72s-1.72.772-1.72 1.722l.005 9.086c0 .947.77 1.717 1.72 1.717zm-18.109 5.825c.422 0 .844-.154 1.176-.464.693-.65.73-1.738.08-2.431l-6.531-6.969c-.65-.693-1.736-.727-2.431-.077-.693.648-.73 1.736-.08 2.428l6.531 6.969c.34.361.796.544 1.255.544zm18.39 6.037l-6.438 8.548h12.873l-6.435-8.548zm8.696 7.146l5.952-10.315h-13.714l7.762 10.315zm2.256 1.401h12.22l-6.353-10.18-5.867 10.18zm-1.133 2.654l-8.112 28.411 20.885-28.411h-12.772zm-10.761-14.37h-13.714l5.95 10.315 7.765-10.315zm.916 38.994l6.759-24.624h-13.799l7.04 24.624zm-16.801-37.457l-6.356 10.18h12.223l-5.867-10.18zm7.001 12.833l8.11 28.411-20.882-28.411h12.772z"/></svg>