<svg width="64" height="64" viewBox="0 0 64 64" xmlns="http://www.w3.org/2000/svg"><title>01015sppL</title><path d="M39.222 10.857l3.252-8.121c.272-.68 1.044-1.014 1.722-.738.678.272 1.009 1.042.738 1.722l-3.252 8.118c-.207.518-.705.832-1.228.832-.164 0-.331-.027-.493-.095-.68-.269-1.009-1.042-.738-1.719zm8.577 5.602c-.533-.501-.561-1.338-.06-1.871l6.215-6.621c.503-.538 1.341-.561 1.871-.062.533.501.561 1.338.06 1.871l-6.215 6.623c-.262.279-.613.416-.967.416-.324 0-.65-.117-.905-.356zm-29.488-12.738c-.272-.68.06-1.45.74-1.722.678-.277 1.45.057 1.722.738l3.242 8.121c.272.678-.06 1.45-.74 1.719-.159.067-.326.095-.491.095-.526 0-1.022-.314-1.228-.832l-3.244-8.118zm12.098 6.237l-.002-8.632c0-.73.596-1.326 1.326-1.326.73 0 1.323.593 1.326 1.326l.002 8.632c0 .728-.596 1.323-1.326 1.323-.73 0-1.323-.593-1.326-1.323zm-16.842 6.441l-6.207-6.623c-.501-.533-.473-1.373.06-1.871.533-.503 1.371-.476 1.871.062l6.207 6.621c.501.533.473 1.373-.062 1.871-.254.242-.578.356-.905.356-.351 0-.705-.137-.964-.416zm3.137 6.235l4.774 8.285h-9.905l5.131-8.285zm35.803 8.285h-9.98l4.799-8.33 5.181 8.33zm-11.442 2.646h10.797l-17.161 23.094 6.364-23.094zm-18.447 0l6.586 23.094-16.977-23.094h10.391zm15.701 0l-6.339 23.094-6.606-23.094h12.945zm-4.353-12.392h11.116l-4.817 8.363-6.299-8.363zm-10.226 8.363l-4.817-8.363h11.114l-6.297 8.363zm8.263-6.568l5.99 7.951h-11.978l5.988-7.951zm16.304-3.815c-.239-.389-.665-.625-1.124-.625h-30.311c-.458 0-.885.237-1.124.625l-7.49 12.093c-.287.461-.262 1.047.06 1.483l22.661 30.734c.249.339.645.538 1.067.538.419 0 .815-.199 1.064-.538l22.663-30.734c.321-.436.344-1.024.057-1.483l-7.523-12.093z"/></svg>