<svg width="64" height="64" viewBox="0 0 64 64" xmlns="http://www.w3.org/2000/svg"><title>06011staffprofcntcsL</title><path d="M48.373 34.552c2.34-1.613 3.883-4.307 3.883-7.358 0-4.928-4.011-8.939-8.939-8.939-.642 0-1.253.103-1.852.243-1.877-3.315-5.391-5.583-9.466-5.583-4.074 0-7.591 2.268-9.468 5.583-.597-.14-1.21-.243-1.85-.243-4.93 0-8.939 4.011-8.939 8.939 0 3.056 1.543 5.751 3.889 7.365-5.548 1.311-8.404 4.984-8.404 11.062l-.004 2.782c-3.126-4.706-4.957-10.342-4.957-16.402 0-16.394 13.338-29.732 29.734-29.732 16.394 0 29.73 13.338 29.73 29.732 0 6.046-1.823 11.669-4.937 16.369v-2.749c0-6.087-2.864-9.762-8.422-11.069zm6.157 16.797c-1.745 2.027-3.741 3.829-5.965 5.328v-9.813c0-4.657-1.352-8.177-4.023-10.562 6.774.319 9.988 3.28 9.988 9.32v5.729zm-8.231 6.706c-4.245 2.34-9.118 3.677-14.297 3.677-5.175 0-10.044-1.333-14.289-3.671.01-4.976.021-10.877.021-11.198 0-8.196 4.537-12.013 14.283-12.013 9.743 0 14.283 3.817 14.283 12.013v11.192zm-14.299-25.368c-4.885 0-8.859-3.974-8.859-8.857 0-4.887 3.974-8.859 8.859-8.859s8.857 3.971 8.857 8.859c0 4.883-3.971 8.857-8.857 8.857zm10.311-12.283c.327-.058.661-.093 1.006-.093 3.794 0 6.881 3.087 6.881 6.881s-3.087 6.881-6.881 6.881c-1.749 0-3.309-.691-4.517-1.774 2.488-2.002 4.113-5.035 4.113-8.47 0-1.206-.243-2.344-.603-3.426zm-17.112 11.894c-1.21 1.084-2.77 1.776-4.517 1.776-3.794 0-6.881-3.087-6.881-6.881s3.087-6.881 6.881-6.881c.344 0 .677.035 1.004.093-.36 1.082-.603 2.22-.603 3.426 0 3.434 1.626 6.465 4.115 8.468zm-9.75 24.386c-2.222-1.494-4.218-3.294-5.961-5.319l.006-5.745c0-6.042 3.216-9.003 9.994-9.32-2.671 2.385-4.023 5.906-4.023 10.562 0 .29-.008 5.196-.016 9.822zm16.553-56.685c-17.645 0-32.002 14.355-32.002 32s14.357 32 32.002 32c17.643 0 31.998-14.355 31.998-32s-14.355-32-31.998-32z"/></svg>