<svg width="64" height="64" viewBox="0 0 64 64" xmlns="http://www.w3.org/2000/svg"><title>06011staffprofcntcsC</title><path d="M32 14.972c-4.885 0-8.859 3.971-8.859 8.859 0 4.883 3.974 8.857 8.859 8.857s8.857-3.974 8.857-8.857c0-4.887-3.971-8.859-8.857-8.859zm.016 19.878c-9.745 0-14.283 3.817-14.283 12.013 0 .241-.006 7.859-.012 13.731 4.305 2.161 9.145 3.406 14.281 3.406 5.142 0 9.988-1.249 14.297-3.412v-13.725c0-8.196-4.539-12.013-14.283-12.013zm-10.933-11.019c0-1.206.243-2.344.603-3.426-.327-.058-.661-.093-1.004-.093-3.794 0-6.881 3.087-6.881 6.881s3.087 6.881 6.881 6.881c1.747 0 3.307-.691 4.517-1.776-2.49-2.002-4.115-5.033-4.115-8.468zm-1.595 12.47c-6.778.317-9.994 3.278-9.994 9.32 0 .103 0 4.832-.002 9.095 1.788 1.772 3.801 3.309 5.963 4.624.006-5.41.01-12.26.01-12.476 0-4.657 1.352-8.177 4.023-10.562zm-3.856-1.743c-2.346-1.613-3.889-4.309-3.889-7.365 0-4.928 4.008-8.939 8.939-8.939.64 0 1.253.103 1.85.243 1.877-3.315 5.393-5.583 9.468-5.583 4.074 0 7.589 2.268 9.466 5.583.599-.14 1.21-.243 1.852-.243 4.928 0 8.939 4.011 8.939 8.939 0 3.052-1.543 5.745-3.883 7.358 5.558 1.307 8.422 4.984 8.422 11.069v6.574c4.496-5.513 7.204-12.542 7.204-20.195 0-17.645-14.355-32-31.998-32-17.645 0-32.002 14.355-32.002 32 0 7.667 2.714 14.707 7.227 20.224.002-3.196.002-6.544.002-6.603 0-6.079 2.856-9.752 8.404-11.062zm27.685-14.246c-.346 0-.679.035-1.006.093.36 1.082.603 2.22.603 3.426 0 3.434-1.626 6.467-4.113 8.47 1.208 1.082 2.768 1.774 4.517 1.774 3.794 0 6.881-3.087 6.881-6.881s-3.087-6.881-6.881-6.881zm1.224 15.989c2.671 2.385 4.023 5.906 4.023 10.562v12.464c2.163-1.315 4.177-2.854 5.965-4.63v-9.077c0-6.039-3.214-9.001-9.988-9.32z"/></svg>