<svg width="64" height="64" viewBox="0 0 64 64" xmlns="http://www.w3.org/2000/svg"><title>07001stardriverC</title><path d="M47.268 51.245l-3.554.979s-7.885-5.59-11.493-8.243c-3.851 2.771-7.645 5.478-11.498 8.243l-3.556-.979s3.836-11.75 5.325-16.237l4.16.011c-1.006 3.034-2.535 7.708-3.529 10.752 2.606-1.895 6.495-4.771 9.093-6.657 0 0 6.51 4.762 9.091 6.657l-3.524-10.735 9.394-6.638-11.323-.004-3.63-10.765-3.651 10.769h-17.54l-.752-3.946s10.938-.008 15.506 0c.587-1.722 4.617-13.759 4.617-13.759l3.619-.006s3.154 9.464 4.619 13.759c2.07.006 14.23.008 14.23.008l1.274 3.927c-.011.015-11.672 8.23-11.672 8.23 1.274 3.922 4.792 14.635 4.792 14.635zm-15.268-51.245c-17.673 0-32 14.327-32 32 0 17.673 14.327 32 32 32 17.673 0 31.998-14.327 31.998-32 0-17.673-14.325-32-31.998-32z"/></svg>