<svg width="64" height="64" viewBox="0 0 64 64" xmlns="http://www.w3.org/2000/svg"><title>07001stardriverF</title><path d="M46.499 49.591l-3.339.925s-7.405-5.269-10.795-7.77c-3.616 2.61-7.179 5.162-10.797 7.77l-3.341-.925s3.604-11.074 5.001-15.3l3.908.01c-.947 2.859-2.38 7.264-3.314 10.131l8.539-6.273s6.115 4.488 8.541 6.273l-3.312-10.116 8.824-6.258-10.634-.002-3.409-10.146-3.429 10.151-16.475-.002-.708-3.716s10.277-.01 14.567 0c.55-1.621 4.336-12.968 4.336-12.968l3.4-.005s2.962 8.92 4.339 12.966c1.942.007 13.365.01 13.365.01l1.195 3.699c-.007.015-10.96 7.758-10.96 7.758 1.195 3.697 4.499 13.791 4.499 13.791zm-38.636-49.591c-4.341 0-7.863 3.531-7.863 7.89v48.221c0 4.356 3.521 7.89 7.863 7.89h48.275c4.341 0 7.863-3.533 7.863-7.89v-48.221c0-4.359-3.521-7.89-7.863-7.89h-48.275z" fill="#000"/></svg>