<svg width="64" height="64" viewBox="0 0 64 64" xmlns="http://www.w3.org/2000/svg"><title>07001stardriverL</title><path d="M55.118 0h-46.236c-4.896 0-8.882 3.996-8.882 8.909v46.18c0 4.912 3.986 8.911 8.882 8.911h46.236c4.899 0 8.882-3.999 8.882-8.911v-46.18c0-4.912-3.983-8.909-8.882-8.909zm6.185 55.089c0 3.42-2.773 6.203-6.185 6.203h-46.236c-3.411 0-6.182-2.782-6.182-6.203v-46.18c0-3.42 2.771-6.203 6.182-6.203h46.236c3.411 0 6.185 2.782 6.185 6.203v46.18zm-32.232-26.864h-15.781l-.677-3.563s9.842-.005 13.95.002c.528-1.554 4.155-12.42 4.155-12.42l3.254-.005s2.84 8.542 4.158 12.417c1.86.005 12.801.01 12.801.01l1.146 3.543c-.01.012-10.499 7.429-10.499 7.429 1.144 3.541 4.31 13.208 4.31 13.208l-3.198.884s-7.093-5.045-10.34-7.441c-3.463 2.502-6.877 4.947-10.342 7.441l-3.2-.884s3.451-10.605 4.791-14.656l3.743.01c-.906 2.738-2.28 6.958-3.173 9.704 2.344-1.709 5.841-4.304 8.18-6.008 0 0 5.856 4.299 8.178 6.008l-3.171-9.689 8.453-5.991-10.188-.005-3.267-9.716-3.281 9.721z"/></svg>