<?xml version="1.0" encoding="UTF-8" standalone="no"?>
<svg width="64px" height="64px" viewBox="0 0 64 64" version="1.1" xmlns="http://www.w3.org/2000/svg" xmlns:xlink="http://www.w3.org/1999/xlink">
    <!-- Generator: Sketch 41 (35326) - http://www.bohemiancoding.com/sketch -->
    <title>StarF</title>
    
    <defs></defs>
    <g id="Actions" stroke="none" stroke-width="1" fill="none" fill-rule="evenodd">
        <g id="StarF" fill="#000000">
            <path d="M31.366 51.013l-12.371 11.208c-.74.634-1.798.106-1.798-.846l1.269-16.389c0-.529-.317-1.057-.846-1.163l-16.706-2.538c-.952-.106-1.269-1.375-.423-1.903l13.746-9.305c.423-.317.634-.952.317-1.375l-8.247-14.274c-.529-.846.317-1.798 1.163-1.586l16.072 4.864c.529.106 1.057-.106 1.269-.634l6.238-15.437c.317-.846 1.586-.846 2.009 0l6.133 15.437c.211.529.74.74 1.269.634l16.072-4.864c.952-.317 1.692.74 1.163 1.586l-8.353 14.169c-.317.529-.106 1.057.317 1.375l13.851 9.305c.846.529.529 1.798-.423 1.903l-16.495 2.643c-.529.106-.952.529-.846 1.163l1.269 16.389c.106.952-1.057 1.48-1.798.846l-12.371-11.208c-.423-.317-1.057-.317-1.48 0z" fill="#444"></path>
        </g>
    </g>
</svg>