<svg width="64" height="64" viewBox="0 0 64 64" xmlns="http://www.w3.org/2000/svg"><title>01025suvF</title><path d="M15.442 27.481c-.441.002-.515-.325-.506-.63.009-.305.087-3.774.093-4.012.007-.238.343-.53.604-.564 3.462-.468 9.401-.265 9.401-.265.494-.018.768.289.82.746l.385 3.994c.024.419-.475.766-.965.748l-9.831-.016zm-2.321-4.279c-.011.305-.074 2.747-.089 3.306-.015.559-.365.866-.804.869l-4.52-.074c-.486-.016-.546-.39-.499-.693 0 0-.064-3.787 5.055-3.787.68 0 .864.127.856.379zm28.777 4.74l-12.769-.474c-.49-.015-.771-.396-.815-.806l-.383-3.82c-.038-.445.475-.76.964-.737 0 0 5.362.209 6.449.443 4.527.978 7.122 4.814 7.122 4.814.169.332-.087.593-.568.579zm-31.788 11.976c0-1.737 1.412-3.15 3.148-3.15 1.738 0 3.152 1.414 3.152 3.15 0 1.737-1.414 3.152-3.152 3.152-1.737 0-3.148-1.415-3.148-3.152zm40.947 0c0-1.737 1.414-3.15 3.152-3.15 1.737 0 3.15 1.414 3.15 3.15 0 1.737-1.414 3.152-3.15 3.152-1.738 0-3.152-1.415-3.152-3.152zm12.339-7.532c-.416-1.205-1.871-2.413-3.709-3.078-4.281-1.542-10.24-2.098-11.023-2.165-.677-.553-5.819-4.761-7.55-5.767-3.783-2.199-7.451-2.377-11.51-2.377l-1.84.004c-9.528 0-19.173.728-20.779 1.199-1.967.579-5.277 5.36-5.627 7.621-.172 1.12-.379 3.896-.385 3.983-.04.207-.2.435-.367.679-.227.327-.483.699-.504 1.125l-.029.488c-.049.766-.114 1.811-.042 2.341.385 2.811 2.647 3.958 7.804 3.958l.394.007c.249 2.569 2.395 4.593 5.028 4.593 2.573 0 4.682-1.929 5.012-4.413h30.222l.706.005c.332 2.481 2.441 4.408 5.012 4.408 2.542 0 4.636-1.885 5.003-4.328 1.987-.049 4.172-.377 4.462-1.571.408-1.662.548-4.299-.278-6.712z"/></svg>