<svg width="64" height="64" viewBox="0 0 64 64" xmlns="http://www.w3.org/2000/svg"><title>01025suvL</title><path d="M61.865 34.328c-.839-.15-1.976-.345-2.413-.383-.728-.059-2.305-1.384-2.305-2.112 0-.419 1.586-.347 2.933-.211-.399-.26-.847-.505-1.396-.702-4.319-1.559-10.492-2.056-10.554-2.06l-.299-.025-.231-.19c-.055-.045-5.599-4.598-7.292-5.581-3.444-2.003-6.724-2.162-10.653-2.162l-1.799.004c-10.068 0-18.827.78-19.99 1.124-1.357.399-4.353 4.575-4.646 6.476l-.045.326c.879.138 1.99.442 1.956 1.111-.047.929-1.577 2.223-2.334 2.55-.118.464-.322.802-.515 1.081-.098.143-.265.383-.279.473l-.03.487c-.036.578-.104 1.654-.05 2.053.188 1.362.856 2.819 6.438 2.819l.399.007c.362-2.389 2.411-4.233 4.902-4.233 2.552 0 4.637 1.935 4.922 4.41h29.559l.673.005c.281-2.479 2.368-4.415 4.92-4.415 2.579 0 4.682 1.976 4.929 4.491 2.244-.064 3.061-.48 3.164-.634.347-1.437.344-3.179.036-4.709zm-5.054 5.828c0-1.697-1.378-3.075-3.075-3.075-1.695 0-3.075 1.378-3.075 3.075 0 1.695 1.38 3.077 3.075 3.077 1.697 0 3.075-1.382 3.075-3.077zm-43.149 3.077c1.697 0 3.075-1.382 3.075-3.077 0-1.697-1.378-3.075-3.075-3.075-1.695 0-3.075 1.378-3.075 3.075 0 1.695 1.38 3.077 3.075 3.077zm50.004-3.716c-.326 1.335-2.033 2.005-5.183 2.058-.614 2.051-2.497 3.558-4.747 3.558-2.277 0-4.181-1.545-4.77-3.635l-.83-.005h-29.7c-.589 2.094-2.495 3.64-4.773 3.64-2.343 0-4.301-1.632-4.827-3.816l-.494-.011c-3.793 0-7.762-.53-8.303-4.462-.073-.544-.027-1.423.038-2.431l.027-.465c.03-.612.354-1.079.616-1.459.091-.131.229-.329.251-.408-.007-.002.197-2.744.37-3.866.353-2.275 3.648-7.32 5.99-8.011 1.602-.471 11.138-1.201 20.527-1.201l1.799-.004c4.074 0 7.761.183 11.609 2.418 1.636.95 6.22 4.675 7.315 5.57 1.333.123 6.703.682 10.751 2.142 2.017.727 3.565 2.04 4.043 3.433.857 2.497.712 5.23.292 6.953zm-28.392-16.359c-1.065-.229-6.311-.433-6.311-.433-.478-.023-.902.301-.943.721l.376 3.737c.041.401.317.775.796.789l12.496.462c.471.014.721-.24.555-.566 0 0-2.538-3.753-6.97-4.711zm-10.089-.528s-5.812-.197-9.2.26c-.256.034-.585.32-.592.553-.005.233-.082 3.626-.091 3.925-.007.299.064.619.496.617l9.622.016c.478.016.904-.313.943-.732l-.376-3.909c.041-.419-.32-.748-.802-.73zm-11.659 1.167l-.086 3.236c-.016.548-.358.848-.788.85l-4.424-.072c-.474-.018-.533-.383-.489-.678 0 0-.086-3.546 4.922-3.657.533-.011.87.088.864.32z"/></svg>