<svg width="64" height="64" viewBox="0 0 64 64" xmlns="http://www.w3.org/2000/svg"><title>06041tagC</title><path d="M22.268 22.268c-1.205 1.203-1.205 3.153 0 4.356 1.203 1.203 3.153 1.203 4.356 0 1.203-1.203 1.203-3.153 0-4.356-1.203-1.205-3.153-1.205-4.356 0zm26.724 15.831l-10.893 10.893c-1.521 1.521-3.996 1.521-5.517 0l-13.073-13.073c-3.245-3.243-3.509-3.509-3.509-6.357v-8.119c0-2.999 2.441-5.442 5.442-5.442h8.038c2.835.002 3.279.348 6.438 3.509l13.073 13.073c1.521 1.521 1.521 3.996 0 5.517zm-16.992-38.099c-17.673 0-32 14.325-32 32 0 17.673 14.327 32 32 32 17.673 0 32-14.327 32-32 0-17.675-14.327-32-32-32z"/></svg>