<svg width="64" height="64" viewBox="0 0 64 64" xmlns="http://www.w3.org/2000/svg"><title>06041tagF</title><path d="M19.921 19.921c-2.256 2.256-5.913 2.256-8.173 0-2.256-2.256-2.256-5.916 0-8.173 2.259-2.256 5.916-2.256 8.173 0 2.256 2.256 2.256 5.916 0 8.173zm41.94 11.168l-24.512-24.512c-5.925-5.925-6.757-6.575-12.072-6.578h-15.074c-5.627 0-10.2 4.579-10.203 10.203l.003 15.224c-.003 5.341.494 5.838 6.575 11.919l24.515 24.515c2.851 2.851 7.491 2.851 10.342 0l20.427-20.427c2.851-2.851 2.851-7.494 0-10.345z"/></svg>