<svg width="64" height="64" viewBox="0 0 64 64" xmlns="http://www.w3.org/2000/svg"><title>06041tagL</title><path d="M15.832 11.594c-1.13 0-2.196.439-2.999 1.242-.8.8-1.242 1.866-1.242 2.999s.442 2.199 1.242 2.999c1.603 1.606 4.397 1.601 6.001.003.8-.803 1.242-1.869 1.242-3.002 0-1.133-.442-2.199-1.242-2.999-.803-.803-1.866-1.242-3.002-1.242zm0 11.556c-1.95 0-3.788-.763-5.171-2.144-1.381-1.381-2.141-3.218-2.141-5.171 0-1.953.76-3.79 2.141-5.171 2.768-2.765 7.587-2.759 10.346 0 1.381 1.381 2.141 3.218 2.141 5.171 0 1.953-.76 3.79-2.141 5.171-1.381 1.381-3.218 2.144-5.174 2.144zm-5.631-20.079c-3.932 0-7.133 3.198-7.133 7.13v15.113c0 4.186 0 4.186 5.68 9.863l24.517 24.517c1.592 1.592 4.406 1.592 5.998 0l20.429-20.429c1.653-1.655 1.653-4.348 0-6.003l-24.514-24.511c-5.68-5.68-5.758-5.68-9.901-5.68h-15.075zm26.062 60.927c-1.959 0-3.796-.757-5.171-2.135l-24.517-24.514c-6.079-6.081-6.576-6.578-6.576-11.92v-15.228c0-5.625 4.576-10.201 10.201-10.201h15.075c5.316 0 6.145.65 12.073 6.578l24.514 24.514c2.849 2.852 2.849 7.491 0 10.343l-20.429 20.429c-1.378 1.378-3.213 2.135-5.171 2.135z"/></svg>