<svg width="64" height="64" viewBox="0 0 64 64" xmlns="http://www.w3.org/2000/svg"><title>06017talktipsL</title><path d="M33.284 39.29h-20.517c-.884 0-1.6-.719-1.6-1.6 0-.884.716-1.603 1.6-1.603h20.517c.884 0 1.6.719 1.6 1.603 0 .882-.716 1.6-1.6 1.6zm17.287-11.199h-37.803c-.884 0-1.6-.719-1.6-1.6 0-.884.716-1.603 1.6-1.603h37.803c.884 0 1.6.719 1.6 1.603 0 .882-.716 1.6-1.6 1.6zm0-11.197h-37.803c-.884 0-1.6-.719-1.6-1.6 0-.884.716-1.603 1.6-1.603h37.803c.884 0 1.6.719 1.6 1.603 0 .882-.716 1.6-1.6 1.6zm10.723 28.214c0 2.294-1.867 4.161-4.164 4.161h-26.483c-.282 0-.553.086-.785.249l-13.506 9.604 1.057-8.327c.049-.388-.069-.775-.328-1.067-.257-.291-.627-.459-1.015-.459h-9.199c-2.297 0-4.164-1.867-4.164-4.161v-37.235c0-2.297 1.867-4.164 4.164-4.164h50.26c2.297 0 4.164 1.867 4.164 4.164v37.235zm-4.164-44.108h-50.26c-3.788 0-6.87 3.084-6.87 6.873v37.235c0 3.788 3.082 6.87 6.87 6.87h7.663l-1.252 9.863c-.069.533.185 1.057.647 1.331.457.277 1.045.254 1.479-.057l15.672-11.138h26.051c3.788 0 6.87-3.082 6.87-6.87v-37.235c0-3.788-3.082-6.873-6.87-6.873z"/></svg>