<svg width="64" height="64" viewBox="0 0 64 64" xmlns="http://www.w3.org/2000/svg"><title>06017talktipsC</title><path d="M51.129 41.348c0 1.894-1.549 3.443-3.443 3.443h-16.531l-10 7.109.903-7.109h-5.745c-1.892 0-3.441-1.549-3.441-3.443v-23.241c0-1.894 1.549-3.445 3.441-3.445h31.373c1.894 0 3.443 1.552 3.443 3.445v23.241zm-7.33-19.609h-23.596c-.553 0-.999.448-.999 1.001 0 .55.446.999.999.999h23.596c.553 0 .999-.448.999-.999 0-.553-.446-1.001-.999-1.001zm-11.373 13.979h-12.223c-.55 0-.999.448-.999 1.001 0 .55.448.999.999.999h12.223c.553 0 .999-.448.999-.999 0-.553-.446-1.001-.999-1.001zm11.373-6.99h-23.596c-.553 0-.999.448-.999 1.001 0 .55.446.999.999.999h23.596c.553 0 .999-.448.999-.999 0-.553-.446-1.001-.999-1.001zm-11.798-28.727c-17.675 0-32 14.327-32 32 0 17.673 14.325 32 32 32 17.673 0 32-14.327 32-32 0-17.673-14.327-32-32-32z"/></svg>