<svg width="64" height="64" viewBox="0 0 64 64" xmlns="http://www.w3.org/2000/svg"><title>06017talktipsF</title><path d="M51.738 16.183h-39.474c-.923 0-1.671-.75-1.671-1.671 0-.923.748-1.674 1.671-1.674h39.474c.923 0 1.671.75 1.671 1.674 0 .921-.748 1.671-1.671 1.671m0 11.692h-39.474c-.923 0-1.671-.75-1.671-1.671 0-.923.748-1.674 1.671-1.674h39.474c.923 0 1.671.75 1.671 1.674 0 .921-.748 1.671-1.671 1.671m-18.051 11.692h-21.424c-.923 0-1.671-.75-1.671-1.671 0-.923.748-1.674 1.671-1.674h21.424c.923 0 1.671.75 1.671 1.674 0 .921-.748 1.671-1.671 1.671m24.552-38.567h-52.481c-3.167 0-5.758 2.594-5.758 5.761v38.881c0 3.169 2.592 5.761 5.758 5.761h9.608l-1.511 11.893 16.73-11.893h27.654c3.169 0 5.761-2.592 5.761-5.761v-38.881c0-3.167-2.592-5.761-5.761-5.761"/></svg>