<svg width="64" height="64" viewBox="0 0 64 64" xmlns="http://www.w3.org/2000/svg"><title>03012taxiC</title><path d="M31.97 1.888c-12.476 0-23.178 7.584-27.748 18.394 1.738-.316 3.514-.502 5.342-.536l.6-.004c.176-.35.34-.72.5-1.082.672-1.512 1.366-3.076 2.836-3.076 1.062 0 1.622.026 1.622.026l.988.046.002 4.338c4.706.51 6.944 1.68 8.692 2.604 2.404 1.274 8.39 5.602 9.566 6.456l.13.096.126.008c.052.002 5.324.328 9.904 1.324 5.648 1.23 8.174 2.57 8.622 3.344 1.914 3.312 2.092 7.908.404 10.46-.61.924-3.306 1.392-5.588 1.554-.708 2.836-3.256 4.952-6.308 4.952-3.054 0-5.606-2.12-6.31-4.96h-30.11c5.012 9.664 15.09 16.28 26.73 16.28 16.63 0 30.112-13.482 30.112-30.112s-13.482-30.112-30.112-30.112zm-22.068 29.144c.382 0 .74-.146 1.008-.414s.464-.608.41-1.078l-.892-5.148c-.148-.788-.63-1.41-1.476-1.41h-.004c-.144.006-2.882.15-5.97.97-.606 2.184-.964 4.466-1.06 6.82l7.932.26h.052zm4.782.144l13.62.44h.052c.576 0 .794-.284.874-.452.08-.172.158-.53-.226-.99-.18-.216-4.482-5.316-10.472-6.628-1.438-.314-4.582-.474-4.786-.482-.79 0-1.528.572-1.404 1.48l.892 5.138c.108.796.65 1.472 1.45 1.494zm31.096 13.096c0-2.272-1.848-4.12-4.12-4.12-2.272 0-4.12 1.848-4.12 4.12 0 2.272 1.848 4.12 4.12 4.12 2.272 0 4.12-1.848 4.12-4.12zm-39.448-6.092h4.112v4.174h4.236v-4.174h4.112v4.174h4.236v-4.174h4.112v4.174h4.236v-4.174h4.174v-4.238h-4.236v4.174h-4.112v-4.174h-4.236v4.174h-4.112v-4.174h-4.236v4.174h-4.112v-4.174h-4.236v4.174h-3.79c.302 1.46.74 2.864 1.242 4.238h2.61v-4.174z"/></svg>