<svg width="64" height="64" viewBox="0 0 64 64" xmlns="http://www.w3.org/2000/svg"><title>03012taxiF</title><path d="M28.969 29.199c.009.397-.397.842-.88.826l-13.468-.377c-.485-.016-.708-.377-.494-.8 0 0 .942-1.869 4.648-3.265 3.256-1.228 8.569-1.398 8.569-1.398.485-.022.73.232.882.815l.744 4.199zm6.113-4.565c4.916 1.043 8.507 5.228 8.507 5.228.31.36.168.646-.317.632l-11.305-.353c-.467-.004-.833-.38-.882-.88l-.744-4.194c-.118-.565.397-.837.882-.813 0 0 2.678.129 3.859.38zm6.104 14.419v-3.459h-3.406v3.459h-3.509v-3.459h-3.406v3.459h-3.511v-3.459h-3.406v3.459h-3.511v-3.459h-3.459v-3.511h3.511v3.459h3.406v-3.459h3.511v3.459h3.406v-3.459h3.511v3.459h3.406v-3.459h3.509v3.459h3.406v.053h.053v3.459h-3.511zm-28.864 5.842c-1.8 0-3.265-1.465-3.265-3.265s1.465-3.265 3.265-3.265 3.265 1.465 3.265 3.265-1.465 3.265-3.265 3.265zm39.942 0c-1.8 0-3.265-1.465-3.265-3.265s1.465-3.265 3.265-3.265 3.265 1.465 3.265 3.265-1.465 3.265-3.265 3.265zm10.506-13.365c-.645-1.074-2.495-1.452-5.856-2.139l-1.441-.297c-3.258-.684-6.524-1.025-7.392-1.108-1.021-.751-6.061-4.442-7.955-5.445-1.38-.73-2.924-1.242-5.798-1.483v-4l-.735-.034s-.538-.024-1.554-.024c-1.268 0-1.878 1.373-2.524 2.828-.156.353-.317.715-.487 1.057l.043.022-1.067.013c-2.653.049-7.721.509-9.943 1.215-2.492.791-4.992 2.691-6.336 3.71-.277.21-.496.377-.645.478-1.21.826-4.098 1.376-6.008 1.742l-.779.15c-2.796.552-3.363 1.919-3.346 2.97.013.831 0 2.803-.005 3.489l-.701 1.003-.123.284c-.014.067-.339 1.66.143 3.1.824 2.47 2.745 3.462 6.897 3.565.469 2.426 2.602 4.264 5.162 4.264 2.488 0 4.567-1.74 5.112-4.063l29.731.045c.563 2.3 2.627 4.018 5.099 4.018 2.474 0 4.541-1.722 5.101-4.025 1.91-.072 4.838-.4 5.668-1.718 1.268-2.019 1.396-6.854-.263-9.619z"/></svg>