<svg width="64" height="64" viewBox="0 0 64 64" xmlns="http://www.w3.org/2000/svg"><title>03012taxiL</title><path d="M62.249 31.769c-.68-1.131-2.522-1.508-5.865-2.193l-1.408-.29c-3.119-.655-6.248-.988-7.183-1.079-1.101-.811-5.912-4.329-7.746-5.299-1.342-.71-2.829-1.212-5.545-1.457v-4.154l-.93-.043s-.529-.024-1.528-.024c-1.384 0-2.037 1.472-2.667 2.895-.152.343-.307.691-.472 1.024l-.073.141-.73.009c-2.605.047-7.584.501-9.775 1.197-2.47.783-4.932 2.654-6.255 3.657-.265.203-.476.363-.619.461-1.144.779-3.938 1.314-5.786 1.666l-.76.147c-2.882.57-3.467 2.012-3.448 3.123.011.785.002 2.609-.004 3.334l-.76 1.086-.041.196c-.036.171-.333 1.705.147 3.145.845 2.534 2.793 3.543 7.006 3.635.542 2.255 2.564 3.942 4.984 3.942 2.347 0 4.311-1.591 4.922-3.746l29.176.045c.627 2.131 2.579 3.701 4.911 3.701 2.334 0 4.286-1.572 4.911-3.706 1.907-.068 4.922-.397 5.794-1.784 1.272-2.024 1.406-6.865-.252-9.628zm-31.091-10.852c.267-.6.712-1.606.885-1.736l.506.002v2.148c-.486-.021-1.009-.032-1.564-.04l.173-.375zm-18.372 24.019c-1.758 0-3.189-1.429-3.189-3.187 0-1.758 1.431-3.189 3.189-3.189s3.187 1.431 3.187 3.189-1.429 3.187-3.187 3.187zm39.01 0c-1.758 0-3.189-1.429-3.189-3.187 0-1.758 1.431-3.189 3.189-3.189s3.189 1.431 3.189 3.189-1.431 3.187-3.189 3.187zm9.054-4.58c-.254.361-1.916.755-3.968.862-.269-2.583-2.434-4.61-5.086-4.61-2.643 0-4.802 2.012-5.084 4.582h-28.843c-.282-2.569-2.44-4.582-5.082-4.582-2.579 0-4.7 1.914-5.065 4.393-4.337-.122-4.747-1.327-5.075-2.308-.243-.732-.166-1.587-.115-1.95l.866-1.239.002-.303.006-.764c.32.024.668-.011 1.075-.154 1.011-.36 1.38-1.146.823-1.756-.39-.429-1.135-.642-1.894-.616l-.002-.392c-.009-.535.621-.93 1.875-1.178l.747-.145c2.129-.405 5.041-.962 6.52-1.969.162-.111.399-.292.7-.52 1.229-.934 3.518-2.671 5.666-3.352 1.939-.617 6.677-1.06 9.218-1.105 6.822-.122 9.148.401 11 1.382 1.903 1.009 7.659 5.261 7.718 5.304l.22.164.275.024c.036.004 3.699.329 7.228 1.071l1.417.292c1.37.28 2.854.585 3.761.885-.687.222-1.003.753-.712 1.348.328.668 1.306 1.158 2.281 1.207.39 2.084.122 4.482-.472 5.429zm-31.806-10.748l-.728-4.102c-.107-.576-.386-.819-.86-.796 0 0-5.188.166-8.369 1.365-3.622 1.365-4.54 3.191-4.54 3.191-.207.412.009.764.484.779l13.154.369c.472.017.907-.395.86-.806zm2.929.919l11.04.344c.472.013.612-.264.309-.617 0 0-3.505-4.085-8.309-5.105-1.152-.245-3.768-.371-3.768-.371-.474-.023-.947.241-.86.794l.727 4.094c.04.499.388.847.862.86zm12.38 5.276h-3.326v-3.379h-3.428v3.379h-3.328v-3.379h-3.428v3.379h-3.326v-3.379h-3.43v3.379h-3.326v-3.379h-3.43v3.43h3.379v3.377h3.428v-3.377h3.326v3.377h3.43v-3.377h3.326v3.377h3.43v-3.377h3.326v3.377h3.43v-3.377h3.377v-3.43h-3.43v3.379z"/></svg>