<svg width="64" height="64" viewBox="0 0 64 64" xmlns="http://www.w3.org/2000/svg"><title>02017theftL</title><path d="M52.826 52.594v-.012c-1.251-5.326-4.886-10.768-14.002-12.615 4.362-2.482 7.314-7.166 7.314-12.533 0-2.584-.695-5.007-1.889-7.109h.274l.114-.02c.67-.054 1.207-.541 1.207-1.147v-2.836c0-.643-.593-1.17-1.32-1.17h-1.704c-2.282-3.706-6.362-6.186-11.03-6.186-4.668 0-8.745 2.48-11.028 6.186h-1.301c-.727 0-1.32.527-1.32 1.17v2.836c0 .482.336.9.813 1.076l.252.047c-1.214 2.112-1.919 4.55-1.919 7.153 0 5.378 2.965 10.066 7.336 12.548-8.77 1.82-12.439 7.059-13.822 12.234-5.019-5.264-8.108-12.385-8.108-20.216 0-16.161 13.147-29.305 29.305-29.305s29.305 13.144 29.305 29.305c0 8.021-3.239 15.298-8.478 20.594zm-24.567-21.657c1.479-.967 2.606-1.587 3.696-1.587 1.09 0 2.206.621 3.684 1.587 1.135.766 4.498 2.124 7.007 1.09-1.798 4.265-6.021 7.267-10.934 7.267-5.022 0-9.317-3.143-11.042-7.561 2.537 1.54 6.377.049 7.588-.796zm.739-3.835c0 1.209-1.189 2.191-2.658 2.191-1.466 0-2.656-.982-2.656-2.191 0-1.212 1.189-2.191 2.656-2.191 1.469 0 2.658.979 2.658 2.191zm11.218 0c0 1.209-1.192 2.191-2.658 2.191s-2.656-.982-2.656-2.191c0-1.212 1.189-2.191 2.656-2.191 1.466 0 2.658.979 2.658 2.191zm-19.593-3.835c.401-1.061.947-2.05 1.62-2.942h18.942c.67.893 1.217 1.882 1.617 2.942h-22.179zm11.376-23.267c-17.644 0-32 14.353-32 32 0 17.644 14.356 32 32 32s32-14.356 32-32c0-17.647-14.356-32-32-32z"/></svg>