<svg width="64" height="64" viewBox="0 0 64 64" xmlns="http://www.w3.org/2000/svg"><title>02017theftC</title><path d="M44.356 21.064c0 .57-.504 1.026-1.133 1.078l-.107.019h-1.934c.465.71.849 1.474 1.156 2.275h-22.594c.308-.801.692-1.565 1.156-2.275h-1.325c-.169 0-.33-.031-.477-.085-.448-.167-.764-.557-.764-1.012v-2.665c0-.603.557-1.096 1.241-1.096h1.22c2.145-3.483 5.977-5.812 10.36-5.812 4.385 0 8.217 2.329 10.362 5.812h1.6c.683 0 1.241.493 1.241 1.096v2.665zm-10.015 7.343c0-1.255 1.233-2.271 2.752-2.271 1.519 0 2.752 1.016 2.752 2.271 0 1.253-1.233 2.269-2.752 2.269-1.519 0-2.752-1.016-2.752-2.269zm-11.617 0c0-1.255 1.233-2.271 2.752-2.271 1.519 0 2.752 1.016 2.752 2.271 0 1.253-1.233 2.269-2.752 2.269-1.519 0-2.752-1.016-2.752-2.269zm12.383 3.97c1.15.758 4.453 2.112 7.023 1.21-1.87 4.274-6.134 7.269-11.089 7.269-5.058 0-9.396-3.119-11.204-7.531 2.624 1.379 6.412-.089 7.624-.948 1.22-.863 2.799-1.637 3.801-1.637.999 0 2.387.677 3.844 1.637zm-25.278 20.071c1.773-4.66 5.591-9.049 13.38-10.793 2.287 1.394 4.963 2.213 7.833 2.213 2.822 0 5.457-.793 7.719-2.145 7.725 1.862 11.51 6.497 13.314 11.025-5.275 5.578-12.722 9.084-20.988 9.084-8.409 0-15.969-3.631-21.258-9.383zm21.258 11.551c8.481 0 16.157-3.404 21.766-8.908 5.746-5.64 9.319-13.487 9.319-22.175 0-17.166-13.917-31.083-31.085-31.083h-.004c-17.166 0-31.083 13.917-31.083 31.083 0 8.572 3.47 16.332 9.084 21.956v-.002c5.628 5.638 13.407 9.129 22.004 9.129z"/></svg>