<svg width="64" height="64" viewBox="0 0 64 64" xmlns="http://www.w3.org/2000/svg"><title>07012tirechangeF</title><path d="M60.13 51.366c2.148-4.708 3.87-9.752 3.87-15.291 0-17.686-14.318-32.034-31.999-32.075-17.681.04-32.001 14.389-32.001 32.075 0 5.539 1.724 10.583 3.874 15.291 1.345 2.96-2.33 3.81-2.247 6.055.092 2.633 4.102 3.088 9.823 3.088h41.1c5.724 0 9.733-.455 9.826-3.088.081-2.245-3.597-3.095-2.245-6.055zm-27.997 5.769c-11.58 0-20.975-9.397-20.975-20.977 0-11.587 9.395-20.977 20.975-20.977 11.587 0 20.977 9.39 20.977 20.977 0 11.58-9.39 20.977-20.977 20.977zm.047-24.975c.888 0 1.606-.715 1.606-1.603 0-.883-.718-1.603-1.606-1.603-.888 0-1.606.72-1.606 1.603 0 .888.718 1.603 1.606 1.603zm-4.016 3.96c0-.886-.718-1.603-1.603-1.603-.883 0-1.606.718-1.606 1.603 0 .888.722 1.606 1.606 1.606.886 0 1.603-.718 1.603-1.606zm3.96 7.225c.888 0 1.606-.72 1.606-1.603 0-.886-.718-1.601-1.606-1.601-.888 0-1.603.715-1.603 1.601 0 .883.715 1.603 1.603 1.603zm5.622-8.772c-.888 0-1.603.715-1.603 1.608 0 .883.715 1.601 1.603 1.601.883 0 1.603-.718 1.603-1.601 0-.893-.72-1.608-1.603-1.608zm-10.844-14.825c-3.922 1.262-6.465 3.903-6.465 3.903s4.159 3.846 8.509 2.446c4.353-1.402 5.485-6.951 5.485-6.951s-3.607-.663-7.528.602zm-11.978 16.371c-.012 4.121 1.715 7.356 1.715 7.356s4.942-2.766 4.954-7.337c.012-4.571-4.916-7.363-4.916-7.363s-1.741 3.223-1.752 7.344zm11.869 16.452c3.917 1.286 7.524.642 7.524.642s-1.101-5.553-5.447-6.979c-4.343-1.423-8.521 2.401-8.521 2.401s2.529 2.652 6.444 3.936zm19.315-6.205c2.43-3.327 2.934-6.958 2.934-6.958s-5.624-.668-8.319 3.024c-2.697 3.69-.35 8.845-.35 8.845s3.304-1.584 5.736-4.912zm.066-20.286c-2.413-3.341-5.71-4.942-5.71-4.942s-2.373 5.144.303 8.848c2.678 3.706 8.305 3.067 8.305 3.067s-.485-3.63-2.899-6.972z"/></svg>