<svg width="64" height="64" viewBox="0 0 64 64" xmlns="http://www.w3.org/2000/svg"><title>07012tirechangeL</title><path d="M60.171 51.282c1.781-3.907 3.829-9.167 3.829-15.208 0-17.619-14.31-31.992-31.926-32.071l-.076-.003-.069.003c-17.611.079-31.929 14.45-31.929 32.071 0 6.044 2.048 11.301 3.831 15.208.358.779.178 1.099-.748 2.126-.7.776-1.573 1.746-1.522 3.182.15 4.23 6.518 4.23 10.735 4.23h39.411c4.214 0 10.583 0 10.735-4.23.051-1.436-.822-2.405-1.525-3.182-.924-1.028-1.104-1.347-.746-2.126zm-8.464 6.909h-39.411c-1.992 0-8.051 0-8.109-1.695-.013-.348.312-.733.847-1.33.86-.951 2.299-2.547 1.187-4.978-1.672-3.661-3.593-8.578-3.593-14.115 0-16.198 13.179-29.407 29.369-29.442 16.198.036 29.374 13.245 29.374 29.442 0 5.536-1.918 10.451-3.593 14.115-1.109 2.431.33 4.027 1.187 4.978.535.596.863.982.85 1.33-.061 1.695-5.909 1.695-8.109 1.695zm-19.633-42.938c-11.215 0-20.311 9.094-20.311 20.308 0 11.217 9.096 20.311 20.311 20.311 11.217 0 20.308-9.094 20.308-20.311 0-11.215-9.091-20.308-20.308-20.308zm0 37.333c-9.388 0-17.025-7.637-17.025-17.025 0-9.385 7.637-17.025 17.025-17.025 9.388 0 17.025 7.64 17.025 17.025 0 9.388-7.637 17.025-17.025 17.025zm.025-20.547c.784 0 1.418-.637 1.418-1.418 0-.784-.634-1.418-1.418-1.418-.784 0-1.418.634-1.418 1.418 0 .781.634 1.418 1.418 1.418zm-3.55 3.499c0-.784-.634-1.418-1.418-1.418-.781 0-1.416.634-1.416 1.418 0 .784.634 1.418 1.416 1.418.784 0 1.418-.634 1.418-1.418zm3.499 6.384c.784 0 1.418-.634 1.418-1.418 0-.781-.634-1.418-1.418-1.418-.784 0-1.418.637-1.418 1.418 0 .784.634 1.418 1.418 1.418zm4.968-7.751c-.784 0-1.418.632-1.418 1.418 0 .781.634 1.416 1.418 1.416.781 0 1.416-.634 1.416-1.416 0-.787-.634-1.418-1.416-1.418zm-3.816-13.569c-.107-.028-1.094-.287-2.53-.287-1.106 0-2.18.155-3.192.459-2.991.898-4.79 2.925-4.864 3.012-.236.269-.348.622-.307.977.041.355.226.677.515.886.081.061 2.053 1.472 4.585 1.472.65 0 1.289-.094 1.895-.279 3.38-1.015 4.694-4.425 4.75-4.567.124-.335.104-.705-.058-1.025-.162-.317-.449-.553-.794-.647zm-13.156 8.972c-.277-.221-.632-.315-.99-.261-.353.056-.665.256-.86.556-.063.096-1.54 2.37-1.609 5.496-.069 3.118 1.307 5.46 1.365 5.557.183.307.487.523.835.596l.254.023c.266 0 .528-.084.748-.241.124-.091 3.057-2.268 3.136-5.798.076-3.527-2.758-5.828-2.88-5.927zm9.142 14.673c-.693-.244-1.428-.368-2.187-.368-2.382 0-4.26 1.223-4.339 1.274-.297.195-.5.507-.553.86-.056.353.038.71.261.992.071.089 1.781 2.195 4.727 3.222 1.16.406 2.4.609 3.687.609 1.16 0 1.938-.167 2.022-.188.348-.079.647-.299.822-.609.178-.312.213-.683.104-1.02-.048-.147-1.21-3.608-4.544-4.773zm16.198-6.102c-.155 0-3.808.036-5.945 2.844-2.136 2.811-1.195 6.341-1.154 6.488.094.345.33.632.647.794.18.091.378.137.576.137.15 0 .302-.025.447-.081.107-.041 2.639-1.012 4.529-3.499 1.893-2.487 2.154-5.186 2.164-5.3.033-.353-.086-.705-.327-.972-.239-.261-.581-.411-.936-.411zm-5.036-15.219c-.327-.134-.698-.134-1.025.013-.322.147-.571.424-.68.764-.048.15-1.142 3.633.868 6.531 2.012 2.903 5.661 3.098 5.813 3.103l.058.003h.025c.738-.056 1.294-.558 1.294-1.269 0-.165-.033-.325-.091-.472-.107-.868-.497-2.966-1.89-4.978-1.781-2.563-4.265-3.649-4.372-3.694z"/></svg>