<svg width="64" height="64" viewBox="0 0 64 64" xmlns="http://www.w3.org/2000/svg"><title>07012tirechangeC</title><path d="M32 0c-17.673 0-32 14.325-32 32 0 17.673 14.327 32 32 32 17.673 0 32-14.327 32-32 0-17.675-14.327-32-32-32zm22.028 47.579c-.068 1.889-2.946 2.217-7.054 2.217h-29.511c-4.106 0-6.986-.327-7.052-2.217-.06-1.611 2.58-2.223 1.613-4.349-1.543-3.379-2.782-7.001-2.782-10.98 0-12.697 10.283-22.999 22.978-23.027l-.053-.002h.106l-.053.002c12.693.028 22.976 10.329 22.976 23.027 0 3.979-1.237 7.6-2.78 10.98-.969 2.125 1.671 2.738 1.613 4.349zm-21.713-30.327c-8.317 0-15.061 6.74-15.061 15.061 0 8.315 6.744 15.061 15.061 15.061 8.319 0 15.061-6.746 15.061-15.061 0-8.321-6.742-15.061-15.061-15.061zm-10.072 19.566c-.149.106-.323.164-.502.164l-.17-.019c-.234-.047-.438-.191-.559-.395-.047-.079-1.141-1.934-1.084-4.421.051-2.482 1.222-4.293 1.271-4.37.132-.2.34-.336.578-.372.23-.038.476.026.663.174.096.077 2.334 1.894 2.272 4.672-.06 2.78-2.372 4.495-2.47 4.567zm11.19 7.158c-.117.208-.317.357-.55.41-.068.015-.68.151-1.605.151-1.024 0-2.011-.164-2.933-.487-2.349-.82-3.705-2.493-3.762-2.565-.149-.185-.21-.427-.174-.663.038-.236.172-.444.372-.576.062-.04 1.541-1.003 3.424-1.003.597 0 1.175.098 1.722.287 2.621.918 3.539 3.649 3.577 3.764.072.227.049.476-.07.682zm-6.272-11.692c0-.635.519-1.152 1.152-1.152.635 0 1.152.516 1.152 1.152 0 .638-.516 1.152-1.152 1.152-.633 0-1.152-.514-1.152-1.152zm5.148 2.886c.638 0 1.152.514 1.152 1.15 0 .635-.514 1.152-1.152 1.152-.638 0-1.152-.516-1.152-1.152 0-.635.514-1.15 1.152-1.15zm-1.114-6.882c0-.633.516-1.15 1.154-1.15.638 0 1.152.516 1.152 1.15 0 .638-.514 1.154-1.152 1.154-.638 0-1.154-.516-1.154-1.154zm2.572-6.848c-.043.115-1.078 2.806-3.741 3.607-.478.142-.976.215-1.486.215-2 0-3.558-1.112-3.622-1.16-.193-.14-.319-.355-.346-.593-.028-.236.049-.474.206-.655.06-.068 1.49-1.677 3.87-2.393.806-.242 1.662-.366 2.544-.366 1.158 0 1.968.219 2.002.227.232.064.425.221.533.434.108.213.123.461.038.684zm2.576 12.038c-.635 0-1.15-.516-1.15-1.152 0-.64.514-1.154 1.15-1.154.635 0 1.152.514 1.152 1.154 0 .635-.516 1.152-1.152 1.152zm5.928 6.244c-1.509 1.979-3.515 2.752-3.6 2.784-.098.036-.2.055-.302.055-.132 0-.264-.03-.385-.091-.213-.108-.37-.302-.434-.533-.032-.117-.774-2.901.91-5.114 1.679-2.213 4.559-2.242 4.68-2.242h.002c.238 0 .465.1.627.276.159.176.24.41.219.648-.006.091-.21 2.238-1.717 4.217zm1.756-10.255c0 .476-.425.884-.867.85h-.055c-.123-.006-2.999-.162-4.582-2.444-1.586-2.285-.718-5.035-.682-5.15.074-.227.24-.414.457-.512.217-.1.468-.102.687-.006.085.034 2.055.895 3.473 2.937 1.141 1.645 1.437 3.36 1.511 4.015.038.096.06.202.06.31z"/></svg>