<svg width="64" height="64" viewBox="0 0 64 64" xmlns="http://www.w3.org/2000/svg"><title>05030todaysdateC</title><path d="M51.555 45.706c0 2.831-2.304 5.135-5.133 5.135h-28.838c-2.833 0-5.139-2.304-5.139-5.135v-24.171c0-2.833 2.306-5.135 5.139-5.135h2.457v-1.722c0-.442.191-.859.525-1.148.329-.289.769-.421 1.214-.357.742.106 1.301.789 1.301 1.588v1.639h17.797v-1.722c0-.442.191-.859.523-1.148.332-.289.776-.417 1.216-.357.742.106 1.301.789 1.301 1.588v1.639h2.506c2.829 0 5.133 2.302 5.133 5.135v24.171zm-10.255-3.656c0 .446-.361.808-.808.808h-7.728c-.448 0-.81-.361-.808-.808v-6.74c-.002-.446.359-.81.808-.81h7.728c.446 0 .808.363.808.81v6.74zm7.809-16.304h-34.216v19.96c0 1.484 1.205 2.689 2.691 2.689h28.838c1.481 0 2.687-1.205 2.687-2.689v-19.96zm-17.108-25.746c-17.675 0-32.001 14.326-32.001 32.001 0 17.673 14.326 31.999 32.001 31.999 17.673 0 32.001-14.326 32.001-31.999 0-17.675-14.328-32.001-32.001-32.001z"/></svg>