<svg width="64" height="64" viewBox="0 0 64 64" xmlns="http://www.w3.org/2000/svg"><title>05030todaysdateL</title><path d="M32.159 37.752c-.003-.777.626-1.408 1.405-1.408h13.425c.777 0 1.405.631 1.402 1.408v11.71c.003.777-.626 1.405-1.402 1.405h-13.425c-.779 0-1.408-.628-1.405-1.405v-11.71zm30.545 18.063c0 2.987-2.427 5.414-5.412 5.414h-50.106c-2.985 0-5.414-2.427-5.414-5.414v-35.419h60.933v35.419zm-5.412-50.182h-5.091v-3.584c0-.972-.66-1.89-1.621-2.028-1.173-.167-2.179.74-2.179 1.882v3.73h-32.403v-3.584c0-.972-.66-1.89-1.621-2.028-1.173-.167-2.179.74-2.179 1.882v3.73h-5.01c-4.512 0-8.186 3.673-8.186 8.188v41.994c0 4.512 3.673 8.186 8.186 8.186h50.106c4.512 0 8.183-3.673 8.183-8.186v-41.994c0-4.515-3.67-8.188-8.183-8.188z"/></svg>