<svg width="64" height="64" viewBox="0 0 64 64" xmlns="http://www.w3.org/2000/svg"><title>02014tornadoC</title><path d="M48.376 25.65c-.716 2.036-2.56 3.01-4.527 3.522-4.055 1.055-9.974 1.208-16.617-.489-1.817-.465-5.539-1.912-5.884-2.093-.372-.194-.987.101-.266.609 2.562 1.802 6.962 3.371 11.762 3.749 6.538.514 9.668.417 9.97 1.474.12.415-.26 1.48-.793 2.058-1.144 1.237-2.178 1.511-3.289 1.864-.987.316-2.566.665-5.642 1.297-2.339.481-5.865.165-5.845.721.021.555 3.619.76 5.828.465 1.745-.233 3.07-.382 3.927-.615 1.088-.295 2.368-.481 1.732.621-3.731 6.485-.737 9.123-2.787 14.592-.446 1.185-1.394 1.007-1.6.178-.052-.202-.124-.415-.221-.64-.388-1.245-.97-3.136-1.778-4.519-.754-1.29-2.221-2.083-2.901-3.041-.535-.756-.644-1.001-.964-1.602-.328-.578.343-.966 1.672-.981 1.276-.017 1.734-.12 2.209-.246.361-.097.644-.229.597-.446-.064-.306-1.404-.122-2.426-.111-1.763.019-3.188-.037-4.897-1.082l-.621-.436c-1.866-1.332-2.263-2.382-2.975-3.117-.454-.469-2.595-1.288-3.499-2.234-.562-.588-.966-1.334-.76-1.866.209-.535 4.022.985 7.882 1.346 4.315.405 8.844.103 8.739-.409-.076-.382-4.294.206-8.941-.613-5.153-.91-6.939-2.614-8.095-3.702-1.48-1.391-1.965-3.918-1.856-6.099.087-1.701.756-3.08 1.204-3.807.314-.508.574-.599.929-.244.933.933 2.694 2.314 5.502 4.071 2.81 1.755 10.04 3.57 13.151 3.217.877-.101.163-.721-.223-.78-1.071-.167-3.297-.59-5.114-1.055-9.749-2.49-12.819-6.613-12.162-9.183.473-1.846 4.42-4.123 11.776-2.244 5.184 1.323 8.692 4.408 8.124 6.637-.349 1.358-3.136 1.466-6.334.648-3.198-.818-5.547-2.432-5.248-3.607.196-.762 1.466-1.144 3.202-1.1.785-.083.489-.564-.456-.714-1.67-.268-5.267-.26-5.739 1.586-.306 1.197 2.164 4.282 7.969 5.764 5.805 1.482 11.481 1.949 12.928.597 1.354-1.268 1.247-2.595.741-3.289-.316-.431-.718-.892.446-.452.906.343 3.32 2.546 2.172 5.801zm-17.292-23.816c-17.166 0-31.083 13.917-31.083 31.083 0 17.166 13.917 31.083 31.083 31.083 17.166 0 31.083-13.917 31.083-31.083 0-17.166-13.917-31.083-31.083-31.083z"/></svg>