<svg width="64" height="64" viewBox="0 0 64 64" xmlns="http://www.w3.org/2000/svg"><title>02014tornadoF</title><path d="M21.23 43.987c2.567 1.567 4.705 1.65 7.353 1.624 1.534-.014 3.544-.292 3.641.166.069.327-.353.524-.898.668-.711.192-1.399.346-3.314.37-1.996.024-2.897.785-2.51 1.474.481.898.642 1.271 1.446 2.404 1.019 1.439 3.224 2.626 4.354 4.563 1.214 2.076 2.088 4.914 2.667 6.782.147.341.256.657.334.962.311 1.244 1.733 1.512 2.399-.265 3.079-8.211-1.415-12.167 4.186-21.902.953-1.655-.967-1.375-2.6-.932-1.287.348-3.278.574-5.895.922-3.316.443-8.716.135-8.747-.697-.031-.834 5.262-.36 8.773-1.081 4.617-.948 6.988-1.472 8.469-1.946 1.666-.531 3.219-.941 4.933-2.799.801-.868 1.37-2.465 1.192-3.089-.453-1.586-5.151-1.439-14.964-2.212-7.206-.567-13.807-2.92-17.65-5.625-1.086-.763-.161-1.207.396-.915.521.27 6.106 2.444 8.832 3.141 9.972 2.546 18.854 2.318 24.941.735 2.951-.77 5.717-2.233 6.796-5.288 1.723-4.885-1.899-8.192-3.262-8.706-1.745-.657-1.14.033-.668.68.759 1.041.922 3.032-1.112 4.935-2.171 2.031-10.69 1.33-19.404-.894-8.711-2.226-12.418-6.855-11.959-8.652.706-2.771 6.106-2.785 8.614-2.382 1.42.23 1.863.951.685 1.074-2.607-.064-4.513.51-4.807 1.652-.45 1.764 3.077 4.186 7.874 5.414 4.8 1.225 8.986 1.064 9.505-.974.856-3.347-4.409-7.974-12.191-9.963-11.039-2.818-16.965.597-17.671 3.368-.986 3.859 3.62 10.046 18.252 13.784 2.726.697 6.066 1.33 7.673 1.583.581.09 1.655 1.019.337 1.171-4.67.531-15.521-2.193-19.736-4.828-4.217-2.636-6.86-4.708-8.261-6.108-.533-.533-.922-.398-1.394.365-.671 1.09-1.652 3.16-1.804 5.713-.216 3.582.562 7.066 2.785 9.154 1.735 1.631 4.416 4.188 12.148 5.554 6.974 1.233 13.303.348 13.421.92.156.77-6.642 1.223-13.12.614-5.793-.543-11.515-2.821-11.828-2.02-.311.799.415 1.47 1.304 2.534 1.202 1.436 4.407 2.916 5.089 3.622 1.069 1.102 1.664 2.676 4.463 4.677l.932.654"/></svg>