<svg width="64" height="64" viewBox="0 0 64 64" xmlns="http://www.w3.org/2000/svg"><title>07010towC</title><path d="M16.248 10.922c-.499-.451-.601-1.199-.236-1.768.368-.563 1.078-.786 1.705-.519l35.753 15.36c.504.219.831.716.831 1.265v7.87c.874-.189 1.707-.648 1.928-1.728l.723-8.308c.157-1.802 1.696-3.207 3.501-3.207h2.159c-4.778-11.664-16.227-19.887-29.611-19.887-17.673 0-32 14.327-32 32.002 0 17.671 14.327 31.998 32 31.998 11.007 0 20.71-5.56 26.47-14.019h-14.289c-.266 3.579-3.231 6.417-6.878 6.417-3.554 0-6.457-2.699-6.85-6.149h-4.043c-4.408 0-5.333-2.627-5.333-4.829v-2.831c0-1.25.708-2.055 1.177-2.589.132-.153.336-.385.37-.474l-.019-2.937c0-1.626 1.235-3.367 3.951-3.367h10.119v-2.723l-17.817-16.312v13.384c.84.468 1.426 1.328 1.426 2.357 0 1.027-.587 1.885-1.426 2.355v1.505c0 2.82-2.293 5.116-5.109 5.116-1.977 0-3.794-1.154-4.638-2.946-.323-.689-.03-1.507.661-1.83.689-.327 1.507-.03 1.83.659.389.829 1.231 1.365 2.147 1.365 1.301 0 2.355-1.058 2.355-2.363v-1.598c-.757-.487-1.286-1.294-1.286-2.261 0-.967.529-1.775 1.286-2.261v-15.938l-.857-.806zm22.055 34.17c-2.414 0-4.378 1.962-4.378 4.376 0 .266.034.523.079.776.368 2.045 2.151 3.603 4.3 3.603 2.247 0 4.081-1.705 4.329-3.883.019-.164.049-.325.049-.495 0-2.414-1.964-4.376-4.378-4.376zm1.673-16.227c.289.264.455.635.455 1.024v3.333h11.116v-7.054l-27.811-11.968 16.24 14.665z"/></svg>