<svg width="64" height="64" viewBox="0 0 64 64" xmlns="http://www.w3.org/2000/svg"><title>07010towF</title><path d="M53.299 46.834c-1.587 0-2.911-1.1-3.275-2.574-.064-.261-.109-.528-.109-.809 0-1.865 1.517-3.385 3.385-3.385 1.865 0 3.383 1.519 3.383 3.385 0 .269-.039.528-.1.78-.353 1.489-1.687 2.602-3.283 2.602zm-6.205-13.873h-9.232c-1.463 0-2.251-.788-2.251-1.914 0-1.124.12-1.233.226-2.251.103-1.008.337-2.14 1.124-2.14h7.781c1.239 0 1.619.778 2.27 1.967 0 0 .807 1.42 1.497 2.649.545.966-.288 1.689-1.414 1.689zm-17.019.498h-7.839v-2.965c0-.291-.124-.572-.342-.767l-11.368-10.268 19.549 8.412v5.588zm-10.468 13.375c-1.521 0-2.794-1.013-3.221-2.395-.096-.314-.164-.641-.164-.987 0-1.865 1.517-3.385 3.385-3.385 1.865 0 3.383 1.519 3.383 3.385 0 .293-.049.573-.118.844-.378 1.455-1.692 2.538-3.264 2.538zm-14.516-29.522v11.449c-.513.352-.871.912-.871 1.581 0 .668.357 1.23.871 1.581v1.177c0 .901-.733 1.634-1.634 1.634-.632 0-1.215-.37-1.485-.944-.244-.517-.857-.739-1.376-.495-.519.243-.741.859-.496 1.378.609 1.294 1.927 2.132 3.358 2.132 2.042 0 3.704-1.662 3.704-3.706v-1.111c.568-.342.966-.936.966-1.647s-.399-1.305-.966-1.647v-9.482l13.002 11.742v2.505h-7.909c-1.546 0-2.238.912-2.238 1.818 0 0 .009 1.354.009 2.144 0 .211-.154.397-.404.683-.31.353-.696.792-.696 1.463v2.023c0 1.929 1.055 2.866 3.225 2.866h2.102c.474 2.529 2.689 4.451 5.353 4.451 2.726 0 4.973-2.019 5.372-4.639l.662-.002h21.64l.643-.002c.397 2.621 2.644 4.642 5.374 4.642 2.741 0 4.996-2.04 5.376-4.68h2.019c1.578 0 3.275-.867 3.275-2.76l.03-1.529c.015-.792-.196-1.918-.577-2.433-.212-.29-.464-1.164-.483-1.954-.024-.995-.803-1.961-1.771-2.2l-8.32-2.057c-.688-.169-1.579-.825-1.948-1.433l-2.71-4.475c-.495-.814-1.626-1.453-2.58-1.453h-9.779c-1.015 0-1.912.824-1.999 1.833l-.519 5.959c-.124.66-.594 1.16-1.168 1.391v-5.927c0-.414-.246-.788-.626-.951l-25.92-11.152c-.47-.201-1.008-.034-1.282.391-.273.427-.197.989.177 1.327l.598.508z"/></svg>