<svg width="64" height="64" viewBox="0 0 64 64" xmlns="http://www.w3.org/2000/svg"><title>07010towL</title><path d="M5.087 17.337l-.095 11.072c-.53.341-.903.906-.903 1.584 0 .677.372 1.245.903 1.586v1.12c0 .912-.741 1.653-1.653 1.653-.638 0-1.228-.374-1.5-.955-.227-.482-.802-.689-1.284-.462-.482.227-.69.8-.463 1.284.59 1.252 1.865 2.062 3.248 2.062 1.976 0 3.583-1.608 3.583-3.583v-1.055c.586-.328.999-.931.999-1.651 0-.718-.413-1.321-.999-1.649v-9.376l12.853 11.606v1.904h-7.089c-1.902 0-2.767 1.221-2.767 2.36l.013 2.056c-.022.065-.166.225-.259.333-.329.374-.824.938-.824 1.813v1.984c0 1.543.648 3.383 3.737 3.383h2.211l.819-.006c.536 2.233 2.537 3.903 4.93 3.903 2.46 0 4.517-1.759 4.98-4.083l.214-.002 22.392-.024c.454 2.338 2.514 4.109 4.982 4.109 2.473 0 4.534-1.777 4.986-4.12l2.084-.002c2.228 0 3.784-1.353 3.784-3.27l.032-1.569c.017-.845-.21-2.032-.677-2.665-.119-.162-.348-.864-.367-1.658-.028-1.184-.951-2.332-2.099-2.617l-8.299-2.049c-.488-.121-1.191-.64-1.452-1.068l-2.732-4.511c-.566-.934-1.816-1.64-2.909-1.64h-9.735c-1.245 0-2.345 1.009-2.453 2.25l-.506 5.82c-.153.784-.735 1.161-1.349 1.21v-5.512c0-.385-.229-.735-.584-.886l-25.417-10.938c-.437-.184-.94-.03-1.195.365-.255.398-.184.921.166 1.238l.696.657zm56.951 23.556c0 1.319-1.664 1.359-1.854 1.359l-2.086.002c-.454-2.339-2.512-4.113-4.984-4.113-2.473 0-4.535 1.779-4.984 4.124l-22.391.024-.207.002c-.439-2.358-2.505-4.15-4.988-4.15-2.544 0-4.64 1.887-5.004 4.333l-.744.004h-2.211c-1.547 0-1.807-.449-1.807-1.453v-1.984c0-.134.104-.266.344-.54.309-.354.733-.836.733-1.565l-.009-2.103c0-.404.7-.424.839-.424h18.179c1.77 0 3.439-.821 3.746-2.592l.588-6.262c.022-.255.275-.488.53-.488h9.735c.419 0 1.042.352 1.258.711l2.732 4.509c.523.864 1.656 1.699 2.639 1.943l8.299 2.049c.311.076.625.469.636.921.02.834.279 2.001.739 2.624.114.158.315.841.301 1.483l-.032 1.587zm-40.651-11.466l-11.377-10.273 19.482 8.382v4.941h-7.789v-2.334c0-.272-.115-.532-.316-.717zm2.311 13.796c0 1.738-1.414 3.151-3.153 3.151-1.738 0-3.151-1.413-3.151-3.151 0-1.738 1.413-3.155 3.151-3.155 1.738 0 3.153 1.416 3.153 3.155zm32.569 0c0 1.738-1.414 3.151-3.153 3.151-1.738 0-3.151-1.413-3.151-3.151 0-1.738 1.413-3.155 3.151-3.155 1.738 0 3.153 1.416 3.153 3.155zm-10.08-14.732c-.56-1.022-.886-1.69-1.95-1.69h-6.687c-.677 0-.878.971-.968 1.837-.089.875-.194.968-.194 1.936s.677 1.645 1.936 1.645h7.934c.968 0 1.682-.622 1.215-1.452l-1.286-2.276z"/></svg>