<svg width="64" height="64" viewBox="0 0 64 64" xmlns="http://www.w3.org/2000/svg"><title>03010towtruktrakL</title><path d="M5.216 24.35v10.908c-.478.344-.808.876-.808 1.51 0 .636.33 1.168.808 1.512v1.164c0 .856-.696 1.552-1.55 1.552-.61 0-1.15-.344-1.412-.898-.246-.518-.864-.74-1.38-.494-.518.244-.74.862-.494 1.38.598 1.266 1.888 2.084 3.286 2.084 1.998 0 3.624-1.624 3.624-3.624v-1.1c.53-.336.904-.9.904-1.576 0-.674-.374-1.238-.904-1.574v-9.14l12.54 11.324v1.764h-6.924c-1.938 0-2.82 1.25-2.82 2.418l.022 2c-.028.058-.158.208-.244.306-.334.378-.836.952-.836 1.846v1.96c0 1.564.656 3.43 3.776 3.43h2.956c.56 2.132 2.482 3.712 4.794 3.712 2.374 0 4.354-1.67 4.846-3.898h22.536c.494 2.228 2.474 3.898 4.852 3.898 2.388 0 4.38-1.688 4.858-3.936h2.216c2.252 0 3.826-1.37 3.826-3.312l.032-1.554c.016-.848-.214-2.04-.686-2.686-.114-.158-.33-.832-.346-1.59-.028-1.206-.968-2.376-2.14-2.664l-8.204-2.026c-.456-.114-1.14-.618-1.382-1.018l-2.066-3.414c2.636-3.106 4.946-6.19 4.946-10.616 0-7.064-5.748-12.812-12.812-12.812-7.066 0-12.812 5.748-12.812 12.812 0 4.414 2.298 7.494 4.928 10.594l-.464 5.352c-.102.626-.664 1.064-1.172 1.116v-5.348c0-.414-.246-.79-.626-.952l-25.13-10.812c-.468-.202-1.008-.034-1.282.392-.276.428-.2.99.178 1.33l.566.508v.172zm56.398 23.196c0 1.198-1.458 1.26-1.752 1.26h-2.214c-.478-2.25-2.47-3.938-4.86-3.938-2.406 0-4.412 1.706-4.874 3.976h-22.49c-.464-2.27-2.468-3.976-4.87-3.976-2.47 0-4.502 1.802-4.892 4.16h-2.858c-1.588 0-1.702-.512-1.702-1.356v-1.96c0-.106.12-.252.32-.478.314-.358.746-.85.746-1.602l-.008-2.08c0-.266.468-.336.746-.336h17.974c1.228 0 3.388-.52 3.778-2.614l.36-3.81c2.082 2.478 4.068 5.142 5.01 8.67.122.454.532.77 1.002.77s.88-.316 1.002-.77c1.008-3.774 3.208-6.56 5.446-9.186l1.71 2.824c.524.872 1.668 1.712 2.658 1.958l8.206 2.028c.272.066.556.42.566.83.02.838.282 2.014.744 2.636.108.158.296.816.284 1.42l-.032 1.574zm-8.804 5.254c-1.618 0-2.936-1.314-2.936-2.932 0-1.62 1.318-2.936 2.936-2.936 1.618 0 2.932 1.316 2.932 2.936 0 1.618-1.314 2.932-2.932 2.932zm-32.234 0c-1.618 0-2.936-1.314-2.936-2.932 0-1.62 1.318-2.936 2.936-2.936 1.618 0 2.932 1.316 2.932 2.936 0 1.618-1.314 2.932-2.932 2.932zm.986-16.652l-10.876-9.822 18.752 8.068v4.748h-7.534v-2.224c0-.294-.126-.574-.342-.77zm19.468-24.888c5.922 0 10.738 4.816 10.738 10.738 0 4.092-2.422 6.916-5.228 10.184-1.94 2.26-4.084 4.754-5.51 7.936-1.426-3.182-3.57-5.676-5.51-7.936-2.806-3.268-5.23-6.092-5.23-10.184 0-5.922 4.818-10.738 10.74-10.738zm-.152 14.918c2.598 0 4.708-2.11 4.708-4.71 0-2.602-2.11-4.71-4.708-4.71-2.602 0-4.712 2.108-4.712 4.71 0 2.6 2.11 4.71 4.712 4.71z"/></svg>