<svg width="64" height="64" viewBox="0 0 64 64" xmlns="http://www.w3.org/2000/svg"><title>03010towtruktrakC</title><path d="M32 1.888c-16.63 0-30.112 13.482-30.112 30.112s13.482 30.112 30.112 30.112 30.112-13.482 30.112-30.112-13.482-30.112-30.112-30.112zm4.64 10.344c4.7 0 8.524 3.824 8.524 8.524 0 3.252-1.946 5.518-4.2 8.144-1.504 1.754-3.16 3.682-4.324 6.106-1.164-2.424-2.82-4.354-4.326-6.108-2.254-2.626-4.2-4.892-4.2-8.142 0-4.7 3.824-8.524 8.526-8.524zm-26.228 11.574l-.446-.4c-.26-.234-.314-.624-.122-.92.19-.294.558-.412.888-.27l18.642 8.008c.262.114.432.374.432.66v4.104c.458-.098.882-.312 1.006-.902l.298-3.406c1.852 2.168 3.698 4.448 4.528 7.556.122.454.532.768 1.002.768s.88-.314 1.002-.768c.886-3.312 2.924-5.69 4.896-7.986l.27-.318 1.654 2.726c.192.32.716.706 1.078.796l6.178 1.524c.854.212 1.54 1.068 1.564 1.948.012.592.182 1.114.27 1.234.35.472.52 1.356.506 1.984l-.022 1.17c0 1.428-1.16 2.434-2.818 2.434h-1.658c-.334 1.72-1.848 3.024-3.672 3.024-1.81 0-3.314-1.29-3.662-2.996h-16.956c-.348 1.706-1.84 2.996-3.65 2.996-1.762 0-3.228-1.222-3.628-2.858h-2.206c-2.3 0-2.782-1.372-2.782-2.52v-1.474c0-.652.37-1.072.616-1.352.068-.078.174-.198.19-.246l-.008-1.532c0-.848.646-1.754 2.06-1.754h5.276v-1.42l-9.29-8.508v6.98c.438.246.744.694.744 1.23 0 .534-.306.982-.744 1.226v.786c0 1.472-1.194 2.668-2.664 2.668-1.032 0-1.978-.604-2.418-1.538-.168-.358-.016-.784.344-.952.36-.172.786-.016.956.342.202.434.64.712 1.118.712.678 0 1.23-.552 1.23-1.232v-.834c-.396-.252-.674-.676-.674-1.178 0-.506.276-.928.672-1.18v-8.332zm11.224 17.032c-1.216 0-2.208.99-2.208 2.208 0 1.218.992 2.21 2.208 2.21 1.218 0 2.21-.992 2.21-2.21s-.992-2.208-2.21-2.208zm14.88-16.688c2.11 0 3.826-1.714 3.826-3.824 0-2.112-1.716-3.826-3.826-3.826-2.112 0-3.826 1.714-3.826 3.826 0 2.11 1.714 3.824 3.826 3.824zm-14.178 8.614c.152.136.236.33.236.534v1.738h5.798v-3.68l-14.502-6.24 8.468 7.648zm23.57 8.074c-1.22 0-2.212.99-2.212 2.208 0 1.218.992 2.21 2.212 2.21 1.216 0 2.208-.992 2.208-2.21s-.992-2.208-2.208-2.208z"/></svg>