<svg width="64" height="64" viewBox="0 0 64 64" xmlns="http://www.w3.org/2000/svg"><title>03010towtruktrakF</title><path d="M32.971 32.923l-.41 4.704c-.098.674-.71 1.037-1.301 1.165v-5.31c0-.369-.222-.706-.559-.855l-24.126-10.362c-.424-.183-.902-.03-1.148.348-.247.386-.179.89.16 1.195l.576.525v10.771c-.51.328-.87.873-.87 1.527 0 .651.36 1.199.872 1.527v1.08c0 .877-.713 1.591-1.591 1.591-.617 0-1.186-.36-1.448-.919-.22-.467-.772-.666-1.237-.444-.465.216-.661.77-.444 1.233.567 1.208 1.794 1.99 3.128 1.99 1.901 0 3.447-1.549 3.447-3.45v-1.018c.568-.316.964-.896.964-1.589s-.395-1.272-.964-1.591v-9.032l12.023 11.01v1.837h-6.827c-1.832 0-2.667 1.173-2.667 2.27l.013 1.982c-.023.06-.158.216-.247.318-.32.363-.798.907-.798 1.749v1.909c0 1.485.625 3.258 3.599 3.258h2.856c.518 2.12 2.415 3.701 4.695 3.701 2.344 0 4.273-1.672 4.721-3.88h21.944c.448 2.21 2.394 3.88 4.738 3.88 2.359 0 4.318-1.688 4.751-3.915h2.144c2.148 0 3.648-1.303 3.648-3.149l.028-1.513c.019-.811-.201-1.956-.653-2.566-.115-.158-.335-.832-.35-1.6-.03-1.139-.919-2.244-2.025-2.519l-7.992-1.973c-.469-.119-1.146-.616-1.397-1.03l-2.255-3.72-.395.465c-1.89 2.071-3.486 4.098-5 6.844-.593 1.079-1.139 2.223-1.5 3.249-.147.416-.501.723-.943.723-.442 0-.8-.305-.943-.723-.629-1.848-1.777-3.819-2.688-5.261-1.412-2.264-3.528-4.433-3.528-4.433zm-12.286 19.157c-1.574 0-2.856-1.284-2.856-2.859 0-1.577 1.282-2.857 2.856-2.857 1.577 0 2.861 1.28 2.861 2.857 0 1.576-1.284 2.859-2.861 2.859zm8.717-13.224h-7.503v-2.251c0-.262-.107-.514-.303-.691l-10.957-9.894 18.763 8.073v4.762zm22.692 13.224c-1.577 0-2.861-1.284-2.861-2.859 0-1.577 1.284-2.857 2.861-2.857 1.574 0 2.859 1.28 2.859 2.857 0 1.576-1.286 2.859-2.859 2.859zm-11.992-12.76c1.502-3.309 3.735-5.909 5.758-8.267 2.942-3.428 5.483-6.389 5.483-10.675 0-6.199-5.043-11.243-11.241-11.243-6.2 0-11.243 5.045-11.243 11.243 0 4.284 2.541 7.245 5.483 10.673 2.025 2.359 4.258 4.96 5.76 8.269zm-.16-24.45c2.731 0 4.951 2.217 4.951 4.949 0 2.733-2.219 4.951-4.951 4.951-2.733 0-4.952-2.217-4.952-4.951 0-2.731 2.219-4.949 4.952-4.949z"/></svg>