<svg width="64" height="64" viewBox="0 0 64 64" xmlns="http://www.w3.org/2000/svg"><title>03013trafficF</title><path d="M60.101 47.208l-21.339-37.118c-1.819-3.163-4.219-4.906-6.762-4.906-2.54 0-4.94 1.743-6.759 4.906l-21.342 37.118c-1.822 3.163-2.119 6.124-.839 8.335 1.278 2.21 3.995 3.426 7.643 3.426h42.594c3.65 0 6.363-1.216 7.643-3.426 1.28-2.21.98-5.172-.839-8.335zm-11.788-3.774v2.171c0 .463-.377.842-.842.842h-2.033c-.463 0-.842-.379-.842-.842v-1.903h-8.18l-1.639-3.466-.034-.052c.217-.273.367-.606.367-.98 0-.879-.714-1.593-1.593-1.593-.662 0-1.228.406-1.47.985l-.273-.049c-.153-.007-.837-.047-1.711-.084l.155-.64c.034-.14.064-.231.116-.337l2.26-4.753c.081-.148.625-1.029 2.132-1.14.128-.007 2.966-.17 5.002-.17 2.038 0 4.795.162 4.911.17 1.573.084 2.085 1.022 2.137 1.127l2.265 4.766.094.187c.177.362.367.761.367 1.238v2.622c0 .832-.492 1.538-1.186 1.9zm-12.884 7.943v2.171c0 .463-.379.842-.844.842h-2.033c-.463 0-.842-.379-.842-.842v-1.903h-9.819v1.903c0 .463-.379.842-.842.842h-2.036c-.463 0-.842-.379-.842-.842v-2.238c-.635-.379-1.086-1.044-1.086-1.834v-2.622c0-.411.037-.714.19-1.036l.172-.391 2.26-4.753c.081-.148.625-1.026 2.132-1.137.13-.007 2.964-.17 5.002-.17s4.795.162 4.913.17c1.57.081 2.082 1.019 2.134 1.127l2.267 4.714.153.271c.19.379.305.729.305 1.206v2.622c0 .832-.492 1.536-1.184 1.9zm-15.751-21.216c0-.482.362-1.428.362-1.428l2.26-4.753c.084-.148.628-1.026 2.134-1.137.128-.007 2.964-.172 5.002-.172s4.793.165 4.911.172c1.57.081 2.082 1.017 2.137 1.125l2.265 4.766.066.133c.185.347.391.817.391 1.295v.281c-.549.005-1.125.02-1.689.039l.005-.03c0-.876-.714-1.593-1.593-1.593-.876 0-1.59.716-1.59 1.593l.042.212c-1.378.187-2.282.921-2.681 1.644l-1.255 2.641h-5.962v1.903c0 .463-.379.842-.842.842h-2.033c-.463 0-.842-.379-.842-.842v-2.235c-.638-.379-1.088-1.046-1.088-1.836v-2.619zm17.125-2.178l-1.607-3.385c-.01 0-.234-.288-.93-.325-.032-.002-2.836-.167-4.83-.167-1.996 0-4.881.165-4.908.167-.726.052-.962.382-.975.396l-1.573 3.318c.645-.022 4.628-.155 7.456-.155 2.673 0 6.42.121 7.367.15zm-13.578 4.062c.876 0 1.593-.716 1.593-1.593 0-.876-.716-1.593-1.593-1.593-.879 0-1.593.716-1.593 1.593 0 .876.714 1.593 1.593 1.593zm22.26 1.305c-.007-.002-.231-.286-.926-.322-.034-.002-2.836-.17-4.832-.17-1.994 0-4.879.167-4.908.17-.827.062-.965.369-.972.396l-1.573 3.318c.652-.022 4.63-.155 7.454-.155 2.673 0 6.417.118 7.367.15l-1.61-3.387zm.738 4.263c-.876 0-1.593.714-1.593 1.593 0 .876.716 1.593 1.593 1.593.876 0 1.593-.716 1.593-1.593 0-.879-.716-1.593-1.593-1.593zm-13.625 3.678c-.007 0-.231-.286-.926-.322-.034 0-2.836-.167-4.832-.167-1.994 0-4.879.167-4.908.167-.726.052-.962.382-.972.396l-1.573 3.318c.655-.022 4.63-.153 7.454-.153 2.676 0 6.42.118 7.367.15l-1.61-3.39zm-11.968 4.263c-.876 0-1.593.716-1.593 1.593 0 .879.716 1.593 1.593 1.593.876 0 1.593-.714 1.593-1.593 0-.876-.716-1.593-1.593-1.593zm12.706 0c-.876 0-1.593.716-1.593 1.593 0 .879.716 1.593 1.593 1.593.879 0 1.593-.714 1.593-1.593 0-.876-.714-1.593-1.593-1.593z"/></svg>