<svg width="64" height="64" viewBox="0 0 64 64" xmlns="http://www.w3.org/2000/svg"><title>03013trafficL</title><path d="M60.846 46.256l-21.257-36.971c-1.966-3.417-4.661-5.301-7.589-5.301-2.928 0-5.623 1.883-7.589 5.303l-21.257 36.969c-1.966 3.417-2.238 6.702-.766 9.243 1.472 2.544 4.453 3.945 8.395 3.945h42.432c3.943 0 6.923-1.401 8.395-3.943 1.472-2.544 1.2-5.829-.766-9.246zm-1.287 8.059c-1.029 1.778-3.282 2.759-6.343 2.759h-42.432c-3.061 0-5.314-.981-6.345-2.761-1.029-1.781-.757-4.222.77-6.875l21.255-36.971c1.527-2.651 3.493-4.112 5.536-4.112 2.043 0 4.009 1.461 5.536 4.112l21.255 36.971c1.527 2.654 1.799 5.095.768 6.878zm-21.088-25.632l-2.183-4.59c-.05-.101-.533-.99-2.03-1.067-.027 0-2.768-.165-4.731-.165-1.961 0-4.779.165-4.818.165-1.433.107-1.947.939-2.025 1.079l-2.178 4.578c-.174.411-.379.878-.379 1.36v2.526c0 .763.434 1.403 1.047 1.769v2.197c0 .423.347.77.77.77h2.043c.423 0 .77-.347.77-.77v-1.874h5.797l1.2-2.526c.382-.688 1.246-1.39 2.569-1.563l-.05-.247c0-.834.681-1.513 1.515-1.513.834 0 1.515.679 1.515 1.513l-.016.08c.553-.021 1.122-.034 1.657-.041v-.32c0-.334-.642-1.698-.473-1.36zm-13.413 1.641c0 .837-.679 1.515-1.515 1.515-.837 0-1.515-.679-1.515-1.515 0-.834.679-1.513 1.515-1.513.837 0 1.515.679 1.515 1.513zm4.471-2.523c-2.8 0-6.768.135-7.225.151l1.527-3.218c.011-.016.247-.345.962-.398.03-.002 2.809-.16 4.734-.16 1.925 0 4.626.158 4.658.16.699.037.917.331.923.331l1.559 3.28c-.855-.027-4.528-.146-7.138-.146zm18.859 9.319l-2.183-4.592c-.05-.101-.533-.99-2.03-1.067-.027 0-2.766-.162-4.729-.162s-4.782.162-4.821.162c-1.433.107-1.947.939-2.025 1.079l-2.176 4.581c-.151.309-.302.974-.302.974.686.03 1.28.062 1.641.082l.29.05c.217-.569.761-.981 1.406-.981.837 0 1.515.679 1.515 1.513 0 .375-.151.706-.375.971l.03.043 1.57 3.321h7.936v1.874c0 .423.347.77.77.77h2.043c.423 0 .77-.347.77-.77v-2.133c.667-.35 1.141-1.029 1.141-1.833v-2.523c0-.405-.619-1.662-.473-1.36zm-16.165-.734l1.527-3.218c.009-.014.245-.343.962-.395.027-.002 2.809-.162 4.734-.162 1.922 0 4.624.16 4.656.162.699.037.919.331.923.331l1.559 3.28c-.853-.03-4.528-.146-7.138-.146-2.798 0-6.766.133-7.223.149zm13.481.859c.837 0 1.515.679 1.515 1.513 0 .837-.679 1.515-1.515 1.515-.834 0-1.513-.679-1.513-1.515 0-.834.679-1.513 1.513-1.513zm-28.078 8.887v2.526c0 .761.432 1.403 1.047 1.769v2.194c0 .425.347.773.77.773h2.041c.425 0 .77-.347.77-.773v-1.874h9.463v1.874c0 .425.347.773.773.773h2.041c.423 0 .77-.347.77-.773v-2.13c.667-.35 1.141-1.031 1.141-1.833v-2.526c0-.437-.293-.99-.473-1.36l-2.181-4.59c-.05-.101-.535-.99-2.03-1.067-.027-.002-2.768-.165-4.731-.165s-4.782.162-4.821.165c-1.431.105-1.947.937-2.025 1.077l-2.176 4.581c-.155.318-.379.912-.379 1.36zm17.175.281c0 .837-.679 1.515-1.515 1.515-.834 0-1.513-.679-1.513-1.515 0-.834.679-1.515 1.513-1.515.837 0 1.515.681 1.515 1.515zm-12.242 0c0 .837-.681 1.515-1.515 1.515-.837 0-1.515-.679-1.515-1.515 0-.834.679-1.515 1.515-1.515.834 0 1.515.681 1.515 1.515zm-1.227-5.593c.009-.014.245-.343.962-.395.03-.002 2.809-.162 4.734-.162 1.925 0 4.624.16 4.658.162.697.037.917.331.921.331l1.559 3.28c-.853-.027-4.528-.146-7.138-.146-2.798 0-6.763.135-7.223.151l1.527-3.221z"/></svg>