<svg width="64" height="64" viewBox="0 0 64 64" xmlns="http://www.w3.org/2000/svg"><title>01019trailerL</title><path d="M53.265 42.458l2.223-5.169c.4-.926.353-2.595-.095-3.498l-6.206-12.475c-.41-.823-1.622-1.574-2.54-1.574h-43.112c-.74 0-1.341.603-1.341 1.341v21.61c0 .74.601 1.341 1.341 1.341h6.356c.622-1.758 2.28-3.022 4.25-3.022 1.969 0 3.626 1.265 4.247 3.022h1.108c.622-1.758 2.28-3.022 4.247-3.022 1.969 0 3.628 1.265 4.25 3.022h.73v-17.771c0-1.538 1.25-2.788 2.788-2.788h4.84c1.538 0 2.788 1.25 2.788 2.788v17.771h5.104l.019-.004h6.631c.893-.013 2.018-.753 2.371-1.571zm-16.319-16.195c0-.321-.273-.594-.594-.594h-4.84c-.324 0-.594.273-.594.594v17.771h6.029v-17.771zm-10.87 19.275c0-1.286-1.045-2.333-2.331-2.333-1.284 0-2.329 1.047-2.329 2.333 0 1.284 1.045 2.329 2.329 2.329 1.286 0 2.331-1.045 2.331-2.329zm-9.605 0c0-1.286-1.045-2.333-2.329-2.333-1.286 0-2.331 1.047-2.331 2.333 0 1.284 1.045 2.329 2.331 2.329 1.284 0 2.329-1.045 2.329-2.329zm-5.136-27.989h13.288l-1.077-1.851c-.142-.241-.603-.508-.882-.508h-11.207c-.066 0-.123.057-.123.123v2.236zm16.865 28.676c-.334 2.166-2.191 3.835-4.455 3.835-2.261 0-4.118-1.667-4.453-3.832h-.698c-.334 2.166-2.191 3.832-4.453 3.832-2.263 0-4.121-1.667-4.455-3.832h-6.151c-1.948 0-3.535-1.586-3.535-3.534v-21.61c0-1.948 1.586-3.534 3.535-3.534h5.605v-2.236c0-1.277 1.039-2.314 2.316-2.314h11.207c1.053 0 2.249.685 2.777 1.597l1.718 2.953h19.488c1.745 0 3.725 1.227 4.503 2.79l6.206 12.475c.734 1.481.8 3.826.148 5.343l-2.225 5.169c-.106.245-.247.478-.404.704h6.371v-.311c-.362-.309-.605-.751-.605-1.263 0-.926.753-1.679 1.68-1.679.926 0 1.68.753 1.68 1.679 0 .493-.222.926-.561 1.233v1.436c0 .607-.493 1.1-1.098 1.1h-34.143zm14.841-13.422h4.819c.933 0 1.692-.761 1.692-1.692v-1.88c0-.931-.759-1.692-1.692-1.692h-4.819c-.933 0-1.694.761-1.694 1.692v1.88c0 .931.762 1.692 1.694 1.692zm-34.767-.008c-.931 0-1.692-.761-1.692-1.692v-4.839c0-.931.762-1.692 1.692-1.692h10.32c.931 0 1.692.761 1.692 1.692v4.839c0 .931-.762 1.692-1.692 1.692h-10.32z"/></svg>