<svg width="64" height="64" viewBox="0 0 64 64" xmlns="http://www.w3.org/2000/svg"><title>01019trailerF</title><path d="M40.846 28.986c0 1.021.836 1.856 1.858 1.856h4.517c1.022 0 1.858-.835 1.858-1.856v-1.561c0-1.021-.836-1.856-1.858-1.856h-4.517c-1.022 0-1.858.835-1.858 1.856v1.561zm-21.132-4.538c0-1.021-.834-1.856-1.858-1.856h-10.034c-1.022 0-1.858.835-1.858 1.856v4.531c0 1.021.836 1.856 1.858 1.856h10.034c1.024 0 1.858-.835 1.858-1.856v-4.531zm-6.447 21.695c1.478 0 2.68-1.2 2.68-2.677 0-1.479-1.202-2.681-2.68-2.681-1.48 0-2.682 1.202-2.682 2.681 0 1.477 1.202 2.677 2.682 2.677zm9.637-5.358c-1.478 0-2.682 1.202-2.682 2.681 0 1.477 1.204 2.677 2.682 2.677 1.476 0 2.68-1.2 2.68-2.677 0-1.479-1.204-2.681-2.68-2.681zm15.558 2.873v-19.21c0-1.537-1.249-2.784-2.787-2.784h-4.536c-1.538 0-2.787 1.248-2.787 2.784v19.216h-.931c-.105 2.409-2.079 4.335-4.517 4.335-2.44 0-4.412-1.926-4.519-4.335h-.601c-.105 2.409-2.079 4.335-4.517 4.335-2.44 0-4.414-1.926-4.519-4.335h-5.609c-1.73 0-3.138-1.409-3.138-3.137v-21.203c0-1.728 1.408-3.137 3.138-3.137h42.795c1.662 0 3.543 1.165 4.282 2.65l6.02 12.092c.721 1.45.787 3.75.145 5.239l-2.05 4.758c-.099.231-.281.553-.431.767h6.92v-.353c-.427-.303-.725-.78-.725-1.345 0-.928.754-1.683 1.685-1.683.929 0 1.683.755 1.683 1.683 0 .547-.277 1.009-.681 1.316v1.361c0 .54-.438.984-.981.984h-23.337zm-1.858.006h-6.394v-19.216c0-.512.417-.928.929-.928h4.536c.512 0 .929.417.929.928v19.216z"/></svg>