<svg width="64" height="64" viewBox="0 0 64 64" xmlns="http://www.w3.org/2000/svg"><title>01019trailerC</title><path d="M35.135 30.878h4.697c1.061 0 1.932-.869 1.932-1.932v-1.627c0-1.061-.871-1.932-1.932-1.932h-4.697c-1.063 0-1.932.871-1.932 1.932v1.627c0 1.063.869 1.932 1.932 1.932zm-20.589 15.926c1.536 0 2.787-1.249 2.787-2.787 0-1.538-1.251-2.789-2.787-2.789-1.538 0-2.787 1.251-2.787 2.789 0 1.538 1.249 2.787 2.787 2.787zm14.245-22.582c0-.533-.431-.966-.966-.966h-4.715c-.533 0-.966.434-.966.966v20.001h6.648v-20.001zm26.168 20.108c.564 0 1.067-.551 1.067-1.115v-1.416c.419-.32.708-.801.708-1.369 0-.966-.785-1.751-1.751-1.751-.968 0-1.751.785-1.751 1.751 0 .588.31 1.082.754 1.4v.365h-7.197c.157-.223.33-.58.434-.822l2.133-4.953c.665-1.548.599-3.943-.151-5.45l-6.26-12.585c-.77-1.548-2.725-2.76-4.453-2.76h-34.362c5.366-9.327 15.41-15.626 26.944-15.626 17.164 0 31.083 13.917 31.083 31.083 0 17.166-13.919 31.085-31.083 31.085-10.649 0-20.036-5.359-25.639-13.521 2.1-.413 3.691-2.226 3.788-4.424h.623c.109 2.508 2.162 4.513 4.699 4.513 2.535 0 4.587-2.005 4.697-4.513h.968v-20.001c0-1.598 1.301-2.899 2.899-2.899h4.715c1.598 0 2.899 1.301 2.899 2.899l-.045 20.108h24.281zm-45.661-13.461c1.065 0 1.932-.869 1.932-1.93v-4.717c0-1.061-.867-1.932-1.932-1.932h-8.027c-.803 2.725-1.251 5.601-1.27 8.58h9.297zm-5.023 15.909c-.799-1.363-1.501-2.785-2.089-4.269.498-.77 1.358-1.282 2.339-1.282 1.536 0 2.787 1.251 2.787 2.789 0 1.538-1.251 2.787-2.787 2.787l-.25-.025z" fill="#221F20"/></svg>