<svg width="64" height="64" viewBox="0 0 64 64" xmlns="http://www.w3.org/2000/svg"><title>03005triphistoryL</title><path d="M54.166 62.538h-46.511c-4.222 0-7.655-3.434-7.655-7.655v-44.832c0-4.222 3.434-7.655 7.655-7.655h46.511c4.222 0 7.658 3.434 7.658 7.655v44.832c0 4.222-3.436 7.655-7.658 7.655zm-46.511-57.59c-2.814 0-5.103 2.289-5.103 5.103v44.832c0 2.814 2.289 5.103 5.103 5.103h46.511c2.816 0 5.105-2.289 5.105-5.103v-44.832c0-2.814-2.289-5.103-5.105-5.103h-46.511zm43.513 28.539c-.667 0-1.295.153-1.866.411l-5.194-6.053c.463-.714.738-1.561.738-2.471 0-1.263-.519-2.405-1.351-3.23l2.302-4.266c.305.064.62.101.945.101 2.506 0 4.544-2.038 4.544-4.544s-2.038-4.544-4.544-4.544-4.544 2.038-4.544 4.544c0 1.263.519 2.405 1.354 3.23l-2.302 4.266c-.308-.064-.623-.101-.948-.101-2.506 0-4.544 2.038-4.544 4.544s2.038 4.544 4.544 4.544c.667 0 1.297-.153 1.868-.411l5.194 6.05c-.465.714-.741 1.561-.741 2.471 0 .886.263 1.708.704 2.407l-4.911 5.534c-.635-.337-1.346-.544-2.114-.544-2.506 0-4.544 2.038-4.544 4.542 0 2.508 2.038 4.546 4.544 4.546s4.544-2.038 4.544-4.546c0-.807-.229-1.556-.601-2.213l4.992-5.625c.588.278 1.236.446 1.93.446 2.506 0 4.544-2.038 4.544-4.546 0-2.503-2.038-4.542-4.544-4.542zm-6.417-20.052c0-1.1.894-1.991 1.991-1.991 1.098 0 1.994.891 1.994 1.991 0 1.098-.896 1.991-1.994 1.991-1.098 0-1.991-.894-1.991-1.991zm6.417 26.587c-1.098 0-1.994-.894-1.994-1.994 0-1.095.896-1.989 1.994-1.989 1.098 0 1.991.894 1.991 1.989 0 1.1-.894 1.994-1.991 1.994zm-12.857-14.649c0-1.1.894-1.991 1.991-1.991 1.098 0 1.994.891 1.994 1.991 0 1.098-.896 1.994-1.994 1.994-1.098 0-1.991-.896-1.991-1.994zm3.985 24.593c0 1.1-.896 1.994-1.994 1.994-1.098 0-1.991-.894-1.991-1.994 0-1.098.894-1.991 1.991-1.991 1.098 0 1.994.894 1.994 1.991zm-16.438-32.857h-17.317c-.706 0-1.278-.571-1.278-1.275 0-.706.571-1.278 1.278-1.278h17.317c.706 0 1.278.571 1.278 1.278 0 .704-.571 1.275-1.278 1.275zm0 8.862h-17.317c-.706 0-1.278-.571-1.278-1.275 0-.706.571-1.278 1.278-1.278h17.317c.706 0 1.278.571 1.278 1.278 0 .704-.571 1.275-1.278 1.275zm0 8.135h-17.317c-.706 0-1.278-.571-1.278-1.278 0-.704.571-1.275 1.278-1.275h17.317c.706 0 1.278.571 1.278 1.275 0 .706-.571 1.278-1.278 1.278zm0 8.133h-17.317c-.706 0-1.278-.571-1.278-1.275s.571-1.275 1.278-1.275h17.317c.706 0 1.278.571 1.278 1.275s-.571 1.275-1.278 1.275zm0 8.135h-17.317c-.706 0-1.278-.571-1.278-1.275 0-.706.571-1.278 1.278-1.278h17.317c.706 0 1.278.571 1.278 1.278 0 .704-.571 1.275-1.278 1.275z"/></svg>