<svg width="64" height="64" viewBox="0 0 64 64" xmlns="http://www.w3.org/2000/svg"><title>03003tripinfoF</title><path d="M19.642 56.344c0 .8-.648 1.45-1.448 1.45-.803 0-1.45-.65-1.45-1.45v-40.942c0-.803.648-1.45 1.45-1.45.8 0 1.448.648 1.448 1.45v40.942zm26.851-2.864h4.369v-15.646h-4.369v15.646zm2.156-21.847c1.535 0 2.48 1.063 2.48 2.274 0 1.208-.945 2.272-2.48 2.272-1.506 0-2.422-1.063-2.422-2.272 0-1.211.916-2.274 2.422-2.274zm-.463-4.801c-8.723 0-15.82 7.094-15.82 15.814 0 8.723 7.096 15.817 15.82 15.817 8.721 0 15.814-7.094 15.814-15.817 0-8.721-7.094-15.814-15.814-15.814zm-14.027 3.464v-22.548c0-.8.65-1.448 1.45-1.448.8 0 1.45.648 1.45 1.448v19.884c3.114-2.314 6.957-3.701 11.126-3.701 1.953 0 3.838.303 5.609.861l-.005-14.267c0-2.432-1.843-4.825-4.193-5.446l-10.724-2.832c-2.035-.537-5.175-.166-7.012.803l-11.271 5.941c-1.203.634-3.619.905-4.92.563l-10.737-2.832c-2.577-.684-4.935 1.161-4.933 3.804v43.003c0 2.432 1.843 4.825 4.193 5.446l10.737 2.83c.645.171 1.387.258 2.203.258 1.756 0 3.554-.395 4.806-1.058l11.274-5.944c.205-.108.484-.192.75-.276-2.798-3.272-4.496-7.507-4.496-12.137 0-4.735 1.782-9.05 4.691-12.35z"/></svg>