<svg width="64" height="64" viewBox="0 0 64 64" xmlns="http://www.w3.org/2000/svg"><title>03005triphistoryF</title><path d="M52.98 42.582c-.72 0-1.393-.175-2.003-.467l-5.185 5.845c.386.683.626 1.458.626 2.298 0 2.585-2.105 4.69-4.69 4.69-2.585 0-4.69-2.105-4.69-4.69 0-2.587 2.105-4.69 4.69-4.69.796 0 1.536.219 2.194.571l5.104-5.751c-.459-.725-.736-1.578-.736-2.496 0-.947.287-1.826.772-2.564l-5.397-6.286c-.592.271-1.244.43-1.938.43-2.585 0-4.69-2.105-4.69-4.69 0-2.587 2.105-4.69 4.69-4.69.339 0 .67.042.989.11l2.397-4.445c-.863-.853-1.406-2.034-1.406-3.341 0-2.585 2.105-4.69 4.69-4.69 2.585 0 4.69 2.105 4.69 4.69 0 2.587-2.105 4.69-4.69 4.69-.339 0-.67-.039-.989-.11l-2.397 4.445c.866.853 1.406 2.032 1.406 3.341 0 .944-.287 1.823-.772 2.561l5.399 6.289c.592-.269 1.244-.428 1.935-.428 2.585 0 4.69 2.102 4.69 4.687 0 2.587-2.105 4.69-4.69 4.69zm-26.213-26.375h-17.937c-.723 0-1.304-.584-1.304-1.304 0-.72.582-1.304 1.304-1.304h17.937c.723 0 1.304.584 1.304 1.304 0 .72-.582 1.304-1.304 1.304zm0 9.179h-17.937c-.723 0-1.304-.584-1.304-1.304 0-.72.582-1.304 1.304-1.304h17.937c.723 0 1.304.584 1.304 1.304 0 .72-.582 1.304-1.304 1.304zm0 8.425h-17.937c-.723 0-1.304-.584-1.304-1.304 0-.72.582-1.304 1.304-1.304h17.937c.723 0 1.304.584 1.304 1.304 0 .72-.582 1.304-1.304 1.304zm0 8.425h-17.937c-.723 0-1.304-.582-1.304-1.302 0-.723.582-1.307 1.304-1.307h17.937c.723 0 1.304.584 1.304 1.307 0 .72-.582 1.302-1.304 1.302zm0 8.427h-17.937c-.723 0-1.304-.584-1.304-1.304 0-.72.582-1.304 1.304-1.304h17.937c.723 0 1.304.584 1.304 1.304 0 .72-.582 1.304-1.304 1.304zm14.961-2.486c-1.148 0-2.081.934-2.081 2.081 0 1.148.934 2.081 2.081 2.081 1.148 0 2.081-.934 2.081-2.081 0-1.148-.934-2.081-2.081-2.081zm11.252-12.363c-1.148 0-2.081.934-2.081 2.079 0 1.148.934 2.081 2.081 2.081 1.148 0 2.081-.934 2.081-2.081 0-1.145-.934-2.079-2.081-2.079zm-4.583-21.315c1.148 0 2.081-.934 2.081-2.081 0-1.148-.934-2.081-2.081-2.081-1.148 0-2.081.934-2.081 2.081 0 1.148.934 2.081 2.081 2.081zm-6.669 8.203c-1.148 0-2.081.934-2.081 2.081 0 1.148.934 2.081 2.081 2.081 1.148 0 2.081-.934 2.081-2.081 0-1.148-.934-2.081-2.081-2.081zm14.359-21.701h-48.173c-4.364 0-7.914 3.55-7.914 7.914v46.433c0 4.364 3.55 7.914 7.914 7.914h48.173c4.364 0 7.914-3.55 7.914-7.914v-46.433c0-4.364-3.55-7.914-7.914-7.914z"/></svg>