<svg width="64" height="64" viewBox="0 0 64 64" xmlns="http://www.w3.org/2000/svg"><title>03003tripinfoL</title><path d="M30.379 52.547l-10.747 5.667c-1.144.6-3.443.864-4.691.536l-10.235-2.699c-1.035-.275-1.941-1.451-1.941-2.52v-41.003c0-.301.083-1.005.859-1.005.117 0 .245.019.376.053l10.235 2.699c1.944.512 4.933.163 6.688-.763l10.744-5.667c1.144-.603 3.443-.864 4.691-.536l10.227 2.699c1.035.272 1.941 1.451 1.941 2.52l.003 12.992c-.845-.123-1.704-.208-2.584-.208-3.976 0-7.637 1.323-10.608 3.528v-18.96c0-.763-.619-1.381-1.384-1.381-.763 0-1.381.619-1.381 1.381v21.499c-2.773 3.147-4.472 7.264-4.472 11.779 0 3.392.968 6.555 2.619 9.259l-.339.131zm15.565 5.691c-8.315 0-15.083-6.765-15.083-15.08 0-8.317 6.768-15.083 15.083-15.083 8.317 0 15.08 6.765 15.08 15.083 0 8.315-6.763 15.08-15.08 15.08zm.443-21.253c1.464 0 2.365-1.016 2.365-2.171 0-1.152-.901-2.165-2.365-2.165-1.435 0-2.309 1.013-2.309 2.165 0 1.155.875 2.171 2.309 2.171zm-2.053 16.499h4.165v-14.923h-4.165v14.923zm-25.605 2.733c0 .765-.619 1.384-1.381 1.384-.763 0-1.381-.619-1.381-1.384v-39.04c0-.763.619-1.381 1.381-1.381.763 0 1.381.619 1.381 1.381v39.04zm32.565-30.083l-.003-13.605c0-2.32-1.757-4.6-4-5.192l-10.227-2.699c-1.941-.517-4.933-.163-6.685.763l-10.747 5.667c-1.144.6-3.443.864-4.691.536l-10.235-2.699c-2.467-.653-4.707 1.104-4.707 3.624v41.003c0 2.32 1.757 4.6 4 5.192l10.235 2.699c.619.163 1.323.245 2.101.245 1.675 0 3.387-.376 4.587-1.008l10.744-5.667c.197-.104.464-.181.717-.264 3.277 3.832 8.136 6.272 13.56 6.272 9.84 0 17.845-8.005 17.845-17.843 0-7.979-5.261-14.747-12.496-17.024z"/></svg>