<svg width="64" height="64" viewBox="0 0 64 64" xmlns="http://www.w3.org/2000/svg"><title>03005triphistoryC</title><path d="M46.705 41.338c-.576 0-1.118-.14-1.607-.372l-4.157 4.685c.31.546.502 1.169.502 1.843 0 2.087-1.698 3.785-3.785 3.785s-3.785-1.698-3.785-3.785c0-2.085 1.698-3.783 3.785-3.783.64 0 1.233.174 1.76.455l4.092-4.61c-.368-.582-.589-1.267-.589-2.004 0-.759.232-1.464.619-2.057l-4.325-5.039c-.476.215-.999.342-1.556.342-2.087 0-3.785-1.698-3.785-3.785 0-2.085 1.698-3.783 3.785-3.783.27 0 .533.032.789.085l1.917-3.554c-.695-.687-1.126-1.639-1.126-2.691 0-2.085 1.696-3.783 3.783-3.783 2.087 0 3.785 1.698 3.785 3.783 0 2.089-1.698 3.785-3.785 3.785-.27 0-.533-.03-.786-.085l-1.917 3.556c.693.687 1.126 1.637 1.126 2.687 0 .761-.232 1.464-.616 2.06l4.325 5.039c.476-.215.999-.342 1.554-.342 2.087 0 3.783 1.698 3.783 3.783 0 2.087-1.696 3.788-3.783 3.788zm-17.631-20.547h-14.273c-.582 0-1.054-.474-1.054-1.054 0-.582.472-1.054 1.054-1.054h14.273c.58 0 1.052.472 1.052 1.054 0 .58-.472 1.054-1.052 1.054zm0 6.432h-14.273c-.582 0-1.054-.474-1.054-1.054 0-.582.472-1.052 1.054-1.052h14.273c.58 0 1.052.47 1.052 1.052 0 .58-.472 1.054-1.052 1.054zm0 5.902h-14.273c-.582 0-1.054-.47-1.054-1.052 0-.58.472-1.052 1.054-1.052h14.273c.58 0 1.052.472 1.052 1.052 0 .582-.472 1.052-1.052 1.052zm0 5.907h-14.273c-.582 0-1.054-.472-1.054-1.052 0-.582.472-1.054 1.054-1.054h14.273c.58 0 1.052.472 1.052 1.054 0 .58-.472 1.052-1.052 1.052zm0 5.905h-14.273c-.582 0-1.054-.472-1.054-1.052 0-.582.472-1.054 1.054-1.054h14.273c.58 0 1.052.472 1.052 1.054 0 .58-.472 1.052-1.052 1.052zm8.583.899c-.914 0-1.66.744-1.66 1.658 0 .916.746 1.66 1.66 1.66.914 0 1.66-.744 1.66-1.66 0-.914-.746-1.658-1.66-1.658zm9.048-9.943c-.914 0-1.66.746-1.66 1.658 0 .916.746 1.662 1.66 1.662.914 0 1.66-.746 1.66-1.662 0-.912-.746-1.658-1.66-1.658zm-9.048-10.54c-.914 0-1.66.744-1.66 1.658 0 .916.746 1.66 1.66 1.66.914 0 1.66-.744 1.66-1.66 0-.914-.746-1.658-1.66-1.658zm5.363-6.625c.914 0 1.66-.744 1.66-1.66 0-.914-.746-1.658-1.66-1.658-.914 0-1.66.744-1.66 1.658 0 .916.746 1.66 1.66 1.66zm-11.021-18.728c-17.671 0-31.999 14.326-31.999 32.001 0 17.671 14.328 31.999 31.999 31.999 17.673 0 32.001-14.328 32.001-31.999 0-17.675-14.328-32.001-32.001-32.001z"/></svg>