<svg width="64" height="64" viewBox="0 0 64 64" xmlns="http://www.w3.org/2000/svg"><title>03003tripinfoC</title><path d="M44.453 47.969c-5.558 0-10.08-4.521-10.08-10.078 0-5.558 4.523-10.078 10.08-10.078 5.558 0 10.078 4.521 10.078 10.078 0 5.558-4.521 10.078-10.078 10.078zm-9.541-2.168l-7.184 3.787c-.799.423-1.945.674-3.065.674-.519 0-.99-.055-1.403-.164l-6.841-1.804c-1.498-.395-2.672-1.919-2.672-3.471v-27.402c-.002-1.685 1.5-2.861 3.143-2.423l6.841 1.804c.829.217 2.368.045 3.135-.359l7.181-3.787c1.171-.616 3.173-.852 4.47-.51l6.833 1.804c1.498.395 2.674 1.919 2.674 3.471l.002 9.092c-1.129-.355-2.329-.548-3.575-.548-2.657 0-5.105.882-7.09 2.357v-12.671c0-.51-.414-.922-.925-.922-.51 0-.922.412-.922.922v14.369c-1.855 2.102-2.99 4.852-2.99 7.87 0 2.952 1.084 5.649 2.865 7.734-.17.055-.346.106-.478.176zm8.463-1.007h2.784v-9.97h-2.784v9.97zm1.373-13.921c-.959 0-1.543.678-1.543 1.447 0 .771.584 1.449 1.543 1.449.978 0 1.581-.678 1.581-1.449 0-.769-.604-1.447-1.581-1.447zm-19.408-11.268c-.51 0-.922.414-.922.925v26.091c0 .51.412.925.922.925.512 0 .925-.414.925-.925v-26.091c0-.51-.412-.925-.925-.925zm6.659-19.604c-17.672 0-31.999 14.327-31.999 31.999 0 17.672 14.327 31.999 31.999 31.999 17.674 0 32.001-14.327 32.001-31.999 0-17.672-14.327-31.999-32.001-31.999z"/></svg>