<svg width="64" height="64" viewBox="0 0 64 64" xmlns="http://www.w3.org/2000/svg"><title>06033tutorvidL</title><path d="M56.072 44.002c0 .941-.701 1.6-1.707 1.6h-44.838c-.941 0-1.709-.716-1.709-1.6v-30.928c0-.941.703-1.6 1.709-1.6h44.838c.941 0 1.707.718 1.707 1.6v30.928zm6.746 8.399h-61.635c-.57 0-1.184.452-1.184 1.182 0 .585.596 1.182 1.184 1.182h61.635c.568 0 1.182-.452 1.182-1.182 0-.568-.452-1.182-1.182-1.182zm-21.319-26.225l-14.056-9.75c-1.52-1.139-2.785-.38-2.785 1.52v20.641c0 1.9 1.265 2.532 2.785 1.518l14.056-9.75c1.518-1.392 1.518-3.165 0-4.179zm12.973-17.176h-44.945c-2.245 0-4.074 1.827-4.074 4.074v30.928c0 2.247 1.829 4.074 4.074 4.074h44.838c2.245 0 4.074-1.827 4.074-4.074v-30.915c.051-1.076-.322-2.089-1.051-2.856-.757-.793-1.793-1.231-2.916-1.231z"/></svg>