<svg width="64" height="64" viewBox="0 0 64 64" xmlns="http://www.w3.org/2000/svg"><title>06033tutorvidF</title><path d="M41.499 30.355l-14.056 9.75c-1.52 1.014-2.785.382-2.785-1.518v-20.641c0-1.9 1.265-2.659 2.785-1.52l14.056 9.75c1.52 1.014 1.52 2.788 0 4.179zm21.319 22.046h-61.635c-.57 0-1.184.452-1.184 1.182 0 .585.596 1.182 1.184 1.182h61.635c.568 0 1.182-.452 1.182-1.182 0-.568-.452-1.182-1.182-1.182zm-5.429-42.171c-.757-.793-1.793-1.231-2.916-1.231h-44.945c-2.245 0-4.074 1.827-4.074 4.074v30.928c0 2.247 1.829 4.074 4.074 4.074h44.838c2.245 0 4.074-1.827 4.074-4.074v-30.915c.051-1.076-.322-2.089-1.051-2.856z"/></svg>