<svg width="64" height="64" viewBox="0 0 64 64" xmlns="http://www.w3.org/2000/svg"><title>06033tutorvidC</title><path d="M51.561 47.723h-39.121c-.649 0-1.239-.589-1.239-1.239 0-.683.557-1.239 1.239-1.239h39.121c.683 0 1.239.557 1.239 1.239 0 .685-.557 1.239-1.239 1.239zm-36.9-28.369c0-1.696 1.38-3.076 3.074-3.076h28.531c.834 0 1.638.339 2.204.932.555.587.838 1.357.8 2.17v19.605c0 1.696-1.38 3.074-3.076 3.074h-28.459c-1.694 0-3.074-1.378-3.074-3.074v-19.631zm22.637 11.085l-7.84 5.438c-.847.565-1.553.211-1.553-.847v-11.511c0-1.058.706-1.483 1.553-.847l7.84 5.438c.847.565.847 1.553 0 2.33zm8.896-11.612h-28.459c-.273 0-.595.137-.595.527v19.631c0 .254.239.525.595.525h28.459c.275 0 .597-.137.597-.525v-19.631c0-.256-.241-.527-.597-.527zm-14.193-18.827c-17.764 0-32 14.236-32 32s14.236 32 32 32 32-14.362 32-32c0-17.638-14.236-32-32-32z"/></svg>