<svg width="64" height="64" viewBox="0 0 64 64" xmlns="http://www.w3.org/2000/svg"><title>02038uninswaterC</title><path d="M44.011 47.744c-.422.736-1.344 1.139-2.59 1.139h-16.802c-1.246 0-2.167-.403-2.592-1.139-.427-.734-.318-1.734.303-2.816l8.418-14.637c.621-1.082 1.427-1.677 2.272-1.677.843 0 1.649.595 2.272 1.675l8.416 14.639c.621 1.082.73 2.082.303 2.816zm-21.726-25.931c-.864-.523-1.726-1.045-2.588-1.385l12.755-3.62 4.311 2.417-14.479 2.588zm10.613 21.291c-.915 0-1.636.721-1.636 1.636 0 .915.721 1.636 1.636 1.636.896 0 1.636-.721 1.636-1.636 0-.915-.74-1.636-1.636-1.636zm-.009-1.318c.497 0 .958-.702 1.02-1.559l.403-5.429c.064-.858-.578-1.559-1.423-1.559-.847 0-1.487.702-1.425 1.559l.403 5.429c.064.858.523 1.559 1.022 1.559zm-1.18-41.444c-12.173 0-22.739 6.837-28.094 16.877l.894-.058 6.731 5.685h.183l5.515-1.726c.51.171 2.927 1.387 4.653 2.419.183.169.352.169.523.169h.171l19.132-3.45c9.999.352 15.174 1.385 17.762 2.249-7.424.169-30.869 1.201-41.901 2.417-4.653.51-11.552 1.894-16.375 2.927l.339-1.555 4.469-2.078c.171 0 .171-.171.171-.171v-.169l-3.046-5.039c-1.562 3.375-2.547 7.063-2.835 10.953l.209-.045c4.992-1.033 12.416-2.406 17.239-2.929 11.723-1.385 37.587-2.417 42.933-2.601-2.588 2.758-9.66 9.828-15.174 10.522-1.282.166-3.051.341-5.114.514l-3.339-5.807c-.934-1.626-2.261-2.522-3.735-2.522-1.474 0-2.803.896-3.738 2.524l-3.834 6.665c-2.993.113-5.929.181-8.523.181h-2.588c-5.274-.119-10.793-.407-14.249-.572 1.766 15.904 15.243 28.277 31.62 28.277 17.581 0 31.831-14.251 31.831-31.827 0-17.583-14.251-31.831-31.831-31.831z"/></svg>