<svg width="64" height="64" viewBox="0 0 64 64" xmlns="http://www.w3.org/2000/svg"><title>06020unlockedL</title><path d="M59.757 17.256h-3.339v-1.906c0-5.611-4.574-10.178-10.197-10.178-5.611 0-10.175 4.567-10.175 10.178v10.967h-3.33v-10.229c0-7.458 6.066-13.52 13.522-13.52 7.454 0 13.52 6.061 13.52 13.52v1.167zm-17.254 12.268v31.27c0 .351-.288.637-.639.637h-37.658c-.351 0-.639-.286-.639-.637v-31.27c0-.351.288-.637.639-.637h37.658c.351 0 .639.286.639.637zm-23.417 24.526h7.894l-1.354-9.742c.736-.695 1.206-1.673 1.206-2.768 0-2.1-1.7-3.802-3.799-3.802-2.102 0-3.799 1.702-3.799 3.802 0 1.095.465 2.07 1.206 2.768l-1.354 9.742zm27.151-54.05c-8.873 0-16.087 7.216-16.087 16.089v10.229h-25.945c-1.768 0-3.206 1.438-3.206 3.206v31.27c0 1.768 1.438 3.206 3.206 3.206h37.658c1.768 0 3.206-1.438 3.206-3.206v-31.27c0-1.768-1.438-3.206-3.206-3.206h-3.255v-10.967c0-4.199 3.414-7.611 7.611-7.611 4.206 0 7.633 3.412 7.633 7.611v4.475h8.471v-3.737c0-8.873-7.216-16.089-16.087-16.089z"/></svg>