<svg width="64" height="64" viewBox="0 0 64 64" xmlns="http://www.w3.org/2000/svg"><title>06020unlockedC</title><path d="M51.698 23.303h-3.787l-.04-1.458v-.604c0-3.173-2.572-5.745-5.745-5.745s-5.745 2.572-5.745 5.745v6.937h2.508c1.15 0 2.081.931 2.081 2.079v18.525c0 1.148-.931 2.079-2.081 2.079h-22.65c-1.148 0-2.079-.931-2.079-2.079v-18.525c0-1.148.931-2.079 2.079-2.079h16.336v-6.461c0-5.279 4.281-9.562 9.562-9.562 5.279 0 9.562 4.283 9.562 9.562v1.586zm-26.786 21.73h5.146l-.882-6.346c.478-.453.784-1.09.784-1.804 0-1.367-1.107-2.476-2.474-2.476-1.371 0-2.478 1.109-2.478 2.476 0 .714.306 1.35.786 1.804l-.882 6.346zm7.088-45.033c-17.675 0-32 14.325-32 32 0 17.673 14.325 31.998 32 31.998 17.673 0 32-14.325 32-31.998 0-17.675-14.327-32-32-32z"/></svg>