<svg width="64" height="64" viewBox="0 0 64 64" xmlns="http://www.w3.org/2000/svg"><title>06020unlockedF</title><path d="M18.948 54.745h8.435l-1.446-10.406c.786-.742 1.288-1.787 1.288-2.956 0-2.243-1.816-4.061-4.058-4.061-2.245 0-4.061 1.818-4.061 4.061 0 1.169.499 2.212 1.288 2.956l-1.446 10.406zm12.498-28.251v-10.683c0-8.732 7.079-15.812 15.814-15.812 8.73 0 15.812 7.079 15.812 15.812v2.623h-6.309v-3.412c0-5.246-4.276-9.498-9.521-9.498-5.246 0-9.501 4.252-9.501 9.498v11.472h4.149c1.899 0 3.438 1.539 3.438 3.44v30.628c0 1.899-1.539 3.438-3.438 3.438h-37.454c-1.899 0-3.438-1.539-3.438-3.438v-30.628c0-1.901 1.539-3.44 3.438-3.44h27.009z"/></svg>