<svg width="64" height="64" viewBox="0 0 64 64" xmlns="http://www.w3.org/2000/svg"><title>06020unlockedS</title><path d="M27.285 44.629l-.001 9.371h-6.568l-.002-9.338c-1.52-1.004-2.503-2.699-2.503-4.66 0-3.16 2.543-5.635 5.789-5.635 3.191 0 5.789 2.528 5.789 5.635 0 1.918-.995 3.61-2.504 4.627m20.715-44.629c-8.824 0-16 7.18-16 16.004v7.996h-25c-3.85 0-7 3.15-7 7v26c0 3.85 3.15 7 7 7h34c3.85 0 7-3.15 7-7v-26c0-3.85-3.15-7-7-7h-1v-7.996c0-4.414 3.59-8.004 8-8.004 4.484 0 8 3.516 8 8.004v4.996c0 1.65 1.35 3 3 3h2c1.65 0 3-1.35 3-3v-4.996c0-8.975-7.028-16.004-16-16.004" fill="#000"/></svg>