<svg width="64" height="64" viewBox="0 0 64 64" xmlns="http://www.w3.org/2000/svg"><title>05015uploadphotoF</title><path d="M25.994 45.105c-4.255 0-7.71-3.457-7.71-7.716 0-4.257 3.455-7.71 7.71-7.71 4.261 0 7.716 3.453 7.716 7.71 0 4.259-3.455 7.716-7.716 7.716zm0-18.646c-6.026 0-10.928 4.904-10.928 10.93 0 6.028 4.902 10.934 10.928 10.934 6.028 0 10.934-4.906 10.934-10.934 0-6.026-4.906-10.93-10.934-10.93zm0 23.879c-7.136 0-12.943-5.809-12.943-12.949 0-7.138 5.807-12.945 12.943-12.945 7.14 0 12.949 5.807 12.949 12.945 0 7.14-5.809 12.949-12.949 12.949zm-17.689-28.384v-4.066c0-.163.133-.296.296-.296h9.022c.161 0 .296.133.296.296v4.066c0 .161-.135.296-.296.296h-9.022c-.163 0-.296-.135-.296-.296zm42.626-11.742c-.133-.135-.316-.212-.5-.212-.197 0-.375.077-.506.212l-12.86 12.856c-.203.208-.264.512-.151.778.105.266.367.443.657.443h5.16v13.38c0 .365.282.659.623.659h14.148c.343 0 .625-.294.625-.659v-13.38h5.16c.288 0 .544-.177.657-.443.117-.266.052-.57-.151-.778l-12.86-12.856zm-10.535 27.457v-11.113h-2.893c-1.207 0-2.319-.754-2.762-1.874-.451-1.068-.208-2.343.643-3.205l1.9-1.898h-16.743v-2.597c0-1.066-.87-1.922-1.93-1.922h-10.924c-1.066 0-1.924.856-1.924 1.922v2.597h-3.038c-1.507 0-2.724 1.219-2.724 2.716v29.381c0 1.505 1.217 2.718 2.724 2.718h46.553c1.509 0 2.724-1.213 2.724-2.718v-11.079h-8.714c-1.594 0-2.891-1.314-2.891-2.927z"/></svg>