<svg width="64" height="64" viewBox="0 0 64 64" xmlns="http://www.w3.org/2000/svg"><title>05022uploadF</title><path d="M62.775 44.448h-3.291c-.678 0-1.227.549-1.227 1.227v5.142c0 1.339-1.087 2.423-2.423 2.423h-47.661c-1.339 0-2.423-1.084-2.423-2.423v-5.142c0-.678-.549-1.227-1.23-1.227h-3.291c-.678 0-1.227.549-1.227 1.227v7.157c0 3.4 2.757 6.157 6.157 6.157h51.691c3.398 0 6.157-2.757 6.157-6.157v-7.157c0-.678-.552-1.227-1.23-1.227zm-48.164-17.477c.946.946 1.67.946 2.616 0l11.969-11.969v24.944h-.006l.003 4.691c-.003 1.339.509 1.851 1.848 1.851h2.052c1.337 0 1.848-.512 1.848-1.851v-.558l.006-.032-.003-29.049 11.759 11.759c.946.946 1.67.946 2.616.003l1.452-1.452c.946-.949.946-1.67-.003-2.616l-16.982-16.985c-.949-.946-2.481-.946-3.429 0l-17.195 17.198c-.946.946-.949 1.667 0 2.613l1.449 1.452z"/></svg>