<svg width="64" height="64" viewBox="0 0 64 64" xmlns="http://www.w3.org/2000/svg"><title>05022uploadC</title><path d="M48.459 40.142c0 1.76-1.426 3.186-3.186 3.186h-26.755c-1.76 0-3.186-1.426-3.186-3.186v-3.705c0-.351.285-.635.635-.635h1.702c.353 0 .638.285.638.635v2.661c0 .693.561 1.254 1.254 1.254h24.667c.693 0 1.254-.561 1.254-1.254v-2.661c0-.351.285-.635.635-.635h1.705c.351 0 .635.285.635.635v3.705zm-26.315-15.49l8.901-8.901c.489-.489 1.284-.489 1.773 0l8.791 8.791c.491.491.491.865.002 1.354l-.752.75c-.489.491-.863.491-1.354 0l-6.085-6.085v15.035l-.002.017v.287c0 .693-.266.959-.956.959h-1.063c-.693 0-.959-.264-.956-.959l-.002-2.427h.004v-12.912l-6.196 6.196c-.491.489-.865.489-1.354 0l-.75-.75c-.491-.491-.491-.865 0-1.354zm9.855-24.652c-17.673 0-32 14.327-32 32 0 17.673 14.327 32 32 32 17.673 0 32-14.327 32-32 0-17.673-14.327-32-32-32z"/></svg>