<svg width="64" height="64" viewBox="0 0 64 64" xmlns="http://www.w3.org/2000/svg"><title>05022uploadL</title><path d="M62.924 45.76c.591 0 1.075.484 1.075 1.075v7.173c0 2.365-1.917 4.282-4.282 4.282h-55.434c-2.365 0-4.282-1.917-4.282-4.282v-6.949c0-.591.484-1.075 1.075-1.075h1.723c.591 0 1.075.484 1.075 1.075v5.913c0 .8.648 1.448 1.448 1.448h53.353c.803 0 1.451-.648 1.451-1.448v-6.137c0-.591.484-1.075 1.075-1.075h1.723zm-11.536-20.059l-1.06 1.054c-.466.466-1.221.469-1.699 0l-14.755-14.755v34.091c0 .663-.538 1.2-1.2 1.2h-1.49c-.663 0-1.203-.538-1.203-1.2v-34.172l-14.627 14.627c-.469.46-1.224.466-1.699 0l-1.06-1.057c-.224-.227-.349-.526-.349-.851 0-.32.125-.621.349-.848l18.443-18.44c.227-.224.529-.349.848-.349.326 0 .624.125.851.349l18.652 18.649c.466.472.466 1.23 0 1.702z"/></svg>