<svg width="64" height="64" viewBox="0 0 64 64" xmlns="http://www.w3.org/2000/svg"><title>05015uploadphotoC</title><path d="M55.163 26.011h-1.628v6.935c0 1.171-.944 2.125-2.104 2.125h-3.095v8.582c0 1.099-.888 1.983-1.987 1.983h-33.981c-1.099 0-1.987-.884-1.987-1.983v-21.445c0-1.092.888-1.983 1.987-1.983h2.217v-1.896c0-.776.629-1.403 1.405-1.403h7.974c.774 0 1.409.627 1.409 1.403v1.896h13.762l6.204-6.204c.786-.799 2.255-.816 3.065.013l8.287 8.287c.638.64.812 1.579.451 2.393-.325.776-1.107 1.296-1.979 1.296zm-7.972-10.786c-.085-.087-.204-.136-.323-.136-.125 0-.24.049-.325.136l-8.3 8.298c-.132.134-.17.332-.098.502.068.172.238.287.423.287h3.33v8.635c0 .234.183.425.404.425h9.129c.221 0 .404-.191.404-.425v-8.635h3.328c.187 0 .353-.115.425-.287.077-.17.034-.368-.098-.502l-8.3-8.298zm-23.732 6.733v-2.965c0-.119-.098-.217-.217-.217h-6.582c-.119 0-.217.098-.217.217v2.965c0 .121.096.219.217.219h6.582c.119 0 .217-.098.217-.219zm5.896 5.641c-3.107 0-5.628 2.521-5.628 5.628s2.521 5.632 5.628 5.632c3.109 0 5.632-2.525 5.632-5.632 0-3.107-2.523-5.628-5.632-5.628zm0 13.494c-4.336 0-7.862-3.528-7.862-7.866 0-4.336 3.526-7.864 7.862-7.864s7.866 3.528 7.866 7.864c0 4.338-3.53 7.866-7.866 7.866zm0-17.43c-5.273 0-9.562 4.291-9.562 9.564 0 5.275 4.289 9.566 9.562 9.566s9.566-4.291 9.566-9.566c0-5.273-4.293-9.564-9.566-9.564zm2.646-23.662c-17.673 0-32 14.327-32 32 0 17.673 14.327 32 32 32 17.673 0 32-14.327 32-32 0-17.673-14.327-32-32-32z"/></svg>