<svg width="64" height="64" viewBox="0 0 64 64" xmlns="http://www.w3.org/2000/svg"><title>05015uploadphotoL</title><path d="M26.67 26.296c5.877 0 10.657 4.78 10.657 10.655 0 5.875-4.78 10.657-10.657 10.657-5.873 0-10.651-4.782-10.651-10.657s4.778-10.655 10.651-10.655zm37.124-3.438l-12.654-12.651c-.13-.132-.31-.207-.491-.207-.194 0-.368.076-.498.207l-12.653 12.651c-.202.204-.26.504-.149.766.103.262.361.436.646.436h5.077v13.164c0 .359.279.65.615.65h13.921c.335 0 .613-.291.613-.65v-13.164h5.078c.283 0 .535-.175.644-.436.118-.262.052-.562-.147-.766zm-45.07-1.053v-4.088c0-.136-.112-.248-.248-.248h-8.964c-.136 0-.248.112-.248.248v4.088c0 .136.112.248.248.248h8.964c.136 0 .248-.112.248-.248zm7.946 22.738c4.192 0 7.593-3.403 7.593-7.592 0-4.19-3.401-7.588-7.593-7.588-4.186 0-7.588 3.397-7.588 7.588 0 4.188 3.401 7.592 7.588 7.592zm24.498-4.38v10.845c0 .873-.714 1.582-1.588 1.582h-45.809c-.875 0-1.588-.71-1.588-1.582v-28.91c0-.873.714-1.582 1.588-1.582h4.082v-3.647c0-.44.361-.797.803-.797h10.748c.446 0 .809.357.809.797v3.647h16.443l2.172-2.183h-16.432v-1.464c0-1.644-1.342-2.982-2.992-2.982h-10.748c-1.646 0-2.986 1.338-2.986 2.982v1.464h-1.898c-2.081 0-3.772 1.689-3.772 3.766v28.91c0 2.077 1.691 3.766 3.772 3.766h45.809c2.081 0 3.772-1.689 3.772-3.766v-10.845h-2.183zm-24.498 9.629c7.082 0 12.841-5.761 12.841-12.841 0-7.08-5.759-12.839-12.841-12.839-7.078 0-12.835 5.759-12.835 12.839s5.757 12.841 12.835 12.841z"/></svg>