<svg width="64" height="64" viewBox="0 0 64 64" xmlns="http://www.w3.org/2000/svg"><title>02018vandalismF</title><path d="M8.5 60.4h47.1v3.6h-47.1v-3.6zm1.3-60.4v57.7h44.1v-57.7h-44.1zm41.4 55.5h-38.6v-24.5h38.6v24.5zm0-27.3h-38.6v-25.5h38.6v25.5zm-21.9-3.9h6.3v1.7h13.1v-20.8h-33.7v20.7h14.3v-1.6zm5.3 21.8l-.6.5-1.9 6.4h10.8l-1.2-4.2-7.1-2.7zm-10.7 3.7l-8.9-2.9v6.1h14.2l1.5-5-1.8-2-5 3.8zm17-16.6h-17.7l.8 5 6.7-1 .7 1.2 3.7-.8 5.8-4.4zm-20.5 0h-5.4v10.9l8.3 2.7 6.7-5.2-.8-1.4-7.5 1.1-1.3-8.1zm16.7 6.4l-.1.3h7.5l-5.8 3.5h4.2l2.7 9.5v.1h3.1v-19.8h-3.3l-8.3 6.4z"/></svg>