<svg width="64" height="64" viewBox="0 0 64 64" xmlns="http://www.w3.org/2000/svg"><title>02018vandalismL</title><path d="M54.3 57.3v-57.3h-45v57.3h-2.7v6.7h50.8v-6.7h-3.1zm-42.7-55h40.4v55h-40.4v-55zm43.5 59.4h-46.2v-2.1h46.3v2.1h-.1zm-41.8-57.7v51.6h37.1v-51.6h-37.1zm16.1 49.3h-13.8v-6l7.3 2.3 5.3-4 2.5 2.8-1.3 4.9zm-13.8-8.4v-13.1h4l1.4 8.7 8.1-1.2 1.1 2-7.7 5.9-6.9-2.3zm14.7-8.1l-7.4 1.1-1-6.1h20.8l-6.4 4.8-5.5 1.1-.5-.9zm1.4 16.5l1.7-6.3 1.1-.9 8.2 3.1 1.2 4.2h-12.2v-.1zm16.4 0h-1.9l-2.8-9.9h-4.9l6.9-4.1h-8.2l.2-.7 8.8-6.7.2-.1h1.7v21.5zm0-23.8h-32.5v-1.8h32.6v1.8h-.1zm0-4.1h-14v-1.3h-5.5v1.3h-13v-19.1h32.6v19.1h-.1z"/></svg>