<svg width="64" height="64" viewBox="0 0 64 64" xmlns="http://www.w3.org/2000/svg"><title>02018vandalismC</title><path d="M32 0c-17.7 0-32 14.3-32 32s14.3 32 32 32 32-14.3 32-32-14.3-32-32-32zm-13.7 11.2h27.4v35.8h-27.4v-35.8zm28.4 39.7h-29.3v-2.2h29.2v2.2h.1zm-26.7-38v15.8h24v-15.8h-24zm22.4 14.4h-8.1v-1h-3.9v1h-8.9v-12.9h20.9v12.9zm-22.4 3.1v15.2h24v-15.2h-24zm1.5 1.4h3.4l.8 5.1 4.7-.7.5.8-4.2 3.2-5.2-1.6v-6.8zm8.8 12.3h-8.8v-3.8l5.5 1.8 3.1-2.4 1.1 1.3-.9 3.1zm1-9.8l-4.2.6-.5-3.1h11l-3.6 2.7-2.3.5-.4-.7zm.8 9.8l1.1-4 .3-.3 4.4 1.6.8 2.6c.1.1-6.6.1-6.6.1zm10.3 0h-1.9l-1.7-6h-2.6l3.6-2.2h-4.7l.1-.2 5.1-4h2.1v12.4z"/></svg>