<svg width="64" height="64" viewBox="0 0 64 64" xmlns="http://www.w3.org/2000/svg"><title>04022vehicrepairL</title><path d="M14.366 20.689l28.751 28.886-.089.561c-.374 1.822-.226 3.71.418 5.452.374.766.832 1.487 1.364 2.151.697.812 1.531 1.494 2.466 2.016 1.182.689 2.513 1.073 3.879 1.122 1.479-.148 2.939-.436 4.364-.859l-2.796-1.369-2.718-1.506-.106-6.213 5.322-3.193 5.356 2.976c-.214-1.388-.731-2.71-1.516-3.872-.788-1.162-1.839-2.122-3.067-2.801-2.085-1.152-4.542-1.428-6.833-.773-.47.143-.928.327-1.366.549l-.721.35-27.98-28.354.172-.615c.734-2.316.502-4.827-.642-6.969-1.822-3.424-5.639-5.287-9.46-4.618-1.386.241-2.695.802-3.825 1.639l5.856 1.74 1.413 6.043-4.534 4.251-5.868-1.772c.702 1.218 1.484 2.388 2.343 3.498.992.975 2.215 1.679 3.554 2.05 1.022.31 2.092.433 3.158.367.832-.049 1.652-.217 2.434-.5l.67-.239zm22.516 3.591l2.905 2.942 9.785-9.568 7.146-3.852 3.697-7.503-2.981-2.838-7.333 3.99-3.796 7.554-9.423 9.275zm2.882 6.11l-6.06-6.132 10.892-10.72 3.515-7.104c.199-.409.524-.746.928-.96l7.39-3.98c.839-.453 1.876-.31 2.56.352l2.996 2.897c.692.662.869 1.701.438 2.558l-3.722 7.515c-.197.406-.517.741-.916.958l-7.008 3.778-11.013 10.838zm-18.442 7.124c-.155 0-.305.059-.416.17l-17.551 17.566c-1.487 1.494-1.482 3.911.012 5.398.716.711 1.684 1.11 2.693 1.11h.007c1.014 0 1.984-.404 2.698-1.125l17.551-17.563c.229-.231.226-.601-.002-.83l-4.576-4.556c-.111-.111-.261-.17-.416-.17zm-15.264 26.486c-3.345 0-6.058-2.713-6.058-6.06 0-1.602.635-3.138 1.767-4.273l17.548-17.566c1.105-1.105 2.895-1.108 4.002-.007l4.578 4.556c1.108 1.103 1.11 2.895.007 4.002l-17.551 17.566c-1.132 1.142-2.673 1.785-4.278 1.782h-.017zm45.191-.879c-1.78-.03-3.522-.512-5.061-1.406-1.164-.647-2.203-1.497-3.072-2.506-.647-.793-1.201-1.654-1.652-2.572-.822-1.984-1.076-4.158-.734-6.277l-26.969-27.097c-.775.222-1.57.359-2.375.404-1.327.071-2.658-.084-3.934-.46-1.716-.48-3.276-1.393-4.534-2.654-1.039-1.297-1.952-2.69-2.722-4.162-.495-1.14.027-2.462 1.164-2.956l.094-.037c.45-.158.938-.17 1.396-.034l4.635 1.398 2.639-2.479-.822-3.522-4.62-1.393c-1.172-.364-1.834-1.605-1.482-2.779.135-.448.409-.844.783-1.125 2.86-2.129 6.562-2.779 9.977-1.75 5.723 1.745 9.081 7.665 7.638 13.472l.581.606 25.378 25.674c.32-.138.65-.254.985-.352 5.964-1.711 12.185 1.738 13.893 7.702.153.529.266 1.071.337 1.62.062.48-.034.967-.273 1.391-.62 1.026-1.925 1.401-2.996.857l-4.234-2.353-3.104 1.863.062 3.618 4.231 2.356c.401.226.726.569.93.982.519 1.115.037 2.442-1.078 2.961l-.012.005c-1.644.51-3.335.847-5.049 1.007z"/></svg>