<svg width="64" height="64" viewBox="0 0 64 64" xmlns="http://www.w3.org/2000/svg"><title>04022vehicrepairC</title><path d="M50.097 43.13c-.117.209-.337.339-.578.339-.111 0-.22-.028-.318-.081l-2.857-1.587-2.515 1.51.049 2.933 2.863 1.591c.119.068.218.173.279.297.147.333 0 .719-.331.87-.896.262-1.811.442-2.739.54h-.049c-.93-.03-1.837-.288-2.641-.755-.625-.35-1.184-.806-1.651-1.35-.352-.435-.655-.907-.9-1.408-.457-1.169-.57-2.445-.32-3.674l-16.625-16.702c-.527.19-1.077.303-1.638.335l-.363.011c-.595 0-1.186-.085-1.756-.256-.911-.256-1.743-.738-2.415-1.404-.576-.734-1.086-1.517-1.521-2.342-.122-.341.053-.717.393-.843.132-.043.275-.045.41-.006l3.134.945 2.142-2.007-.668-2.857-3.13-.945c-.35-.107-.544-.476-.437-.823.043-.134.124-.252.237-.335 2.677-1.986 6.46-1.427 8.446 1.252 1.137 1.532 1.483 3.514.93 5.342l-.017.062 16.096 16.303c.294-.149.604-.271.919-.369 3.204-.917 6.547.934 7.467 4.139.081.286.141.576.181.87.017.141-.011.282-.077.405zm-20.548-4.416l-10.479 10.485c-1.146 1.156-3.012 1.165-4.169.019-1.156-1.146-1.167-3.012-.021-4.169l.013-.013 10.477-10.483c.399-.399 1.043-.399 1.442-.004l2.733 2.722c.399.397.399 1.043.004 1.442zm10.987-17.705l2.148-4.341c.058-.119.154-.218.271-.279l4.414-2.379c.245-.13.546-.09.747.105l1.786 1.726c.203.194.254.497.128.745l-2.223 4.493c-.058.117-.151.215-.267.279l-4.265 2.3-6.165 6.069-2.677-2.709 6.103-6.007zm-8.535-21.009c-17.673 0-32 14.327-32 32 0 17.673 14.327 32 32 32 17.673 0 32-14.327 32-32 0-17.673-14.327-32-32-32z"/></svg>