<svg width="64" height="64" viewBox="0 0 64 64" xmlns="http://www.w3.org/2000/svg"><title>04022vehicrepairF</title><path d="M40.086 28.662l10.71-10.543 7.409-3.993c.204-.111.364-.281.465-.487l3.862-7.803c.219-.433.128-.955-.222-1.292l-3.104-3.001c-.35-.335-.876-.409-1.297-.18l-7.668 4.128c-.207.111-.369.281-.47.487l-3.732 7.542-10.604 10.437 4.65 4.704zm-20.391 8.389l-18.203 18.213c-1.996 2.006-1.989 5.248.017 7.244 2.004 1.996 5.246 1.989 7.242-.017l18.203-18.213c.687-.692.684-1.817-.007-2.506l-4.748-4.729c-.689-.684-1.817-.684-2.503.007zm-9.743-35.82c1.002 0 2.018.143 3.023.448 2.772.842 4.943 2.727 6.201 5.095 1.27 2.366 1.63 5.216.793 7.98l-.03.108 27.961 28.322c.524-.254 1.056-.485 1.6-.64.94-.273 1.92-.414 2.907-.414 1.716 0 3.458.423 5.066 1.314 1.479.82 2.681 1.954 3.577 3.266.933 1.364 1.519 2.924 1.735 4.534.027.241-.012.492-.135.704-.209.379-.598.591-1.002.591-.187 0-.377-.047-.551-.143l-4.965-2.757-4.369 2.622.086 5.098 4.972 2.767c.202.111.379.29.487.514.254.574 0 1.243-.574 1.509 0 0-3.222.918-4.761.938h-.084c-1.516 0-3.136-.507-4.588-1.312-1.11-.618-2.073-1.423-2.87-2.343-.647-.741-1.147-1.662-1.566-2.449-.8-1.514-.913-4.106-.554-6.38l-28.881-29.014c-.903.322-1.863.529-2.846.581-.209.012-.418.02-.63.02-1.014 0-2.043-.143-3.052-.446-1.617-.49-3.134-1.322-4.192-2.439-1.061-1.12-2.644-4.069-2.644-4.069-.209-.598.096-1.246.684-1.465.121-.039.246-.057.369-.057.116 0 .231.015.337.047l5.447 1.644 3.719-3.488-1.159-4.962-5.438-1.642c-.601-.19-.943-.822-.758-1.428.064-.236.217-.438.409-.586 1.307-.967 2.836-1.634 4.463-1.913.593-.103 1.199-.158 1.812-.158z"/></svg>