<svg width="64" height="64" viewBox="0 0 64 64" xmlns="http://www.w3.org/2000/svg"><title>05009viewagntsiteF</title><path d="M15.355 17.364c1.516-6.156 3.941-11.161 6.974-14.462-5.868 1.721-11.013 5.115-14.89 9.639 2.338 1.905 4.997 3.54 7.916 4.822zm15.756 3.252c4.544 0 8.874-.758 12.837-2.114-2.407-10.016-7.247-16.876-12.837-16.876s-10.43 6.86-12.834 16.876c3.961 1.356 8.29 2.114 12.834 2.114zm13.465.906c-4.175 1.383-8.706 2.171-13.465 2.171-4.758 0-9.29-.788-13.465-2.171-.549 3.047-.879 6.326-.955 9.753h28.839c-.076-3.426-.406-6.705-.955-9.753zm2.292 26.74c-1.516 6.159-3.941 11.163-6.976 14.464 5.871-1.721 11.015-5.118 14.892-9.642-2.338-1.905-4.997-3.54-7.916-4.822zm7.916-35.719c-3.877-4.524-9.022-7.919-14.89-9.642 3.033 3.301 5.457 8.305 6.974 14.464 2.919-1.282 5.578-2.919 7.916-4.822zm-23.673 32.468c-4.544 0-8.874.758-12.837 2.114 2.405 10.018 7.247 16.876 12.837 16.876s10.432-6.858 12.837-16.876c-3.963-1.356-8.293-2.114-12.837-2.114zm-8.783 17.716c-3.033-3.301-5.457-8.305-6.976-14.464-2.919 1.282-5.578 2.917-7.916 4.822 3.879 4.524 9.022 7.921 14.892 9.642zm23.202-28.374h-28.842c.079 3.426.406 6.703.955 9.75 4.177-1.383 8.709-2.169 13.467-2.169 4.756 0 9.287.785 13.465 2.169.549-3.047.876-6.324.955-9.75zm-30.836 10.863c-.63-3.367-1.002-7.01-1.081-10.863h-13.615c.295 6.053 2.294 11.65 5.561 16.315 2.693-2.181 5.76-4.032 9.135-5.452zm-1.081-13.94c.079-3.852.45-7.495 1.083-10.865-3.375-1.418-6.444-3.271-9.135-5.45-3.266 4.665-5.265 10.262-5.563 16.315h13.615zm34.993 3.077c-.079 3.852-.45 7.495-1.081 10.863 3.375 1.42 6.442 3.271 9.135 5.452 3.266-4.665 5.263-10.262 5.561-16.315h-13.615zm-1.083-13.94c.63 3.367 1.002 7.013 1.083 10.865h13.612c-.295-6.055-2.294-11.653-5.561-16.318-2.693 2.181-5.76 4.032-9.135 5.452z"/></svg>