<svg width="64" height="64" viewBox="0 0 64 64" xmlns="http://www.w3.org/2000/svg"><title>06013viewidcardL</title><path d="M10.447 32.736c0-4.795 2.751-7.128 8.408-7.128 5.655 0 8.406 2.333 8.406 7.128v8.14h-16.814v-8.14zm3.396-14.098c1.073-.093 2.795-.379 4.507-1.235.671-.337 1.209-.663 1.684-.978 1.594.692 3.112.807 3.7.822.091.377.154.769.154 1.175 0 2.775-2.258 5.033-5.033 5.033-2.702 0-4.895-2.142-5.012-4.816zm20.22 5.092c0 .594.483 1.077 1.079 1.077h4.471l.13-.197c.533-.718 1.144-1.359 1.789-1.96h-6.39c-.596 0-1.079.483-1.079 1.079zm8.692 21.265c-.98-.726-1.828-1.564-2.568-2.469l-7.767 10.445c-1.041 1.402-.744 3.398.655 4.436l.874.651c.566.418 1.227.621 1.884.621.972 0 1.931-.442 2.552-1.278l7.834-10.536c-1.217-.471-2.39-1.071-3.465-1.87zm-8.692-15.514c0 .594.483 1.077 1.079 1.077h2.006c.14-.728.321-1.448.572-2.156h-2.578c-.596 0-1.079.483-1.079 1.079zm24.433 9.057c-1.73 2.331-4.392 3.562-7.086 3.562-1.828 0-3.67-.566-5.25-1.74-2.803-2.081-3.984-5.507-3.375-8.723l.213.043h6.134c.919 0 1.663-.744 1.663-1.663s-.744-1.663-1.663-1.663h-4.988l.195-.327c1.73-2.331 4.39-3.562 7.086-3.562 1.826 0 3.67.566 5.25 1.74 3.909 2.903 4.724 8.424 1.822 12.333zm3.027 2.246c4.136-5.568 2.974-13.433-2.594-17.569-2.25-1.669-4.874-2.477-7.477-2.477-3.838 0-7.627 1.755-10.09 5.073-4.136 5.568-2.974 13.433 2.594 17.567 2.25 1.671 4.874 2.477 7.477 2.477 3.838 0 7.627-1.753 10.09-5.071zm-11.378-22.804c0-.596-.483-1.079-1.079-1.079h-13.924c-.596 0-1.079.483-1.079 1.079s.483 1.077 1.079 1.077h13.317c.406-.085.813-.168 1.227-.221.27-.195.458-.497.458-.856zm-20.727 22.898v-8.14c0-3.386-1.183-7.284-6.114-8.714 1.655-1.317 2.738-3.325 2.738-5.601 0-3.964-3.223-7.189-7.187-7.189-3.964 0-7.189 3.225-7.189 7.189 0 2.276 1.083 4.284 2.738 5.601-4.929 1.43-6.112 5.329-6.112 8.714v8.14h-1.227c-2.708 0-4.911-2.203-4.911-4.911v-23.9c0-2.706 2.203-4.909 4.911-4.909h45.41c2.708 0 4.911 2.203 4.911 4.909v7.968c.746.337 1.467.732 2.156 1.197v-9.165c0-3.895-3.171-7.065-7.067-7.065h-45.41c-3.897 0-7.065 3.171-7.065 7.065v23.9c0 3.897 3.169 7.065 7.065 7.065h30.235l1.603-2.154h-9.485z"/></svg>