<svg width="64" height="64" viewBox="0 0 64 64" xmlns="http://www.w3.org/2000/svg"><title>05009viewagntsiteC</title><path d="M48.351 45.037c-1.821-1.474-3.892-2.725-6.173-3.685.425-2.275.677-4.736.731-7.339h9.199c-.2 4.09-1.55 7.872-3.757 11.025zm-11.332 8.149c2.05-2.23 3.689-5.611 4.713-9.773 1.974.867 3.77 1.972 5.349 3.258-2.62 3.058-6.097 5.353-10.062 6.516zm-5.935.861c-3.776 0-7.048-4.633-8.673-11.404 2.678-.917 5.603-1.429 8.673-1.429 3.072 0 5.997.512 8.675 1.429-1.625 6.772-4.897 11.404-8.675 11.404zm-15.998-7.377c1.581-1.288 3.378-2.391 5.351-3.258 1.026 4.162 2.663 7.544 4.713 9.773-3.968-1.162-7.443-3.458-10.065-6.516zm-5.025-12.658h9.202c.054 2.603.303 5.064.731 7.339-2.281.96-4.354 2.211-6.175 3.685-2.207-3.153-3.557-6.935-3.757-11.025zm3.759-13.106c1.819 1.472 3.892 2.725 6.173 3.683-.427 2.277-.679 4.738-.731 7.341h-9.202c.2-4.09 1.553-7.872 3.759-11.025zm11.33-8.149c-2.05 2.232-3.687 5.613-4.713 9.773-1.972-.867-3.77-1.972-5.349-3.26 2.62-3.058 6.097-5.351 10.062-6.514zm5.933-.863c3.778 0 7.05 4.637 8.675 11.404-2.678.917-5.603 1.429-8.675 1.429-3.07 0-5.995-.512-8.673-1.429 1.627-6.767 4.897-11.404 8.673-11.404zm-9.742 20.036c.05-2.314.273-4.53.644-6.59 2.822.935 5.884 1.468 9.098 1.468 3.217 0 6.278-.533 9.1-1.468.372 2.06.595 4.276.646 6.59h-19.489zm19.489 2.081c-.054 2.314-.275 4.53-.646 6.588-2.822-.935-5.884-1.466-9.098-1.466-3.217 0-6.278.531-9.1 1.466-.372-2.058-.593-4.274-.646-6.588h19.491zm6.251-14.739c-1.579 1.284-3.375 2.391-5.349 3.258-1.024-4.162-2.663-7.544-4.713-9.773 3.966 1.164 7.443 3.458 10.062 6.516zm5.027 12.66h-9.199c-.056-2.603-.306-5.066-.731-7.343 2.279-.96 4.352-2.211 6.173-3.683 2.207 3.15 3.557 6.935 3.757 11.027zm-21.025-30.101c-17.166 0-31.083 13.917-31.083 31.083 0 17.166 13.917 31.083 31.083 31.083 17.169 0 31.085-13.917 31.085-31.083 0-17.166-13.917-31.083-31.085-31.083z"/></svg>