<svg width="64" height="64" viewBox="0 0 64 64" xmlns="http://www.w3.org/2000/svg"><title>05009viewagntsiteS</title><path d="M47.393 49.217l-.507-.192-.14.522c-.736 2.718-1.644 5.227-2.702 7.461-.993 2.083-2.095 3.89-3.276 5.373l-.981 1.233 1.507-.456c5.033-1.517 9.671-4.303 13.417-8.061.325-.33.638-.666.941-1.008l.379-.428-.481-.311c-2.575-1.671-5.321-3.063-8.157-4.133zm1.459-14.504l-.019.472c-.115 2.956-.407 5.865-.868 8.648l-.065.405.386.138c3.577 1.275 7.032 3.009 10.273 5.156l.421.28.267-.428c2.627-4.205 4.253-9.093 4.704-14.135l.048-.536h-15.147zm-.962-14.393l.069.405c.463 2.781.759 5.698.874 8.672l.019.473h15.146l-.048-.536c-.459-5.047-2.094-9.938-4.728-14.145l-.267-.426-.421.276c-3.245 2.143-6.694 3.873-10.256 5.143l-.388.138zm-3.848-12.714c1.054 2.222 1.959 4.714 2.69 7.407l.142.522.505-.192c2.844-1.074 5.583-2.458 8.139-4.117l.48-.311-.378-.429c-.292-.328-.596-.654-.911-.973-3.752-3.758-8.391-6.545-13.415-8.058l-1.509-.455.983 1.233c1.183 1.481 2.283 3.289 3.274 5.373zm-22.324 9.252l.494.115c3.245.761 6.586 1.141 9.929 1.141 3.219 0 6.439-.352 9.571-1.058l.5-.113-.133-.494c-.661-2.498-1.477-4.778-2.425-6.773-2.278-4.795-5.156-7.658-7.701-7.658-2.542 0-5.421 2.863-7.7 7.662-.945 1.993-1.753 4.244-2.404 6.688l-.131.49zm21.534 5.354l-.079-.52-.514.115c-7.104 1.588-14.297 1.563-21.396-.077l-.517-.121-.081.524c-.359 2.328-.591 4.759-.695 7.224l-.021.513h24.012l-.022-.513c-.103-2.425-.334-4.829-.687-7.145zm-23.284 13.014c.104 2.452.334 4.876.689 7.199l.081.523.515-.119c7.007-1.606 14.41-1.639 21.415-.077l.515.115.078-.522c.352-2.322.58-4.719.68-7.119l.021-.513h-24.015l.021.513zm22.254 12.39l-.495-.113c-6.393-1.446-13.147-1.417-19.53.078l-.493.116.13.489c.659 2.481 1.473 4.753 2.42 6.752 2.277 4.793 5.156 7.656 7.698 7.656 2.543 0 5.423-2.863 7.703-7.658.954-2.016 1.774-4.313 2.438-6.828l.129-.492zm-22.356 9.392c-1.047-2.205-1.945-4.676-2.671-7.347l-.142-.526-.509.196c-2.796 1.079-5.492 2.461-8.012 4.113l-.474.311.374.424c.279.317.563.623.857.918 3.718 3.73 8.317 6.506 13.3 8.029l1.515.463-.987-1.239c-1.175-1.478-2.27-3.274-3.251-5.342zm-3.839-12.657l-.069-.405c-.471-2.792-.768-5.74-.883-8.761l-.02-.472h-15.057l.048.536c.457 5.083 2.109 10.006 4.776 14.241l.271.428.418-.28c3.184-2.13 6.593-3.86 10.13-5.147l.386-.14zm.532-29.123l.507.196.144-.526c.726-2.658 1.619-5.112 2.658-7.294.975-2.06 2.068-3.858 3.247-5.342l.985-1.239-1.513.463c-4.981 1.523-9.581 4.3-13.3 8.031-.284.286-.557.58-.822.881l-.376.427.476.309c2.523 1.646 5.211 3.022 7.994 4.094zm-1.482 14.17c.117-3.019.417-5.976.889-8.787l.069-.404-.384-.14c-3.526-1.281-6.928-3.009-10.114-5.133l-.419-.28-.269.426c-2.678 4.244-4.338 9.173-4.8 14.255l-.048.535h15.057l.019-.472z"/></svg>