<svg width="64" height="64" viewBox="0 0 64 64" xmlns="http://www.w3.org/2000/svg"><title>05009viewagntsiteL</title><path d="M55.693 48.407c-3.175-2.154-6.776-3.862-10.668-5.069.568-3.038.907-6.324.988-9.759h14.752c-.301 5.488-2.116 10.572-5.072 14.828zm-18.824 11.992c3.21-2.561 5.875-7.549 7.489-13.964 3.415 1.084 6.579 2.589 9.38 4.463-4.276 4.915-10.178 8.357-16.869 9.501zm-26.608-9.501c2.803-1.874 5.968-3.379 9.383-4.463 1.614 6.415 4.278 11.403 7.489 13.964-6.69-1.144-12.593-4.587-16.871-9.501zm-1.952-2.49c-2.955-4.256-4.771-9.34-5.072-14.828h14.752c.081 3.435.419 6.721.988 9.759-3.892 1.207-7.494 2.915-10.668 5.069zm0-32.816c3.175 2.154 6.776 3.862 10.668 5.069-.568 3.038-.907 6.324-.988 9.762h-14.752c.301-5.491 2.116-10.575 5.072-14.831zm18.824-11.992c-3.21 2.564-5.872 7.549-7.489 13.964-3.415-1.086-6.579-2.589-9.38-4.463 4.278-4.912 10.178-8.355 16.869-9.501zm4.867 1.25c3.478 0 7.223 5.316 9.292 13.555-2.963.684-6.069 1.078-9.292 1.078-3.22 0-6.327-.394-9.289-1.078 2.069-8.239 5.814-13.555 9.289-13.555zm-10.855 25.572c.081-3.182.391-6.188.897-8.936 3.18.73 6.506 1.154 9.959 1.154 3.455 0 6.781-.424 9.961-1.154.505 2.748.816 5.753.897 8.936h-21.713zm10.855 10.934c-3.453 0-6.781.424-9.959 1.157-.505-2.748-.816-5.753-.897-8.933h21.713c-.081 3.18-.391 6.185-.897 8.933-3.18-.732-6.506-1.157-9.961-1.157zm0 17.796c-3.475 0-7.223-5.319-9.289-13.558 2.963-.684 6.069-1.081 9.289-1.081 3.223 0 6.329.397 9.292 1.081-2.069 8.239-5.814 13.558-9.292 13.558zm21.738-46.05c-2.801 1.874-5.966 3.377-9.383 4.463-1.614-6.415-4.276-11.401-7.486-13.964 6.69 1.147 12.59 4.589 16.869 9.501zm7.026 17.321h-14.752c-.081-3.437-.419-6.723-.988-9.762 3.892-1.207 7.494-2.915 10.668-5.069 2.955 4.256 4.771 9.34 5.072 14.831zm3.157 0c-.303-6.203-2.349-11.941-5.693-16.722-.601-.864-1.245-1.69-1.93-2.488-5.867-6.855-14.568-11.211-24.299-11.211-9.729 0-18.43 4.357-24.299 11.211-.682.798-1.326 1.624-1.927 2.488-3.344 4.781-5.39 10.519-5.693 16.722-.025.525-.081 1.046-.081 1.579 0 .533.056 1.051.081 1.579.303 6.2 2.349 11.939 5.69 16.72.604.864 1.248 1.692 1.93 2.488 5.87 6.855 14.568 11.214 24.299 11.214s18.432-4.359 24.302-11.214c.682-.796 1.326-1.624 1.93-2.488 3.341-4.781 5.387-10.519 5.69-16.72.025-.528.078-1.046.078-1.579 0-.533-.053-1.053-.078-1.579z"/></svg>