<svg width="64" height="64" viewBox="0 0 64 64" xmlns="http://www.w3.org/2000/svg"><title>02005waterdamF</title><path d="M27.2 61.318h9.768v2.682h-9.768v-2.682zm15.1-32.486c-1.276-1.622-1.917-3.748-1.759-5.941.082-1.123.307-2.113.59-3.065.164-.561.349-1.119.566-1.654l.343-.807c.236-.521.483-1.053.746-1.584l.409-.835c1.717-3.407 3.661-7.272 4.336-14.515.022-.242.223-.428.467-.432.241-.008.447.178.477.419.863 7.223 2.911 11.035 4.716 14.397l.598 1.136c1.085 2.07 1.97 4.045 2.244 6.626l.019.109c.241 2.432-.499 4.81-2.031 6.524-1.439 1.608-3.43 2.511-5.606 2.539l-.109.002c-1.619 0-3.145-.491-4.423-1.399-.419-.298-.813-.641-1.173-1.029v-.001c-.144-.156-.276-.324-.409-.491zm6.501-.456c.208.7 1.302.906 2.321.35 0 0 1.95-1.121 2.363-4.134.414-3.01-1.357-5.433-1.357-5.433s.59 1.891.295 4.194c-.295 2.302-2.539 3.012-2.539 3.012h-.001c-1.041.401-1.289 1.309-1.083 2.01zm9.756 8.16c-.043.059-.142.16-.316.16h-52.484c-.166.01-.261-.044-.322-.129-.076-.103-.101-.285-.03-.426l6.867-15.452c.178-.307.516-.491.742-.491h10.354l-1.538 1.483c-.491.472-.771 1.134-.771 1.814v8.789c0 .573.465 1.039 1.039 1.039.573 0 1.039-.465 1.039-1.039v-8.789c0-.118.05-.236.137-.318l8.458-8.163c.176-.164.443-.166.615 0l5.355 5.167c-.755 2.309-.799 4.78-.085 7.053.928 2.945 2.986 5.29 5.798 6.608 1.481.693 3.044 1.043 4.649 1.045h.002c3.232 0 6.178-1.43 8.282-3.802l2.271 5.098c.052.166-.015.291-.061.352zm-22.679-13.322h-7.504v7.506h7.504v-7.506zm-7.5 33.778v2.76h7.413v-2.76h-7.413zm-16.92-18.217h41.254v18.216h-16.92v-14.416h-7.413v14.416h-16.92v-18.216zm28.345 11.305h7.504v-7.504h-7.504v7.504zm-22.94 0h7.504v-7.504h-7.504v7.504z"/></svg>