<svg width="64" height="64" viewBox="0 0 64 64" xmlns="http://www.w3.org/2000/svg"><title>02005waterdamL</title><path d="M51.722 55.996h-15.569v-14.692h-8.806v14.692h-15.746v-18.025h40.121v18.025zm-22.185 0h4.426v-12.502h-4.426v12.502zm-3.59 8.004h11.731v-2.201h-11.731v2.201zm22.162-35.01c-1.594 0-3.064-.638-4.139-1.793-1.189-1.278-1.768-3.016-1.632-4.893.188-2.627 1.136-4.511 2.338-6.895 1.073-2.131 2.323-4.614 3.229-8.183.997 3.544 2.312 5.996 3.442 8.099 1.263 2.35 2.26 4.207 2.519 6.828.184 1.863-.374 3.67-1.529 4.963-1.062 1.187-2.534 1.852-4.148 1.873l-.08.002zm-7.955-6.842c-.177 2.454.629 4.838 2.213 6.54 1.495 1.607 3.533 2.492 5.742 2.492l.11-.002c2.232-.03 4.274-.955 5.751-2.604 1.563-1.749 2.319-4.167 2.074-6.635-.3-3.056-1.499-5.288-2.767-7.651-1.181-2.194-2.462-4.619-3.4-8.183-.393-1.493-.731-3.166-.967-5.138-.068-.558-.627-.982-1.1-.965-.562.008-1.026.437-1.077.995-.408 4.384-1.322 7.421-2.35 9.888-.543 1.301-1.113 2.452-1.662 3.542-1.206 2.395-2.346 4.659-2.566 7.723zm-23.999 27.323h7.527v-7.527h-7.527v7.527zm23.665 0h7.529v-7.527h-7.529v7.527zm-11.833-19.9h7.529v-7.529h-7.529v7.529zm10.388-12.88l-4.897-4.724c-1.018-.982-2.617-.984-3.634 0l-4.895 4.724h-12.844c-1.045 0-2.078.621-2.686 1.687l-7.229 16.265c-.348.781-.194 1.62.296 2.283.49.665 1.335 1.045 2.16 1.045h4.766v20.215h17.894v2.397h8.899v-2.397h17.706v-20.215h4.684c.826 0 1.578-.38 2.067-1.043.49-.663.631-1.497.342-2.408l-3.009-6.758c-.397.803-.862 1.546-1.4 2.222l2.363 5.305c.049.161-.015.281-.057.34-.042.057-.139.154-.306.154h-53.949c-.167 0-.253-.042-.338-.144-.084-.101-.082-.241-.008-.397l7.068-15.875c.175-.306.513-.49.737-.49h10.574l-1.531 1.478c-.509.492-.8 1.178-.8 1.884v9.034c0 .604.49 1.094 1.096 1.094.604 0 1.094-.49 1.094-1.094v-9.034c0-.116.049-.228.131-.308l8.697-8.39c.167-.161.429-.161.596 0l5.683 5.484c.237-.636.515-1.261.862-1.861l.133-.215-.262-.26z"/></svg>