<svg width="64" height="64" viewBox="0 0 64 64" xmlns="http://www.w3.org/2000/svg"><title>02025waterbckupF</title><path d="M4.301 15.92h-.928c2.197 3.915 13.28 7.776 28.515 7.776 15.237 0 26.32-3.861 28.517-7.776h-.803c-2.024 0-4.717-.549-6.912-2.92-2.197 2.371-4.891 2.92-6.912 2.92-2.024 0-4.717-.549-6.915-2.917-2.195 2.368-4.888 2.917-6.912 2.917-2.021 0-4.715-.549-6.912-2.92-2.195 2.371-4.891 2.92-6.915 2.92-2.021 0-4.717-.549-6.909-2.92-2.2 2.371-4.891 2.92-6.915 2.92zm27.587 10.608c-10.701 0-21.856-2.035-27.677-5.891l6.965 35.123c1.155 4.773 9.864 8.24 20.712 8.24 11.051 0 19.768-3.491 20.725-8.296l1.728-8.715c-2.232.963-4.925 1.608-8.107 1.907-1.184.109-2.331.163-3.435.163-17.464 0-24.739-13.237-26.861-18.24-1.013-.285-1.771-1.179-1.771-2.285 0-1.333 1.083-2.416 2.416-2.416 1.336 0 2.416 1.083 2.416 2.416 0 .488-.181.917-.429 1.299 1.968 4.795 9.083 17.984 27.4 16.24 3.883-.363 6.907-1.251 9.072-2.629l4.523-22.805c-5.821 3.856-16.976 5.891-27.677 5.891zm-21.872-16.608c.261-.413.712-.661 1.2-.661.485 0 .939.248 1.197.661 1.341 2.131 3.211 3.165 5.712 3.165 2.504 0 4.373-1.035 5.715-3.165.259-.413.712-.661 1.2-.661.485 0 .939.248 1.197.661 1.344 2.131 3.213 3.165 5.715 3.165 2.504 0 4.373-1.035 5.715-3.165.517-.824 1.88-.824 2.397 0 1.341 2.131 3.211 3.165 5.715 3.165 2.501 0 4.368-1.035 5.715-3.165.259-.413.709-.661 1.197-.661.485 0 .939.248 1.2.661 1.341 2.131 3.208 3.165 5.712 3.165h1.176c-.856-6.477-12.971-11.277-28.891-11.277-15.92 0-28.032 4.8-28.888 11.277h1.301c2.501 0 4.371-1.035 5.715-3.165z"/></svg>