<svg width="64" height="64" viewBox="0 0 64 64" xmlns="http://www.w3.org/2000/svg"><title>02025waterbckupC</title><path d="M47.606 22.134c-1.474 0-2.572-.609-3.361-1.862-.153-.242-.419-.39-.706-.39s-.553.149-.706.39c-.791 1.253-1.891 1.862-3.361 1.862-1.474 0-2.574-.609-3.363-1.862-.303-.485-1.107-.485-1.41 0-.791 1.253-1.889 1.862-3.363 1.862-1.472 0-2.57-.609-3.361-1.862-.153-.242-.419-.39-.706-.39s-.553.149-.706.39c-.789 1.253-1.887 1.862-3.361 1.862-1.472 0-2.572-.609-3.361-1.862-.153-.242-.419-.39-.706-.39s-.551.149-.704.39c-.791 1.253-1.891 1.862-3.363 1.862h-.766c.504-3.811 7.63-6.635 16.997-6.635 9.369 0 16.495 2.824 16.999 6.635h-.692zm-16.308 6.243c-8.964 0-15.486-2.271-16.778-4.575h.547c1.189 0 2.775-.324 4.067-1.718 1.292 1.394 2.876 1.718 4.067 1.718 1.191 0 2.777-.324 4.067-1.718 1.294 1.394 2.878 1.718 4.067 1.718 1.191 0 2.777-.324 4.069-1.716 1.29 1.391 2.876 1.716 4.067 1.716 1.189 0 2.773-.324 4.067-1.718 1.29 1.394 2.876 1.718 4.067 1.718h.471c-1.292 2.304-7.812 4.575-16.778 4.575zm13.624 11.619c-1.274.811-3.053 1.334-5.337 1.548-10.779 1.024-14.966-6.737-16.122-9.557.147-.225.252-.477.252-.764 0-.787-.636-1.422-1.422-1.422-.785 0-1.42.636-1.42 1.422 0 .65.446 1.177 1.041 1.346 1.251 2.942 5.529 10.731 15.806 10.731.65 0 1.323-.033 2.021-.097 1.873-.175 3.456-.555 4.769-1.121l-1.018 5.126c-.562 2.828-5.69 4.883-12.193 4.883-6.383 0-11.508-2.04-12.187-4.847l-4.098-20.668c3.425 2.269 9.988 3.468 16.285 3.468 6.297 0 12.86-1.199 16.285-3.466l-2.661 13.417zm-13.624-38.594c-17.286 0-31.298 14.014-31.298 31.3 0 17.284 14.012 31.298 31.298 31.298 17.286 0 31.3-14.014 31.3-31.298 0-17.286-14.014-31.3-31.3-31.3z"/></svg>