<svg width="64" height="64" viewBox="0 0 64 64" xmlns="http://www.w3.org/2000/svg"><title>02005waterdamC</title><path d="M32 .001v-.001c-14.71 0-27.07 9.938-30.812 23.458h8.034l5.212-5.03c1.084-1.046 2.784-1.046 3.869 0l5.212 5.03.24.215-.297.631c-.369.637-.469.962-.722 1.641l-6.05-5.837c-.178-.172-.457-.172-.635 0l-9.256 8.93c-.09.085-.14.204-.14.327v9.617c0 .644-.521 1.164-1.164 1.164-.644 0-1.164-.521-1.164-1.164v-9.617c0-.75.31-1.481.85-2.004l1.632-1.575h-6.194c-.395 2.012-.614 4.086-.614 6.213 0 4.164.82 8.132 2.267 11.78h42.769c.178 0 .281-.102.327-.164.044-.062.112-.191.06-.361l-2.513-5.645c.573-.718 1.068-1.511 1.489-2.367l3.204 7.194c.306.968.155 1.855-.365 2.563-.521.707-1.322 1.112-2.201 1.112h-4.984v16.826c13.769-3.577 23.949-16.05 23.949-30.937 0-17.672-14.328-32-32-32zm-11.531 37.169h-8.012v-8.014h8.012v8.014zm19.317-1.134c-1.543 1.727-3.682 2.697-6.02 2.726l-.114.002c-1.74 0-3.379-.527-4.749-1.503-.453-.321-.876-.689-1.262-1.105-.155-.168-.297-.349-.437-.527-1.373-1.745-2.062-4.024-1.891-6.379.088-1.207.331-2.269.633-3.291.178-.605.374-1.203.607-1.776.119-.289.24-.581.369-.867.251-.559.517-1.132.799-1.7l.441-.896c1.842-3.659 3.931-7.809 4.653-15.585.024-.261.24-.459.501-.463.259-.01.483.189.513.449.928 7.758 3.126 11.85 5.064 15.46l.641 1.22c1.164 2.222 2.118 4.343 2.411 7.114l.02.117c.259 2.611-.533 5.166-2.18 7.006zm-25.679 15.953h4.713v9.148c-1.645-.746-3.23-1.6-4.713-2.601v-6.547zm-2.329 4.803v-7.135h9.373v12.415c3.391 1.224 7.034 1.928 10.849 1.928 1.957 0 3.863-.204 5.722-.539v-17.349h-34.409c2.04 4.142 4.923 7.79 8.465 10.681zm13.274-6.454h8.012v8.012h-8.012v-8.012zm12.982-25.346s1.934 2.645 1.483 5.932c-.45 3.289-2.579 4.515-2.579 4.515-1.114.607-2.309.382-2.535-.383l-.032-.285c-.092-.714.211-1.525 1.213-1.912 0 0 1.848-.589 2.545-2.395.104-.27.185-.565.227-.894v.001c.321-2.515-.323-4.579-.323-4.579z"/></svg>