<svg width="64" height="64" viewBox="0 0 64 64" xmlns="http://www.w3.org/2000/svg"><title>02025waterbckupL</title><path d="M58.874 39.413c-.683 1.361-1.767 2.497-3.219 3.425l2.813-14.094c1.128 2.942 2.138 7.206.406 10.669zm-8.594 15.479c-.519 2.596-7.225 6.191-18.468 6.191-10.48 0-17.751-3.243-18.465-6.191l-7.2-36.09c5.096 3.595 14.459 5.913 25.665 5.913 11.207 0 20.57-2.319 25.665-5.911l-5.096 25.545c-1.732.574-3.748.982-6.075 1.199-18.863 1.756-26.176-11.783-28.198-16.711.258-.39.445-.831.445-1.336 0-1.372-1.114-2.486-2.489-2.486-1.372 0-2.486 1.114-2.486 2.486 0 1.139.779 2.058 1.822 2.354 2.187 5.148 9.67 18.767 27.644 18.767 1.133 0 2.313-.055 3.534-.167 1.882-.176 3.597-.469 5.159-.873l-1.457 7.31zm-18.468-51.978c14.84 0 25.468 4.363 26.763 8.586-2.006-.244-3.581-1.243-4.736-3.134-.266-.434-.735-.697-1.243-.697-.51 0-.98.261-1.246.697-1.334 2.179-3.186 3.238-5.664 3.238-2.472 0-4.327-1.059-5.661-3.238-.53-.87-1.957-.864-2.489 0-1.331 2.182-3.183 3.238-5.661 3.238-2.478 0-4.327-1.056-5.661-3.238-.263-.434-.735-.697-1.243-.697-.508 0-.98.261-1.246.697-1.334 2.179-3.186 3.238-5.661 3.238-2.475 0-4.33-1.059-5.664-3.238-.53-.87-1.957-.864-2.489 0-1.18 1.932-2.796 2.933-4.868 3.147 1.276-4.226 11.912-8.6 26.768-8.6zm-26.118 11.503c1.759-.244 3.759-.993 5.463-2.862 2.198 2.407 4.884 2.966 6.907 2.966 2.022 0 4.709-.56 6.907-2.966 2.193 2.407 4.882 2.966 6.904 2.966 2.025 0 4.712-.56 6.907-2.966 2.198 2.407 4.884 2.966 6.904 2.966 2.022 0 4.712-.56 6.907-2.966 1.668 1.828 3.619 2.588 5.348 2.848-2.719 3.812-12.68 7.395-26.129 7.395-13.432 0-23.385-3.576-26.118-7.382zm53.732 9.519l2.05-10.268.005-.025.044-.225-.019-.003c.066-.348.121-.7.121-1.056 0-7.047-12.818-12.359-29.814-12.359-16.997 0-29.812 5.313-29.812 12.359 0 .343.055.681.115 1.015l-.022.005 8.405 42.138c1.188 4.915 10.15 8.482 21.313 8.482 11.371 0 20.339-3.592 21.327-8.54l1.792-8.981c3.071-1.325 5.285-3.235 6.55-5.76 3.414-6.816-1.235-15.367-2.055-16.783z"/></svg>