<svg width="64" height="64" viewBox="0 0 64 64" xmlns="http://www.w3.org/2000/svg"><title>04006welcomediscL</title><path d="M49.793 27.448h4.462v1.52h-2.833v1.984h2.502v1.524h-2.502v2.034h2.88v1.52h-4.509v-8.581zm-7.691 0h1.683l1.505 3.322 1.497-3.322h1.691v8.581h-1.604v-5.345l-1.584 3.407h-.025l-1.582-3.38v5.319h-1.582v-8.581zm-7.028 4.437v-.281c0-2.709 1.274-4.292 3.126-4.292 1.852 0 3.113 1.584 3.113 4.278v.283c0 2.696-1.276 4.29-3.126 4.29-1.85 0-3.113-1.579-3.113-4.278zm4.559-.06v-.161c0-1.935-.624-2.843-1.445-2.843-.82 0-1.435.892-1.435 2.831v.159c0 1.939.626 2.845 1.447 2.845.822 0 1.433-.896 1.433-2.831zm-9.896.012v-.198c0-2.796 1.373-4.29 3.225-4.29.896 0 1.532.33 2.048.834l-.933 1.311c-.318-.318-.685-.576-1.127-.576-.844 0-1.532.946-1.532 2.783v.062c0 1.961.735 2.793 1.509 2.793.489 0 .832-.244 1.224-.638l.871 1.276c-.636.615-1.336.931-2.158.931-1.914 0-3.128-1.495-3.128-4.288zm-4.28-4.389h1.643v7.049h2.573v1.532h-4.216v-8.581zm-5.593 0h4.464v1.52h-2.833v1.984h2.5v1.524h-2.5v2.034h2.88v1.52h-4.511v-8.581zm-10.168 0h1.716l1.055 5.467 1.177-5.48h1.472l1.175 5.48 1.055-5.467h1.679l-1.899 8.618h-1.606l-1.164-5.283-1.164 5.283h-1.594l-1.899-8.618zm50.249 23.029h-55.892c-2.234 0-4.053-1.821-4.053-4.055v-29.37c0-2.234 1.819-4.053 4.053-4.053h55.892c2.238 0 4.055 1.819 4.055 4.053v29.37c0 2.234-1.817 4.055-4.055 4.055zm-55.892-35.316c-1.043 0-1.891.849-1.891 1.891v29.37c0 1.043.849 1.889 1.891 1.889h55.892c1.043 0 1.891-.847 1.891-1.889v-29.37c0-1.043-.849-1.891-1.891-1.891h-55.892zm54.845 30.904h-54.416l-.06-.679v-27.918l.679-.06h54.416l.06.679v27.918l-.679.06zm-53.237-1.239h52.677v-26.18h-52.677v26.18z"/></svg>