<svg width="64" height="64" viewBox="0 0 64 64" xmlns="http://www.w3.org/2000/svg"><title>02015wildfireC</title><path d="M49.517 47.752c-1.309 2.806-3.518 4.383-4.6 5.145l-.006.002c1.263-1.313 2.897-3.811 2.897-7.304 0-5.723-5.106-10.137-5.106-10.137s.229 2.207-.109 4.827c-.341 2.62-1.294 4.622-1.294 4.622 0-1.243-1.022-5.45-1.022-5.45-.378 5.079-3.117 5.618-3.446 8.966-.163 1.664 1.131 3.134 1.949 4.102l-.085-.039s-4.901-2.855-4.959-7.831c-.043-3.857 2.391-7.071 2.254-10.052 0 0 .857 1.462.993 3.857 0 0 1.623-1.46 2.614-5.376.991-3.916.902-7.129.902-7.129s1.984 1.753 3.473 3.914c1.486 2.164 2.254 6.313 2.254 6.313s.405-1.171.45-2.106c.045-.935-.27-2.219-.27-2.219s2.075 1.986 3.291 5.609c1.218 3.623 1.127 7.48-.18 10.285zm-7.777 5.43c-.958.116-2.244-.25-2.585-1.495-.124-.454-.182-1.212-.132-1.641.227-1.99 1.266-3.518 1.266-3.518s.807 1.177 1.063 2.195c.256 1.018.446 2.015.446 2.015s.196-1.592 1.722-3.256c1.307-1.422.737-4.911.737-4.911s2.259 4.397 1.319 7.189c-.749 2.232-2.186 3.225-3.836 3.423zm-8.559-2.624v1.74h-6.245v-3.452s-4.243.097-7.736-.52c-4.073-.718-7.953-2.748-7.953-2.748s3.91-1.786 7.259-5.306c3.136-3.295 3.57-5.605 3.57-5.605s-1.982-.091-4.187-.213c-1.596-.087-2.725-.943-2.725-.943s3.274-2.164 6.049-5.099c2.55-2.698 3.739-5.103 3.739-5.103s-1.224.359-3.163.142c-1.294-.142-1.817-.886-1.817-.886s2.698-1.862 4.949-4.137c.516-.526 1.012-1.076 1.449-1.637 2.277-2.923 3.72-7.116 3.72-7.116s1.445 4.127 3.722 7.052c2.347 3.012 6.398 5.772 6.398 5.772s-.673.683-1.817.888c-1.79.318-3.227-.078-3.227-.078s.838 1.678 2.591 3.799c-.07 1.199-.26 3.095-.797 5.213l-.124.458-2.496-3.442-.879 5.153c-.169.995-.547 2.021-.948 3.109-.71 1.922-1.513 4.104-1.482 6.858.029 2.502.999 4.544 2.149 6.101zm-2.098-48.725c-17.166 0-31.083 13.917-31.083 31.083 0 17.166 13.917 31.083 31.083 31.083 17.166 0 31.083-13.917 31.083-31.083 0-17.166-13.917-31.083-31.083-31.083z"/></svg>