<svg width="64" height="64" viewBox="0 0 64 64" xmlns="http://www.w3.org/2000/svg"><title>02015wildfireF</title><path d="M44.171 19.296s-5.897-4.018-9.314-8.407c-3.319-4.258-5.419-10.265-5.419-10.265s-2.103 6.103-5.419 10.361c-.635.814-1.358 1.616-2.11 2.384-3.278 3.312-7.207 6.023-7.207 6.023s.761 1.081 2.645 1.289c2.825.315 4.606-.208 4.606-.208s-1.728 3.504-5.442 7.431c-4.039 4.274-8.807 7.424-8.807 7.424s1.643 1.25 3.966 1.376c3.211.174 6.096.309 6.096.309s-.631 3.362-5.193 8.16c-4.878 5.127-10.571 7.726-10.571 7.726s5.648 2.955 11.579 4.002c5.086.896 11.264.754 11.264.754v5.029h9.09v-2.535c-1.673-2.267-3.086-5.239-3.127-8.882-.046-4.011 1.125-7.186 2.158-9.986.583-1.584 1.134-3.077 1.381-4.526l1.28-7.504 3.634 5.01.181-.667c.779-3.083 1.058-5.842 1.159-7.591-2.551-3.086-3.774-5.529-3.774-5.529s1.429.327 3.746.19c2.654-.219 3.6-1.367 3.6-1.367zm9.019 13.623s.462 1.872.395 3.234c-.066 1.362-.658 3.063-.658 3.063s-1.115-6.041-3.282-9.189c-2.165-3.15-5.054-5.703-5.054-5.703s.13 4.681-1.312 10.382c-1.447 5.701-3.808 7.829-3.808 7.829-.199-3.488-1.445-5.616-1.445-5.616.197 4.341-3.349 9.019-3.285 14.635.087 7.246 7.223 11.401 7.223 11.401l.121.059c-1.191-1.413-3.074-3.55-2.837-5.973.478-4.878 4.466-5.662 5.017-13.056 0 0 1.486 6.126 1.486 7.934 0 0 1.392-2.912 1.886-6.729.494-3.815.16-7.029.16-7.029s7.433 6.427 7.433 14.761c0 5.086-2.377 8.72-4.217 10.633l.011-.005c1.575-1.106 4.791-3.403 6.695-7.488 1.904-4.085 2.034-9.701.263-14.976l-4.793-8.169zm-6.793 31.051c2.4-.29 4.496-1.735 5.586-4.985 1.365-4.064-1.92-10.466-1.92-10.466s.83 5.079-1.074 7.152c-2.222 2.421-2.507 4.738-2.507 4.738s-.277-1.451-.649-2.935c-.373-1.481-1.547-3.193-1.547-3.193s-1.513 2.226-1.845 5.122c-.071.626.011 1.73.192 2.389.496 1.815 2.37 2.347 3.765 2.178z"/></svg>