<svg width="64" height="64" viewBox="0 0 64 64" xmlns="http://www.w3.org/2000/svg"><title>02001windstormF</title><path d="M30.175 10.614c0-.899.725-1.629 1.618-1.629.888 0 1.608.725 1.614 1.618l.002.01c0 .695-.435 1.276-1.041 1.511-.181.068-.371.115-.575.115v.002c-.892 0-1.618-.728-1.618-1.627zm-7.435 53.386h10.292v-2.794h-10.292v2.794zm22.372-53.841h.002c.427 0 .862-.054 1.305-.159 1.823-.437 3.163-1.631 3.655-2.124l5.099-5.095c.416-.419.416-1.095 0-1.513-.416-.416-1.093-.416-1.513 0l-5.097 5.097c-.759.759-1.746 1.34-2.641 1.557-1.138.268-2.103-.014-2.961-.872-1.113-1.113-1.023-2.732-.355-3.752.689-1.054 1.841-1.429 3.004-.971.449.177.81.462 1.072.845.332.487.998.612 1.484.282.489-.332.614-.998.282-1.487-.501-.734-1.21-1.297-2.058-1.631-2.097-.823-4.34-.101-5.575 1.792-1.14 1.744-1.287 4.513.633 6.433 1.056 1.058 2.305 1.598 3.664 1.598zm-9.618-4.901c.895 0 1.618-.73 1.618-1.629s-.724-1.629-1.618-1.629c-.891 0-1.616.73-1.616 1.629s.726 1.629 1.616 1.629zm3.836 16.078l-.001.001c2.047 0 4.09-1.074 5.583-2.565l16.679-16.679c.416-.419.416-1.095 0-1.513-.421-.416-1.095-.416-1.513 0l-16.677 16.679c-.383.381-3.806 3.643-6.63.814-1.317-1.315-1.206-3.231-.416-4.443.812-1.245 2.173-1.689 3.554-1.146.864.336 1.293.957 1.499 1.418.241.536.872.775 1.414.534.538-.241.777-.876.534-1.412-.524-1.165-1.472-2.064-2.67-2.532-2.344-.915-4.748-.142-6.123 1.973-1.26 1.932-1.425 5 .695 7.119 1.241 1.239 2.658 1.752 4.072 1.752zm21.179-7.638c-.895 0-1.618.726-1.618 1.629 0 .128.045.239.072.359.138.596.581 1.047 1.171 1.194.124.029.241.076.375.076.891 0 1.616-.732 1.616-1.629 0-.903-.726-1.629-1.616-1.629zm-2.309 13.583c-.233-.095-.489-.153-.755-.153-.773 0-1.425.454-1.759 1.099-.146.28-.247.583-.247.922 0 1.115.899 2.02 2.006 2.02 1.105 0 2.006-.905 2.006-2.02 0-.845-.52-1.567-1.251-1.868zm4.674-22.231l-.002.001c-.419-.416-1.093-.416-1.511 0l-10.168 10.168c-.524.524-1.79 1.946-2.256 3.878-.474 1.969.047 3.783 1.511 5.247 1.089 1.089 2.439 1.544 3.742 1.544 1.107 0 2.177-.33 3.022-.878.313-.202.602-.435.854-.691 1.371-1.369 1.757-3.295 1.029-5.152-.734-1.882-2.307-2.554-2.95-2.757-.565-.175-1.163.136-1.338.699-.177.565.136 1.163.699 1.34.348.109 1.2.474 1.598 1.497.414 1.056.214 2.099-.55 2.864-.146.148-.318.285-.503.408-1.117.726-2.88.823-4.09-.386-.934-.936-1.243-1.994-.944-3.235.235-.973.866-2.045 1.689-2.866l10.168-10.17c.416-.419.416-1.095 0-1.511zm-7.39 30.153c.053.173-.017.303-.062.365-.045.064-.151.169-.332.169h-54.678c-.179 0-.262-.049-.342-.144-.078-.092-.088-.226-.041-.379l7.173-16.152c.185-.321.538-.511.771-.511h10.787l-1.602 1.544c-.509.491-.802 1.182-.802 1.889v9.156c0 .597.484 1.082 1.082 1.082.597 0 1.082-.484 1.082-1.082v-9.156c0-.124.051-.243.14-.33l8.814-8.505c.181-.171.46-.173.639 0l3.309 3.192c.087 1.786.767 3.608 2.258 5.099 1.061 1.062 2.214 1.701 3.389 2.068v7.696c0 .597.484 1.082 1.08 1.082.6 0 1.082-.484 1.082-1.082v-7.329l.07.006c2.666 0 5.282-1.354 7.185-3.255l.064-.064c-.056 2.093.732 4.052 2.317 5.637 1.035 1.035 2.239 1.635 3.47 1.94l.002-.002 3.146 7.066zm-23.693-13.514h-7.818v7.82h7.818v-7.82zm15.312 4.506c0-1.189-.959-2.154-2.138-2.154-1.183 0-2.144.964-2.144 2.154s.961 2.157 2.144 2.157c1.179 0 2.138-.967 2.138-2.157zm2.13 11.708v18.972h-17.433v2.531h-7.835v-2.532h7.834v-15.015h-7.835v15.016h-17.613v-18.972h42.881zm-29.432 3.956h-7.818v7.818h7.818v-7.818zm23.984 0h-7.818v7.818h7.818v-7.818z"/></svg>