<svg xmlns="http://www.w3.org/2000/svg" viewBox="0 0 64 64" enable-background="new 0 0 64 64"><style type="text/css">.st0{fill:#1A1918;}</style><path class="st0" d="M16.4 59.9c1.2.7 2.5 1.3 3.9 1.8v-9.6h-3.9v7.8zm-12.6-12.7c2.5 4.6 6.1 8.6 10.5 11.5v-8.6h8.1v12.5c3 .9 6.2 1.5 9.6 1.5 1.5 0 3.1-.1 4.5-.4v-16.5h-32.7zm28.7 10.4h-6.9v-6.9h6.9v6.9zm-.5-57.6c-16.2 0-29.6 12.1-31.7 27.8h11.9l4.4-4.3c1-.9 2.4-.9 3.4 0l2.3 2.2c-.1 1.3.2 2.6.9 3.8l-4.7-4.5c-.1-.1-.3-.1-.4 0l-7.9 7.6c-.1.1-.1.1-.1.2v8.2c0 .6-.5 1.1-1.1 1.1-.6 0-1.1-.5-1.1-1.1v-8.2c0-.7.3-1.3.7-1.8l1.3-1.2h-9.8l-.1.7c.1.6 0 1 0 1.5 0 4.7 1 9.1 2.8 13.1h40.1c.1 0 .2-.1.2-.1 0-.1.1-.1 0-.2l-3.8-8.5c.9.6 1.8.9 2.7 1l3 6.8c.3.9.1 1.6-.3 2.2-.5.6-1.2 1-1.9 1h-4.2v16.1c14.5-3.2 25.4-16 25.4-31.4 0-17.7-14.3-32-32-32zm-10.3 39.6h-6.9v-6.9h6.9v6.9zm8.7-26.8c1.2-1.8 3.3-2.5 5.3-1.7.8.3 1.5.8 1.9 1.5.3.5.2 1.1-.3 1.5-.5.3-1.1.2-1.5-.3-.2-.3-.6-.6-1-.8-1-.4-2.1-.1-2.7.9-.6.9-.7 2.4.3 3.4 2.2 2.2 4.8-.3 5.1-.6l4.7-4.7c.4-.4 1.1-.4 1.5 0 .4.4.4 1.1 0 1.5l-4.7 4.7c-1.2 1.2-2.9 2.1-4.6 2.1-1.2 0-2.4-.4-3.5-1.5-1.7-1.7-1.5-4.4-.5-6zm-4.8.4c.8 0 1.5.7 1.5 1.5s-.7 1.5-1.5 1.5-1.5-.7-1.5-1.5.6-1.5 1.5-1.5zm-3.5 9.5c-.8 0-1.5-.7-1.5-1.5s.7-1.5 1.5-1.5 1.5.7 1.5 1.5c0 .9-.7 1.5-1.5 1.5zm6.5 18.4c0 .6-.5 1.1-1.1 1.1-.6 0-1.1-.5-1.1-1.1v-8.6c.7.3 1.4.5 2.1.5v8.1zm.5-10.4c-1.4 0-2.7-.6-3.8-1.7-2-2-1.8-4.9-.7-6.7 1.3-2 3.6-2.7 5.8-1.9 1.1.4 2 1.3 2.5 2.4.2.5 0 1.2-.5 1.4-.5.2-1.2 0-1.4-.5-.2-.4-.6-1-1.4-1.3-1.2-.5-2.5-.1-3.2 1-.7 1.1-.8 2.8.4 4 .9.9 2 1.2 3.2.9 1-.2 2-.9 2.8-1.7l15.5-15.5c.4-.4 1.1-.4 1.5 0 .4.4.4 1.1 0 1.5l-15.5 15.7c-.5.5-1.9 1.8-3.8 2.2-.5.2-.9.2-1.4.2zm5.8 7.2c-1.4 0-2.5-1.1-2.5-2.5s1.1-2.5 2.5-2.5 2.5 1.1 2.5 2.5-1.1 2.5-2.5 2.5zm11 2.4c-1 0-1.9-.8-1.9-1.9 0-1 .8-1.9 1.9-1.9 1 0 1.9.8 1.9 1.9 0 1.1-.9 1.9-1.9 1.9zm2.9-13.2c-.8 0-1.5-.7-1.5-1.5s.7-1.5 1.5-1.5 1.5.7 1.5 1.5-.7 1.5-1.5 1.5zm2.2-10.1l-9.4 9.4c-.8.8-1.3 1.7-1.5 2.6-.3 1.1 0 2.1.9 2.9 1.1 1.1 2.7 1 3.7.3.2-.1.3-.2.5-.4.7-.7.9-1.6.5-2.6-.4-.9-1.1-1.2-1.4-1.3-.6-.2-.9-.8-.7-1.3.2-.6.8-.9 1.3-.7.6.2 2.1.8 2.8 2.6.7 1.7.3 3.6-1 4.9-.2.2-.5.5-.8.7-.8.5-1.8.8-2.8.8-1.2 0-2.5-.4-3.5-1.5-1.4-1.4-1.9-3.1-1.4-4.9.4-1.8 1.6-3.1 2.1-3.6l9.4-9.4c.4-.4 1.1-.4 1.5 0 .2.4.2 1.1-.2 1.5z"/></svg>