<svg width="64" height="64" viewBox="0 0 64 64" xmlns="http://www.w3.org/2000/svg"><title>02001windstormL</title><path d="M36.341 5.251c.894 0 1.617-.727 1.617-1.625 0-.9-.723-1.627-1.617-1.627-.89 0-1.615.727-1.615 1.627 0 .898.725 1.625 1.615 1.625zm-2.082 5.35l-.002-.012c-.006-.892-.725-1.615-1.612-1.615-.892 0-1.617.729-1.617 1.627s.725 1.625 1.617 1.625c.204 0 .393-.047.575-.117.605-.233 1.04-.815 1.04-1.507zm11.489 8.149l16.658-16.66c.418-.416.418-1.091 0-1.509-.416-.418-1.091-.418-1.507 0l-16.66 16.66c-.383.381-3.797 3.637-6.623.813-1.314-1.314-1.205-3.227-.416-4.438.811-1.244 2.173-1.685 3.55-1.147.863.338 1.289.958 1.497 1.417.243.537.873.778 1.413.535.537-.243.776-.873.533-1.413-.523-1.161-1.468-2.059-2.667-2.529-2.339-.914-4.741-.138-6.116 1.971-1.258 1.932-1.423 4.996.696 7.113 1.238 1.238 2.652 1.748 4.065 1.748 2.045 0 4.086-1.071 5.577-2.562zm2.729 37.309h-15.181v-14.327h-8.585v14.327h-15.354v-17.576h39.121v17.576zm-21.633 0h4.316v-12.191h-4.316v12.191zm-1.359-25.768h7.341v-7.341h-7.341v7.341zm11.386 19.405h7.341v-7.339h-7.341v7.339zm-23.075 0h7.339v-7.339h-7.339v7.339zm25.239-16.676c.591 0 1.069-.478 1.069-1.067v-8.099c-.713-.002-1.429-.103-2.136-.315v8.414c0 .589.478 1.067 1.067 1.067zm-15.692 30.845h11.442v-2.146h-11.442v2.146zm20.422-37.98c0 1.487 1.199 2.692 2.675 2.692 1.474 0 2.671-1.205 2.671-2.692 0-.142-.021-.28-.041-.416-.111-.719-.502-1.341-1.063-1.752-.441-.323-.978-.521-1.567-.521-1.477 0-2.675 1.205-2.675 2.689zm12.743 2.315c-.144.278-.245.581-.245.916 0 1.114.898 2.018 2.004 2.018 1.104 0 2.006-.904 2.006-2.018 0-.844-.519-1.563-1.252-1.864-.233-.097-.486-.154-.754-.154-.772 0-1.423.455-1.759 1.102zm4.444-11.339c.124.031.243.076.375.076.89 0 1.615-.731 1.615-1.625 0-.902-.725-1.629-1.615-1.629-.894 0-1.617.727-1.617 1.629 0 .126.045.239.072.358.138.593.581 1.046 1.17 1.19zm-15.002-6.711c.426 0 .861-.054 1.304-.161 1.82-.437 3.159-1.627 3.651-2.119l5.091-5.091c.418-.416.418-1.091.002-1.509-.418-.416-1.094-.418-1.512 0l-5.091 5.091c-.758.758-1.744 1.339-2.638 1.553-1.131.27-2.101-.01-2.957-.869-1.112-1.114-1.021-2.729-.354-3.75.688-1.052 1.839-1.423 3-.97.447.177.807.461 1.071.846.334.486.997.612 1.485.28.486-.332.612-.995.28-1.483-.502-.735-1.211-1.299-2.055-1.631-2.098-.822-4.335-.099-5.57 1.792-1.135 1.74-1.283 4.508.634 6.425 1.056 1.054 2.302 1.596 3.659 1.596zm9.681 6.942c-.177.562.136 1.161.698 1.339.348.111 1.199.474 1.596 1.495.414 1.056.214 2.098-.548 2.86-.148.15-.319.286-.507.408-1.114.725-2.877.824-4.084-.385-2.601-2.601.393-5.743.743-6.094l10.157-10.159c.418-.416.418-1.091 0-1.507-.416-.42-1.091-.42-1.509 0l-10.157 10.157c-2.374 2.372-3.62 6.238-.743 9.113 1.087 1.089 2.438 1.542 3.738 1.542 1.106 0 2.177-.329 3.019-.877.313-.202.601-.435.853-.688 1.369-1.367 1.755-3.293 1.028-5.146-.733-1.88-2.302-2.554-2.943-2.755-.566-.179-1.164.136-1.341.698zm-.099 18.777c.049.154-.014.274-.056.332-.041.056-.136.15-.299.15h-52.608c-.161 0-.255-.095-.299-.15-.039-.058-.109-.198-.029-.4l6.882-15.457c.173-.299.502-.478.719-.478h10.468l-1.495 1.442c-.496.482-.783 1.153-.778 1.837v8.81c0 .589.478 1.067 1.067 1.067.591 0 1.069-.478 1.069-1.067v-8.814c0-.109.045-.218.126-.297l3.087-2.978h.072v-.07l5.321-5.134c.163-.157.418-.157.581 0l3.089 2.98c-.224-1.017-.22-2.045-.062-3.027l-1.544-1.491c-.995-.956-2.552-.958-3.544.002l-4.774 4.607h-12.681c-1.019 0-2.026.605-2.619 1.645l-7.047 15.859c-.323.75-.189 1.631.288 2.278.478.649 1.301.97 2.105.97h4.65v19.71h17.449v2.339h8.678v-2.339h17.265v-19.71h4.566c.805 0 1.54-.371 2.018-1.017.476-.649.614-1.46.332-2.348l-3.027-6.804c-.888-.056-1.771-.266-2.624-.657l3.655 8.211z"/></svg>