<svg width="64" height="64" viewBox="0 0 64 64" xmlns="http://www.w3.org/2000/svg"><title>02044winddamageC</title><path d="M49.489 15.518c.414-.414 1.086-.414 1.502 0 .414.414.414 1.088 0 1.502l-9.434 9.431c-.753.753-1.331 1.734-1.547 2.626-.271 1.126.009 2.084.858 2.933 1.097 1.097 2.692 1.007 3.703.348.173-.109.324-.233.454-.365.691-.691.87-1.632.497-2.583-.358-.919-1.124-1.248-1.438-1.348-.559-.175-.87-.772-.693-1.331.177-.559.774-.866 1.331-.693.606.192 2.089.826 2.78 2.598.685 1.749.322 3.563-.971 4.855-.237.241-.51.461-.809.651-.789.514-1.796.823-2.835.823-1.227 0-2.498-.427-3.522-1.453-1.376-1.376-1.867-3.081-1.421-4.932.437-1.811 1.623-3.142 2.11-3.631l9.434-9.431zm-20.395 15.241c-1.419 0-2.718-.561-3.817-1.662-1.995-1.993-1.839-4.873-.657-6.69 1.295-1.988 3.558-2.716 5.764-1.86 1.131.444 2.025 1.291 2.517 2.389.241.535.004 1.163-.531 1.404-.538.241-1.165 0-1.404-.533-.188-.414-.574-.975-1.355-1.28-1.248-.486-2.477-.085-3.211 1.039-.717 1.101-.817 2.837.378 4.032.924.926 1.973 1.231 3.2.928.966-.235 2.031-.866 2.85-1.681l15.469-15.471c.414-.414 1.088-.414 1.502 0 .414.416.414 1.088 0 1.502l-15.469 15.471c-.521.518-1.933 1.775-3.846 2.244-.474.113-.939.169-1.391.169zm-.484 10.308c0 .587-.474 1.062-1.062 1.062-.587 0-1.06-.476-1.06-1.062v-8.181l.002-.439c.674.292 1.385.469 2.121.523v8.098zm1.813-28.25c1.163-1.783 3.279-2.468 5.257-1.69.8.318 1.47.851 1.941 1.542.331.486.205 1.146-.282 1.474-.484.329-1.146.205-1.474-.279-.235-.346-.559-.602-.962-.762-1.043-.405-2.082-.075-2.701.875-.604.922-.687 2.385.32 3.392 2.167 2.165 4.804-.341 5.097-.634l4.727-4.727c.414-.414 1.086-.414 1.502 0 .414.416.414 1.088 0 1.502l-4.727 4.727c-1.237 1.235-2.935 2.123-4.646 2.123-1.195 0-2.398-.433-3.454-1.489-1.809-1.805-1.668-4.412-.597-6.054zm-15.661 26.752h6.91v-6.908h-6.91v6.908zm1.662 12.634v7.744c1.239.691 2.534 1.291 3.868 1.815v-9.559h-3.868zm9.193 5.385h6.91v-6.906h-6.91v6.906zm-11.315 1.069v-8.578h8.113v12.461c3.023.947 6.24 1.461 9.577 1.461 1.545 0 3.055-.147 4.542-.358v-16.439h-32.7c2.5 4.623 6.11 8.555 10.468 11.454zm-14.231-28.049c-.019.469-.07.928-.07 1.402 0 4.661 1.02 9.075 2.812 13.069h40.092c.115 0 .183-.06.22-.111.038-.051.077-.134.043-.245l-3.802-8.529c.864.563 1.805.851 2.746.96l3.04 6.827c.271.851.139 1.628-.318 2.249-.457.621-1.158.977-1.931.977h-4.245v16.092c14.466-3.072 25.327-15.906 25.327-31.287 0-17.668-14.325-31.991-31.991-31.991-16.235 0-29.611 12.105-31.68 27.772h11.876l4.412-4.256c.951-.922 2.441-.922 3.39 0l2.306 2.225c-.079 1.286.194 2.624.919 3.838l-4.7-4.535c-.124-.115-.316-.115-.442 0l-7.874 7.597c-.062.06-.098.145-.098.233v8.177c0 .587-.476 1.06-1.062 1.06-.587 0-1.062-.474-1.062-1.06v-8.183c.004-.663.277-1.299.747-1.754l1.263-1.218h-9.837l-.079.695z"/></svg>