<svg width="64" height="64" viewBox="0 0 64 64" xmlns="http://www.w3.org/2000/svg"><title>02044winddamageL</title><path d="M48.477 56.057h-15.181v-14.327h-8.587v14.327h-15.355v-17.577h39.123v17.577zm-21.633 0h4.317v-12.192h-4.317v12.192zm-1.359-25.768h7.341v-7.341h-7.341v7.341zm11.385 19.403h7.341v-7.339h-7.341v7.339zm-23.075 0h7.339v-7.339h-7.339v7.339zm25.241-16.673c.59 0 1.067-.478 1.067-1.067v-8.098c-.714-.004-1.427-.103-2.135-.316v8.415c0 .587.478 1.067 1.067 1.067zm-15.694 30.842h11.441v-2.145h-11.441v2.145zm22.405-45.111l16.658-16.662c.42-.416.42-1.092 0-1.508-.416-.418-1.092-.418-1.508 0l-16.66 16.66c-.381.381-3.794 3.637-6.621.813-1.314-1.316-1.204-3.229-.416-4.439.811-1.243 2.172-1.684 3.55-1.146.863.337 1.291.958 1.5 1.417.242.538.871.778 1.411.536.538-.242.778-.875.536-1.413-.523-1.163-1.471-2.06-2.668-2.53-2.34-.914-4.741-.139-6.117 1.971-1.258 1.93-1.421 4.993.697 7.11 1.237 1.239 2.652 1.75 4.065 1.75 2.046.002 4.085-1.069 5.575-2.559zm.203-8.605c.426 0 .861-.054 1.303-.159 1.82-.436 3.159-1.628 3.651-2.118l5.091-5.091c.418-.418.418-1.092.002-1.51-.418-.416-1.092-.418-1.51 0l-5.093 5.091c-.755.757-1.744 1.338-2.637 1.553-1.132.271-2.1-.01-2.956-.871-1.113-1.111-1.022-2.728-.356-3.748.689-1.053 1.841-1.423 3.004-.968.447.176.807.459 1.069.844.333.486.997.612 1.483.281.486-.333.612-.995.281-1.483-.501-.734-1.21-1.299-2.054-1.63-2.098-.823-4.336-.101-5.571 1.789-1.136 1.742-1.283 4.509.633 6.425 1.055 1.055 2.304 1.595 3.659 1.595zm9.681 6.944c-.176.563.137 1.163.697 1.338.35.11 1.2.474 1.597 1.496.414 1.057.215 2.098-.548 2.859-.149.149-.319.285-.507.408-1.113.726-2.875.823-4.083-.385-2.6-2.6.393-5.744.743-6.094l10.159-10.157c.418-.418.418-1.094 0-1.51-.418-.418-1.094-.418-1.51 0l-10.157 10.159c-2.375 2.373-3.62 6.237-.743 9.112 1.088 1.088 2.437 1.543 3.738 1.543 1.105 0 2.176-.329 3.018-.877.312-.203.6-.436.852-.689 1.369-1.369 1.754-3.295 1.028-5.147-.732-1.88-2.302-2.555-2.944-2.755-.567-.178-1.163.137-1.34.699zm-.097 18.776c.048.155-.017.273-.058.331-.041.056-.134.149-.298.149h-52.605c-.161 0-.257-.095-.298-.149-.041-.058-.112-.199-.031-.399l6.884-15.456c.172-.3.501-.478.718-.478h10.467l-1.493 1.442c-.499.482-.782 1.152-.78 1.837v8.81c0 .59.478 1.067 1.067 1.067.59 0 1.067-.478 1.067-1.067v-8.814c0-.11.048-.217.126-.296l3.088-2.977h.072v-.07l5.32-5.134c.163-.157.418-.157.581-.002l3.088 2.979c-.225-1.016-.221-2.042-.062-3.026l-1.543-1.489c-.995-.958-2.553-.958-3.546 0l-4.774 4.607h-12.68c-1.018 0-2.027.606-2.619 1.647l-7.048 15.858c-.325.751-.19 1.63.288 2.277.478.647 1.301.97 2.106.97h4.648v19.709h17.448v2.34h8.68v-2.34h17.264v-19.709h4.567c.803 0 1.539-.37 2.017-1.018.476-.647.614-1.46.331-2.348l-3.028-6.801c-.885-.056-1.771-.267-2.623-.658l3.657 8.21z"/></svg>