<svg width="64" height="64" viewBox="0 0 64 64" xmlns="http://www.w3.org/2000/svg"><title>02044winddamageF</title><path d="M12.574 48.168h7.55v-7.55h-7.55v7.55zm23.162 0h7.55v-7.55h-7.55v7.55zm-12.774 13.832h9.938v-2.698h-9.938v2.698zm1.194-33.31h7.55v-7.55h-7.55v7.55zm21.8-8.64l-.062.062c-1.838 1.836-4.364 3.144-6.938 3.144l-.066-.006v7.078c0 .576-.468 1.044-1.046 1.044-.576 0-1.044-.468-1.044-1.044v-7.434c-1.134-.354-2.248-.97-3.274-1.996-1.44-1.44-2.096-3.2-2.18-4.924l-3.196-3.082c-.172-.168-.442-.164-.618 0l-8.51 8.212c-.088.084-.138.202-.138.322v8.842c0 .576-.466 1.044-1.044 1.044-.578 0-1.046-.468-1.046-1.044v-8.842c0-.686.284-1.35.776-1.826l1.546-1.492h-10.416c-.226 0-.566.184-.746.494l-6.926 15.598c-.048.148-.036.276.04.364.076.094.156.142.332.142h52.802c.176 0 .276-.104.322-.164.044-.06.112-.186.06-.352l-3.04-6.824c-1.188-.294-2.352-.874-3.35-1.874-1.532-1.53-2.292-3.422-2.238-5.442zm-10.904-.942c1.198 1.196 2.566 1.692 3.93 1.692 1.978 0 3.952-1.038 5.392-2.478l16.108-16.108c.402-.404.402-1.058 0-1.46-.404-.402-1.056-.402-1.46 0l-16.106 16.108c-.37.366-3.676 3.518-6.406.786-1.27-1.272-1.164-3.12-.4-4.292.782-1.204 2.098-1.63 3.432-1.108.834.324 1.246.924 1.446 1.37.234.518.844.75 1.366.518.52-.236.752-.846.518-1.366-.506-1.124-1.422-1.992-2.58-2.446-2.262-.882-4.584-.136-5.914 1.906-1.212 1.868-1.374 4.83.674 6.878zm9.518-9.104c.412 0 .832-.052 1.262-.154 1.758-.422 3.054-1.574 3.528-2.05l4.924-4.92c.404-.404.404-1.058 0-1.46-.402-.404-1.056-.404-1.46 0l-4.922 4.922c-.732.732-1.686 1.294-2.552 1.502-1.098.26-2.03-.014-2.858-.842-1.076-1.076-.988-2.638-.342-3.624.664-1.018 1.778-1.382 2.9-.938.434.17.782.446 1.036.818.32.468.964.59 1.434.272.47-.322.592-.964.272-1.436-.484-.708-1.17-1.254-1.986-1.576-2.028-.792-4.192-.096-5.386 1.732-1.1 1.684-1.242 4.358.612 6.212 1.02 1.02 2.226 1.542 3.538 1.542zm9.36 6.714c-.172.544.132 1.122.676 1.294.336.104 1.158.456 1.544 1.444.398 1.02.206 2.026-.532 2.766-.142.144-.308.276-.488.394-1.076.7-2.78.794-3.95-.372-.902-.904-1.2-1.926-.91-3.124.226-.94.836-1.974 1.63-2.768l9.82-9.82c.404-.404.404-1.058 0-1.46-.404-.404-1.056-.404-1.46 0l-9.818 9.82c-.506.504-1.726 1.878-2.178 3.744-.458 1.902.046 3.656 1.46 5.068 1.05 1.052 2.356 1.492 3.612 1.492 1.07 0 2.106-.318 2.918-.848.304-.196.582-.42.826-.666 1.326-1.322 1.696-3.184.994-4.976-.71-1.818-2.228-2.468-2.848-2.662-.55-.17-1.128.13-1.296.674zm-29.784 40.846h7.566v-2.446h-7.566v2.446zm0-2.446v-14.5h7.566v14.5h16.836v-18.322h-41.412v18.322h17.01z"/></svg>