<svg width="64" height="64" viewBox="0 0 64 64" xmlns="http://www.w3.org/2000/svg"><title>02012winterstormC</title><path d="M57.195 33.491h-3.396l2.403 2.401c.403.403.403 1.057 0 1.46-.202.202-.467.301-.731.301-.264 0-.529-.099-.729-.301l-2.401-2.401v3.396c0 .572-.462 1.032-1.032 1.032-.572 0-1.032-.46-1.032-1.032v-3.398l-2.374 2.372c-.202.202-.465.303-.731.303-.262 0-.526-.101-.729-.303-.403-.403-.403-1.055 0-1.46l2.372-2.37h-3.355c-.57 0-1.032-.462-1.032-1.032 0-.572.462-1.032 1.032-1.032h3.355l-2.37-2.372c-.405-.403-.405-1.055 0-1.46.403-.403 1.055-.403 1.46 0l2.372 2.372v-3.353c0-.572.46-1.032 1.032-1.032.57 0 1.032.46 1.032 1.032v3.351l2.399-2.399c.403-.405 1.055-.405 1.46 0 .403.403.403 1.055 0 1.46l-2.401 2.401h3.396c.57 0 1.032.46 1.032 1.032 0 .57-.462 1.032-1.032 1.032zm-13.746 10.814c-.291.295-.632.57-1.01.818-1.001.65-2.275 1.043-3.586 1.043-1.544 0-3.144-.541-4.435-1.829-1.738-1.738-2.358-3.892-1.794-6.229.559-2.323 2.085-4.038 2.717-4.668l12.604-12.604c.405-.403 1.057-.403 1.462 0 .403.403.403 1.057 0 1.46l-12.606 12.604c-1.055 1.055-1.866 2.434-2.17 3.693-.392 1.623.027 3.064 1.247 4.284 1.61 1.608 3.954 1.476 5.436.516.252-.165.479-.349.671-.543 1.036-1.034 1.309-2.442.751-3.867-.541-1.383-1.695-1.877-2.166-2.023-.545-.171-.846-.751-.677-1.294.171-.545.743-.851 1.294-.679.756.239 2.605 1.028 3.47 3.247.857 2.188.405 4.461-1.21 6.072zm-15.579 4.474c-1.831 0-3.32-1.497-3.32-3.342 0-1.839 1.489-3.336 3.32-3.336 1.831 0 3.316 1.497 3.316 3.336 0 1.846-1.484 3.342-3.316 3.342zm-12.573-3.107c-1.606 0-3.274-.578-4.817-2.122-2.519-2.521-2.321-6.163-.826-8.46 1.625-2.496 4.463-3.413 7.238-2.333 1.414.553 2.533 1.614 3.15 2.987.235.52.002 1.131-.518 1.365-.52.235-1.129.002-1.365-.518-.279-.621-.855-1.455-2.019-1.91-1.848-.725-3.671-.132-4.757 1.536-1.043 1.602-1.187 4.131.555 5.874 3.7 3.698 8.136-.514 8.632-1.007l25.955-25.959c.403-.403 1.057-.403 1.46 0 .403.405.403 1.057 0 1.46l-25.955 25.959c-1.468 1.466-4.013 3.13-6.734 3.13zm2.826 5.948c-1.105 0-2.003-.902-2.003-2.017 0-1.115.898-2.019 2.003-2.019 1.111 0 2.007.904 2.007 2.019 0 1.115-.896 2.017-2.007 2.017zm-10.418-23.011c-.403-.405-.403-1.057 0-1.462l2.372-2.37h-3.353c-.57 0-1.032-.462-1.032-1.032 0-.57.462-1.032 1.032-1.032h3.355l-2.372-2.372c-.403-.405-.403-1.057 0-1.46.405-.405 1.057-.405 1.46 0l2.372 2.37v-3.351c0-.57.46-1.032 1.032-1.032.57 0 1.032.462 1.032 1.032v3.351l2.399-2.399c.405-.403 1.057-.403 1.46 0 .405.403.405 1.057 0 1.46l-2.401 2.401h3.396c.572 0 1.032.462 1.032 1.032 0 .57-.46 1.032-1.032 1.032h-3.394l2.401 2.401c.403.403.403 1.057 0 1.46-.202.202-.467.303-.731.303-.264 0-.526-.101-.729-.303l-2.401-2.401v3.396c0 .57-.462 1.032-1.032 1.032-.572 0-1.032-.462-1.032-1.032v-3.398l-2.374 2.374c-.2.2-.465.301-.729.301-.264 0-.529-.101-.731-.301zm18.025 2.318c0 1.115-.896 2.017-2.005 2.017-1.105 0-2.003-.902-2.003-2.017 0-1.113.898-2.019 2.003-2.019 1.109 0 2.005.906 2.005 2.019zm-3.212-13.762c1.476-2.261 4.051-3.093 6.561-2.11.991.392 1.827 1.053 2.413 1.918.322.471.2 1.113-.273 1.433-.471.318-1.113.202-1.433-.273-.359-.526-.851-.915-1.462-1.156-1.577-.611-3.142-.114-4.079 1.315-.89 1.367-1.012 3.528.479 5.021 3.163 3.161 6.941-.427 7.358-.849l6.317-6.317c.405-.403 1.057-.403 1.462 0 .403.405.403 1.057 0 1.46l-6.317 6.317c-1.294 1.294-3.541 2.758-5.952 2.758-1.439 0-2.936-.52-4.327-1.91-2.269-2.267-2.093-5.543-.747-7.608zm8.564-15.331c-17.166 0-31.083 13.917-31.083 31.083 0 17.166 13.917 31.083 31.083 31.083 17.166 0 31.083-13.917 31.083-31.083 0-17.166-13.917-31.083-31.083-31.083z"/></svg>