<svg width="64" height="64" viewBox="0 0 64 64" xmlns="http://www.w3.org/2000/svg"><title>02012winterstormF</title><path d="M26.59 43.614c-2.192 0-3.972 1.79-3.972 3.992 0 2.208 1.78 3.996 3.972 3.996 2.188 0 3.964-1.788 3.964-3.996 0-2.202-1.776-3.992-3.964-3.992zm-11.656 6.56c-1.322 0-2.398 1.078-2.398 2.414 0 1.332 1.076 2.412 2.398 2.412 1.326 0 2.398-1.08 2.398-2.412 0-1.336-1.072-2.414-2.398-2.414zm4.304-19.922c0 1.332 1.074 2.412 2.396 2.412 1.326 0 2.398-1.08 2.398-2.412 0-1.33-1.072-2.414-2.398-2.414-1.322 0-2.396 1.084-2.396 2.414zm23.318 4.738c-.714-.226-1.478.172-1.704.888-.226.714.172 1.478.888 1.702.546.174 1.886.748 2.514 2.352.646 1.656.33 3.29-.87 4.49-.228.23-.492.444-.784.634-1.73 1.122-4.464 1.276-6.344-.602-4.014-4.014.566-8.828 1.102-9.364l15.074-15.074c.532-.532.532-1.39.002-1.922-.532-.532-1.392-.532-1.922 0l-15.076 15.074c-3.444 3.448-5.258 9.05-1.102 13.208 1.568 1.566 3.514 2.222 5.39 2.222 1.594 0 3.138-.474 4.354-1.264.454-.292.868-.628 1.23-.994 1.968-1.964 2.518-4.73 1.476-7.396-1.054-2.698-3.308-3.664-4.228-3.954zm19.104-4.208h-3.902l2.758-2.758c.508-.508.508-1.332 0-1.84s-1.33-.508-1.838 0l-2.758 2.758v-3.85c0-.718-.582-1.3-1.3-1.3-.718 0-1.3.582-1.3 1.3v3.852l-2.726-2.724c-.506-.508-1.33-.508-1.838 0-.506.506-.506 1.332 0 1.838l2.724 2.724h-3.854c-.716 0-1.298.582-1.298 1.3 0 .72.582 1.302 1.298 1.302h3.854l-2.726 2.724c-.506.508-.506 1.332 0 1.84.254.254.586.38.92.38.332 0 .664-.126.918-.38l2.728-2.728v3.906c0 .718.582 1.3 1.3 1.3.718 0 1.3-.582 1.3-1.3v-3.904l2.76 2.76c.254.254.586.382.918.382.334 0 .666-.128.92-.382.508-.506.508-1.332 0-1.838l-2.76-2.76h3.902c.718 0 1.3-.582 1.3-1.302 0-.718-.582-1.3-1.3-1.3zm-54.666-5.984v3.906c0 .718.582 1.3 1.298 1.3.718 0 1.3-.582 1.3-1.3v-3.904l2.76 2.76c.254.254.586.382.92.382.332 0 .664-.128.918-.382.508-.506.508-1.332 0-1.838l-2.76-2.76h3.904c.718 0 1.3-.582 1.3-1.302 0-.718-.582-1.3-1.3-1.3h-3.902l2.758-2.758c.508-.508.508-1.332 0-1.84s-1.33-.508-1.838 0l-2.76 2.76v-3.852c0-.718-.582-1.3-1.3-1.3-.716 0-1.298.582-1.298 1.3v3.854l-2.726-2.726c-.508-.508-1.33-.508-1.838 0s-.508 1.332 0 1.84l2.722 2.722h-3.852c-.718 0-1.3.582-1.3 1.3 0 .72.582 1.302 1.3 1.302h3.854l-2.726 2.724c-.508.508-.508 1.332 0 1.84.254.254.586.38.92.38.332 0 .664-.126.918-.38l2.728-2.728zm43.742-13.534c-.53-.532-1.39-.532-1.922 0l-31.042 31.044c-.58.58-5.804 5.552-10.148 1.206-2.036-2.036-1.866-4.996-.646-6.868 1.264-1.946 3.39-2.636 5.54-1.79 1.352.528 2.022 1.498 2.348 2.22.306.684 1.112.988 1.796.68.684-.308.988-1.112.68-1.796-.754-1.67-2.116-2.962-3.836-3.636-3.372-1.316-6.826-.2-8.806 2.838-1.816 2.792-2.054 7.216 1.004 10.274 1.874 1.874 3.898 2.578 5.846 2.578 3.292 0 6.368-2.012 8.144-3.784l31.042-31.044c.53-.532.53-1.39 0-1.922zm-24.452 13.992c2.638 0 5.264-1.376 7.178-3.292l7.556-7.556c.532-.53.532-1.39.002-1.922-.532-.53-1.392-.53-1.922 0l-7.556 7.556c-.492.492-4.924 4.714-8.624 1.014-1.738-1.736-1.594-4.254-.556-5.846 1.082-1.656 2.892-2.244 4.724-1.53.71.284 1.28.734 1.694 1.342.422.62 1.268.784 1.886.36.622-.422.782-1.268.36-1.888-.714-1.05-1.73-1.858-2.946-2.342-3.006-1.17-6.22-.142-7.994 2.572-1.636 2.508-1.85 6.494.91 9.254 1.614 1.612 3.454 2.278 5.288 2.278z"/></svg>