<svg width="64" height="64" viewBox="0 0 64 64" xmlns="http://www.w3.org/2000/svg"><title>02010workscompC</title><path d="M54.262 45.469l-.343.103-.093.039-5.157 1.555-4.179-9.647c-.328-.541-.76-.904-1.705-1.038l.673 9.065c1.09.564 1.839 1.703 1.839 3.014 0 1.87-1.522 3.392-3.394 3.392-1.87 0-3.392-1.522-3.392-3.392 0-1.687 1.237-3.086 2.851-3.349l-.652-8.791h-2.882c.178.846.273 1.726.273 2.628 0 7.009-5.679 12.695-12.697 12.701-7.017-.006-12.701-5.692-12.701-12.701 0-5.958 4.094-10.948 9.623-12.323l-.235-3.578c-.582-3.053-1.53-7.973-1.633-8.367v-.004c-.118.367-.438.657-.846.712l-3.526.477c-.721.116-1.346-.434-1.503-1.338-.175-1.018.384-1.602.979-1.714l.052-.008 3.526-.477c2.279-.308 3.064.83 3.32 1.837.105.409.801 4.009 1.266 6.429h16.483c.913 0 1.652.727 1.652 1.639 0 .419-.157.801-.415 1.092.372.502.609 1.107.652 1.757l.549 9.204c1.763.149 2.882.811 3.658 2.139l.056.111 3.305 7.63 3.883-1.171c.654-.198 1.346.173 1.542.83.198.654-.173 1.346-.828 1.542zm-28.854-4.527c-1.069 0-1.937-.867-1.937-1.937 0-1.071.867-1.937 1.937-1.937 1.071 0 1.937.865 1.937 1.937 0 1.069-.865 1.937-1.937 1.937zm-.004-11.621c-5.364.002-9.728 4.366-9.728 9.728 0 5.359 4.366 9.724 9.732 9.728 5.357-.004 9.72-4.369 9.72-9.728 0-5.362-4.362-9.726-9.724-9.728zm6.648-1.096h8.157l-.173-2.913c-.043-.659-.646-1.173-1.315-1.173h-14.497l.149 2.254c.341-.027.685-.045 1.032-.045 2.438 0 4.713.687 6.648 1.877zm-.968-26.391c-17.166 0-31.083 13.917-31.083 31.083 0 17.166 13.917 31.083 31.083 31.083 17.166 0 31.083-13.917 31.083-31.083 0-17.166-13.917-31.083-31.083-31.083z"/></svg>