<svg width="64" height="64" viewBox="0 0 64 64" xmlns="http://www.w3.org/2000/svg"><title>02010workscompL</title><path d="M16.944 18.892h22.432c1.265 0 2.359.949 2.441 2.201l.267 4.437h-12.84c-2.919-1.791-6.343-2.84-10.021-2.842-.682 0-1.355.038-2.017.109l-.261-3.905zm2.283 39.164c-8.906-.009-16.148-7.251-16.148-16.144 0-8.899 7.243-16.142 16.144-16.146 8.899.004 16.14 7.247 16.14 16.146 0 8.893-7.241 16.136-16.136 16.144zm.002-19.143c-1.618.002-2.93 1.312-2.93 2.932 0 1.618 1.312 2.93 2.93 2.932 1.62-.002 2.932-1.314 2.932-2.932 0-1.62-1.312-2.93-2.932-2.932zm44.699 10.167c-.274-.904-1.227-1.415-2.131-1.143l-6.339 1.911-5.001-11.526c-1.143-1.956-2.842-2.879-5.572-3.028l-.857-14.336c-.075-1.16-.609-2.21-1.404-2.992.421-.31.712-.786.712-1.351 0-.945-.767-1.71-1.71-1.71h-25.255c-.692-3.612-1.879-9.735-2.047-10.387-.5-1.96-2.028-2.783-4.522-2.443l-5.394.731c-.688.128-1.331.831-1.116 2.071.192 1.105.915 1.787 1.765 1.648l5.337-.722c.605-.081 1.032-.639.949-1.246-.015-.115-.049-.224-.096-.325.742.092.84.479.93.836.16.616 1.579 7.984 2.477 12.652l.359 5.448c-8.591 1.921-15.012 9.568-15.012 18.745 0 10.607 8.602 19.211 19.222 19.222 10.62-.011 19.217-8.615 19.217-19.222 0-1.53-.197-3.009-.534-4.435h4.905l1.056 14.236c-2.394.171-4.296 2.154-4.296 4.593 0 2.548 2.075 4.621 4.623 4.621 2.552 0 4.625-2.073 4.625-4.621 0-1.864-1.111-3.462-2.701-4.195l-1.084-14.599c2.052.16 2.885.855 3.452 1.81l6.204 14.321 1.579-.474.043-.006 6.474-1.951c.904-.271 1.415-1.227 1.143-2.131z"/></svg>