<svg width="64" height="64" viewBox="0 0 64 64" xmlns="http://www.w3.org/2000/svg"><title>02032worldwideF</title><path d="M31.982 47.66h-.004c-7.806 0-14.158-6.354-14.158-14.16s6.352-14.16 14.158-14.16h.004c7.808.002 14.158 6.356 14.158 14.16 0 7.806-6.35 14.158-14.158 14.16zm12.188-13.198h-4.452c-.06 1.684-.268 3.28-.612 4.742.954.346 1.922.756 2.912 1.278 1.21-1.734 1.978-3.794 2.152-6.02zm-5.598 6.59c-.492 1.448-1.122 2.71-1.862 3.734 1.534-.646 2.908-1.6 4.05-2.78-.74-.374-1.47-.688-2.188-.954zm.528-13.282c.346 1.468.558 3.074.618 4.77h4.452c-.174-2.242-.952-4.312-2.176-6.052-.982.516-1.948.938-2.894 1.282zm-13.718-1.808c.492-1.454 1.126-2.72 1.868-3.748-1.536.646-2.91 1.602-4.054 2.782.446.242 1.198.604 2.186.966zm11.348.526c-1.07-3.134-2.816-5.224-4.748-5.226h-.002c-1.944 0-3.698 2.112-4.766 5.27 2.46.63 5.776.936 9.516-.044zm-11.362 14.508c-1.006.37-1.76.738-2.2.978 1.15 1.194 2.532 2.162 4.082 2.812-.75-1.038-1.388-2.318-1.882-3.79zm13.192-15.09c.712-.262 1.436-.574 2.17-.944-1.136-1.166-2.498-2.108-4.02-2.748.732 1.016 1.358 2.262 1.85 3.692zm-12.402 8.556c.058 1.452.242 2.838.53 4.114 2.738-.708 6.422-1.056 10.572.044.294-1.288.482-2.69.54-4.158h-11.642zm1.04 5.964c1.068 3.182 2.83 5.312 4.782 5.312h.002c1.94 0 3.694-2.11 4.762-5.268-3.754-.988-7.08-.678-9.546-.044zm-7.41-7.886h4.452c.06-1.68.266-3.274.61-4.732-1.434-.514-2.444-1.044-2.898-1.306-1.216 1.738-1.988 3.804-2.164 6.038zm5.05 6.612c-.336-1.448-.538-3.026-.598-4.69h-4.452c.174 2.22.936 4.274 2.14 6.004.434-.252 1.45-.79 2.91-1.314zm12.962-6.612c-.058-1.48-.25-2.892-.546-4.19-1.878.496-3.66.704-5.3.704-1.992 0-3.752-.3-5.252-.688-.296 1.292-.486 2.7-.544 4.174h11.642zm15.862-23.57c-7.798-.178-13.158-2.084-20.708-8.608-.542-.47-1.406-.47-1.948-.002-7.55 6.526-12.912 8.432-20.708 8.61-.716.016-1.298.596-1.298 1.312v24.462c0 11.892 7.958 19.586 21.9 28.956.596.4 1.564.4 2.158 0 13.942-9.37 21.9-17.064 21.9-28.956v-24.462c0-.716-.58-1.296-1.296-1.312z"/></svg>