<svg width="64" height="64" viewBox="0 0 64 64" xmlns="http://www.w3.org/2000/svg"><title>02032worldwideC</title><path d="M48.05 34.779c0 8.681-5.81 14.297-15.986 21.139-.436.291-1.142.291-1.575 0-10.178-6.842-15.988-12.457-15.988-21.139v-17.856c0-.522.425-.946.948-.958 5.692-.13 9.604-1.522 15.116-6.284.394-.343 1.026-.343 1.422 0 5.51 4.763 9.425 6.154 15.116 6.284.522.012.946.436.946.958v17.856zm-7.864-1.65h-3.252c-.043-1.239-.198-2.411-.452-3.485.694-.25 1.398-.559 2.116-.937.892 1.272 1.46 2.785 1.588 4.422zm-1.571 5.801c-.723-.382-1.431-.681-2.126-.935.25-1.067.403-2.234.446-3.462h3.252c-.126 1.625-.687 3.13-1.571 4.397zm-3.877 3.142c.541-.747 1.001-1.67 1.361-2.727.524.196 1.057.425 1.598.698-.836.861-1.837 1.559-2.958 2.029zm-3.454.696h-.002c-1.425 0-2.713-1.555-3.491-3.879 1.8-.462 4.23-.69 6.972.033-.78 2.304-2.06 3.846-3.479 3.846zm-6.437-2.75c.322-.173.871-.444 1.606-.712.361 1.074.828 2.009 1.375 2.769-1.131-.477-2.141-1.183-2.981-2.056zm-.904-1.1c-.879-1.263-1.437-2.764-1.565-4.385h3.252c.043 1.214.192 2.368.438 3.425-1.067.382-1.809.776-2.124.96zm.017-10.199c.33.19 1.069.578 2.116.954-.25 1.065-.403 2.228-.446 3.456h-3.252c.128-1.633.694-3.14 1.581-4.41zm3.869-3.132c-.543.749-1.003 1.674-1.365 2.735-.721-.262-1.27-.529-1.596-.704.834-.863 1.837-1.561 2.961-2.031zm3.454-.696h.002c1.412 0 2.686 1.528 3.468 3.815-2.731.718-5.153.493-6.951.033.78-2.306 2.062-3.848 3.481-3.848zm4.251 9.641c-.041 1.071-.178 2.095-.392 3.037-3.033-.803-5.723-.549-7.723-.031-.211-.933-.345-1.947-.386-3.006h8.502zm-8.502-1.404c.041-1.078.182-2.104.396-3.049 1.096.285 2.382.502 3.836.502 1.197 0 2.5-.151 3.871-.514.217.948.357 1.98.398 3.062h-8.502zm10.643-5.535c-.537.268-1.065.498-1.586.69-.357-1.045-.815-1.955-1.35-2.696 1.111.467 2.106 1.156 2.936 2.007zm-6.39-4.106h-.002c-5.702 0-10.341 4.641-10.341 10.343 0 5.7 4.639 10.341 10.341 10.341h.002c5.702-.002 10.341-4.641 10.341-10.341 0-5.702-4.639-10.341-10.341-10.343zm.014-22.086c-17.286 0-31.298 14.014-31.298 31.3 0 17.284 14.012 31.298 31.298 31.298 17.286 0 31.3-14.014 31.3-31.298 0-17.286-14.014-31.3-31.3-31.3z"/></svg>